<svg id="icon" xmlns="http://www.w3.org/2000/svg" viewBox="0 0 32 32"><g id="face"><path id="body" d="M15.62,0c5.33-.06,10,2.93,13.17,6.78a14.25,14.25,0,0,1,2.75,12.67A15.65,15.65,0,0,1,23,30c-4.71,2.22-10.44,2.85-15.15.63C3.33,28.47,1.38,23.83.41,19.31-.51,15,0,10.62,2.84,7.05,5.88,3.2,10.36.06,15.62,0Z" transform="translate(0 0)" fill="#ff6464" fill-rule="evenodd"/><g id="pupils"><ellipse cx="10.17" cy="14.97" rx="5.2" ry="9.1" fill="#fff"/><ellipse cx="21.99" cy="14.97" rx="5.2" ry="9.1" fill="#fff"/><ellipse cx="21.99" cy="14.97" rx="5.2" ry="9.1" fill="#fff"/><ellipse cx="19.67" cy="15.66" rx="2.88" ry="2.96" fill="#4c300a"/><ellipse cx="10.17" cy="14.97" rx="5.2" ry="9.1" fill="#fff"/><ellipse cx="7.85" cy="15.66" rx="2.88" ry="2.96" fill="#4c300a"/></g><g id="eyes"><ellipse cx="10.17" cy="14.97" rx="5.2" ry="9.1" fill="none" stroke="#000" stroke-linecap="round" stroke-linejoin="round" stroke-width="0.73"/><ellipse cx="21.99" cy="14.97" rx="5.2" ry="9.1" fill="none" stroke="#000" stroke-linecap="round" stroke-linejoin="round" stroke-width="0.73"/><ellipse cx="7.85" cy="15.66" rx="1.3" ry="1.34"/><ellipse cx="19.67" cy="15.66" rx="1.3" ry="1.34"/><ellipse cx="7.85" cy="15.66" rx="1.3" ry="1.34" fill="none" stroke="#000" stroke-linecap="round" stroke-linejoin="round" stroke-width="0.73"/><ellipse cx="7.85" cy="15.66" rx="2.88" ry="2.96" fill="none" stroke="#000" stroke-linecap="round" stroke-linejoin="round" stroke-width="0.73"/><ellipse cx="19.67" cy="15.66" rx="1.3" ry="1.34" fill="none" stroke="#000" stroke-linecap="round" stroke-linejoin="round" stroke-width="0.73"/><ellipse cx="19.67" cy="15.66" rx="2.88" ry="2.96" fill="none" stroke="#000" stroke-linecap="round" stroke-linejoin="round" stroke-width="0.73"/></g></g></svg>