<svg xmlns="http://www.w3.org/2000/svg" width="192" height="192" fill="#000" xmlns:v="https://vecta.io/nano"><path d="M64.64 66.909l-.019 1.168.12 5.173c.089 2.664.734 6.297 1.933 10.9s3.115 8.989 5.745 13.152 5.227 7.255 7.78 9.279 5.571 2.395 9.045 1.122 6.72-3.227 9.741-5.87 5.311-5.525 6.871-8.657 2.673-5.894 3.341-8.288l1.435-5.27c.289-1.12.389-1.934.3-2.441l-.24-1.278c-.071-.348-.154-1.081-.249-2.201s-.214-1.954-.356-2.492l-.429-1.717c-.141-.603-.212-.951-.212-1.043a.76.76 0 0 1 .037-.263c.027-.083.067-.162.12-.235a.82.82 0 0 1 .189-.184.79.79 0 0 1 .24-.115c.086-.025.174-.035.263-.032a.84.84 0 0 1 .263.051c.083.031.16.078.231.134s.126.126.175.203a.84.84 0 0 1 .102.245c.018.086.024.174.018.263a.84.84 0 0 1-.212.48.94.94 0 0 1-.213.166.76.76 0 0 1-.249.088c-.089.015-.178.017-.267.005a.92.92 0 0 1-.25-.083.81.81 0 0 1-.216-.157.88.88 0 0 1-.153-.217c-.037-.08-.061-.165-.074-.254s-.009-.178.01-.268a.78.78 0 0 1 .097-.249c.047-.077.098-.145.166-.203a.93.93 0 0 1 .226-.143.83.83 0 0 1 .258-.06.87.87 0 0 1 .268.023.74.74 0 0 1 .24.111.78.78 0 0 1 .198.18.76.76 0 0 1 .125.231l.046.129.106.872c.071.585.18 1.183.328 1.795s.284 1.475.41 2.598.185 1.853.176 2.192.017.837.069 1.486-.066 1.544-.355 2.686-.786 2.944-1.482 5.408-1.867 5.325-3.516 8.574-4.048 6.24-7.199 8.966-6.574 4.711-10.272 5.957-6.959.798-9.792-1.352-5.598-5.367-8.292-9.649-4.656-8.772-5.884-13.47c-1.221-4.701-1.886-8.392-1.994-11.075l-.171-5.201-.005-1.251a.72.72 0 0 1 .037-.166.74.74 0 0 1 .083-.157.91.91 0 0 1 .115-.129.88.88 0 0 1 .138-.097.64.64 0 0 1 .162-.06.67.67 0 0 1 .171-.023.67.67 0 0 1 .171.023.64.64 0 0 1 .162.06.86.86 0 0 1 .138.097.91.91 0 0 1 .115.129.76.76 0 0 1 .083.157.72.72 0 0 1 .037.166l.014.083zM53.787 94.682l.12-1.587.498-4.19.743-5.182.863-4.55.9-3.645c.28-1.114.695-2.312 1.246-3.595a49.24 49.24 0 0 1 2.04-4.121l2.459-4.292 2.326-3.636 1.864-2.427a20.29 20.29 0 0 1 1.564-1.592c.514-.471.989-.861 1.426-1.172s.817-.623 1.14-.946a2.17 2.17 0 0 1 1.154-.618c.446-.089.863-.112 1.251-.069s.772.155 1.154.346l1.075.6c.338.209.681.491 1.029.844a12.68 12.68 0 0 1 .955 1.075l1.057 1.431c.421.587.904 1.344 1.449 2.27l1.352 2.409c.36.68.66 1.18.9 1.5l.66.923c.197.289.385.661.563 1.117s.425.921.738 1.407.535.932.665 1.338l.448 1.384.277.9a.93.93 0 0 1 .009.258c-.009.086-.023.171-.051.254a1.14 1.14 0 0 1-.111.231 1.13 1.13 0 0 1-.162.203 1.24 1.24 0 0 1-.208.152 1.04 1.04 0 0 1-.235.101 1.08 1.08 0 0 1-.258.042c-.086.003-.172-.003-.258-.018a1.21 1.21 0 0 1-.245-.083c-.077-.037-.149-.083-.217-.138s-.128-.117-.18-.185a1.1 1.1 0 0 1-.129-.226c-.034-.08.105-.371.415-.872s.895-1.243 1.753-2.224 1.858-1.914 3-2.806l3.281-2.51 2.912-2.003c.892-.548 1.749-1.011 2.57-1.389a20.34 20.34 0 0 0 2.243-1.195 8.01 8.01 0 0 1 2.178-.941 15.36 15.36 0 0 1 2.312-.429l2.367-.166 2.063-.092 1.564-.083c.486-.022 1.095.242 1.828.789s1.458 1.269 2.168 2.155 1.431 1.99 2.16 3.304 1.323 2.795 1.781 4.444l1.08 4.587.554 3.65.231 2.732.11 2.123c.028.621.019 1.22-.027 1.795l-.226 2.266-.227 3.244c-.046 1.231-.153 2.235-.323 3.013s-.286 1.486-.35 2.132l-.102 1.698.065 1.527.097 1.532c.015.489-.396 1.171-1.232 2.044l-1.426 1.388a1.08 1.08 0 0 1-.356.107c-.123.015-.246.01-.369-.014a1.27 1.27 0 0 1-.341-.134 1.11 1.11 0 0 1-.286-.235 1.04 1.04 0 0 1-.194-.314 1.03 1.03 0 0 1-.083-.36 1.12 1.12 0 0 1 .032-.365c.034-.123.085-.235.152-.337a1.13 1.13 0 0 1 .25-.272 1.19 1.19 0 0 1 .323-.18 1.12 1.12 0 0 1 .364-.065 1.13 1.13 0 0 1 .365.055c.12.037.229.097.327.171a1.1 1.1 0 0 1 .259.263 1.21 1.21 0 0 1 .161.332 1.13 1.13 0 0 1 .042.365c-.006.123-.028.247-.074.364a1.14 1.14 0 0 1-.185.319 1.24 1.24 0 0 1-.277.244 1.16 1.16 0 0 1-.341.139 1.28 1.28 0 0 1-.369.027 1.09 1.09 0 0 1-.356-.097c-.113-.049-.216-.117-.309-.203a1.09 1.09 0 0 1-.226-.29 1.06 1.06 0 0 1-.124-.347 1.14 1.14 0 0 1 .106-.72c.056-.111.132-.211.221-.3l.134-.129.955-.558c.637-.369.966-.74.988-1.112l.157-1.38.207-1.574.185-1.79c.068-.692.177-1.389.328-2.09s.24-1.687.276-2.949l.185-3.299.254-2.178a9.56 9.56 0 0 0 .101-1.68l-.092-2.072-.24-2.653-.558-3.544-1.034-4.375c-.431-1.55-.995-2.946-1.693-4.185s-1.377-2.255-2.036-3.055-1.23-1.421-1.725-1.855-.942-.655-1.348-.665l-1.435-.018a39.18 39.18 0 0 0-2.007.051l-2.229.175c-.692.08-1.365.205-2.017.374s-1.326.481-2.03.946a20.88 20.88 0 0 1-2.187 1.26 21.58 21.58 0 0 0-2.372 1.394c-.828.554-1.738 1.244-2.741 2.063l-3.041 2.566c-1.028.889-1.863 1.709-2.506 2.46l-1.49 1.758c-.354.428-.525.455-.512.083s.025-.511.037-.425.018.172.009.258-.023.171-.051.254a1.14 1.14 0 0 1-.111.231 1.13 1.13 0 0 1-.162.203 1.24 1.24 0 0 1-.208.152 1.04 1.04 0 0 1-.235.101 1.08 1.08 0 0 1-.258.042c-.086.003-.172-.003-.258-.018a1.21 1.21 0 0 1-.245-.083c-.077-.037-.149-.083-.217-.138s-.128-.117-.18-.185a1.1 1.1 0 0 1-.129-.226l-.355-.877a11.53 11.53 0 0 1-.489-1.491c-.126-.489-.3-.929-.521-1.32s-.451-.904-.697-1.55-.474-1.152-.692-1.527l-.914-1.514-1.421-2.187c-.554-.825-1.084-1.511-1.592-2.058l-1.417-1.666c-.443-.566-.892-1.026-1.347-1.38s-.903-.577-1.334-.669-.815-.04-1.144.157l-1.117.623c-.412.218-.86.548-1.343.988a19.92 19.92 0 0 0-1.472 1.49c-.495.554-1.092 1.332-1.791 2.335l-2.284 3.581-2.418 4.227-1.966 3.978c-.529 1.218-.929 2.384-1.2 3.498l-.872 3.586c-.308 1.277-.58 2.773-.817 4.49l-.706 5.136-.438 4.148-.106 1.666a.89.89 0 0 1-.051.166.74.74 0 0 1-.092.148.65.65 0 0 1-.125.12.6.6 0 0 1-.148.088.62.62 0 0 1-.161.051.83.83 0 0 1-.171.009.65.65 0 0 1-.171-.032.7.7 0 0 1-.157-.069.66.66 0 0 1-.134-.111.77.77 0 0 1-.106-.134.9.9 0 0 1-.069-.157.79.79 0 0 1-.028-.171l-.005-.083z"/><path d="M53.39 93.458l.295 1.375.632 3.032.683 2.972c.228.879.492 1.709.794 2.487s.688 1.613 1.158 2.496l1.431 2.524c.483.8.995 1.537 1.537 2.211s1.034 1.221 1.467 1.633.894.723 1.389.933 1.106.518 1.841.918 1.486.754 2.261 1.052l2.206.863 1.984.683a11.64 11.64 0 0 0 1.938.383l1.684.125c.458.009.846.099 1.163.272a1.85 1.85 0 0 0 .997.24l1.14-.023 1.518.037a13.57 13.57 0 0 0 1.763-.033l1.809-.097 1.947-.115 2.501-.226 3.304-.295 3.392-.425 2.912-.489 2.381-.512 2.288-.536 2.271-.438 1.776-.429a6.96 6.96 0 0 0 1.297-.535c.378-.204.7-.416.964-.637s.494-.496.697-.822.434-.65.692-.983l.762-.936.692-.896c.215-.307.389-.612.521-.913s.26-.645.383-1.029l.379-1.177a6.35 6.35 0 0 1 .531-1.186l.678-1.117.724-1.241c.259-.477.451-1.06.577-1.749l.369-1.657.36-1.527.36-1.44c.117-.351.194-.826.231-1.426l.102-1.117c.033-.135.087-.265.161-.388a1.28 1.28 0 0 1 .282-.323 1.21 1.21 0 0 1 .369-.212 1.3 1.3 0 0 1 .415-.088 1.32 1.32 0 0 1 .425.051c.138.04.267.102.387.185s.219.181.305.295a1.29 1.29 0 0 1 .194.378c.044.135.067.275.064.42s-.028.285-.074.42-.117.26-.203.374a1.34 1.34 0 0 1-.314.291 1.28 1.28 0 0 1-.392.175 1.4 1.4 0 0 1-.424.037 1.32 1.32 0 0 1-.416-.097 1.22 1.22 0 0 1-.36-.222c-.11-.095-.201-.205-.272-.328s-.124-.26-.152-.401a1.24 1.24 0 0 1-.019-.425 1.22 1.22 0 0 1 .12-.406 1.39 1.39 0 0 1 .24-.351 1.43 1.43 0 0 1 .346-.254 1.32 1.32 0 0 1 .407-.129 1.31 1.31 0 0 1 .424.005 1.26 1.26 0 0 1 .402.143 1.3 1.3 0 0 1 .336.258c.099.108.177.228.236.36a1.31 1.31 0 0 1 .111.406l.018.217a348.44 348.44 0 0 0-.078.872 7.16 7.16 0 0 1-.342 1.633l-.489 1.703-.388 1.514-.29 1.172-.273 1.269c-.098.437-.326.937-.683 1.5l-1.126 1.684c-.393.563-.659 1.04-.798 1.431l-.452 1.301a8.38 8.38 0 0 1-.582 1.315c-.218.4-.467.772-.747 1.117s-.548.644-.803.89l-.775.776-.923 1.056c-.354.428-.722.756-1.103.983a8.44 8.44 0 0 1-1.288.623c-.476.188-.976.336-1.499.443l-1.828.369-2.219.448-2.298.558a24.01 24.01 0 0 1-2.441.559l-2.953.535-3.429.489-3.281.369-2.538.342-1.943.217-1.86.198c-.643.089-1.27.142-1.883.157s-1.146.014-1.592-.014a11.75 11.75 0 0 1-1.32-.147c-.434-.077-.783-.248-1.047-.513s-.606-.426-1.025-.484l-1.726-.212a13.35 13.35 0 0 1-2.1-.416 21.86 21.86 0 0 1-2.04-.687l-2.284-.877c-.828-.314-1.6-.662-2.317-1.043l-1.966-1.024a6.23 6.23 0 0 1-1.592-1.145c-.465-.462-.991-1.052-1.569-1.772s-1.115-1.483-1.61-2.298l-1.495-2.616a24 24 0 0 1-1.237-2.621 25.7 25.7 0 0 1-.863-2.585l-.734-2.981-.692-3.009-.346-1.458a.67.67 0 0 1 .005-.175.81.81 0 0 1 .046-.175.74.74 0 0 1 .083-.157.86.86 0 0 1 .125-.134c.043-.037.092-.069.148-.097a.63.63 0 0 1 .166-.06.57.57 0 0 1 .175-.019.7.7 0 0 1 .175.023c.058.015.114.037.166.065s.105.063.148.106.082.085.115.134a.74.74 0 0 1 .083.161l.032.083zm27.941-53.566l-1.094-.019-2.109-.028c-.677-.009-1.255.046-1.735.166s-1.101.411-1.873.863l-2.769 1.8-3.295 2.492-3.498 2.953-3.604 3.087-3.087 2.635c-.867.757-1.567 1.45-2.1 2.081l-1.403 1.837-1.334 1.938-1.491 2.164-1.26 1.91c-.332.532-.655 1.148-.969 1.846l-1.043 2.418-.992 2.672-.78 2.607-.605 2.663-.434 2.686-.461 2.658a22.75 22.75 0 0 0-.378 2.524l-.157 2.275-.069 2.293.065 2.612.208 2.921.268 2.815c.098.868.257 1.78.475 2.737s.529 2.021.923 3.194l1.204 3.336 1.237 2.806c.412.818.823 1.533 1.232 2.145a15.7 15.7 0 0 0 1.227 1.62l1.343 1.606c.489.6.98 1.127 1.472 1.583l1.292 1.218 1.56 1.407 1.108.965a.73.73 0 0 1 .161.226c.04.086.071.171.083.263a.8.8 0 0 1-.005.272c-.019.089-.046.18-.092.263a.95.95 0 0 1-.171.217.91.91 0 0 1-.231.148.89.89 0 0 1-.268.069.85.85 0 0 1-.277-.018 1 1 0 0 1-.254-.111c-.08-.049-.149-.109-.208-.18a.94.94 0 0 1-.138-.24.89.89 0 0 1-.051-.272c-.006-.093.005-.183.032-.273a.91.91 0 0 1 .12-.249.84.84 0 0 1 .194-.194.88.88 0 0 1 .249-.124.75.75 0 0 1 .272-.042c.092.003.183.02.272.051a.8.8 0 0 1 .24.134c.074.059.135.126.184.203a.81.81 0 0 1 .111.254c.025.089.034.181.028.277a1 1 0 0 1-.065.267.83.83 0 0 1-.148.231.79.79 0 0 1-.217.175.84.84 0 0 1-.258.097c-.092.018-.18.022-.272.009a.91.91 0 0 1-.268-.078l-.125-.06-1.015-1.103-1.477-1.666c-.308-.375-.726-.81-1.255-1.306a16.44 16.44 0 0 1-1.518-1.629l-1.38-1.652c-.437-.51-.872-1.093-1.306-1.749a21.66 21.66 0 0 1-1.292-2.265c-.428-.852-.849-1.814-1.264-2.884l-1.237-3.42-.951-3.318a25.03 25.03 0 0 1-.485-2.824l-.272-2.843-.212-2.981-.065-2.677.069-2.34.166-2.367a24.89 24.89 0 0 1 .383-2.556l.461-2.644.448-2.76.618-2.741.803-2.686 1.006-2.736 1.084-2.515c.338-.751.681-1.397 1.029-1.938l1.283-1.924 1.486-2.164 1.366-1.993a23.29 23.29 0 0 1 1.504-1.957c.572-.68 1.294-1.401 2.164-2.164l3.078-2.649 3.595-3.106 3.53-3.023 3.359-2.589 2.995-1.957c.898-.523 1.64-.834 2.224-.932s1.215-.157 1.892-.166l2.114-.028 1.181-.009a.66.66 0 0 1 .171.041c.055.022.108.049.157.083a.68.68 0 0 1 .129.115c.037.043.074.095.102.148a.78.78 0 0 1 .065.166.8.8 0 0 1 .018.171c0 .059-.006.115-.018.171a.78.78 0 0 1-.065.166.79.79 0 0 1-.102.148.91.91 0 0 1-.129.115.74.74 0 0 1-.157.083.66.66 0 0 1-.171.042l-.088.009zm-.372-4.399l.725.185c.486.126.907.208 1.264.245s.735.129 1.135.286.857.24 1.371.258l1.514.014 1.56.032 1.934.212 2.496.355 2.866.369 3.041.364 3.138.438 3.609.457 3.917.554 3.351.683c.969.218 1.781.531 2.436.937s1.423 1.015 2.312 1.827l2.972 2.755a35.46 35.46 0 0 1 3.008 3.152l2.215 2.741c.57.745 1.076 1.607 1.519 2.589l1.296 2.838c.422.914.788 1.863 1.099 2.847l1.019 2.926c.367.966.663 1.897.891 2.792l.572 2.69.429 2.695.273 2.879.115 3.129.051 3.383-.069 3.59a38.85 38.85 0 0 1-.402 3.881l-.627 3.973-.54 3.304-.508 2.866c-.185.975-.472 2.08-.863 3.314l-1.103 3.401c-.347 1.03-.753 2.005-1.218 2.925l-1.347 2.64c-.437.84-.908 1.619-1.413 2.339l-1.628 2.142-1.989 2.21c-.742.766-1.46 1.43-2.155 1.993l-2.026 1.629a13.42 13.42 0 0 1-2.178 1.399l-2.321 1.209-2.262 1.107-2.173.909-2.575.988-3.576 1.195-4.836 1.287-5.002 1.062-3.401.623-2.187.355-2.067.157c-.717.028-1.538.02-2.464-.023s-1.975-.256-3.138-.628l-3.572-1.218c-1.212-.44-2.243-.903-3.092-1.389l-2.538-1.555-2.427-1.504-2.293-1.316-1.906-1.052a8.23 8.23 0 0 0-1.62-.678l-.955-.309a.84.84 0 0 1-.189-.157.88.88 0 0 1-.129-.203.8.8 0 0 1-.055-.236.81.81 0 0 1 .019-.244.8.8 0 0 1 .097-.222.94.94 0 0 1 .162-.18.74.74 0 0 1 .212-.12.85.85 0 0 1 .24-.046.8.8 0 0 1 .24.037.77.77 0 0 1 .217.106.8.8 0 0 1 .175.176.74.74 0 0 1 .106.217c.025.076.035.156.032.24a.78.78 0 0 1-.046.239c-.031.077-.072.148-.125.213a.75.75 0 0 1-.18.161.72.72 0 0 1-.221.093.67.67 0 0 1-.245.018.71.71 0 0 1-.235-.06c-.074-.031-.142-.074-.203-.129s-.112-.119-.152-.189a.8.8 0 0 1-.083-.231.7.7 0 0 1-.005-.24.84.84 0 0 1 .069-.235.65.65 0 0 1 .143-.194.75.75 0 0 1 .198-.143.71.71 0 0 1 .235-.07c.08-.012.16-.01.24.005l.12.028.909.397a13.2 13.2 0 0 1 1.652.863l1.887 1.093 2.326 1.334 2.423 1.504 2.418 1.491c.784.458 1.777.906 2.976 1.343l3.396 1.181c1.064.351 2.04.549 2.926.595l2.363.023 1.97-.143c.628-.064 1.346-.18 2.155-.346l3.378-.618 4.933-1.048 4.762-1.26 3.53-1.181 2.543-.974 2.109-.881 2.233-1.094 2.229-1.149a12.15 12.15 0 0 0 2.077-1.329l1.961-1.573a23.97 23.97 0 0 0 2.072-1.911l1.924-2.136 1.56-2.035c.477-.677.932-1.432 1.366-2.266l1.315-2.552c.44-.867.832-1.813 1.177-2.838l1.084-3.318c.378-1.19.66-2.267.844-3.23l.499-2.847.54-3.299.623-3.904c.206-1.341.337-2.603.392-3.784l.069-3.549-.046-3.355-.115-3.059-.263-2.806-.416-2.63-.544-2.579c-.212-.849-.508-1.769-.886-2.76l-1.002-2.884a22.65 22.65 0 0 0-1.075-2.778l-1.236-2.723a11.96 11.96 0 0 0-1.436-2.441l-2.145-2.653c-.877-1.04-1.865-2.069-2.963-3.087l-2.893-2.667c-.834-.76-1.514-1.312-2.04-1.657s-1.258-.612-2.206-.812l-3.262-.614-3.904-.489-3.618-.374-3.11-.314-3.055-.198-2.87-.152-2.413-.065-1.86.046a15.4 15.4 0 0 1-1.606.009l-1.527-.134a5.71 5.71 0 0 1-1.477-.42c-.493-.212-.946-.349-1.371-.411l-1.366-.245-.863-.203a1.4 1.4 0 0 1-.245-.125 1.1 1.1 0 0 1-.208-.184.98.98 0 0 1-.162-.226 1.21 1.21 0 0 1-.102-.254 1.32 1.32 0 0 1-.037-.277c0-.089.011-.178.032-.268a1.29 1.29 0 0 1 .092-.258 1.17 1.17 0 0 1 .157-.231.97.97 0 0 1 .203-.185 1.11 1.11 0 0 1 .245-.134 1.14 1.14 0 0 1 .268-.069 1.01 1.01 0 0 1 .272 0l.138.014z"/><path d="M73.192 57.369l1.02.512c.677.338 1.674 1.209 2.99 2.612s2.321 2.873 3.013 4.411l2.086 4.472c.701 1.437 1.427 1.615 2.178.535s1.846-2.257 3.286-3.521 2.847-2.31 4.222-3.138 2.697-1.494 3.973-1.998a37.94 37.94 0 0 1 3.835-1.287l4.061-.904 4.342-.706c1.468-.221 3.301.157 5.501 1.135s3.642 2.104 4.328 3.378 1.18 2.741 1.472 4.402.463 3.364.503 5.108l.069 4.915.028 4.467c.006 1.443-.146 2.996-.457 4.661s-.915 2.983-1.813 3.955-1.978 1.658-3.249 2.067-3.035.309-5.302-.309-4.075-1.243-5.413-1.883l-3.876-1.929-3.978-2.229c-1.406-.834-2.846-1.109-4.319-.826l-4.209.877c-1.332.298-3.087.598-5.265.9l-5.348.581c-1.388.086-3.115-.138-5.182-.674s-3.867-1.244-5.408-2.118-3.393-2.733-5.565-5.579-2.758-5.207-1.749-7.083 1.775-3.484 2.298-4.832 1.275-2.621 2.257-3.812 1.789-2.389 2.413-3.595 2.592-1.918 5.902-2.137 5.56.408 6.742 1.869 2.113 2.838 2.806 4.139 1.717 2.461 3.073 3.479 2.956 1.607 4.808 1.767l5.782.351c2.003.074 2.798-.74 2.386-2.441s-.163-3.186.748-4.453c.911-1.261 2.12-2.186 3.627-2.773s1.48-.125-.074 1.38l-2.316 2.109c.009-.092.112-.398.309-.918s.447-1.012.761-1.467a6.93 6.93 0 0 1 1.098-1.241 6.72 6.72 0 0 1 1.362-.946c.489-.261 1.004-.46 1.546-.595s1.086-.203 1.642-.203 1.106.062 1.648.194a6.92 6.92 0 0 1 1.55.581 6.82 6.82 0 0 1 1.366.937 6.88 6.88 0 0 1 1.103 1.237 6.56 6.56 0 0 1 .775 1.463 6.69 6.69 0 0 1 .402 1.606c.071.551.072 1.103.004 1.657s.368 1.733 1.297 3.539 1.505 3.442 1.735 4.91l.692 4.735c.228 1.683.316 2.892.263 3.627a6.64 6.64 0 0 1-.498 2.127c-.283.68-.667 1.297-1.154 1.85a6.64 6.64 0 0 1-1.684 1.389c-.637.372-1.317.632-2.04.78a6.64 6.64 0 0 1-2.178.083c-.732-.089-1.43-.294-2.095-.614s-1.261-.737-1.79-1.251a6.67 6.67 0 0 1-1.292-1.758c-.339-.655-.562-1.347-.669-2.077s-.097-1.457.032-2.183a6.78 6.78 0 0 1 .729-2.058 6.62 6.62 0 0 1 1.348-1.717c.541-.501 1.149-.901 1.822-1.2a6.8 6.8 0 0 1 2.114-.554c.732-.068 1.458-.017 2.178.152a6.65 6.65 0 0 1 2.012.84 6.62 6.62 0 0 1 1.643 1.435c.47.569.836 1.198 1.098 1.887s.408 1.401.438 2.136a6.79 6.79 0 0 1-.267 2.169 6.78 6.78 0 0 1-.946 1.966 6.83 6.83 0 0 1-1.528 1.564 6.7 6.7 0 0 1-1.942.992 6.68 6.68 0 0 1-2.16.318 6.64 6.64 0 0 1-2.146-.383 6.74 6.74 0 0 1-1.915-1.052c-.581-.455-1.074-.991-1.477-1.606a6.67 6.67 0 0 1-.886-1.993l-.281-1.071-.3-2.201a55.15 55.15 0 0 0-.918-4.891l-1.237-4.758c-.409-1.384-.769-2.993-1.08-4.827s-.372-3.01-.175-3.53.447-1.012.761-1.467a6.93 6.93 0 0 1 1.098-1.241c.416-.372.868-.688 1.357-.946a6.81 6.81 0 0 1 1.551-.595c.538-.135 1.086-.203 1.642-.203s1.106.062 1.648.194 1.058.323 1.55.581.948.571 1.366.937a6.68 6.68 0 0 1 1.103 1.237 6.9 6.9 0 0 1 .775 1.458c.2.52.334 1.057.402 1.611s.072 1.103.004 1.657-.384 1.4-.959 2.538-1.688 2.153-3.327 3.036-1.925.849-.854-.092 1.601-2.095 1.592-3.461.094-1.357.3.018.243 2.867.12 4.467a15.36 15.36 0 0 1-1.135 4.702c-.634 1.535-1.563 2.764-2.788 3.687s-2.473 1.569-3.747 1.938-2.835.568-4.683.586-3.873.012-6.082-.018-4.307-.215-6.303-.544a17.6 17.6 0 0 1-5.644-1.961c-1.769-.975-3.298-2.01-4.587-3.106s-2.461-2.343-3.516-3.743-1.666-2.918-1.841-4.555 1.244-2.641 4.25-3.013 4.195.134 3.558 1.518-1.486 2.66-2.538 3.826-1.955 2.42-2.709 3.77-1.638 2.596-2.653 3.747-1.295 1.06-.84-.272.454-3.026-.014-5.09-.049-2.712 1.264-1.943l3.793 2.053c1.212.597 2.57.818 4.075.665s3.106-.418 4.813-.803l5.805-1.071c2.163-.326 4.385-.411 6.668-.254s4.151.555 5.606 1.195l4.426 2.141c1.495.791 2.568 1.786 3.221 2.986s.479 2.264-.517 3.184-1.488.594-1.482-.969l.019-4.679.148-4.324c.089-1.329.906-1.709 2.45-1.14s1.577.98.088 1.241l-4.287.752c-1.372.24-2.921.712-4.647 1.417s-3.124 1.518-4.195 2.441l-3.433 2.709c-1.215.883-2.669 1.712-4.361 2.487s-3.533 1.181-5.533 1.218-3.761-.338-5.275-1.117-2.697-2.046-3.549-3.812l-2.049-4.836c-.517-1.458-.874-2.884-1.071-4.278-.203-1.397-.614-2.315-1.232-2.755l-1.37-1.001c-.295-.231-.56-.492-.794-.784s-.425-.614-.581-.955a4.62 4.62 0 0 1-.332-1.061c-.071-.369-.095-.74-.074-1.112s.088-.738.198-1.098.263-.695.457-1.015a4.42 4.42 0 0 1 .683-.881c.265-.268.557-.498.877-.692a4.72 4.72 0 0 1 1.015-.462c.357-.114.723-.181 1.098-.203a4.47 4.47 0 0 1 1.108.065c.369.065.724.174 1.066.328l.512.226z" fill-opacity=".3"/><path d="M112.613 90.385l-1.883-.078c-1.258-.052-2.945-.238-5.062-.558l-6.4-1.144-6.59-1.251c-2.246-.385-4.333-.598-6.262-.641s-3.586.026-4.961.208l-5.15.844c-2.058.378-4.279.575-6.663.591s-4.453-.589-6.216-1.823-3.232-2.753-4.416-4.559-1.932-3.539-2.243-5.191-.137-3.564.521-5.736 1.391-3.999 2.197-5.473l2.229-3.987 2.598-4.135c1.049-1.572 2.19-2.738 3.424-3.498s2.641-1.161 4.222-1.195 3.099.311 4.555 1.034 2.532 1.913 3.239 3.581 1.28 3.267 1.726 4.799l1.061 4.444c.268 1.43.374 2.906.318 4.425s.443 1.818 1.486.886 2.34-1.632 3.881-2.109a15.16 15.16 0 0 0 4.273-2.09l3.724-2.621c1.178-.834 2.504-1.674 3.978-2.52s2.953-1.535 4.439-2.058 3.141-.818 4.975-.886 3.399.223 4.697.881 2.709 2.067 4.223 4.227 2.439 3.878 2.778 5.154.5 2.927.484 4.951-.192 3.77-.531 5.228-.895 2.841-1.67 4.148-2.25 2.387-4.416 3.249c-2.16.861-4.455 1.098-6.885.711s-4.236-1.172-5.418-2.344-2.182-2.786-3.013-4.85-1.212-3.756-1.135-5.076l.471-4.342c.237-1.572.172-3.142-.194-4.712s-.023-1.778 1.029-.618 2.336 1.735 3.853 1.735 1.958.586 1.324 1.749-1.55 2.363-2.75 3.59l-2.363 2.317c-.381.317-.89.663-1.527 1.038s-1.321.634-2.044.785-1.457.183-2.192.097-1.437-.294-2.104-.614a6.68 6.68 0 0 1-1.8-1.251c-.532-.514-.968-1.1-1.306-1.758s-.568-1.354-.678-2.086a6.72 6.72 0 0 1 .028-2.192c.126-.729.368-1.418.724-2.067s.801-1.226 1.343-1.73 1.155-.904 1.832-1.209a6.81 6.81 0 0 1 2.118-.563c.735-.071 1.464-.022 2.187.148s1.395.443 2.026.831 1.178.871 1.652 1.44.843 1.2 1.107 1.892.417 1.404.448 2.146a6.74 6.74 0 0 1-.263 2.173 6.71 6.71 0 0 1-.941 1.98c-.425.609-.934 1.134-1.528 1.573a6.66 6.66 0 0 1-1.947 1.006 6.73 6.73 0 0 1-2.169.328 6.77 6.77 0 0 1-2.155-.378c-.701-.246-1.343-.597-1.924-1.052a6.67 6.67 0 0 1-1.49-1.606 6.66 6.66 0 0 1-1.108-4.181 6.82 6.82 0 0 1 .494-2.136c.283-.683.668-1.304 1.154-1.864l.729-.835a33.77 33.77 0 0 1 .568-.475c.382-.314.972-1.017 1.772-2.109l2.676-3.479c.984-1.221 2.732-2.289 5.242-3.203s4.583-.926 6.216-.028a8.88 8.88 0 0 1 3.738 3.881 17.62 17.62 0 0 1 1.707 5.297c.28 1.837.33 3.758.148 5.764-.188 2.003-.954 3.355-2.298 4.056s-1.598.438-.761-.789.606-1.624-.693-1.2-2.788 1.195-4.48 2.312l-4.643 3.166c-1.4.994-2.775 1.809-4.125 2.446s-2.669 1.183-3.964 1.629-2.72.774-4.273.974-3.566.335-6.036.397-4.656-.326-6.557-1.172-3.223-1.947-3.955-3.304a13.03 13.03 0 0 1-1.43-4.273 29.88 29.88 0 0 1-.295-4.799 42.03 42.03 0 0 0-.203-4.836c-.16-1.526.638-1.835 2.395-.928s2.292 1.96 1.597 3.166-1.584 2.407-2.667 3.604-1.18 2.326-.291 3.387 2.289 1.478 4.209 1.241l6.174-.595c2.2-.166 4.462-.174 6.788-.023a58 58 0 0 1 7.236.951l6.927 1.546 5.616 1.444c1.627.415 3.067.683 4.319.803l2.45.291c.388.074.762.194 1.122.36s.69.372 1.001.618.581.526.821.84.443.648.6 1.011a4.78 4.78 0 0 1 .342 1.126 4.86 4.86 0 0 1 .06 1.167c-.028.394-.102.78-.222 1.158a4.85 4.85 0 0 1-.489 1.066 5.03 5.03 0 0 1-.734.918c-.283.277-.593.517-.932.72s-.701.358-1.08.475-.761.18-1.158.198l-.586.032z" fill-opacity=".3"/><path d="M77.136 90.558l.42.406 1.269 1.2c.563.532.986.881 1.269 1.047l1.029.558c.397.203.871.404 1.421.605l1.449.457c.415.108.895.197 1.44.268l1.578.157 1.555.046 1.541-.014c.498-.009 1.004-.057 1.518-.143s.929-.232 1.246-.438l1.02-.669.992-.678c.298-.209.517-.338.655-.388a.57.57 0 0 0 .318-.305 1.52 1.52 0 0 1 .3-.411 1.49 1.49 0 0 1 .411-.291 1.57 1.57 0 0 1 .485-.143 1.55 1.55 0 0 1 .508.019 1.61 1.61 0 0 1 .471.175 1.63 1.63 0 0 1 .392.318 1.48 1.48 0 0 1 .268.429 1.51 1.51 0 0 1 .12.494c.012.169-.003.337-.046.503a1.41 1.41 0 0 1-.203.461c-.092.145-.205.269-.337.374a1.49 1.49 0 0 1-.443.245 1.56 1.56 0 0 1-.498.092 1.59 1.59 0 0 1-.498-.069 1.57 1.57 0 0 1-.452-.231 1.58 1.58 0 0 1-.355-.36 1.56 1.56 0 0 1-.287-.955 1.61 1.61 0 0 1 .097-.498 1.62 1.62 0 0 1 .254-.434 1.6 1.6 0 0 1 .378-.337c.144-.092.3-.158.466-.198a1.54 1.54 0 0 1 .503-.037c.172.015.337.059.494.129a1.56 1.56 0 0 1 .42.272 1.62 1.62 0 0 1 .314.397c.083.151.14.309.171.475s.035.338.014.508l-.037.254-.909.941c-.606.631-1.086 1.055-1.44 1.274l-1.015.623-1.029.563c-.366.185-.798.354-1.297.508a6.84 6.84 0 0 1-1.491.295 15.06 15.06 0 0 1-1.495.046l-1.611-.046-1.657-.12-1.37-.157c-.372-.043-.835-.141-1.389-.295s-1.087-.343-1.601-.558l-1.264-.554-1.209-.568c-.48-.228-.911-.466-1.292-.715s-.875-.655-1.481-1.209l-1.315-1.255-.494-.531a1.08 1.08 0 0 1-.143-.235 1.1 1.1 0 0 1-.083-.268c-.015-.093-.025-.185-.019-.277s.023-.183.051-.272a1.14 1.14 0 0 1 .115-.254 1.07 1.07 0 0 1 .392-.392 1.11 1.11 0 0 1 .254-.115 1.18 1.18 0 0 1 .272-.051 1.05 1.05 0 0 1 .277.018 1.04 1.04 0 0 1 .268.083c.083.037.162.085.235.143l.111.088zM44.958 137.75l.683-.037c.455-.025 1.001-.1 1.638-.226l2.427-.499 3.475-.715 4.319-1.034 4.859-1.287 4.827-1.172 4.273-1.066 3.812-1.02 3.406-.835 3.175-.697 3.212-.803 3.512-1.08 3.456-1.034 2.999-.95 2.967-1.08 3.096-1.149 2.912-1.117 2.506-.932 2.381-.854 2.672-.936 2.842-1.025 2.52-.946 1.984-.757 1.768-.627 1.795-.568 1.522-.553 1.256-.527 1.213-.484 1.094-.425 1.264-.47c.514-.188 1.042-.416 1.583-.683a9.83 9.83 0 0 1 1.666-.637l1.052-.254a1.15 1.15 0 0 1 .383.028 1.28 1.28 0 0 1 .351.152c.107.071.203.157.286.259a1.09 1.09 0 0 1 .184.332c.047.12.071.244.074.374a1.28 1.28 0 0 1-.05.383 1.27 1.27 0 0 1-.171.341 1.19 1.19 0 0 1-.272.268c-.105.077-.219.134-.342.17a1.15 1.15 0 0 1-.378.051c-.129-.006-.256-.026-.379-.069a1.27 1.27 0 0 1-.332-.189c-.102-.083-.186-.179-.254-.286a1.12 1.12 0 0 1-.152-.351c-.031-.126-.042-.254-.032-.383a1.25 1.25 0 0 1 .092-.369c.052-.12.121-.228.208-.323a1.05 1.05 0 0 1 .3-.24c.11-.065.23-.109.359-.134a1.12 1.12 0 0 1 .383-.009c.127.018.248.057.365.115a1.13 1.13 0 0 1 .309.222 1.17 1.17 0 0 1 .222.309 1.2 1.2 0 0 1 .115.369c.015.126.011.254-.014.383a1.23 1.23 0 0 1-.129.36 1.24 1.24 0 0 1-.24.295c-.098.086-.206.156-.323.208l-.18.074-1.112.286-1.638.512c-.354.154-.803.286-1.348.397l-1.292.272-1.103.277-1.25.351-1.325.374-1.587.475-1.758.521-1.749.577-1.994.738-2.533.951-2.852 1.029-2.662.932-2.368.854-2.492.927-2.925 1.122-3.106 1.149-3.018 1.103-3.018.955-3.443 1.034-3.576 1.098-3.244.821-3.143.697-3.378.84-3.825 1.038-4.273 1.085-4.799 1.195-4.878 1.329-4.342 1.094-3.452.784-2.58.604c-.741.179-1.341.256-1.8.231l-.775-.046c-.058-.006-.115-.02-.171-.041a.72.72 0 0 1-.157-.084.68.68 0 0 1-.235-.263c-.028-.055-.048-.11-.06-.166s-.023-.117-.023-.175a.7.7 0 0 1 .023-.175c.015-.058.032-.111.06-.167a.7.7 0 0 1 .102-.143c.04-.046.085-.086.134-.12s.102-.061.157-.083a.63.63 0 0 1 .171-.041l.088-.009z"/><path d="M135.763 103.463l-.508 1.181-.9 2.335c-.261.769-.45 1.454-.567 2.054s-.074 1.078.12 1.435.432.275.715-.245l.711-1.269.461-.724.258-.337a1.14 1.14 0 0 1 .194-.185c.071-.052.148-.097.231-.133s.165-.057.254-.07.177-.02.263-.014.177.028.263.056a1.1 1.1 0 0 1 .24.115 1.07 1.07 0 0 1 .203.166 1.24 1.24 0 0 1 .161.213c.043.08.077.161.102.244a1.24 1.24 0 0 1 .046.263c.003.089-.005.179-.023.268s-.048.169-.088.249-.043-.049-.018-.388.077-.14.166.596.129 1.429.129 2.09.206 1.101.609 1.32.908.117 1.505-.305a10.73 10.73 0 0 0 1.721-1.513l1.172-1.385.429-.572a1.14 1.14 0 0 1 .176-.12.82.82 0 0 1 .198-.074.73.73 0 0 1 .212-.023 1.03 1.03 0 0 1 .213.023c.067.019.133.045.198.079a1.01 1.01 0 0 1 .171.12.9.9 0 0 1 .143.161.89.89 0 0 1 .097.189 1 1 0 0 1 .05.208.94.94 0 0 1-.004.212.85.85 0 0 1-.051.203.74.74 0 0 1-.102.19c-.04.058.031.444.213 1.158s.398.94.65.687l.48-.521c.071-.098.156-.181.254-.249a1.03 1.03 0 0 1 .669-.194c.117.003.233.026.346.069s.213.102.305.176a1.09 1.09 0 0 1 .369.595 1.04 1.04 0 0 1 .023.351c-.012.12-.041.233-.088.341s-.113.209-.193.295-.177.162-.282.217a1.04 1.04 0 0 1-.332.12c-.117.022-.234.023-.351.005s-.232-.054-.337-.106a1.09 1.09 0 0 1-.286-.213 1.04 1.04 0 0 1-.203-.286 1.03 1.03 0 0 1-.097-.341c-.015-.117-.01-.234.014-.351s.063-.227.125-.332.134-.192.226-.272a.97.97 0 0 1 .3-.185 1.06 1.06 0 0 1 .692-.051c.117.031.225.079.323.143a1.16 1.16 0 0 1 .263.24c.074.096.131.199.171.31a1.22 1.22 0 0 1 .06.35c.003.117-.014.232-.051.346l-.055.171-.776 1.089c-.513.726-.969 1.118-1.366 1.177s-.818-.089-1.264-.434-.732-.771-.858-1.278-.188-1.022-.194-1.532l-.069-1.68c-.04-.609-.034-.937.018-.983a1.14 1.14 0 0 1 .176-.12.82.82 0 0 1 .198-.074.73.73 0 0 1 .212-.023 1.03 1.03 0 0 1 .213.023c.067.019.133.045.198.079a1.01 1.01 0 0 1 .171.12.9.9 0 0 1 .143.161.89.89 0 0 1 .097.189 1 1 0 0 1 .05.208.94.94 0 0 1-.004.212.85.85 0 0 1-.051.203.74.74 0 0 1-.102.19c-.04.058-.195.238-.466.54l-1.352 1.541a8.85 8.85 0 0 1-2.339 1.883c-.926.526-1.726.675-2.4.447s-1.169-.597-1.486-1.098-.523-1.115-.618-1.841-.123-1.277-.083-1.652.017-.789-.069-1.232-.102-.703-.047-.771a1.14 1.14 0 0 1 .194-.185c.071-.052.148-.097.231-.133s.165-.057.254-.07.177-.02.263-.014.177.028.263.056a1.1 1.1 0 0 1 .24.115 1.07 1.07 0 0 1 .203.166 1.24 1.24 0 0 1 .161.213c.043.08.077.161.102.244a1.07 1.07 0 0 1 .041.263.97.97 0 0 1-.018.268c-.018.086-.048.169-.088.249s-.129.189-.277.328-.338.381-.581.738l-.974 1.338c-.406.539-.827.888-1.264 1.048a1.78 1.78 0 0 1-1.329-.046c-.446-.188-.763-.451-.951-.789s-.306-.751-.355-1.237-.023-1.074.069-1.763.251-1.441.476-2.266l.742-2.459.467-1.325a.94.94 0 0 1 .138-.198.9.9 0 0 1 .18-.162c.068-.046.14-.084.217-.115s.155-.046.235-.055.16-.01.24 0a.9.9 0 0 1 .24.06.95.95 0 0 1 .212.11 1.02 1.02 0 0 1 .185.162 1.17 1.17 0 0 1 .138.203c.037.074.065.149.083.226a.9.9 0 0 1 .033.24.9.9 0 0 1-.033.24l-.027.12z"/><path d="M136.366 100.53l1.366-.005 3.34.005 3.549.027 2.358-.004 1.338-.014c.373.009.739.054 1.099.134s.736.223 1.13.429.791.454 1.191.743.781.706 1.153 1.25a13.81 13.81 0 0 1 .909 1.509c.233.458.442 1.077.623 1.846s.193 1.577.024 2.414-.293 1.298-.379 1.384a1.11 1.11 0 0 1-.632.305 1.09 1.09 0 0 1-.355-.014 1.02 1.02 0 0 1-.333-.125c-.104-.058-.197-.134-.277-.226a1.12 1.12 0 0 1-.184-.3.97.97 0 0 1-.083-.346c-.009-.12.001-.238.032-.355a1.03 1.03 0 0 1 .143-.323c.067-.098.145-.189.24-.263a1 1 0 0 1 .309-.176 1.14 1.14 0 0 1 .351-.064 1.13 1.13 0 0 1 .351.055 1.05 1.05 0 0 1 .318.157 1 1 0 0 1 .249.254 1.04 1.04 0 0 1 .199.674c-.003.12-.026.236-.069.35s-.102.214-.176.309-.166.171-.267.236a1.16 1.16 0 0 1-.328.134.99.99 0 0 1-.355.027c-.12-.012-.236-.041-.346-.087s-.211-.114-.3-.194-.159-.177-.217-.282-.099-.217-.12-.337a1.14 1.14 0 0 1-.01-.355 1.14 1.14 0 0 1 .111-.337l.079-.161.064-.503c.043-.339.033-.776-.032-1.311s-.192-1-.374-1.384a9.58 9.58 0 0 0-.632-1.14c-.243-.372-.643-.772-1.209-1.2s-1.111-.73-1.643-.9-1.063-.255-1.583-.267-1.307-.005-2.353.023l-3.512.097-3.313.17-1.481.097c-.08-.006-.157-.021-.231-.046a.91.91 0 0 1-.217-.101 1.16 1.16 0 0 1-.18-.148c-.055-.058-.103-.121-.143-.189s-.071-.14-.092-.217-.034-.155-.037-.235c-.003-.074.003-.151.018-.231a.88.88 0 0 1 .074-.222 1.05 1.05 0 0 1 .125-.198c.049-.062.106-.117.17-.166a1.14 1.14 0 0 1 .204-.12c.073-.031.149-.052.226-.065l.12-.018zm-.867 12.007l-.849.983c-.563.656-.64.983-.23.983l.803-.027c.123-.019.247-.019.373 0a1.07 1.07 0 0 1 .356.124c.111.061.213.134.3.226a1.12 1.12 0 0 1 .212.314c.052.117.084.234.097.36a1.11 1.11 0 0 1-.019.378c-.027.124-.075.24-.143.351s-.146.203-.244.286-.203.143-.323.189-.239.077-.365.084-.251-.008-.374-.042a1.08 1.08 0 0 1-.341-.162 1.15 1.15 0 0 1-.268-.258c-.077-.101-.135-.212-.175-.332s-.06-.245-.06-.374a1.16 1.16 0 0 1 .06-.369c.04-.12.1-.231.18-.332a1.19 1.19 0 0 1 .267-.259c.105-.071.219-.123.342-.157s.248-.047.374-.041a1.28 1.28 0 0 1 .369.083c.117.049.224.114.323.194a1.18 1.18 0 0 1 .24.29c.064.108.111.225.138.351a1.12 1.12 0 0 1 .019.374 1.1 1.1 0 0 1-.102.36 1.23 1.23 0 0 1-.212.314 1.12 1.12 0 0 1-.3.226l-.166.087-1.311.25c-.876.169-1.518.116-1.924-.157s-.669-.673-.78-1.196-.061-1.045.148-1.559.563-1.129 1.061-1.846l.845-1.168c.064-.064.135-.121.212-.17s.16-.083.249-.111a1.11 1.11 0 0 1 .263-.051 1.24 1.24 0 0 1 .263.019c.089.015.176.041.259.078a1.05 1.05 0 0 1 .23.139c.074.055.139.118.194.189a1.05 1.05 0 0 1 .139.23c.037.084.064.17.083.259a1.31 1.31 0 0 1 .018.263c-.006.092-.023.181-.051.268a1.03 1.03 0 0 1-.11.244l-.07.115z"/><path d="M134.812 114.852l1.361.337c.908.224 1.898.387 2.972.489a18.67 18.67 0 0 1 3.138.558l1.643.503a.85.85 0 0 1 .184.217c.049.08.085.168.106.263s.028.191.019.286a.83.83 0 0 1-.074.273c-.04.089-.094.169-.162.24s-.14.127-.226.17a.83.83 0 0 1-.267.093.81.81 0 0 1-.286.004c-.096-.015-.185-.046-.268-.092s-.163-.1-.231-.171a.8.8 0 0 1-.161-.235c-.04-.086-.066-.177-.079-.272s-.004-.191.014-.287a.95.95 0 0 1 .106-.263.89.89 0 0 1 .185-.221.87.87 0 0 1 .24-.148.79.79 0 0 1 .281-.06c.096-.006.189.003.282.028s.178.063.258.115.149.122.208.199.104.16.138.249.046.186.046.281-.015.19-.046.282-.074.177-.129.254a.89.89 0 0 1-.208.198 1.01 1.01 0 0 1-.258.12c-.092.025-.186.035-.282.032s-.192-.026-.281-.06l-.134-.05-1.135-.37c-.757-.243-1.71-.395-2.861-.456s-2.192-.167-3.115-.323l-1.49-.277c-.077-.025-.15-.059-.217-.102s-.13-.094-.185-.152a1.27 1.27 0 0 1-.138-.189c-.04-.071-.071-.145-.093-.222a.9.9 0 0 1-.041-.235c0-.077.008-.154.023-.231a.91.91 0 0 1 .074-.226c.037-.074.08-.141.129-.203s.111-.115.175-.162.13-.089.203-.119a.97.97 0 0 1 .231-.065c.08-.012.159-.015.235-.009l.12.009h-.004z"/><path d="M136.775 117.615l.236 1.371c.156.919.435 1.744.835 2.473l.646 1.241a1 1 0 0 1 .046.3.89.89 0 0 1-.06.3c-.034.099-.083.188-.148.268a.93.93 0 0 1-.226.203 1.03 1.03 0 0 1-.281.125.92.92 0 0 1-.3.023c-.105-.007-.205-.03-.3-.07a.93.93 0 0 1-.259-.166.86.86 0 0 1-.189-.235.89.89 0 0 1-.106-.286c-.021-.102-.025-.203-.009-.305s.041-.198.087-.29.102-.176.176-.25a1 1 0 0 1 .249-.18.96.96 0 0 1 .291-.092c.101-.012.203-.009.304.009a.95.95 0 0 1 .286.102c.09.052.17.115.24.189s.123.163.167.258a.99.99 0 0 1 .073.296c.01.101.002.203-.023.304a.95.95 0 0 1-.323.508.96.96 0 0 1-.263.152.92.92 0 0 1-.3.06.94.94 0 0 1-.304-.041c-.099-.031-.189-.076-.273-.134a.84.84 0 0 1-.216-.212l-.093-.13-.613-1.329c-.41-.889-.726-1.789-.951-2.699l-.346-1.481a.89.89 0 0 1 .004-.236c.013-.08.036-.155.07-.226a1.03 1.03 0 0 1 .115-.208c.049-.064.105-.123.166-.175a.86.86 0 0 1 .199-.124 1.26 1.26 0 0 1 .226-.079c.077-.019.154-.021.23-.018s.159.015.236.037a.95.95 0 0 1 .221.092 1 1 0 0 1 .189.143.96.96 0 0 1 .153.184c.043.065.077.136.101.213l.037.115zm19.089-7.263l.12 1.546c.083 1.034.06 2.29-.069 3.77l-.402 3.276-.512 2.248-.341 1.306a.81.81 0 0 1-.139.226c-.061.067-.131.124-.208.17s-.16.079-.249.097a.75.75 0 0 1-.263.01c-.089-.01-.175-.034-.258-.074a.91.91 0 0 1-.217-.152c-.065-.062-.119-.133-.162-.213a.8.8 0 0 1-.078-.254.8.8 0 0 1 0-.267c.018-.089.049-.172.092-.249s.097-.151.162-.213a.87.87 0 0 1 .221-.147c.083-.037.169-.059.259-.065s.178-.005.267.014a.74.74 0 0 1 .245.106.83.83 0 0 1 .203.171c.055.071.1.147.134.231s.047.173.051.263-.005.176-.033.263a.78.78 0 0 1-.115.24c-.049.073-.111.138-.185.193a.78.78 0 0 1-.235.12c-.086.028-.174.042-.263.042a.86.86 0 0 1-.263-.051.74.74 0 0 1-.235-.125c-.071-.055-.131-.121-.18-.198a.76.76 0 0 1-.107-.24c-.024-.089-.033-.178-.027-.268l.009-.133.369-1.126c.243-.751.415-1.455.517-2.114s.188-1.676.268-3.055.046-2.575-.102-3.599l-.221-1.652c.003-.077.013-.154.032-.231a.86.86 0 0 1 .088-.221.95.95 0 0 1 .133-.189c.053-.059.111-.11.176-.153a1 1 0 0 1 .212-.111.85.85 0 0 1 .226-.05.99.99 0 0 1 .231 0 1.03 1.03 0 0 1 .226.06c.074.027.143.064.208.11a1.14 1.14 0 0 1 .175.157.84.84 0 0 1 .129.194c.037.071.065.145.083.222l.028.115zm-1.793 14.262l-.54 1.652c-.36 1.101-1.165 2.636-2.414 4.605l-4.328 6.41-3.84 5.426-2.404 3.434-1.098 1.536c-.046.05-.102.091-.166.125a.74.74 0 0 1-.194.065.69.69 0 0 1-.208-.005.57.57 0 0 1-.193-.069.76.76 0 0 1-.167-.125.77.77 0 0 1-.115-.175.6.6 0 0 1-.051-.199.68.68 0 0 1 .014-.207.6.6 0 0 1 .079-.19c.036-.058.081-.11.133-.156a.64.64 0 0 1 .18-.107c.065-.024.133-.038.203-.041a.55.55 0 0 1 .203.028c.068.018.131.047.19.087s.104.088.147.143.076.117.097.185a.55.55 0 0 1 .028.203c0 .071-.011.138-.032.203s-.059.129-.102.185-.094.101-.152.138a.65.65 0 0 1-.189.088.78.78 0 0 1-.203.018c-.071-.006-.139-.021-.203-.046a.6.6 0 0 1-.176-.111.72.72 0 0 1-.134-.157c-.034-.061-.058-.126-.074-.193a.8.8 0 0 1-.009-.208.66.66 0 0 1 .06-.199l.042-.092 1.01-1.472 2.382-3.456 3.774-5.436 4.172-6.244c1.175-1.867 1.924-3.355 2.247-4.462l.526-1.749a.95.95 0 0 1 .102-.166c.04-.052.086-.099.138-.139s.105-.073.166-.101a.88.88 0 0 1 .185-.055c.064-.013.128-.017.189-.014a.64.64 0 0 1 .189.037.69.69 0 0 1 .18.078c.056.034.106.074.152.12a.76.76 0 0 1 .12.152.77.77 0 0 1 .079.176 1.09 1.09 0 0 1 .037.194.82.82 0 0 1-.014.189l-.018.097z"/><path d="M138.255 125.094l-2.192 2.723c-1.464 1.815-3.358 3.897-5.68 6.248l-5.935 5.814-4.264 3.973-1.896 1.745a.61.61 0 0 1-.194.087.57.57 0 0 1-.217.023.6.6 0 0 1-.207-.046.68.68 0 0 1-.185-.111c-.055-.046-.102-.101-.139-.166a.67.67 0 0 1-.078-.198.63.63 0 0 1-.009-.212.59.59 0 0 1 .055-.208.66.66 0 0 1 .12-.18.72.72 0 0 1 .176-.129.55.55 0 0 1 .203-.065.63.63 0 0 1 .212 0c.074.012.141.035.203.069a.69.69 0 0 1 .171.13.59.59 0 0 1 .12.18.71.71 0 0 1 .06.207.72.72 0 0 1-.014.212c-.016.071-.042.137-.079.199s-.087.117-.143.166a.61.61 0 0 1-.392.152c-.074.006-.145-.001-.212-.023a.6.6 0 0 1-.194-.087.67.67 0 0 1-.157-.153c-.043-.055-.077-.118-.101-.189a.68.68 0 0 1-.033-.212c0-.071.011-.142.033-.212a.74.74 0 0 1 .101-.19l.069-.083 1.786-1.703 4.204-4 5.801-5.787 5.542-6.257 2.219-2.829a.87.87 0 0 1 .157-.125.73.73 0 0 1 .185-.083 1.08 1.08 0 0 1 .198-.037.9.9 0 0 1 .199.014.8.8 0 0 1 .193.06c.062.031.119.066.171.106a.92.92 0 0 1 .143.143.77.77 0 0 1 .102.176.9.9 0 0 1 .06.193.85.85 0 0 1 .014.194c-.007.068-.02.134-.042.199a.69.69 0 0 1-.083.184l-.051.088zm-87.445 2.684l1.149.665c.769.436 1.397 1.086 1.883 1.947s.811 1.646.974 2.363.14 1.279-.078 1.679-.489.703-.821.9-.775.288-1.329.272-1.027-.083-1.421-.212l-.752-.277a1.15 1.15 0 0 1-.291-.212 1.11 1.11 0 0 1-.208-.3 1.08 1.08 0 0 1-.106-.346c-.015-.123-.011-.245.014-.365a1.23 1.23 0 0 1 .125-.341 1.2 1.2 0 0 1 .231-.282 1.21 1.21 0 0 1 .305-.193 1.17 1.17 0 0 1 .355-.083 1.06 1.06 0 0 1 .36.032 1.14 1.14 0 0 1 .332.143c.105.068.195.149.272.245s.135.204.175.318.065.237.065.36a1.1 1.1 0 0 1-.051.36 1.14 1.14 0 0 1-.162.323 1.24 1.24 0 0 1-.263.258 1.05 1.05 0 0 1-.687.203 1.07 1.07 0 0 1-.355-.069 1.02 1.02 0 0 1-.309-.185 1.06 1.06 0 0 1-.24-.272 1.1 1.1 0 0 1-.143-.332 1.21 1.21 0 0 1-.028-.365c.009-.123.043-.24.092-.35a1.11 1.11 0 0 1 .198-.305 1.13 1.13 0 0 1 .277-.226 1.06 1.06 0 0 1 .346-.125 1.21 1.21 0 0 1 .36-.009l.185.028.664.406c.446.268.832.361 1.158.281s.404-.306.226-.669l-.734-1.453c-.314-.609-.849-1.074-1.606-1.394l-1.237-.554a.93.93 0 0 1-.199-.166.91.91 0 0 1-.152-.212 1.03 1.03 0 0 1-.097-.24.93.93 0 0 1-.037-.258.91.91 0 0 1 .028-.254c.018-.086.048-.168.088-.245a1.13 1.13 0 0 1 .143-.217c.058-.068.118-.126.189-.175a1.11 1.11 0 0 1 .226-.125 1.15 1.15 0 0 1 .254-.069c.086-.012.171-.014.254-.004s.171.027.254.055l.125.046z"/><path d="M51.249 133.178l.798.632c.532.415.961.986 1.288 1.712s.551 1.384.674 1.966a1.9 1.9 0 0 1-.342 1.596c-.351.483-.971.703-1.86.66s-2.001-.392-3.346-1.038l-3.299-1.731-2.321-1.246-1.154-.567a.76.76 0 0 1-.18-.189.79.79 0 0 1-.115-.24.74.74 0 0 1-.028-.259.82.82 0 0 1 .051-.258.89.89 0 0 1 .139-.231.79.79 0 0 1 .198-.166c.077-.046.158-.08.245-.102s.174-.023.263-.013a.79.79 0 0 1 .254.069c.08.037.154.084.221.143s.118.128.162.208a.84.84 0 0 1 .088.512.85.85 0 0 1-.083.249c-.043.08-.095.151-.157.212a.85.85 0 0 1-.217.152c-.083.037-.168.06-.254.07s-.178.009-.268-.01a.79.79 0 0 1-.245-.096c-.077-.047-.145-.103-.203-.171a.82.82 0 0 1-.139-.226c-.031-.08-.049-.165-.055-.254a.84.84 0 0 1 .023-.263c.025-.086.062-.166.111-.24s.109-.137.18-.189.148-.097.231-.125a.77.77 0 0 1 .263-.046c.089 0 .175.014.258.042l.129.041 1.024.586 2.275 1.283 3.036 1.537c1.191.563 2.123.87 2.796.923.68.049.969-.088.867-.411l-.457-1.251c-.203-.513-.572-.941-1.108-1.283l-.881-.586a.88.88 0 0 1-.138-.166c-.043-.061-.077-.126-.101-.194s-.04-.138-.046-.212a.7.7 0 0 1 .005-.212c.009-.074.028-.145.055-.212s.058-.131.102-.19a.83.83 0 0 1 .148-.161.78.78 0 0 1 .18-.12.86.86 0 0 1 .208-.074.73.73 0 0 1 .212-.023c.071 0 .142.009.212.028a.81.81 0 0 1 .203.083l.097.051z"/><path d="M45.612 135.889l-.235.974c-.157.649-.381 1.212-.674 1.689s-.754.811-1.394 1.011-1.372.166-2.206-.102l-1.814-.577-.674-.226c-.071-.031-.135-.071-.194-.12a.89.89 0 0 1-.161-.166.87.87 0 0 1-.12-.198c-.031-.074-.052-.148-.065-.222a1 1 0 0 1-.009-.235.8.8 0 0 1 .042-.226.87.87 0 0 1 .102-.208c.04-.068.088-.128.143-.18a.94.94 0 0 1 .185-.143.9.9 0 0 1 .212-.092.91.91 0 0 1 .226-.037 1.09 1.09 0 0 1 .231.014c.077.015.295.007.655-.023s.76.02 1.2.161.832.315 1.177.522.628.624.84 1.245.145 1.263-.212 1.925-.814 1.18-1.361 1.546-1.152.604-1.814.715-1.315.008-1.961-.309-1.248-.737-1.804-1.269-.852-.848-.886-.955-.055-.217-.055-.328a.98.98 0 0 1 .055-.328 1.05 1.05 0 0 1 .157-.295c.068-.089.148-.166.24-.231s.197-.108.305-.138.218-.039.332-.033a1.09 1.09 0 0 1 .323.07c.105.043.2.101.286.175s.157.155.212.254.1.198.125.309a1 1 0 0 1 .018.332c-.012.111-.043.217-.092.319a1.06 1.06 0 0 1-.185.277 1.11 1.11 0 0 1-.268.198 1.02 1.02 0 0 1-.314.106c-.111.019-.221.019-.332 0s-.217-.054-.318-.106-.186-.12-.263-.203a1 1 0 0 1-.185-.277.97.97 0 0 1-.092-.318 1.21 1.21 0 0 1 .018-.333c.025-.11.066-.213.125-.309s.131-.18.217-.254.181-.13.286-.17a1.1 1.1 0 0 1 .328-.07 1.01 1.01 0 0 1 .328.037.97.97 0 0 1 .305.139 1.04 1.04 0 0 1 .24.231l.102.133.415.402c.277.271.724.498 1.343.683s1.088.189 1.408.014.543-.473.678-.891.057-.694-.245-.826-.68-.206-1.135-.231-.714-.049-.785-.083-.135-.071-.194-.12a.89.89 0 0 1-.161-.166.87.87 0 0 1-.12-.198c-.031-.074-.052-.148-.065-.222a1 1 0 0 1-.009-.235.8.8 0 0 1 .042-.226.99.99 0 0 1 .097-.208.92.92 0 0 1 .148-.18.94.94 0 0 1 .185-.143.9.9 0 0 1 .212-.092.91.91 0 0 1 .226-.037 1.09 1.09 0 0 1 .231.014c.077.015.299.1.665.253l1.38.503c.557.181 1.032.207 1.435.065s.645-.535.715-1.181l.143-1.089a1.22 1.22 0 0 1 .102-.236 1.33 1.33 0 0 1 .157-.203 1.37 1.37 0 0 1 .203-.157.96.96 0 0 1 .231-.106 1.13 1.13 0 0 1 .254-.05.99.99 0 0 1 .254.013 1.06 1.06 0 0 1 .245.079c.08.037.151.077.221.129s.128.112.18.18a.94.94 0 0 1 .134.217 1.03 1.03 0 0 1 .078.244 1.2 1.2 0 0 1 .018.254l-.009.129zm-9.931 1.458l.605-1.196c.4-.799 1.075-1.63 2.026-2.491s1.909-1.532 2.875-2.012l2.404-1.066c.64-.234 1.084-.436 1.334-.605s.405-.266.466-.281.119-.019.18-.019a.74.74 0 0 1 .185.023.87.87 0 0 1 .175.065.7.7 0 0 1 .148.106c.049.04.091.086.125.138a.84.84 0 0 1 .083.167.57.57 0 0 1 .046.18.91.91 0 0 1 0 .184c-.009.062-.025.12-.046.176a.76.76 0 0 1-.088.166c-.037.053-.074.095-.12.138a.87.87 0 0 1-.157.102c-.052.03-.346.001-.881-.088a8.42 8.42 0 0 0-1.726-.097c-.618.025-1.301.223-2.049.586a7.93 7.93 0 0 0-2.026 1.408c-.603.578-1.023 1.122-1.26 1.633a14.97 14.97 0 0 0-.614 1.541c-.173.516-.235.842-.189.983l.111.356a.92.92 0 0 1 .037.29.96.96 0 0 1-.065.291.85.85 0 0 1-.148.254c-.065.077-.14.141-.226.194a.9.9 0 0 1-.272.11.95.95 0 0 1-.295.019.86.86 0 0 1-.286-.079.9.9 0 0 1-.245-.161c-.074-.071-.134-.149-.18-.235s-.081-.184-.097-.282-.02-.195-.005-.291.046-.192.092-.281a.91.91 0 0 1 .18-.24.87.87 0 0 1 .245-.166.93.93 0 0 1 .286-.083.99.99 0 0 1 .291.014.84.84 0 0 1 .277.11c.086.052.162.113.226.189s.115.162.152.254a.85.85 0 0 1 .069.286c.006.099-.005.196-.032.291a.86.86 0 0 1-.12.272.9.9 0 0 1-.203.217.86.86 0 0 1-.554.189c-.099 0-.195-.015-.291-.046a.91.91 0 0 1-.263-.138.84.84 0 0 1-.203-.212l-.083-.125.189-1.181c.126-.788.269-1.345.429-1.671l.72-1.435c.323-.631.84-1.283 1.55-1.957a9.18 9.18 0 0 1 2.437-1.652c.911-.43 1.872-.616 2.884-.558l1.606.065c.059-.013.119-.019.18-.019a.74.74 0 0 1 .185.023.87.87 0 0 1 .175.065.7.7 0 0 1 .148.106c.049.04.091.086.125.138a.84.84 0 0 1 .083.167.56.56 0 0 1 .046.175.96.96 0 0 1 0 .189c-.009.062-.025.12-.046.176a.76.76 0 0 1-.088.166c-.037.053-.074.095-.12.138a.87.87 0 0 1-.157.102c-.052.03-.217.096-.494.198l-1.297.494c-.591.227-1.314.555-2.169.983s-1.692 1.007-2.51 1.739-1.412 1.5-1.772 2.303l-.595 1.283c-.034.052-.074.101-.12.148s-.098.084-.157.115a.72.72 0 0 1-.175.078 1 1 0 0 1-.194.028c-.065.003-.124-.001-.189-.014a.68.68 0 0 1-.18-.064c-.059-.028-.114-.062-.166-.102a.73.73 0 0 1-.134-.138 1.08 1.08 0 0 1-.097-.171.75.75 0 0 1-.051-.185.67.67 0 0 1-.009-.189.8.8 0 0 1 .042-.189l.028-.092z"/><path d="M36.514 142.178l.701 2.353 1.597 4.587c.603 1.489 1.161 2.621 1.675 3.396l.877 1.256a.96.96 0 0 1 .166.221.83.83 0 0 1 .088.258.81.81 0 0 1 0 .273c-.015.092-.045.18-.088.263a.79.79 0 0 1-.166.217.89.89 0 0 1-.226.157c-.083.04-.171.064-.263.073s-.183.005-.272-.013a.88.88 0 0 1-.258-.102.84.84 0 0 1-.208-.175.82.82 0 0 1-.143-.236.89.89 0 0 1-.06-.267.82.82 0 0 1 .028-.273.84.84 0 0 1 .115-.249.92.92 0 0 1 .429-.332c.089-.028.18-.042.272-.042a.75.75 0 0 1 .272.042.92.92 0 0 1 .24.129.84.84 0 0 1 .189.199.82.82 0 0 1 .115.249c.024.089.038.18.032.272s-.026.182-.06.268a.87.87 0 0 1-.138.235.86.86 0 0 1-.208.175.95.95 0 0 1-.254.107.92.92 0 0 1-.277.013c-.092-.009-.18-.033-.263-.073l-.125-.056-1.024-1.573c-.68-1.046-1.349-2.328-2.007-3.844l-1.772-4.61-.808-2.441c-.012-.074-.017-.148-.014-.222a.79.79 0 0 1 .041-.221.83.83 0 0 1 .092-.208.82.82 0 0 1 .139-.18.98.98 0 0 1 .175-.139.96.96 0 0 1 .208-.096 1.08 1.08 0 0 1 .221-.042 1.1 1.1 0 0 1 .221.014.86.86 0 0 1 .217.064.89.89 0 0 1 .194.116 1.01 1.01 0 0 1 .162.161c.049.059.089.123.12.194l.046.102zm11.567-3.005l.808 2.584 1.204 4.352.66 3.313.245 1.689a.77.77 0 0 1-.078.272.87.87 0 0 1-.161.235c-.067.07-.14.128-.226.171a.85.85 0 0 1-.272.088c-.095.012-.186.015-.282 0a.88.88 0 0 1-.272-.092c-.083-.047-.157-.105-.221-.176a.91.91 0 0 1-.162-.235.83.83 0 0 1-.074-.272c-.009-.099-.003-.194.018-.286s.057-.18.106-.264a.82.82 0 0 1 .429-.359.79.79 0 0 1 .281-.06.77.77 0 0 1 .281.032.8.8 0 0 1 .259.12.93.93 0 0 1 .203.198.89.89 0 0 1 .134.249.78.78 0 0 1 .041.282.88.88 0 0 1-.046.281.81.81 0 0 1-.134.25.9.9 0 0 1-.208.198.88.88 0 0 1-.258.115.9.9 0 0 1-.286.028.94.94 0 0 1-.522-.208c-.074-.062-.131-.138-.18-.221a.93.93 0 0 1-.106-.263l-.028-.143-.161-1.394c-.108-.932-.311-1.956-.609-3.073l-1.352-4.236-.928-2.672a1 1 0 0 1-.018-.231 1.01 1.01 0 0 1 .037-.235c.022-.077.052-.149.092-.217a1.03 1.03 0 0 1 .143-.189.82.82 0 0 1 .185-.148c.068-.04.138-.077.212-.101a.87.87 0 0 1 .231-.051 1.04 1.04 0 0 1 .235.009c.077.015.152.038.226.069a.9.9 0 0 1 .203.116 1.03 1.03 0 0 1 .171.166 1.02 1.02 0 0 1 .129.198l.051.111zm3.496-.656l.808 1.177.881 1.342a1.13 1.13 0 0 1 .088.328c.013.114.005.226-.023.337a1.07 1.07 0 0 1-.125.314 1.13 1.13 0 0 1-.221.258 1.17 1.17 0 0 1-.295.171 1.07 1.07 0 0 1-.328.069 1.02 1.02 0 0 1-.337-.037 1.14 1.14 0 0 1-.309-.148 1.1 1.1 0 0 1-.245-.235.95.95 0 0 1-.152-.3c-.037-.108-.055-.218-.055-.332a1.05 1.05 0 0 1 .06-.337.98.98 0 0 1 .162-.295c.068-.093.149-.169.245-.231a1.13 1.13 0 0 1 .309-.143 1.01 1.01 0 0 1 .337-.032c.114.007.225.03.332.073a1.04 1.04 0 0 1 .286.18.93.93 0 0 1 .217.259 1.15 1.15 0 0 1 .125.314.98.98 0 0 1 .014.341.97.97 0 0 1-.092.323 1.09 1.09 0 0 1-.189.282c-.077.083-.171.15-.272.203a1.1 1.1 0 0 1-.323.106 1.12 1.12 0 0 1-.337-.005.98.98 0 0 1-.323-.111 1.14 1.14 0 0 1-.268-.207l-.115-.125-.775-1.204-.84-1.311a1.02 1.02 0 0 1-.083-.23.91.91 0 0 1-.023-.24c0-.084.011-.165.032-.245a.95.95 0 0 1 .092-.226.82.82 0 0 1 .143-.203 1.1 1.1 0 0 1 .185-.157.95.95 0 0 1 .221-.111c.077-.028.155-.046.235-.055a.96.96 0 0 1 .245.004.98.98 0 0 1 .235.06 1.02 1.02 0 0 1 .217.12.84.84 0 0 1 .18.167l.083.092z"/><path d="M50.313 141.239l.6-1.989 1.144-4.139.844-3.502.517-2.377.258-1.117c.028-.067.065-.129.111-.184s.1-.103.162-.143a.66.66 0 0 1 .198-.083.69.69 0 0 1 .212-.014.61.61 0 0 1 .208.055c.065.03.128.066.18.116a.6.6 0 0 1 .134.17.7.7 0 0 1 .069.203.55.55 0 0 1 .005.213.59.59 0 0 1-.065.207.63.63 0 0 1-.129.171.64.64 0 0 1-.175.125.72.72 0 0 1-.208.06.61.61 0 0 1-.212-.01.82.82 0 0 1-.203-.073.7.7 0 0 1-.277-.323c-.028-.065-.045-.134-.051-.208a.71.71 0 0 1 .023-.212.68.68 0 0 1 .088-.199.63.63 0 0 1 .143-.157c.058-.046.121-.08.189-.101a.69.69 0 0 1 .212-.042.71.71 0 0 1 .212.033c.068.021.131.053.189.096a.7.7 0 0 1 .152.157.71.71 0 0 1 .092.194.81.81 0 0 1 .028.212l-.005.111-.199 1.02-.461 2.413-.78 3.577-1.052 4.194-.577 2.1c-.028.062-.062.12-.102.175a.77.77 0 0 1-.138.148.72.72 0 0 1-.171.106.7.7 0 0 1-.194.065.71.71 0 0 1-.194.018.87.87 0 0 1-.198-.032c-.064-.018-.131-.045-.189-.078s-.112-.074-.162-.12a.84.84 0 0 1-.129-.157 1.04 1.04 0 0 1-.083-.18.88.88 0 0 1-.041-.199c-.006-.064-.005-.13.005-.198l.018-.102zm64.318-16.218l-.093.969c-.061.646-.09 1.744-.087 3.295s.129 2.961.387 4.231.528 2.323.817 3.157l.794 2.33.683 1.952.346 1.006c.009.083.006.166-.009.249a.82.82 0 0 1-.083.231.97.97 0 0 1-.157.194.71.71 0 0 1-.208.129.72.72 0 0 1-.24.06.83.83 0 0 1-.244-.018c-.083-.022-.16-.054-.231-.097a.86.86 0 0 1-.18-.166.82.82 0 0 1-.125-.217.81.81 0 0 1-.046-.24.82.82 0 0 1 .143-.466c.049-.068.108-.127.176-.176a.75.75 0 0 1 .221-.111c.08-.024.162-.035.245-.032s.164.019.244.046a.73.73 0 0 1 .212.12.68.68 0 0 1 .167.185.69.69 0 0 1 .096.226c.022.083.03.166.024.249a.98.98 0 0 1-.06.24c-.034.077-.079.146-.134.208a.74.74 0 0 1-.194.152.75.75 0 0 1-.231.088c-.083.015-.166.017-.249.004s-.161-.032-.235-.069a.85.85 0 0 1-.199-.148.71.71 0 0 1-.147-.198l-.056-.115-.217-.891c-.144-.594-.341-1.243-.59-1.947l-.868-2.395c-.326-.892-.635-2.018-.927-3.378s-.465-2.837-.508-4.43l-.042-3.36.042-1.075c.012-.07.034-.138.065-.203s.064-.129.11-.184a.77.77 0 0 1 .148-.153.78.78 0 0 1 .185-.11.75.75 0 0 1 .203-.065c.07-.012.141-.017.212-.014s.141.016.212.037a.94.94 0 0 1 .194.088.87.87 0 0 1 .171.134.82.82 0 0 1 .129.17.94.94 0 0 1 .088.194c.021.068.035.139.041.212l.005.102z"/><path d="M119.214 143.393l1.011-.628c.668-.418 1.271-.839 1.809-1.264l1.73-1.477 2.082-1.882 1.993-1.915 1.818-1.966 1.892-2.248 1.505-2.076c.387-.622.858-1.245 1.412-1.869s1.032-1.369 1.435-2.233.626-1.631.678-2.299-.088-1.475-.42-2.413a15.49 15.49 0 0 1-.733-2.926c-.154-1.015-.213-1.696-.176-2.044s.123-.677.268-.997a3.14 3.14 0 0 1 .577-.858 3.23 3.23 0 0 1 .816-.628 3.15 3.15 0 0 1 .979-.336 3.14 3.14 0 0 1 1.033-.005c.345.055.673.163.983.323a3.26 3.26 0 0 1 .826.623c.24.252.434.535.582.849s.244.649.281.997a3.29 3.29 0 0 1-.046 1.029 3.23 3.23 0 0 1-.378.964c-.179.299-.4.562-.665.789a3.18 3.18 0 0 1-.881.54 3.2 3.2 0 0 1-1.011.226c-.347.022-.689-.013-1.024-.106a3.18 3.18 0 0 1-.942-.429 3.23 3.23 0 0 1-.756-.706 3.2 3.2 0 0 1-.49-.909c-.11-.329-.167-.669-.17-1.02a3.12 3.12 0 0 1 .161-1.02 3.18 3.18 0 0 1 .48-.913 3.12 3.12 0 0 1 .748-.716 3.17 3.17 0 0 1 .932-.438 3.24 3.24 0 0 1 1.029-.12c.348.019.684.091 1.01.217s.619.306.886.531a3.17 3.17 0 0 1 .674.779 3.18 3.18 0 0 1 .388.96l.115.513c0-.004-.007.195-.023.595s.089.983.314 1.758l.678 2.289c.234.75.305 1.676.213 2.778s-.285 2.041-.577 2.81a14.23 14.23 0 0 1-1.066 2.201c-.415.701-.965 1.474-1.657 2.317l-1.887 2.436-1.777 2.261-2.123 2.34-2.164 2.127-2.339 1.975-2.386 1.851-2.035 1.504-2.031 1.389-1.282.748c-.179.08-.363.14-.554.18a2.48 2.48 0 0 1-.582.041c-.193-.012-.386-.046-.576-.101a2.23 2.23 0 0 1-.536-.236 2.24 2.24 0 0 1-.461-.355 2.27 2.27 0 0 1-.369-.457 2.51 2.51 0 0 1-.245-.531c-.058-.187-.095-.378-.111-.572a2.41 2.41 0 0 1 .028-.581c.031-.194.091-.38.171-.559s.175-.349.295-.503a2.43 2.43 0 0 1 .411-.419l.23-.185zm17.202-41.908l1.2-.005 2.612-.069c.935-.043 1.79-.015 2.566.083l2.409.199c.827.034 1.679.16 2.556.378l2.621.715a6.01 6.01 0 0 1 2.33 1.283c.683.603 1.097 1.242 1.242 1.915l.443 2.331.392 2.708.24 2.455.101 2.105.024 2.39.009 2.593c.003.819-.083 1.737-.259 2.755a18.56 18.56 0 0 1-.724 2.875l-.78 2.575c-.212.818-.488 1.608-.826 2.367s-.809 1.52-1.412 2.28-1.049 1.246-1.338 1.449a3.25 3.25 0 0 1-.937.452c-.338.099-.683.14-1.034.125a3.17 3.17 0 0 1-1.02-.208 3.1 3.1 0 0 1-.899-.521 3.16 3.16 0 0 1-.688-.785 3.27 3.27 0 0 1-.401-.96 3.2 3.2 0 0 1-.07-1.038 3.14 3.14 0 0 1 .263-1.01c.142-.32.331-.61.568-.868a3.2 3.2 0 0 1 .821-.646c.308-.169.636-.285.983-.346s.691-.068 1.039-.019a3.14 3.14 0 0 1 .992.319c.314.16.593.366.84.618a3.22 3.22 0 0 1 .89 1.851 3.28 3.28 0 0 1-.037 1.042 3.14 3.14 0 0 1-.374.974 3.13 3.13 0 0 1-.659.803c-.265.231-.56.414-.886.549a3.14 3.14 0 0 1-1.011.24 3.17 3.17 0 0 1-1.038-.097c-.342-.089-.659-.229-.951-.42s-.552-.429-.771-.706a3.23 3.23 0 0 1-.498-.913c-.12-.333-.181-.674-.184-1.025a3.13 3.13 0 0 1 .152-1.029 3.24 3.24 0 0 1 .47-.927l.314-.425.596-.821a5.69 5.69 0 0 0 .886-1.878c.19-.702.446-1.483.766-2.345s.549-1.784.687-2.778.208-1.922.208-2.787l.004-2.423-.004-2.381-.12-2.418-.176-2.464c-.046-.861-.496-1.455-1.352-1.781s-1.605-.531-2.252-.623a21.58 21.58 0 0 1-2.141-.429c-.782-.194-1.639-.312-2.575-.356l-2.607-.069-1.49-.037c-.194-.024-.382-.072-.563-.143a2.64 2.64 0 0 1-.517-.267 2.35 2.35 0 0 1-.434-.388c-.129-.145-.24-.303-.332-.475s-.157-.357-.203-.545-.069-.383-.069-.577a2.44 2.44 0 0 1 .069-.576c.046-.19.114-.37.203-.545s.203-.331.332-.475a2.35 2.35 0 0 1 .434-.388 2.42 2.42 0 0 1 .517-.268c.181-.07.37-.118.567-.143l.286-.032zm-96.475 40.811l.577 1.957.978 3.894c.268 1.289.606 2.398 1.015 3.327l.678 1.68c.037.197.043.394.019.591a1.8 1.8 0 0 1-.171.563c-.086.179-.2.338-.341.48a1.77 1.77 0 0 1-.475.346 1.86 1.86 0 0 1-.558.18 1.83 1.83 0 0 1-.591-.014 1.82 1.82 0 0 1-.554-.199c-.175-.098-.329-.221-.462-.369s-.242-.309-.318-.494-.129-.37-.148-.567a1.78 1.78 0 0 1 .042-.586 1.93 1.93 0 0 1 .231-.545c.105-.17.238-.317.392-.443s.323-.22.508-.29.381-.11.581-.116a1.77 1.77 0 0 1 .581.079c.191.055.368.14.531.253s.3.256.42.416.205.335.263.526a1.87 1.87 0 0 1 .083.581 1.79 1.79 0 0 1-.106.582 1.8 1.8 0 0 1-.286.512 1.86 1.86 0 0 1-.438.397 1.81 1.81 0 0 1-.54.235 1.8 1.8 0 0 1-.586.051 1.69 1.69 0 0 1-.572-.139c-.181-.076-.348-.181-.498-.313a1.74 1.74 0 0 1-.369-.457l-.148-.259-.526-1.647-.983-3.382a29.3 29.3 0 0 0-1.232-3.618l-.821-2.128a1.77 1.77 0 0 1-.046-.475 1.88 1.88 0 0 1 .069-.471 2.1 2.1 0 0 1 .18-.447c.08-.139.174-.266.282-.383a1.85 1.85 0 0 1 .369-.309 1.92 1.92 0 0 1 .429-.213 2.07 2.07 0 0 1 .471-.101 1.95 1.95 0 0 1 .471.009 2.11 2.11 0 0 1 .466.129c.151.061.286.139.415.231a1.86 1.86 0 0 1 .351.328 1.9 1.9 0 0 1 .263.401l.106.217z" fill-opacity=".1"/><path d="M51.223 149.4l1.371-.854c.92-.569 2.252-1.226 3.996-1.971l4.675-1.776c1.375-.44 2.819-.818 4.333-1.135l5.934-1.099 6.47-1.029 5.357-.766 5.182-.84 5.039-1.112 4.024-1.139c1.092-.339 1.937-.69 2.533-1.053s1.143-.77 1.638-1.222l1.629-1.417 1.611-1.458 1.629-1.786 1.587-2.003c.452-.624.792-1.334 1.02-2.127s.501-.808.821-.051.197 1.332-.36 1.726-1.379.727-2.478 1.001l-2.796.692-2.224.554-3.341.706-3.715.577-2.815.305-3.069.212-3.221.198-3.069.208-3.346.208c-1.19.092-2.527.104-4.01.037l-3.226-.305a11.13 11.13 0 0 1-1.952-.586c-.637-.259-1.26-.563-1.869-.914l-2.436-1.435-2.783-1.638-2.64-1.491c-.92-.504-1.054-.827-.401-.969s.723.285.203 1.269l-1.527 2.658c-.501.788-.884 1.486-1.149 2.095s-.465 1.296-.6 2.068-.209 1.656-.212 2.662l-.106 2.488-.369 2.787-.72 3.544-.757 2.884c-.209.766-.961.76-2.257-.019s-1.7-1.429-1.223-1.942 1.115-.963 1.924-1.348l2.436-1.061 2.617-.937 2.469-.687 2.852-.596 2.94-.535 2.252-.332 2.294-.323 3.802-.6 5.736-1.057 5.685-1.163 5.597-1.5c2.04-.633 3.748-1.261 5.127-1.882s2.395-1.175 3.041-1.662 1.406-1.136 2.28-1.942l1.827-1.837c.348-.418.592-.683.734-.794a2.09 2.09 0 0 1 .457-.272c.163-.074.333-.126.512-.157a2.35 2.35 0 0 1 .53-.032c.179.012.354.046.526.101s.331.13.485.222a2.07 2.07 0 0 1 .42.332c.126.126.235.266.328.42a2.31 2.31 0 0 1 .212.489c.052.173.084.348.097.526s-.003.356-.037.531a2.26 2.26 0 0 1-.162.512 2.11 2.11 0 0 1-.277.452c-.113.142-.536.31-1.269.503s-2.07.453-4.005.766-4.139.548-6.613.702l-6.516.443-4.748.281-3.922.042c-1.314-.022-2.467-.012-3.461.028l-2.801.124c-.871.046-1.924.026-3.161-.06l-3.502-.401-3.032-.54c-.923-.182-1.932-.489-3.027-.923s-1.626.155-1.601 1.767-.108 2.927-.388 3.946l-.891 3.239-.683 2.82c-.145.741-.46.892-.946.452s.274-1.118 2.28-2.044 3.928-1.603 5.768-2.04l4.73-.964 4.268-.55 5.182-.613 5.242-.752 3.982-.743c1.077-.237 2.154-.54 3.23-.909l2.949-1.163c.886-.41 1.591-.842 2.114-1.297s.849-.717.987-.775.282-.096.429-.12a1.97 1.97 0 0 1 .448-.014c.148.015.292.048.434.097s.276.111.402.194.24.175.341.286.194.226.268.355a1.87 1.87 0 0 1 .171.415c.04.142.061.288.064.439s-.006.298-.037.443-.083.289-.147.424a1.95 1.95 0 0 1-.24.374c-.096.114-.205.215-.328.305s-.517.12-1.19.092l-2.15-.037-4.624.069-7.729.06c-2.83 0-5.327-.008-7.49-.023l-5.491-.046-4.31-.046-3.507-.083c-.963-.04-1.603.269-1.92.927s-.477 1.371-.471 2.137l-.069 2.367c-.052.806-.06 1.458-.023 1.957s.035.843-.005 1.033a2.46 2.46 0 0 1-.185.545 2.29 2.29 0 0 1-.314.489 2.3 2.3 0 0 1-.415.397 2.49 2.49 0 0 1-.503.291 2.53 2.53 0 0 1-.554.157c-.194.03-.386.038-.577.023s-.383-.059-.567-.12a2.33 2.33 0 0 1-.522-.25 2.4 2.4 0 0 1-.448-.369 2.43 2.43 0 0 1-.346-.461 2.41 2.41 0 0 1-.221-.531 2.27 2.27 0 0 1-.092-.572c-.006-.194.569-.76 1.726-1.698s2.696-1.678 4.619-2.22l6.377-1.597 6.013-1.093 5.104-.406 4.472-.236 2.976-.24c.738-.07 1.215-.215 1.43-.433s.397-.322.535-.319.28.023.415.06.265.094.388.162a2.06 2.06 0 0 1 .337.249 1.75 1.75 0 0 1 .268.318 1.78 1.78 0 0 1 .185.379 1.68 1.68 0 0 1 .088.41 1.71 1.71 0 0 1-.014.416 1.89 1.89 0 0 1-.111.406c-.055.129-.125.251-.208.364s-.178.213-.286.305-.224.165-.351.226-.258.108-.397.139-.732-.051-1.79-.236-2.776-.367-5.154-.549l-7.476-.226-6.871.244c-1.969.127-3.746.127-5.33 0s-2.593-.564-3.027-1.315-.54-1.753-.328-2.999l.581-2.847.346-1.145.198-.383a1.73 1.73 0 0 1 .254-.387c.102-.12.215-.225.342-.314s.261-.168.406-.226a1.84 1.84 0 0 1 .448-.12c.154-.022.308-.025.461-.01a1.97 1.97 0 0 1 .452.102 1.99 1.99 0 0 1 .415.203 2.05 2.05 0 0 1 .355.3 2.2 2.2 0 0 1 .272.378 1.94 1.94 0 0 1 .171.43 1.92 1.92 0 0 1 .065.456 1.66 1.66 0 0 1-.046.462c-.034.154-.151 1.054-.351 2.699s-.525 3.369-.965 5.169l-.826 3.774-.231 1.274c-.046.132-.108.257-.185.374a1.75 1.75 0 0 1-.268.318 1.83 1.83 0 0 1-.337.245c-.123.068-.252.118-.388.152a1.69 1.69 0 0 1-.411.06c-.142.003-.28-.011-.415-.041s-.266-.077-.392-.139-.242-.137-.346-.226a1.8 1.8 0 0 1-.286-.309c-.08-.111-.146-.232-.198-.365a1.81 1.81 0 0 1-.111-.401 1.88 1.88 0 0 1-.009-.415l.323-2.372.655-5.985.521-5.603.185-2.108c.012-.216.032-.383.06-.503s.071-.24.129-.351a1.56 1.56 0 0 1 .203-.309c.083-.096.175-.18.277-.254a1.62 1.62 0 0 1 .323-.175 1.57 1.57 0 0 1 .36-.097c.123-.016.248-.017.374-.005s.243.04.36.083.231.095.332.166.2.148.286.24a1.49 1.49 0 0 1 .212.305c.062.107.108.223.139.346s.051.243.051.369l-.046 3.719.078 6.442c.092 1.938.245 3.258.457 3.96s.318 1.113.309 1.236a1.66 1.66 0 0 1-.069.365 1.58 1.58 0 0 1-.152.337c-.065.104-.142.2-.231.286s-.188.164-.295.226-.217.115-.337.152-.241.059-.364.065-.246-.003-.369-.028-.24-.058-.351-.111-.22-.117-.318-.193a1.63 1.63 0 0 1-.258-.263c-.077-.099-.14-.205-.189-.319s-.085-.232-.106-.355.121-.96.429-2.52l.9-5.2.485-3.009a1.33 1.33 0 0 1 .115-.282 1.18 1.18 0 0 1 .18-.244c.071-.077.149-.143.235-.199a1.29 1.29 0 0 1 .272-.133c.095-.034.195-.056.3-.065s.203-.006.305.009.198.043.291.083.185.086.268.148a1.27 1.27 0 0 1 .221.208c.065.08.12.166.166.258a1.22 1.22 0 0 1 .102.286c.022.102.031.203.028.305s.202 1.179.614 3.234l.886 4.047c.178.643.264 1.031.258 1.163s-.029.262-.069.388a1.7 1.7 0 0 1-.152.36 1.75 1.75 0 0 1-.24.309 1.57 1.57 0 0 1-.304.245 1.53 1.53 0 0 1-.355.166c-.126.04-.254.064-.383.074a1.39 1.39 0 0 1-.392-.019c-.129-.021-.255-.058-.378-.111a1.6 1.6 0 0 1-.337-.198c-.105-.08-.198-.171-.282-.272s-.152-.213-.208-.333a1.6 1.6 0 0 1-.12-.373c-.025-.13-.291-.317-.798-.563s-.795-.434-.863-.563a1.75 1.75 0 0 1-.152-.406 1.86 1.86 0 0 1-.051-.434 1.69 1.69 0 0 1 .055-.429 1.62 1.62 0 0 1 .157-.406 1.67 1.67 0 0 1 .249-.356 1.66 1.66 0 0 1 .328-.29c.12-.08.248-.147.383-.199s.28-.086.425-.101.289-.019.434 0 .285.053.42.106a1.67 1.67 0 0 1 .388.207 1.82 1.82 0 0 1 .323.287c.095.11.158.161.189.152s.089.04.175.157.161.243.217.378.095.271.12.415.026.29.014.434-.042.286-.088.425-.109.269-.189.392a1.58 1.58 0 0 1-.277.332 1.66 1.66 0 0 1-.346.259c-.126.073-.26.13-.401.17s-.281.063-.429.07-.288-.01-.429-.037-.282-.079-.411-.143a1.8 1.8 0 0 1-.369-.231c-.111-.092-.225-.705-.341-1.837l-.401-3.774c-.157-1.385-.44-2.471-.849-3.258s-.817-1.3-1.232-1.546l-.844-.499c-.148-.086-.283-.189-.406-.309a2.21 2.21 0 0 1-.323-.397c-.089-.144-.161-.298-.217-.461a2.31 2.31 0 0 1-.102-.498c-.012-.173-.005-.343.023-.513a2.08 2.08 0 0 1 .143-.489 2.15 2.15 0 0 1 .258-.443 1.98 1.98 0 0 1 .355-.364 2.15 2.15 0 0 1 .429-.273c.157-.073.318-.127.485-.161s.34-.046.512-.037.337.034.503.083.569 1.055 1.218 3.018l1.707 5.759c.489 1.877 1.181 3.039 2.076 3.489s2.232.549 4.001.3l4.167-.656c1.006-.187 2.12-.315 3.341-.383s2.955-.044 5.201.06l5.242.226c1.246.047 2.178-.043 2.796-.267s1.243-.533 1.874-.923l1.943-1.228 1.209-.729a2.07 2.07 0 0 1 .443-.106c.154-.015.308-.014.462.005s.298.055.443.11a2.24 2.24 0 0 1 .401.217c.126.09.24.193.342.31a1.75 1.75 0 0 1 .258.378c.071.135.123.278.157.429s.055.298.055.452-.023.306-.06.457-.095.289-.166.425-.161.26-.263.373a1.79 1.79 0 0 1-.346.3c-.126.09-.631.06-1.514-.087s-1.692-.019-2.427.378-1.197.615-1.375.646-.357.039-.535.023a2.22 2.22 0 0 1-.531-.101c-.169-.056-.331-.131-.484-.226s-.294-.208-.42-.337a2.29 2.29 0 0 1-.328-.425 2.26 2.26 0 0 1-.217-.494c-.052-.172-.081-.349-.088-.53a2.22 2.22 0 0 1 .037-.536c.034-.178.089-.349.166-.512a2.14 2.14 0 0 1 .281-.457 2.19 2.19 0 0 1 .383-.373c.145-.111.3-.203.466-.277s.927-.076 2.284-.014l3.064.115 1.947-.009 1.218.014c.197.031.386.083.568.157a2.57 2.57 0 0 1 .517.29c.16.117.303.251.429.402s.237.315.323.494.154.364.194.558.061.389.055.586-.031.392-.083.586a2.36 2.36 0 0 1-.226.545c-.095.172-.211.33-.346.475a2.4 2.4 0 0 1-.452.378c-.167.111-.343.199-.531.263a2.44 2.44 0 0 1-.577.125c-.197.018-.541.109-1.034.272s-.872.254-1.14.273a2.41 2.41 0 0 1-.798-.07 2.52 2.52 0 0 1-.734-.318 2.54 2.54 0 0 1-.591-.54 2.39 2.39 0 0 1-.388-.697c-.092-.255-.142-.518-.148-.789a2.48 2.48 0 0 1 .111-.794c.083-.255.203-.492.36-.71s.351-.406.572-.563a2.38 2.38 0 0 1 .715-.351 2.42 2.42 0 0 1 .794-.106c.271.009.532.061.784.157a2.45 2.45 0 0 1 .697.397 2.52 2.52 0 0 1 .531.6c.145.227.248.473.309.738a2.41 2.41 0 0 1 .06.798 2.36 2.36 0 0 1-.198.775c-.108.247-.252.47-.434.67s-.391.366-.628.498-.484.223-.752.272-.531.054-.798.014a2.42 2.42 0 0 1-.766-.24c-.24-.12-.455-.277-.646-.471s-.341-.407-.461-.65-.194-.499-.231-.766a2.49 2.49 0 0 1 .028-.799c.052-.267.146-.518.281-.752s.303-.44.503-.618a2.39 2.39 0 0 1 .678-.429l.374-.157 1.389-.272c.929-.182 1.492-.259 1.689-.231s.386.083.568.157a2.57 2.57 0 0 1 .517.29c.16.117.303.251.429.402s.237.315.323.494.154.364.194.558.061.389.055.586-.031.391-.083.582a2.35 2.35 0 0 1-.226.549c-.095.172-.211.33-.346.475a2.4 2.4 0 0 1-.452.378c-.167.111-.343.199-.531.263a2.44 2.44 0 0 1-.577.125c-.197.018-.617-.002-1.26-.06l-2.109-.166a18.33 18.33 0 0 1-2.307-.309c-.781-.154-1.261-.216-1.44-.185s-.357.039-.535.023a2.22 2.22 0 0 1-.531-.101c-.169-.056-.331-.131-.484-.226s-.294-.208-.42-.337a2.29 2.29 0 0 1-.328-.425 2.26 2.26 0 0 1-.217-.494c-.052-.172-.081-.349-.088-.53a2.24 2.24 0 0 1 .037-.536c.034-.178.089-.349.166-.512a2.14 2.14 0 0 1 .281-.457 2.19 2.19 0 0 1 .383-.373c.145-.111.3-.203.466-.277a3.85 3.85 0 0 1 .526-.18c.185-.053.917-.029 2.197.069l2.136.069a2.07 2.07 0 0 1 .443-.106c.154-.015.308-.014.462.005s.298.055.443.11.275.128.401.217a2.04 2.04 0 0 1 .342.305 1.89 1.89 0 0 1 .258.383c.071.135.123.278.157.429s.055.298.055.452-.023.305-.06.453-.092.293-.166.429-.161.26-.263.373a1.79 1.79 0 0 1-.346.3c-.126.087-.54.31-1.241.67l-2.418 1.144a10.55 10.55 0 0 1-2.718.812c-.895.139-1.975.202-3.239.189l-5.122-.06c-2.15-.03-3.781-.01-4.891.06l-3.179.309-4.375.739c-1.907.357-3.522.5-4.845.429s-2.33-.712-3.023-1.934-1.349-2.793-1.97-4.716-.926-3.348-.923-4.277-.069-1.432-.217-1.519-.283-.189-.406-.309a2.21 2.21 0 0 1-.323-.397c-.089-.144-.161-.298-.217-.461a2.31 2.31 0 0 1-.102-.498c-.012-.173-.005-.343.023-.513a2.08 2.08 0 0 1 .143-.489 2.15 2.15 0 0 1 .258-.443 1.98 1.98 0 0 1 .355-.364 2.15 2.15 0 0 1 .429-.273c.157-.073.318-.127.485-.161s.34-.046.512-.037.337.034.503.083.457.191.881.425.881.761 1.38 1.573.994 1.774 1.477 2.884.729 2.601.729 4.463l.129 2.967c.089.117.161.241.217.374a1.98 1.98 0 0 1 .12.419c.022.145.026.29.014.434s-.042.286-.088.425-.109.269-.189.392a1.58 1.58 0 0 1-.277.332 1.66 1.66 0 0 1-.346.259c-.126.073-.26.13-.401.17s-.281.063-.429.07-.288-.01-.429-.037-.282-.079-.411-.143a1.8 1.8 0 0 1-.369-.231l-.401-.346c-.154-.142-.265-.277-.332-.406a1.75 1.75 0 0 1-.152-.406 1.86 1.86 0 0 1-.051-.434 1.69 1.69 0 0 1 .055-.429 1.62 1.62 0 0 1 .157-.406 1.67 1.67 0 0 1 .249-.356c.095-.11.203-.207.323-.29a2.08 2.08 0 0 1 .388-.199c.139-.052.28-.086.425-.101s.289-.019.434 0 .285.053.42.106a1.67 1.67 0 0 1 .388.207 1.82 1.82 0 0 1 .323.287c.095.11.143.31.143.599s.295.717.895 1.274.892.906.886 1.038-.029.262-.069.388a1.7 1.7 0 0 1-.152.36 1.75 1.75 0 0 1-.24.309 1.57 1.57 0 0 1-.304.245 1.53 1.53 0 0 1-.355.166c-.126.04-.254.064-.383.074a1.39 1.39 0 0 1-.392-.019c-.129-.021-.255-.058-.378-.111a1.6 1.6 0 0 1-.337-.198c-.105-.08-.198-.171-.282-.272s-.152-.213-.208-.333a1.6 1.6 0 0 1-.12-.373c-.025-.13-.058-.522-.101-1.177l-.222-2.963c-.108-1.322-.257-2.448-.448-3.377l-.249-1.537a1.33 1.33 0 0 1 .115-.282 1.18 1.18 0 0 1 .18-.244c.071-.077.149-.143.235-.199a1.29 1.29 0 0 1 .272-.133c.095-.034.195-.056.3-.065s.203-.006.305.009.195.043.291.083.185.086.268.148a1.27 1.27 0 0 1 .221.208c.065.08.12.166.166.258a1.22 1.22 0 0 1 .102.286c.022.102.031.203.028.305s-.145 1.107-.424 3.018l-.618 4.923-.212 2.252a1.66 1.66 0 0 1-.069.365 1.48 1.48 0 0 1-.152.332 1.4 1.4 0 0 1-.231.291c-.089.089-.188.164-.295.226s-.217.115-.337.152a1.82 1.82 0 0 1-.364.065c-.123.006-.246-.003-.369-.028s-.24-.058-.351-.111-.22-.117-.318-.193a1.63 1.63 0 0 1-.258-.263c-.077-.099-.14-.205-.189-.319s-.085-.232-.106-.355-.068-.534-.139-1.242l-.286-4.028-.3-6.677-.078-3.89c.028-.124.071-.24.129-.351a1.56 1.56 0 0 1 .203-.309c.083-.096.175-.18.277-.254a1.62 1.62 0 0 1 .323-.175 1.57 1.57 0 0 1 .36-.097c.123-.016.248-.017.374-.005s.243.04.36.083.231.095.332.166.2.148.286.24a1.49 1.49 0 0 1 .212.305c.062.107.108.223.139.346s.051.241.051.364-.041.294-.134.503-.205.894-.337 2.063l-.485 5.57-.351 6.243-.138 2.626c-.046.132-.108.257-.185.374a1.75 1.75 0 0 1-.268.318 1.83 1.83 0 0 1-.337.245c-.123.068-.252.118-.388.152a1.69 1.69 0 0 1-.411.06c-.142.003-.28-.011-.415-.041a1.53 1.53 0 0 1-.392-.139c-.126-.061-.242-.137-.346-.226a1.8 1.8 0 0 1-.286-.309c-.08-.111-.146-.231-.198-.36a1.9 1.9 0 0 1-.111-.406 1.88 1.88 0 0 1-.009-.415c.015-.139.134-.554.355-1.246s.498-1.874.831-3.544.558-3.492.669-5.473l.268-3.18a1.73 1.73 0 0 1 .254-.387c.102-.12.215-.225.342-.314s.261-.168.406-.226a1.84 1.84 0 0 1 .448-.12c.154-.022.308-.025.461-.01a1.97 1.97 0 0 1 .452.102 1.99 1.99 0 0 1 .415.203 2.05 2.05 0 0 1 .355.3 2.2 2.2 0 0 1 .272.378 1.94 1.94 0 0 1 .171.43 1.92 1.92 0 0 1 .065.456 1.66 1.66 0 0 1-.046.462c-.034.154-.225.54-.572 1.158s-.654 1.535-.909 2.75.058 1.66.941 1.334 2.335-.578 4.356-.766l7.074-.434h7.872l4.901.425 1.278.281c.142.003.28.023.415.06s.265.094.388.162.232.151.337.249a1.75 1.75 0 0 1 .268.318 1.78 1.78 0 0 1 .185.379 2.02 2.02 0 0 1 .088.406 1.74 1.74 0 0 1-.014.42 1.89 1.89 0 0 1-.111.406c-.055.129-.125.251-.208.364s-.178.213-.286.305-.224.165-.351.226-.258.108-.397.139-.203.063-.203.106-.483.103-1.458.189l-3.369.323-4.338.415-4.739.655c-1.535.296-3.399.766-5.593 1.413s-4.256 1.115-6.179 1.398-2.904.52-2.944.71a2.46 2.46 0 0 1-.185.545 2.29 2.29 0 0 1-.314.489 2.3 2.3 0 0 1-.415.397 2.49 2.49 0 0 1-.503.291 2.53 2.53 0 0 1-.554.157c-.194.03-.386.038-.577.023s-.383-.059-.567-.12a2.33 2.33 0 0 1-.522-.25 2.54 2.54 0 0 1-.448-.364 2.6 2.6 0 0 1-.346-.466 2.41 2.41 0 0 1-.221-.531 2.27 2.27 0 0 1-.092-.572c-.006-.194.019-.542.074-1.043l.217-1.795.175-2.234.152-2.547c.065-.898.408-1.786 1.029-2.662s1.523-1.236 2.704-1.076l3.046.462c.846.148 1.957.211 3.332.189l4.301-.078 5.473-.13 7.425-.212 7.872-.383c2.452-.163 4.05-.138 4.795.074s1.186.289 1.324.231.282-.096.429-.12a1.97 1.97 0 0 1 .448-.014c.148.015.292.048.434.097s.276.111.402.194.24.175.341.286.194.226.268.355a1.87 1.87 0 0 1 .171.415c.04.142.061.288.064.439s-.006.298-.037.443-.083.289-.147.424a1.95 1.95 0 0 1-.24.374c-.096.114-.205.215-.328.305s-.543.309-1.269.659l-2.566 1.071-3.267 1.135c-1.2.394-2.353.686-3.461.877l-4.061.734-5.284.909-5.081.803-4.001.747-4.305 1.186c-1.667.52-3.31 1.148-4.928 1.883s-3.095 1.197-4.43 1.394-2.169-.263-2.501-1.38-.389-2.026-.171-2.727.449-1.655.692-2.852l.757-3.309.757-3.493c.243-1.326.863-2.717 1.86-4.172s1.886-2.019 2.667-1.693 1.487.701 2.109 1.126 1.357.753 2.206.987l2.704.646c.954.197 2.018.316 3.193.356l3.073.129 2.796.124 3.364.014 3.752-.207 4.684-.54 6.396-.808 6.313-.766 2.94-.494a2.09 2.09 0 0 1 .457-.272c.163-.074.333-.126.512-.157a2.35 2.35 0 0 1 .53-.032c.179.012.354.046.526.101s.331.13.485.222a2.07 2.07 0 0 1 .42.332c.126.126.234.266.323.42s.165.317.217.489.084.348.097.526-.003.356-.037.531a2.26 2.26 0 0 1-.162.512 2.11 2.11 0 0 1-.277.452c-.113.142-.326.348-.636.619s-.826.62-1.546 1.038l-1.998 1.255-2.151 1.343-3.428 1.837c-1.467.747-3.246 1.504-5.335 2.27l-5.648 1.924-5.588 1.675-5.828 1.759-3.895 1.052-2.22.392-2.256.434-2.764.544-3.581.817a20.26 20.26 0 0 0-3.839 1.398l-3.115 1.546c-.852.44-1.944.375-3.276-.194-1.335-.563-1.981-1.275-1.938-2.136s.203-1.688.471-2.487l.766-2.497a31.47 31.47 0 0 0 .637-2.852l.425-3.142.392-3.3c.16-1.135.349-2.049.568-2.741s.508-1.42.858-2.182l1.264-2.525 1.79-3.133c.701-1.166 1.381-1.91 2.04-2.233s1.604-.377 2.838-.153 2.149.489 2.746.803l2.33 1.348 2.289 1.495 1.929 1.329c.72.474 1.471.87 2.252 1.19s1.794.536 3.036.646l3.572.203 3.106-.06 3.013-.355 3.156-.457 2.879-.415 2.792-.498 2.441-.42c.655-.093 1.301-.228 1.938-.406l1.998-.55 2.151-.609 2.169-.627 2.071-.503c.671-.136 1.569-.22 2.695-.254s2.043.157 2.751.581 1.129 1.363 1.273 2.815-.03 2.524-.526 3.217-1.047 1.356-1.666 1.984l-2.145 1.966-2.146 1.758-1.892 1.338-2.067 1.32c-.739.464-1.505.84-2.299 1.126s-1.752.574-2.874.854l-4.167 1.084-5.168 1.163-5.224.881-5.311.803-6.377 1.075-5.713 1.126a35.29 35.29 0 0 0-4.029 1.159c-1.277.449-2.723 1.047-4.338 1.795l-3.844 1.901-1.578.854a1.28 1.28 0 0 1-.337.101 1.62 1.62 0 0 1-.346.019 1.54 1.54 0 0 1-.346-.07c-.111-.037-.217-.086-.319-.147a1.74 1.74 0 0 1-.272-.222c-.083-.086-.154-.18-.212-.281s-.108-.21-.138-.323-.054-.226-.06-.346a1.47 1.47 0 0 1 .023-.347c.025-.113.061-.224.111-.332s.111-.207.185-.3a1.56 1.56 0 0 1 .254-.244l.143-.106z" fill-opacity=".1"/><path d="M47.844 148.871l.365-.923a21.96 21.96 0 0 0 .734-2.233l.831-2.829c.311-1.012.638-1.881.983-2.607l1.001-2.372 1.034-2.737.886-2.658.761-2.515.734-2.533.66-2.483c.231-.83.554-1.65.969-2.459s.981-1.331 1.707-1.555 1.724-.137 3.004.253 2.334.871 3.17 1.431l3.027 1.887 3.129 1.754c.908.471 1.846.884 2.815 1.241s2.123.697 3.461 1.02 2.394.521 3.166.595 1.91.125 3.406.153l3.525-.065c.855-.074 1.941-.228 3.258-.461l3.073-.697 2.607-.743c1.009-.268 2.149-.502 3.419-.702l3.489-.618c1.049-.209 1.997-.477 2.843-.803l2.288-.923 1.26-.498a2.27 2.27 0 0 1 .549-.079c.203-.009.403.006.6.046a2.66 2.66 0 0 1 .572.194c.185.086.356.194.513.323a2.57 2.57 0 0 1 .42.439 2.43 2.43 0 0 1 .466 1.103 2.35 2.35 0 0 1 .023.604 2.52 2.52 0 0 1-.12.591c-.065.19-.151.372-.259.544a2.47 2.47 0 0 1-.383.466 2.52 2.52 0 0 1-.484.365c-.176.101-.36.18-.554.235l-2.007.489-3.955.753-4.818.743-5.117.756-4.813.78-4.776.909-4.85 1.112-4.79 1.486-4.748 1.805-4.121 1.799c-1.215.576-2.2 1.119-2.953 1.629s-1.56 1.235-2.427 2.164l-1.961 2.312-1.237 1.708c-.385.529-.783 1.181-1.195 1.956l-.808 1.459a3.15 3.15 0 0 1-.378.512c-.129.139-.269.26-.429.364a2.15 2.15 0 0 1-.503.249 2.21 2.21 0 0 1-.549.125c-.188.018-.375.015-.563-.009a2.39 2.39 0 0 1-.54-.148 2.34 2.34 0 0 1-.494-.272c-.154-.111-.292-.239-.415-.383a2.17 2.17 0 0 1-.309-.466c-.086-.169-.149-.346-.189-.531a2.22 2.22 0 0 1-.055-.558c.007-.191.029-.372.078-.554a2.33 2.33 0 0 1 .208-.521c.092-.167.612-1.256 1.56-3.268l2.4-5.099 2.012-4.134 1.97-4.047 1.394-3.18.614-1.666c.105-.31.195-.53.272-.66s.168-.241.272-.346a1.81 1.81 0 0 1 .351-.272 1.74 1.74 0 0 1 .835-.263c.151-.009.298 0 .443.028a1.79 1.79 0 0 1 .425.134 1.82 1.82 0 0 1 .378.23 1.65 1.65 0 0 1 .309.31 1.94 1.94 0 0 1 .231.383c.062.139.105.275.129.419a1.99 1.99 0 0 1 .028.443 1.88 1.88 0 0 1-.078.434l-.789 2.506c-.48 1.532-1.04 2.978-1.68 4.338s-1.041 2.482-1.204 3.368l-.342 1.532a1.95 1.95 0 0 1-.235.37 2.02 2.02 0 0 1-.323.299 1.81 1.81 0 0 1-.383.217 1.8 1.8 0 0 1-.42.116c-.148.021-.294.026-.438.014s-.291-.044-.429-.093-.274-.114-.397-.194-.235-.173-.337-.281a1.95 1.95 0 0 1-.263-.351 1.93 1.93 0 0 1-.166-.406 1.76 1.76 0 0 1-.065-.434 1.84 1.84 0 0 1 .037-.438c.031-.145.357-.478.969-1.001s1.497-1.122 2.653-1.795l2.483-1.565.946-.646a1.91 1.91 0 0 1 .42-.143 1.78 1.78 0 0 1 .443-.037 1.92 1.92 0 0 1 .438.069c.144.04.282.097.411.171a1.89 1.89 0 0 1 .355.263 1.79 1.79 0 0 1 .281.342c.08.126.145.26.194.401a1.71 1.71 0 0 1 .092.434c.012.148.008.295-.014.443a1.84 1.84 0 0 1-.12.424 1.85 1.85 0 0 1-.221.388 1.87 1.87 0 0 1-.305.323l-1.661 1.468-2.404 2.219c-.609.597-.969.914-1.08.951a1.44 1.44 0 0 0-.346.18c-.123.083-.249.15-.388.203s-.275.087-.42.106a2.14 2.14 0 0 1-.438 0 1.91 1.91 0 0 1-.424-.106c-.135-.053-.263-.12-.383-.203a1.63 1.63 0 0 1-.328-.291 1.8 1.8 0 0 1-.249-.36 1.72 1.72 0 0 1-.152-.411c-.037-.141-.054-.284-.051-.429a2.05 2.05 0 0 1 .051-.434 1.89 1.89 0 0 1 .157-.41c.068-.129.151-.248.249-.356s.448-.566 1.057-1.365 1.426-1.688 2.441-2.654l2.095-2.164.743-.84a1.94 1.94 0 0 1 .36-.221 1.68 1.68 0 0 1 .401-.125 1.64 1.64 0 0 1 .425-.028 1.59 1.59 0 0 1 .415.074c.135.04.265.097.388.171a1.74 1.74 0 0 1 .332.258 1.82 1.82 0 0 1 .263.333c.074.12.132.252.175.387a1.74 1.74 0 0 1 .079.415c.009.142.001.282-.023.42a1.67 1.67 0 0 1-.125.406 1.89 1.89 0 0 1-.217.365c-.086.111-.665.138-1.735.083a19.01 19.01 0 0 0-2.93.055l-1.472.18a1.24 1.24 0 0 1-.397.028c-.169-.009-.331-.038-.494-.088a2.04 2.04 0 0 1-.457-.203c-.145-.083-.275-.184-.392-.304a2.1 2.1 0 0 1-.314-.388 2.3 2.3 0 0 1-.208-.457 1.87 1.87 0 0 1-.092-.489 2.25 2.25 0 0 1 .023-.498 2.02 2.02 0 0 1 .148-.48c.068-.154.152-.297.254-.429a2.01 2.01 0 0 1 .351-.356c.132-.104.274-.192.425-.263s.312-.121.475-.152.663.017 1.491.143l2.723.485c.987.197 1.932.329 2.833.397s1.678.287 2.33.659 1.075.677 1.269.914l.494.582a2.18 2.18 0 0 1 .341.479 2.61 2.61 0 0 1 .222.554 2.53 2.53 0 0 1 .078.586 2.35 2.35 0 0 1-.065.591 2.61 2.61 0 0 1-.198.558c-.089.178-.203.343-.332.494a2.33 2.33 0 0 1-.438.397 2.46 2.46 0 0 1-.521.286c-.185.071-.375.12-.572.148a2.47 2.47 0 0 1-.595.009 2.5 2.5 0 0 1-.577-.134 2.45 2.45 0 0 1-.531-.268c-.166-.111-.617-.484-1.361-1.121s-1.452-1.701-2.123-3.193-.801-2.518-.392-3.078 1.055-.92 1.938-1.071 1.45-.215 1.703-.193l.701.083a2.88 2.88 0 0 1 .628.18c.2.086.388.193.563.323s.332.283.471.452a2.64 2.64 0 0 1 .351.544 2.98 2.98 0 0 1 .208.619 2.89 2.89 0 0 1 .055.65c-.009.219-.045.433-.106.642s-.141.409-.249.6a2.95 2.95 0 0 1-.392.521 2.69 2.69 0 0 1-.503.411c-.185.117-.38.211-.586.281s-.418.116-.637.134-1.135-.161-2.75-.54l-3.692-.743c-.846-.12-1.635-.321-2.367-.604l-1.481-.577c-.255-.099-.486-.235-.692-.411a2.55 2.55 0 0 1-.831-1.356c-.062-.264-.074-.533-.046-.803s.097-.531.208-.78a2.45 2.45 0 0 1 .448-.669 2.57 2.57 0 0 1 .642-.49 2.52 2.52 0 0 1 .761-.263 2.43 2.43 0 0 1 .803-.004c.271.043.526.127.766.254a2.59 2.59 0 0 1 .646.48 2.43 2.43 0 0 1 .452.664 2.44 2.44 0 0 1 .221.775 2.51 2.51 0 0 1-.332 1.555 2.5 2.5 0 0 1-.517.619c-.206.175-.435.315-.688.42s-.514.16-.784.175a2.52 2.52 0 0 1-.803-.083c-.261-.071-.506-.182-.734-.332a2.41 2.41 0 0 1-.586-.549 2.5 2.5 0 0 1-.383-.711 2.42 2.42 0 0 1-.134-.794c0-.271.038-.538.125-.793s.211-.497.374-.716.357-.404.581-.558a2.47 2.47 0 0 1 .729-.342c.262-.073.528-.104.798-.092l.411.019a189.3 189.3 0 0 0 1.154.512c.773.342 1.515.603 2.229.784s1.787.322 3.212.411l2.46.185a2.51 2.51 0 0 1 .623.18 2.9 2.9 0 0 1 .568.323c.176.13.332.283.471.452a2.64 2.64 0 0 1 .351.544 2.87 2.87 0 0 1 .208.619 2.89 2.89 0 0 1 .055.65c-.009.219-.045.433-.106.642s-.141.409-.249.6a2.95 2.95 0 0 1-.392.521 2.69 2.69 0 0 1-.503.411c-.185.117-.38.211-.586.281s-.418.116-.637.134-.455-.092-.711-.332-.149-.688.318-1.343 1.1-.658 1.906-.009l1.407 1.2a2.18 2.18 0 0 1 .341.479 2.61 2.61 0 0 1 .222.554 2.49 2.49 0 0 1 .078.586 2.35 2.35 0 0 1-.065.591 2.61 2.61 0 0 1-.198.558c-.089.178-.203.343-.332.494a2.33 2.33 0 0 1-.438.397 2.46 2.46 0 0 1-.521.286c-.185.071-.375.12-.572.148a2.47 2.47 0 0 1-.595.009 2.5 2.5 0 0 1-.577-.134 2.36 2.36 0 0 1-.526-.268c-.166-.11-.286-.363-.36-.756s-.537-.665-1.389-.822l-3.475-.706-2.45-.489c-.166-.009-.329-.038-.489-.088s-.317-.115-.461-.198a2.08 2.08 0 0 1-.392-.309 2.1 2.1 0 0 1-.314-.388 2.3 2.3 0 0 1-.208-.457 1.87 1.87 0 0 1-.092-.489 2.25 2.25 0 0 1 .023-.498 2.02 2.02 0 0 1 .148-.48c.068-.154.152-.297.254-.429a2.01 2.01 0 0 1 .351-.356c.132-.104.274-.192.425-.263s.312-.121.475-.152.585-.037 1.255-.018 1.324.266 1.961.743 1.012.67 1.126.581a1.88 1.88 0 0 1 .36-.221 1.68 1.68 0 0 1 .401-.125 1.64 1.64 0 0 1 .425-.028 1.59 1.59 0 0 1 .415.074c.135.04.265.097.388.171a1.95 1.95 0 0 1 .332.258 1.82 1.82 0 0 1 .263.333c.074.12.132.252.175.387a1.74 1.74 0 0 1 .079.415c.009.142.001.282-.023.42a1.67 1.67 0 0 1-.125.406 1.89 1.89 0 0 1-.217.365c-.086.111-.364.36-.835.748s-1.121 1.032-1.961 1.933a28.46 28.46 0 0 0-2.358 2.907l-1.278 1.671c-.12.083-.248.15-.383.203a1.91 1.91 0 0 1-.425.106 2.14 2.14 0 0 1-.438 0 1.91 1.91 0 0 1-.424-.106c-.135-.053-.263-.12-.383-.203a1.63 1.63 0 0 1-.328-.291 1.8 1.8 0 0 1-.249-.36 1.72 1.72 0 0 1-.152-.411c-.037-.141-.054-.284-.051-.429a2.05 2.05 0 0 1 .051-.434 1.89 1.89 0 0 1 .157-.41c.068-.129.151-.248.249-.356s.249-.181.461-.212.618-.283 1.218-.757 1.418-1.281 2.455-2.422l1.758-1.814a1.91 1.91 0 0 1 .42-.143 1.78 1.78 0 0 1 .443-.037 1.92 1.92 0 0 1 .438.069c.144.04.282.097.411.171a1.89 1.89 0 0 1 .355.263 1.79 1.79 0 0 1 .281.342c.08.126.145.26.194.401a1.71 1.71 0 0 1 .092.434c.012.148.008.295-.014.443a1.84 1.84 0 0 1-.12.424 1.85 1.85 0 0 1-.221.388 1.87 1.87 0 0 1-.305.323c-.114.095-.451.275-1.011.549l-2.667 1.385c-1.221.652-1.864 1.044-1.929 1.176a1.98 1.98 0 0 1-.235.37 2.02 2.02 0 0 1-.323.299 1.81 1.81 0 0 1-.383.217 1.8 1.8 0 0 1-.42.116c-.148.021-.294.026-.438.014s-.291-.044-.429-.093-.274-.114-.397-.194-.235-.173-.337-.281a1.79 1.79 0 0 1-.258-.351c-.074-.129-.131-.264-.171-.406s-.061-.286-.065-.434a1.84 1.84 0 0 1 .037-.438c.031-.145.098-.343.194-.595l.586-1.348 1.232-2.898c.529-1.286.992-2.779 1.389-4.48l.711-2.742c.077-.126.168-.241.272-.346a1.81 1.81 0 0 1 .351-.272 1.74 1.74 0 0 1 .835-.263c.151-.009.298 0 .443.028a1.79 1.79 0 0 1 .425.134 1.82 1.82 0 0 1 .378.23 1.65 1.65 0 0 1 .309.31 1.94 1.94 0 0 1 .231.383c.062.139.105.275.129.419a1.99 1.99 0 0 1 .028.443 1.88 1.88 0 0 1-.078.434c-.046.142-.163.351-.351.628s-.48.781-.867 1.523-.863 1.801-1.417 3.179l-1.68 4.126-1.601 4.203-1.523 4.513c-.517 1.579-1.004 2.786-1.463 3.623l-.881 1.463a2.21 2.21 0 0 1-.429.364 2.15 2.15 0 0 1-.503.249 2.21 2.21 0 0 1-.549.125c-.188.018-.375.015-.563-.009a2.39 2.39 0 0 1-.54-.148 2.34 2.34 0 0 1-.494-.272 2.46 2.46 0 0 1-.415-.378 2.28 2.28 0 0 1-.309-.471c-.086-.169-.149-.346-.189-.531s-.062-.366-.055-.554a2.27 2.27 0 0 1 .078-.558 2.33 2.33 0 0 1 .208-.521c.092-.167.348-.482.766-.946l1.795-2.095 2.053-2.405a18.81 18.81 0 0 1 1.813-1.79 15.65 15.65 0 0 1 1.827-1.352c.6-.378 1.338-.794 2.215-1.237l3.189-1.583 4.213-1.91 4.878-1.943 4.942-1.656 4.901-1.302 4.785-1.14 4.772-1.093 4.947-1.149 4.601-1.255 4.024-1.177 2.201-.545c.203-.009.403.006.6.046a2.66 2.66 0 0 1 .572.194c.185.086.356.194.513.323a2.57 2.57 0 0 1 .42.439 2.43 2.43 0 0 1 .466 1.103 2.35 2.35 0 0 1 .023.604 2.52 2.52 0 0 1-.12.591c-.065.19-.151.372-.259.544a2.47 2.47 0 0 1-.383.466 2.52 2.52 0 0 1-.484.365c-.176.101-.36.18-.554.235s-.306.08-.328.074-.361.071-1.029.222l-2.441.535-3.018.715-3.244.868-3.11.978-2.792.955c-.895.296-2.081.563-3.558.803l-3.715.568-2.935.281-2.496.028-2.45-.115-2.99-.264c-1.074-.126-1.954-.292-2.64-.498s-1.591-.527-2.713-.964-2.169-.922-3.147-1.454l-2.496-1.347-1.887-1.043c-.572-.329-1.332-.865-2.28-1.606s-1.078-1.246-.392-1.514.891.013.614.84l-.803 2.635-.835 2.676-.849 2.557-.955 2.663-1.075 2.69c-.354.861-.761 1.653-1.223 2.376s-.857 1.508-1.177 2.354l-1.052 2.806-.974 2.436-.554 1.163a2.41 2.41 0 0 1-.355.475c-.135.145-.288.269-.457.374a2.58 2.58 0 0 1-.531.258c-.188.064-.381.105-.581.12a2.18 2.18 0 0 1-.586-.023 2.44 2.44 0 0 1-.568-.161 2.57 2.57 0 0 1-.512-.291 2.35 2.35 0 0 1-.429-.411 2.42 2.42 0 0 1-.318-.498 2.45 2.45 0 0 1-.189-.558 2.51 2.51 0 0 1-.051-.586 2.67 2.67 0 0 1 .092-.582l.083-.286zm9.517-35.068l-.54-.96-1.061-2.072-1.154-2.589-1.163-2.658c-.348-.793-.597-1.544-.747-2.252l-.526-2.639-.411-2.806c-.068-.818-.077-1.66-.028-2.524l.212-2.469.346-2.584.337-2.63.332-2.75.304-2.589.235-2.27.355-2.28c.142-.707.266-1.194.374-1.458a2.71 2.71 0 0 1 .448-.724 2.64 2.64 0 0 1 .651-.54 2.65 2.65 0 0 1 .794-.304 2.62 2.62 0 0 1 .849-.037 2.61 2.61 0 0 1 .817.235 2.6 2.6 0 0 1 .697.484 2.63 2.63 0 0 1 .508.683 2.7 2.7 0 0 1 .259.808 2.62 2.62 0 0 1-.009.849 2.65 2.65 0 0 1-.277.803c-.135.252-.312.472-.521.669a2.53 2.53 0 0 1-.711.466c-.262.117-.535.194-.821.222a2.6 2.6 0 0 1-.844-.055 2.73 2.73 0 0 1-.789-.328 2.49 2.49 0 0 1-.637-.554 2.64 2.64 0 0 1-.434-.734 2.65 2.65 0 0 1-.171-.831 2.62 2.62 0 0 1 .101-.845 2.66 2.66 0 0 1 .365-.766c.163-.237.36-.44.591-.609s.483-.303.757-.392a2.66 2.66 0 0 1 .84-.125 2.58 2.58 0 0 1 .835.148 2.47 2.47 0 0 1 .743.406 2.71 2.71 0 0 1 .581.623 2.59 2.59 0 0 1 .346.775c.074.277.102.558.083.844l-.028.429-.48 1.938-.6 2.958-.208 2.561-.171 2.792-.189 2.7-.194 2.469c-.071.683-.103 1.609-.097 2.778s.072 2.075.208 2.718.246 1.397.332 2.27.271 1.711.545 2.511l.895 2.621.9 2.372.937 1.919.628 1.242c.074.184.125.373.152.567a2.31 2.31 0 0 1 .009.582c-.018.194-.061.384-.129.572a2.25 2.25 0 0 1-.263.521 2.52 2.52 0 0 1-.378.448 2.48 2.48 0 0 1-.475.341c-.172.093-.354.165-.544.217a2.53 2.53 0 0 1-.577.083 2.44 2.44 0 0 1-.577-.06 2.34 2.34 0 0 1-1.043-.521 2.5 2.5 0 0 1-.397-.429l-.171-.24zm46.556.731l.876-.443c.585-.295 1.096-.694 1.533-1.195s.998-1.078 1.684-1.73 1.43-1.463 2.233-2.442l1.754-2.321c.366-.569.774-1.356 1.223-2.362l1.075-2.478c.268-.646.552-1.469.854-2.469l.729-2.469.678-2.155c.265-.794.523-1.812.775-3.055l.679-3.235.706-3.835.517-3.895.221-1.823a2.47 2.47 0 0 1 .332-.729 2.67 2.67 0 0 1 .549-.581 2.48 2.48 0 0 1 .706-.374 2.46 2.46 0 0 1 .79-.129 2.37 2.37 0 0 1 .789.125 2.48 2.48 0 0 1 .706.374c.216.163.398.355.549.577a2.39 2.39 0 0 1 .337.725c.073.261.104.528.092.798a2.41 2.41 0 0 1-.171.78 2.56 2.56 0 0 1-.41.683c-.176.206-.379.38-.61.521a2.46 2.46 0 0 1-.743.295 2.48 2.48 0 0 1-.798.046c-.271-.028-.524-.098-.771-.212a2.51 2.51 0 0 1-.659-.448 2.38 2.38 0 0 1-.485-.637 2.53 2.53 0 0 1-.258-.757 2.4 2.4 0 0 1 0-.798 2.47 2.47 0 0 1 .253-.757 2.48 2.48 0 0 1 .48-.637 2.47 2.47 0 0 1 .66-.452 2.39 2.39 0 0 1 .771-.212 2.4 2.4 0 0 1 .798.041 2.47 2.47 0 0 1 .743.295c.231.138.434.309.609.512s.314.435.416.688a2.33 2.33 0 0 1 .17.78l.023.401-.198 1.5-.351 3.06-.327 2.58-.388 2.492-.664 3.586-.799 3.239-.937 2.944-.922 2.741-.739 1.837-1.403 2.829-1.652 2.87c-.44.63-1.161 1.507-2.164 2.63l-2.459 2.621-2.229 2.183c-.852.837-1.595 1.397-2.229 1.68l-1.218.512c-.176.058-.357.095-.545.111a2.22 2.22 0 0 1-.558-.024c-.187-.031-.363-.083-.536-.156a2.26 2.26 0 0 1-.484-.282 2.08 2.08 0 0 1-.402-.388c-.12-.144-.22-.301-.3-.47s-.14-.346-.18-.531-.05-.369-.041-.554a2.38 2.38 0 0 1 .088-.553 2.28 2.28 0 0 1 .221-.513 2.38 2.38 0 0 1 .337-.447c.129-.136.274-.254.434-.356l.24-.152zM71.038 87.859l.988 1.993 1.772 3.272 1.454 2.293 1.297 1.887 1.546 1.98c.615.741 1.235 1.389 1.86 1.942s1.281.939 1.961 1.145 1.643.434 2.88.683 1.981.464 2.243.637a2.78 2.78 0 0 1 .683.623 2.91 2.91 0 0 1 .452.812 2.87 2.87 0 0 1 .166.909c.003.314-.041.62-.134.918a2.8 2.8 0 0 1-.42.826c-.185.252-.406.469-.665.651a2.89 2.89 0 0 1-.831.401 2.94 2.94 0 0 1-.923.12 2.86 2.86 0 0 1-.904-.184 2.76 2.76 0 0 1-.803-.466 2.8 2.8 0 0 1-.614-.693 2.82 2.82 0 0 1-.355-.858 2.83 2.83 0 0 1-.069-.923 2.82 2.82 0 0 1 .231-.895 2.95 2.95 0 0 1 .508-.775 2.94 2.94 0 0 1 .729-.577 2.83 2.83 0 0 1 .872-.309c.307-.055.617-.062.928-.019a2.77 2.77 0 0 1 1.629.831 2.85 2.85 0 0 1 .535.757c.138.283.223.579.263.89a2.74 2.74 0 0 1-.037.923 2.81 2.81 0 0 1-.328.868c-.157.271-.352.509-.586.715s-.495.374-.784.494a2.86 2.86 0 0 1-.9.212 2.73 2.73 0 0 1-.923-.083l-.457-.115-.964-.365-1.984-.66a10.7 10.7 0 0 1-2.044-.849 7.55 7.55 0 0 1-1.887-1.444l-1.777-1.994-1.504-1.993-1.177-1.86-1.181-2.026-1.426-2.372-2.058-3.184-1.334-2.114a2.1 2.1 0 0 1-.152-.526 2.16 2.16 0 0 1-.023-.544c.015-.181.052-.363.111-.535s.137-.341.235-.498a2.3 2.3 0 0 1 .351-.425 2.29 2.29 0 0 1 .438-.328c.16-.092.328-.163.503-.212s.36-.082.544-.088a2.3 2.3 0 0 1 .54.046 2.35 2.35 0 0 1 .522.171 2.26 2.26 0 0 1 .461.295c.142.117.268.249.378.397l.166.222z" fill-opacity=".1"/><path d="M111.963 109.331l-.766.918c-.514.612-1.221 1.338-2.123 2.178s-1.796 1.475-2.667 1.906-1.627.722-2.27.882l-2.898.595-2.967.424-3.027.106-3.119.028-2.234-.018-2.247-.019-2.353-.032c-.806-.012-1.737.008-2.792.06l-3.359.138-3.156.005-3.032-.009c-1.101.024-2.009-.014-2.723-.116s-1.426-.244-2.137-.429-1.653-.566-2.838-1.135-2.097-1.149-2.737-1.74-1.295-1.522-1.957-2.787-1.181-2.641-1.55-4.13-.629-2.901-.789-4.236l-.406-3.655-.189-3.512-.088-3.309-.134-2.501a7.61 7.61 0 0 0-.406-1.998l-.355-1.223c-.018-.181-.014-.363.014-.544s.072-.357.143-.526.155-.328.263-.475.232-.282.374-.401.289-.215.452-.295.338-.143.517-.18a2.28 2.28 0 0 1 .54-.055 2.43 2.43 0 0 1 .54.079 2.31 2.31 0 0 1 .503.208 2.38 2.38 0 0 1 .443.318 2.51 2.51 0 0 1 .351.415c.099.154.178.317.24.489s.262.846.6 2.021l1.057 3.489 1.195 3.392 1.287 3.092 1.227 2.446 1.186 2.016 1.154 1.814 1.168 1.647 1.361 1.948c.495.738 1.218 1.529 2.169 2.371s1.975 1.445 3.073 1.796 2.323.632 3.664.835a34.37 34.37 0 0 0 4.342.35c1.554.034 3.109-.038 4.665-.216a31.94 31.94 0 0 0 4.578-.863c1.495-.4 2.869-.862 4.121-1.385s2.274-1.11 3.074-1.753a14.58 14.58 0 0 0 2.242-2.294c.692-.88 1.285-1.761 1.777-2.644l1.43-2.681 1.297-2.492 1.38-2.464c.507-.886 1.501-1.5 2.981-1.841s2.436.534 2.861 2.626.447 3.885.06 5.38-.954 2.847-1.698 4.056a14.39 14.39 0 0 1-2.728 3.24l-2.422 2.155c-.545.48-.914.769-1.108.867l-.489.259a1.99 1.99 0 0 1-.42.175c-.147.043-.297.068-.447.074a1.85 1.85 0 0 1-.453-.037 1.93 1.93 0 0 1-.433-.143 1.95 1.95 0 0 1-.383-.245c-.12-.095-.226-.204-.319-.327a2.19 2.19 0 0 1-.226-.393c-.058-.141-.1-.287-.124-.438s-.031-.303-.019-.457a1.84 1.84 0 0 1 .092-.443 1.73 1.73 0 0 1 .194-.41c.083-.13.179-.248.286-.356s.359-.689.743-1.753.958-2.246 1.731-3.535l1.518-2.718.484-.946c.083-.111.179-.211.287-.3s.219-.16.346-.222a1.87 1.87 0 0 1 .387-.134 1.62 1.62 0 0 1 .402-.032 1.52 1.52 0 0 1 .406.065c.132.037.258.089.378.157s.231.149.332.245.185.201.259.319a1.47 1.47 0 0 1 .18.369c.043.129.071.263.083.401a1.67 1.67 0 0 1-.014.411c-.022.136-.058.266-.111.392s-.657 1.096-1.813 2.908-2.217 3.287-3.18 4.434l-1.476 1.638c-.028-.064-.083-.05-.166.042a1.72 1.72 0 0 1-.287.245c-.104.07-.215.126-.332.166a1.56 1.56 0 0 1-.364.083 1.73 1.73 0 0 1-.374-.005c-.126-.018-.248-.051-.365-.097s-.226-.106-.327-.18-.194-.158-.277-.254a1.54 1.54 0 0 1-.203-.309 1.44 1.44 0 0 1-.129-.355 1.49 1.49 0 0 1-.037-.369c.003-.126.02-.251.05-.374a1.75 1.75 0 0 1 .139-.346c.061-.111.612-.866 1.652-2.266l3.336-4.476 2.335-3.392.683-1.154a1.63 1.63 0 0 1 .286-.235 1.53 1.53 0 0 1 .332-.161 1.6 1.6 0 0 1 .36-.079c.123-.009.246-.005.37.014s.241.051.355.097a1.68 1.68 0 0 1 .318.18c.102.074.193.159.273.254a1.67 1.67 0 0 1 .198.314 1.43 1.43 0 0 1 .12.346 1.36 1.36 0 0 1 .032.369 1.46 1.46 0 0 1-.055.365c-.034.12-.08.234-.139.341s-.538.654-1.43 1.638-2.417 2.254-4.582 3.816l-5.39 3.646-3.452 2.127c-.874.548-1.893 1.018-3.059 1.412l-3.313.974-2.907.595c-.892.145-2.167.216-3.825.212l-5.099-.133c-1.741-.083-3.216-.246-4.425-.489a17.95 17.95 0 0 1-3.632-1.159 14.28 14.28 0 0 1-3.378-2.095c-1.043-.864-1.935-1.77-2.676-2.718l-1.878-2.598-1.486-2.565-1.227-2.414-1.034-1.841c-.345-.544-.538-.9-.581-1.066a2.14 2.14 0 0 1-.06-.503 2.16 2.16 0 0 1 .06-.508 2.02 2.02 0 0 1 .18-.475 2.18 2.18 0 0 1 .291-.42c.114-.126.24-.238.378-.337a1.98 1.98 0 0 1 .452-.235 2.11 2.11 0 0 1 .494-.125c.169-.022.338-.022.508 0s.334.061.494.12a2.25 2.25 0 0 1 .452.235c.142.099.269.211.383.337s.206.269.286.42.235.698.466 1.643l.697 2.796.729 3.018c.255 1.092.546 1.975.872 2.648s.809 1.403 1.44 2.188l1.781 2.002c.557.554 1.8 1.063 3.728 1.528s3.626.778 5.09.932l3.816.291 3.267.083 2.967-.019a20.13 20.13 0 0 0 2.704-.281c.92-.157 1.917-.412 2.99-.766s2.224-.815 3.452-1.375 2.224-1.148 2.99-1.763c.766-.609 1.417-1.218 1.952-1.828l1.707-2.076 1.754-2.409 1.763-2.506 1.582-2.229.794-1.057c.083-.055.18-.141.291-.258s.24-.223.378-.309a1.86 1.86 0 0 1 .439-.212 1.91 1.91 0 0 1 .475-.097 2.12 2.12 0 0 1 .484.019 1.91 1.91 0 0 1 .466.134 2.08 2.08 0 0 1 .42.24 1.88 1.88 0 0 1 .351.337 1.98 1.98 0 0 1 .263.411 2.04 2.04 0 0 1 .157.462 2.1 2.1 0 0 1 .037.48c-.006.163-.031.323-.074.48s-.109.306-.189.448l-2.363 3.848c-1.489 2.421-2.853 4.273-4.093 5.556s-2.781 2.368-4.624 3.263-3.745 1.659-5.717 2.293-4.148 1.148-6.539 1.541l-6.299.928c-1.809.218-3.584.341-5.325.369s-3.512-.12-5.311-.443-3.43-.844-4.882-1.564-2.835-1.638-4.158-2.755-2.547-2.361-3.673-3.733-2.004-2.754-2.644-4.144-1.117-2.612-1.44-3.673a17 17 0 0 1-.651-3.078c-.111-.994-.178-2.193-.203-3.599l.046-3.138.125-1.767c.028-.489.077-.844.148-1.066a2.11 2.11 0 0 1 .309-.609c.135-.188.298-.348.489-.48a2 2 0 0 1 .614-.3 2.03 2.03 0 0 1 .678-.088c.231.006.454.051.669.134a2.01 2.01 0 0 1 .595.341 2.06 2.06 0 0 1 .452.512c.123.197.212.408.268.632s.069.452.051.683-.078.448-.171.66a2.09 2.09 0 0 1-.374.577 2.23 2.23 0 0 1-.535.425 2.19 2.19 0 0 1-.646.231 2.21 2.21 0 0 1-.683.014 2.12 2.12 0 0 1-.655-.208c-.206-.105-.389-.238-.549-.401a2.12 2.12 0 0 1-.397-.563c-.102-.206-.166-.425-.194-.655s-.023-.455.023-.683.123-.441.24-.641.258-.377.434-.531.364-.272.577-.365.438-.141.669-.157.454.001.678.06a2.12 2.12 0 0 1 .628.277 2.13 2.13 0 0 1 .84 1.057 2.19 2.19 0 0 1 .125.674l.005.346-.369 1.647-.655 3.503-.332 3.082c-.028.821.046 1.703.221 2.644s.529 2.021 1.061 3.23 1.309 2.443 2.33 3.701a26.38 26.38 0 0 0 3.281 3.383c1.166.999 2.363 1.816 3.59 2.45s2.655 1.091 4.282 1.38 3.261.412 4.901.369 3.344-.188 5.113-.434l6.008-.974c2.243-.4 4.278-.919 6.105-1.559s3.486-1.328 4.984-2.063 2.761-1.703 3.789-2.903 2.048-2.608 3.073-4.227 1.736-2.893 2.127-3.825l.748-1.573c.114-.12.24-.223.378-.309a1.86 1.86 0 0 1 .439-.212 1.91 1.91 0 0 1 .475-.097 2.12 2.12 0 0 1 .484.019 1.91 1.91 0 0 1 .466.134 2.08 2.08 0 0 1 .42.24 1.88 1.88 0 0 1 .351.337 1.98 1.98 0 0 1 .263.411 2.04 2.04 0 0 1 .157.462c.031.157.043.317.037.48s-.031.323-.074.48-.109.306-.189.448-.209.249-.379.323-.478.385-.936.941l-1.597 2.026-1.841 2.519-1.989 2.612c-.698.849-1.403 1.602-2.114 2.257s-1.542 1.323-2.496 2.012-2.09 1.386-3.401 2.081a34.86 34.86 0 0 1-3.872 1.772c-1.27.486-2.466.808-3.585.964s-2.126.213-3.018.167l-3.027-.097-3.35-.111-4.042-.162c-1.581-.055-3.238-.196-4.97-.424s-3.075-.6-4.019-1.117-1.718-1.107-2.321-1.781l-2.229-2.566c-.886-1.043-1.512-2.012-1.878-2.907s-.709-1.897-1.029-2.995l-.812-3.009-.655-2.538-.397-1.43a2.14 2.14 0 0 1-.06-.503 2.16 2.16 0 0 1 .06-.508 2.02 2.02 0 0 1 .18-.475 2.18 2.18 0 0 1 .291-.42c.114-.126.24-.238.378-.337a1.98 1.98 0 0 1 .452-.235 2.11 2.11 0 0 1 .494-.125c.169-.022.338-.022.508 0s.334.061.494.12a2.25 2.25 0 0 1 .452.235c.142.099.268.211.378.337s.211.269.291.42.215.503.406 1.057l.628 1.823c.228.658.545 1.427.951 2.307l1.154 2.414c.366.735.826 1.509 1.38 2.321s1.238 1.567 2.044 2.275a10.68 10.68 0 0 0 2.736 1.73c1.021.449 2.041.799 3.06 1.048s2.366.375 4.052.387l4.873-.097 3.544-.17c.8-.031 1.683-.128 2.649-.291a28.67 28.67 0 0 0 2.944-.665c1-.283 1.946-.642 2.838-1.079s2.023-1.079 3.391-1.925l5.044-3.396c1.994-1.421 3.358-2.653 4.093-3.696l1.223-1.698a1.63 1.63 0 0 1 .286-.235 1.39 1.39 0 0 1 .332-.161 1.6 1.6 0 0 1 .36-.079c.123-.009.246-.005.37.014s.241.051.355.097a1.68 1.68 0 0 1 .318.18c.102.074.193.159.273.254s.143.198.198.309.095.231.12.351a1.36 1.36 0 0 1 .032.369 1.46 1.46 0 0 1-.055.365c-.034.12-.08.234-.139.341s-.335.46-.821 1.057l-2.436 3.258-3.138 4.591-1.555 2.372a1.72 1.72 0 0 1-.287.245c-.104.07-.215.126-.332.166a1.56 1.56 0 0 1-.364.083 1.73 1.73 0 0 1-.374-.005c-.126-.018-.248-.051-.365-.097s-.226-.106-.327-.18-.194-.158-.277-.254a1.54 1.54 0 0 1-.203-.309 1.44 1.44 0 0 1-.129-.355 1.49 1.49 0 0 1-.037-.369c.003-.126.02-.251.05-.374a1.75 1.75 0 0 1 .139-.346c.061-.111.304-.195.729-.254s.912-.564 1.463-1.518l2.362-4.199 1.652-2.926c.083-.111.179-.211.287-.3s.219-.16.346-.222a1.87 1.87 0 0 1 .387-.134 1.62 1.62 0 0 1 .402-.032 1.52 1.52 0 0 1 .406.065c.132.037.258.089.378.157s.231.149.332.245a1.79 1.79 0 0 1 .259.314c.077.117.137.242.18.374s.071.263.083.401a1.67 1.67 0 0 1-.014.411c-.022.136-.058.266-.111.392s-.255.42-.609.882-.844 1.272-1.472 2.441-1.267 2.601-1.91 4.296-1.036 2.586-1.168 2.663a1.99 1.99 0 0 1-.42.175c-.147.043-.297.068-.447.074a1.85 1.85 0 0 1-.453-.037 1.93 1.93 0 0 1-.433-.143 1.71 1.71 0 0 1-.383-.245c-.12-.095-.226-.204-.319-.327a2.19 2.19 0 0 1-.226-.393c-.058-.141-.1-.287-.124-.438s-.031-.303-.019-.457a1.84 1.84 0 0 1 .092-.443 1.73 1.73 0 0 1 .194-.41c.08-.13.176-.248.286-.356s.552-.338 1.325-.701 1.567-.929 2.385-1.698 1.496-1.595 2.031-2.478c.529-.88.893-1.898 1.093-3.055s.565-2.189 1.085-3.106.503-1.061-.042-.443-1.052 1.257-1.513 1.915l-1.472 2.354-1.708 2.824c-.609.966-1.338 1.979-2.187 3.041-.849 1.055-1.781 1.955-2.796 2.699s-2.203 1.434-3.563 2.068a37.55 37.55 0 0 1-4.467 1.726 40.5 40.5 0 0 1-4.97 1.232c-1.692.307-3.392.52-5.099.636l-5.039.097c-1.652-.052-2.95-.22-3.895-.503s-1.786-.63-2.524-1.052a11.68 11.68 0 0 1-2.04-1.472 20.91 20.91 0 0 1-1.772-1.804c-.557-.643-1.081-1.334-1.573-2.072l-1.348-2.063-1.126-1.91-1.071-2.026-1.094-2.243-1.2-2.602-1.463-3.124-1.661-3.516a25.01 25.01 0 0 1-1.375-3.742l-.554-2.178c-.018-.181-.014-.363.014-.544s.072-.357.143-.526.155-.328.263-.475.232-.282.374-.401.289-.215.452-.295.338-.143.517-.18a2.28 2.28 0 0 1 .54-.055 2.43 2.43 0 0 1 .54.079 2.31 2.31 0 0 1 .503.208 2.38 2.38 0 0 1 .443.318 2.51 2.51 0 0 1 .351.415c.099.154.178.317.24.489s.098.303.111.392.062.555.139 1.407a17.87 17.87 0 0 1 .065 2.317l-.042 2.45.129 3.138.314 3.263.563 3.221a22.08 22.08 0 0 0 1.029 3.322c.44 1.098 1.092 2.204 1.957 3.318s1.614 1.85 2.247 2.21 1.421.662 2.363.905a13.27 13.27 0 0 0 3.055.397l2.999-.019 3.018-.06 3.387-.023 2.93-.032 2.349-.037 2.243-.023 2.21-.028 2.137-.037 2.686-.064a25.89 25.89 0 0 0 3.341-.323l3.078-.605c.932-.224 1.728-.584 2.386-1.08a10.84 10.84 0 0 0 1.763-1.647l.987-1.112c.142-.132.299-.246.471-.342s.349-.169.54-.221.378-.08.572-.083a2.29 2.29 0 0 1 .577.055c.191.04.374.103.549.189s.337.196.485.319a2.27 2.27 0 0 1 .396.429 2.29 2.29 0 0 1 .287.508 2.43 2.43 0 0 1 .152.558 2.46 2.46 0 0 1 .014.581c-.019.194-.06.383-.125.568s-.151.358-.258.521l-.162.245z" fill-opacity=".1"/><path d="M60.075 87.658l-.115 3.562-.106 5.667c.006 1.403.085 2.638.235 3.706s.363 2.007.637 2.81a12.8 12.8 0 0 0 1.024 2.275l1.274 1.966c.44.603 1.114 1.295 2.021 2.076s1.678 1.348 2.312 1.708 1.43.714 2.39 1.061 1.857.6 2.681.757l2.386.328 2.427.184 2.603.143 2.612.065 2.603.028a18.96 18.96 0 0 0 2.303-.107l2.317-.276 2.806-.42a21.03 21.03 0 0 0 2.7-.646c.815-.262 1.777-.699 2.884-1.311l2.769-1.56 2.04-1.218 1.915-1.218 2.053-1.408 1.98-1.43c.609-.443 1.141-.92 1.596-1.431l.767-.798c.058-.018.169-.091.332-.217s.343-.229.53-.309.388-.143.591-.18.408-.043.614-.028a2.7 2.7 0 0 1 .604.116 2.6 2.6 0 0 1 .559.258c.175.111.335.24.48.388a2.47 2.47 0 0 1 .373.489 2.49 2.49 0 0 1 .245.563c.058.197.094.398.106.604s-.006.414-.046.614a2.62 2.62 0 0 1-.189.586c-.086.188-.194.363-.323.526s-.491.699-1.085 1.615-1.395 1.748-2.404 2.492-2.153 1.443-3.442 2.095-2.731 1.225-4.333 1.726l-4.897 1.26a40.65 40.65 0 0 1-4.813.706l-4.716.254-4.508.064c-1.415.006-2.678-.001-3.788-.023s-2.332-.201-3.655-.54-2.564-.747-3.733-1.218-2.223-.958-3.161-1.472-1.921-1.2-2.939-2.058l-2.635-2.27c-.735-.662-1.549-1.529-2.441-2.603l-2.335-3.115-1.68-2.732-1.177-2.067c-.335-.56-.532-.935-.591-1.126a1.77 1.77 0 0 1-.074-.595c.006-.2.045-.395.115-.586s.169-.36.295-.517a1.78 1.78 0 0 1 .448-.397 1.86 1.86 0 0 1 .544-.235 1.85 1.85 0 0 1 .595-.042c.2.015.392.063.577.143s.355.192.503.328a1.82 1.82 0 0 1 .374.466c.099.175.166.363.203.563a1.84 1.84 0 0 1 .014.595 1.97 1.97 0 0 1-.18.572 2.01 2.01 0 0 1-.351.484 1.88 1.88 0 0 1-.489.346c-.181.086-.372.143-.572.171a1.93 1.93 0 0 1-.595-.018c-.194-.04-.378-.111-.554-.212s-.331-.223-.466-.374a1.88 1.88 0 0 1-.318-.508c-.08-.185-.128-.378-.143-.581a1.95 1.95 0 0 1 .055-.595c.049-.194.128-.375.235-.544a1.9 1.9 0 0 1 .401-.443 1.85 1.85 0 0 1 .521-.291c.188-.068.383-.105.586-.111a1.93 1.93 0 0 1 .591.083 1.9 1.9 0 0 1 .535.268c.163.12.303.261.42.425l.175.249.355.909.826 2.044c.314.757.746 1.581 1.297 2.473s1.269 1.82 2.164 2.783l2.257 2.431c.606.662 1.371 1.36 2.294 2.095l2.538 1.879c.766.513 1.666.989 2.7 1.426s2.118.796 3.253 1.079 2.223.462 3.263.545 2.258.098 3.645.046l4.37-.226 4.384-.438a33.29 33.29 0 0 0 4.356-.919c1.504-.418 2.909-.895 4.213-1.43s2.472-1.163 3.493-1.883 2.054-1.587 3.097-2.593 1.736-1.803 2.081-2.4.594-.954.757-1.08a2.36 2.36 0 0 1 .53-.309c.191-.083.388-.143.591-.18s.408-.043.614-.028a2.7 2.7 0 0 1 .604.116 2.6 2.6 0 0 1 .559.258c.175.111.335.24.48.388a2.47 2.47 0 0 1 .373.489 2.49 2.49 0 0 1 .245.563c.058.197.094.398.106.604s-.006.411-.046.614a2.62 2.62 0 0 1-.189.586c-.086.188-.194.363-.323.526s-.265.263-.406.309-.536.346-1.191.909a20.78 20.78 0 0 1-1.878 1.449l-2.058 1.472-2.234 1.565-2.048 1.241-2.068 1.177-2.261 1.278c-.772.431-1.493.768-2.164 1.011l-2.455.826-3.064.84-3.055.586-2.63.281-2.533.065-2.663-.023-2.746-.051-2.741-.125-2.663-.23c-.898-.087-2.167-.342-3.807-.766s-2.776-.803-3.419-1.145l-2.118-1.246a17.66 17.66 0 0 1-2.173-1.638c-.683-.597-1.235-1.192-1.657-1.786l-1.292-2.003-1.338-2.542c-.449-.948-.795-1.914-1.038-2.898s-.449-2.058-.609-3.23l-.424-3.941-.3-5.745-.083-3.807a2.19 2.19 0 0 1 .12-.484c.059-.157.135-.305.231-.443s.206-.263.332-.374a1.95 1.95 0 0 1 .406-.282c.151-.077.306-.135.466-.175a2.07 2.07 0 0 1 .987 0c.16.04.315.099.466.175s.283.171.406.282a2.02 2.02 0 0 1 .563.817c.059.157.099.318.12.484l.032.245z" fill-opacity=".1"/></svg>