<svg xmlns="http://www.w3.org/2000/svg" width="360" height="450" fill="none" xmlns:v="https://vecta.io/nano"><rect width="360" height="450" rx="16" fill="#fff"/><path d="M97.957 52.36h20.601v7.074H106.03v7.182h11.583v7.047H106.03V88h-8.073V52.36zM131.219 88h-8.208V65.833h8.208v3.429h-.135c.144-.414.495-.936 1.053-1.566.558-.648 1.341-1.224 2.349-1.728 1.008-.522 2.241-.783 3.699-.783 1.026 0 1.971.162 2.835.486.864.306 1.494.603 1.89.891l-3.186 6.669c-.252-.306-.702-.621-1.35-.945-.63-.342-1.422-.513-2.376-.513-1.098 0-2.007.279-2.727.837-.702.558-1.224 1.233-1.566 2.025-.324.792-.486 1.539-.486 2.241V88zm30.523 0v-3.591c-.162.36-.576.882-1.242 1.566-.648.684-1.512 1.305-2.592 1.863-1.08.54-2.34.81-3.78.81-2.16 0-4.05-.522-5.67-1.566a10.89 10.89 0 0 1-3.78-4.239c-.9-1.782-1.35-3.753-1.35-5.913s.45-4.122 1.35-5.886c.9-1.782 2.16-3.204 3.78-4.266s3.51-1.593 5.67-1.593c1.386 0 2.601.225 3.645.675 1.044.432 1.89.954 2.538 1.566.648.594 1.098 1.143 1.35 1.647v-3.24h8.154V88h-8.073zm-10.368-11.07c0 1.008.234 1.917.702 2.727.468.792 1.089 1.413 1.863 1.863.792.45 1.665.675 2.619.675.99 0 1.863-.225 2.619-.675s1.35-1.071 1.782-1.863c.45-.81.675-1.719.675-2.727s-.225-1.908-.675-2.7c-.432-.81-1.026-1.44-1.782-1.89-.756-.468-1.629-.702-2.619-.702-.954 0-1.827.234-2.619.702-.774.45-1.395 1.08-1.863 1.89-.468.792-.702 1.692-.702 2.7zm54.133-11.745c1.674 0 3.15.351 4.428 1.053 1.278.684 2.277 1.746 2.997 3.186.738 1.44 1.107 3.294 1.107 5.562V88h-8.073V76.228c0-1.548-.234-2.799-.702-3.753s-1.395-1.431-2.781-1.431c-.828 0-1.557.216-2.187.648s-1.116 1.035-1.458 1.809c-.342.756-.513 1.665-.513 2.727V88h-7.533V76.228c0-1.548-.261-2.799-.783-3.753-.504-.954-1.404-1.431-2.7-1.431-.828 0-1.557.216-2.187.648-.63.414-1.116 1.008-1.458 1.782-.324.756-.486 1.674-.486 2.754V88h-8.154V65.833h8.154v3.159c.216-.558.684-1.125 1.404-1.701.738-.594 1.647-1.089 2.727-1.485 1.08-.414 2.223-.621 3.429-.621 1.314 0 2.412.198 3.294.594.882.378 1.602.891 2.16 1.539.576.648 1.035 1.35 1.377 2.106.252-.648.747-1.296 1.485-1.944.756-.666 1.692-1.215 2.808-1.647 1.134-.432 2.349-.648 3.645-.648zm19.82 13.473a3.93 3.93 0 0 0 .756 2.106c.45.612 1.071 1.098 1.863 1.458.81.342 1.764.513 2.862.513 1.044 0 1.98-.108 2.808-.324.846-.216 1.575-.486 2.187-.81.63-.324 1.116-.657 1.458-.999l3.186 5.076c-.45.486-1.089.963-1.917 1.431-.81.45-1.881.819-3.213 1.107s-3.015.432-5.049.432c-2.448 0-4.626-.459-6.534-1.377a10.56 10.56 0 0 1-4.509-4.05c-1.098-1.782-1.647-3.96-1.647-6.534 0-2.16.468-4.104 1.404-5.832.954-1.746 2.331-3.123 4.131-4.131 1.8-1.026 3.969-1.539 6.507-1.539 2.412 0 4.5.441 6.264 1.323a9.24 9.24 0 0 1 4.104 3.942c.972 1.728 1.458 3.888 1.458 6.48l-.027.864c0 .432-.018.72-.054.864h-16.038zm8.397-4.293c-.018-.576-.171-1.143-.459-1.701-.288-.576-.72-1.044-1.296-1.404-.576-.378-1.314-.567-2.214-.567s-1.665.18-2.295.54c-.612.342-1.08.792-1.404 1.35s-.504 1.152-.54 1.782h8.208zM253.194 88h-8.208V65.833h8.208v3.429h-.135c.144-.414.495-.936 1.053-1.566.558-.648 1.341-1.224 2.349-1.728 1.008-.522 2.241-.783 3.699-.783 1.026 0 1.971.162 2.835.486.864.306 1.494.603 1.89.891l-3.186 6.669c-.252-.306-.702-.621-1.35-.945-.63-.342-1.422-.513-2.376-.513-1.098 0-2.007.279-2.727.837-.702.558-1.224 1.233-1.566 2.025-.324.792-.486 1.539-.486 2.241V88z" fill="red"/><path d="M47.99 112.887l1.939-4.634h1.218l-3.878 8.659h-1.232L47.339 114l-2.366-5.747h1.239l1.778 4.634zm6.74 1.281c-.593 0-1.12-.133-1.582-.399a2.91 2.91 0 0 1-1.078-1.078 3.06 3.06 0 0 1-.392-1.547 3.1 3.1 0 0 1 .392-1.554c.261-.462.621-.828 1.078-1.099s.989-.406 1.582-.406 1.108.135 1.561.406.814.637 1.071 1.099.385.98.385 1.554-.128 1.09-.385 1.547a2.86 2.86 0 0 1-1.071 1.078c-.453.266-.973.399-1.561.399zm0-1.043a1.79 1.79 0 0 0 .973-.259c.28-.173.497-.408.651-.707s.231-.644.231-1.022-.077-.719-.231-1.022a1.8 1.8 0 0 0-.651-.721 1.76 1.76 0 0 0-.973-.266c-.378 0-.707.089-.987.266a1.85 1.85 0 0 0-.658.721c-.154.303-.231.644-.231 1.022s.077.719.231 1.022a1.81 1.81 0 0 0 .658.707c.28.173.609.259.987.259zm5.508-1.974c0 .602.128 1.083.385 1.442s.66.532 1.197.532.94-.177 1.197-.532.385-.84.385-1.442v-2.898h1.204v3.066c0 .56-.11 1.055-.329 1.484s-.53.765-.945 1.008c-.411.238-.915.357-1.512.357s-1.097-.119-1.512-.357c-.411-.243-.726-.579-.945-1.008s-.322-.924-.322-1.484v-3.066h1.197v2.898zM74.368 114v-1.12c-.037.117-.147.278-.329.483s-.422.392-.735.56c-.308.163-.672.245-1.092.245-.532 0-1.015-.126-1.449-.378s-.772-.604-1.029-1.057-.378-.992-.378-1.603.126-1.143.378-1.596a2.79 2.79 0 0 1 2.478-1.449c.415 0 .775.075 1.078.224s.553.322.735.518.296.364.329.504v-1.078h1.204V114h-1.19zm-3.808-2.87c0 .415.091.775.273 1.078s.418.539.707.707c.294.163.607.245.938.245.355 0 .672-.084.952-.252s.502-.404.665-.707.245-.665.245-1.071-.082-.761-.245-1.064c-.163-.308-.385-.546-.665-.714-.28-.173-.597-.259-.952-.259a1.86 1.86 0 0 0-.938.252c-.289.168-.525.404-.707.707s-.273.663-.273 1.078zm7.892 2.87h-1.225v-9.632h1.225V114zm5.541-4.305L82.531 114h-1.26l-1.561-5.747h1.295l1.043 4.417 1.442-4.305h1.008l1.428 4.305 1.05-4.417h1.302L86.717 114h-1.26l-1.463-4.305zM94.096 114v-1.12c-.037.117-.147.278-.329.483s-.422.392-.735.56c-.308.163-.672.245-1.092.245-.532 0-1.015-.126-1.449-.378s-.772-.604-1.029-1.057-.378-.992-.378-1.603.126-1.143.378-1.596a2.79 2.79 0 0 1 2.478-1.449c.415 0 .775.075 1.078.224s.553.322.735.518.296.364.329.504v-1.078h1.204V114h-1.19zm-3.808-2.87c0 .415.091.775.273 1.078s.418.539.707.707c.294.163.607.245.938.245.355 0 .672-.084.952-.252s.502-.404.665-.707.245-.665.245-1.071-.082-.761-.245-1.064c-.163-.308-.385-.546-.665-.714-.28-.173-.597-.259-.952-.259a1.86 1.86 0 0 0-.938.252c-.289.168-.525.404-.707.707s-.273.663-.273 1.078zm9.013 1.757l1.939-4.634h1.218l-3.878 8.659h-1.232L98.65 114l-2.366-5.747h1.239l1.778 4.634zm6.236-4.802c.298 0 .576.03.833.091s.485.133.672.217.326.159.406.224l-.483.77c-.094-.084-.262-.177-.504-.28s-.514-.161-.812-.161c-.327 0-.605.065-.833.196s-.343.31-.343.553.116.436.35.581.555.257.952.35a4.79 4.79 0 0 1 .889.301c.28.126.506.301.679.525s.259.513.259.882c0 .336-.07.623-.21.861s-.329.422-.567.567a2.72 2.72 0 0 1-.798.308 4.14 4.14 0 0 1-.896.098c-.355 0-.675-.037-.959-.112-.285-.07-.525-.154-.721-.252a2.52 2.52 0 0 1-.42-.266l.483-.868c.121.117.319.24.595.371a2.22 2.22 0 0 0 .952.196c.392 0 .709-.082.952-.245.242-.168.364-.385.364-.651 0-.201-.059-.362-.175-.483s-.273-.219-.469-.294-.411-.14-.644-.196a4.59 4.59 0 0 1-.658-.203c-.21-.084-.404-.191-.581-.322a1.53 1.53 0 0 1-.413-.49c-.103-.196-.154-.425-.154-.686a1.22 1.22 0 0 1 .315-.847c.21-.238.485-.42.826-.546a3.18 3.18 0 0 1 1.113-.189zm6.473.168h1.127v-2.359h1.211v2.359h1.477v1.043h-1.477v2.842c0 .336.058.583.175.742s.282.238.483.238c.177 0 .315-.033.413-.098s.156-.11.175-.133l.483.896c-.028.023-.103.068-.224.133s-.278.124-.469.175-.416.077-.672.077c-.448 0-.824-.135-1.127-.406s-.448-.709-.448-1.302v-3.164h-1.127v-1.043zm5.887 3.122c.005.345.08.66.224.945s.36.511.644.679c.29.168.644.252 1.064.252.355 0 .656-.051.903-.154s.458-.233.616-.378a1.96 1.96 0 0 0 .343-.399l.595.735a2.51 2.51 0 0 1-.567.588c-.219.168-.487.296-.805.385s-.704.14-1.162.14c-.616 0-1.15-.131-1.603-.392s-.793-.632-1.036-1.099-.364-1.01-.364-1.617c0-.56.115-1.064.343-1.512.229-.453.56-.81.994-1.071.439-.261.966-.392 1.582-.392.565 0 1.055.119 1.47.357a2.4 2.4 0 0 1 .973.994c.234.429.35.943.35 1.54l-.007.203-.014.196h-4.543zm3.402-.917c-.004-.191-.06-.401-.168-.63-.102-.229-.27-.425-.504-.588s-.548-.245-.945-.245c-.41 0-.742.079-.994.238a1.51 1.51 0 0 0-.546.581c-.116.224-.184.439-.203.644h3.36zm3.774 3.542h-1.225v-9.632h1.225V114zm3.022 0h-1.225v-9.632h1.225V114zm4.751-5.747h1.127v-2.359h1.211v2.359h1.477v1.043h-1.477v2.842c0 .336.058.583.175.742s.282.238.483.238c.177 0 .315-.033.413-.098s.156-.11.175-.133l.483.896c-.028.023-.103.068-.224.133s-.278.124-.469.175-.416.077-.672.077c-.448 0-.824-.135-1.127-.406s-.448-.709-.448-1.302v-3.164h-1.127v-1.043zm8.379-.168c.378 0 .745.079 1.099.238.36.159.654.411.882.756.234.341.35.786.35 1.337V114h-1.232v-3.346c0-.569-.13-.982-.392-1.239-.256-.261-.595-.392-1.015-.392-.28 0-.548.079-.805.238a1.88 1.88 0 0 0-.637.644c-.163.271-.245.579-.245.924V114h-1.232v-9.632h1.232v4.907c.042-.159.154-.331.336-.518s.425-.345.714-.476.605-.196.945-.196zm4.741 3.29a2.11 2.11 0 0 0 .224.945 1.63 1.63 0 0 0 .644.679c.289.168.644.252 1.064.252.354 0 .655-.051.903-.154s.457-.233.616-.378.273-.282.343-.399l.595.735a2.51 2.51 0 0 1-.567.588c-.22.168-.488.296-.805.385s-.705.14-1.162.14c-.616 0-1.151-.131-1.603-.392s-.794-.632-1.036-1.099-.364-1.01-.364-1.617c0-.56.114-1.064.343-1.512a2.58 2.58 0 0 1 .994-1.071c.438-.261.966-.392 1.582-.392.564 0 1.054.119 1.47.357a2.41 2.41 0 0 1 .973.994c.233.429.35.943.35 1.54l-.007.203-.014.196h-4.543zm3.402-.917c-.005-.191-.061-.401-.168-.63s-.271-.425-.504-.588-.549-.245-.945-.245c-.411 0-.742.079-.994.238s-.43.352-.546.581-.185.439-.203.644h3.36zm5.503-2.205h1.127v-2.359h1.211v2.359h1.477v1.043h-1.477v2.842c0 .336.058.583.175.742s.282.238.483.238c.177 0 .315-.033.413-.098s.156-.11.175-.133l.483.896c-.028.023-.103.068-.224.133a2.21 2.21 0 0 1-.469.175 2.62 2.62 0 0 1-.672.077c-.448 0-.824-.135-1.127-.406s-.448-.709-.448-1.302v-3.164h-1.127v-1.043zm6.322 5.747h-1.211v-5.747h1.211v.994h-.035c.023-.121.109-.273.259-.455a2.09 2.09 0 0 1 .616-.49c.261-.145.574-.217.938-.217.266 0 .499.037.7.112.205.07.35.14.434.21l-.497 1.008c-.066-.065-.18-.131-.343-.196s-.367-.105-.609-.105c-.308 0-.572.096-.791.287a1.89 1.89 0 0 0-.504.693c-.112.266-.168.513-.168.742V114zm4.838-2.849c0 .602.129 1.083.385 1.442.262.355.661.532 1.197.532.542 0 .941-.177 1.197-.532s.385-.84.385-1.442v-2.898h1.204v3.066c0 .56-.109 1.055-.329 1.484a2.37 2.37 0 0 1-.945 1.008c-.41.238-.914.357-1.512.357-.592 0-1.096-.119-1.512-.357-.41-.243-.725-.579-.945-1.008-.214-.429-.322-.924-.322-1.484v-3.066h1.197v2.898zm5.479-2.898h1.127v-2.359h1.211v2.359h1.477v1.043h-1.477v2.842c0 .336.058.583.175.742s.282.238.483.238c.177 0 .315-.033.413-.098s.156-.11.175-.133l.483.896c-.028.023-.103.068-.224.133s-.278.124-.469.175-.416.077-.672.077c-.448 0-.824-.135-1.127-.406s-.448-.709-.448-1.302v-3.164h-1.127v-1.043zm8.379-.168c.378 0 .745.079 1.099.238.36.159.654.411.882.756.234.341.35.786.35 1.337V114h-1.232v-3.346c0-.569-.13-.982-.392-1.239-.256-.261-.595-.392-1.015-.392-.28 0-.548.079-.805.238a1.88 1.88 0 0 0-.637.644c-.163.271-.245.579-.245.924V114h-1.232v-9.632h1.232v4.907c.042-.159.154-.331.336-.518.187-.187.425-.345.714-.476s.605-.196.945-.196zm5.056 4.158a.99.99 0 0 1 .728.301c.205.201.308.471.308.812a2.39 2.39 0 0 1-.21.987c-.14.313-.324.59-.553.833a2.98 2.98 0 0 1-.742.581l-.455-.469c.14-.065.292-.159.455-.28a2.5 2.5 0 0 0 .441-.42c.131-.154.219-.32.266-.497a.81.81 0 0 1-.364.077.86.86 0 0 1-.616-.273.92.92 0 0 1-.259-.658.98.98 0 0 1 .133-.511.96.96 0 0 1 .357-.35 1 1 0 0 1 .511-.133zm6.032 4.837c-.312 0-.574-.035-.784-.105s-.364-.138-.462-.203l.455-.931a.78.78 0 0 0 .217.126c.08.037.199.056.357.056.206 0 .362-.063.469-.189s.189-.303.231-.532a4.39 4.39 0 0 0 .063-.798v-6.251h1.218v6.545c0 .453-.058.849-.175 1.19s-.296.614-.553.805-.602.287-1.036.287zm1.19-10.794a.77.77 0 0 1-.567-.231c-.154-.159-.231-.348-.231-.567 0-.145.035-.278.105-.399a.9.9 0 0 1 .294-.294c.122-.075.255-.112.399-.112.15 0 .285.037.406.112s.217.173.287.294.105.254.105.399c0 .219-.077.408-.231.567a.77.77 0 0 1-.567.231zm3.546 4.865c0 .602.128 1.083.385 1.442s.66.532 1.197.532.94-.177 1.197-.532.385-.84.385-1.442v-2.898h1.204v3.066c0 .56-.11 1.055-.329 1.484a2.38 2.38 0 0 1-.945 1.008c-.411.238-.915.357-1.512.357s-1.097-.119-1.512-.357a2.43 2.43 0 0 1-.945-1.008c-.215-.429-.322-.924-.322-1.484v-3.066h1.197v2.898zm8.138-3.066a3.6 3.6 0 0 1 .833.091c.261.061.485.133.672.217s.327.159.406.224l-.483.77c-.093-.084-.261-.177-.504-.28a1.99 1.99 0 0 0-.812-.161c-.327 0-.604.065-.833.196s-.343.31-.343.553.117.436.35.581.555.257.952.35c.317.075.614.175.889.301s.506.301.679.525.259.513.259.882c0 .336-.07.623-.21.861s-.329.422-.567.567a2.72 2.72 0 0 1-.798.308 4.14 4.14 0 0 1-.896.098c-.355 0-.674-.037-.959-.112-.285-.07-.525-.154-.721-.252-.191-.103-.331-.191-.42-.266l.483-.868c.121.117.32.24.595.371a2.22 2.22 0 0 0 .952.196c.392 0 .709-.082.952-.245.243-.168.364-.385.364-.651 0-.201-.058-.362-.175-.483s-.273-.219-.469-.294-.411-.14-.644-.196a4.63 4.63 0 0 1-.658-.203c-.21-.084-.404-.191-.581-.322s-.31-.299-.413-.49-.154-.425-.154-.686a1.22 1.22 0 0 1 .315-.847c.21-.238.485-.42.826-.546s.712-.189 1.113-.189zm2.891.168h1.127v-2.359h1.211v2.359h1.477v1.043h-1.477v2.842c0 .336.058.583.175.742s.282.238.483.238c.177 0 .315-.033.413-.098s.156-.11.175-.133l.483.896c-.028.023-.103.068-.224.133a2.21 2.21 0 0 1-.469.175 2.62 2.62 0 0 1-.672.077c-.448 0-.824-.135-1.127-.406s-.448-.709-.448-1.302v-3.164h-1.127v-1.043zm10.767-.168a3.6 3.6 0 0 1 .833.091c.261.061.485.133.672.217s.327.159.406.224l-.483.77c-.093-.084-.261-.177-.504-.28a1.99 1.99 0 0 0-.812-.161c-.327 0-.604.065-.833.196s-.343.31-.343.553.117.436.35.581c.238.14.555.257.952.35.317.075.614.175.889.301s.506.301.679.525.259.513.259.882c0 .336-.07.623-.21.861s-.329.422-.567.567a2.72 2.72 0 0 1-.798.308 4.14 4.14 0 0 1-.896.098c-.355 0-.674-.037-.959-.112-.285-.07-.525-.154-.721-.252-.191-.103-.331-.191-.42-.266l.483-.868c.121.117.32.24.595.371a2.22 2.22 0 0 0 .952.196c.392 0 .709-.082.952-.245.243-.168.364-.385.364-.651 0-.201-.058-.362-.175-.483s-.273-.219-.469-.294-.411-.14-.644-.196a4.63 4.63 0 0 1-.658-.203c-.21-.084-.404-.191-.581-.322s-.31-.299-.413-.49-.154-.425-.154-.686a1.22 1.22 0 0 1 .315-.847c.21-.238.485-.42.826-.546s.712-.189 1.113-.189zm6.137 6.083c-.593 0-1.12-.133-1.582-.399a2.91 2.91 0 0 1-1.078-1.078c-.261-.457-.392-.973-.392-1.547s.131-1.092.392-1.554.621-.828 1.078-1.099c.462-.271.989-.406 1.582-.406a2.98 2.98 0 0 1 1.561.406 2.89 2.89 0 0 1 1.071 1.099c.257.462.385.98.385 1.554s-.128 1.09-.385 1.547-.614.812-1.071 1.078-.973.399-1.561.399zm0-1.043a1.79 1.79 0 0 0 .973-.259c.28-.173.497-.408.651-.707s.231-.644.231-1.022-.077-.719-.231-1.022a1.8 1.8 0 0 0-.651-.721 1.76 1.76 0 0 0-.973-.266c-.378 0-.707.089-.987.266s-.499.418-.658.721-.231.644-.231 1.022.077.719.231 1.022.378.534.658.707.609.259.987.259zm11.262-5.04c.425 0 .789.093 1.092.28s.535.462.693.84c.164.378.245.861.245 1.449V114h-1.204v-3.101c0-.621-.086-1.087-.259-1.4s-.487-.469-.945-.469a1.34 1.34 0 0 0-.7.203c-.219.131-.401.334-.546.609-.14.275-.21.628-.21 1.057V114h-1.134v-3.101c0-.621-.107-1.087-.322-1.4a1.03 1.03 0 0 0-.903-.469c-.247 0-.48.065-.7.196-.214.126-.389.327-.525.602s-.203.632-.203 1.071V114h-1.211v-5.747h1.211v.882c.052-.145.161-.299.329-.462s.392-.301.658-.413c.271-.117.572-.175.903-.175.346 0 .635.07.868.21s.418.313.553.518.229.394.28.581c.066-.201.192-.401.378-.602s.423-.373.707-.504a2.18 2.18 0 0 1 .945-.203zm4.478 3.29a2.11 2.11 0 0 0 .224.945 1.63 1.63 0 0 0 .644.679c.289.168.644.252 1.064.252.354 0 .655-.051.903-.154s.457-.233.616-.378.273-.282.343-.399l.595.735a2.51 2.51 0 0 1-.567.588c-.22.168-.488.296-.805.385s-.705.14-1.162.14c-.616 0-1.151-.131-1.603-.392s-.794-.632-1.036-1.099-.364-1.01-.364-1.617c0-.56.114-1.064.343-1.512a2.58 2.58 0 0 1 .994-1.071c.438-.261.966-.392 1.582-.392.564 0 1.054.119 1.47.357a2.41 2.41 0 0 1 .973.994c.233.429.35.943.35 1.54l-.007.203-.014.196h-4.543zm3.402-.917c-.005-.191-.061-.401-.168-.63s-.271-.425-.504-.588-.549-.245-.945-.245c-.411 0-.742.079-.994.238s-.43.352-.546.581-.185.439-.203.644h3.36zm7.225 6.454h-1.211v-8.659h1.232v1.078c.042-.145.159-.315.35-.511s.448-.366.77-.511.7-.224 1.12-.224c.532 0 1.003.128 1.414.385.415.252.74.607.973 1.064s.357.985.357 1.596-.121 1.146-.364 1.603a2.68 2.68 0 0 1-.994 1.057c-.415.252-.891.378-1.428.378-.434 0-.814-.082-1.141-.245s-.576-.348-.763-.553-.287-.369-.315-.49v4.032zm3.801-5.782c0-.415-.086-.775-.259-1.078s-.392-.539-.672-.707-.583-.252-.91-.252c-.359 0-.686.086-.98.259a1.84 1.84 0 0 0-.7.714c-.173.303-.259.658-.259 1.064a2.15 2.15 0 0 0 .259 1.071c.173.303.406.539.7.707a1.94 1.94 0 0 0 .98.252c.327 0 .63-.082.91-.245.28-.168.504-.404.672-.707s.259-.663.259-1.078zm7.093 2.87v-1.12c-.038.117-.147.278-.329.483s-.423.392-.735.56c-.308.163-.672.245-1.092.245-.532 0-1.015-.126-1.449-.378s-.773-.604-1.029-1.057-.378-.992-.378-1.603.126-1.143.378-1.596a2.78 2.78 0 0 1 1.029-1.064 2.79 2.79 0 0 1 1.449-.385c.415 0 .774.075 1.078.224s.553.322.735.518.296.364.329.504v-1.078h1.204V114h-1.19zm-3.808-2.87c0 .415.091.775.273 1.078a1.97 1.97 0 0 0 .707.707c.294.163.606.245.938.245.354 0 .672-.084.952-.252s.501-.404.665-.707.245-.665.245-1.071-.082-.761-.245-1.064c-.164-.308-.385-.546-.665-.714-.28-.173-.598-.259-.952-.259a1.86 1.86 0 0 0-.938.252 1.97 1.97 0 0 0-.707.707c-.182.303-.273.663-.273 1.078zm7.822 2.87h-1.211v-5.747h1.211v.994h-.035c.024-.121.11-.273.259-.455s.355-.345.616-.49.574-.217.938-.217c.266 0 .5.037.7.112.206.07.35.14.434.21l-.497 1.008c-.065-.065-.179-.131-.343-.196s-.366-.105-.609-.105c-.308 0-.571.096-.791.287s-.387.422-.504.693-.168.513-.168.742V114zm3.29-5.747h1.127v-2.359h1.211v2.359h1.477v1.043h-1.477v2.842c0 .336.058.583.175.742s.282.238.483.238c.177 0 .315-.033.413-.098s.156-.11.175-.133l.483.896c-.028.023-.103.068-.224.133s-.278.124-.469.175-.416.077-.672.077c-.448 0-.824-.135-1.127-.406s-.448-.709-.448-1.302v-3.164h-1.127v-1.043zm7.281-.168c.298 0 .576.03.833.091s.485.133.672.217.326.159.406.224l-.483.77c-.094-.084-.262-.177-.504-.28s-.514-.161-.812-.161c-.327 0-.605.065-.833.196s-.343.31-.343.553.116.436.35.581.555.257.952.35a4.79 4.79 0 0 1 .889.301c.28.126.506.301.679.525s.259.513.259.882c0 .336-.07.623-.21.861s-.329.422-.567.567a2.72 2.72 0 0 1-.798.308 4.14 4.14 0 0 1-.896.098c-.355 0-.675-.037-.959-.112-.285-.07-.525-.154-.721-.252a2.52 2.52 0 0 1-.42-.266l.483-.868c.121.117.319.24.595.371a2.22 2.22 0 0 0 .952.196c.392 0 .709-.082.952-.245.242-.168.364-.385.364-.651 0-.201-.059-.362-.175-.483s-.273-.219-.469-.294-.411-.14-.644-.196a4.59 4.59 0 0 1-.658-.203c-.21-.084-.404-.191-.581-.322a1.53 1.53 0 0 1-.413-.49c-.103-.196-.154-.425-.154-.686a1.22 1.22 0 0 1 .315-.847c.21-.238.485-.42.826-.546a3.18 3.18 0 0 1 1.113-.189zm9.623 6.083c-.593 0-1.12-.133-1.582-.399s-.817-.625-1.078-1.078-.392-.973-.392-1.547.13-1.092.392-1.554a2.93 2.93 0 0 1 1.078-1.099c.462-.271.989-.406 1.582-.406a2.98 2.98 0 0 1 1.561.406 2.89 2.89 0 0 1 1.071 1.099c.256.462.385.98.385 1.554s-.129 1.09-.385 1.547-.614.812-1.071 1.078-.973.399-1.561.399zm0-1.043c.373 0 .697-.086.973-.259s.497-.408.651-.707.231-.644.231-1.022-.077-.719-.231-1.022a1.8 1.8 0 0 0-.651-.721c-.276-.177-.6-.266-.973-.266s-.707.089-.987.266-.5.418-.658.721-.231.644-.231 1.022.077.719.231 1.022a1.81 1.81 0 0 0 .658.707c.28.173.609.259.987.259zm3.773-4.872h1.176v-1.631c0-.583.101-1.052.301-1.407.206-.355.465-.611.777-.77a2.11 2.11 0 0 1 .973-.245c.402 0 .71.056.924.168l.392.224-.49.931c-.023-.028-.095-.079-.217-.154s-.287-.112-.497-.112c-.154 0-.303.037-.448.112s-.266.219-.364.434-.147.534-.147.959v1.491h1.638v1.043h-1.638V114h-1.204v-4.704h-1.176v-1.043zm8.739 5.747v-5.747h1.218V114h-1.218zm.623-7.714c-.22 0-.409-.077-.567-.231-.154-.159-.231-.348-.231-.567s.077-.408.231-.567a.77.77 0 0 1 .567-.238c.144 0 .277.037.399.112s.226.173.301.294a.73.73 0 0 1 .112.399c0 .219-.08.408-.238.567-.159.154-.35.231-.574.231zm1.967 1.967h1.127v-2.359h1.211v2.359h1.477v1.043h-1.477v2.842c0 .336.058.583.175.742s.282.238.483.238c.177 0 .315-.033.413-.098s.156-.11.175-.133l.483.896c-.028.023-.103.068-.224.133s-.278.124-.469.175-.416.077-.672.077c-.448 0-.824-.135-1.127-.406s-.448-.709-.448-1.302v-3.164h-1.127v-1.043zm9.577 1.463a.92.92 0 0 1-.938-.938c0-.266.091-.49.273-.672s.408-.28.665-.28a.9.9 0 0 1 .672.28c.182.182.273.406.273.672a.92.92 0 0 1-.273.665c-.182.182-.406.273-.672.273zm.021 2.527a.99.99 0 0 1 .728.301c.205.201.308.471.308.812a2.39 2.39 0 0 1-.21.987c-.14.313-.325.59-.553.833a2.98 2.98 0 0 1-.742.581l-.455-.469c.14-.065.291-.159.455-.28a2.5 2.5 0 0 0 .441-.42c.13-.154.219-.32.266-.497a.81.81 0 0 1-.364.077c-.238-.005-.444-.096-.616-.273a.92.92 0 0 1-.259-.658.98.98 0 0 1 .133-.511c.088-.149.207-.266.357-.35a1 1 0 0 1 .511-.133zm3.36 4.599l-.756-.434c.224-.294.455-.719.693-1.274s.448-1.206.616-1.967.252-1.591.252-2.492c0-.961-.088-1.841-.266-2.639s-.394-1.486-.651-2.065-.494-1.024-.728-1.323l.784-.42a6.73 6.73 0 0 1 .651 1.043 10.59 10.59 0 0 1 .637 1.484 12.16 12.16 0 0 1 .476 1.834 11.51 11.51 0 0 1 .182 2.086 10.68 10.68 0 0 1-.308 2.632c-.2.812-.448 1.521-.742 2.128-.289.607-.569 1.076-.84 1.407z" fill="#000"/><path d="M271.468 214.937l-.052 5.366-.017 12.12.078 13.828.078 14.27.078 14.382.078 14.418.069 14.443c.024 4.82-.505 8.429-1.586 10.828s-3.615 3.916-7.603 4.551c-3.988.642-8.277 1.009-12.866 1.101l-13.992.139-14.279-.069-14.356-.113-14.374-.13-14.383-.035-14.382.061-14.392.052-14.382.061-14.383.052-14.408.052c-4.809.017-8.41-.515-10.803-1.595s-3.916-3.618-4.569-7.612c-.641-3.988-1.014-8.279-1.118-12.874l-.173-14.001.026-14.296.078-14.374.087-14.392v-14.391l-.095-14.4-.095-14.4-.095-14.391-.095-14.4-.087-14.417c-.029-4.815.494-8.421 1.569-10.82 1.081-2.398 3.615-3.918 7.603-4.56 3.988-.635 8.279-1.005 12.874-1.109l14.01-.156 14.296.043 14.374.087 14.4.104 14.399.008 14.4-.078 14.4-.078 14.409-.078 14.4-.086 14.426-.079c4.814-.023 8.418.503 10.811 1.578 2.398 1.081 3.918 3.621 4.56 7.621.647 3.993 1.023 8.291 1.127 12.891l.147 14.027-.043 14.314-.096 14.4-.104 14.408-.017 14.417.078 16.897.009 9.849a1.2 1.2 0 0 1-.113.312.94.94 0 0 1-.199.269 1.05 1.05 0 0 1-.286.19c-.099.046-.206.075-.321.087a1.12 1.12 0 0 1-.338-.017c-.11-.024-.214-.064-.312-.122s-.185-.13-.261-.217c-.069-.086-.124-.184-.164-.294-.046-.104-.072-.214-.078-.33-.006-.11.006-.219.034-.329.035-.11.084-.214.148-.312a1 1 0 0 1 .234-.243c.087-.069.185-.121.295-.156a1.07 1.07 0 0 1 .329-.052c.116 0 .228.017.338.052.104.04.202.092.295.156s.17.153.234.251.11.194.139.304.04.222.034.338a1.07 1.07 0 0 1-.069.329 1.13 1.13 0 0 1-.182.286c-.069.087-.153.159-.251.217a1.06 1.06 0 0 1-.313.122 1.12 1.12 0 0 1-.338.017.99.99 0 0 1-.32-.087c-.104-.046-.2-.11-.286-.19s-.148-.171-.2-.269a.99.99 0 0 1-.104-.321l-.035-.165.061-9.684.113-16.888.017-14.417-.078-14.408-.095-14.392-.148-14.278-.32-13.854c-.162-4.502-.448-8.557-.859-12.163s-1.502-5.731-3.277-6.372c-1.774-.648-5.054-.986-9.84-1.015l-14.382-.104-14.409-.112-14.4-.104-14.4-.104-14.4-.113-14.399-.009-14.4.078-14.366.104-14.261.139-13.828.329c-4.496.162-8.545.448-12.146.859-3.607.416-5.731 1.508-6.372 3.277s-.977 5.054-1.006 9.84l-.087 14.382-.095 14.4-.095 14.391-.087 14.4-.095 14.4v14.391l.104 14.392.113 14.365.156 14.253.347 13.836c.162 4.491.451 8.537.867 12.137s1.508 5.725 3.277 6.372c1.774.648 5.054.991 9.84 1.032l14.356.13 14.391.13 14.383.13 14.383.13 14.382.13 14.383.035 14.382-.061 14.348-.069 14.244-.122 13.811-.312c4.49-.15 8.536-.427 12.137-.832 3.595-.41 5.716-1.503 6.363-3.277s.98-5.06 1.015-9.857l.104-14.391.112-14.418.113-14.382.104-14.27.113-13.837.017-12.111-.026-5.488c.006-.075.023-.15.052-.225.029-.069.064-.136.104-.199.046-.064.098-.122.156-.174s.122-.095.191-.13a.94.94 0 0 1 .217-.078c.075-.023.15-.035.225-.035s.15.012.226.035a.93.93 0 0 1 .216.078.86.86 0 0 1 .191.13.81.81 0 0 1 .147.174.87.87 0 0 1 .113.208 1.26 1.26 0 0 1 .052.216l.017.122z" fill="#1d1d1d" stroke="#1d1d1d" stroke-width="1.734"/><g fill="#000"><path d="M137.37 193.044l-.444 2.039c-.29 1.366-.496 3.263-.618 5.692l-.27 8.489-.13 10.999c-.029 4.109.351 7.949 1.14 11.523.795 3.573 1.903 7.345 3.324 11.313 1.416 3.969 2.965 7.743 4.647 11.322 1.683 3.585 4.087 7.339 7.214 11.261 3.127 3.916 6.15 6.967 9.068 9.152 2.918 2.179 5.543 4.009 7.876 5.491s5.044 2.655 8.136 3.521c3.087.872 5.695 1.496 7.824 1.874s4.409.378 6.84 0 5.355-1.583 8.772-3.617c3.417-2.028 6.825-4.161 10.225-6.398 3.394-2.237 6.329-4.625 8.807-7.164s4.359-5.125 5.647-7.775 2.483-5.624 3.586-8.925 1.882-6.592 2.341-9.857l.992-7.836c.203-1.947.345-3.739.426-5.378l.183-4.715.078-4.872.035-4.533.052-2.109a1.23 1.23 0 0 1 .122-.348c.058-.105.134-.201.226-.288a1.19 1.19 0 0 1 .296-.201c.116-.052.235-.084.357-.095s.244-.003.365.026a.91.91 0 0 1 .34.139 1.09 1.09 0 0 1 .27.235c.081.093.145.198.191.314s.064.236.07.358a1.12 1.12 0 0 1-.044.366c-.035.116-.087.226-.156.331a1.18 1.18 0 0 1-.253.261c-.098.076-.206.131-.322.166-.116.041-.235.061-.357.061-.127-.006-.249-.026-.365-.061a1.18 1.18 0 0 1-.322-.174 1.22 1.22 0 0 1-.244-.271c-.069-.104-.119-.215-.148-.331-.034-.122-.049-.244-.043-.366a1.1 1.1 0 0 1 .087-.357c.047-.116.11-.221.191-.314s.174-.171.279-.235a1.32 1.32 0 0 1 .339-.131c.122-.023.244-.029.366-.017a1.06 1.06 0 0 1 .348.104 1.17 1.17 0 0 1 .304.209c.087.087.16.183.218.288a1.06 1.06 0 0 1 .113.349l.026.183-.017 1.935-.044 4.541-.078 4.924-.183 4.811c-.087 1.674-.232 3.498-.435 5.474-.209 1.981-.557 4.674-1.044 8.079-.493 3.4-1.311 6.799-2.454 10.198-1.137 3.399-2.417 6.517-3.838 9.352s-3.435 5.578-6.039 8.228-5.625 5.105-9.06 7.365a214.5 214.5 0 0 1-10.66 6.572c-3.666 2.121-6.843 3.373-9.529 3.756s-5.137.378-7.353-.017-4.966-1.069-8.25-2.022-6.121-2.191-8.511-3.713-5.114-3.428-8.171-5.735c-3.052-2.313-6.194-5.506-9.425-9.579s-5.7-7.934-7.423-11.583c-1.717-3.655-3.301-7.514-4.752-11.575s-2.587-7.966-3.411-11.714c-.824-3.742-1.23-7.673-1.218-11.793l.078-11.06.226-8.725c.111-2.557.293-4.521.549-5.892l.426-2.205a1.39 1.39 0 0 1 .139-.297 1.23 1.23 0 0 1 .209-.252 1.15 1.15 0 0 1 .253-.192c.098-.058.2-.102.304-.131a1.01 1.01 0 0 1 .322-.052c.099-.006.203 0 .313.017a1.47 1.47 0 0 1 .305.105 1.39 1.39 0 0 1 .278.174c.087.07.163.148.227.236s.119.18.165.279a1.34 1.34 0 0 1 .087.313c.023.111.029.215.017.314l-.008.166zm18.516 8.219l1.261-.671 2.489-1.185a16.47 16.47 0 0 1 2.272-.776c.707-.186 1.47-.276 2.288-.27a13.26 13.26 0 0 1 2.437.261c.8.169 1.616.39 2.445.663.83.279 1.636.607 2.419.985l2.193 1.063 1.906 1.028c.592.355 1.303.866 2.132 1.534.824.674 1.454 1.25 1.889 1.726a18.84 18.84 0 0 1 1.288 1.613 12.85 12.85 0 0 1 1.061 1.769c.285.581.493.956.627 1.124s.252.343.357.523a2.3 2.3 0 0 1 .235.576c.058.203.09.409.095.618a2.26 2.26 0 0 1-.052.628 2.44 2.44 0 0 1-.2.593c-.093.191-.206.366-.339.523-.134.162-.285.308-.453.435a2.73 2.73 0 0 1-.539.305c-.198.082-.398.14-.601.175-.209.035-.418.04-.626.017-.209-.017-.415-.058-.618-.122-.198-.07-.383-.163-.557-.279-.18-.11-.343-.241-.488-.392-.145-.157-.603-.308-1.375-.453s-1.624-.459-2.558-.942-1.833-.871-2.698-1.15l-2.558-.75c-.847-.215-1.729-.377-2.646-.488l-3.028-.296-3.403-.122c-1.172.012-2.222.102-3.15.27l-3.333.628-2.254.366a1.93 1.93 0 0 1-.574-.105 1.65 1.65 0 0 1-.505-.279 1.71 1.71 0 0 1-.392-.427 1.62 1.62 0 0 1-.234-.531 1.74 1.74 0 0 1-.061-.576c.017-.197.063-.386.139-.566a1.77 1.77 0 0 1 .304-.488 1.73 1.73 0 0 1 .444-.375c.168-.099.351-.169.548-.209s.383-.041.575-.018a1.67 1.67 0 0 1 .557.166c.174.081.333.192.478.331a1.77 1.77 0 0 1 .34.471 1.83 1.83 0 0 1 .174.549 1.79 1.79 0 0 1-.009.584c-.035.192-.098.372-.191.54-.093.174-.212.328-.357.462a1.68 1.68 0 0 1-.487.314c-.18.081-.366.131-.557.148-.198.017-.392.003-.583-.044-.192-.04-.369-.113-.531-.217-.169-.105-.314-.233-.435-.384a1.69 1.69 0 0 1-.296-.505c-.07-.181-.108-.369-.113-.567s.017-.389.069-.575c.058-.186.142-.361.253-.523a1.87 1.87 0 0 1 .409-.419c.156-.116.327-.203.513-.261l.278-.087 1.932-.262 3.499-.514 3.507-.488 3.69-.235 3.454.087c1.137.07 2.161.206 3.072.409l3.003.715c1.084.267 2.404.712 3.959 1.334l3.725 1.534c.928.401 1.444.691 1.549.871a2.3 2.3 0 0 1 .235.576c.058.203.09.409.095.618a2.26 2.26 0 0 1-.052.628 2.44 2.44 0 0 1-.2.593c-.093.191-.206.366-.339.523-.134.162-.285.308-.453.435a2.73 2.73 0 0 1-.539.305c-.198.082-.398.14-.601.175-.209.035-.418.04-.626.017-.209-.017-.415-.058-.618-.122-.198-.07-.383-.163-.557-.279-.18-.11-.343-.241-.488-.392-.145-.157-.356-.494-.635-1.011l-1.027-1.926a12.58 12.58 0 0 0-1.453-2.179c-.569-.674-1.215-1.29-1.941-1.848s-1.418-1.002-2.079-1.334l-1.898-.958c-.603-.302-1.531-.642-2.784-1.02-1.248-.372-2.321-.564-3.22-.575-.905-.006-1.683.11-2.332.348-.65.244-1.39.608-2.219 1.09l-1.48.828c-.162.07-.331.116-.505.139s-.342.026-.504.009a1.95 1.95 0 0 1-.514-.105c-.162-.058-.316-.136-.461-.235-.145-.093-.278-.203-.4-.331-.116-.128-.218-.27-.305-.427a2.28 2.28 0 0 1-.191-.48c-.047-.168-.073-.339-.079-.514 0-.168.018-.337.053-.505s.098-.332.174-.488a1.98 1.98 0 0 1 .287-.436 1.93 1.93 0 0 1 .374-.349l.218-.157zm51.727 6.289l1.392-.27a15.79 15.79 0 0 1 3.055-.261c1.096.011 2.239.212 3.429.601s2.306.845 3.35 1.368l2.654 1.247c.72.313 1.625.932 2.715 1.856 1.097.918 1.837 1.749 2.219 2.493.389.738.778 1.612 1.167 2.623l.966 2.563c.261.691.168 1.58-.279 2.667s-1.355 1.444-2.724 1.072c-1.363-.372-2.381-.741-3.054-1.107l-2.35-1.464-2.593-1.604-2.489-1.447-2.28-1.307c-.69-.366-1.427-.671-2.21-.915s-1.764-.363-2.942-.358l-3.185.175-3.133.479-2.071.331a2.17 2.17 0 0 1-.696-.113c-.226-.076-.435-.186-.627-.331-.185-.146-.348-.317-.487-.514-.133-.192-.232-.404-.296-.637a2.22 2.22 0 0 1-.078-.706 2.02 2.02 0 0 1 .157-.688c.087-.221.206-.422.356-.602a2.16 2.16 0 0 1 .54-.462 2.19 2.19 0 0 1 .653-.261 2.22 2.22 0 0 1 .704-.044 2.26 2.26 0 0 1 .679.192c.221.099.418.23.592.392.168.163.31.352.426.567a2.23 2.23 0 0 1 .227.662c.034.238.034.474 0 .706-.041.238-.116.462-.227.671a2.05 2.05 0 0 1-.426.567c-.174.163-.368.296-.583.401a2.27 2.27 0 0 1-.679.192c-.238.023-.473.008-.705-.044a1.93 1.93 0 0 1-.652-.262 2.04 2.04 0 0 1-.54-.453c-.157-.18-.278-.38-.365-.601a2.42 2.42 0 0 1-.157-.697c-.012-.239.014-.471.078-.698a2.2 2.2 0 0 1 .296-.645 2.18 2.18 0 0 1 .487-.514 2.05 2.05 0 0 1 .618-.331l.34-.113 1.766-.253 3.42-.549c1.103-.204 2.135-.323 3.098-.358.958-.04 1.749-.017 2.376.07.621.093 1.471.387 2.55.88l2.706 1.351 2.245 1.308 2.559 1.377 2.715 1.438c.864.488 1.743 1.156 2.637 2.005s1.125 1.542.679 2.083-.758.511-.932-.087c-.179-.599-.586-1.619-1.218-3.06-.638-1.447-1.221-2.487-1.749-3.12s-1.131-1.133-1.81-1.499l-2.419-1.168-2.655-1.037c-.835-.273-1.659-.419-2.471-.436s-1.682.07-2.611.261l-1.627.314a1.81 1.81 0 0 1-.47-.026c-.157-.023-.307-.067-.453-.131a1.93 1.93 0 0 1-.409-.244c-.127-.093-.24-.2-.339-.322-.099-.128-.183-.265-.252-.41-.064-.139-.113-.287-.148-.444-.029-.157-.041-.314-.035-.471s.032-.311.078-.462a2.41 2.41 0 0 1 .183-.436 2.07 2.07 0 0 1 .287-.383c.11-.111.235-.209.374-.297a2.22 2.22 0 0 1 .427-.2l.226-.07zm-13.375 24.867l-1.245-.636c-.835-.418-1.734-.761-2.697-1.028l-3.151-.846-3.55-.88-3.272-.706-3.377-.741c-1.299-.32-2.338-.648-3.115-.985-.778-.343-1.512-.915-2.202-1.717l-1.131-1.429-.209-.48c-.076-.168-.131-.343-.165-.523a2.14 2.14 0 0 1-.035-.549c.011-.186.043-.369.095-.549.053-.174.128-.34.227-.497a1.92 1.92 0 0 1 .339-.435c.128-.134.273-.25.435-.349.157-.093.322-.169.496-.227a2.57 2.57 0 0 1 .549-.096 2.54 2.54 0 0 1 .548.027c.18.034.354.09.522.165.174.076.334.172.479.288.145.11.275.238.391.383.11.151.29.512.54 1.081s.594 1.217 1.035 1.961l1.462 2.397a15.31 15.31 0 0 0 1.741 2.292c.62.669 1.264 1.279 1.932 1.831l2.088 1.569 2.054 1.324 2.515 1.369c1.033.529 1.903.839 2.611.932s1.398.137 2.071.131 1.201-.38 1.566-1.124l.749-1.482a2.54 2.54 0 0 1 .504-.662c.198-.198.421-.355.67-.471a2.6 2.6 0 0 1 .801-.235 2.7 2.7 0 0 1 .835.043 2.54 2.54 0 0 1 .775.305c.238.14.45.317.635.532a2.79 2.79 0 0 1 .435.715c.105.261.166.531.183.81s-.012.555-.087.828-.191.526-.348.759a2.46 2.46 0 0 1-.566.61c-.22.168-.464.299-.731.392s-.539.139-.818.139a2.62 2.62 0 0 1-.818-.13 2.54 2.54 0 0 1-.739-.384 2.53 2.53 0 0 1-.566-.601c-.163-.233-.281-.486-.357-.759-.075-.267-.107-.54-.096-.819.018-.285.076-.558.174-.819a2.63 2.63 0 0 1 .427-.715c.174-.215.38-.395.618-.54s.502-.25.774-.314a2.47 2.47 0 0 1 .827-.052 2.55 2.55 0 0 1 .801.218 2.66 2.66 0 0 1 .696.461 2.56 2.56 0 0 1 .504.663 2.44 2.44 0 0 1 .27.784 2.67 2.67 0 0 1 .009.837l-.07.41-1.575 2.344c-1.044 1.558-2.068 2.476-3.072 2.755s-1.943.374-2.802.287l-2.202-.322c-.615-.128-1.447-.462-2.497-1.003l-2.445-1.351-1.854-1.194-2.237-1.508-2.41-1.804-2.393-2.161c-.818-.802-1.549-1.63-2.193-2.484-.638-.86-1.332-1.947-2.08-3.26l-1.227-2.223c-.076-.168-.131-.343-.165-.523a2.14 2.14 0 0 1-.035-.549c.011-.186.043-.369.095-.549.053-.174.128-.34.227-.497a1.92 1.92 0 0 1 .339-.435c.128-.134.273-.25.435-.349.157-.093.322-.169.496-.227a2.57 2.57 0 0 1 .549-.096 2.54 2.54 0 0 1 .548.027c.18.034.354.09.522.165.174.076.334.172.479.288.145.11.275.238.391.383.11.151.25.456.418.915.168.465.519.933 1.053 1.404s1.325.929 2.358 1.359 2.016.756 2.95.977l3.298.636 3.681.627 3.655.733c1.248.278 2.292.627 3.133 1.045l1.454.759a1.8 1.8 0 0 1 .356.305 2.05 2.05 0 0 1 .27.375 1.94 1.94 0 0 1 .174.435c.041.151.064.305.07.462 0 .151-.015.302-.044.454a1.73 1.73 0 0 1-.165.444 2.18 2.18 0 0 1-.252.392c-.105.117-.221.221-.349.314-.121.093-.258.169-.409.227a2.07 2.07 0 0 1-.443.122 1.75 1.75 0 0 1-.462.008c-.156-.017-.307-.052-.452-.104l-.226-.079zm-65.951-42.283l.617-2.816c.418-1.882 1.175-3.463 2.272-4.741 1.102-1.284 2.381-2.269 3.837-2.955 1.457-.68 3.04-1.098 4.752-1.255 1.711-.151 3.484-.122 5.317.087s3.849.587 6.048 1.133l7.267 1.839 8.014 1.927 7.154 1.682 5.447 1.394 4.63 1.273 4.83 1.299 5.395 1.412 5.552 1.464 5.126 1.29 4.22 1.133 3.342.906 2.915.776a30.96 30.96 0 0 1 3.038 1.116l3.524 1.394 3.725 1.273 3.62 1.237 3.663 1.317 3.446 1.08 2.994.985 2.95 1.168a27.02 27.02 0 0 1 3.098 1.508l2.628 1.499c.691.413 1.271.843 1.741 1.29s.855 1.037 1.14 1.787.31 1.624.061 2.606-.517 1.804-.818 2.467l-.975 1.961c-.354.645-1.366 1.377-3.037 2.196-1.677.819-2.643 1.229-2.898 1.229a2.31 2.31 0 0 1-.748-.105 2.36 2.36 0 0 1-.67-.348 2.55 2.55 0 0 1-.531-.532 2.27 2.27 0 0 1-.322-.68c-.076-.25-.108-.499-.096-.749.012-.256.061-.503.148-.741a2.39 2.39 0 0 1 .383-.654c.156-.197.345-.366.565-.505s.447-.23.697-.288c.243-.058.493-.076.748-.052a2.3 2.3 0 0 1 .731.191 2.39 2.39 0 0 1 .627.41c.191.174.348.372.47.593s.206.465.252.714.049.503.009.759a2.23 2.23 0 0 1-.227.714 2.45 2.45 0 0 1-.443.611c-.186.18-.392.325-.618.435-.232.111-.473.18-.723.21a2.21 2.21 0 0 1-.757-.027 2.36 2.36 0 0 1-.705-.27c-.22-.128-.414-.287-.583-.479a2.35 2.35 0 0 1-.4-.636c-.093-.239-.151-.486-.174-.741a2.36 2.36 0 0 1 .07-.75c.063-.244.165-.473.304-.688s.311-.401.514-.558a2.45 2.45 0 0 1 .661-.366l.357-.122 1.34-.419a3.66 3.66 0 0 0 2.089-1.595c.493-.784.791-1.592.896-2.423.098-.836-.125-1.479-.67-1.926s-1.3-.938-2.263-1.473c-.957-.535-1.949-1.017-2.976-1.447l-2.776-1.255c-.824-.412-1.767-.787-2.828-1.124l-3.49-1.159-3.637-1.238-3.638-1.159-3.881-1.221-3.568-1.307-2.828-1.177-2.785-1.002-3.281-1.002-4.177-1.125-5.152-1.29-5.552-1.464-5.413-1.421-4.838-1.289-4.586-1.256-5.413-1.377-7.162-1.673-8.05-1.918-7.11-1.786c-2.1-.523-3.991-.884-5.673-1.081s-3.249-.238-4.7-.14c-1.45.105-2.764.413-3.942.924a9.27 9.27 0 0 0-3.089 2.171c-.882.936-1.497 2.318-1.845 4.148l-.583 2.894a1.38 1.38 0 0 1-.34.549 1.33 1.33 0 0 1-.261.192c-.098.052-.2.096-.304.131a1.2 1.2 0 0 1-.322.043 1.18 1.18 0 0 1-.313-.026.97.97 0 0 1-.305-.105 1.38 1.38 0 0 1-.279-.174 1.8 1.8 0 0 1-.226-.235c-.064-.087-.116-.18-.156-.279a1.13 1.13 0 0 1-.096-.314 1.15 1.15 0 0 1-.009-.314l.018-.165zm101.092 8.657l-1.645-2.536-3.568-5.474-3.394-5.134c-.98-1.475-1.975-2.733-2.985-3.774l-1.688-1.751a1.45 1.45 0 0 1-.278-.419c-.07-.157-.113-.319-.131-.488a1.46 1.46 0 0 1 .035-.505 1.41 1.41 0 0 1 .191-.462c.087-.146.198-.273.331-.384a1.68 1.68 0 0 1 .427-.253 1.48 1.48 0 0 1 .496-.104c.168-.006.333.014.496.061s.313.119.452.218a1.32 1.32 0 0 1 .366.348 1.45 1.45 0 0 1 .304.942c0 .174-.029.34-.087.496a1.41 1.41 0 0 1-.235.445 1.55 1.55 0 0 1-.365.34c-.145.093-.299.163-.462.209a1.44 1.44 0 0 1-.504.052 1.55 1.55 0 0 1-.488-.113 1.45 1.45 0 0 1-.426-.27c-.128-.111-.235-.238-.322-.384s-.148-.302-.183-.47a1.64 1.64 0 0 1-.026-.506 1.54 1.54 0 0 1 .148-.479c.07-.157.163-.297.279-.419a1.56 1.56 0 0 1 .409-.296 1.4 1.4 0 0 1 .478-.157c.168-.023.334-.02.496.009a1.55 1.55 0 0 1 .479.166l.226.122 1.714 1.995 3.273 4.158 3.585 5.003 3.838 5.282 1.897 2.632a1.82 1.82 0 0 1 .156.418c.035.146.053.291.053.436s-.018.291-.053.436c-.034.139-.087.276-.156.41a1.82 1.82 0 0 1-.253.366 1.73 1.73 0 0 1-.33.287 1.7 1.7 0 0 1-.392.209 1.77 1.77 0 0 1-.426.105 1.86 1.86 0 0 1-.435 0c-.146-.017-.288-.052-.427-.105s-.27-.119-.391-.2a1.99 1.99 0 0 1-.331-.296l-.148-.166zm-75.678-22.277l2.332-1.263c1.561-.849 3.31-1.683 5.247-2.502l5.187-2.1 3.812-1.473 2.837-1.116 1.557-.558c.169-.029.337-.029.505 0a1.55 1.55 0 0 1 .479.166c.151.081.287.186.409.314.116.122.209.261.278.418s.113.32.131.488c.017.174.008.346-.026.514a1.68 1.68 0 0 1-.192.471 1.74 1.74 0 0 1-.331.383c-.133.111-.278.198-.435.262-.162.058-.327.093-.496.105a1.63 1.63 0 0 1-.504-.062c-.169-.046-.322-.119-.462-.217a1.46 1.46 0 0 1-.365-.349c-.105-.139-.183-.291-.235-.453a1.33 1.33 0 0 1-.078-.497c0-.174.026-.343.078-.506.058-.162.139-.31.244-.444a1.41 1.41 0 0 1 .374-.349 1.33 1.33 0 0 1 .461-.209 1.47 1.47 0 0 1 .505-.052c.168.011.333.049.496.113.156.064.301.151.435.262.128.11.235.241.322.392.087.145.148.302.183.47a1.69 1.69 0 0 1 .026.506 1.48 1.48 0 0 1-.14.497 1.84 1.84 0 0 1-.287.418c-.116.122-.252.224-.409.305l-.226.113-1.288.34a30.93 30.93 0 0 0-2.811.898l-3.724 1.508-4.891 2.205a47.64 47.64 0 0 0-4.952 2.667l-2.454 1.508a2.02 2.02 0 0 1-.409.113c-.139.029-.278.038-.417.027-.145-.012-.285-.041-.418-.088a1.82 1.82 0 0 1-.392-.183c-.122-.075-.232-.165-.33-.27-.099-.099-.186-.212-.261-.34a1.82 1.82 0 0 1-.166-.392 1.74 1.74 0 0 1-.069-.418c-.006-.14.005-.279.034-.419s.073-.282.131-.409a2.39 2.39 0 0 1 .226-.366c.093-.111.195-.21.305-.297l.174-.131z"/><path d="M176.586 167.077l2.872.07c1.915.041 3.992.273 6.231.697l7.066 1.595 7.423 1.648 6.344 1.098 5.082.575 2.681.244c.151.047.29.114.417.201a1.27 1.27 0 0 1 .34.322c.093.122.162.259.209.41a1.33 1.33 0 0 1 .078.453c-.006.157-.032.311-.078.462a1.67 1.67 0 0 1-.218.41c-.099.122-.212.226-.339.313-.134.088-.276.151-.427.192a1.34 1.34 0 0 1-.452.044 1.35 1.35 0 0 1-.453-.096c-.145-.064-.278-.145-.4-.244a1.59 1.59 0 0 1-.296-.358 1.28 1.28 0 0 1-.165-.427c-.035-.156-.044-.31-.026-.462s.061-.308.13-.453c.064-.139.151-.264.261-.375s.232-.209.366-.278a1.34 1.34 0 0 1 .444-.149 1.55 1.55 0 0 1 .461 0c.156.029.301.082.435.157s.261.169.365.279a1.36 1.36 0 0 1 .261.384 1.52 1.52 0 0 1 .122.453c.018.151.009.305-.026.462-.035.151-.093.293-.174.427s-.183.25-.304.349a1.57 1.57 0 0 1-.401.235 1.35 1.35 0 0 1-.452.096l-.235.017-2.463-.392-5.143-.75-6.492-1.028-7.449-1.534-6.744-1.386c-2.077-.343-4.073-.494-5.988-.453l-3.054.043a1.37 1.37 0 0 1-.383-.087 2.4 2.4 0 0 1-.348-.183 1.57 1.57 0 0 1-.296-.261c-.087-.099-.16-.209-.218-.331s-.11-.239-.139-.367c-.035-.127-.052-.255-.052-.383a1.45 1.45 0 0 1 .052-.384c.029-.127.076-.252.139-.374a1.49 1.49 0 0 1 .218-.323 1.57 1.57 0 0 1 .296-.261 2.4 2.4 0 0 1 .348-.183 1.37 1.37 0 0 1 .383-.087l.191-.027zm-11.013 12.286l1.462-.811 2.846-1.673 1.679-.985a2.29 2.29 0 0 1 .618-.122 2.13 2.13 0 0 1 .635.078 2.06 2.06 0 0 1 .566.279 1.95 1.95 0 0 1 .453.445c.121.174.214.363.278.566.07.204.102.413.096.628a2.04 2.04 0 0 1-.113.619c-.076.203-.18.389-.314.558-.127.168-.281.31-.461.427s-.374.2-.583.252a2.02 2.02 0 0 1-.627.061 2.01 2.01 0 0 1-.617-.148 1.98 1.98 0 0 1-.531-.34c-.163-.139-.296-.302-.401-.488a1.98 1.98 0 0 1-.226-.592 1.97 1.97 0 0 1-.017-.637 1.92 1.92 0 0 1 .174-.61 1.9 1.9 0 0 1 .365-.514 2.05 2.05 0 0 1 .514-.375 2.19 2.19 0 0 1 .6-.192c.215-.029.427-.023.636.018a1.79 1.79 0 0 1 .591.209 1.82 1.82 0 0 1 .496.392c.145.163.261.34.348.532a1.9 1.9 0 0 1 .157.619c.017.209.003.418-.043.627a1.95 1.95 0 0 1-.253.584 1.92 1.92 0 0 1-.418.48l-.243.2-1.41.741-2.82 1.656-1.618 1.011a1.78 1.78 0 0 1-.453.148 2.55 2.55 0 0 1-.47.026 2.17 2.17 0 0 1-.47-.087 2.21 2.21 0 0 1-.426-.2 1.68 1.68 0 0 1-.374-.297c-.116-.11-.215-.235-.296-.374a1.93 1.93 0 0 1-.191-.436c-.047-.151-.076-.308-.088-.471-.005-.151.006-.305.035-.462s.076-.308.14-.453a2 2 0 0 1 .252-.41 2.25 2.25 0 0 1 .331-.331l.191-.148z"/><path d="M137.261 202.965l2.01-2.388c1.34-1.598 3.385-3.518 6.135-5.761 2.756-2.249 5.576-3.78 8.459-4.593 2.878-.82 5.836-1.485 8.876-1.996s6.179-.767 9.416-.767c3.243.005 6.518.316 9.825.932l8.99 1.9 8.919 2.423c3.261.965 6.313 1.639 9.155 2.022l8.006 1.439 7.702 1.996c2.645.755 5.297 2.286 7.954 4.593 2.663 2.307 4.299 4.68 4.908 7.121s.537 5.122-.218 8.027-2.045 5.41-3.872 7.513-3.983 3.58-6.466 4.428c-2.489.848-5.369 1.328-8.641 1.438-3.272.116-6.402.102-9.39-.044l-8.502-.775-8.233-1.281-8.493-1.683-7.954-1.699-7.728-1.691-7.823-1.456c-2.518-.343-5.422-1.101-8.711-2.275-3.29-1.168-5.871-2.678-7.745-4.532-1.88-1.853-3.359-4.401-4.438-7.644-1.074-3.248-.812-3.698.783-1.351 1.601 2.348 1.642 2.845.122 1.491s-2.524-2.496-3.011-3.426c-.493-.935-.868-1.914-1.123-2.937a13.21 13.21 0 0 1-.374-3.12c-.006-1.058.119-2.098.374-3.12.25-1.029.618-2.011 1.105-2.946s1.079-1.799 1.776-2.589a13.13 13.13 0 0 1 2.349-2.083 12.61 12.61 0 0 1 2.768-1.464 12.84 12.84 0 0 1 3.045-.759 12.9 12.9 0 0 1 3.142 0c1.044.122 2.059.369 3.046.741.986.378 1.914.866 2.784 1.464s1.648 1.29 2.35 2.075c.702.79-.748.238-4.351-1.656-3.603-1.9-4.035-2.865-1.297-2.894s5.61.215 8.633.732 6.443 1.29 10.26 2.319l9.99 2.588 8.302 2.014a89.72 89.72 0 0 1 7.954 2.274 91.73 91.73 0 0 1 7.51 2.877l7.815 3.774c2.814 1.47 5.329 3.062 7.545 4.776a45.57 45.57 0 0 1 6.178 5.718c1.898 2.115 3.365 4.904 4.404 8.367 1.038 3.457 1.473 6.572 1.305 9.343-.162 2.772-1.044 5.172-2.645 7.2s-3.618 3.762-6.048 5.203-5.17 2.083-8.215 1.926-6.521-.862-10.426-2.118-7.62-2.298-11.147-3.111l-9.077-1.909-8.911-1.56-9.668-1.743-9.277-2.179-8.459-2.606-5.639-2.101c-1.276-.523-2.352-1.066-3.228-1.63s-1.674-1.232-2.393-1.987a13.04 13.04 0 0 1-1.845-2.51c-.517-.907-.914-1.862-1.193-2.868a12.85 12.85 0 0 1-.478-3.076c-.029-1.046.064-2.081.278-3.103.221-1.017.557-1.996 1.01-2.938a12.72 12.72 0 0 1 1.679-2.606 12.54 12.54 0 0 1 2.263-2.135 12.62 12.62 0 0 1 2.698-1.534c.963-.407 1.958-.689 2.985-.845a12.92 12.92 0 0 1 3.106-.096c1.039.093 2.051.308 3.037.645s.215.311-2.314-.079-1.317-.735 3.637-1.037 8.995-.334 12.122-.096l9.416.846 8.65.81a217.57 217.57 0 0 1 7.832.785l9.103.758 9.581.593a161.66 161.66 0 0 0 8.424.392c2.698.052 5.349.482 7.954 1.29 2.611.813 4.952 2.263 7.023 4.349 2.065 2.086 3.327 4.39 3.785 6.912.459 2.516.496 4.68.113 6.493s-.789 3.344-1.218 4.593a11.78 11.78 0 0 1-1.845 3.443c-.8 1.046-1.749 1.938-2.845 2.676-1.091.738-2.272 1.281-3.542 1.63a12.18 12.18 0 0 1-3.881.401 11.96 11.96 0 0 1-3.812-.854c-1.224-.494-2.335-1.171-3.333-2.031a11.94 11.94 0 0 1-2.515-2.99c-.673-1.139-1.149-2.353-1.427-3.643s-.343-2.592-.192-3.905c.145-1.313.499-2.565 1.062-3.756.557-1.197 1.291-2.272 2.202-3.225a11.78 11.78 0 0 1 3.124-2.353 11.75 11.75 0 0 1 3.698-1.229 11.89 11.89 0 0 1 3.908.017c1.299.221 2.529.642 3.689 1.264s2.193 1.415 3.098 2.379a12.21 12.21 0 0 1 2.176 3.243 12.01 12.01 0 0 1 1.018 3.774c.139 1.313.064 2.614-.226 3.904a12.13 12.13 0 0 1-1.462 3.626 11.98 11.98 0 0 1-2.541 2.964c-1.01.848-2.126 1.513-3.351 1.995a11.79 11.79 0 0 1-3.82.828 11.93 11.93 0 0 1-3.872-.444 11.98 11.98 0 0 1-3.534-1.656 12 12 0 0 1-2.819-2.702c-.795-1.058-1.401-2.211-1.819-3.46a12.12 12.12 0 0 1-.609-3.861l.009-1.979.531-1.76c.348-1.168.905-.218 1.67 2.85s-.092 4.514-2.575 4.34l-8.416-.706-11.147-.906c-4.305-.314-7.789-.497-10.452-.549l-8.476-.105c-2.993-.017-5.784-.006-8.371.035s-5.663.218-9.242.532-6.808.31-9.686-.009c-2.877-.326-4.754-.77-5.63-1.334s-1.674-1.232-2.393-1.987c-.714-.761-1.329-1.595-1.845-2.501-.517-.913-.914-1.871-1.193-2.877a12.85 12.85 0 0 1-.478-3.076 13.26 13.26 0 0 1 .278-3.095 12.64 12.64 0 0 1 1.01-2.946 12.72 12.72 0 0 1 1.679-2.606 12.54 12.54 0 0 1 2.263-2.135 12.62 12.62 0 0 1 2.698-1.534c.963-.401 1.958-.683 2.985-.845a12.92 12.92 0 0 1 3.106-.096c1.039.093 2.051.308 3.037.645s2.167.886 3.542 1.647c1.369.761 3.455 1.493 6.257 2.196l7.858 1.9c2.443.558 5.228 1.131 8.355 1.718l8.58 1.464 7.823 1.29c2.623.453 5.648 1.075 9.077 1.865 3.423.796 5.697 2.318 6.822 4.567 1.132 2.249 1.111 4.556-.06 6.921s-2.858 2.76-5.056 1.185c-2.193-1.569-4.636-2.952-7.328-4.149-2.698-1.191-5.627-2.246-8.789-3.164l-9.477-2.667c-3.156-.866-5.996-1.575-8.519-2.127a154.14 154.14 0 0 1-7.92-1.969c-2.755-.762-5.421-1.206-7.997-1.334-2.57-.122-5.935-1.113-10.095-2.972s-6.483-3.254-6.97-4.184a12.73 12.73 0 0 1-1.114-2.937c-.255-1.028-.383-2.068-.383-3.12-.006-1.058.119-2.098.374-3.12.25-1.029.618-2.011 1.105-2.946s1.079-1.799 1.776-2.589a13.13 13.13 0 0 1 2.349-2.083 12.61 12.61 0 0 1 2.768-1.464 12.84 12.84 0 0 1 3.045-.759 13.21 13.21 0 0 1 3.142-.008c1.044.127 2.059.377 3.046.749.986.378 1.914.866 2.784 1.464.865.593 1.648 1.285 2.35 2.075.696.79.45.653-.74-.41s-.29-.058 2.698 3.016c2.982 3.074 5.802 4.82 8.459 5.238s5.415.997 8.276 1.735c2.866.738 5.938 1.452 9.215 2.144l8.929 1.769 8.989 1.543c3.319.528 6.214 1.063 8.685 1.603s3.116 1.898 1.932 4.088c-1.177 2.197-1.36 4.492-.548 6.886.806 2.388-.026 3.262-2.498 2.623s-5.148-1.243-8.014-1.813c-2.866-.575-5.964-1.4-9.294-2.475l-8.72-2.937c-2.477-.878-5.198-1.729-8.163-2.554-2.965-.819-5.764-1.316-8.398-1.49-2.639-.163-5.688.066-9.146.688-3.452.634-5.914 1.688-7.388 3.164-1.468 1.476-2.48 2.449-3.037 2.92a8.74 8.74 0 0 1-1.802 1.203 8.82 8.82 0 0 1-2.036.741c-.713.162-1.43.235-2.149.217-.726-.011-1.442-.11-2.15-.296a8.95 8.95 0 0 1-2.01-.802c-.638-.348-1.227-.77-1.767-1.264-.533-.493-1.003-1.043-1.409-1.647a9.31 9.31 0 0 1-.975-1.944c-.244-.685-.403-1.388-.479-2.109s-.063-1.441.035-2.161a8.7 8.7 0 0 1 .557-2.101c.267-.68.612-1.316 1.036-1.909l.635-.889z" fill-opacity=".1"/><path d="M135.253 202.704l1.915-2.205c1.282-1.47 3.307-3.164 6.074-5.082s5.981-3.265 9.642-4.044 7.487-1.258 11.479-1.421 7.425-.087 10.303.244l8.015 1.064a135.8 135.8 0 0 1 7.353 1.351l8.085 1.481 8.833 1.561a81.26 81.26 0 0 1 8.65 2.187l8.075 2.449c2.559.756 4.984 1.688 7.276 2.798l3.585 1.848c.099.122.525.517 1.279 1.185a12.22 12.22 0 0 1 1.993 2.24c.568.82 1.033 1.7 1.392 2.641s.601 1.903.723 2.903.121 1.999 0 2.998-.351 1.97-.705 2.911-.815 1.828-1.384 2.658c-.574.826-1.236 1.572-1.984 2.24a12.23 12.23 0 0 1-2.463 1.709 12.06 12.06 0 0 1-2.793 1.063 12.18 12.18 0 0 1-2.968.366 12.15 12.15 0 0 1-2.967-.348 12.75 12.75 0 0 1-2.802-1.064c-.888-.465.577-.459 4.394.018s4.438.993 1.88 1.551-5.282.915-8.171 1.072c-2.884.151-6.226.015-10.026-.409-3.805-.43-7.962-1.186-12.47-2.267s-8.238-2.065-11.191-2.954c-2.947-.884-5.738-1.662-8.372-2.336s-5.543-1.244-8.711-1.709a108.51 108.51 0 0 1-9.085-1.699c-2.889-.674-5.836-1.522-8.841-2.545s-5.967-2.548-8.903-4.576c-2.93-2.022-4.566-5.035-4.908-9.038-.337-3.998.902-7.662 3.716-10.991s5.775-5.044 8.885-5.16c3.11-.11 6.326.183 9.651.88 3.33.692 6.28 1.177 8.85 1.456l5.352.549c1.004.093 2.193.279 3.568.558a12.74 12.74 0 0 1 3.872 1.473c1.213.703 2.283 1.583 3.212 2.641a12.86 12.86 0 0 1 2.193 3.53c.539 1.295.858 2.643.957 4.044s-.029 2.78-.383 4.14a12.95 12.95 0 0 1-1.68 3.8c-.771 1.168-1.708 2.185-2.811 3.051s-2.314 1.534-3.637 2.004a12.65 12.65 0 0 1-4.081.741 12.93 12.93 0 0 1-4.108-.61 12.88 12.88 0 0 1-3.698-1.891 12.86 12.86 0 0 1-2.898-2.964 12.72 12.72 0 0 1-1.802-3.739c-.394-1.348-.565-2.725-.513-4.131.052-1.401.328-2.757.827-4.071s1.195-2.51 2.088-3.591c.888-1.086 1.926-2.001 3.116-2.745a12.59 12.59 0 0 1 3.829-1.595c1.363-.325 2.744-.424 4.142-.296 1.398.133 2.738.485 4.02 1.054 1.277.57 2.431 1.328 3.464 2.275a12.95 12.95 0 0 1 2.567 3.269 12.91 12.91 0 0 1 1.384 3.922 12.83 12.83 0 0 1 .069 4.157c-.209 1.389-.629 2.708-1.261 3.957-.639 1.244-1.46 2.356-2.463 3.338a12.79 12.79 0 0 1-3.403 2.389 12.51 12.51 0 0 1-3.977 1.168l-2.088.261a2195.95 2195.95 0 0 0-3.116-.227c-2.083-.151-4.441-.476-7.075-.976s-5.436-1.127-8.406-1.882-3.429-2.589-1.375-5.5c2.054-2.917 3.307-5.942 3.759-9.073.459-3.138 2.199-4.332 5.222-3.583 3.016.756 5.9 1.331 8.65 1.726a110.4 110.4 0 0 1 8.197 1.499c2.715.604 5.549 1.345 8.502 2.223l8.79 2.527c2.912.808 6.062 1.456 9.45 1.944a134.32 134.32 0 0 0 9.86 1.046l11.296.654c4.345.215 6.895.656 7.649 1.324a12.37 12.37 0 0 1 1.993 2.232 12.6 12.6 0 0 1 1.392 2.641c.36.941.601 1.911.723 2.911s.121 1.999 0 2.998-.351 1.97-.705 2.911a12.24 12.24 0 0 1-1.384 2.65 12.2 12.2 0 0 1-1.984 2.248 12.34 12.34 0 0 1-2.454 1.709 12.25 12.25 0 0 1-2.802 1.063 12.18 12.18 0 0 1-2.968.366 12.15 12.15 0 0 1-2.967-.348 12.22 12.22 0 0 1-2.802-1.064c-.888-.465-1.042-.633-.462-.505.586.128-.293-.323-2.636-1.351-2.338-1.035-5.178-2.089-8.52-3.164-3.336-1.075-6.228-1.906-8.676-2.493a257.11 257.11 0 0 0-8.25-1.839c-3.052-.639-6.466-1.485-10.243-2.536-3.771-1.052-7.182-1.86-10.233-2.423s-5.811-.924-8.276-1.099c-2.466-.168-5.039-.142-7.719.079-2.675.227-4.714 1.014-6.118 2.362-1.404 1.342-2.393 2.252-2.967 2.728a9.18 9.18 0 0 1-1.863 1.185c-.673.32-1.372.555-2.097.706a9.4 9.4 0 0 1-2.202.192c-.742-.029-1.47-.145-2.184-.349-.714-.209-1.392-.496-2.036-.862a9.46 9.46 0 0 1-1.776-1.325 9.07 9.07 0 0 1-1.401-1.717c-.4-.628-.719-1.293-.957-1.996-.238-.709-.389-1.432-.452-2.17-.058-.738-.029-1.476.087-2.214a9.1 9.1 0 0 1 .609-2.127 9.4 9.4 0 0 1 1.096-1.926l.67-.889z" fill-opacity=".1"/><path d="M130.105 273.823l.575-2.572c.383-1.714.661-3.701.835-5.961l.209-6.25-.139-4.288c-.064-.959-.07-2.121-.018-3.486l.157-2.301c.058-.169.136-.323.235-.462.11-.145.238-.27.383-.375a1.74 1.74 0 0 1 .478-.227 1.79 1.79 0 0 1 .523-.061c.179.006.351.044.513.114.168.064.319.151.453.261a1.64 1.64 0 0 1 .348.401 1.67 1.67 0 0 1 .2.488c.04.175.052.352.035.532a1.71 1.71 0 0 1-.131.505c-.075.163-.174.311-.296.445-.122.128-.261.235-.418.322a1.51 1.51 0 0 1-.496.175c-.174.029-.351.032-.53.008s-.34-.084-.496-.165a1.54 1.54 0 0 1-.427-.314c-.116-.128-.215-.273-.296-.436a1.56 1.56 0 0 1-.139-.505c-.023-.18-.017-.358.017-.532a1.58 1.58 0 0 1 .192-.497c.087-.151.197-.284.331-.401a1.69 1.69 0 0 1 .443-.279 1.67 1.67 0 0 1 .523-.122 1.6 1.6 0 0 1 .522.053 1.54 1.54 0 0 1 .478.218 1.61 1.61 0 0 1 .392.357c.11.145.194.302.252.471a1.57 1.57 0 0 1 .087.514v.27l-.182 1.743-.192 3.182.148 4.436.017 6.598-.53 6.214-.453 2.816c-.046.145-.107.281-.183.409s-.168.247-.278.358c-.105.104-.221.194-.348.27-.134.081-.27.142-.409.183-.145.046-.293.075-.444.087-.145.006-.29-.006-.435-.035-.151-.023-.293-.067-.427-.131a1.83 1.83 0 0 1-.382-.235 1.81 1.81 0 0 1-.322-.314c-.093-.122-.169-.25-.227-.383-.064-.14-.11-.282-.139-.427a2.32 2.32 0 0 1-.026-.445l.017-.226zm-.109-31.849l-1.21-.907-2.106-1.586c-.597-.453-1.232-1.026-1.905-1.717l-1.671-1.822a9.58 9.58 0 0 0-1.523-1.455c-.575-.436-1.401-.68-2.48-.732-1.085-.053-1.819.191-2.202.732-.377.546-1.21 1.45-2.498 2.71s-2.062 1.932-2.323 2.014c-.267.087-.54.131-.818.131-.279-.006-.548-.056-.809-.149a2.64 2.64 0 0 1-.723-.392c-.22-.168-.406-.369-.557-.601s-.264-.483-.339-.75a2.59 2.59 0 0 1-.078-.819c.017-.279.078-.546.182-.802.111-.261.256-.497.435-.706s.392-.383.636-.523c.238-.139.493-.238.766-.296a2.42 2.42 0 0 1 .818-.035c.278.035.542.11.791.227s.473.278.671.47a2.43 2.43 0 0 1 .496.663 2.46 2.46 0 0 1 .252.784 2.56 2.56 0 0 1-.009.819c-.046.273-.136.532-.27.776s-.301.462-.504.654a2.6 2.6 0 0 1-.688.453c-.255.116-.519.186-.792.209-.278.029-.554.012-.826-.052a2.61 2.61 0 0 1-.757-.314c-.238-.145-.444-.325-.618-.54a2.51 2.51 0 0 1-.418-.706c-.099-.262-.154-.532-.165-.811s.02-.552.095-.819.195-.514.357-.741a2.61 2.61 0 0 1 .566-.593l.339-.244 1.14-1.15 2.254-2.415c.748-.848 1.578-1.444 2.489-1.786s1.735-.509 2.471-.497c.743.006 1.625.119 2.646.34s1.906.546 2.654.976c.754.436 1.329.906 1.723 1.412l1.262 1.586 1.218 1.621c.372.529.804 1.003 1.297 1.421.493.424 1.163.907 2.01 1.447l1.48 1.002a2.14 2.14 0 0 1 .356.401c.105.151.189.311.253.48a2.02 2.02 0 0 1 .122.523 2.05 2.05 0 0 1 0 .531 2.33 2.33 0 0 1-.131.523 2.27 2.27 0 0 1-.252.48 2.13 2.13 0 0 1-.357.4 2.41 2.41 0 0 1-.444.306c-.157.081-.322.145-.496.191-.18.041-.357.061-.531.061-.18 0-.357-.02-.531-.061a2.22 2.22 0 0 1-.504-.191l-.244-.131z"/><path d="M108.075 236.894l.044-1.918-.027-3.068a7.29 7.29 0 0 1 .201-2.266c.191-.755.487-1.461.887-2.118s.824-1.2 1.271-1.63c.452-.43 1.172-.982 2.158-1.656s1.801-1.13 2.445-1.368a10.71 10.71 0 0 1 1.993-.541c.685-.122 1.665-.142 2.942-.061s2.23.279 2.863.61a8.04 8.04 0 0 1 1.723 1.212c.516.471 1.264 1.331 2.245 2.58.986 1.249 1.523 2.01 1.61 2.283.093.273.139.555.139.846-.006.285-.055.563-.148.837s-.226.523-.4.749a2.68 2.68 0 0 1-.618.584 2.52 2.52 0 0 1-.775.357 2.56 2.56 0 0 1-.844.088c-.284-.018-.56-.082-.826-.192s-.508-.25-.723-.436c-.22-.192-.403-.41-.548-.654-.151-.249-.255-.514-.313-.793s-.073-.56-.044-.845c.035-.291.113-.564.235-.82a2.67 2.67 0 0 1 .479-.705c.197-.21.423-.381.679-.515a2.49 2.49 0 0 1 .8-.261 2.6 2.6 0 0 1 .853 0 2.42 2.42 0 0 1 .801.279 2.54 2.54 0 0 1 .678.514c.198.209.354.444.47.706.122.261.198.534.227.819s.011.57-.053.854a2.69 2.69 0 0 1-.313.785 2.68 2.68 0 0 1-.557.645c-.22.186-.464.331-.731.436a2.74 2.74 0 0 1-.827.183 2.81 2.81 0 0 1-.844-.096 2.75 2.75 0 0 1-.774-.366c-.232-.157-.435-.352-.609-.584l-.261-.34-.984-1.255c-.65-.837-1.247-1.502-1.792-1.996s-1.227-.721-2.045-.68-1.625.2-2.42.479c-.795.273-1.497.599-2.106.976-.615.372-1.14.828-1.575 1.369a2.86 2.86 0 0 0-.644 1.874c.006.709.087 1.699.244 2.972l.209 2.17a2.28 2.28 0 0 1-.096.523 2.42 2.42 0 0 1-.226.48 2.28 2.28 0 0 1-.331.418c-.128.122-.267.229-.418.322-.156.093-.319.163-.487.21-.168.052-.342.084-.522.095-.174.006-.348-.008-.522-.043a1.97 1.97 0 0 1-.505-.157c-.157-.076-.305-.169-.444-.279a2.6 2.6 0 0 1-.374-.383c-.11-.14-.2-.291-.27-.454s-.119-.334-.148-.514l-.052-.261z"/><path d="M124.838 227.101l-.191-1.238-.375-2.196c-.127-.634-.652-1.485-1.575-2.554s-1.758-1.894-2.506-2.475c-.754-.582-1.529-1.038-2.324-1.369-.794-.337-1.633-.494-2.514-.471s-1.416.018-1.602-.017-.365-.096-.539-.183a2.6 2.6 0 0 1-.488-.296c-.145-.122-.275-.259-.391-.41-.116-.157-.212-.322-.287-.497s-.131-.357-.166-.549c-.029-.186-.035-.375-.017-.566a2.23 2.23 0 0 1 .104-.558 2.66 2.66 0 0 1 .244-.523 2.44 2.44 0 0 1 .365-.445 2.46 2.46 0 0 1 .453-.34c.162-.098.336-.174.522-.226a2.58 2.58 0 0 1 .557-.096c.192-.006 1.12-.267 2.785-.785l4.099-1.15c1.067-.25 2.048-.386 2.941-.41s1.88.236 2.959.776c1.073.54 2.013 1.133 2.819 1.778.813.645 1.5 1.299 2.063 1.961s1.192 1.839 1.888 3.53l1.123 2.885c.046.238.055.479.026.723a2.44 2.44 0 0 1-.209.689c-.104.215-.244.41-.418.584-.168.174-.362.317-.583.427-.214.11-.444.183-.687.218a2.48 2.48 0 0 1-.714-.017 2.37 2.37 0 0 1-.679-.245 2.26 2.26 0 0 1-.565-.453 2.27 2.27 0 0 1-.392-.601 2.06 2.06 0 0 1-.174-.697c-.023-.244-.006-.486.052-.724.058-.232.151-.453.279-.662a2.49 2.49 0 0 1 .478-.541 2.41 2.41 0 0 1 .627-.357 2.4 2.4 0 0 1 .705-.139c.244-.006.481.026.713.095s.447.175.644.314c.198.145.369.314.514.506a2.1 2.1 0 0 1 .322.645c.075.232.11.47.104.714s-.049.48-.13.706c-.087.233-.206.445-.357.637-.151.186-.328.345-.531.479s-.423.23-.661.288a1.97 1.97 0 0 1-.714.061 2.19 2.19 0 0 1-.696-.166c-.226-.093-.429-.221-.609-.383a2.34 2.34 0 0 1-.453-.558l-.182-.323-.462-1.656c-.301-1.11-.647-2.031-1.035-2.763-.395-.726-.911-1.345-1.549-1.856-.627-.512-1.433-.979-2.42-1.403s-1.943-.503-2.871-.236c-.929.273-2.042.697-3.342 1.273s-2.422.982-3.368 1.22-1.511.34-1.697.305-.365-.096-.539-.183a2.6 2.6 0 0 1-.488-.296c-.145-.122-.275-.259-.391-.41-.116-.157-.212-.322-.287-.497s-.131-.357-.166-.549c-.029-.186-.035-.375-.017-.566a2.23 2.23 0 0 1 .104-.558 2.66 2.66 0 0 1 .244-.523 2.62 2.62 0 0 1 .357-.445c.139-.128.293-.241.461-.34.162-.098.336-.174.522-.226a2.47 2.47 0 0 1 .557-.096c.192-.006.603.035 1.236.122.626.087 1.488.305 2.584.654 1.097.354 1.944.726 2.541 1.115l2.385 1.613c.986.68 1.882 1.426 2.689 2.24a12.67 12.67 0 0 1 1.993 2.606c.528.924.847 1.74.957 2.449l.365 2.318.192 1.508c.006.163-.009.328-.044.497s-.09.331-.165.488c-.075.151-.168.294-.278.427-.105.134-.227.25-.366.349a2 2 0 0 1-.444.253 2.36 2.36 0 0 1-.496.139c-.168.023-.333.029-.496.017a1.98 1.98 0 0 1-.496-.113c-.162-.052-.316-.125-.461-.218a1.94 1.94 0 0 1-.392-.331c-.121-.122-.223-.259-.304-.41a1.87 1.87 0 0 1-.2-.47l-.07-.244z"/><path d="M130.676 221.105l.104-2.205.348-4 .375-3.121c.093-.883.493-1.873 1.201-2.972s1.525-1.589 2.454-1.473 1.847.706 2.758 1.77c.917 1.057 1.619 2.086 2.106 3.085s.85 1.976 1.088 2.929a21.19 21.19 0 0 1 .505 2.736l.278 3.417.079 2.458a1.92 1.92 0 0 1-.201.636c-.098.204-.229.384-.391.541a2.2 2.2 0 0 1-.54.383 2.05 2.05 0 0 1-.644.192c-.22.029-.441.023-.661-.018a2.21 2.21 0 0 1-.627-.235 2.02 2.02 0 0 1-.513-.427c-.151-.169-.27-.354-.357-.558a2.13 2.13 0 0 1-.157-.654c-.017-.226 0-.447.053-.662a2.08 2.08 0 0 1 .269-.61 1.95 1.95 0 0 1 .453-.497c.174-.139.368-.247.583-.322.209-.076.426-.117.653-.122a1.95 1.95 0 0 1 .661.096 1.86 1.86 0 0 1 .592.296 1.96 1.96 0 0 1 .47.479 2.21 2.21 0 0 1 .296.593c.063.221.09.442.078.662-.006.227-.049.448-.131.663a1.89 1.89 0 0 1-.33.575 2.05 2.05 0 0 1-.496.445c-.192.116-.398.203-.618.261-.215.052-.435.067-.662.044a1.9 1.9 0 0 1-.644-.166c-.208-.087-.394-.206-.556-.357a2.01 2.01 0 0 1-.418-.523 2.03 2.03 0 0 1-.226-.628l-.061-.34-.044-1.97-.113-3.05a20.09 20.09 0 0 0-.244-2.101c-.116-.685-.345-1.397-.687-2.135l-1.114-2.205c-.395-.732-.664-.671-.809.183l-.366 2.885c-.093 1.075-.104 2.347-.035 3.817l.079 2.432a1.75 1.75 0 0 1-.113.453 1.65 1.65 0 0 1-.218.41c-.087.128-.189.244-.305.349s-.243.191-.382.261c-.14.076-.285.131-.436.166s-.301.052-.452.052a2 2 0 0 1-.453-.052 1.72 1.72 0 0 1-.435-.166 1.75 1.75 0 0 1-.383-.261 1.94 1.94 0 0 1-.304-.349 1.62 1.62 0 0 1-.218-.41 1.71 1.71 0 0 1-.113-.453l-.026-.227z"/><path d="M140.32 225.597l.427-1.465c.278-.97.743-1.859 1.392-2.667.644-.807 1.607-1.293 2.889-1.455 1.283-.157 2.716.148 4.299.915l3.786 1.996c.946.563 1.688 1.092 2.228 1.586s.983 1.27 1.314 2.327c.336 1.069-.012 2.028-1.045 2.877-1.026.848-1.94 1.374-2.741 1.577l-1.94.575c-.494.18-.76.393-.801.637a2.21 2.21 0 0 1-.235.679c-.116.215-.264.407-.444.576-.18.162-.38.296-.6.401-.227.098-.461.159-.705.183-.238.023-.476.008-.714-.044a2.33 2.33 0 0 1-.67-.279c-.209-.128-.391-.285-.548-.47a2.27 2.27 0 0 1-.366-.628 2.24 2.24 0 0 1-.147-.706 2.17 2.17 0 0 1 .087-.723c.069-.233.171-.451.304-.654a2.22 2.22 0 0 1 .505-.514 2.25 2.25 0 0 1 .644-.332c.232-.075.47-.113.713-.113a2.15 2.15 0 0 1 .714.122c.232.081.444.198.635.349a2.24 2.24 0 0 1 .488.531 2.27 2.27 0 0 1 .295.663c.064.232.088.471.07.715a2.12 2.12 0 0 1-.157.706 2.2 2.2 0 0 1-.382.618c-.157.186-.343.34-.557.462a2.33 2.33 0 0 1-.67.262c-.238.046-.479.055-.723.026s-.475-.096-.696-.201-.418-.241-.592-.409-.319-.363-.435-.584c-.11-.215-.183-.445-.217-.689l-.061-.357 2.506-2.423c1.665-1.615 2.837-2.499 3.516-2.65.673-.151.589-.467-.253-.95s-1.827-.985-2.941-1.49-1.99-.761-2.628-.767-1.073.462-1.305 1.403l-.436 1.639a2.01 2.01 0 0 1-.226.427c-.098.133-.209.253-.331.357s-.255.192-.4.262a1.85 1.85 0 0 1-.461.165 2.15 2.15 0 0 1-.47.052c-.162-.005-.322-.029-.479-.069a1.77 1.77 0 0 1-.443-.183 1.74 1.74 0 0 1-.392-.279 2.19 2.19 0 0 1-.322-.366c-.087-.14-.157-.285-.209-.436a1.84 1.84 0 0 1-.113-.471c-.012-.157-.009-.316.009-.479l.034-.235z"/><path d="M148.697 234.168l-1.349.811c-.911.546-1.616 1.101-2.114 1.664-.505.564-.827 1.171-.966 1.822-.14.645-.116 1.461.069 2.449.186.982.447 1.955.783 2.92a29.75 29.75 0 0 1 .862 2.955c.244 1.005.426 2.368.548 4.088l.078 2.911a2.03 2.03 0 0 1-.313.61c-.139.186-.301.343-.487.47-.192.134-.398.233-.618.297a2.04 2.04 0 0 1-.679.078 2.18 2.18 0 0 1-.67-.139c-.215-.087-.409-.204-.583-.349a1.88 1.88 0 0 1-.444-.514c-.122-.198-.209-.41-.261-.636s-.067-.448-.043-.68.081-.445.174-.654a2.13 2.13 0 0 1 .383-.575c.156-.169.336-.308.539-.419a1.93 1.93 0 0 1 .644-.217c.226-.041.453-.044.679-.009a2.09 2.09 0 0 1 .644.209 2.12 2.12 0 0 1 .548.41c.163.168.293.357.392.566a1.96 1.96 0 0 1 .183.654c.029.227.02.453-.027.68a1.94 1.94 0 0 1-.252.636 2.08 2.08 0 0 1-.435.523c-.174.151-.368.27-.583.357a2.11 2.11 0 0 1-.662.157c-.226.012-.452-.011-.678-.07a2.05 2.05 0 0 1-.618-.278 2 2 0 0 1-.496-.471c-.145-.18-.255-.381-.331-.601a2.02 2.02 0 0 1-.113-.672v-.34l.026-1.804c.018-1.203-.075-2.222-.278-3.059-.203-.843-.508-1.755-.914-2.737-.406-.976-.751-2.004-1.036-3.085s-.345-1.99-.182-2.728c.162-.744.443-1.659.844-2.746.394-1.092.977-2.048 1.749-2.867s1.595-1.531 2.471-2.136l1.541-1.02c.15-.069.304-.122.461-.156s.322-.05.478-.044c.163.006.325.029.488.07a2.03 2.03 0 0 1 .444.191c.145.082.275.178.391.288a1.94 1.94 0 0 1 .313.384c.093.133.166.278.218.435s.084.317.096.48c.017.157.014.316-.009.479a2.18 2.18 0 0 1-.139.471c-.064.151-.142.293-.235.427a1.95 1.95 0 0 1-.34.357l-.191.157zm55.193 51.295l1.68-2.057c1.125-1.377 2.204-2.902 3.237-4.576 1.027-1.673 1.749-3.265 2.167-4.776.417-1.517.658-2.894.722-4.131l.157-3.94c.04-1.389.165-2.702.374-3.94l.679-3.198c.238-.901.504-1.677.8-2.328l.871-1.847 1.044-2.38c.412-1.005.919-1.816 1.523-2.431l1.697-1.892c.528-.639 1.035-1.162 1.523-1.569l2.114-1.656 1.715-1.272a2.33 2.33 0 0 1 .713-.331c.255-.076.514-.105.775-.088.267.012.522.067.765.166.25.099.473.232.671.401a2.54 2.54 0 0 1 .513.601 2.53 2.53 0 0 1 .287.724c.058.255.073.517.044.784a2.22 2.22 0 0 1-.209.758c-.11.239-.255.454-.435.645a2.49 2.49 0 0 1-.618.48 2.68 2.68 0 0 1-.74.253 2.57 2.57 0 0 1-.783 0c-.261-.041-.511-.125-.748-.253-.233-.122-.439-.279-.618-.471a2.32 2.32 0 0 1-.444-.645 2.51 2.51 0 0 1-.209-.758 2.56 2.56 0 0 1 .035-.785c.058-.255.154-.496.287-.723.139-.227.307-.427.505-.601a2.4 2.4 0 0 1 .67-.41c.249-.099.505-.154.766-.166a2.37 2.37 0 0 1 .783.079c.255.07.49.18.705.331a2.3 2.3 0 0 1 .574.54c.162.21.284.439.366.689a2.34 2.34 0 0 1 .13.776 2.55 2.55 0 0 1-.122.775c-.087.25-.209.48-.365.689l-.244.314-1.732 1.185-2.541 1.822-2.071 1.647c-.835.662-1.523 1.441-2.062 2.336l-1.845 2.772c-.691.947-1.192 1.786-1.506 2.518-.313.738-.568 1.659-.766 2.763-.191 1.104-.293 2.362-.304 3.774l-.105 4.262c-.052 1.436-.31 3.037-.774 4.803s-1.215 3.553-2.254 5.378l-3.133 4.898-1.714 2.292c-.093.099-.2.186-.322.262a1.67 1.67 0 0 1-.366.165 1.94 1.94 0 0 1-.4.079 1.35 1.35 0 0 1-.4-.026 1.71 1.71 0 0 1-.392-.114c-.127-.058-.246-.127-.357-.209a2.29 2.29 0 0 1-.287-.287c-.087-.111-.159-.227-.217-.349-.058-.128-.099-.259-.122-.392a1.87 1.87 0 0 1-.026-.401c.005-.14.029-.273.069-.401.041-.134.096-.259.166-.375l.104-.183zm13.356-1.839l.487-1.438c.319-.959.731-2.005 1.236-3.138l1.714-3.399 1.706-3.242 1.322-2.964c.383-.941.72-1.932 1.01-2.972l.705-3.173c.185-1.063.296-1.987.33-2.771s.169-1.479.418-2.101.67-1.278 1.279-1.97l2.481-2.701 1.818-1.848a1.77 1.77 0 0 1 .566-.279 1.82 1.82 0 0 1 .618-.087 1.75 1.75 0 0 1 .618.113c.197.07.38.171.548.305a2.05 2.05 0 0 1 .418.471c.116.18.197.372.243.575.053.203.073.413.061.628-.017.209-.069.412-.156.61a2.06 2.06 0 0 1-.331.531c-.145.157-.308.288-.487.393a1.96 1.96 0 0 1-.592.217c-.209.041-.418.047-.627.018s-.409-.09-.6-.183a1.88 1.88 0 0 1-.514-.366c-.145-.151-.267-.32-.365-.506a2 2 0 0 1-.183-.601 1.92 1.92 0 0 1 .017-.628 1.82 1.82 0 0 1 .209-.592 1.88 1.88 0 0 1 .392-.488 1.75 1.75 0 0 1 .531-.34 1.78 1.78 0 0 1 .609-.157c.209-.018.418 0 .627.052a2.09 2.09 0 0 1 .574.244c.18.116.336.256.47.418.133.169.235.352.304.55.076.197.116.403.122.618a2.03 2.03 0 0 1-.078.619c-.064.204-.157.392-.279.567l-.191.252c.006 0-.54.526-1.636 1.578l-2.663 2.458c-.685.593-1.091 1.29-1.218 2.092l-.488 2.937-.765 3.504c-.314 1.179-.685 2.254-1.114 3.225l-1.384 3.059-1.523 3.234-1.384 3.268-1.07 3.077-.574 1.621a1.54 1.54 0 0 1-.218.349c-.093.11-.194.209-.304.296-.111.081-.23.151-.357.209-.134.052-.267.09-.401.113a1.65 1.65 0 0 1-.409.018 1.59 1.59 0 0 1-.409-.087c-.133-.041-.261-.099-.382-.175a1.71 1.71 0 0 1-.322-.27 1.57 1.57 0 0 1-.253-.331 1.86 1.86 0 0 1-.165-.384c-.035-.133-.055-.27-.061-.409a1.93 1.93 0 0 1 .026-.41l.044-.209z"/><path d="M225.893 244.415l-.383-1.246c-.255-.831-.563-1.58-.922-2.249-.366-.674-1.018-1.15-1.958-1.429-.934-.285-1.778-.305-2.533-.061-.748.238-1.375.564-1.879.976-.511.413-.987.95-1.428 1.613l-.905 1.263a2.11 2.11 0 0 1-.557.454c-.208.11-.432.188-.67.235a2.16 2.16 0 0 1-.722.017 2.23 2.23 0 0 1-.687-.2 2.14 2.14 0 0 1-.583-.419 2.42 2.42 0 0 1-.418-.583c-.105-.221-.174-.451-.209-.689-.029-.238-.023-.479.017-.723a2.15 2.15 0 0 1 .253-.672 2.31 2.31 0 0 1 .452-.557c.18-.163.38-.294.601-.393.226-.093.458-.148.696-.165.244-.023.484-.006.722.052a2.43 2.43 0 0 1 .653.288c.209.133.389.293.539.479a2.24 2.24 0 0 1 .349.628c.087.226.133.462.139.706a2.11 2.11 0 0 1-.105.714 2.19 2.19 0 0 1-.313.645 2.24 2.24 0 0 1-.513.506 2.6 2.6 0 0 1-.644.314 2.26 2.26 0 0 1-.705.095 2.4 2.4 0 0 1-.705-.139 1.86 1.86 0 0 1-.627-.349 2.08 2.08 0 0 1-.478-.531 2.1 2.1 0 0 1-.288-.663 2.13 2.13 0 0 1-.052-.714 2.09 2.09 0 0 1 .174-.698l.14-.34 1.235-1.516c.824-1.011 1.686-1.842 2.585-2.493.905-.651 2.039-1.203 3.402-1.656 1.37-.459 2.533-.613 3.49-.462.963.157 1.88.535 2.75 1.133.87.604 1.526 1.273 1.967 2.005.435.732.768 1.432 1.001 2.1l.739 2.24.435 1.499a2.04 2.04 0 0 1 .026.497 2.07 2.07 0 0 1-.095.497 2.32 2.32 0 0 1-.209.453c-.087.146-.192.279-.313.401a2.03 2.03 0 0 1-.392.305c-.145.087-.299.157-.461.209a2.4 2.4 0 0 1-.496.088c-.163.011-.328 0-.496-.035-.163-.029-.322-.079-.479-.148a2.13 2.13 0 0 1-.426-.262c-.134-.104-.253-.224-.357-.357s-.192-.279-.261-.436l-.096-.227z"/><path d="M212.137 241.042l.514-1.891 1.018-3.426c.336-1.022.853-1.946 1.549-2.771.702-.825 1.445-1.467 2.228-1.926.777-.459 1.491-.794 2.14-1.003.644-.215 1.32-.375 2.028-.479.714-.099 1.48-.134 2.298-.105.812.024 1.569.108 2.271.253s1.862.511 3.481 1.098l2.732 1.133c.203.169.374.364.514.584.145.221.246.459.304.715a2.27 2.27 0 0 1 .061.767 2.48 2.48 0 0 1-.191.758 2.52 2.52 0 0 1-.418.654 2.32 2.32 0 0 1-.609.479 2.47 2.47 0 0 1-.731.271c-.255.046-.514.052-.775.017a2.63 2.63 0 0 1-.739-.235c-.232-.117-.441-.268-.627-.454s-.333-.398-.444-.636c-.116-.232-.191-.479-.226-.741s-.026-.52.026-.775.136-.5.27-.733c.128-.226.29-.427.487-.601s.415-.311.653-.41a2.47 2.47 0 0 1 .757-.191 2.4 2.4 0 0 1 .766.069 2.31 2.31 0 0 1 .713.314 2.33 2.33 0 0 1 .575.514 2.66 2.66 0 0 1 .383.68c.087.25.133.506.139.767s-.029.517-.105.767-.197.483-.348.698a2.44 2.44 0 0 1-.557.54c-.208.151-.44.264-.696.34a2.14 2.14 0 0 1-.766.104 2.23 2.23 0 0 1-.757-.148l-.374-.139-1.801-.776c-1.195-.511-2.295-.866-3.298-1.063-.998-.204-1.947-.27-2.846-.201-.899.064-1.807.352-2.724.863-.922.517-1.514 1.191-1.775 2.022-.261.837-.479 1.903-.653 3.199l-.339 2.179a1.95 1.95 0 0 1-.218.462 1.91 1.91 0 0 1-.322.401c-.122.122-.258.226-.409.314-.145.081-.301.148-.47.2a2.33 2.33 0 0 1-.504.087 2.05 2.05 0 0 1-.496-.043c-.169-.035-.331-.088-.488-.157-.156-.076-.301-.169-.435-.279a2 2 0 0 1-.357-.366c-.104-.14-.191-.288-.261-.445s-.116-.319-.139-.488a2.12 2.12 0 0 1-.026-.505l.017-.262z"/><path d="M231.566 233.118l.017-1.438c.012-.959.093-1.894.244-2.806.145-.907.443-1.68.896-2.319.447-.633 1.137-1.127 2.071-1.482.94-.354 1.987-.258 3.142.288a19.6 19.6 0 0 1 3.333 2.013c1.073.802 1.998 1.572 2.776 2.31s1.337 1.54 1.679 2.406c.343.86.499 1.621.47 2.283-.023.657-.235 1.261-.635 1.813s-1.076.898-2.045 1.037-1.845.163-2.628.07l-1.549-.226c-.25-.059-.485-.157-.705-.297-.215-.133-.403-.302-.566-.505-.162-.198-.29-.416-.383-.654a2.58 2.58 0 0 1-.148-.75c-.005-.255.029-.508.105-.758a2.17 2.17 0 0 1 .331-.68 2.3 2.3 0 0 1 .53-.531c.209-.151.435-.265.679-.34.244-.082.493-.119.749-.114a2.32 2.32 0 0 1 .748.14c.244.087.464.212.661.375a2.12 2.12 0 0 1 .514.549c.139.215.24.447.304.697s.087.503.07.758a2.18 2.18 0 0 1-.183.741 2.31 2.31 0 0 1-.4.645 2.26 2.26 0 0 1-.592.48 2.2 2.2 0 0 1-.713.261c-.25.052-.502.061-.758.026-.255-.029-.496-.102-.722-.218-.232-.11-.441-.255-.626-.436a2.36 2.36 0 0 1-.444-.618 2.25 2.25 0 0 1-.227-.724 2.38 2.38 0 0 1 .018-.758c.046-.256.13-.494.252-.715.128-.226.287-.424.479-.592a2.34 2.34 0 0 1 .635-.41 2.25 2.25 0 0 1 .731-.192l.383-.035 1.131.497c.749.32.859.235.331-.253s-1.343-1.028-2.445-1.621l-2.994-1.647c-.888-.5-.963-.84-.226-1.02.731-.186.858.081.383.802-.482.72-.717 1.56-.705 2.519l-.018 1.665c-.017.157-.055.31-.113.462s-.13.293-.217.427a1.92 1.92 0 0 1-.322.357c-.116.105-.247.195-.392.27-.139.076-.287.131-.444.166a1.89 1.89 0 0 1-.47.061c-.156 0-.313-.021-.469-.061s-.305-.09-.444-.166c-.145-.075-.276-.165-.392-.27a1.92 1.92 0 0 1-.322-.357c-.093-.134-.165-.276-.217-.427-.058-.152-.096-.305-.114-.462l-.034-.236z"/><path d="M243.026 235.544l.061-.863c.041-.581.145-1.194.314-1.839s.539-1.276 1.114-1.891 1.218-1.18 1.931-1.691c.72-.506 1.187-.791 1.402-.855l.609-.209a2.33 2.33 0 0 1 .591-.148c.203-.029.409-.032.618-.009a2.34 2.34 0 0 1 .592.149c.191.069.374.162.548.279a2.75 2.75 0 0 1 .462.4c.139.157.255.326.348.506a2.74 2.74 0 0 1 .226.575c.046.198.072.401.078.61a2.75 2.75 0 0 1-.069.61c-.053.198-.125.39-.218.576a2.47 2.47 0 0 1-.348.505 2.32 2.32 0 0 1-.453.41c-.168.122.012.009.54-.34.534-.349.76.09.679 1.316l-.183 2.937-.096 1.395a2.36 2.36 0 0 1-.156.566 2.12 2.12 0 0 1-.279.515c-.116.162-.249.308-.4.435-.145.128-.308.236-.488.323-.174.087-.356.154-.548.2s-.386.061-.583.061a2.41 2.41 0 0 1-.583-.087 2.11 2.11 0 0 1-.539-.218 2.3 2.3 0 0 1-.479-.34c-.145-.133-.273-.281-.383-.444-.104-.163-.191-.337-.261-.523-.064-.186-.107-.378-.131-.575-.017-.198-.33-.201-.939-.009-.604.186-1.03.25-1.28.192a2.28 2.28 0 0 1-.705-.279 2.37 2.37 0 0 1-.574-.488 2.58 2.58 0 0 1-.391-.654 2.21 2.21 0 0 1-.157-.732 2.44 2.44 0 0 1 .078-.741c.07-.25.177-.479.322-.689.139-.209.311-.392.514-.549a2.24 2.24 0 0 1 .67-.357c.243-.081.49-.122.739-.122a2.43 2.43 0 0 1 .74.131 2.36 2.36 0 0 1 .67.348 2.33 2.33 0 0 1 .514.549 2.42 2.42 0 0 1 .322.689c.069.244.095.491.078.741-.012.256-.067.503-.165.741a2.28 2.28 0 0 1-.383.645c-.169.197-.363.36-.583.488a2.17 2.17 0 0 1-.697.279 2.17 2.17 0 0 1-.748.043 2.45 2.45 0 0 1-.722-.2c-.232-.111-.441-.253-.627-.427a2.17 2.17 0 0 1-.452-.602c-.122-.226-.203-.464-.244-.714a2.3 2.3 0 0 1 0-.75 2.18 2.18 0 0 1 .244-.715 2.2 2.2 0 0 1 .452-.601 2.45 2.45 0 0 1 .627-.427 2.42 2.42 0 0 1 .731-.201l.365-.043 1.819.235c1.213.151 1.999.491 2.358 1.02.36.535.833 1.165 1.419 1.891.58.738.858 1.203.835 1.395a2.36 2.36 0 0 1-.156.566 2.12 2.12 0 0 1-.279.515c-.116.162-.246.308-.391.435-.151.128-.317.236-.497.323-.174.087-.356.154-.548.2s-.386.061-.583.061a2.41 2.41 0 0 1-.583-.087 2.11 2.11 0 0 1-.539-.218 2.3 2.3 0 0 1-.479-.34c-.145-.133-.27-.281-.374-.444-.11-.163-.2-.337-.27-.523-.064-.186-.107-.378-.131-.575-.017-.198.032-.666.148-1.404.116-.732.157-1.551.122-2.457s.116-2.084.453-3.53c.336-1.453.6-2.217.792-2.293a2.33 2.33 0 0 1 .591-.148c.203-.029.409-.032.618-.009a2.34 2.34 0 0 1 .592.149c.191.069.374.162.548.279a2.75 2.75 0 0 1 .462.4c.139.157.255.326.348.506a2.74 2.74 0 0 1 .226.575c.046.198.072.401.078.61a2.75 2.75 0 0 1-.069.61c-.053.198-.125.39-.218.576a2.47 2.47 0 0 1-.348.505 2.32 2.32 0 0 1-.453.41c-.168.122-.443.226-.826.314-.389.093-.876.34-1.462.74-.58.401-.914.89-1.001 1.465l-.192 1.107a2.09 2.09 0 0 1-.182.496c-.081.163-.18.311-.296.445s-.247.253-.392.357-.301.18-.47.244a1.89 1.89 0 0 1-.513.14c-.174.023-.345.023-.514 0-.179-.018-.353-.058-.522-.122-.162-.058-.319-.137-.47-.236a2.83 2.83 0 0 1-.4-.348 2.62 2.62 0 0 1-.305-.436 2.42 2.42 0 0 1-.191-.497c-.041-.168-.064-.343-.07-.523v-.261zm14.384 1.986l-.618 1.447c-.418.964-1.18 2.013-2.289 3.146-1.113 1.139-2.274 1.993-3.48 2.563l-2.35 1.237c-.354.25-.598.398-.731.445-.139.04-.281.067-.427.078a1.75 1.75 0 0 1-.426-.017 1.73 1.73 0 0 1-.409-.122 1.65 1.65 0 0 1-.365-.218 1.74 1.74 0 0 1-.314-.305 2.1 2.1 0 0 1-.226-.358c-.058-.133-.102-.27-.131-.409a1.52 1.52 0 0 1-.026-.427c.011-.145.029-.288.07-.427a2.02 2.02 0 0 1 .165-.393 2.21 2.21 0 0 1 .261-.34 1.94 1.94 0 0 1 .34-.27c.122-.075.667-.494 1.636-1.255s1.943-1.351 2.924-1.769l1.801-.68c.221-.046.441-.055.662-.026s.432.093.635.192c.197.093.377.218.539.374s.288.337.392.541c.099.197.165.407.2.627a2.14 2.14 0 0 1-.017.663c-.041.215-.113.421-.218.619a2.13 2.13 0 0 1-.409.523 2.02 2.02 0 0 1-.557.357c-.203.093-.415.148-.635.166-.226.017-.447 0-.661-.053-.221-.046-.424-.131-.61-.253-.191-.116-.356-.261-.496-.435a2.18 2.18 0 0 1-.33-.576 2.23 2.23 0 0 1-.131-.645c-.006-.226.023-.444.087-.653a2.15 2.15 0 0 1 .287-.602 2.08 2.08 0 0 1 .462-.47 2.17 2.17 0 0 1 .591-.297c.209-.069.427-.101.653-.096.22.006.435.047.644.122a1.99 1.99 0 0 1 .583.323c.174.134.322.296.444.488.122.186.212.386.27.601.052.215.069.436.052.663-.012.221-.061.433-.148.636-.087.209-.206.398-.357.567a2.2 2.2 0 0 1-.505.418l-.296.166-1.34.444-2.21.802a5.13 5.13 0 0 0-1.558 1.011c-.464.43-.763.668-.896.715-.139.04-.281.067-.427.078a1.75 1.75 0 0 1-.426-.017 1.73 1.73 0 0 1-.409-.122 1.65 1.65 0 0 1-.365-.218 1.74 1.74 0 0 1-.314-.305 2.1 2.1 0 0 1-.226-.358c-.058-.133-.102-.27-.131-.409a1.52 1.52 0 0 1-.026-.427c.011-.145.029-.288.07-.427a2.02 2.02 0 0 1 .165-.393 2.21 2.21 0 0 1 .261-.34 1.94 1.94 0 0 1 .34-.27c.122-.075.38-.191.774-.348l1.88-.828c.859-.39 1.662-1.003 2.411-1.839.742-.831 1.287-1.723 1.636-2.676l.644-1.639c.075-.139.168-.27.278-.392a2.35 2.35 0 0 1 .366-.314c.139-.087.284-.16.435-.218.15-.052.307-.087.47-.104.156-.018.313-.015.469.008a2.18 2.18 0 0 1 .47.122c.151.064.29.143.418.236a1.89 1.89 0 0 1 .357.322 2.66 2.66 0 0 1 .27.401 2.48 2.48 0 0 1 .165.462 1.88 1.88 0 0 1 .044.471 1.93 1.93 0 0 1-.061.479l-.07.227z"/><path d="M253.547 244.127l-.957.775-2.367 2.101-1.705 1.551a2.01 2.01 0 0 1-.627.323 2.03 2.03 0 0 1-.696.104c-.238 0-.47-.04-.696-.122s-.433-.194-.618-.34a1.94 1.94 0 0 1-.479-.523c-.133-.197-.232-.412-.296-.645-.058-.232-.078-.467-.061-.706a2.35 2.35 0 0 1 .157-.688c.093-.221.218-.421.374-.601a2.18 2.18 0 0 1 .548-.454c.203-.116.424-.2.662-.252a2.19 2.19 0 0 1 .705-.027c.238.029.464.096.678.201a2.19 2.19 0 0 1 .575.401c.174.168.316.36.426.575.105.209.174.433.209.671.041.238.038.474-.009.706-.04.238-.119.462-.235.671-.11.209-.255.395-.435.558a1.99 1.99 0 0 1-.591.384c-.215.098-.441.159-.679.183s-.473.008-.705-.044c-.232-.058-.45-.148-.653-.27a2.17 2.17 0 0 1-.531-.471c-.156-.186-.275-.389-.356-.61-.087-.227-.137-.459-.148-.697a2.33 2.33 0 0 1 .391-1.342l.209-.288 1.662-1.473 2.628-2.214 1.175-.906a2.43 2.43 0 0 1 .47-.21 2.06 2.06 0 0 1 .496-.095 1.82 1.82 0 0 1 .505.017c.168.035.33.084.487.148a2.26 2.26 0 0 1 .444.262 2.32 2.32 0 0 1 .365.357 2.34 2.34 0 0 1 .27.436c.07.157.122.319.157.488.029.168.04.337.035.505a2.63 2.63 0 0 1-.087.506 2.24 2.24 0 0 1-.209.462c-.087.151-.192.288-.313.41l-.175.183z"/><path d="M245.427 245.541l1.662-.575 3.316-1.055c1.096-.308 2.19-.462 3.281-.462s1.85.238 2.262.715.574 1.037.487 1.682c-.081.651-.632 1.351-1.653 2.1l-1.871 1.255a2.17 2.17 0 0 1-1.392 0 2.13 2.13 0 0 1-.627-.331 2.14 2.14 0 0 1-.487-.514 2.17 2.17 0 0 1-.296-.645 2.08 2.08 0 0 1-.078-.688c.017-.239.069-.468.156-.689s.206-.424.357-.61c.157-.18.336-.331.54-.453.203-.128.423-.215.661-.262.232-.052.467-.067.705-.043.232.023.458.087.679.191a2.2 2.2 0 0 1 .583.393 2.03 2.03 0 0 1 .426.566 2.23 2.23 0 0 1 .226.662 2.04 2.04 0 0 1 0 .706c-.04.233-.116.454-.226.663a2.03 2.03 0 0 1-.426.566c-.174.163-.369.297-.583.401a2.09 2.09 0 0 1-.679.183c-.238.029-.473.018-.705-.035a2.19 2.19 0 0 1-.653-.261c-.209-.122-.388-.273-.539-.453a2.19 2.19 0 0 1-.366-.61 2.31 2.31 0 0 1-.156-.68 2.22 2.22 0 0 1 .078-.706 2.17 2.17 0 0 1 .296-.636c.133-.198.296-.369.487-.515l.279-.218.87-.139c.58-.099.902.186.966.854s-.389 1.165-1.358 1.491c-.974.319-1.993.732-3.054 1.237l-1.828.828c-.162.047-.328.073-.496.079a2.01 2.01 0 0 1-.487-.044 1.99 1.99 0 0 1-.47-.165 2.25 2.25 0 0 1-.418-.271c-.127-.11-.241-.232-.339-.366s-.18-.279-.244-.436a1.99 1.99 0 0 1-.13-.479 1.81 1.81 0 0 1-.018-.497 2.28 2.28 0 0 1 .105-.479 2.31 2.31 0 0 1 .217-.453 2.23 2.23 0 0 1 .322-.384 1.98 1.98 0 0 1 .4-.296l.218-.122z"/><path d="M247.558 249.852l-1.923.305-3.168.531c-.818.151-1.584.558-2.297 1.221-.714.656-1.317 1.31-1.811 1.961l-2.114 2.58-2.924 3.765-2.376 3.687-1.497 2.492c-.441.645-1.172 1.439-2.193 2.38l-1.775 1.569c-.168.099-.348.168-.539.209a1.68 1.68 0 0 1-.566.026c-.192-.017-.377-.067-.557-.148a1.72 1.72 0 0 1-.47-.323 1.81 1.81 0 0 1-.348-.462c-.087-.168-.148-.348-.183-.54a1.91 1.91 0 0 1 0-.575c.035-.192.099-.372.192-.541a1.68 1.68 0 0 1 .339-.462c.145-.133.305-.241.479-.322s.356-.125.548-.148a1.58 1.58 0 0 1 .574.035 1.66 1.66 0 0 1 .531.209c.168.099.313.224.435.375.128.145.226.308.296.488s.11.369.122.566a1.7 1.7 0 0 1-.061.567 1.77 1.77 0 0 1-.244.523 1.85 1.85 0 0 1-.391.409 1.91 1.91 0 0 1-.505.271c-.186.064-.374.095-.566.095a1.67 1.67 0 0 1-.565-.095c-.186-.064-.354-.154-.505-.271-.157-.116-.287-.255-.392-.418a1.79 1.79 0 0 1-.243-.523 1.67 1.67 0 0 1-.061-.566 1.82 1.82 0 0 1 .122-.558 2.06 2.06 0 0 1 .295-.497l.192-.218 2.036-1.691c1.364-1.127 2.321-2.269 2.872-3.425.557-1.151 1.329-2.507 2.315-4.071l2.698-4.096 2.079-2.824c.575-.715 1.227-1.406 1.958-2.074s1.48-1.116 2.246-1.36c.76-.244 1.528-.398 2.306-.462.771-.07 1.792-.259 3.063-.567l2.106-.479a1.57 1.57 0 0 1 .409.018c.139.023.275.063.409.122.128.052.246.122.357.209a1.64 1.64 0 0 1 .304.296 1.82 1.82 0 0 1 .227.349 1.9 1.9 0 0 1 .13.401 1.39 1.39 0 0 1 .026.409 1.97 1.97 0 0 1-.061.419c-.04.133-.098.261-.174.383-.069.122-.154.235-.252.34-.099.099-.206.186-.322.262-.122.075-.25.136-.383.183l-.2.061zm-102.106 6.194l1.14 1.273c.76.854 1.555 2.272 2.385 4.253a42.38 42.38 0 0 1 2.019 6.066l1.314 5.308.565 2.423c.018.146.009.285-.026.419s-.087.267-.156.383c-.076.122-.169.23-.279.323a1.49 1.49 0 0 1-.357.209 1.43 1.43 0 0 1-.409.078 1.23 1.23 0 0 1-.417-.052c-.134-.035-.259-.093-.375-.174a1.36 1.36 0 0 1-.304-.297 1.19 1.19 0 0 1-.183-.375 1.1 1.1 0 0 1-.061-.409c0-.14.023-.276.07-.41s.113-.255.2-.366a1.44 1.44 0 0 1 .305-.288 1.4 1.4 0 0 1 .382-.165c.14-.035.279-.05.418-.044.139.012.276.044.409.096.128.058.244.134.348.227.11.093.2.2.27.322s.119.253.148.393a1.19 1.19 0 0 1 .017.409c-.017.145-.058.279-.121.401a1.29 1.29 0 0 1-.235.349 1.32 1.32 0 0 1-.34.244c-.122.064-.252.107-.391.131-.145.017-.285.014-.418-.009a1.25 1.25 0 0 1-.722-.401 1.11 1.11 0 0 1-.235-.349l-.087-.192-.601-2.196-1.392-5.073a41.93 41.93 0 0 0-1.863-5.377c-.719-1.668-1.462-2.909-2.227-3.722l-1.271-1.377a1.79 1.79 0 0 1-.191-.34c-.047-.116-.079-.241-.096-.375a1.69 1.69 0 0 1-.009-.375 1.44 1.44 0 0 1 .087-.374c.041-.128.099-.244.174-.349a1.52 1.52 0 0 1 .244-.296 1.93 1.93 0 0 1 .313-.227 1.66 1.66 0 0 1 .366-.148 1.38 1.38 0 0 1 .383-.052c.122 0 .246.011.374.034.128.029.249.073.365.131s.224.131.322.218l.148.122z"/></g><rect x="34" y="341.5" width="293" height="58" rx="16" fill="#f7f7f7"/><path d="M65.298 359.111h1.332v-2.007c0-.732.144-1.332.432-1.8a2.72 2.72 0 0 1 1.116-1.053 3.06 3.06 0 0 1 1.413-.351c.594 0 1.05.081 1.368.243s.513.279.585.351l-.882 1.692c-.03-.042-.114-.108-.252-.198-.132-.096-.309-.144-.531-.144-.156 0-.309.039-.459.117s-.273.222-.369.432-.144.519-.144.927v1.791h1.935v1.899h-1.935v5.49H66.63v-5.49h-1.332v-1.899zm8.915 7.389h-2.286v-7.389h2.286v1.197h-.045c.042-.144.156-.327.342-.549a2.63 2.63 0 0 1 .792-.594c.336-.18.741-.27 1.215-.27.342 0 .651.051.927.153.282.096.483.192.603.288l-.9 1.872c-.078-.096-.225-.195-.441-.297-.21-.102-.474-.153-.792-.153-.378 0-.693.105-.945.315a1.91 1.91 0 0 0-.567.756c-.126.294-.189.57-.189.828v3.843zm10.326 0v-1.287c-.054.132-.192.318-.414.558s-.522.459-.9.657c-.372.192-.81.288-1.314.288-.708 0-1.335-.168-1.881-.504-.546-.342-.975-.807-1.287-1.395-.306-.594-.459-1.263-.459-2.007s.153-1.41.459-1.998a3.59 3.59 0 0 1 1.287-1.404c.546-.342 1.173-.513 1.881-.513.492 0 .918.084 1.278.252.366.162.66.354.882.576.228.216.375.411.441.585v-1.197h2.268v7.389h-2.241zm-4.014-3.69c0 .414.093.78.279 1.098a2 2 0 0 0 .738.729c.306.174.639.261.999.261a1.94 1.94 0 0 0 1.008-.261 1.91 1.91 0 0 0 .693-.738c.174-.318.261-.681.261-1.089a2.18 2.18 0 0 0-.261-1.08c-.168-.318-.399-.567-.693-.747a1.89 1.89 0 0 0-1.008-.27c-.36 0-.693.09-.999.27a1.98 1.98 0 0 0-.738.738c-.186.312-.279.675-.279 1.089zm17.798-3.915c.552 0 1.032.117 1.44.351.414.234.735.594.963 1.08.234.48.351 1.098.351 1.854v4.32h-2.25v-3.951c0-.624-.093-1.11-.279-1.458-.18-.348-.525-.522-1.035-.522-.288 0-.552.078-.792.234-.24.15-.432.372-.576.666-.138.294-.207.654-.207 1.08v3.951h-2.106v-3.951c0-.624-.105-1.11-.315-1.458s-.543-.522-.999-.522a1.48 1.48 0 0 0-.801.225c-.234.15-.42.372-.558.666-.132.288-.198.651-.198 1.089v3.951h-2.268v-7.389h2.268v1.08c.066-.186.216-.378.45-.576.24-.198.537-.366.891-.504.354-.144.735-.216 1.143-.216.444 0 .813.075 1.107.225a2.06 2.06 0 0 1 .711.576c.186.228.327.468.423.72.084-.234.249-.468.495-.702s.555-.429.927-.585a3.11 3.11 0 0 1 1.215-.234zm6.256 4.419c.018.336.108.636.27.9s.396.471.702.621c.312.15.684.225 1.116.225.39 0 .732-.048 1.026-.144.3-.096.552-.213.756-.351.21-.144.366-.282.468-.414l.945 1.404c-.168.21-.393.405-.675.585-.276.174-.63.312-1.062.414-.426.108-.96.162-1.602.162-.81 0-1.521-.159-2.133-.477a3.44 3.44 0 0 1-1.431-1.377c-.342-.6-.513-1.314-.513-2.142 0-.72.153-1.368.459-1.944a3.38 3.38 0 0 1 1.332-1.377c.588-.336 1.293-.504 2.115-.504.774 0 1.443.15 2.007.45.57.294 1.011.726 1.323 1.296s.468 1.266.468 2.088l-.009.297c0 .144-.006.24-.018.288h-5.544zm3.429-1.413c-.006-.192-.066-.399-.18-.621a1.44 1.44 0 0 0-.513-.567c-.234-.156-.546-.234-.936-.234s-.711.075-.963.225c-.246.15-.432.336-.558.558-.126.216-.198.429-.216.639h3.366zm14.149 4.599v-1.287c-.054.132-.192.318-.414.558s-.522.459-.9.657c-.372.192-.81.288-1.314.288-.708 0-1.335-.168-1.881-.504-.546-.342-.975-.807-1.287-1.395-.306-.594-.459-1.263-.459-2.007s.153-1.41.459-1.998a3.59 3.59 0 0 1 1.287-1.404c.546-.342 1.173-.513 1.881-.513.492 0 .918.084 1.278.252.366.162.66.354.882.576.228.216.375.411.441.585v-1.197h2.268v7.389h-2.241zm-4.014-3.69c0 .414.093.78.279 1.098a2 2 0 0 0 .738.729c.306.174.639.261.999.261a1.94 1.94 0 0 0 1.008-.261 1.91 1.91 0 0 0 .693-.738c.174-.318.261-.681.261-1.089a2.18 2.18 0 0 0-.261-1.08c-.168-.318-.399-.567-.693-.747a1.89 1.89 0 0 0-1.008-.27c-.36 0-.693.09-.999.27a1.98 1.98 0 0 0-.738.738c-.186.312-.279.675-.279 1.089zm12.847-3.915c.504 0 .996.105 1.476.315.48.204.873.531 1.179.981.312.45.468 1.038.468 1.764v4.545h-2.295v-4.149c0-.606-.144-1.056-.432-1.35-.282-.294-.654-.441-1.116-.441-.3 0-.588.084-.864.252-.27.162-.492.39-.666.684-.168.288-.252.618-.252.99v4.014h-2.286v-7.389h2.286v1.179c.066-.204.216-.414.45-.63s.531-.396.891-.54c.36-.15.747-.225 1.161-.225zm8.527 7.821c-.786 0-1.488-.168-2.106-.504a3.74 3.74 0 0 1-1.44-1.377c-.348-.588-.522-1.257-.522-2.007s.174-1.419.522-2.007c.348-.594.828-1.062 1.44-1.404.618-.348 1.32-.522 2.106-.522.792 0 1.491.174 2.097.522.606.342 1.08.81 1.422 1.404.342.588.513 1.257.513 2.007s-.171 1.419-.513 2.007a3.69 3.69 0 0 1-1.422 1.377c-.606.336-1.305.504-2.097.504zm0-1.899a1.85 1.85 0 0 0 .981-.252c.282-.174.498-.411.648-.711.156-.306.234-.651.234-1.035s-.078-.729-.234-1.035c-.15-.306-.366-.546-.648-.72-.276-.18-.603-.27-.981-.27a1.8 1.8 0 0 0-.99.27c-.276.174-.492.414-.648.72s-.234.651-.234 1.035.078.729.234 1.035a1.81 1.81 0 0 0 .648.711c.282.168.612.252.99.252zm4.936-5.706h1.332v-3.033h2.268v3.033h1.746v1.899h-1.746v2.673c0 .354.057.63.171.828.114.192.294.288.54.288.186 0 .339-.036.459-.108.12-.078.192-.132.216-.162l.81 1.638c-.036.036-.153.099-.351.189-.192.09-.441.171-.747.243a4.05 4.05 0 0 1-1.017.117c-.678 0-1.239-.195-1.683-.585-.444-.396-.666-1.008-.666-1.836v-3.285h-1.332v-1.899zm11.719-.216c.504 0 .996.105 1.476.315.48.204.873.531 1.179.981.312.45.468 1.038.468 1.764v4.545h-2.295v-4.149c0-.606-.138-1.056-.414-1.35-.27-.294-.633-.441-1.089-.441a1.7 1.7 0 0 0-.882.252c-.276.162-.504.39-.684.684-.174.288-.261.618-.261.99v4.014h-2.295v-12.384h2.295v6.174c.06-.204.207-.414.441-.63s.531-.396.891-.54a3.01 3.01 0 0 1 1.17-.225zm6.626 4.419c.018.336.108.636.27.9s.396.471.702.621c.312.15.684.225 1.116.225.39 0 .732-.048 1.026-.144.3-.096.552-.213.756-.351.21-.144.366-.282.468-.414l.945 1.404c-.168.21-.393.405-.675.585-.276.174-.63.312-1.062.414-.426.108-.96.162-1.602.162-.81 0-1.521-.159-2.133-.477a3.44 3.44 0 0 1-1.431-1.377c-.342-.6-.513-1.314-.513-2.142 0-.72.153-1.368.459-1.944a3.38 3.38 0 0 1 1.332-1.377c.588-.336 1.293-.504 2.115-.504.774 0 1.443.15 2.007.45.57.294 1.011.726 1.323 1.296s.468 1.266.468 2.088l-.009.297c0 .144-.006.24-.018.288h-5.544zm3.429-1.413c-.006-.192-.066-.399-.18-.621a1.44 1.44 0 0 0-.513-.567c-.234-.156-.546-.234-.936-.234s-.711.075-.963.225c-.246.15-.432.336-.558.558-.126.216-.198.429-.216.639h3.366zm5.809 4.599h-2.286v-7.389h2.286v1.197h-.045c.042-.144.156-.327.342-.549a2.63 2.63 0 0 1 .792-.594c.336-.18.741-.27 1.215-.27.342 0 .651.051.927.153.282.096.483.192.603.288l-.9 1.872c-.078-.096-.225-.195-.441-.297-.21-.102-.474-.153-.792-.153-.378 0-.693.105-.945.315a1.91 1.91 0 0 0-.567.756c-.126.294-.189.57-.189.828v3.843zm11.614 3.744h-2.268v-11.133h2.295v1.197c.072-.174.228-.372.468-.594s.552-.414.936-.576c.39-.162.834-.243 1.332-.243.702 0 1.314.171 1.836.513s.924.81 1.206 1.404c.288.588.432 1.254.432 1.998s-.15 1.413-.45 2.007a3.52 3.52 0 0 1-1.251 1.395c-.534.336-1.155.504-1.863.504-.534 0-.993-.096-1.377-.288s-.684-.408-.9-.648-.348-.429-.396-.567v5.031zm3.996-7.434a2.14 2.14 0 0 0-.27-1.089 1.89 1.89 0 0 0-.702-.738 1.84 1.84 0 0 0-.981-.27c-.378 0-.72.09-1.026.27a1.98 1.98 0 0 0-.729.747 2.18 2.18 0 0 0-.261 1.08c0 .408.087.771.261 1.089a2 2 0 0 0 .729.738 2.04 2.04 0 0 0 1.026.261 1.89 1.89 0 0 0 .981-.261c.294-.174.528-.417.702-.729a2.19 2.19 0 0 0 .27-1.098zm6.033 3.69h-2.295v-12.384h2.295V366.5zm7.755 0v-1.287c-.054.132-.192.318-.414.558s-.522.459-.9.657c-.372.192-.81.288-1.314.288-.708 0-1.335-.168-1.881-.504-.546-.342-.975-.807-1.287-1.395-.306-.594-.459-1.263-.459-2.007s.153-1.41.459-1.998a3.59 3.59 0 0 1 1.287-1.404c.546-.342 1.173-.513 1.881-.513.492 0 .918.084 1.278.252.366.162.66.354.882.576.228.216.375.411.441.585v-1.197h2.268v7.389h-2.241zm-4.014-3.69c0 .414.093.78.279 1.098a2 2 0 0 0 .738.729c.306.174.639.261.999.261a1.94 1.94 0 0 0 1.008-.261 1.91 1.91 0 0 0 .693-.738c.174-.318.261-.681.261-1.089a2.18 2.18 0 0 0-.261-1.08c-.168-.318-.399-.567-.693-.747a1.89 1.89 0 0 0-1.008-.27c-.36 0-.693.09-.999.27a1.98 1.98 0 0 0-.738.738c-.186.312-.279.675-.279 1.089zm11.606 1.683l2.187-5.382h2.259l-5.049 11.133h-2.295l1.701-3.744-3.069-7.389h2.286l1.98 5.382zm7.121-1.179c.018.336.108.636.27.9s.396.471.702.621c.312.15.684.225 1.116.225.39 0 .732-.048 1.026-.144.3-.096.552-.213.756-.351.21-.144.366-.282.468-.414l.945 1.404c-.168.21-.393.405-.675.585-.276.174-.63.312-1.062.414-.426.108-.96.162-1.602.162-.81 0-1.521-.159-2.133-.477a3.44 3.44 0 0 1-1.431-1.377c-.342-.6-.513-1.314-.513-2.142 0-.72.153-1.368.459-1.944a3.38 3.38 0 0 1 1.332-1.377c.588-.336 1.293-.504 2.115-.504.774 0 1.443.15 2.007.45.57.294 1.011.726 1.323 1.296s.468 1.266.468 2.088l-.009.297c0 .144-.006.24-.018.288h-5.544zm3.429-1.413c-.006-.192-.066-.399-.18-.621a1.44 1.44 0 0 0-.513-.567c-.234-.156-.546-.234-.936-.234s-.711.075-.963.225c-.246.15-.432.336-.558.558-.126.216-.198.429-.216.639h3.366zm5.81 4.599h-2.286v-7.389h2.286v1.197h-.045c.042-.144.156-.327.342-.549a2.63 2.63 0 0 1 .792-.594c.336-.18.741-.27 1.215-.27.342 0 .651.051.927.153.282.096.483.192.603.288l-.9 1.872c-.078-.096-.225-.195-.441-.297-.21-.102-.474-.153-.792-.153-.378 0-.693.105-.945.315a1.91 1.91 0 0 0-.567.756c-.126.294-.189.57-.189.828v3.843zm6.28-2.754c.42 0 .777.147 1.071.441.3.294.45.711.45 1.251a3.59 3.59 0 0 1-.306 1.449 4.51 4.51 0 0 1-.819 1.26 4.18 4.18 0 0 1-1.098.882l-.675-.729a4.37 4.37 0 0 0 .639-.414c.228-.174.435-.375.621-.603a1.87 1.87 0 0 0 .396-.711c-.12.066-.282.099-.486.099-.342 0-.645-.132-.909-.396-.258-.264-.387-.606-.387-1.026a1.5 1.5 0 0 1 .198-.765c.138-.228.321-.408.549-.54a1.48 1.48 0 0 1 .756-.198zm17.864-4.851c.552 0 1.032.117 1.44.351.414.234.735.594.963 1.08.234.48.351 1.098.351 1.854v4.32h-2.25v-3.951c0-.624-.093-1.11-.279-1.458-.18-.348-.525-.522-1.035-.522-.288 0-.552.078-.792.234-.24.15-.432.372-.576.666-.138.294-.207.654-.207 1.08v3.951h-2.106v-3.951c0-.624-.105-1.11-.315-1.458s-.543-.522-.999-.522a1.48 1.48 0 0 0-.801.225c-.234.15-.42.372-.558.666-.132.288-.198.651-.198 1.089v3.951h-2.268v-7.389h2.268v1.08c.066-.186.216-.378.45-.576.24-.198.537-.366.891-.504.354-.144.735-.216 1.143-.216.444 0 .813.075 1.107.225a2.06 2.06 0 0 1 .711.576c.186.228.327.468.423.72.084-.234.249-.468.495-.702s.555-.429.927-.585a3.11 3.11 0 0 1 1.215-.234zm10.369 7.605v-1.287c-.054.132-.192.318-.414.558s-.522.459-.9.657c-.372.192-.81.288-1.314.288-.708 0-1.335-.168-1.881-.504-.546-.342-.975-.807-1.287-1.395-.306-.594-.459-1.263-.459-2.007s.153-1.41.459-1.998a3.59 3.59 0 0 1 1.287-1.404c.546-.342 1.173-.513 1.881-.513.492 0 .918.084 1.278.252.366.162.66.354.882.576.228.216.375.411.441.585v-1.197h2.268v7.389h-2.241zm-4.014-3.69c0 .414.093.78.279 1.098a2 2 0 0 0 .738.729c.306.174.639.261.999.261a1.94 1.94 0 0 0 1.008-.261 1.91 1.91 0 0 0 .693-.738c.174-.318.261-.681.261-1.089a2.18 2.18 0 0 0-.261-1.08c-.168-.318-.399-.567-.693-.747a1.89 1.89 0 0 0-1.008-.27c-.36 0-.693.09-.999.27a1.98 1.98 0 0 0-.738.738c-.186.312-.279.675-.279 1.089zm12.974-3.699h2.628l-3.609 3.528 3.933 3.861h-2.691l-3.069-3.087v3.087h-2.286v-12.384h2.286v7.704l2.808-2.709zm3.95 7.389v-7.389h2.277v7.389h-2.277zm1.17-9.297a1.31 1.31 0 0 1-.963-.396c-.258-.264-.387-.579-.387-.945a1.32 1.32 0 0 1 .396-.954c.264-.27.582-.405.954-.405a1.26 1.26 0 0 1 .675.189 1.42 1.42 0 0 1 .495.486c.126.204.189.432.189.684 0 .366-.135.681-.405.945a1.3 1.3 0 0 1-.954.396zm7.902 1.692c.504 0 .996.105 1.476.315.48.204.873.531 1.179.981.312.45.468 1.038.468 1.764v4.545h-2.295v-4.149c0-.606-.144-1.056-.432-1.35-.282-.294-.654-.441-1.116-.441-.3 0-.588.084-.864.252-.27.162-.492.39-.666.684-.168.288-.252.618-.252.99v4.014h-2.286v-7.389h2.286v1.179c.066-.204.216-.414.45-.63s.531-.396.891-.54c.36-.15.747-.225 1.161-.225zm8.643 11.556c-.54 0-1.059-.051-1.557-.153a4.93 4.93 0 0 1-1.341-.477 3.14 3.14 0 0 1-1.008-.846l1.386-1.404c.126.162.288.324.486.486.204.168.462.306.774.414.312.114.702.171 1.17.171.444 0 .825-.087 1.143-.261.324-.168.573-.408.747-.72a2.14 2.14 0 0 0 .27-1.089v-.207h2.241v.342c0 .816-.192 1.503-.576 2.061s-.9.978-1.548 1.26-1.377.423-2.187.423zm2.07-3.951v-1.287c-.054.132-.192.318-.414.558s-.522.459-.9.657c-.372.192-.81.288-1.314.288-.708 0-1.335-.168-1.881-.504-.546-.342-.975-.807-1.287-1.395-.306-.594-.459-1.263-.459-2.007s.153-1.41.459-1.998a3.59 3.59 0 0 1 1.287-1.404c.546-.342 1.173-.513 1.881-.513.492 0 .918.084 1.278.252.366.162.66.354.882.576.228.216.375.411.441.585v-1.197h2.268v7.389h-2.241zm-4.014-3.69c0 .414.093.78.279 1.098a2 2 0 0 0 .738.729c.306.174.639.261.999.261a1.94 1.94 0 0 0 1.008-.261 1.91 1.91 0 0 0 .693-.738c.174-.318.261-.681.261-1.089a2.18 2.18 0 0 0-.261-1.08c-.168-.318-.399-.567-.693-.747a1.89 1.89 0 0 0-1.008-.27c-.36 0-.693.09-.999.27a1.98 1.98 0 0 0-.738.738c-.186.312-.279.675-.279 1.089zM78.121 376.111h1.332v-3.033h2.268v3.033h1.746v1.899h-1.746v2.673c0 .354.057.63.171.828.114.192.294.288.54.288.186 0 .339-.036.459-.108.12-.078.192-.132.216-.162l.81 1.638c-.036.036-.153.099-.351.189-.192.09-.441.171-.747.243a4.05 4.05 0 0 1-1.017.117c-.678 0-1.239-.195-1.683-.585-.444-.396-.666-1.008-.666-1.836v-3.285h-1.332v-1.899zm11.719-.216c.504 0 .996.105 1.476.315.48.204.873.531 1.179.981.312.45.468 1.038.468 1.764v4.545h-2.295v-4.149c0-.606-.138-1.056-.414-1.35-.27-.294-.633-.441-1.089-.441a1.7 1.7 0 0 0-.882.252c-.276.162-.504.39-.684.684-.174.288-.261.618-.261.99v4.014h-2.295v-12.384h2.295v6.174c.06-.204.207-.414.441-.63s.531-.396.891-.54a3.01 3.01 0 0 1 1.17-.225zm6.625 4.419c.018.336.108.636.27.9s.396.471.702.621c.312.15.684.225 1.116.225.39 0 .732-.048 1.026-.144.3-.096.553-.213.757-.351.21-.144.366-.282.468-.414l.945 1.404c-.168.21-.393.405-.675.585-.276.174-.63.312-1.062.414-.427.108-.96.162-1.603.162-.81 0-1.521-.159-2.133-.477a3.44 3.44 0 0 1-1.431-1.377c-.342-.6-.513-1.314-.513-2.142 0-.72.153-1.368.459-1.944a3.38 3.38 0 0 1 1.332-1.377c.588-.336 1.293-.504 2.115-.504.774 0 1.443.15 2.007.45.57.294 1.011.726 1.323 1.296s.468 1.266.468 2.088l-.009.297c0 .144-.006.24-.018.288h-5.544zm3.429-1.413c-.006-.192-.066-.399-.18-.621a1.44 1.44 0 0 0-.513-.567c-.234-.156-.546-.234-.936-.234s-.711.075-.963.225c-.246.15-.432.336-.558.558-.126.216-.198.429-.216.639h3.366zm13.343-3.006c.552 0 1.032.117 1.44.351.414.234.735.594.963 1.08.234.48.351 1.098.351 1.854v4.32h-2.25v-3.951c0-.624-.093-1.11-.279-1.458-.18-.348-.525-.522-1.035-.522-.288 0-.552.078-.792.234-.24.15-.432.372-.576.666-.138.294-.207.654-.207 1.08v3.951h-2.106v-3.951c0-.624-.105-1.11-.315-1.458s-.543-.522-.999-.522a1.48 1.48 0 0 0-.801.225c-.234.15-.42.372-.558.666-.132.288-.198.651-.198 1.089v3.951h-2.268v-7.389h2.268v1.08c.066-.186.216-.378.45-.576.24-.198.537-.366.891-.504.354-.144.735-.216 1.143-.216.444 0 .813.075 1.107.225a2.06 2.06 0 0 1 .711.576c.186.228.327.468.423.72.084-.234.249-.468.495-.702s.555-.429.927-.585a3.11 3.11 0 0 1 1.215-.234zm11.526 7.605h-2.295v-12.384h2.295V383.5zm5.568.216c-.786 0-1.488-.168-2.106-.504a3.74 3.74 0 0 1-1.44-1.377c-.348-.588-.522-1.257-.522-2.007s.174-1.419.522-2.007c.348-.594.828-1.062 1.44-1.404.618-.348 1.32-.522 2.106-.522.792 0 1.491.174 2.097.522.606.342 1.08.81 1.422 1.404.342.588.513 1.257.513 2.007s-.171 1.419-.513 2.007a3.69 3.69 0 0 1-1.422 1.377c-.606.336-1.305.504-2.097.504zm0-1.899a1.85 1.85 0 0 0 .981-.252c.282-.174.498-.411.648-.711.156-.306.234-.651.234-1.035s-.078-.729-.234-1.035c-.15-.306-.366-.546-.648-.72-.276-.18-.603-.27-.981-.27a1.8 1.8 0 0 0-.99.27c-.276.174-.492.414-.648.72s-.234.651-.234 1.035.078.729.234 1.035a1.81 1.81 0 0 0 .648.711c.282.168.612.252.99.252zm9.193 1.899c-.786 0-1.488-.168-2.106-.504a3.74 3.74 0 0 1-1.44-1.377c-.348-.588-.522-1.257-.522-2.007s.174-1.419.522-2.007c.348-.594.828-1.062 1.44-1.404.618-.348 1.32-.522 2.106-.522.792 0 1.491.174 2.097.522.606.342 1.08.81 1.422 1.404.342.588.513 1.257.513 2.007s-.171 1.419-.513 2.007a3.69 3.69 0 0 1-1.422 1.377c-.606.336-1.305.504-2.097.504zm0-1.899a1.85 1.85 0 0 0 .981-.252c.282-.174.498-.411.648-.711.156-.306.234-.651.234-1.035s-.078-.729-.234-1.035c-.15-.306-.366-.546-.648-.72-.276-.18-.603-.27-.981-.27a1.8 1.8 0 0 0-.99.27c-.276.174-.492.414-.648.72s-.234.651-.234 1.035.078.729.234 1.035a1.81 1.81 0 0 0 .648.711c.282.168.612.252.99.252zm10.409-5.706h2.628l-3.609 3.528 3.933 3.861h-2.691l-3.069-3.087v3.087h-2.286v-12.384h2.286v7.704l2.808-2.709zm10.795 7.389h-2.295v-12.384h2.295V383.5zm2.067 0v-7.389h2.277v7.389h-2.277zm1.17-9.297a1.31 1.31 0 0 1-.963-.396c-.258-.264-.387-.579-.387-.945a1.32 1.32 0 0 1 .396-.954c.264-.27.582-.405.954-.405a1.26 1.26 0 0 1 .675.189 1.42 1.42 0 0 1 .495.486c.126.204.189.432.189.684 0 .366-.135.681-.405.945a1.3 1.3 0 0 1-.954.396zm8.028 1.908h2.628l-3.609 3.528 3.933 3.861h-2.691l-3.069-3.087v3.087h-2.286v-12.384h2.286v7.704l2.808-2.709zm5.174 4.203c.018.336.108.636.27.9s.396.471.702.621c.312.15.684.225 1.116.225.39 0 .732-.048 1.026-.144.3-.096.552-.213.756-.351.21-.144.366-.282.468-.414l.945 1.404c-.168.21-.393.405-.675.585-.276.174-.63.312-1.062.414-.426.108-.96.162-1.602.162-.81 0-1.521-.159-2.133-.477a3.44 3.44 0 0 1-1.431-1.377c-.342-.6-.513-1.314-.513-2.142 0-.72.153-1.368.459-1.944a3.38 3.38 0 0 1 1.332-1.377c.588-.336 1.293-.504 2.115-.504.774 0 1.443.15 2.007.45.57.294 1.011.726 1.323 1.296s.468 1.266.468 2.088l-.009.297c0 .144-.006.24-.018.288h-5.544zm3.429-1.413c-.006-.192-.066-.399-.18-.621a1.44 1.44 0 0 0-.513-.567c-.234-.156-.546-.234-.936-.234s-.711.075-.963.225c-.246.15-.432.336-.558.558-.126.216-.198.429-.216.639h3.366zm14.149 4.599v-1.287c-.054.132-.192.318-.414.558s-.522.459-.9.657c-.372.192-.81.288-1.314.288-.708 0-1.335-.168-1.881-.504-.546-.342-.975-.807-1.287-1.395-.306-.594-.459-1.263-.459-2.007s.153-1.41.459-1.998a3.59 3.59 0 0 1 1.287-1.404c.546-.342 1.173-.513 1.881-.513.492 0 .918.084 1.278.252.366.162.66.354.882.576.228.216.375.411.441.585v-1.197h2.268v7.389h-2.241zm-4.014-3.69c0 .414.093.78.279 1.098a2 2 0 0 0 .738.729c.306.174.639.261.999.261a1.94 1.94 0 0 0 1.008-.261 1.91 1.91 0 0 0 .693-.738c.174-.318.261-.681.261-1.089a2.18 2.18 0 0 0-.261-1.08c-.168-.318-.399-.567-.693-.747a1.89 1.89 0 0 0-1.008-.27c-.36 0-.693.09-.999.27a1.98 1.98 0 0 0-.738.738c-.186.312-.279.675-.279 1.089zm14.49.504c.018.336.108.636.27.9s.396.471.702.621c.312.15.684.225 1.116.225.39 0 .732-.048 1.026-.144.3-.096.552-.213.756-.351.21-.144.366-.282.468-.414l.945 1.404c-.168.21-.393.405-.675.585-.276.174-.63.312-1.062.414-.426.108-.96.162-1.602.162-.81 0-1.521-.159-2.133-.477a3.44 3.44 0 0 1-1.431-1.377c-.342-.6-.513-1.314-.513-2.142 0-.72.153-1.368.459-1.944a3.38 3.38 0 0 1 1.332-1.377c.588-.336 1.293-.504 2.115-.504.774 0 1.443.15 2.007.45.57.294 1.011.726 1.323 1.296s.468 1.266.468 2.088l-.009.297c0 .144-.006.24-.018.288h-5.544zm3.429-1.413c-.006-.192-.066-.399-.18-.621a1.44 1.44 0 0 0-.513-.567c-.234-.156-.546-.234-.936-.234s-.711.075-.963.225c-.246.15-.432.336-.558.558-.126.216-.198.429-.216.639h3.366zm2.984-2.79h2.448l2.025 5.301 2.025-5.301h2.439l-3.123 7.389h-2.682l-3.132-7.389zm10.311 7.389v-7.389h2.277v7.389h-2.277zm1.17-9.297a1.31 1.31 0 0 1-.963-.396c-.258-.264-.387-.579-.387-.945a1.32 1.32 0 0 1 .396-.954c.264-.27.582-.405.954-.405a1.26 1.26 0 0 1 .675.189 1.42 1.42 0 0 1 .495.486c.126.204.189.432.189.684 0 .366-.135.681-.405.945a1.3 1.3 0 0 1-.954.396zm5.5 9.297h-2.295v-12.384h2.295V383.5zm8.867 3.744h-2.268v-11.133h2.295v1.197c.072-.174.228-.372.468-.594s.552-.414.936-.576c.39-.162.834-.243 1.332-.243.702 0 1.314.171 1.836.513s.924.81 1.206 1.404c.288.588.432 1.254.432 1.998s-.15 1.413-.45 2.007a3.52 3.52 0 0 1-1.251 1.395c-.534.336-1.155.504-1.863.504-.534 0-.993-.096-1.377-.288s-.684-.408-.9-.648-.348-.429-.396-.567v5.031zm3.996-7.434a2.14 2.14 0 0 0-.27-1.089 1.89 1.89 0 0 0-.702-.738 1.84 1.84 0 0 0-.981-.27c-.378 0-.72.09-1.026.27a1.98 1.98 0 0 0-.729.747 2.18 2.18 0 0 0-.261 1.08c0 .408.087.771.261 1.089a2 2 0 0 0 .729.738 2.04 2.04 0 0 0 1.026.261 1.89 1.89 0 0 0 .981-.261c.294-.174.528-.417.702-.729a2.19 2.19 0 0 0 .27-1.098zm6.033 3.69h-2.295v-12.384h2.295V383.5zm7.755 0v-1.287c-.054.132-.192.318-.414.558s-.522.459-.9.657c-.372.192-.81.288-1.314.288-.708 0-1.335-.168-1.881-.504-.546-.342-.975-.807-1.287-1.395-.306-.594-.459-1.263-.459-2.007s.153-1.41.459-1.998a3.59 3.59 0 0 1 1.287-1.404c.546-.342 1.173-.513 1.881-.513.492 0 .918.084 1.278.252.366.162.66.354.882.576.228.216.375.411.441.585v-1.197h2.268v7.389h-2.241zm-4.014-3.69c0 .414.093.78.279 1.098a2 2 0 0 0 .738.729c.306.174.639.261.999.261a1.94 1.94 0 0 0 1.008-.261 1.91 1.91 0 0 0 .693-.738c.174-.318.261-.681.261-1.089a2.18 2.18 0 0 0-.261-1.08c-.168-.318-.399-.567-.693-.747a1.89 1.89 0 0 0-1.008-.27c-.36 0-.693.09-.999.27a1.98 1.98 0 0 0-.738.738c-.186.312-.279.675-.279 1.089zm11.606 1.683l2.187-5.382h2.259l-5.049 11.133h-2.295l1.701-3.744-3.069-7.389h2.286l1.98 5.382zm7.121-1.179c.018.336.108.636.27.9s.396.471.702.621c.312.15.684.225 1.116.225.39 0 .732-.048 1.026-.144.3-.096.552-.213.756-.351.21-.144.366-.282.468-.414l.945 1.404c-.168.21-.393.405-.675.585-.276.174-.63.312-1.062.414-.426.108-.96.162-1.602.162-.81 0-1.521-.159-2.133-.477a3.44 3.44 0 0 1-1.431-1.377c-.342-.6-.513-1.314-.513-2.142 0-.72.153-1.368.459-1.944a3.38 3.38 0 0 1 1.332-1.377c.588-.336 1.293-.504 2.115-.504.774 0 1.443.15 2.007.45.57.294 1.011.726 1.323 1.296s.468 1.266.468 2.088l-.009.297c0 .144-.006.24-.018.288h-5.544zm3.429-1.413c-.006-.192-.066-.399-.18-.621a1.44 1.44 0 0 0-.513-.567c-.234-.156-.546-.234-.936-.234s-.711.075-.963.225c-.246.15-.432.336-.558.558-.126.216-.198.429-.216.639h3.366zm5.81 4.599h-2.286v-7.389h2.286v1.197h-.045c.042-.144.156-.327.342-.549a2.63 2.63 0 0 1 .792-.594c.336-.18.741-.27 1.215-.27.342 0 .651.051.927.153.282.096.483.192.603.288l-.9 1.872c-.078-.096-.225-.195-.441-.297-.21-.102-.474-.153-.792-.153-.378 0-.693.105-.945.315a1.91 1.91 0 0 0-.567.756c-.126.294-.189.57-.189.828v3.843z" fill="red"/></svg>