<svg xmlns="http://www.w3.org/2000/svg" width="192" height="192" fill="#000" xmlns:v="https://vecta.io/nano"><path d="M53.747 62.873l-.415 1.906c-.271 1.276-.463 3.048-.577 5.318l-.252 7.932-.122 10.277c-.027 3.838.328 7.427 1.065 10.766.743 3.339 1.778 6.862 3.106 10.57 1.323 3.708 2.77 7.234 4.342 10.578 1.572 3.35 3.819 6.857 6.74 10.521s5.746 6.51 8.472 8.551 5.179 3.746 7.358 5.13 4.713 2.481 7.602 3.29c2.884.814 5.32 1.398 7.309 1.751s4.119.353 6.391 0 5.003-1.48 8.195-3.38c3.193-1.894 6.377-3.887 9.554-5.977 3.171-2.09 5.913-4.321 8.228-6.694 2.314-2.367 4.073-4.788 5.277-7.264s2.32-5.255 3.349-8.338c1.03-3.089 1.759-6.159 2.188-9.21l.926-7.321a93.07 93.07 0 0 0 .399-5.025l.171-4.406.073-4.552.032-4.234c.011-1.2.027-1.857.049-1.971a1.18 1.18 0 0 1 .114-.326 1.11 1.11 0 0 1 .211-.269c.082-.076.174-.138.277-.187a1.01 1.01 0 0 1 .333-.09 1.04 1.04 0 0 1 .342.025.86.86 0 0 1 .317.13 1 1 0 0 1 .252.22c.076.087.135.185.179.293a1.2 1.2 0 0 1 .065.334 1.03 1.03 0 0 1-.041.342 1.12 1.12 0 0 1-.382.553c-.092.071-.193.122-.301.155s-.219.057-.333.057c-.12-.005-.233-.025-.342-.057-.108-.038-.208-.092-.301-.163a1.17 1.17 0 0 1-.227-.252.98.98 0 0 1-.138-.309 1.03 1.03 0 0 1-.041-.342 1.22 1.22 0 0 1 .081-.334 1.02 1.02 0 0 1 .179-.293 1.14 1.14 0 0 1 .26-.22 1.25 1.25 0 0 1 .317-.122 1.21 1.21 0 0 1 .342-.016 1.11 1.11 0 0 1 .325.098 1.13 1.13 0 0 1 .285.195 1.21 1.21 0 0 1 .203.269 1.02 1.02 0 0 1 .106.326l.024.171-.016 1.808-.041 4.243-.073 4.601-.171 4.495c-.081 1.564-.217 3.268-.406 5.114-.196 1.852-.521 4.368-.976 7.549a54.35 54.35 0 0 1-2.293 9.528c-1.062 3.176-2.258 6.088-3.586 8.738s-3.208 5.211-5.642 7.687-5.255 4.769-8.464 6.881a200.17 200.17 0 0 1-9.96 6.14c-3.426 1.982-6.394 3.152-8.903 3.51s-4.8.353-6.871-.016-4.64-.999-7.708-1.89-5.719-2.046-7.952-3.469c-2.233-1.417-4.778-3.203-7.635-5.358-2.851-2.161-5.786-5.144-8.805-8.949s-5.326-7.414-6.935-10.823c-1.604-3.415-3.084-7.02-4.439-10.814s-2.418-7.443-3.187-10.945c-.77-3.496-1.149-7.169-1.138-11.018l.073-10.334.211-8.151c.103-2.389.274-4.224.512-5.505l.398-2.06a1.32 1.32 0 0 1 .13-.277 1.16 1.16 0 0 1 .195-.236 1.08 1.08 0 0 1 .236-.179 1.19 1.19 0 0 1 .285-.122c.098-.033.198-.049.301-.049.092-.006.19 0 .293.016a1.36 1.36 0 0 1 .285.098c.092.043.179.098.26.163a1.16 1.16 0 0 1 .211.22 1.48 1.48 0 0 1 .154.261 1.28 1.28 0 0 1 .081.293c.022.103.027.201.016.293l-.008.155zm17.299 7.68l1.179-.627 2.325-1.108c.754-.315 1.461-.556 2.122-.725.661-.174 1.374-.258 2.138-.252a12.38 12.38 0 0 1 2.276.244 21.44 21.44 0 0 1 2.285.619 19.51 19.51 0 0 1 2.26.92l2.049.993 1.781.961c.553.331 1.217.809 1.992 1.433.77.63 1.358 1.167 1.764 1.612s.802.947 1.203 1.507a12.03 12.03 0 0 1 .992 1.653c.266.543.461.893.585 1.05a4.1 4.1 0 0 1 .333.489 2.12 2.12 0 0 1 .219.537c.054.19.084.383.089.578.011.195-.005.391-.049.586a2.29 2.29 0 0 1-.187.554c-.087.179-.192.342-.317.489a2.5 2.5 0 0 1-.423.407c-.157.114-.325.209-.504.285a2.64 2.64 0 0 1-.561.163c-.195.033-.39.038-.585.016a2.61 2.61 0 0 1-.577-.114c-.184-.065-.358-.152-.52-.261a2.29 2.29 0 0 1-.455-.366c-.136-.147-.564-.288-1.285-.423s-1.518-.429-2.39-.88a16.31 16.31 0 0 0-2.52-1.075l-2.39-.7a19.55 19.55 0 0 0-2.472-.456l-2.829-.277-3.179-.114c-1.095.011-2.076.095-2.943.252l-3.114.586-2.106.342a1.8 1.8 0 0 1-.537-.098 1.54 1.54 0 0 1-.471-.261 1.61 1.61 0 0 1-.366-.399 1.51 1.51 0 0 1-.219-.497 1.64 1.64 0 0 1-.057-.537 1.76 1.76 0 0 1 .13-.529c.07-.168.165-.32.285-.456a1.6 1.6 0 0 1 .415-.35 1.67 1.67 0 0 1 .512-.195 1.78 1.78 0 0 1 .537-.016 1.56 1.56 0 0 1 .52.155 1.65 1.65 0 0 1 .447.309 1.68 1.68 0 0 1 .317.44c.081.163.135.334.163.513a1.67 1.67 0 0 1-.008.546 1.65 1.65 0 0 1-.179.505 1.63 1.63 0 0 1-.333.432c-.135.125-.287.223-.455.293a1.61 1.61 0 0 1-.52.138 1.67 1.67 0 0 1-.545-.041 1.47 1.47 0 0 1-.496-.204 1.61 1.61 0 0 1-.407-.358 1.59 1.59 0 0 1-.382-1.002c-.005-.184.016-.364.065-.537a1.85 1.85 0 0 1 .236-.489 1.75 1.75 0 0 1 .382-.391c.146-.109.306-.19.48-.244l.26-.081 1.805-.244 3.269-.48 3.277-.456 3.447-.22 3.228.081c1.062.065 2.019.193 2.87.383l2.805.668c1.014.25 2.247.665 3.699 1.246l3.48 1.433c.867.375 1.35.646 1.447.814a2.12 2.12 0 0 1 .219.537c.054.19.084.383.089.578.011.195-.005.391-.049.586a2.29 2.29 0 0 1-.187.554c-.087.179-.192.342-.317.489a2.5 2.5 0 0 1-.423.407c-.157.114-.325.209-.504.285a2.64 2.64 0 0 1-.561.163c-.195.033-.39.038-.585.016a2.61 2.61 0 0 1-.577-.114c-.184-.065-.358-.152-.52-.261a2.29 2.29 0 0 1-.455-.366c-.136-.147-.333-.461-.594-.945l-.959-1.8c-.379-.722-.832-1.401-1.358-2.036a11.67 11.67 0 0 0-1.813-1.726c-.678-.521-1.325-.937-1.943-1.246l-1.772-.896c-.564-.282-1.431-.6-2.602-.953-1.165-.347-2.168-.527-3.008-.537-.846-.005-1.572.103-2.179.326s-1.298.567-2.073 1.018l-1.382.774a1.79 1.79 0 0 1-.471.13 1.92 1.92 0 0 1-.472.008c-.163-.011-.322-.044-.48-.098a1.9 1.9 0 0 1-.431-.22c-.136-.087-.26-.19-.374-.309a2.15 2.15 0 0 1-.285-.399 2.16 2.16 0 0 1-.179-.448c-.044-.158-.068-.318-.073-.48a2.33 2.33 0 0 1 .049-.472c.038-.157.092-.309.163-.456a1.85 1.85 0 0 1 .268-.407 1.8 1.8 0 0 1 .35-.326l.203-.147zm48.33 5.875l1.301-.252a14.75 14.75 0 0 1 2.853-.244c1.025.011 2.093.198 3.204.562s2.155.79 3.13 1.278l2.48 1.165c.672.293 1.518.871 2.537 1.734s1.715 1.634 2.073 2.329a23.26 23.26 0 0 1 1.09 2.451l.902 2.394c.244.646.157 1.477-.26 2.492s-1.266 1.349-2.545 1.002-2.225-.692-2.854-1.034l-2.195-1.368-2.423-1.498-2.325-1.352-2.131-1.222c-.645-.342-1.333-.627-2.065-.855s-1.648-.339-2.748-.334l-2.976.163-2.927.448-1.935.309a2.04 2.04 0 0 1-.65-.106 2.02 2.02 0 0 1-.586-.309 2.28 2.28 0 0 1-.455-.48 1.9 1.9 0 0 1-.276-.594c-.059-.217-.084-.437-.074-.66a1.88 1.88 0 0 1 .147-.643c.081-.206.192-.394.333-.562a2.01 2.01 0 0 1 .504-.432c.189-.114.393-.195.61-.244a2.08 2.08 0 0 1 .659-.041 2.13 2.13 0 0 1 .634.179 1.98 1.98 0 0 1 .553.367 2.14 2.14 0 0 1 .398.529 2.06 2.06 0 0 1 .211.619 2.21 2.21 0 0 1 0 .66 2.06 2.06 0 0 1-.211.627 1.92 1.92 0 0 1-.398.529 2.23 2.23 0 0 1-.545.375 2.13 2.13 0 0 1-.634.179c-.223.022-.442.008-.659-.041a1.8 1.8 0 0 1-.61-.244c-.195-.114-.363-.255-.504-.424s-.26-.356-.341-.562a2.27 2.27 0 0 1-.147-.652c-.01-.222.014-.44.074-.651.059-.217.151-.418.276-.603a2.02 2.02 0 0 1 .455-.481c.174-.136.366-.239.578-.309l.317-.106 1.65-.236 3.196-.513a19.98 19.98 0 0 1 2.894-.334c.894-.038 1.634-.016 2.22.065.58.087 1.374.361 2.382.823l2.529 1.262 2.097 1.222 2.391 1.287 2.536 1.344c.808.456 1.629 1.08 2.464 1.873s1.052 1.441.634 1.946-.707.478-.87-.081-.547-1.512-1.138-2.858c-.596-1.352-1.141-2.324-1.634-2.915s-1.057-1.059-1.691-1.401l-2.261-1.091-2.48-.969c-.78-.255-1.55-.391-2.309-.407s-1.572.065-2.439.244l-1.52.293c-.147.011-.293.003-.439-.024a1.63 1.63 0 0 1-.423-.122c-.135-.06-.263-.136-.382-.228a1.64 1.64 0 0 1-.317-.301c-.093-.119-.171-.247-.236-.383a2.02 2.02 0 0 1-.138-.415 2.04 2.04 0 0 1-.033-.44 1.72 1.72 0 0 1 .073-.432c.043-.142.101-.277.171-.407a1.93 1.93 0 0 1 .268-.358c.103-.103.22-.195.35-.277a2.07 2.07 0 0 1 .398-.187l.212-.065zm-12.497 23.234l-1.163-.595c-.78-.391-1.62-.711-2.52-.961l-2.943-.79-3.318-.822-3.057-.66-3.155-.692c-1.214-.299-2.184-.605-2.911-.92s-1.412-.855-2.057-1.604l-1.057-1.335-.195-.448c-.07-.157-.122-.32-.154-.489a2.03 2.03 0 0 1-.032-.513 2.37 2.37 0 0 1 .089-.513c.049-.163.119-.318.211-.464a1.79 1.79 0 0 1 .317-.407 1.98 1.98 0 0 1 .407-.326 2.38 2.38 0 0 1 .463-.212 2.36 2.36 0 0 1 .512-.09 2.27 2.27 0 0 1 .512.025 2.22 2.22 0 0 1 .488.155 1.96 1.96 0 0 1 .447.269 2.08 2.08 0 0 1 .366.358c.103.141.271.478.504 1.01.233.527.556 1.137.968 1.832l1.366 2.239c.504.803 1.046 1.517 1.626 2.142a18.99 18.99 0 0 0 1.805 1.71l1.951 1.466 1.919 1.238 2.349 1.278c.965.494 1.778.785 2.44.871a13.97 13.97 0 0 0 1.935.123c.634-.006 1.122-.356 1.463-1.051l.699-1.384a2.4 2.4 0 0 1 .472-.619c.184-.185.393-.331.626-.44a2.44 2.44 0 0 1 .748-.22c.26-.027.52-.014.781.041a2.35 2.35 0 0 1 .723.285 2.37 2.37 0 0 1 .594.497c.168.201.303.423.406.667s.155.497.171.758-.011.518-.081.773-.179.492-.325.709-.318.407-.529.57c-.206.157-.434.279-.683.366s-.504.131-.764.131a2.44 2.44 0 0 1-.765-.123 2.38 2.38 0 0 1-.691-.358c-.206-.157-.382-.345-.528-.562-.152-.217-.263-.453-.333-.708a2.41 2.41 0 0 1-.09-.766 2.6 2.6 0 0 1 .163-.765 2.44 2.44 0 0 1 .398-.668 2.25 2.25 0 0 1 .577-.505 2.54 2.54 0 0 1 .724-.293 2.31 2.31 0 0 1 .772-.049 2.38 2.38 0 0 1 .748.204 2.46 2.46 0 0 1 .651.432 2.38 2.38 0 0 1 .471.619 2.32 2.32 0 0 1 .253.733 2.53 2.53 0 0 1 .008.782l-.065.383-1.472 2.19c-.976 1.455-1.932 2.313-2.87 2.574s-1.816.35-2.618.268l-2.057-.301c-.575-.119-1.353-.432-2.334-.937l-2.284-1.262-1.732-1.115-2.09-1.409-2.252-1.686-2.236-2.019c-.764-.749-1.447-1.523-2.049-2.321-.596-.803-1.244-1.819-1.943-3.046l-1.146-2.077c-.07-.157-.122-.32-.154-.489a2.03 2.03 0 0 1-.032-.513 2.37 2.37 0 0 1 .089-.513c.049-.163.119-.318.211-.464a1.79 1.79 0 0 1 .317-.407 1.98 1.98 0 0 1 .407-.326 2.38 2.38 0 0 1 .463-.212 2.36 2.36 0 0 1 .512-.09 2.27 2.27 0 0 1 .512.025 2.22 2.22 0 0 1 .488.155 1.96 1.96 0 0 1 .447.269 2.08 2.08 0 0 1 .366.358c.103.141.233.426.39.855s.485.871.984 1.311c.504.445 1.239.869 2.203 1.27a17.94 17.94 0 0 0 2.756.912l3.082.594 3.439.586 3.415.684c1.166.261 2.141.586 2.927.977l1.358.709a1.63 1.63 0 0 1 .333.285 1.93 1.93 0 0 1 .252.35 1.85 1.85 0 0 1 .163.407c.038.141.06.285.065.432a2.25 2.25 0 0 1-.041.424 1.59 1.59 0 0 1-.154.415 2.02 2.02 0 0 1-.236.366 2.06 2.06 0 0 1-.325.293c-.119.087-.241.157-.382.212a1.89 1.89 0 0 1-.415.114 1.64 1.64 0 0 1-.431.008 1.86 1.86 0 0 1-.423-.098l-.211-.073zM45.26 60.156l.577-2.63c.39-1.759 1.098-3.236 2.122-4.43 1.03-1.2 2.225-2.12 3.586-2.761 1.361-.635 2.84-1.026 4.439-1.173a24.64 24.64 0 0 1 4.968.081c1.713.195 3.597.548 5.651 1.059l6.789 1.718 7.488 1.8 6.683 1.572 5.09 1.303 4.325 1.189 4.513 1.213 5.041 1.319 5.187 1.368 4.789 1.205 3.943 1.059 3.123.847 2.723.725a29.09 29.09 0 0 1 2.838 1.042l3.293 1.303 3.48 1.189 3.382 1.156 3.423 1.23 3.22 1.01 2.797.92 2.756 1.091c.949.385 1.913.855 2.894 1.409l2.456 1.401c.645.386 1.187.787 1.626 1.205.445.413.8.969 1.065 1.669.271.706.29 1.517.057 2.435s-.482 1.686-.764 2.305l-.911 1.832c-.33.603-1.276 1.287-2.837 2.052-1.567.766-2.469 1.148-2.708 1.148a2.18 2.18 0 0 1-.699-.098c-.228-.076-.436-.184-.626-.326a2.39 2.39 0 0 1-.496-.497c-.136-.195-.236-.407-.301-.635a2.08 2.08 0 0 1-.089-.7 2.26 2.26 0 0 1 .138-.692c.082-.222.206-.426.358-.611a2.08 2.08 0 0 1 .528-.472 2.16 2.16 0 0 1 .65-.269 2.14 2.14 0 0 1 .7-.049 2.12 2.12 0 0 1 .683.179 2.23 2.23 0 0 1 .585.383 2.15 2.15 0 0 1 .439.554 2.27 2.27 0 0 1 .236.668 2.08 2.08 0 0 1 .008.709 2.09 2.09 0 0 1-.211.668 2.24 2.24 0 0 1-.415.57 2.23 2.23 0 0 1-.577.407 2.14 2.14 0 0 1-.675.196 2.06 2.06 0 0 1-.707-.025 2.2 2.2 0 0 1-.659-.252 2.16 2.16 0 0 1-.545-.448 2.2 2.2 0 0 1-.374-.594 2.49 2.49 0 0 1-.162-.692c-.017-.233.005-.467.065-.7.059-.228.154-.442.284-.643a2.07 2.07 0 0 1 .48-.521 2.31 2.31 0 0 1 .618-.342l.333-.114 1.252-.391a3.42 3.42 0 0 0 1.952-1.49c.46-.733.74-1.487.837-2.264s-.116-1.382-.626-1.8-1.214-.877-2.114-1.376c-.894-.499-1.821-.95-2.781-1.352l-2.593-1.173c-.77-.385-1.651-.736-2.643-1.05l-3.26-1.083-3.399-1.156-3.398-1.083-3.627-1.14-3.333-1.222-2.643-1.099-2.601-.937-3.066-.936-3.902-1.05-4.814-1.205-5.187-1.368-5.057-1.327-4.521-1.205-4.285-1.173-5.057-1.287-6.692-1.563-7.521-1.792-6.643-1.669c-1.962-.489-3.729-.825-5.301-1.01-1.572-.179-3.036-.223-4.391-.13-1.355.098-2.583.385-3.683.863a8.67 8.67 0 0 0-2.886 2.028c-.824.874-1.398 2.166-1.724 3.876l-.545 2.704a1.32 1.32 0 0 1-.13.277 1.35 1.35 0 0 1-.187.236 1.28 1.28 0 0 1-.244.179 1.87 1.87 0 0 1-.285.122c-.098.027-.198.041-.301.041a1.1 1.1 0 0 1-.293-.024.93.93 0 0 1-.285-.098 1.3 1.3 0 0 1-.26-.163 1.62 1.62 0 0 1-.211-.22 1.24 1.24 0 0 1-.146-.261 1.08 1.08 0 0 1-.089-.293 1.07 1.07 0 0 1-.008-.293l.016-.155zm94.452 8.089l-1.537-2.37-3.334-5.114-3.171-4.797c-.916-1.379-1.845-2.554-2.788-3.526l-1.578-1.637a1.37 1.37 0 0 1-.26-.391 1.49 1.49 0 0 1-.122-.456c-.016-.158-.005-.315.033-.472a1.29 1.29 0 0 1 .179-.432 1.37 1.37 0 0 1 .309-.358c.119-.098.252-.176.398-.236a1.39 1.39 0 0 1 .463-.098c.158-.006.312.014.464.057a1.38 1.38 0 0 1 .423.204c.135.087.249.195.341.326.098.125.171.263.22.415a1.36 1.36 0 0 1 .065.464 1.31 1.31 0 0 1-.082.464 1.32 1.32 0 0 1-.219.415 1.47 1.47 0 0 1-.342.318 1.61 1.61 0 0 1-.431.196c-.151.043-.309.06-.471.049a1.46 1.46 0 0 1-.455-.106 1.33 1.33 0 0 1-.399-.252 1.49 1.49 0 0 1-.301-.358c-.081-.136-.138-.282-.17-.44-.033-.152-.041-.309-.025-.472a1.46 1.46 0 0 1 .138-.448 1.35 1.35 0 0 1 .261-.391 1.45 1.45 0 0 1 .382-.277 1.32 1.32 0 0 1 .447-.147 1.47 1.47 0 0 1 .463.008c.158.027.307.079.448.155l.211.114 1.602 1.865 3.057 3.884 3.35 4.674 3.585 4.935 1.773 2.459c.065.125.114.255.146.391a1.72 1.72 0 0 1 0 .814c-.032.13-.081.258-.146.383a1.67 1.67 0 0 1-.236.342c-.092.103-.195.193-.309.269a1.59 1.59 0 0 1-.366.195 1.71 1.71 0 0 1-.398.098 1.7 1.7 0 0 1-.407 0 1.71 1.71 0 0 1-.398-.098 1.8 1.8 0 0 1-.366-.187 1.86 1.86 0 0 1-.309-.277l-.138-.155zM69.005 47.432l2.179-1.181c1.458-.793 3.092-1.572 4.903-2.337l4.846-1.963 3.561-1.376 2.651-1.042 1.455-.521a1.38 1.38 0 0 1 .472 0 1.46 1.46 0 0 1 .447.155 1.53 1.53 0 0 1 .382.293 1.37 1.37 0 0 1 .26.391c.065.147.106.299.122.456a1.58 1.58 0 0 1-.024.48 1.56 1.56 0 0 1-.179.44c-.087.136-.19.255-.309.358a1.56 1.56 0 0 1-.407.244 1.72 1.72 0 0 1-.463.098c-.163.005-.32-.014-.472-.057a1.37 1.37 0 0 1-.431-.203 1.23 1.23 0 0 1-.341-.326 1.42 1.42 0 0 1-.219-.423c-.054-.152-.079-.307-.073-.464 0-.163.024-.32.073-.472a1.47 1.47 0 0 1 .228-.415 1.33 1.33 0 0 1 .35-.326 1.24 1.24 0 0 1 .431-.195 1.37 1.37 0 0 1 .472-.049 1.54 1.54 0 0 1 .463.106 1.56 1.56 0 0 1 .407.244 1.42 1.42 0 0 1 .301.367 1.4 1.4 0 0 1 .171.44 1.5 1.5 0 0 1 .024.472 1.38 1.38 0 0 1-.13.464 1.73 1.73 0 0 1-.268.391c-.108.114-.236.209-.382.285l-.211.106-1.203.318c-.808.212-1.683.491-2.626.839l-3.48 1.409-4.569 2.06c-1.68.787-3.222 1.618-4.626 2.492l-2.293 1.409a1.9 1.9 0 0 1-.382.106 1.35 1.35 0 0 1-.39.024 1.57 1.57 0 0 1-.39-.081 1.74 1.74 0 0 1-.366-.171c-.114-.071-.217-.155-.309-.253a1.56 1.56 0 0 1-.244-.318 1.7 1.7 0 0 1-.155-.366c-.038-.13-.06-.261-.065-.391s.005-.261.033-.391c.027-.136.068-.263.122-.383a2.28 2.28 0 0 1 .211-.342 1.95 1.95 0 0 1 .285-.277l.163-.122z"/><path d="M90.387 38.612l2.683.065c1.789.038 3.729.255 5.822.651l6.602 1.49 6.935 1.539 5.928 1.026 4.748.537 2.504.228a1.43 1.43 0 0 1 .39.187 1.18 1.18 0 0 1 .317.301 1.23 1.23 0 0 1 .196.383 1.26 1.26 0 0 1 .073.424 1.73 1.73 0 0 1-.073.432 1.53 1.53 0 0 1-.204.383 1.48 1.48 0 0 1-.317.293c-.124.081-.257.141-.398.179s-.282.052-.423.041a1.26 1.26 0 0 1-.423-.09 1.66 1.66 0 0 1-.374-.228 1.5 1.5 0 0 1-.276-.334c-.076-.125-.128-.258-.155-.399a1.32 1.32 0 0 1-.024-.432 1.3 1.3 0 0 1 .122-.423c.06-.13.141-.247.244-.35a1.31 1.31 0 0 1 .341-.261 1.25 1.25 0 0 1 .415-.138c.146-.022.29-.022.431 0a1.28 1.28 0 0 1 .406.147 1.37 1.37 0 0 1 .342.261 1.32 1.32 0 0 1 .244.358 1.49 1.49 0 0 1 .114.423 1.29 1.29 0 0 1-.025.432 1.33 1.33 0 0 1-.162.399c-.076.125-.171.233-.285.326a1.41 1.41 0 0 1-.374.22 1.25 1.25 0 0 1-.423.09l-.219.016-2.301-.366-4.805-.7-6.066-.961-6.96-1.433-6.301-1.295c-1.94-.32-3.805-.461-5.594-.423l-2.854.041a1.32 1.32 0 0 1-.358-.081c-.114-.049-.222-.106-.325-.171a1.5 1.5 0 0 1-.276-.244 1.33 1.33 0 0 1-.203-.309 1.31 1.31 0 0 1-.13-.342 1.36 1.36 0 0 1-.049-.358 1.36 1.36 0 0 1 .049-.358 1.43 1.43 0 0 1 .13-.35 1.4 1.4 0 0 1 .203-.301c.081-.092.173-.174.276-.244.103-.065.211-.122.325-.171a1.32 1.32 0 0 1 .358-.082l.179-.024zm-10.29 11.479l1.366-.757 2.659-1.563 1.569-.92c.19-.065.382-.103.577-.114a2 2 0 0 1 .593.073 1.92 1.92 0 0 1 .529.261 1.81 1.81 0 0 1 .423.415 1.9 1.9 0 0 1 .26.529 1.66 1.66 0 0 1 .089.586 1.88 1.88 0 0 1-.106.578 1.87 1.87 0 0 1-.293.521 1.69 1.69 0 0 1-.431.399 1.8 1.8 0 0 1-.545.236 1.91 1.91 0 0 1-.585.057 1.91 1.91 0 0 1-.577-.138 1.89 1.89 0 0 1-.496-.318 1.68 1.68 0 0 1-.374-.456 1.72 1.72 0 0 1-.211-.554 1.82 1.82 0 0 1-.016-.595 1.8 1.8 0 0 1 .163-.57c.087-.179.201-.339.342-.48a1.91 1.91 0 0 1 .48-.35 2.05 2.05 0 0 1 .561-.179 1.82 1.82 0 0 1 .594.016 1.68 1.68 0 0 1 .553.196 1.71 1.71 0 0 1 .463.366 1.96 1.96 0 0 1 .325.497 1.78 1.78 0 0 1 .146.578 1.95 1.95 0 0 1-.041.586 1.81 1.81 0 0 1-.236.546 1.8 1.8 0 0 1-.39.448l-.228.187-1.317.692-2.634 1.547-1.512.945c-.136.065-.276.111-.423.138a2.38 2.38 0 0 1-.439.024 2.08 2.08 0 0 1-.439-.081 2.04 2.04 0 0 1-.398-.187 1.57 1.57 0 0 1-.35-.277 1.59 1.59 0 0 1-.276-.35 1.72 1.72 0 0 1-.179-.407c-.043-.141-.071-.288-.081-.44-.005-.141.005-.285.032-.432a1.87 1.87 0 0 1 .13-.423c.065-.136.144-.263.236-.383a2.08 2.08 0 0 1 .309-.309l.179-.138z"/><path d="M53.645 72.143l1.878-2.231c1.252-1.493 3.163-3.287 5.732-5.383 2.575-2.101 5.209-3.532 7.903-4.292a76.74 76.74 0 0 1 8.293-1.865c2.84-.478 5.773-.717 8.797-.717 3.03.005 6.09.296 9.179.871l8.398 1.775 8.334 2.264c3.047.901 5.898 1.531 8.554 1.889l7.48 1.344 7.196 1.865c2.471.706 4.948 2.136 7.431 4.292s4.016 4.373 4.586 6.653c.569 2.286.501 4.786-.204 7.5s-1.91 5.054-3.618 7.02-3.721 3.344-6.041 4.137-5.016 1.24-8.074 1.344a104.46 104.46 0 0 1-8.772-.041l-7.944-.725-7.692-1.197-7.935-1.572-7.431-1.588-7.22-1.58-7.309-1.36c-2.352-.32-5.065-1.029-8.139-2.125-3.073-1.091-5.486-2.503-7.236-4.234-1.756-1.732-3.138-4.112-4.147-7.142-1.003-3.035-.759-3.456.732-1.262 1.496 2.193 1.534 2.657.114 1.392s-2.358-2.332-2.813-3.2a12.2 12.2 0 0 1-1.049-2.744c-.233-.961-.35-1.933-.35-2.915-.005-.988.111-1.96.35-2.915.233-.961.577-1.878 1.033-2.752s1.008-1.68 1.659-2.418c.656-.738 1.388-1.387 2.195-1.946.808-.565 1.669-1.021 2.585-1.368a12.01 12.01 0 0 1 2.846-.708 12.06 12.06 0 0 1 2.935 0c.976.114 1.924.345 2.846.692.922.353 1.789.809 2.602 1.368a12.44 12.44 0 0 1 2.195 1.938c.656.738-.699.223-4.065-1.547-3.366-1.775-3.77-2.676-1.211-2.704 2.553-.027 5.242.201 8.066.684s6.019 1.205 9.586 2.166l9.334 2.419 7.757 1.881 7.431 2.125 7.017 2.687 7.301 3.526c2.629 1.374 4.979 2.861 7.05 4.463a42.57 42.57 0 0 1 5.772 5.342c1.773 1.976 3.144 4.582 4.115 7.818.97 3.23 1.376 6.14 1.219 8.73s-.976 4.832-2.472 6.727-3.379 3.515-5.65 4.861-4.83 1.947-7.676 1.8-6.092-.806-9.74-1.979-7.12-2.147-10.415-2.907l-8.481-1.783-8.326-1.458-9.033-1.629a121.09 121.09 0 0 1-8.667-2.036l-7.903-2.435-5.269-1.963c-1.192-.489-2.198-.996-3.016-1.523-.819-.532-1.564-1.151-2.236-1.857a12.21 12.21 0 0 1-1.724-2.345 11.71 11.71 0 0 1-1.114-2.679 11.99 11.99 0 0 1-.447-2.875 12.39 12.39 0 0 1 .26-2.899c.206-.95.52-1.865.943-2.744a11.89 11.89 0 0 1 1.569-2.435c.623-.755 1.328-1.42 2.114-1.995.78-.581 1.621-1.059 2.52-1.433.9-.38 1.829-.643 2.789-.79.965-.147 1.932-.176 2.903-.09s1.916.288 2.838.603.201.29-2.163-.073-1.231-.687 3.399-.969 8.404-.312 11.326-.09l8.797.79 8.082.757a203.13 203.13 0 0 1 7.318.733l8.505.708 8.951.554a151.18 151.18 0 0 0 7.871.366c2.52.049 4.997.451 7.431 1.205 2.439.76 4.627 2.115 6.562 4.064 1.929 1.949 3.108 4.102 3.536 6.458.429 2.351.464 4.373.106 6.067s-.737 3.124-1.138 4.292-.97 2.239-1.724 3.216c-.748.977-1.634 1.811-2.659 2.5a11.11 11.11 0 0 1-3.309 1.523c-1.192.32-2.401.445-3.626.375a11.19 11.19 0 0 1-3.561-.798c-1.144-.462-2.182-1.094-3.114-1.898a11.15 11.15 0 0 1-2.35-2.793 11.35 11.35 0 0 1-1.333-3.404 11.12 11.12 0 0 1-.179-3.648c.135-1.227.466-2.397.992-3.51.52-1.118 1.206-2.123 2.057-3.013.851-.896 1.824-1.629 2.919-2.199a10.98 10.98 0 0 1 3.455-1.148c1.22-.195 2.437-.19 3.651.016s2.363.6 3.447 1.181 2.049 1.322 2.895 2.223a11.42 11.42 0 0 1 2.032 3.029 11.23 11.23 0 0 1 .952 3.526 11.16 11.16 0 0 1-.212 3.648c-.271 1.2-.726 2.329-1.366 3.388-.639 1.053-1.431 1.976-2.374 2.768s-1.986 1.415-3.13 1.865c-1.149.456-2.339.714-3.57.774s-2.436-.079-3.618-.415a11.22 11.22 0 0 1-3.301-1.548 11.2 11.2 0 0 1-2.634-2.524c-.743-.988-1.309-2.066-1.699-3.233-.385-1.173-.575-2.375-.569-3.607l.008-1.849.496-1.645c.325-1.091.845-.204 1.561 2.663s-.087 4.218-2.407 4.055l-7.862-.66-10.416-.847-9.764-.513-7.919-.098c-2.797-.016-5.404-.005-7.822.033l-8.635.497s-6.361.29-9.049-.008c-2.688-.304-4.442-.719-5.26-1.246-.819-.532-1.564-1.151-2.236-1.857-.667-.711-1.241-1.49-1.724-2.337a11.87 11.87 0 0 1-1.114-2.687 11.99 11.99 0 0 1-.447-2.875c-.027-.972.06-1.935.26-2.891a11.8 11.8 0 0 1 .943-2.752 11.89 11.89 0 0 1 1.569-2.435c.623-.755 1.328-1.42 2.114-1.995.78-.581 1.621-1.059 2.52-1.433s1.829-.638 2.789-.79c.965-.147 1.932-.176 2.903-.09s1.916.288 2.838.603 2.024.828 3.309 1.539c1.279.711 3.228 1.395 5.846 2.052l7.342 1.775 7.805 1.604 8.017 1.368 7.309 1.205 8.48 1.743c3.198.744 5.323 2.166 6.375 4.267s1.038 4.256-.057 6.466-2.67 2.579-4.724 1.108c-2.049-1.466-4.331-2.758-6.846-3.876-2.521-1.113-5.258-2.098-8.212-2.956l-8.854-2.492-7.96-1.987-7.399-1.84c-2.575-.711-5.065-1.126-7.472-1.246-2.401-.114-5.545-1.04-9.432-2.777s-6.057-3.04-6.513-3.909c-.461-.874-.808-1.789-1.041-2.744a12.06 12.06 0 0 1-.358-2.915c-.005-.988.111-1.96.35-2.915.233-.961.577-1.878 1.033-2.752s1.008-1.68 1.659-2.418c.656-.738 1.388-1.387 2.195-1.946.808-.565 1.669-1.021 2.585-1.368a12.01 12.01 0 0 1 2.846-.708 12.34 12.34 0 0 1 2.935-.008 12.26 12.26 0 0 1 2.846.7c.922.353 1.789.809 2.602 1.368a12.02 12.02 0 0 1 2.195 1.938c.65.738.42.611-.691-.383s-.271-.054 2.52 2.818c2.786 2.872 5.421 4.503 7.903 4.894s5.06.931 7.732 1.621l8.61 2.003 8.342 1.653 8.399 1.441 8.114 1.498c2.309.499 2.911 1.773 1.805 3.819-1.1 2.052-1.271 4.197-.512 6.433.753 2.231-.025 3.048-2.334 2.451l-7.488-1.694c-2.678-.537-5.572-1.308-8.684-2.313l-8.147-2.744-7.627-2.386c-2.77-.766-5.385-1.23-7.846-1.392-2.466-.152-5.315.062-8.545.643-3.225.592-5.526 1.577-6.903 2.956l-2.838 2.728c-.515.445-1.076.82-1.683 1.124-.607.309-1.241.54-1.903.692-.667.152-1.336.22-2.008.204a8.41 8.41 0 0 1-2.008-.277 8.38 8.38 0 0 1-1.878-.749 8.4 8.4 0 0 1-1.651-1.181c-.499-.461-.938-.974-1.317-1.539a8.76 8.76 0 0 1-.911-1.816c-.228-.641-.377-1.297-.447-1.971s-.06-1.346.033-2.02a8.13 8.13 0 0 1 .52-1.963 8.22 8.22 0 0 1 .968-1.783l.593-.831z" fill-opacity=".1"/><path d="M51.77 71.898l1.789-2.06c1.198-1.373 3.09-2.956 5.675-4.748s5.588-3.051 9.009-3.778c3.42-.733 6.995-1.175 10.724-1.327 3.729-.157 6.938-.081 9.627.228 2.694.304 5.19.635 7.488.994a127.55 127.55 0 0 1 6.871 1.262c2.282.489 4.799.95 7.553 1.384 2.754.44 5.504.926 8.253 1.458a75.83 75.83 0 0 1 8.081 2.044l7.546 2.288c2.39.706 4.656 1.577 6.797 2.614 2.141 1.042 3.258 1.618 3.35 1.726.092.114.49.483 1.195 1.108a11.41 11.41 0 0 1 1.862 2.093c.531.765.965 1.588 1.301 2.467.336.874.561 1.778.675 2.712s.113 1.867 0 2.801-.328 1.84-.659 2.72-.762 1.707-1.293 2.484c-.536.771-1.154 1.468-1.854 2.093s-1.466 1.156-2.301 1.596a11.25 11.25 0 0 1-2.609.993c-.911.228-1.835.342-2.773.342-.938.005-1.862-.103-2.773-.326a11.95 11.95 0 0 1-2.618-.993c-.829-.434.54-.429 4.106.016s4.147.928 1.757 1.45-4.936.855-7.635 1.002c-2.694.141-5.816.014-9.367-.383-3.555-.402-7.439-1.108-11.651-2.117s-7.697-1.93-10.456-2.761c-2.754-.825-5.361-1.553-7.822-2.183-2.466-.63-5.179-1.162-8.139-1.596a101.34 101.34 0 0 1-8.488-1.588c-2.699-.63-5.453-1.422-8.261-2.378-2.802-.955-5.575-2.38-8.318-4.275-2.737-1.889-4.266-4.704-4.586-8.445-.314-3.735.843-7.158 3.472-10.269 2.629-3.105 5.396-4.712 8.301-4.821 2.905-.103 5.911.171 9.017.822 3.111.646 5.868 1.099 8.269 1.36l5 .513c.938.087 2.049.261 3.334.521a11.9 11.9 0 0 1 3.618 1.376 11.93 11.93 0 0 1 3 2.467c.862.988 1.545 2.087 2.049 3.298s.802 2.47.895 3.778-.027 2.598-.358 3.868a12.11 12.11 0 0 1-1.569 3.55 12.04 12.04 0 0 1-2.626 2.85 11.95 11.95 0 0 1-3.399 1.873 11.84 11.84 0 0 1-3.813.692 12.09 12.09 0 0 1-3.838-.57c-1.247-.402-2.398-.991-3.456-1.767a12.03 12.03 0 0 1-2.708-2.769c-.753-1.075-1.314-2.239-1.683-3.493-.368-1.26-.528-2.546-.48-3.86.049-1.308.306-2.576.772-3.803a11.82 11.82 0 0 1 1.951-3.355 11.84 11.84 0 0 1 2.911-2.565c1.111-.695 2.304-1.192 3.577-1.49 1.274-.304 2.564-.396 3.87-.277a12.01 12.01 0 0 1 3.756.985c1.192.532 2.271 1.24 3.236 2.125a12.11 12.11 0 0 1 2.399 3.054 12.06 12.06 0 0 1 1.292 3.665 11.97 11.97 0 0 1 .065 3.884c-.195 1.297-.588 2.53-1.179 3.697-.596 1.162-1.363 2.201-2.301 3.119s-1.997 1.661-3.179 2.231a11.68 11.68 0 0 1-3.716 1.091l-1.951.244c.005 0-.965-.071-2.911-.212s-4.149-.445-6.61-.912-5.079-1.053-7.854-1.759-3.203-2.419-1.285-5.138c1.919-2.725 3.09-5.551 3.512-8.477.428-2.932 2.054-4.047 4.878-3.347 2.819.706 5.513 1.243 8.082 1.612 2.564.369 5.117.836 7.659 1.401a117.9 117.9 0 0 1 7.944 2.076l8.212 2.362c2.721.755 5.664 1.36 8.83 1.816 3.165.451 6.236.776 9.212.977l10.553.611c4.06.201 6.442.614 7.147 1.238a11.54 11.54 0 0 1 1.862 2.085 11.8 11.8 0 0 1 1.301 2.467c.336.879.561 1.786.675 2.72s.113 1.867 0 2.801-.328 1.84-.659 2.72a11.47 11.47 0 0 1-1.293 2.476 11.37 11.37 0 0 1-1.854 2.101c-.699.624-1.463 1.156-2.292 1.596-.835.44-1.708.771-2.618.993-.911.228-1.835.342-2.773.342-.938.005-1.862-.103-2.773-.326s-1.783-.554-2.618-.993c-.829-.434-.973-.592-.431-.472.548.119-.273-.301-2.463-1.262-2.185-.966-4.838-1.952-7.96-2.956s-5.819-1.781-8.106-2.329c-2.288-.554-4.857-1.127-7.708-1.718-2.851-.597-6.041-1.387-9.57-2.37-3.523-.983-6.71-1.737-9.562-2.264-2.851-.521-5.428-.863-7.732-1.026-2.304-.157-4.708-.133-7.212.073-2.499.212-4.404.947-5.716 2.207-1.312 1.254-2.236 2.104-2.773 2.549a8.59 8.59 0 0 1-1.74 1.108c-.629.299-1.282.519-1.959.66a8.76 8.76 0 0 1-2.057.179c-.694-.027-1.374-.136-2.041-.326a8.9 8.9 0 0 1-1.903-.806 8.8 8.8 0 0 1-1.659-1.238c-.504-.483-.94-1.018-1.309-1.604a8.55 8.55 0 0 1-.894-1.865c-.222-.662-.363-1.338-.423-2.028a8.82 8.82 0 0 1 .081-2.068 8.49 8.49 0 0 1 .569-1.987c.271-.641.612-1.24 1.024-1.8l.626-.831z" fill-opacity=".1"/><path d="M46.96 138.345l.537-2.402c.358-1.602.618-3.458.781-5.57l.195-5.839-.13-4.006c-.06-.896-.065-1.982-.016-3.258l.146-2.15a1.7 1.7 0 0 1 .219-.431 1.66 1.66 0 0 1 .358-.35 1.6 1.6 0 0 1 .447-.212 1.59 1.59 0 0 1 .488-.057 1.31 1.31 0 0 1 .48.106 1.47 1.47 0 0 1 .423.244 1.54 1.54 0 0 1 .325.375 1.52 1.52 0 0 1 .187.456 1.53 1.53 0 0 1 .033.496c-.016.163-.057.321-.122.473a1.67 1.67 0 0 1-.276.415 1.64 1.64 0 0 1-.39.301 1.44 1.44 0 0 1-.463.163 1.68 1.68 0 0 1-.496.008 1.55 1.55 0 0 1-.464-.154c-.152-.076-.285-.174-.398-.294a1.8 1.8 0 0 1-.276-.407 1.46 1.46 0 0 1-.13-.472c-.022-.168-.016-.334.016-.497s.092-.317.179-.464a1.45 1.45 0 0 1 .309-.374 1.56 1.56 0 0 1 .415-.261 1.53 1.53 0 0 1 .488-.114c.163-.011.325.005.488.049a1.45 1.45 0 0 1 .447.203c.141.093.263.204.366.334a1.58 1.58 0 0 1 .236.44 1.47 1.47 0 0 1 .081.48v.253l-.171 1.629-.179 2.972.138 4.145c.098 1.862.103 3.917.016 6.164l-.496 5.807-.423 2.63c-.043.136-.1.263-.171.383s-.157.23-.26.333a1.64 1.64 0 0 1-.325.253 1.59 1.59 0 0 1-.382.171 1.84 1.84 0 0 1-.415.081 1.69 1.69 0 0 1-.406-.032 1.45 1.45 0 0 1-.398-.122c-.13-.06-.249-.133-.358-.22a1.74 1.74 0 0 1-.301-.293 1.73 1.73 0 0 1-.211-.359 1.8 1.8 0 0 1-.13-.399 2.15 2.15 0 0 1-.024-.415l.016-.212zm-.102-29.756l-1.13-.847-1.968-1.482a16.28 16.28 0 0 1-1.781-1.605l-1.561-1.702c-.412-.494-.886-.947-1.423-1.36-.537-.407-1.309-.635-2.317-.684-1.014-.048-1.699.18-2.057.684-.352.511-1.13 1.355-2.334 2.533s-1.927 1.805-2.171 1.881a2.43 2.43 0 0 1-.764.122 2.37 2.37 0 0 1-.756-.138 2.46 2.46 0 0 1-.675-.367 2.22 2.22 0 0 1-.52-.561c-.141-.217-.247-.451-.317-.701s-.09-.51-.073-.765a2.33 2.33 0 0 1 .171-.749 2.47 2.47 0 0 1 .407-.66 2.26 2.26 0 0 1 .593-.489 2.42 2.42 0 0 1 .715-.277 2.26 2.26 0 0 1 .764-.032 2.44 2.44 0 0 1 .74.212 2.41 2.41 0 0 1 .626.439 2.26 2.26 0 0 1 .463.619 2.28 2.28 0 0 1 .236.733 2.42 2.42 0 0 1-.008.766c-.043.255-.127.496-.252.724s-.282.432-.472.611a2.45 2.45 0 0 1-.642.424 2.25 2.25 0 0 1-.74.195c-.26.027-.518.011-.772-.049a2.44 2.44 0 0 1-.707-.293 2.24 2.24 0 0 1-.577-.505 2.33 2.33 0 0 1-.39-.66 2.41 2.41 0 0 1-.154-.757c-.011-.26.019-.516.089-.765a2.23 2.23 0 0 1 .333-.693 2.44 2.44 0 0 1 .529-.553l.317-.228 1.065-1.075 2.106-2.256c.699-.793 1.474-1.349 2.325-1.669s1.621-.475 2.309-.464c.694.005 1.518.111 2.472.317s1.781.51 2.48.912c.705.407 1.241.847 1.61 1.319l1.179 1.483 1.138 1.514a7.07 7.07 0 0 0 1.211 1.328c.46.391 1.087.846 1.878 1.351l1.382.937a1.99 1.99 0 0 1 .333.374 2.12 2.12 0 0 1 .236.448 1.9 1.9 0 0 1 .114.489 1.88 1.88 0 0 1 0 .497 2.14 2.14 0 0 1-.122.488 2.07 2.07 0 0 1-.236.448 1.96 1.96 0 0 1-.333.375 2.3 2.3 0 0 1-.415.285 2.31 2.31 0 0 1-.463.179 2.24 2.24 0 0 1-.496.057 2.17 2.17 0 0 1-.496-.057 2.26 2.26 0 0 1-.472-.179l-.228-.122z"/><path d="M26.377 103.842l.041-1.791-.024-2.867c-.049-.711.014-1.417.187-2.117.179-.706.455-1.365.829-1.979s.77-1.121 1.187-1.523c.423-.402 1.095-.917 2.016-1.547s1.683-1.056 2.285-1.279c.602-.228 1.222-.396 1.862-.505.64-.114 1.556-.133 2.748-.057 1.193.071 2.084.261 2.675.57s1.127.687 1.61 1.132c.482.44 1.182 1.243 2.098 2.41.921 1.167 1.423 1.878 1.504 2.133.087.255.13.519.13.79a2.58 2.58 0 0 1-.138.782 2.42 2.42 0 0 1-.374.7 2.51 2.51 0 0 1-.577.546c-.222.152-.463.263-.724.334-.255.071-.518.098-.789.081a2.39 2.39 0 0 1-.772-.179 2.31 2.31 0 0 1-.675-.407c-.206-.179-.377-.383-.512-.611-.141-.234-.239-.481-.293-.741s-.068-.524-.041-.79c.032-.271.106-.527.22-.766.114-.244.263-.464.447-.66s.396-.356.634-.48.488-.206.748-.244a2.45 2.45 0 0 1 .797 0 2.27 2.27 0 0 1 .748.261c.239.125.45.285.634.48s.331.415.439.66a2.37 2.37 0 0 1 .211.766 2.48 2.48 0 0 1-.049.798 2.53 2.53 0 0 1-.293.733 2.51 2.51 0 0 1-.52.603c-.206.174-.434.309-.683.407a2.53 2.53 0 0 1-.772.171 2.59 2.59 0 0 1-.789-.09c-.26-.076-.501-.19-.724-.342-.217-.147-.407-.328-.569-.546l-.244-.318-.919-1.173c-.607-.782-1.165-1.403-1.675-1.865s-1.146-.673-1.911-.635-1.518.187-2.26.448c-.743.255-1.398.559-1.968.912-.575.347-1.065.774-1.472 1.278s-.607 1.088-.602 1.751.081 1.588.228 2.777l.195 2.028c-.011.168-.041.331-.09.489a2.25 2.25 0 0 1-.211.447 2.09 2.09 0 0 1-.309.391c-.119.114-.249.215-.39.302-.146.086-.298.152-.455.195-.157.049-.32.079-.488.09-.163.005-.325-.009-.488-.041s-.32-.076-.472-.147a2.19 2.19 0 0 1-.415-.26c-.13-.109-.247-.228-.35-.359s-.187-.271-.252-.423-.111-.312-.138-.48l-.049-.245z"/><path d="M42.038 94.693l-.179-1.156-.35-2.052c-.119-.592-.61-1.387-1.472-2.386s-1.642-1.77-2.342-2.313c-.705-.543-1.428-.969-2.171-1.279-.743-.315-1.526-.462-2.35-.44s-1.323.016-1.496-.016-.341-.09-.504-.171a2.43 2.43 0 0 1-.455-.277 2.44 2.44 0 0 1-.366-.383 2.35 2.35 0 0 1-.268-.464c-.071-.163-.122-.334-.155-.513-.027-.174-.032-.35-.016-.529.011-.179.043-.353.098-.521.06-.174.136-.337.228-.489.098-.152.211-.29.341-.415a2.27 2.27 0 0 1 .423-.318c.152-.092.314-.163.488-.212a2.49 2.49 0 0 1 .52-.09c.179-.005 1.046-.25 2.602-.733l3.829-1.075c.997-.233 1.913-.361 2.748-.383s1.756.22 2.764.725c1.003.505 1.881 1.059 2.634 1.661.759.603 1.401 1.213 1.927 1.832s1.114 1.718 1.764 3.298l1.049 2.695a2.17 2.17 0 0 1 .024.676c-.032.223-.098.437-.195.643-.098.201-.228.383-.39.546a1.99 1.99 0 0 1-.545.399 2.02 2.02 0 0 1-.642.204 2.29 2.29 0 0 1-.667-.016c-.222-.044-.434-.12-.634-.228-.2-.114-.377-.255-.528-.424a2.13 2.13 0 0 1-.366-.562c-.092-.206-.146-.423-.163-.651-.022-.228-.005-.453.049-.676.054-.217.141-.423.26-.619.125-.19.274-.358.447-.505a2.24 2.24 0 0 1 .585-.334 2.25 2.25 0 0 1 .659-.13c.228-.005.45.024.667.09s.417.163.602.293c.184.136.344.293.48.472.136.185.236.385.301.603.071.217.103.44.098.668a2.09 2.09 0 0 1-.122.66c-.081.217-.192.415-.333.595-.141.174-.306.323-.496.448s-.396.214-.618.269c-.217.06-.439.079-.667.057a2.04 2.04 0 0 1-.651-.155 1.94 1.94 0 0 1-.569-.358c-.168-.152-.309-.326-.423-.521l-.171-.301-.431-1.547c-.282-1.037-.604-1.897-.968-2.582a5.66 5.66 0 0 0-1.447-1.734c-.585-.478-1.339-.915-2.26-1.311s-1.816-.47-2.683-.22c-.867.255-1.908.651-3.122 1.189s-2.263.917-3.146 1.14-1.412.318-1.586.285-.341-.09-.504-.171a2.43 2.43 0 0 1-.455-.277 2.44 2.44 0 0 1-.366-.383 2.35 2.35 0 0 1-.268-.464c-.071-.163-.122-.334-.155-.513-.027-.174-.032-.35-.016-.529.011-.179.043-.353.098-.521.06-.174.136-.337.228-.489a2.49 2.49 0 0 1 .333-.415c.13-.119.274-.225.431-.318.152-.092.314-.163.488-.212.168-.049.341-.079.52-.09.179-.005.564.033 1.155.114.585.081 1.39.285 2.415.611 1.024.331 1.816.679 2.374 1.042l2.228 1.507c.921.635 1.759 1.333 2.512 2.093.748.76 1.369 1.572 1.862 2.435s.791 1.626.894 2.288l.342 2.166.179 1.409a1.94 1.94 0 0 1-.041.464c-.032.158-.084.309-.154.456a2.1 2.1 0 0 1-.26.399 1.62 1.62 0 0 1-.342.326 1.86 1.86 0 0 1-.415.236 2.17 2.17 0 0 1-.464.13 2.22 2.22 0 0 1-.463.016c-.163-.016-.317-.052-.463-.106a1.84 1.84 0 0 1-.431-.204 1.82 1.82 0 0 1-.366-.309c-.114-.114-.209-.242-.285-.383a1.76 1.76 0 0 1-.187-.44l-.065-.228z"/><path d="M47.493 89.091l.098-2.06.325-3.738.35-2.915c.087-.825.461-1.751 1.122-2.777s1.426-1.485 2.293-1.376 1.726.66 2.577 1.653c.856.988 1.512 1.949 1.968 2.883s.794 1.846 1.016 2.736a19.75 19.75 0 0 1 .471 2.557l.26 3.192.073 2.296a1.81 1.81 0 0 1-.187.594 1.77 1.77 0 0 1-.366.505c-.152.147-.32.266-.504.358-.19.092-.39.152-.602.179-.206.027-.412.022-.618-.016a2.07 2.07 0 0 1-.585-.22 1.9 1.9 0 0 1-.48-.399c-.141-.157-.252-.331-.333-.521-.081-.195-.13-.399-.146-.611a1.97 1.97 0 0 1 .049-.619c.054-.206.138-.396.252-.57.114-.179.255-.334.423-.464.163-.13.344-.231.545-.301a1.93 1.93 0 0 1 .61-.114c.211-.005.417.025.618.09a1.76 1.76 0 0 1 .553.277 1.81 1.81 0 0 1 .439.448c.119.168.211.353.276.554.06.206.084.413.073.619-.005.212-.046.418-.122.619-.071.195-.173.375-.309.537-.13.163-.285.301-.463.415-.179.109-.371.19-.577.244a1.81 1.81 0 0 1-.618.041 1.76 1.76 0 0 1-.602-.155c-.195-.082-.369-.193-.52-.334a1.89 1.89 0 0 1-.39-.489 1.9 1.9 0 0 1-.211-.586l-.057-.318-.041-1.84-.106-2.85c-.043-.673-.119-1.327-.228-1.963-.108-.641-.322-1.306-.642-1.995l-1.041-2.06c-.368-.684-.621-.627-.756.171l-.342 2.695c-.087 1.004-.098 2.193-.032 3.567l.073 2.272a1.62 1.62 0 0 1-.106.424 1.53 1.53 0 0 1-.203.383c-.081.119-.176.228-.285.326a1.6 1.6 0 0 1-.358.244 1.61 1.61 0 0 1-.407.155c-.141.032-.282.049-.423.049s-.282-.016-.423-.049a1.61 1.61 0 0 1-.407-.155 1.6 1.6 0 0 1-.358-.244c-.108-.098-.203-.206-.285-.326a1.53 1.53 0 0 1-.203-.383c-.054-.136-.089-.277-.106-.424l-.024-.212z"/><path d="M56.504 93.287l.398-1.368a7.04 7.04 0 0 1 1.301-2.492c.602-.755 1.501-1.208 2.699-1.36 1.198-.147 2.537.138 4.016.855l3.537 1.865c.883.527 1.577 1.021 2.081 1.482.51.462.919 1.186 1.228 2.174.314.999-.011 1.895-.976 2.687-.959.793-1.813 1.284-2.561 1.474l-1.813.538c-.461.168-.71.366-.748.594-.038.223-.111.434-.219.635s-.247.38-.415.537a2.31 2.31 0 0 1-.561.375 2.16 2.16 0 0 1-.659.171 2.11 2.11 0 0 1-.667-.041 2.19 2.19 0 0 1-.626-.26c-.195-.12-.366-.266-.512-.44s-.26-.375-.342-.586-.127-.432-.138-.66a2.05 2.05 0 0 1 .081-.676c.065-.217.16-.421.285-.611.13-.185.287-.345.472-.48a2.11 2.11 0 0 1 .602-.309 2.14 2.14 0 0 1 .667-.106 2 2 0 0 1 .667.114 2.04 2.04 0 0 1 .593.326c.179.141.331.307.455.497a2.12 2.12 0 0 1 .276.619 1.97 1.97 0 0 1 .065.668 1.97 1.97 0 0 1-.146.659c-.087.212-.206.405-.358.579-.146.173-.32.317-.52.431-.195.114-.404.196-.626.244a2.15 2.15 0 0 1-.675.025 2.1 2.1 0 0 1-.65-.187c-.206-.098-.39-.226-.553-.383s-.298-.339-.407-.546c-.103-.201-.171-.415-.203-.643l-.057-.334 2.342-2.264c1.556-1.509 2.651-2.334 3.285-2.476.629-.141.55-.437-.236-.888-.791-.456-1.707-.92-2.748-1.392s-1.859-.711-2.455-.717-1.003.432-1.22 1.311l-.407 1.531a1.88 1.88 0 0 1-.211.399c-.092.125-.195.236-.309.334a1.71 1.71 0 0 1-.374.244 1.7 1.7 0 0 1-.431.155c-.146.033-.293.049-.439.049-.152-.005-.301-.027-.447-.065a1.63 1.63 0 0 1-.415-.171 1.6 1.6 0 0 1-.366-.261c-.114-.103-.214-.217-.301-.342-.081-.13-.146-.266-.195-.407a1.74 1.74 0 0 1-.106-.44c-.011-.147-.008-.296.008-.448l.032-.22z"/><path d="M64.33 101.296l-1.26.757c-.851.51-1.51 1.029-1.976 1.555-.472.527-.773 1.094-.902 1.702-.13.603-.108 1.366.065 2.289a19.01 19.01 0 0 0 .732 2.728 27.67 27.67 0 0 1 .805 2.76c.228.939.398 2.213.512 3.819l.073 2.72a1.88 1.88 0 0 1-.293.57 1.93 1.93 0 0 1-.455.44c-.179.125-.371.217-.577.277s-.417.084-.634.073a2.05 2.05 0 0 1-.626-.13c-.201-.076-.382-.19-.545-.326s-.306-.296-.415-.48a1.97 1.97 0 0 1-.244-.595c-.049-.206-.062-.418-.041-.635s.076-.415.163-.611c.092-.2.211-.38.358-.537a1.95 1.95 0 0 1 .504-.391 1.85 1.85 0 0 1 .602-.204 1.93 1.93 0 0 1 .634-.008 1.96 1.96 0 0 1 .602.196c.195.103.366.23.512.383a1.95 1.95 0 0 1 .366.529c.092.19.149.393.171.611a1.94 1.94 0 0 1-.024.635 1.82 1.82 0 0 1-.236.594 1.93 1.93 0 0 1-.407.489c-.163.141-.344.252-.545.334a1.98 1.98 0 0 1-.618.146c-.211.011-.423-.011-.634-.065a1.91 1.91 0 0 1-.577-.26 1.88 1.88 0 0 1-.463-.44c-.136-.168-.239-.356-.309-.562s-.106-.41-.106-.627v-.318l.024-1.685c.016-1.124-.07-2.077-.26-2.859-.19-.787-.474-1.639-.854-2.557-.379-.912-.702-1.873-.968-2.882s-.323-1.86-.171-2.549c.152-.695.415-1.55.789-2.565a7.66 7.66 0 0 1 1.634-2.68 14.44 14.44 0 0 1 2.309-1.995l1.439-.953c.141-.065.285-.114.431-.147.152-.033.301-.046.447-.041a2.19 2.19 0 0 1 .455.065 1.88 1.88 0 0 1 .415.179 1.86 1.86 0 0 1 .366.269 1.84 1.84 0 0 1 .293.358 1.59 1.59 0 0 1 .203.407c.049.147.079.296.09.448a1.82 1.82 0 0 1-.008.448 2.05 2.05 0 0 1-.13.439 2.21 2.21 0 0 1-.22.399 1.85 1.85 0 0 1-.317.334l-.179.147zm51.567 47.925l1.57-1.922c1.051-1.287 2.059-2.712 3.024-4.275.96-1.564 1.634-3.051 2.025-4.463s.615-2.703.674-3.86l.147-3.68c.038-1.298.154-2.525.349-3.681l.635-2.989c.222-.841.471-1.566.748-2.174l.813-1.726.975-2.224c.385-.939.86-1.696 1.423-2.272l1.586-1.767c.493-.597.967-1.085 1.423-1.465l1.975-1.548 1.602-1.189a2.19 2.19 0 0 1 .667-.309 2.04 2.04 0 0 1 .723-.082 2.15 2.15 0 0 1 .716.155c.233.092.442.217.626.375.19.163.35.35.48.562a2.35 2.35 0 0 1 .268.676c.054.238.068.483.041.732s-.087.481-.196.709a2.25 2.25 0 0 1-.406.603 2.31 2.31 0 0 1-.577.447c-.223.114-.453.193-.691.237-.244.038-.488.038-.732 0a2.16 2.16 0 0 1-.699-.237c-.217-.114-.41-.26-.578-.439s-.311-.38-.414-.603-.168-.464-.195-.708-.017-.489.032-.733.144-.464.268-.676a2.48 2.48 0 0 1 .472-.562 2.25 2.25 0 0 1 .626-.383 2.21 2.21 0 0 1 .715-.155 2.22 2.22 0 0 1 .732.074c.239.065.458.168.659.309a2.14 2.14 0 0 1 .536.505 2.11 2.11 0 0 1 .342.643 2.2 2.2 0 0 1 .122.725 2.38 2.38 0 0 1-.114.725 2.36 2.36 0 0 1-.341.643l-.228.293-1.618 1.108-2.374 1.702-1.935 1.539c-.781.619-1.423 1.346-1.927 2.182l-1.724 2.59c-.645.885-1.114 1.669-1.407 2.353-.292.69-.531 1.55-.715 2.582s-.274 2.207-.285 3.526l-.097 3.982c-.049 1.341-.29 2.837-.724 4.487s-1.135 3.32-2.106 5.024-1.951 3.231-2.927 4.577l-1.601 2.142a1.51 1.51 0 0 1-.301.244 1.62 1.62 0 0 1-.342.155 1.82 1.82 0 0 1-.374.073c-.124.011-.249.003-.374-.024a1.6 1.6 0 0 1-.366-.106c-.119-.055-.23-.12-.333-.196s-.187-.171-.268-.269-.149-.211-.204-.325c-.054-.12-.092-.242-.113-.367a1.81 1.81 0 0 1-.025-.374 1.45 1.45 0 0 1 .065-.375c.038-.125.09-.241.155-.35l.097-.171zm12.478-1.718l.456-1.344c.298-.896.683-1.873 1.154-2.932l1.602-3.175 1.594-3.03 1.235-2.768c.358-.88.673-1.806.944-2.777l.658-2.965c.174-.993.277-1.856.309-2.589s.157-1.382.39-1.963.626-1.194 1.196-1.84l2.317-2.524 1.699-1.727a1.66 1.66 0 0 1 .529-.26 1.71 1.71 0 0 1 .577-.082c.195 0 .387.035.577.106a1.76 1.76 0 0 1 .512.285c.152.125.282.271.391.44a1.67 1.67 0 0 1 .227.537 1.92 1.92 0 0 1 .057.587c-.016.195-.065.385-.146.57-.076.179-.179.344-.309.496-.136.147-.287.269-.455.367a1.86 1.86 0 0 1-.553.203c-.195.038-.391.044-.586.017a1.92 1.92 0 0 1-.561-.171 1.76 1.76 0 0 1-.479-.342c-.136-.142-.25-.299-.342-.473-.087-.179-.144-.366-.171-.562s-.021-.391.017-.586c.032-.195.097-.38.195-.554a1.76 1.76 0 0 1 .366-.456c.146-.135.311-.241.496-.317.178-.082.368-.131.569-.147.195-.016.39 0 .585.049.19.049.369.125.537.228a1.91 1.91 0 0 1 .439.391c.125.157.219.328.284.513.071.184.109.377.114.578a1.89 1.89 0 0 1-.073.578c-.06.19-.146.367-.26.53l-.179.236c.005 0-.504.491-1.529 1.474l-2.488 2.296c-.639.554-1.019 1.205-1.138 1.954l-.455 2.745-.716 3.273c-.292 1.102-.639 2.107-1.04 3.013l-1.293 2.859-1.423 3.021-1.293 3.054-1 2.874-.536 1.515c-.055.119-.122.228-.204.326-.086.103-.181.195-.284.277-.103.076-.214.141-.334.195s-.249.084-.374.106-.257.027-.382.016c-.135-.011-.263-.038-.382-.081-.125-.038-.244-.093-.358-.163-.108-.071-.208-.155-.3-.253a1.42 1.42 0 0 1-.236-.309c-.065-.114-.117-.233-.155-.358-.032-.125-.051-.253-.057-.383a1.74 1.74 0 0 1 .025-.383l.04-.195z"/><path d="M136.455 110.87l-.358-1.165c-.238-.776-.526-1.476-.862-2.101-.341-.629-.951-1.075-1.829-1.335-.873-.266-1.662-.285-2.366-.057-.699.222-1.285.526-1.756.912-.477.385-.922.887-1.334 1.506l-.845 1.181c-.147.168-.32.31-.521.424a2.25 2.25 0 0 1-.626.219 2.01 2.01 0 0 1-.675.017c-.222-.027-.436-.09-.642-.188a2.01 2.01 0 0 1-.545-.39c-.157-.163-.287-.345-.39-.546a2.23 2.23 0 0 1-.195-.643 2.36 2.36 0 0 1 .016-.676c.043-.223.122-.432.236-.627a2.17 2.17 0 0 1 .423-.521c.168-.152.355-.275.561-.367a2.12 2.12 0 0 1 .65-.155c.228-.021.453-.005.675.049.217.06.42.15.61.269.195.125.363.274.504.448a2.07 2.07 0 0 1 .325.586c.081.212.125.432.13.66s-.027.45-.097.668c-.065.217-.163.418-.293.602-.136.185-.295.342-.48.472s-.385.223-.601.294a2.09 2.09 0 0 1-.659.089 2.26 2.26 0 0 1-.659-.13 1.73 1.73 0 0 1-.585-.326 1.94 1.94 0 0 1-.447-.497 1.98 1.98 0 0 1-.269-.618 1.99 1.99 0 0 1-.048-.668c.016-.228.07-.445.162-.652l.13-.317 1.155-1.417c.77-.945 1.575-1.721 2.415-2.329.845-.608 1.905-1.124 3.179-1.547 1.279-.429 2.366-.573 3.26-.432.9.147 1.756.499 2.569 1.059s1.426 1.189 1.838 1.873a10.81 10.81 0 0 1 .935 1.962l.691 2.093.407 1.401c.027.157.035.312.024.464s-.041.312-.089.464-.114.288-.196.423a1.91 1.91 0 0 1-.292.375 1.89 1.89 0 0 1-.366.285 2.04 2.04 0 0 1-.431.195c-.152.044-.306.071-.463.082s-.307 0-.464-.033c-.152-.027-.301-.073-.447-.138a2.05 2.05 0 0 1-.399-.244c-.124-.098-.235-.209-.333-.334a1.97 1.97 0 0 1-.244-.407l-.089-.212z"/><path d="M123.603 107.718l.479-1.767.952-3.2c.314-.956.796-1.819 1.447-2.59.656-.77 1.35-1.37 2.081-1.799s1.393-.741 2.001-.936a11.08 11.08 0 0 1 1.894-.448c.667-.092 1.382-.125 2.146-.098a12.2 12.2 0 0 1 2.123.236c.655.136 1.739.478 3.252 1.026l2.553 1.059a2.31 2.31 0 0 1 .479.546 2.01 2.01 0 0 1 .285.668c.06.233.079.472.057.716s-.081.481-.179.709a2.36 2.36 0 0 1-.39.611c-.163.179-.353.328-.569.448s-.439.203-.683.252a2.31 2.31 0 0 1-.724.016 2.43 2.43 0 0 1-.691-.22c-.217-.108-.412-.249-.585-.423a2.05 2.05 0 0 1-.415-.595c-.108-.217-.179-.447-.211-.692s-.025-.486.024-.724c.043-.239.127-.467.252-.684a2.16 2.16 0 0 1 .455-.562 2.19 2.19 0 0 1 .61-.383c.228-.098.464-.158.707-.179a2.26 2.26 0 0 1 .716.065 2.16 2.16 0 0 1 1.203.774 2.45 2.45 0 0 1 .358.635c.081.233.125.472.13.716s-.027.483-.097.717a2.45 2.45 0 0 1-.326.651c-.146.196-.319.364-.52.505-.195.141-.412.247-.651.318a2.02 2.02 0 0 1-.715.098c-.244-.006-.48-.052-.707-.139l-.35-.13-1.683-.725c-1.117-.478-2.144-.809-3.082-.993-.932-.19-1.818-.253-2.658-.188s-1.689.329-2.545.806c-.862.484-1.415 1.113-1.659 1.89s-.447 1.778-.61 2.988l-.317 2.036a1.81 1.81 0 0 1-.203.432c-.081.135-.182.26-.301.374a1.86 1.86 0 0 1-.382.294c-.135.076-.282.138-.439.187-.152.043-.309.07-.472.081-.151.006-.306-.008-.463-.04a2.26 2.26 0 0 1-.455-.147c-.147-.071-.282-.157-.407-.261a1.77 1.77 0 0 1-.333-.342 2.09 2.09 0 0 1-.244-.415 1.71 1.71 0 0 1-.13-.456c-.027-.163-.035-.32-.025-.472l.017-.245z"/><path d="M141.755 100.315l.016-1.344a17.35 17.35 0 0 1 .228-2.622c.135-.847.414-1.569.837-2.166.418-.592 1.063-1.053 1.935-1.384.878-.331 1.857-.242 2.935.269s2.117 1.137 3.114 1.881c1.003.749 1.868 1.469 2.594 2.158s1.249 1.439 1.569 2.248c.32.804.466 1.515.439 2.134-.021.613-.219 1.178-.593 1.694s-1.006.838-1.911.969-1.724.152-2.455.065l-1.448-.212c-.233-.054-.452-.147-.658-.277a2.08 2.08 0 0 1-.529-.472 2.23 2.23 0 0 1-.357-.611 2.38 2.38 0 0 1-.139-.7 2.26 2.26 0 0 1 .098-.709c.065-.228.168-.439.309-.635.135-.19.301-.356.496-.497s.406-.247.634-.317c.228-.076.461-.111.699-.106.244.005.477.049.7.13s.433.198.617.35a1.97 1.97 0 0 1 .48.513c.13.201.225.418.285.652s.081.469.065.708a2.04 2.04 0 0 1-.171.692c-.092.223-.217.424-.374.603s-.341.329-.553.448a2.05 2.05 0 0 1-.667.244 2.07 2.07 0 0 1-.707.025c-.238-.027-.463-.095-.675-.204a2.17 2.17 0 0 1-.585-.407 2.22 2.22 0 0 1-.415-.578 2.09 2.09 0 0 1-.211-.676c-.033-.239-.027-.475.016-.709s.122-.461.236-.667c.119-.212.268-.397.447-.554.173-.158.371-.285.594-.383a2.11 2.11 0 0 1 .682-.179l.358-.032 1.057.465c.699.298.802.219.309-.237s-1.255-.961-2.285-1.515l-2.796-1.539c-.83-.467-.9-.785-.212-.953.683-.174.802.076.358.749-.45.673-.67 1.458-.659 2.354l-.016 1.555c-.016.147-.051.29-.106.432a2.14 2.14 0 0 1-.203.399 1.77 1.77 0 0 1-.301.333c-.108.098-.23.182-.366.253-.13.07-.268.122-.414.155s-.293.057-.439.057-.293-.019-.439-.057a1.62 1.62 0 0 1-.415-.155c-.136-.071-.258-.155-.366-.253a1.77 1.77 0 0 1-.301-.333 1.67 1.67 0 0 1-.203-.399c-.054-.142-.089-.285-.106-.432l-.032-.22z"/><path d="M152.463 102.581l.057-.806c.037-.543.135-1.116.292-1.718s.504-1.192 1.041-1.767a12.12 12.12 0 0 1 1.805-1.58c.672-.472 1.108-.738 1.309-.798l.569-.195c.179-.07.363-.117.553-.138a2.27 2.27 0 0 1 .577-.008 2.17 2.17 0 0 1 .553.138c.179.065.35.152.512.261a2.38 2.38 0 0 1 .431.375 2.31 2.31 0 0 1 .326.472c.092.168.162.347.211.537a2.83 2.83 0 0 1 .073.57c0 .19-.022.38-.065.57a2.8 2.8 0 0 1-.203.538c-.087.168-.195.326-.325.472a2.39 2.39 0 0 1-.423.383c-.157.114.011.008.504-.318.499-.326.71.084.634 1.23l-.171 2.744-.089 1.303c-.027.184-.076.361-.146.529-.065.174-.152.334-.261.481s-.233.287-.374.407c-.135.119-.287.22-.455.301a2.36 2.36 0 0 1-.512.187 2.62 2.62 0 0 1-.545.057c-.184-.005-.366-.032-.545-.081-.173-.043-.341-.111-.504-.204-.162-.086-.311-.192-.447-.317a2.4 2.4 0 0 1-.358-.415c-.097-.152-.179-.315-.244-.489a2.64 2.64 0 0 1-.122-.538c-.016-.184-.309-.187-.878-.008-.563.174-.962.234-1.195.179-.233-.048-.453-.135-.658-.26s-.385-.277-.537-.456c-.152-.185-.274-.388-.366-.611a2.08 2.08 0 0 1-.146-.684 2.28 2.28 0 0 1 .073-.692c.065-.234.165-.448.301-.643a2.14 2.14 0 0 1 .479-.513 2.11 2.11 0 0 1 .626-.334c.228-.076.458-.114.692-.114s.468.046.691.122a2.21 2.21 0 0 1 .626.326 2.14 2.14 0 0 1 .479.513 2.22 2.22 0 0 1 .301.643 1.98 1.98 0 0 1 .073.692c-.01.239-.062.47-.154.692s-.206.424-.358.603a2.12 2.12 0 0 1-.545.456c-.2.125-.417.212-.65.26a2.01 2.01 0 0 1-.699.041c-.233-.027-.458-.089-.675-.187a2.26 2.26 0 0 1-.585-.399 2.02 2.02 0 0 1-.423-.562c-.114-.212-.19-.434-.228-.668s-.038-.467 0-.7c.038-.239.114-.462.228-.668a2.02 2.02 0 0 1 .423-.562 2.26 2.26 0 0 1 .585-.399c.217-.097.444-.16.683-.187l.341-.041 1.7.22c1.133.141 1.867.459 2.203.953l1.325 1.767c.542.689.803 1.124.781 1.303a2.05 2.05 0 0 1-.146.529c-.065.174-.152.334-.261.481s-.23.287-.366.407-.295.22-.463.301a2.36 2.36 0 0 1-.512.187 2.62 2.62 0 0 1-.545.057c-.184-.005-.366-.032-.545-.081-.173-.043-.341-.111-.504-.204-.162-.086-.311-.192-.447-.317a2.16 2.16 0 0 1-.35-.415 2.31 2.31 0 0 1-.252-.489 2.64 2.64 0 0 1-.122-.538c-.016-.184.03-.621.139-1.311.108-.684.146-1.449.113-2.296s.109-1.946.423-3.298.561-2.071.74-2.142.363-.117.553-.138a2.27 2.27 0 0 1 .577-.008 2.17 2.17 0 0 1 .553.138c.179.065.35.152.512.261a2.38 2.38 0 0 1 .431.375 2.31 2.31 0 0 1 .326.472c.092.168.162.347.211.537a2.83 2.83 0 0 1 .073.57c0 .19-.022.38-.065.57a2.8 2.8 0 0 1-.203.538c-.087.168-.195.326-.325.472a2.39 2.39 0 0 1-.423.383c-.157.114-.415.211-.773.293s-.818.317-1.366.692c-.542.375-.853.831-.935 1.368l-.178 1.034a1.97 1.97 0 0 1-.448.88c-.108.125-.23.236-.366.334a2.1 2.1 0 0 1-.439.228c-.151.065-.311.108-.479.13s-.323.022-.48 0c-.168-.016-.331-.054-.488-.114-.152-.054-.298-.128-.439-.22-.135-.098-.26-.206-.374-.326a2.37 2.37 0 0 1-.284-.407 2.24 2.24 0 0 1-.179-.464 2.37 2.37 0 0 1-.065-.489v-.244zm13.438 1.856l-.577 1.351c-.39.902-1.103 1.881-2.138 2.94-1.041 1.064-2.125 1.862-3.253 2.394l-2.195 1.157c-.331.233-.558.371-.683.415-.13.038-.263.062-.398.073a1.63 1.63 0 0 1-.399-.016c-.13-.022-.257-.06-.382-.114a1.52 1.52 0 0 1-.341-.204 1.58 1.58 0 0 1-.293-.285c-.081-.103-.152-.214-.211-.334s-.095-.252-.122-.382a1.4 1.4 0 0 1-.025-.399 1.68 1.68 0 0 1 .065-.399c.038-.125.09-.247.155-.367.07-.114.152-.22.244-.317s.203-.182.317-.253.623-.461 1.528-1.173 1.816-1.262 2.732-1.653l1.683-.635c.206-.043.412-.051.618-.024a1.93 1.93 0 0 1 .594.179c.184.087.352.204.504.35.146.147.268.315.366.505.092.185.154.38.187.586a1.98 1.98 0 0 1-.017.619 1.99 1.99 0 0 1-.203.578c-.103.185-.23.348-.382.489s-.331.252-.52.334-.388.138-.594.155c-.211.016-.417 0-.618-.049a1.66 1.66 0 0 1-.569-.236c-.179-.109-.333-.245-.463-.408a2.05 2.05 0 0 1-.309-.537 2.08 2.08 0 0 1-.122-.603 1.88 1.88 0 0 1 .081-.61 1.99 1.99 0 0 1 .268-.562c.12-.169.263-.315.431-.44a2.05 2.05 0 0 1 .553-.277c.195-.065.399-.095.61-.09s.406.044.602.115a1.83 1.83 0 0 1 .544.301 1.76 1.76 0 0 1 .415.456c.114.174.198.361.252.562a1.97 1.97 0 0 1 .049.619 1.74 1.74 0 0 1-.138.594 1.86 1.86 0 0 1-.334.529c-.135.152-.292.283-.471.391l-.277.155-1.252.415-2.065.749c-.537.223-1.022.538-1.455.945s-.713.624-.838.668c-.13.038-.263.062-.398.073a1.63 1.63 0 0 1-.399-.016c-.13-.022-.257-.06-.382-.114a1.52 1.52 0 0 1-.341-.204 1.58 1.58 0 0 1-.293-.285c-.081-.103-.152-.214-.211-.334s-.095-.252-.122-.382a1.4 1.4 0 0 1-.025-.399 1.68 1.68 0 0 1 .065-.399c.038-.125.09-.247.155-.367.07-.114.152-.22.244-.317s.203-.182.317-.253.355-.179.723-.326l1.757-.773c.802-.364 1.553-.937 2.252-1.718s1.203-1.61 1.528-2.5l.602-1.531c.071-.131.157-.253.26-.367a2.24 2.24 0 0 1 .342-.293 2.45 2.45 0 0 1 .406-.204c.141-.048.288-.081.439-.097s.293-.014.439.008a2.04 2.04 0 0 1 .439.114 1.99 1.99 0 0 1 .391.22 1.8 1.8 0 0 1 .333.301 2.28 2.28 0 0 1 .252.375 2.25 2.25 0 0 1 .155.431c.032.147.046.293.04.44a1.78 1.78 0 0 1-.057.448l-.065.212z"/><path d="M162.293 110.6l-.895.725-2.211 1.962-1.594 1.45a1.89 1.89 0 0 1-.585.301 1.9 1.9 0 0 1-.651.098c-.222 0-.439-.038-.65-.114a2.06 2.06 0 0 1-.578-.318c-.178-.136-.327-.298-.447-.488a2.04 2.04 0 0 1-.276-.603c-.054-.217-.073-.437-.057-.66a2.18 2.18 0 0 1 .146-.643c.087-.206.204-.394.35-.562a2.03 2.03 0 0 1 .512-.423c.19-.109.396-.188.618-.236a2.05 2.05 0 0 1 .659-.025c.222.027.433.09.634.187s.379.223.536.375c.163.157.296.337.399.537a2.1 2.1 0 0 1 .195.627c.038.223.035.443-.008.66-.038.223-.111.432-.22.627a1.87 1.87 0 0 1-.406.521c-.163.152-.347.272-.553.359a1.98 1.98 0 0 1-.634.171 2.08 2.08 0 0 1-.659-.041c-.217-.054-.42-.139-.61-.253a2.04 2.04 0 0 1-.496-.439 1.91 1.91 0 0 1-.333-.57c-.081-.212-.127-.429-.138-.652a2.16 2.16 0 0 1 .081-.651c.065-.217.16-.418.285-.603l.195-.269 1.553-1.376 2.455-2.068 1.098-.847a2.23 2.23 0 0 1 .439-.196c.152-.048.306-.078.463-.089a1.74 1.74 0 0 1 .472.016c.157.033.309.079.455.139a2.09 2.09 0 0 1 .415.244c.125.098.238.209.341.334s.182.26.252.407a2.29 2.29 0 0 1 .147.456 2.27 2.27 0 0 1 .032.472 2.44 2.44 0 0 1-.081.473c-.049.152-.114.295-.195.431s-.179.269-.293.383l-.162.171z"/><path d="M154.706 111.921l1.552-.537 3.098-.985c1.025-.288 2.046-.432 3.066-.432s1.729.223 2.113.668.537.969.456 1.571c-.076.608-.591 1.263-1.545 1.963l-1.748 1.173a2.06 2.06 0 0 1-.651.106c-.222 0-.439-.036-.65-.106a2.02 2.02 0 0 1-.585-.31c-.179-.136-.331-.296-.456-.48a2.04 2.04 0 0 1-.276-.603c-.06-.206-.084-.421-.073-.643s.065-.437.146-.644a2.15 2.15 0 0 1 .333-.57c.147-.168.315-.309.504-.423a1.8 1.8 0 0 1 .618-.244c.217-.049.437-.063.659-.041s.428.081.634.179a2.04 2.04 0 0 1 .545.367 1.9 1.9 0 0 1 .398.529 2.09 2.09 0 0 1 .212.619 1.92 1.92 0 0 1 0 .659c-.038.218-.109.424-.212.619-.103.201-.235.378-.398.53a2.22 2.22 0 0 1-.545.374c-.2.093-.412.15-.634.171a1.92 1.92 0 0 1-.659-.032c-.216-.049-.42-.131-.609-.245a1.9 1.9 0 0 1-.505-.423 2.05 2.05 0 0 1-.341-.57c-.081-.206-.13-.418-.146-.635-.011-.223.013-.443.073-.66s.152-.41.276-.594a2.02 2.02 0 0 1 .456-.481l.26-.203.813-.131c.542-.092.843.174.902.798s-.363 1.089-1.268 1.393c-.911.298-1.862.684-2.854 1.156l-1.707.774c-.152.043-.307.068-.464.073a1.8 1.8 0 0 1-.455-.041c-.152-.032-.298-.084-.439-.154s-.271-.155-.39-.253a2.1 2.1 0 0 1-.318-.342 1.84 1.84 0 0 1-.227-.407 1.9 1.9 0 0 1-.122-.448 1.65 1.65 0 0 1-.016-.464 2.11 2.11 0 0 1 .097-.448c.054-.152.122-.293.203-.423.087-.131.187-.25.301-.359s.239-.201.374-.277l.204-.114z"/><path d="M156.696 115.949l-1.797.285-2.959.497c-.764.141-1.48.521-2.147 1.14-.666.613-1.23 1.224-1.691 1.832l-1.975 2.41-2.732 3.518-2.22 3.445-1.398 2.329c-.412.603-1.095 1.344-2.049 2.223l-1.659 1.466a1.68 1.68 0 0 1-.504.195c-.174.038-.35.047-.529.025-.178-.016-.352-.063-.52-.139a1.61 1.61 0 0 1-.439-.301 1.69 1.69 0 0 1-.325-.432c-.082-.157-.138-.325-.171-.504-.027-.18-.027-.359 0-.538.033-.179.092-.347.179-.505.081-.163.187-.307.317-.431a1.75 1.75 0 0 1 .447-.302c.163-.07.334-.116.512-.138.185-.022.364-.011.537.032a1.59 1.59 0 0 1 .496.196c.157.092.293.209.406.35.12.136.212.288.277.456a1.75 1.75 0 0 1 .114.529 1.58 1.58 0 0 1-.057.53c-.049.173-.125.336-.228.488a1.75 1.75 0 0 1-.366.383 1.79 1.79 0 0 1-.471.253c-.174.059-.35.089-.529.089a1.58 1.58 0 0 1-.528-.089c-.174-.06-.331-.144-.472-.253s-.268-.239-.366-.391-.179-.315-.227-.488a1.61 1.61 0 0 1-.057-.53 1.73 1.73 0 0 1 .114-.521 1.89 1.89 0 0 1 .276-.464l.179-.204 1.902-1.579c1.274-1.054 2.169-2.12 2.684-3.201.52-1.075 1.241-2.342 2.162-3.803l2.521-3.827 1.943-2.639a17.55 17.55 0 0 1 1.829-1.938c.683-.619 1.383-1.042 2.098-1.27a9.61 9.61 0 0 1 2.155-.432c.721-.065 1.675-.241 2.862-.529l1.967-.448a1.54 1.54 0 0 1 .382.016 1.65 1.65 0 0 1 .383.114 1.37 1.37 0 0 1 .333.196 1.56 1.56 0 0 1 .285.277c.081.098.151.206.211.326a1.78 1.78 0 0 1 .122.374 1.31 1.31 0 0 1 .024.383 1.78 1.78 0 0 1-.057.391c-.038.125-.092.244-.162.358a1.68 1.68 0 0 1-.236.318c-.092.092-.192.173-.301.244-.114.071-.233.128-.358.171l-.187.057zm-95.397 5.787l1.065 1.189c.71.798 1.453 2.123 2.228 3.974a39.52 39.52 0 0 1 1.886 5.668l1.228 4.959.529 2.264a1.06 1.06 0 0 1-.024.391c-.032.125-.081.25-.146.358a1.26 1.26 0 0 1-.26.302c-.103.081-.214.146-.333.195a1.29 1.29 0 0 1-.382.073 1.15 1.15 0 0 1-.39-.048 1.09 1.09 0 0 1-.35-.163 1.29 1.29 0 0 1-.285-.277 1.11 1.11 0 0 1-.171-.35 1.03 1.03 0 0 1-.057-.383 1.17 1.17 0 0 1 .065-.383 1.16 1.16 0 0 1 .187-.342c.081-.103.176-.193.285-.269.114-.07.233-.122.358-.154s.26-.046.39-.041a1.35 1.35 0 0 1 .382.09 1.27 1.27 0 0 1 .325.211 1.12 1.12 0 0 1 .252.302c.065.114.111.236.138.366a1.13 1.13 0 0 1 .016.383 1.07 1.07 0 0 1-.114.374 1.18 1.18 0 0 1-.219.326c-.092.092-.198.168-.317.228s-.236.101-.366.122a1.3 1.3 0 0 1-.39-.008 1.19 1.19 0 0 1-.374-.13 1.2 1.2 0 0 1-.301-.244 1.05 1.05 0 0 1-.219-.326l-.081-.179-.561-2.052-1.301-4.74c-.493-1.791-1.073-3.466-1.74-5.024s-1.366-2.717-2.081-3.477l-1.187-1.287a1.7 1.7 0 0 1-.179-.318 1.43 1.43 0 0 1-.089-.35 1.52 1.52 0 0 1-.008-.35 1.34 1.34 0 0 1 .081-.35c.038-.12.092-.228.163-.326a1.43 1.43 0 0 1 .228-.277 1.87 1.87 0 0 1 .293-.212 1.61 1.61 0 0 1 .342-.138 1.28 1.28 0 0 1 .358-.049c.114 0 .23.011.35.033s.233.068.341.122a1.4 1.4 0 0 1 .301.203l.138.114z"/></svg>