<svg xmlns="http://www.w3.org/2000/svg" width="192" height="192" fill="#000" xmlns:v="https://vecta.io/nano"><path d="M51.137 78.474l-.296 4.175-1.125 9.734a130.61 130.61 0 0 0-1.186 11.077c-.234 3.675-.034 7.097.599 10.267s1.445 6.03 2.437 8.567c1 2.536 2.3 4.926 3.901 7.169s3.462 4.156 5.582 5.729 4.208 2.73 6.272 3.485 4.19 1.379 6.363 1.887 4.631.875 7.385 1.089 5.673.234 8.77.049 5.889-.591 8.377-1.216 4.594-1.517 6.332-2.674 3.387-2.757 4.936-4.786 3.121-4.267 4.717-6.715 3.111-4.84 4.53-7.175l3.877-6.389c1.162-1.924 1.976-3.816 2.444-5.675s.798-3.652 1.004-5.366c.201-1.714.347-3.17.435-4.368a83.33 83.33 0 0 0 .188-3.932l.078-4.308.037-4.199.012-3.594-.018-2.71c-.016-.766-.018-1.194-.006-1.282s.046-.18.09-.26.099-.153.164-.218.143-.111.223-.151.174-.06.267-.073a.88.88 0 0 1 .272.018c.088.02.173.054.254.103a.77.77 0 0 1 .205.175.92.92 0 0 1 .139.23.87.87 0 0 1 .055.266.79.79 0 0 1-.03.272c-.028.089-.063.171-.115.248a.71.71 0 0 1-.188.194c-.077.053-.151.099-.236.127s-.179.048-.272.048a.74.74 0 0 1-.266-.048.77.77 0 0 1-.242-.127.87.87 0 0 1-.187-.2.8.8 0 0 1-.115-.248.73.73 0 0 1-.024-.266.85.85 0 0 1 .054-.266.83.83 0 0 1 .145-.236.93.93 0 0 1 .206-.175c.077-.048.165-.081.254-.097s.179-.026.272-.018a.92.92 0 0 1 .26.073.8.8 0 0 1 .224.157.88.88 0 0 1 .169.218c.041.081.069.165.085.254l.018.139-.03 1.149-.037 2.71-.012 3.6-.036 4.217-.085 4.356c-.036 1.456-.1 2.793-.193 4.011a101.07 101.07 0 0 1-.46 4.501c-.218 1.783-.582 3.674-1.107 5.675s-1.367 3.959-2.528 5.887l-3.895 6.424a265.38 265.38 0 0 1-4.578 7.248c-1.625 2.481-3.272 4.794-4.942 6.939s-3.453 3.83-5.353 5.064-4.149 2.174-6.737 2.819-5.47 1.061-8.643 1.247-6.171.165-9.006-.061-5.363-.607-7.597-1.131-4.456-1.202-6.653-2.021-4.417-2.071-6.659-3.757-4.193-3.71-5.867-6.074-3.026-4.86-4.058-7.49-1.875-5.606-2.528-8.917-.869-6.832-.647-10.563a131.61 131.61 0 0 1 1.137-11.09c.532-3.667.879-6.887 1.052-9.674l.278-4.277a1.24 1.24 0 0 1 .067-.218.97.97 0 0 1 .121-.194.86.86 0 0 1 .163-.157.79.79 0 0 1 .193-.115c.069-.032.139-.054.212-.066a1.05 1.05 0 0 1 .224-.012c.077.004.151.018.224.042a.91.91 0 0 1 .206.091.84.84 0 0 1 .175.145 1.16 1.16 0 0 1 .139.175c.04.064.066.133.091.206s.032.147.036.224l.006.109zm20.48 5.851l-.72-.254a1.33 1.33 0 0 0-1.294.163 22.28 22.28 0 0 0-1.415 1.162 14.63 14.63 0 0 0-1.627 1.724 18.57 18.57 0 0 0-1.391 1.942 10.76 10.76 0 0 0-.956 1.882c-.23.613-.401 1.295-.514 2.045l-.224 2.166c-.036.69.066 1.305.308 1.845s.54.992.883 1.355a3.54 3.54 0 0 0 1.179.823c.439.19 1.095.331 1.954.411l2.117.145 1.736.024c.605.008 1.212-.129 1.82-.411a4.32 4.32 0 0 0 1.554-1.198 7.5 7.5 0 0 0 1.016-1.597c.254-.548.498-1.194.732-1.936s.387-1.373.448-1.882.091-1.168.091-1.978-.038-1.444-.115-1.888-.3-.889-.683-1.325l-1.089-1.349c-.339-.464-.708-.805-1.107-1.022s-.919-.859-1.548-1.912-.861-1.567-.695-1.555a1.58 1.58 0 0 1 .49.115 1.53 1.53 0 0 1 .429.266 1.55 1.55 0 0 1 .321.387 1.53 1.53 0 0 1 .175.472 1.47 1.47 0 0 1 .024.496 1.68 1.68 0 0 1-.145.484c-.073.153-.169.29-.29.411a1.53 1.53 0 0 1-.405.296c-.153.076-.308.133-.478.157s-.331.02-.496-.012-.323-.083-.472-.163a1.68 1.68 0 0 1-.399-.315 1.57 1.57 0 0 1-.272-.417 1.6 1.6 0 0 1-.127-.49c-.016-.165-.006-.331.03-.496a1.44 1.44 0 0 1 .194-.46 1.68 1.68 0 0 1 .333-.381 1.58 1.58 0 0 1 .436-.254 1.48 1.48 0 0 1 .496-.097c.165-.008.329.012.49.061s.317.121.454.218.26.214.357.351a1.57 1.57 0 0 1 .23.448 1.46 1.46 0 0 1 .073.49c0 .173-.028.339-.085.496a1.52 1.52 0 0 1-.617.781 1.52 1.52 0 0 1-.46.206l-.242.066 1.059-1.476c.706-.98 1.359-1.315 1.96-1.004s1.081.659 1.452 1.034a7.16 7.16 0 0 1 .968 1.21c.274.428.718 1.035 1.331 1.821s.974 1.514 1.07 2.196.125 1.269.085 1.748l-.169 1.386-.296 1.506-.49 2.214a12.06 12.06 0 0 1-.804 2.444c-.334.722-.774 1.446-1.306 2.172s-1.145 1.315-1.851 1.767-1.316.671-1.833.671l-1.712-.024-1.857-.072a16.15 16.15 0 0 1-1.736-.182c-.544-.089-1.119-.22-1.712-.405s-1.2-.478-1.833-.877a5.83 5.83 0 0 1-1.591-1.483c-.427-.589-.778-1.293-1.052-2.111s-.375-1.607-.314-2.366l.266-2.523c.117-.924.331-1.736.641-2.438a17.84 17.84 0 0 1 1.107-2.117l1.5-2.22a16.65 16.65 0 0 1 1.893-2.184c.702-.682 1.468-1.17 2.298-1.476s1.558-.353 2.196-.151l1.064.357a1.12 1.12 0 0 1 .23.145 1.09 1.09 0 0 1 .188.2 1.13 1.13 0 0 1 .139.23 1.43 1.43 0 0 1 .073.266.95.95 0 0 1 .012.26c-.008.093-.026.181-.054.266a1.07 1.07 0 0 1-.115.248c-.048.077-.107.147-.175.212a1.26 1.26 0 0 1-.212.163 1.16 1.16 0 0 1-.254.103 1.15 1.15 0 0 1-.266.042 1.19 1.19 0 0 1-.266-.018l-.133-.03zm28.614 1.681l-.817.702c-.552.464-1.113 1.079-1.681 1.845s-1.117 1.63-1.645 2.589-.897 1.813-1.107 2.547-.359 1.359-.436 1.863a1.34 1.34 0 0 0 .454 1.276c.383.347.938.744 1.663 1.192a15.52 15.52 0 0 0 2.105 1.107c.678.286 1.403.494 2.19.623l1.856.206 1.748.049c.71.024 1.343-.087 1.899-.333.561-.246 1.134-.579 1.718-.998s1.075-.998 1.47-1.736.685-1.569.871-2.493.316-1.948.405-3.085.099-2.013.018-2.638-.262-1.157-.544-1.585a3.82 3.82 0 0 0-1.167-1.119c-.496-.314-1.105-.589-1.815-.835s-1.361-.415-1.941-.496l-1.773-.157c-.596-.024-1.284.236-2.062.78l-1.343.944a1.33 1.33 0 0 1-.381.181 1.31 1.31 0 0 1-.411.054c-.145-.008-.284-.036-.417-.085a1.36 1.36 0 0 1-.363-.212 1.41 1.41 0 0 1-.278-.321 1.35 1.35 0 0 1-.157-.387c-.032-.141-.042-.28-.03-.417s.048-.276.109-.405.133-.252.23-.357a1.3 1.3 0 0 1 .333-.26 1.49 1.49 0 0 1 .399-.139 1.32 1.32 0 0 1 .417-.006 1.45 1.45 0 0 1 .399.133 1.36 1.36 0 0 1 .339.248c.101.105.181.22.242.345a1.25 1.25 0 0 1 .115.405c.016.141.016.276-.012.417a1.46 1.46 0 0 1-.152.393 1.24 1.24 0 0 1-.272.327c-.105.093-.224.167-.357.224a1.45 1.45 0 0 1-.411.097 1.3 1.3 0 0 1-.411-.042 1.21 1.21 0 0 1-.387-.175c-.117-.08-.224-.171-.308-.284a1.33 1.33 0 0 1-.206-.369 1.21 1.21 0 0 1-.073-.418c0-.137.02-.274.061-.411a1.38 1.38 0 0 1 .194-.375l.127-.169.714-.696c.472-.46.919-.807 1.342-1.041s.912-.333 1.464-.309l1.833.151a17.04 17.04 0 0 1 2.002.339l2.352.684a7.73 7.73 0 0 1 2.383 1.258c.685.54 1.192 1.158 1.519 1.863s.5 1.436.532 2.178.01 1.718-.067 2.928-.227 2.367-.441 3.473a10.48 10.48 0 0 1-1.131 3.11c-.541.972-1.184 1.734-1.93 2.287a8.86 8.86 0 0 1-2.346 1.264c-.823.29-1.631.424-2.426.399s-1.423-.086-1.887-.187l-2.117-.357c-.939-.137-1.792-.369-2.558-.696s-1.621-.78-2.552-1.349-1.627-1.216-2.087-1.954-.639-1.468-.526-2.202a20.41 20.41 0 0 1 .544-2.39c.242-.863.635-1.823 1.179-2.88s1.139-2.053 1.784-2.977 1.254-1.621 1.815-2.081l.95-.762a1.21 1.21 0 0 1 .23-.109c.081-.028.165-.046.254-.055a1.03 1.03 0 0 1 .248.006.92.92 0 0 1 .248.073c.076.032.149.073.217.121a1.15 1.15 0 0 1 .188.175c.057.064.103.141.139.218a1.31 1.31 0 0 1 .085.242c.021.085.024.167.024.248s-.018.169-.043.254-.052.159-.096.236-.091.141-.152.206l-.09.091zm3.659 5.01l.121.181a1.37 1.37 0 0 1 .194.381 1.27 1.27 0 0 1-.025.842 1.24 1.24 0 0 1-.211.375 1.25 1.25 0 0 1-.315.284 1.24 1.24 0 0 1-.399.169 1.21 1.21 0 0 1-.417.036 1.35 1.35 0 0 1-.418-.103 1.32 1.32 0 0 1-.363-.23c-.108-.097-.197-.21-.266-.339s-.123-.258-.151-.399a1.51 1.51 0 0 1-.012-.424 1.3 1.3 0 0 1 .127-.411 1.24 1.24 0 0 1 .254-.345c.101-.105.216-.189.345-.254a1.3 1.3 0 0 1 .411-.127 1.49 1.49 0 0 1 .423.012 1.3 1.3 0 0 1 .4.151 1.32 1.32 0 0 1 .338.266 1.33 1.33 0 0 1 .333.781c.012.141 0 .28-.036.417s-.093.274-.17.399a1.23 1.23 0 0 1-.284.315c-.113.093-.238.163-.375.212s-.278.081-.423.085a1.24 1.24 0 0 1-.418-.06 1.36 1.36 0 0 1-.381-.194l-.181-.121-.097-.133c-.068-.085-.125-.175-.169-.272a1.11 1.11 0 0 1-.091-.309 1.39 1.39 0 0 1-.024-.315 1.37 1.37 0 0 1 .06-.315 1.36 1.36 0 0 1 .133-.296 1.47 1.47 0 0 1 .2-.248 1.46 1.46 0 0 1 .248-.2c.093-.056.191-.101.296-.133s.206-.052.315-.06a1.37 1.37 0 0 1 .314.024 1.14 1.14 0 0 1 .309.091 1.28 1.28 0 0 1 .272.169l.133.097zm-31.451.484l.121.181a1.36 1.36 0 0 1 .194.381 1.27 1.27 0 0 1 .06.417 1.28 1.28 0 0 1-.085.424c-.048.137-.119.262-.212.375a1.24 1.24 0 0 1-.714.454 1.22 1.22 0 0 1-.417.036c-.141-.012-.284-.046-.417-.103a1.32 1.32 0 0 1-.363-.23 1.21 1.21 0 0 1-.266-.339 1.28 1.28 0 0 1-.151-.399 1.5 1.5 0 0 1-.012-.424 1.32 1.32 0 0 1 .127-.411 1.25 1.25 0 0 1 .599-.599 1.3 1.3 0 0 1 .411-.127 1.49 1.49 0 0 1 .423.012 1.3 1.3 0 0 1 .399.151 1.22 1.22 0 0 1 .339.266 1.32 1.32 0 0 1 .23.363 1.35 1.35 0 0 1 .103.417 1.23 1.23 0 0 1-.036.418 1.5 1.5 0 0 1-.169.399 1.17 1.17 0 0 1-.284.315 1.23 1.23 0 0 1-.375.212 1.28 1.28 0 0 1-.423.085c-.141.004-.28-.016-.417-.061a1.36 1.36 0 0 1-.381-.194l-.181-.121-.097-.133c-.069-.085-.125-.175-.169-.272a1.15 1.15 0 0 1-.091-.309c-.016-.109-.028-.21-.024-.315a1.35 1.35 0 0 1 .06-.315c.032-.105.077-.204.133-.296a1.46 1.46 0 0 1 .2-.248 1.47 1.47 0 0 1 .248-.2 1.3 1.3 0 0 1 .296-.133c.101-.032.206-.052.314-.06a1.38 1.38 0 0 1 .314.024c.109.016.212.046.308.091a1.28 1.28 0 0 1 .272.169l.133.097zm-13.421 11.972l.563.551 1.21 1.204a13.91 13.91 0 0 0 1.27 1.174c.419.334.956.711 1.609 1.131l1.53 1.004 1.536 1.077c.653.468 1.413.932 2.28 1.392s1.57.79 2.111.98a10.41 10.41 0 0 0 1.778.441l2.05.387c.714.154 1.337.253 1.869.297s1.2.066 2.014.066l2.643.097 3.012.17 2.819.115 1.887-.012 2.02-.128 2.522-.024c.782.028 1.498.002 2.147-.078l1.869-.212c.597-.057 1.093-.178 1.488-.363l1.343-.575c.496-.189.933-.498 1.312-.925a3.49 3.49 0 0 1 1.415-.944l2.045-.811c.794-.335 1.562-.553 2.304-.653l1.899-.303c.52-.101.978-.27 1.373-.508l1.234-.708 1.288-.756c.432-.262.746-.569.944-.92l.387-.726a1.92 1.92 0 0 1 .224-.357c.088-.104.189-.199.302-.284s.234-.155.363-.212a1.88 1.88 0 0 1 .405-.121c.141-.024.283-.03.424-.018s.278.04.411.085a1.93 1.93 0 0 1 .381.175 1.8 1.8 0 0 1 .327.266c.096.097.181.208.254.333a1.74 1.74 0 0 1 .169.381 2.13 2.13 0 0 1 .066.418 1.63 1.63 0 0 1-.03.423c-.028.137-.32.748-.877 1.833l-1.234 2.511-.931 2.245c-.359.907-.69 1.611-.992 2.111a20.99 20.99 0 0 1-1.107 1.621c-.439.585-.925 1.132-1.457 1.64s-1.164.903-1.894 1.186a8.57 8.57 0 0 1-2.292.538c-.802.077-1.586.198-2.353.363l-1.814.46c-.44.141-1.093.417-1.96.829a16.45 16.45 0 0 1-2.467.95c-.774.225-1.849.435-3.224.629l-3.732.514-3.399.303c-1.153.052-2.224.173-3.212.363l-2.601.447c-.746.113-1.363.164-1.851.151a7.26 7.26 0 0 1-1.409-.181c-.448-.109-.915-.359-1.403-.75s-.996-.599-1.512-.635l-2.347-.103-2.431-.049c-.564-.004-1.337-.246-2.316-.726s-1.849-1.008-2.607-1.585-1.26-1.186-1.506-1.827-.635-1.073-1.167-1.282a7.19 7.19 0 0 1-1.47-.787 8.01 8.01 0 0 1-1.228-1.047c-.375-.383-.81-.742-1.306-1.076s-.841-.799-1.022-1.392l-.526-1.906c-.173-.685-.425-1.177-.756-1.476s-.645-1.242-.944-2.819l-.423-2.626a1.69 1.69 0 0 1 .127-.514 1.56 1.56 0 0 1 .284-.448c.121-.134.254-.244.411-.332s.319-.152.496-.188.347-.036.52-.012a1.73 1.73 0 0 1 .508.151 1.8 1.8 0 0 1 .43.309 1.64 1.64 0 0 1 .308.429 1.56 1.56 0 0 1 .157.502c.024.174.02.349-.012.527a1.6 1.6 0 0 1-.181.496 1.72 1.72 0 0 1-.333.411c-.129.121-.276.216-.441.285a1.74 1.74 0 0 1-.514.133 1.73 1.73 0 0 1-1.004-.248 1.52 1.52 0 0 1-.393-.357 1.62 1.62 0 0 1-.266-.46 1.52 1.52 0 0 1-.097-.514 1.52 1.52 0 0 1 .066-.521 1.62 1.62 0 0 1 .236-.471 1.55 1.55 0 0 1 .369-.376c.145-.105.302-.183.472-.235a1.44 1.44 0 0 1 .52-.073c.177.004.351.036.52.097s.319.145.46.254a1.66 1.66 0 0 1 .357.393c.097.153.165.317.206.49l.066.254.163 1.355c.109.904.373 1.535.792 1.894s.75.893.98 1.603.339 1.347.315 1.9.286 1.079.944 1.579l1.669 1.192 1.3.859c.415.278.853.655 1.313 1.131s.78.984.974 1.513.486.917.889 1.167.817.549 1.252.896a2.38 2.38 0 0 0 1.482.532l1.839.006 1.76.061a13.71 13.71 0 0 1 1.542.229c.528.113 1.107.426 1.736.938s1.232.877 1.796 1.095 1.192.289 1.881.212 1.571-.24 2.643-.49 2.147-.43 3.224-.539a29.74 29.74 0 0 0 3.254-.508l3.411-.732 3.381-.865c1.064-.319 1.909-.677 2.534-1.077s1.19-.665 1.682-.798 1.195-.263 2.098-.375l2.849-.406c.996-.157 1.677-.411 2.044-.762s.726-.799 1.089-1.355l1.258-2.027c.48-.799.794-1.414.944-1.845l.689-1.936c.311-.859.629-1.462.956-1.809a1.64 1.64 0 0 0 .459-1.234c-.02-.472 0-.773.061-.902a1.92 1.92 0 0 1 .224-.357c.088-.104.189-.199.302-.284s.234-.155.363-.212.264-.097.405-.121.283-.03.424-.018.278.04.411.085a1.93 1.93 0 0 1 .381.175 1.8 1.8 0 0 1 .327.266c.096.097.181.208.254.333a1.74 1.74 0 0 1 .169.381 2.13 2.13 0 0 1 .066.418 1.63 1.63 0 0 1-.03.423c-.028.137-.074.242-.139.315s-.24.401-.526.986-.619 1.016-.986 1.295l-1.264.877-1.312.78-1.609.932c-.678.399-1.274.653-1.791.762s-1.06.166-1.633.158-1.094.022-1.566.078-.984.214-1.536.472l-1.428.611c-.403.149-.832.385-1.288.708a5.38 5.38 0 0 1-1.44.732l-1.735.575c-.649.214-1.252.333-1.808.357s-1.214.086-1.972.187a22.76 22.76 0 0 1-2.31.2 27 27 0 0 1-2.528-.024l-2.014-.127c-.44-.037-1.071-.043-1.893-.018l-2.818.102-3.042.158a20.64 20.64 0 0 1-2.776-.018l-2.244-.2-1.905-.266-2.25-.266a12.52 12.52 0 0 1-2.443-.454c-.786-.23-1.387-.468-1.814-.714l-1.427-.762c-.528-.254-1.109-.63-1.742-1.126l-1.869-1.464-1.542-1.155-1.385-1.041-1.421-1.252-1.21-1.21-.665-.708a1.66 1.66 0 0 1-.194-.309 1.75 1.75 0 0 1-.109-.35 1.57 1.57 0 0 1-.018-.363 1.55 1.55 0 0 1 .067-.357 1.79 1.79 0 0 1 .145-.339 1.39 1.39 0 0 1 .23-.284 1.33 1.33 0 0 1 .29-.23c.109-.064.216-.109.333-.146a1.56 1.56 0 0 1 .357-.066 1.58 1.58 0 0 1 .363.018c.121.024.238.061.351.109a1.61 1.61 0 0 1 .308.194l.145.114z"/><path d="M72.662 114.126l.067.793c.044.536.186 1.347.423 2.432l.381 1.894c.02.173.012.344-.024.514s-.105.327-.194.472a1.56 1.56 0 0 1-.333.393 1.58 1.58 0 0 1-.442.266 1.52 1.52 0 0 1-.502.109c-.173.008-.343-.01-.508-.054a1.52 1.52 0 0 1-.46-.218 1.51 1.51 0 0 1-.375-.357 1.48 1.48 0 0 1-.236-.454c-.056-.165-.085-.335-.085-.508s.028-.341.085-.502a1.56 1.56 0 0 1 .242-.454c.105-.137.228-.26.369-.357a1.49 1.49 0 0 1 .466-.212 1.45 1.45 0 0 1 .508-.054 1.52 1.52 0 0 1 .502.109 1.58 1.58 0 0 1 .441.266 1.62 1.62 0 0 1 .327.393 1.49 1.49 0 0 1 .194.478c.036.17.044.341.024.514a1.41 1.41 0 0 1-.139.49 1.68 1.68 0 0 1-.284.43 1.63 1.63 0 0 1-.411.309 1.6 1.6 0 0 1-.49.163c-.174.028-.339.028-.508 0s-.337-.083-.49-.163a1.69 1.69 0 0 1-.399-.315 1.5 1.5 0 0 1-.29-.424l-.109-.235-.327-1.955-.375-2.752-.042-.98a1.73 1.73 0 0 1 .061-.357 1.45 1.45 0 0 1 .145-.327 1.46 1.46 0 0 1 .218-.29 1.51 1.51 0 0 1 .284-.224 1.46 1.46 0 0 1 .327-.151c.113-.036.236-.061.357-.073a1.54 1.54 0 0 1 .357.018 1.38 1.38 0 0 1 .345.109 1.6 1.6 0 0 1 .309.181 1.42 1.42 0 0 1 .26.255 1.28 1.28 0 0 1 .188.302c.053.113.091.228.115.345l.03.181zm7.246 2.159l-.109 1.203-.109 2.287-.042 1.301a1.28 1.28 0 0 1-.157.405 1.36 1.36 0 0 1-.272.333 1.28 1.28 0 0 1-.369.23 1.21 1.21 0 0 1-.411.097 1.18 1.18 0 0 1-.429-.043c-.141-.036-.274-.094-.399-.175a1.2 1.2 0 0 1-.314-.29 1.44 1.44 0 0 1-.212-.375c-.053-.137-.073-.285-.073-.43a1.25 1.25 0 0 1 .06-.423 1.26 1.26 0 0 1 .2-.388 1.32 1.32 0 0 1 .695-.49 1.42 1.42 0 0 1 .429-.054c.141.008.28.038.417.091s.262.125.375.217a1.35 1.35 0 0 1 .284.321c.077.125.131.258.163.399s.046.285.03.43a1.31 1.31 0 0 1-.109.423 1.16 1.16 0 0 1-.236.357c-.101.105-.21.198-.339.266s-.264.121-.405.146a1.19 1.19 0 0 1-.43.006 1.24 1.24 0 0 1-.411-.133 1.28 1.28 0 0 1-.345-.254 1.24 1.24 0 0 1-.248-.351c-.065-.133-.107-.273-.127-.418l-.024-.218.085-1.095.091-2.299.03-1.361a1.4 1.4 0 0 1 .097-.314 1.54 1.54 0 0 1 .163-.285 1.47 1.47 0 0 1 .23-.236 1.7 1.7 0 0 1 .593-.278 1.46 1.46 0 0 1 .32-.024c.113.008.222.028.327.06a1.4 1.4 0 0 1 .302.127 1.55 1.55 0 0 1 .26.2 1.58 1.58 0 0 1 .206.254 1.72 1.72 0 0 1 .139.303 1.44 1.44 0 0 1 .061.32l.012.158zm5.983.278l-.012 1.258.073 3.11.054 2.057a1.4 1.4 0 0 1-.121.405 1.36 1.36 0 0 1-.248.339 1.37 1.37 0 0 1-.345.242c-.129.06-.264.1-.405.121a1.19 1.19 0 0 1-.417-.012c-.137-.028-.268-.079-.393-.152a1.27 1.27 0 0 1-.327-.266 1.31 1.31 0 0 1-.224-.357 1.38 1.38 0 0 1-.097-.405c-.012-.145 0-.287.036-.424a1.3 1.3 0 0 1 .169-.381 1.23 1.23 0 0 1 .284-.314 1.31 1.31 0 0 1 .369-.206c.133-.049.268-.073.405-.073a1.22 1.22 0 0 1 .417.061 1.18 1.18 0 0 1 .375.187 1.3 1.3 0 0 1 .296.297 1.47 1.47 0 0 1 .188.381 1.22 1.22 0 0 1 .048.417c-.004.142-.03.279-.079.412a1.36 1.36 0 0 1-.212.369c-.089.113-.194.201-.314.278a1.24 1.24 0 0 1-.387.163 1.33 1.33 0 0 1-.423.031 1.28 1.28 0 0 1-.399-.103 1.48 1.48 0 0 1-.351-.23 1.43 1.43 0 0 1-.266-.333c-.069-.125-.115-.256-.139-.393l-.036-.212v-1.815l-.127-3.073-.115-1.416c.008-.113.03-.222.066-.326s.079-.204.139-.297a1.24 1.24 0 0 1 .206-.254 1.28 1.28 0 0 1 .26-.2c.097-.052.198-.094.302-.127a1.25 1.25 0 0 1 .321-.054 1.43 1.43 0 0 1 .321.024 1.26 1.26 0 0 1 .315.103 1.12 1.12 0 0 1 .278.175 1.6 1.6 0 0 1 .23.23c.064.089.119.184.163.285a1.23 1.23 0 0 1 .091.314l.03.164zm5.855.459l-.06 1.543-.067 2.698-.042 1.319a.98.98 0 0 1-.109.333 1.14 1.14 0 0 1-.218.284 1.02 1.02 0 0 1-.29.194c-.109.052-.222.084-.339.096a1.12 1.12 0 0 1-.345-.018 1.14 1.14 0 0 1-.327-.133.97.97 0 0 1-.272-.23c-.076-.093-.137-.189-.181-.302a1.01 1.01 0 0 1-.073-.339c-.004-.117.004-.238.036-.351a1.11 1.11 0 0 1 .145-.321 1.17 1.17 0 0 1 .242-.26 1.07 1.07 0 0 1 .314-.163 1.13 1.13 0 0 1 .345-.055 1.13 1.13 0 0 1 .345.055 1.07 1.07 0 0 1 .314.163 1.17 1.17 0 0 1 .242.26c.064.097.113.204.145.321a1.02 1.02 0 0 1 .036.351 1.02 1.02 0 0 1-.073.345c-.045.113-.105.207-.181.296a.98.98 0 0 1-.272.23 1.14 1.14 0 0 1-.327.133 1.12 1.12 0 0 1-.345.018 1.02 1.02 0 0 1-.339-.096 1.01 1.01 0 0 1-.29-.194c-.084-.081-.161-.18-.218-.284a.96.96 0 0 1-.109-.333l-.03-.176-.012-1.143-.067-2.698-.042-1.688a1.15 1.15 0 0 1 .073-.291c.037-.093.077-.179.133-.26a1.39 1.39 0 0 1 .2-.224 1.13 1.13 0 0 1 .248-.169 1.18 1.18 0 0 1 .278-.109 1.2 1.2 0 0 1 .581 0 1.18 1.18 0 0 1 .278.109 1.13 1.13 0 0 1 .248.169 1.39 1.39 0 0 1 .2.224 1.08 1.08 0 0 1 .133.26 1.19 1.19 0 0 1 .073.291l.018.145zm5.452-1.795l.012 2.093-.018 2.305a1.27 1.27 0 0 1-.139.405 1.17 1.17 0 0 1-.254.339 1.28 1.28 0 0 1-.357.242 1.31 1.31 0 0 1-.411.115 1.23 1.23 0 0 1-.417-.024c-.141-.029-.274-.081-.399-.158s-.234-.165-.327-.278a1.28 1.28 0 0 1-.315-.78c-.004-.146.012-.289.048-.43s.101-.266.181-.387a1.31 1.31 0 0 1 .29-.309c.113-.089.244-.155.381-.199a1.33 1.33 0 0 1 .835 0c.137.044.264.111.381.199s.21.192.29.309.141.252.181.393.056.278.048.424-.04.284-.097.417a1.28 1.28 0 0 1-.218.363 1.19 1.19 0 0 1-.327.278c-.125.072-.258.129-.399.158a1.23 1.23 0 0 1-.417.024 1.31 1.31 0 0 1-.411-.115 1.28 1.28 0 0 1-.357-.242c-.105-.101-.19-.21-.254-.339a1.27 1.27 0 0 1-.139-.405l-.036-.212.018-2.093.03-2.245a1.19 1.19 0 0 1 .079-.308 1.31 1.31 0 0 1 .145-.279c.056-.084.125-.161.206-.229a1.23 1.23 0 0 1 .26-.182 1.29 1.29 0 0 1 .29-.109 1.33 1.33 0 0 1 .617 0 1.27 1.27 0 0 1 .29.109 1.23 1.23 0 0 1 .26.182 1.11 1.11 0 0 1 .206.229c.06.089.109.182.145.279s.066.203.079.308l.018.152zm5.825-.653l-.018 1.373.079 2.499.06 1.325c-.016.141-.054.274-.115.399s-.141.242-.242.339a1.27 1.27 0 0 1-.332.248 1.26 1.26 0 0 1-.399.127c-.137.02-.273.018-.406-.006-.141-.025-.272-.071-.393-.139a1.2 1.2 0 0 1-.326-.261c-.097-.1-.174-.215-.23-.344a1.27 1.27 0 0 1-.103-.406 1.3 1.3 0 0 1 .03-.411 1.36 1.36 0 0 1 .158-.387 1.34 1.34 0 0 1 .278-.309c.109-.089.228-.159.357-.212s.266-.074.399-.078a1.23 1.23 0 0 1 .417.048 1.33 1.33 0 0 1 .375.182c.113.08.212.177.296.29s.144.236.188.369a1.42 1.42 0 0 1 .06.411 1.43 1.43 0 0 1-.072.412c-.049.133-.117.254-.206.363a1.18 1.18 0 0 1-.302.284 1.17 1.17 0 0 1-.381.163 1.31 1.31 0 0 1-.418.043 1.38 1.38 0 0 1-.393-.097 1.29 1.29 0 0 1-.357-.224c-.104-.093-.191-.199-.26-.32a1.32 1.32 0 0 1-.151-.388l-.042-.205.006-1.12a24.52 24.52 0 0 0-.127-2.486l-.115-1.531c.008-.109.03-.216.066-.32a1.28 1.28 0 0 1 .14-.291 1.36 1.36 0 0 1 .199-.254c.081-.072.168-.137.26-.193s.192-.095.297-.128a1.71 1.71 0 0 1 .32-.054c.105-.004.212.006.321.03a1.27 1.27 0 0 1 .308.103c.097.045.188.101.272.17a1.28 1.28 0 0 1 .224.235c.064.088.119.178.163.279s.071.205.091.314l.024.158zm5.615-1.342l-.055 1.204-.018 2.891.006 1.9c-.024.145-.07.282-.139.412a1.35 1.35 0 0 1-.26.344 1.26 1.26 0 0 1-.357.242 1.35 1.35 0 0 1-.417.115c-.141.016-.282.008-.424-.024a1.43 1.43 0 0 1-.399-.157 1.29 1.29 0 0 1-.326-.285 1.16 1.16 0 0 1-.224-.369 1.22 1.22 0 0 1-.097-.417c-.004-.145.012-.288.048-.43a1.27 1.27 0 0 1 .182-.393 1.28 1.28 0 0 1 .296-.314c.117-.089.244-.156.381-.2s.278-.073.424-.073a1.27 1.27 0 0 1 .423.073c.137.044.264.111.381.2a1.26 1.26 0 0 1 .296.314 1.38 1.38 0 0 1 .182.393 1.42 1.42 0 0 1 .042.43 1.13 1.13 0 0 1-.091.417c-.052.138-.127.261-.223.369a1.31 1.31 0 0 1-.327.285 1.43 1.43 0 0 1-.399.157c-.141.032-.282.04-.423.024s-.285-.054-.418-.115a1.45 1.45 0 0 1-.357-.242c-.104-.1-.191-.215-.26-.344a1.33 1.33 0 0 1-.139-.412l-.036-.212.042-1.688-.018-2.891-.036-1.368a1.29 1.29 0 0 1 .078-.32 1.28 1.28 0 0 1 .158-.291 1.19 1.19 0 0 1 .217-.248 1.41 1.41 0 0 1 .273-.193 1.49 1.49 0 0 1 .308-.115 1.31 1.31 0 0 1 .327-.043c.109 0 .217.015.326.043s.212.066.309.115.187.117.272.193.157.156.218.248.117.186.157.291a1.29 1.29 0 0 1 .078.32l.019.164zm-41.597-.085l.036 1.392.018 1.585a.99.99 0 0 1-.091.357 1.01 1.01 0 0 1-.2.302c-.085.089-.175.169-.284.23a1.31 1.31 0 0 1-.345.121c-.121.02-.244.022-.369.006a1.25 1.25 0 0 1-.339-.109 1.18 1.18 0 0 1-.296-.218 1.22 1.22 0 0 1-.212-.302 1.14 1.14 0 0 1-.103-.351 1.1 1.1 0 0 1 .012-.363 1.03 1.03 0 0 1 .133-.339 1.02 1.02 0 0 1 .23-.284 1.21 1.21 0 0 1 .309-.194 1.15 1.15 0 0 1 .351-.085c.125-.008.246.002.363.031s.234.082.339.151a1.2 1.2 0 0 1 .266.248c.077.097.135.204.175.321a.97.97 0 0 1 .066.357c.004.125-.014.246-.054.363s-.091.225-.163.326a1.18 1.18 0 0 1-.26.254 1.02 1.02 0 0 1-.333.158c-.117.036-.236.052-.357.048a1.09 1.09 0 0 1-.357-.073 1.12 1.12 0 0 1-.315-.187c-.097-.077-.177-.167-.242-.272a1.12 1.12 0 0 1-.139-.339l-.042-.176-.163-1.391-.157-1.543c.004-.101.022-.199.054-.296s.069-.196.121-.285a1.46 1.46 0 0 1 .181-.235 1.07 1.07 0 0 1 .242-.194 1.25 1.25 0 0 1 .272-.127c.097-.032.197-.053.302-.061.097-.004.196.002.296.019a1.21 1.21 0 0 1 .29.084c.093.041.18.093.26.158a.99.99 0 0 1 .218.211 1.38 1.38 0 0 1 .163.26 1.06 1.06 0 0 1 .091.291l.03.151z"/><path d="M66.774 115.788l1.603.06c1.073.041 2.101.174 3.085.399l2.625.587a14.13 14.13 0 0 0 2.002.285l1.742.175 1.681.212 1.79.248 2.026.248 2.111.121 2.31.048c.823.004 1.623-.044 2.401-.145l1.875-.296 1.524-.339 2.377-.647 2.643-.678 2.002-.46c.613-.169 1.26-.401 1.941-.696s1.444-.528 2.299-.713l2.226-.442 1.711-.345c.508-.121 1.188-.327 2.038-.617l1.525-.484a1.51 1.51 0 0 1 .502-.024c.169.016.33.06.483.133a1.5 1.5 0 0 1 .726.69 1.6 1.6 0 0 1 .157.478 1.46 1.46 0 0 1 0 .502 1.52 1.52 0 0 1-.163.478 1.51 1.51 0 0 1-.308.405 1.49 1.49 0 0 1-.418.278c-.153.073-.314.117-.483.133a1.52 1.52 0 0 1-.509-.024c-.165-.04-.32-.103-.465-.187s-.274-.2-.387-.333-.196-.272-.26-.43a1.6 1.6 0 0 1-.103-.496 1.64 1.64 0 0 1 .054-.502 1.43 1.43 0 0 1 .212-.454c.097-.141.214-.264.351-.369a1.71 1.71 0 0 1 .447-.236 1.61 1.61 0 0 1 .496-.078 1.5 1.5 0 0 1 .496.084c.161.053.311.131.448.236a1.51 1.51 0 0 1 .556.829 1.59 1.59 0 0 1 .055.502 1.7 1.7 0 0 1-.109.49 1.62 1.62 0 0 1-.266.436c-.109.129-.236.236-.381.321l-.224.133-1.5.447-2.341.636-1.76.387-1.687.32-1.549.255c-.528.08-1.022.191-1.481.332l-1.694.49-2.008.521-1.948.502-1.724.46c-.516.129-1.066.199-1.651.211l-1.554.037c-.456.016-1.113.098-1.972.248a25.4 25.4 0 0 1-2.595.326l-2.425.073-2.292-.079a17.51 17.51 0 0 1-2.135-.23l-1.796-.332-1.621-.351-1.724-.345-2.093-.381-2.425-.46c-.843-.157-1.798-.216-2.867-.175l-1.748.042a1.14 1.14 0 0 1-.284-.073 1.35 1.35 0 0 1-.266-.139 1.25 1.25 0 0 1-.218-.193 1.03 1.03 0 0 1-.169-.242 1.36 1.36 0 0 1-.103-.279 1.19 1.19 0 0 1-.036-.29 1.2 1.2 0 0 1 .036-.291 1.33 1.33 0 0 1 .103-.278 1.01 1.01 0 0 1 .169-.242 1.25 1.25 0 0 1 .218-.193 1.41 1.41 0 0 1 .266-.14c.093-.036.188-.06.284-.072l.145-.018zm-2.162-14.555l-.357.859c-.238.569-.564.702-.98.399s-.099-.758.95-1.355l1.857-.938c.181-.032.363-.034.544-.006s.359.085.52.17a1.73 1.73 0 0 1 .442.32 1.75 1.75 0 0 1 .314.448 1.88 1.88 0 0 1 .151.526c.02.186.012.367-.024.545a1.72 1.72 0 0 1-.2.514 1.66 1.66 0 0 1-.351.418 1.51 1.51 0 0 1-.466.29 1.69 1.69 0 0 1-.532.121c-.181.012-.363-.004-.544-.048s-.343-.125-.496-.23a1.78 1.78 0 0 1-.405-.369 1.64 1.64 0 0 1-.26-.484c-.06-.177-.093-.353-.097-.539a1.75 1.75 0 0 1 .085-.538 1.54 1.54 0 0 1 .254-.484 1.66 1.66 0 0 1 .393-.375 1.48 1.48 0 0 1 .49-.236 1.64 1.64 0 0 1 .544-.067c.185.008.365.045.538.109s.331.161.472.278a1.67 1.67 0 0 1 .357.412 1.65 1.65 0 0 1 .206.502 1.58 1.58 0 0 1 .036.551 1.62 1.62 0 0 1-.139.526 1.68 1.68 0 0 1-.302.454 1.7 1.7 0 0 1-.43.338l-.248.133-1.137.448c-.758.299-1.641.512-2.649.641s-1.603-.296-1.784-1.276-.161-1.759.061-2.335l.417-1.023a1.6 1.6 0 0 1 .218-.302 1.57 1.57 0 0 1 .278-.242 1.47 1.47 0 0 1 .333-.163 1.59 1.59 0 0 1 .363-.079 1.23 1.23 0 0 1 .363.006 1.73 1.73 0 0 1 .357.091 1.68 1.68 0 0 1 .32.181 1.59 1.59 0 0 1 .272.248 1.47 1.47 0 0 1 .206.308 1.48 1.48 0 0 1 .127.344c.028.121.036.242.036.363s-.022.249-.054.37l-.048.175zm8.35-20.034l.798-.569 1.706-1.295 1.694-1.422 1.349-1.198.774-.678.357-.254a1.17 1.17 0 0 1 .296-.139 1.49 1.49 0 0 1 .327-.073c.113-.012.218-.004.327.012a1.37 1.37 0 0 1 .315.091 1.46 1.46 0 0 1 .29.163 1.42 1.42 0 0 1 .236.23 1.24 1.24 0 0 1 .181.278 1.73 1.73 0 0 1 .103.309c.024.109.034.22.03.333s-.022.216-.055.321a1.21 1.21 0 0 1-.127.309c-.056.097-.121.183-.194.26s-.202.496-.375 1.246-.391 1.464-.665 2.142-.641 1.365-1.089 2.063l-.841 1.192a1.38 1.38 0 0 1-.369.218 1.33 1.33 0 0 1-.417.091 1.3 1.3 0 0 1-.429-.048c-.141-.04-.27-.095-.387-.175s-.226-.184-.314-.296-.151-.244-.2-.381-.067-.278-.067-.424a1.34 1.34 0 0 1 .067-.423c.045-.137.117-.264.206-.381s.188-.21.308-.29a1.5 1.5 0 0 1 .393-.175 1.24 1.24 0 0 1 .423-.048 1.22 1.22 0 0 1 .417.097 1.16 1.16 0 0 1 .369.212 1.47 1.47 0 0 1 .278.333 1.34 1.34 0 0 1 .157.393c.032.145.04.288.024.43a1.37 1.37 0 0 1-.115.417 1.3 1.3 0 0 1-.242.351 1.36 1.36 0 0 1-.345.26 1.27 1.27 0 0 1-.405.139 1.54 1.54 0 0 1-.429 0 1.34 1.34 0 0 1-.405-.139 1.26 1.26 0 0 1-.339-.26 1.27 1.27 0 0 1-.242-.357 1.37 1.37 0 0 1-.115-.411 1.28 1.28 0 0 1 .024-.43 1.42 1.42 0 0 1 .157-.399l.115-.187.496-.635c.331-.428.617-.978.859-1.652l.683-1.93.629-1.73c.21-.54.361-.841.454-.901a1.17 1.17 0 0 1 .296-.139 1.49 1.49 0 0 1 .327-.073c.113-.012.218-.004.327.012a1.37 1.37 0 0 1 .315.091 1.46 1.46 0 0 1 .29.163 1.42 1.42 0 0 1 .236.23 1.24 1.24 0 0 1 .181.278 1.73 1.73 0 0 1 .103.309c.024.109.034.22.03.333s-.022.216-.055.321a1.21 1.21 0 0 1-.127.309c-.056.097-.121.183-.194.26s-.204.159-.381.236-.452.256-.835.538a20.1 20.1 0 0 0-1.361 1.119l-1.712 1.597a16.29 16.29 0 0 1-1.736 1.476l-.944.659a1.39 1.39 0 0 1-.302.121 1.31 1.31 0 0 1-.327.042c-.109 0-.212-.006-.321-.03a1.78 1.78 0 0 1-.308-.115 1.34 1.34 0 0 1-.272-.181 1.23 1.23 0 0 1-.218-.242c-.065-.089-.117-.184-.157-.284s-.069-.212-.085-.321-.018-.216-.006-.321.036-.216.073-.321a1.22 1.22 0 0 1 .145-.29c.064-.093.137-.175.218-.248l.121-.115zM80.27 69.05l-3.677 2.148c-2.46 1.432-5.22 3.521-8.28 6.268s-5.587 5.433-7.566 8.059-3.389 4.582-4.24 5.856-1.419 2.184-1.706 2.741-.536 1.412-.75 2.577-.694 3.231-1.427 6.195-1.585 6.07-2.552 9.317-1.714 6.082-2.238 8.506l-1.125 5.517c-.226 1.255-.361 2.136-.405 2.644s-.085.807-.109.883-.056.15-.097.218a.94.94 0 0 1-.145.188 1.14 1.14 0 0 1-.187.151 1.12 1.12 0 0 1-.448.145 1.15 1.15 0 0 1-.236-.012 1.1 1.1 0 0 1-.23-.072 1.07 1.07 0 0 1-.206-.121.85.85 0 0 1-.169-.17.79.79 0 0 1-.127-.2 1.09 1.09 0 0 1-.073-.229.93.93 0 0 1-.018-.236 44.76 44.76 0 0 0-.006-1.186c-.008-.71.29-3.416.895-8.119s1.516-10.097 2.734-16.184 2.492-11.016 3.822-14.779l2.903-8.131 1.566-4.332.726-1.954c.044-.077.099-.145.163-.206a.87.87 0 0 1 .218-.139c.081-.036.165-.059.254-.067a.71.71 0 0 1 .26.024.91.91 0 0 1 .236.097.75.75 0 0 1 .194.175.92.92 0 0 1 .133.224.89.89 0 0 1 .048.254.81.81 0 0 1-.03.26c-.028.085-.066.161-.115.23a.89.89 0 0 1-.181.188.75.75 0 0 1-.236.115.7.7 0 0 1-.254.036.85.85 0 0 1-.26-.048.86.86 0 0 1-.224-.121c-.069-.052-.127-.121-.175-.194s-.083-.157-.103-.242a.68.68 0 0 1-.024-.254.9.9 0 0 1 .06-.254.87.87 0 0 1 .339-.387 1.01 1.01 0 0 1 .248-.091.8.8 0 0 1 .26-.006.92.92 0 0 1 .248.073c.077.04.147.091.212.151a.7.7 0 0 1 .151.212c.04.081.066.159.079.248a.81.81 0 0 1-.006.26l-.024.127-.659 1.845-1.548 4.326-2.843 8.028c-1.302 3.686-2.552 8.555-3.75 14.605s-2.093 11.376-2.673 15.977-.843 7.329-.774 8.18.097 1.321.073 1.397-.056.15-.097.218a.94.94 0 0 1-.145.188 1.14 1.14 0 0 1-.187.151 1.12 1.12 0 0 1-.448.145 1.15 1.15 0 0 1-.236-.012 1.1 1.1 0 0 1-.23-.072 1.07 1.07 0 0 1-.206-.121.85.85 0 0 1-.169-.17.79.79 0 0 1-.127-.2 1.09 1.09 0 0 1-.073-.229.93.93 0 0 1-.018-.236c.004-.08.077-.367.218-.859s.319-1.38.532-2.662.577-3.154 1.089-5.627 1.24-5.32 2.171-8.542c.931-3.227 1.738-6.294 2.419-9.202l1.518-6.467c.331-1.4.677-2.372 1.04-2.916l1.827-2.783c.855-1.311 2.3-3.332 4.337-6.062s4.627-5.519 7.772-8.367 5.935-5.007 8.371-6.479l3.768-2.257a1.28 1.28 0 0 1 .242-.073c.085-.017.161-.02.242-.012s.167.02.248.048a.98.98 0 0 1 .23.103 1.19 1.19 0 0 1 .194.157.9.9 0 0 1 .151.2c.044.073.079.149.103.23a1.02 1.02 0 0 1 .042.242 1.04 1.04 0 0 1-.018.248c-.012.081-.036.159-.072.236s-.081.149-.133.218a1.2 1.2 0 0 1-.175.175l-.103.079z"/><path d="M57.233 75.862l-1.911 2.91-4.972 7.478a58.07 58.07 0 0 0-5.183 9.523l-3.042 7.466s-.895 2.587-.859 2.753.032.28 0 .344a1.03 1.03 0 0 1-.127.188.97.97 0 0 1-.163.151c-.061.045-.127.081-.2.109s-.139.046-.212.054-.151.015-.224.007-.149-.025-.218-.049a.7.7 0 0 1-.2-.103c-.065-.04-.123-.088-.175-.145s-.091-.117-.127-.181-.064-.134-.085-.206-.03-.147-.03-.224a1.03 1.03 0 0 1 .024-.224l.29-1.307 1.01-3.684s1.288-4.503 2.377-8.548a131.35 131.35 0 0 1 3.829-11.961l3.708-9.202 2.625-5.747 1.185-2.541c.048-.073.107-.135.175-.187s.143-.093.224-.121a.8.8 0 0 1 .254-.042.8.8 0 0 1 .254.042c.081.028.155.069.224.121s.129.109.181.181.085.149.109.23.028.171.024.26-.02.167-.048.248-.077.153-.133.218a.77.77 0 0 1-.194.169c-.077.044-.157.077-.242.097a.67.67 0 0 1-.254.012.78.78 0 0 1-.248-.067c-.077-.036-.147-.083-.212-.139s-.117-.129-.157-.206a.74.74 0 0 1-.079-.242.77.77 0 0 1-.006-.254c.016-.089.044-.171.085-.248s.091-.143.151-.2.135-.109.212-.145a.92.92 0 0 1 .248-.073c.085-.008.169-.004.254.012s.165.052.242.097.137.099.194.163.101.137.133.218a.76.76 0 0 1 .054.248c.008.089 0 .175-.024.26l-.036.121-1.107 2.432-2.595 5.699-3.659 9.081a132.61 132.61 0 0 0-3.798 11.912l-2.341 8.488c-.476 1.597-.782 2.852-.919 3.763s-.222 1.4-.254 1.464a1.03 1.03 0 0 1-.127.188.97.97 0 0 1-.163.151c-.061.045-.127.081-.2.109s-.139.046-.212.054-.151.015-.224.007-.149-.025-.218-.049a.7.7 0 0 1-.2-.103c-.065-.04-.123-.088-.175-.145s-.091-.117-.127-.181-.064-.134-.085-.206-.03-.147-.03-.224a1.03 1.03 0 0 1 .024-.224 3.43 3.43 0 0 0 .048-.302c.02-.125.335-1.051.944-2.777s1.645-4.287 3.097-7.696a60.69 60.69 0 0 1 5.196-9.692l4.893-7.514 1.947-3.025c.048-.065.105-.119.169-.163a.86.86 0 0 1 .206-.115c.077-.032.153-.054.23-.067s.157-.014.23-.006c.081.008.157.024.23.048a1.35 1.35 0 0 1 .218.103c.065.044.125.095.181.151s.099.125.139.194.071.141.091.218.032.155.036.236a1.17 1.17 0 0 1-.024.23c-.016.077-.042.151-.079.224l-.048.103z"/><path d="M57.867 61.487l-.441 1.307c-.294.871-.933 2.426-1.917 4.665l-3.369 8.234a203.64 203.64 0 0 0-3.429 9.577l-2.274 6.933c-.484 1.488-1.103 2.803-1.857 3.944l-1.24 1.821c-.077.073-.163.133-.26.181s-.198.079-.303.091a.95.95 0 0 1-.321-.006c-.105-.02-.204-.058-.296-.115a.98.98 0 0 1-.248-.2 1 1 0 0 1-.169-.266.99.99 0 0 1-.073-.309 1.04 1.04 0 0 1 .151-.605 1.18 1.18 0 0 1 .212-.236.95.95 0 0 1 .278-.157.92.92 0 0 1 .314-.055.94.94 0 0 1 .315.042 1 1 0 0 1 .278.139.94.94 0 0 1 .224.23c.061.089.111.18.139.284s.046.206.042.315a.87.87 0 0 1-.061.308 1.09 1.09 0 0 1-.157.278 1 1 0 0 1-.236.212.92.92 0 0 1-.29.121 1.05 1.05 0 0 1-.315.024.89.89 0 0 1-.308-.079.83.83 0 0 1-.266-.169.98.98 0 0 1-.2-.248.97.97 0 0 1-.109-.296c-.02-.109-.022-.216-.006-.321a1.02 1.02 0 0 1 .097-.303l.067-.145 1.125-1.398c.746-.932 1.351-2.144 1.814-3.636l2.232-6.988a213.76 213.76 0 0 1 3.387-9.686l3.236-8.204 1.742-4.604.417-1.452c.036-.081.083-.157.139-.23a1.03 1.03 0 0 1 .188-.187 1 1 0 0 1 .224-.139 1.09 1.09 0 0 1 .254-.079.82.82 0 0 1 .26-.018 1.15 1.15 0 0 1 .266.042 1.3 1.3 0 0 1 .242.109c.077.044.147.099.212.163a1.22 1.22 0 0 1 .169.212c.044.077.081.157.109.242a.95.95 0 0 1 .048.26c.008.085.004.171-.012.26l-.024.133zM45.386 71.98l1.361-1.313 1.585-1.416a1.46 1.46 0 0 1 .448-.157 1.58 1.58 0 0 1 .478 0 1.39 1.39 0 0 1 .448.151 1.49 1.49 0 0 1 .381.284 1.54 1.54 0 0 1 .266.393c.069.145.111.298.127.46a1.32 1.32 0 0 1-.024.472 1.52 1.52 0 0 1-.169.448c-.08.141-.187.258-.308.363a1.52 1.52 0 0 1-.405.242 1.42 1.42 0 0 1-.466.103 1.34 1.34 0 0 1-.472-.048 1.55 1.55 0 0 1-.435-.2 1.43 1.43 0 0 1-.345-.327 1.44 1.44 0 0 1-.224-.417 1.45 1.45 0 0 1-.079-.472 1.43 1.43 0 0 1 .079-.466 1.34 1.34 0 0 1 .224-.424c.101-.13.21-.234.339-.327s.278-.155.435-.2a1.43 1.43 0 0 1 .472-.054c.161.008.317.042.466.103a1.52 1.52 0 0 1 .405.242 1.57 1.57 0 0 1 .309.363 1.35 1.35 0 0 1 .175.442 1.46 1.46 0 0 1 .03.478 1.61 1.61 0 0 1-.127.454c-.065.146-.157.276-.266.393l-.163.175-1.228 1.089-1.355 1.192a1.4 1.4 0 0 1-.284.188 1.28 1.28 0 0 1-.315.115 1.6 1.6 0 0 1-.333.036c-.117-.004-.23-.02-.339-.048a1.2 1.2 0 0 1-.314-.127 1.31 1.31 0 0 1-.278-.194c-.084-.077-.159-.167-.224-.26s-.115-.198-.151-.303a1.38 1.38 0 0 1-.079-.333c-.012-.113-.01-.226.006-.339a1.28 1.28 0 0 1 .091-.327 1.25 1.25 0 0 1 .163-.296l.097-.139z"/><path d="M52.263 65.459l-.218-.793c-.149-.528-.839-1.303-2.068-2.323l-3.393-2.68-1.99-1.585-.532-.526a1.29 1.29 0 0 1-.181-.212 1.16 1.16 0 0 1-.127-.242c-.028-.089-.048-.179-.06-.272a1.29 1.29 0 0 1 .006-.278c.012-.089.034-.177.067-.266a1.02 1.02 0 0 1 .133-.242 1.11 1.11 0 0 1 .181-.206c.073-.061.149-.113.23-.157a1.25 1.25 0 0 1 .26-.091c.093-.02.186-.03.278-.03a1.03 1.03 0 0 1 .272.036c.089.024.173.056.254.097s.585-.024 1.5-.206 2.147-.359 3.696-.532 2.895-.416 4.052-.726l1.917-.472a1.15 1.15 0 0 1 .333.036.94.94 0 0 1 .302.139c.093.061.173.137.242.23s.127.185.163.29.054.22.054.333a.99.99 0 0 1-.054.327.9.9 0 0 1-.151.296 1.03 1.03 0 0 1-.242.236c-.093.065-.194.111-.302.139a1.03 1.03 0 0 1-.333.042c-.113-.008-.222-.032-.327-.073a1.05 1.05 0 0 1-.29-.169 1.1 1.1 0 0 1-.218-.254 1.22 1.22 0 0 1-.127-.309c-.024-.113-.03-.224-.018-.333a1.04 1.04 0 0 1 .091-.327 1.03 1.03 0 0 1 .181-.278c.077-.081.165-.149.266-.206s.206-.089.315-.109.226-.016.339 0 .214.05.315.103.19.121.266.206.145.171.194.272.079.212.091.321.006.226-.018.339a1.07 1.07 0 0 1-.121.309.99.99 0 0 1-.212.254.98.98 0 0 1-.29.176l-.157.066-1.857.357-4.149.659-4.476.563-2.286.163a1.29 1.29 0 0 1-.181-.212 1.16 1.16 0 0 1-.127-.242c-.028-.089-.048-.179-.06-.272a1.29 1.29 0 0 1 .006-.278c.012-.089.034-.177.067-.266a1.02 1.02 0 0 1 .133-.242 1.11 1.11 0 0 1 .181-.206 1.19 1.19 0 0 1 .23-.151 1.07 1.07 0 0 1 .26-.097c.093-.02.186-.03.278-.03a1.03 1.03 0 0 1 .272.036c.089.024.173.056.254.097s.25.246.496.605.927.916 2.044 1.67 2.425 1.789 3.925 3.092 2.322 2.261 2.48 2.874l.26 1.065c.016.097.018.189.006.278-.008.097-.028.189-.06.278s-.075.179-.127.26-.115.149-.187.218a1.03 1.03 0 0 1-.23.163 1.53 1.53 0 0 1-.266.109 1.12 1.12 0 0 1-.284.036c-.093.004-.185-.006-.278-.03a1.05 1.05 0 0 1-.266-.097c-.085-.04-.163-.093-.236-.157s-.141-.129-.194-.206-.103-.165-.139-.254l-.054-.133z"/><path d="M57.154 54.528l3.254 1.119 8.909 2.765 8.522 2.632c1.907.662 3.028.591 3.363-.212s-.097-2.148-1.294-4.035l-3.157-5.536-1.941-4.229c-.387-1.016-.774-1.869-1.161-2.559l-.623-1.186a.99.99 0 0 1-.036-.308.92.92 0 0 1 .067-.309.89.89 0 0 1 .157-.266c.065-.081.141-.149.23-.206a1.01 1.01 0 0 1 .29-.121.88.88 0 0 1 .308-.018c.105.008.206.034.302.079s.184.101.26.169.141.155.194.248a1.08 1.08 0 0 1 .103.29c.016.105.016.21 0 .315s-.042.204-.091.296-.111.175-.187.248-.161.133-.254.181-.198.073-.302.085-.208.008-.308-.012-.202-.056-.29-.109a1.06 1.06 0 0 1-.242-.2c-.069-.081-.123-.169-.163-.266a.97.97 0 0 1-.073-.303c-.004-.105.006-.208.03-.308s.071-.2.127-.284a1.05 1.05 0 0 1 .212-.23c.085-.064.177-.115.278-.151s.198-.055.302-.055a1.01 1.01 0 0 1 .308.048 1 1 0 0 1 .278.139 1.04 1.04 0 0 1 .218.224l.091.133.466 1.155 1.034 2.595c.375.964 1.012 2.327 1.911 4.09l3.2 5.941c1.238 2.194 1.651 3.828 1.24 4.901s-1.881 1.446-4.421 1.119-5.718-1.02-9.532-2.081l-9-2.632-3.399-1.107c-.081-.04-.155-.089-.224-.145a1.38 1.38 0 0 1-.187-.188 1.23 1.23 0 0 1-.133-.236.92.92 0 0 1-.072-.254c-.016-.089-.02-.175-.012-.26s.026-.175.054-.26.066-.165.115-.242a1.05 1.05 0 0 1 .169-.206 1.02 1.02 0 0 1 .212-.163c.077-.044.159-.079.248-.103a.82.82 0 0 1 .26-.042c.085-.004.171.002.26.018l.133.03z"/><path d="M76.07 46.18l1.476 1.73c.98 1.158 2.411 3.045 4.294 5.663l4.857 6.419 2.909 3.334.938.92a1.06 1.06 0 0 1 .091.194.68.68 0 0 1 .042.2 1.24 1.24 0 0 1-.006.212.69.69 0 0 1-.061.2 1 1 0 0 1-.103.181 1.04 1.04 0 0 1-.145.151 1.18 1.18 0 0 1-.175.115 1.15 1.15 0 0 1-.2.067 1.23 1.23 0 0 1-.212.018.72.72 0 0 1-.206-.036 1.02 1.02 0 0 1-.194-.079.85.85 0 0 1-.163-.127c-.048-.048.042-.714.284-1.996s.421-3.09.538-5.421.581-4.509 1.391-6.534 2.274-3.473 4.391-4.344 5.268-1.049 9.441-.544a286.04 286.04 0 0 1 11.843 1.658l8.207 1.458s2.654.653 2.698.847.103.296.175.321.147.05.212.091.125.087.181.139.099.111.14.175a.78.78 0 0 1 .09.212c.02.073.039.147.043.224a.67.67 0 0 1-.013.224.81.81 0 0 1-.066.218.8.8 0 0 1-.115.194.86.86 0 0 1-.157.163.98.98 0 0 1-.194.121.86.86 0 0 1-.218.067 1.09 1.09 0 0 1-.229.018c-.076-.004-.313.099-.708.309s-.641.321-.738.345a.81.81 0 0 1-.296.018.91.91 0 0 1-.291-.073.99.99 0 0 1-.248-.169.95.95 0 0 1-.181-.236.82.82 0 0 1-.097-.278.82.82 0 0 1-.006-.296c.016-.096.047-.196.091-.284a1.06 1.06 0 0 1 .181-.242c.073-.069.154-.125.242-.169a.89.89 0 0 1 .291-.079.92.92 0 0 1 .296.012 1.01 1.01 0 0 1 .278.103 1.05 1.05 0 0 1 .23.194c.065.077.117.161.157.254a.99.99 0 0 1 .067.29 1.05 1.05 0 0 1-.03.296 1.13 1.13 0 0 1-.121.272.82.82 0 0 1-.206.218 1.1 1.1 0 0 1-.26.145.94.94 0 0 1-.296.048 1.01 1.01 0 0 1-.291-.042.89.89 0 0 1-.266-.139c-.081-.06-.149-.133-.206-.218a.85.85 0 0 1-.133-.266c-.028-.097-.038-.196-.03-.296a.87.87 0 0 1 .061-.29.97.97 0 0 1 .151-.26c.064-.077.139-.141.224-.194l.127-.079 1.113-.387c.741-.258 1.149-.375 1.221-.351a.97.97 0 0 1 .212.091 1 1 0 0 1 .175.139.87.87 0 0 1 .146.175.89.89 0 0 1 .09.212c.02.073.039.147.043.224a.67.67 0 0 1-.013.224.81.81 0 0 1-.066.218.8.8 0 0 1-.115.194.86.86 0 0 1-.157.163.98.98 0 0 1-.194.121.86.86 0 0 1-.218.067 1.09 1.09 0 0 1-.229.018c-.076-.004-.222-.228-.436-.671s-1.099-.768-2.655-.986l-7.893-1.222-11.473-1.688c-3.944-.528-6.853-.462-8.728.2s-3.145 1.874-3.81 3.636-1.066 3.864-1.191 6.304-.357 4.043-.684 4.81-.478 1.178-.441 1.234a1.06 1.06 0 0 1 .091.194 1.09 1.09 0 0 1 .042.2.94.94 0 0 1-.006.212.69.69 0 0 1-.061.2 1 1 0 0 1-.103.181 1.04 1.04 0 0 1-.145.151 1.18 1.18 0 0 1-.175.115 1.15 1.15 0 0 1-.2.067 1.23 1.23 0 0 1-.212.018.72.72 0 0 1-.206-.036 1.02 1.02 0 0 1-.194-.079.85.85 0 0 1-.163-.127 123.64 123.64 0 0 1-.944-.919c-.577-.561-1.558-1.684-2.945-3.37l-4.881-6.371-4.312-5.548-1.56-1.803a1 1 0 0 1-.109-.206.95.95 0 0 1-.048-.218 1.05 1.05 0 0 1 0-.224c.008-.077.032-.151.061-.224a.97.97 0 0 1 .109-.2 1.02 1.02 0 0 1 .151-.169.84.84 0 0 1 .188-.127.83.83 0 0 1 .218-.079 1 1 0 0 1 .218-.024.9.9 0 0 1 .23.03 1.05 1.05 0 0 1 .212.085c.069.036.131.079.188.127l.085.079zm44.895 7.921l-2.867 1.065-6.967 2.602-7.784 2.855c-2.46.879-2.073 1.321 1.161 1.325s6.949-.569 11.147-1.718c4.189-1.145 7.391-2.075 9.604-2.789s3.736-1.166 4.567-1.355l1.349-.303a.71.71 0 0 1 .205-.018.83.83 0 0 1 .2.036 1.08 1.08 0 0 1 .187.079 1.18 1.18 0 0 1 .158.121.64.64 0 0 1 .127.163c.036.056.066.117.09.181a.79.79 0 0 1 .037.2 1.1 1.1 0 0 1-.006.2.89.89 0 0 1-.061.2 1.04 1.04 0 0 1-.103.175c-.04.052-.086.101-.139.145s-.115.075-.175.103-.563.405-1.506 1.119-2.544 1.577-4.79 2.577-4.073 1.742-5.48 2.238c-1.415.496-2.555.946-3.417 1.349s-1.347.617-1.452.641a.88.88 0 0 1-.308.018 1 1 0 0 1-.303-.085.88.88 0 0 1-.254-.169c-.077-.072-.141-.155-.193-.248a.93.93 0 0 1-.097-.296c-.02-.101-.022-.204-.006-.308a.85.85 0 0 1 .103-.297.99.99 0 0 1 .181-.248.88.88 0 0 1 .26-.175c.097-.044.192-.073.296-.085a.93.93 0 0 1 .315.018.89.89 0 0 1 .284.109.96.96 0 0 1 .242.206.98.98 0 0 1 .163.26c.04.097.059.204.067.309a1.14 1.14 0 0 1-.03.308.89.89 0 0 1-.345.508.94.94 0 0 1-.272.145c-.097.032-.204.054-.309.054a1.01 1.01 0 0 1-.308-.048.92.92 0 0 1-.272-.145 1.03 1.03 0 0 1-.218-.224 1.01 1.01 0 0 1-.133-.284.89.89 0 0 1-.03-.309.97.97 0 0 1 .06-.303c.041-.097.095-.185.164-.266s.143-.149.235-.206l.133-.079 1.392-.478 3.441-1.21c1.363-.484 3.115-1.2 5.256-2.148s3.758-1.817 4.863-2.62 1.683-1.204 1.748-1.216.137-.022.205-.018a.83.83 0 0 1 .2.036 1.08 1.08 0 0 1 .187.079 1.18 1.18 0 0 1 .158.121.64.64 0 0 1 .127.163c.036.056.066.117.09.181a.79.79 0 0 1 .037.2 1.1 1.1 0 0 1-.006.2.89.89 0 0 1-.061.2 1.04 1.04 0 0 1-.103.175c-.04.052-.086.101-.139.145a.83.83 0 0 1-.175.103c-.061.032-.506.147-1.337.345s-2.357.667-4.59 1.41-5.5 1.702-9.787 2.892c-4.294 1.19-8.14 1.932-11.54 2.226s-5.308.028-5.715-.786.774-1.995 3.532-3.527 5.502-2.817 8.22-3.866l6.937-2.68 2.976-1.137a.9.9 0 0 1 .459 0 1.02 1.02 0 0 1 .218.085.83.83 0 0 1 .194.133c.06.052.112.111.157.175a.99.99 0 0 1 .109.206 1.08 1.08 0 0 1 .06.23c.012.077.008.153 0 .23a1.22 1.22 0 0 1-.06.23 1.07 1.07 0 0 1-.109.206.9.9 0 0 1-.157.175.97.97 0 0 1-.188.133l-.109.054z"/><path d="M120.542 62.967l3.321 1.113c2.209.75 5.491 1.998 9.846 3.745s8.135 3.376 11.329 4.888 5.433 2.654 6.707 3.412l1.996 1.198a.82.82 0 0 1 .163.127c.048.048.089.109.121.169s.065.123.085.188a.89.89 0 0 1 .036.206 1.19 1.19 0 0 1-.018.206 1.17 1.17 0 0 1-.066.2c-.028.065-.065.119-.109.175a.86.86 0 0 1-.151.139.72.72 0 0 1-.176.109c-.065.028-.131.042-.199.054a.89.89 0 0 1-.206.012 1.09 1.09 0 0 1-.206-.042c-.064-.02-.274.19-.629.629s-2.149.524-5.395.242-6.903-.768-10.983-1.446l-9.569-1.628-3.55-.641c-.065-.02-.127-.046-.188-.079a1.01 1.01 0 0 1-.163-.121.95.95 0 0 1-.127-.157c-.036-.056-.064-.123-.085-.187a.79.79 0 0 1-.042-.2 1.1 1.1 0 0 1 .006-.2.84.84 0 0 1 .061-.2c.029-.065.058-.119.102-.175a.95.95 0 0 1 .14-.145.69.69 0 0 1 .175-.109c.06-.028.123-.05.187-.067a.89.89 0 0 1 .206-.012c.069 0 .397.171.986.514s2.385 1.258 5.377 2.759 5.988 3.18 8.988 5.04 5.302 3.662 6.907 5.421 2.423 3.36 2.443 4.791-.445 2.478-1.409 3.14-2.145.946-3.532.853-3.01-.494-4.869-1.216-3.619-1.603-5.268-2.656-2.659-1.754-3.018-2.105l-.629-.605a.79.79 0 0 1-.272-.363 1.03 1.03 0 0 1-.061-.224 1.11 1.11 0 0 1-.012-.23c.008-.077.024-.151.048-.224a1.02 1.02 0 0 1 .097-.206c.044-.064.095-.123.151-.175a.91.91 0 0 1 .182-.139c.064-.036.135-.065.211-.085a.71.71 0 0 1 .224-.036c.077-.004.153.002.23.018a.95.95 0 0 1 .218.073c.069.033.939.315 2.613.847s3.542 1.036 5.619 1.525l4.554 1.041 1.542.345a1.04 1.04 0 0 1 .17.085.75.75 0 0 1 .145.127c.045.048.076.101.109.157a.74.74 0 0 1 .072.175.8.8 0 0 1 .024.194.73.73 0 0 1-.024.188.58.58 0 0 1-.066.181.87.87 0 0 1-.103.157 1.21 1.21 0 0 1-.145.133.86.86 0 0 1-.17.091.67.67 0 0 1-.181.048c-.064.008-.129.008-.194 0s-.512-.294-1.342-.859-3.031-1.791-6.599-3.678l-12.012-6.401c-4.431-2.376-8.215-4.334-11.353-5.874l-6.967-3.412c-1.504-.73-2.29-1.127-2.359-1.192a.89.89 0 0 1-.181-.224.8.8 0 0 1-.097-.266.75.75 0 0 1-.006-.284.89.89 0 0 1 .078-.272.95.95 0 0 1 .17-.23.93.93 0 0 1 .23-.169 1.01 1.01 0 0 1 .272-.085.84.84 0 0 1 .284.012.79.79 0 0 1 .49.272c.064.073.115.153.151.242a.82.82 0 0 1 .049.557c-.025.097-.063.186-.115.266a.95.95 0 0 1-.188.212c-.076.061-.159.107-.248.139a.92.92 0 0 1-.278.054.85.85 0 0 1-.284-.036.84.84 0 0 1-.254-.127.8.8 0 0 1-.2-.206.84.84 0 0 1-.127-.254.96.96 0 0 1-.042-.278c.004-.097.022-.192.054-.284s.079-.171.139-.248a.95.95 0 0 1 .212-.188.89.89 0 0 1 .26-.115.98.98 0 0 1 .284-.024.84.84 0 0 1 .279.073l.133.054 2.129 1.131c1.419.758 3.705 1.912 6.858 3.461s6.946 3.511 11.377 5.886l12.097 6.449c3.629 1.924 5.766 3.126 6.411 3.606s.998.736 1.058.756a.67.67 0 0 1 .17.085.91.91 0 0 1 .145.127c.045.048.076.101.109.157a.74.74 0 0 1 .072.175.8.8 0 0 1 .024.194.73.73 0 0 1-.024.188.58.58 0 0 1-.066.181.87.87 0 0 1-.103.157 1.21 1.21 0 0 1-.145.133.86.86 0 0 1-.17.091.67.67 0 0 1-.181.048c-.064.008-.129.008-.194 0s-.578-.115-1.542-.321l-4.603-1.047a167.79 167.79 0 0 1-5.951-1.5c-1.863-.508-2.825-.787-2.885-.835a.79.79 0 0 1-.272-.363 1.03 1.03 0 0 1-.061-.224 1.11 1.11 0 0 1-.012-.23c.008-.077.024-.151.048-.224a1.02 1.02 0 0 1 .097-.206c.044-.064.095-.123.151-.175a.91.91 0 0 1 .182-.139c.064-.036.135-.065.211-.085a.71.71 0 0 1 .224-.036c.077-.004.153.002.23.018a.95.95 0 0 1 .218.073c.069.033.26.27.574.714s1.244 1.157 2.801 2.154 3.189 1.833 4.911 2.511 3.129 1.095 4.234 1.24 2.036.016 2.794-.387 1.109-1.053 1.052-1.948-.816-2.115-2.28-3.672-3.669-3.231-6.629-5.034a221.32 221.32 0 0 0-9.532-5.469l-5.189-2.801c-.065-.02-.127-.046-.188-.079a1.01 1.01 0 0 1-.163-.121.95.95 0 0 1-.127-.157c-.036-.056-.064-.123-.085-.187a.79.79 0 0 1-.042-.2 1.1 1.1 0 0 1 .006-.2.84.84 0 0 1 .061-.2c.029-.065.058-.119.102-.175a.95.95 0 0 1 .14-.145.69.69 0 0 1 .175-.109c.06-.028.123-.05.187-.067a.89.89 0 0 1 .206-.012c.069 0 1.254.198 3.556.593l9.52 1.567c4.049.657 7.534 1.158 10.458 1.5s4.818.3 5.673-.127 1.313-.617 1.373-.581a.85.85 0 0 1 .163.127c.048.048.089.109.121.169s.065.123.085.188a.89.89 0 0 1 .036.206 1.19 1.19 0 0 1-.018.206 1.17 1.17 0 0 1-.066.2c-.028.065-.065.119-.109.175a.86.86 0 0 1-.151.139.72.72 0 0 1-.176.109c-.065.028-.131.042-.199.054a.89.89 0 0 1-.206.012 1.09 1.09 0 0 1-.206-.042c-.064-.02-.738-.403-2.02-1.15s-3.508-1.851-6.677-3.327-6.925-3.071-11.256-4.773-7.609-2.9-9.834-3.606l-3.442-1.113a.9.9 0 0 1-.218-.133 1 1 0 0 1-.296-.393.88.88 0 0 1-.073-.242c-.016-.085-.02-.165-.012-.242a.88.88 0 0 1 .049-.248 1.15 1.15 0 0 1 .109-.23 1.14 1.14 0 0 1 .157-.194 1.24 1.24 0 0 1 .199-.151.84.84 0 0 1 .23-.097 1.04 1.04 0 0 1 .248-.042 1.01 1.01 0 0 1 .242.018l.121.024zM78.311 55.05l-2.105-.901-5.468-2.396a69.81 69.81 0 0 0-7.137-2.686c-2.52-.799-4.534-1.198-6.042-1.198s-2.619.244-3.333.732-1.403 1.101-2.081 1.827L50.99 51.62a1.08 1.08 0 0 1-.29.139c-.105.032-.212.04-.321.036a.92.92 0 0 1-.315-.067c-.101-.041-.197-.095-.278-.163a.9.9 0 0 1-.212-.248.91.91 0 0 1-.127-.296.95.95 0 0 1-.018-.321 1.05 1.05 0 0 1 .085-.315 1.02 1.02 0 0 1 .175-.272 1.13 1.13 0 0 1 .26-.194.97.97 0 0 1 .302-.109 1.07 1.07 0 0 1 .321 0 1.02 1.02 0 0 1 .309.097 1.12 1.12 0 0 1 .26.194 1.1 1.1 0 0 1 .188.266 1.07 1.07 0 0 1 .085.315.87.87 0 0 1-.012.321 1.2 1.2 0 0 1-.115.303 1.03 1.03 0 0 1-.212.248.91.91 0 0 1-.272.169 1.05 1.05 0 0 1-.314.073c-.109.008-.216-.002-.321-.03a.94.94 0 0 1-.296-.133.89.89 0 0 1-.236-.224.93.93 0 0 1-.157-.284.94.94 0 0 1-.055-.321 1.03 1.03 0 0 1 .048-.315c.036-.105.087-.202.151-.29l.097-.133a114.91 114.91 0 0 0 1.252-1.095 18.45 18.45 0 0 1 2.71-1.972c.976-.584 2.327-.885 4.064-.901s3.907.377 6.508 1.168l7.27 2.608 5.51 2.232 2.256.883a1.1 1.1 0 0 1 .224.163 1.11 1.11 0 0 1 .181.206 1.57 1.57 0 0 1 .121.248c.032.089.052.179.061.272a1.24 1.24 0 0 1-.006.272c-.012.089-.036.177-.073.266a1.42 1.42 0 0 1-.133.242 1.47 1.47 0 0 1-.187.2 1.2 1.2 0 0 1-.23.151 1.25 1.25 0 0 1-.26.091c-.093.02-.184.03-.272.03a1.24 1.24 0 0 1-.272-.042l-.133-.036zm-25.375-2.16l1.796 1.258 2.958 2.105 1.935 1.41c.524.375 1.103.879 1.736 1.512l1.059 1.119c.073.109.125.23.157.363a1.29 1.29 0 0 1 .036.393 1.18 1.18 0 0 1-.091.387 1.23 1.23 0 0 1-.212.339 1.25 1.25 0 0 1-.308.254c-.117.064-.242.111-.375.139a1.28 1.28 0 0 1-.393.012 1.25 1.25 0 0 1-.381-.109c-.121-.06-.23-.137-.327-.23a1.29 1.29 0 0 1-.236-.321c-.061-.121-.101-.248-.121-.381a1.21 1.21 0 0 1 .139-.774 1.45 1.45 0 0 1 .248-.315 1.26 1.26 0 0 1 .333-.212 1.2 1.2 0 0 1 .387-.103 1.22 1.22 0 0 1 .399.03c.129.032.25.083.363.151s.214.161.302.266a1.17 1.17 0 0 1 .194.345 1.16 1.16 0 0 1 .079.387c.008.137-.008.27-.048.399s-.095.244-.175.357a1.24 1.24 0 0 1-.278.284 1.3 1.3 0 0 1-.351.175 1.31 1.31 0 0 1-.393.061 1.28 1.28 0 0 1-.393-.073 1.14 1.14 0 0 1-.351-.194l-.157-.121-.732-.895c-.488-.593-.958-1.081-1.409-1.464s-1.085-.821-1.887-1.325l-3.073-1.894-1.99-1.252a1.28 1.28 0 0 1-.212-.23 1.38 1.38 0 0 1-.151-.272 1.42 1.42 0 0 1-.085-.309c-.016-.105-.014-.202-.006-.303a1.45 1.45 0 0 1 .067-.309 1.43 1.43 0 0 1 .139-.284 1.29 1.29 0 0 1 .46-.423c.093-.053.19-.091.29-.115a1.33 1.33 0 0 1 .308-.048 1.13 1.13 0 0 1 .309.03 1.43 1.43 0 0 1 .296.103l.145.073zm30.185.049l.321-1.192c.214-.794 1.081-1.877 2.601-3.249s3.871-2.783 7.04-4.223 6.268-2.656 9.296-3.636l6.581-2.093 3.532-1.065 1.633-.472a.84.84 0 0 1 .266.006c.089.016.174.046.254.091a.8.8 0 0 1 .206.169c.061.068.113.139.145.224a.89.89 0 0 1 .067.26.81.81 0 0 1-.019.266c-.024.089-.06.171-.108.248a.84.84 0 0 1-.176.2c-.072.061-.151.105-.236.133a.84.84 0 0 1-.266.054c-.089 0-.177-.012-.266-.036a.87.87 0 0 1-.236-.121.78.78 0 0 1-.193-.187.83.83 0 0 1-.121-.242c-.025-.085-.037-.173-.037-.266s.023-.178.055-.266a.7.7 0 0 1 .127-.23.76.76 0 0 1 .199-.181.92.92 0 0 1 .248-.109.75.75 0 0 1 .266-.018 1.04 1.04 0 0 1 .267.06.89.89 0 0 1 .223.145.79.79 0 0 1 .17.212.77.77 0 0 1 .09.254.82.82 0 0 1 .007.266c-.013.089-.039.173-.079.254a.76.76 0 0 1-.151.218.84.84 0 0 1-.218.157l-.127.06-1.488.472-3.508 1.107-6.453 2.099a87.8 87.8 0 0 0-8.946 3.533c-3.008 1.371-5.169 2.614-6.484 3.727s-2.054 2.037-2.22 2.771l-.296 1.216a.91.91 0 0 1-.115.218 1.06 1.06 0 0 1-.169.188 1.08 1.08 0 0 1-.206.139.94.94 0 0 1-.23.091 1.24 1.24 0 0 1-.242.024 1.05 1.05 0 0 1-.248-.03c-.081-.02-.157-.048-.23-.085a.94.94 0 0 1-.206-.145c-.064-.056-.119-.119-.163-.187a.94.94 0 0 1-.115-.218c-.032-.081-.052-.161-.061-.242a.85.85 0 0 1 0-.248l.018-.121z"/><path d="M103.301 42.125l-.363 1.143c-.238.766-.758 1.787-1.56 3.061s-1.821 2.634-3.055 4.09l-3.375 4.053-2.637 3.249-1.228 1.482a.87.87 0 0 1-.236.151c-.085.036-.173.059-.266.066s-.185 0-.278-.024a.78.78 0 0 1-.254-.109c-.077-.048-.145-.109-.206-.181a.88.88 0 0 1-.133-.242.86.86 0 0 1-.055-.272.78.78 0 0 1 .036-.272c.028-.089.069-.172.121-.248s.123-.141.2-.194a.77.77 0 0 1 .242-.127c.089-.024.181-.036.278-.036s.181.022.266.054.169.077.242.133.135.129.188.206.085.161.109.254.032.179.024.272-.03.184-.067.272-.087.161-.151.23a.89.89 0 0 1-.212.175c-.081.044-.167.077-.26.097s-.185.018-.278.006a.81.81 0 0 1-.26-.079.74.74 0 0 1-.224-.163c-.069-.065-.123-.139-.163-.224s-.069-.167-.085-.26a.92.92 0 0 1 .006-.278.96.96 0 0 1 .097-.26l.066-.121 1.107-1.404 2.607-3.309 3.236-4.011c1.157-1.399 2.081-2.668 2.77-3.805s1.149-2.083 1.367-2.849l.381-1.258a.95.95 0 0 1 .127-.224 1.15 1.15 0 0 1 .182-.187 1.21 1.21 0 0 1 .217-.133 1.13 1.13 0 0 1 .248-.079 1.05 1.05 0 0 1 .248-.018c.089.004.174.018.254.042s.164.059.236.103a1 1 0 0 1 .206.157.96.96 0 0 1 .163.2c.044.077.081.155.109.236a1.42 1.42 0 0 1 .048.254c.004.081 0 .165-.012.254l-.024.127z"/><path d="M82.654 77.848l-2.788 2.716-5.661 5.197-4.458 3.896-2.189 1.827a6.21 6.21 0 0 1-1.3.647c-.456.161-.927.266-1.415.315a5.98 5.98 0 0 1-1.445-.03c-.484-.069-.95-.196-1.397-.381s-.875-.415-1.27-.702a5.84 5.84 0 0 1-1.065-.98c-.314-.371-.581-.774-.798-1.21a6.01 6.01 0 0 1-.484-1.367 6.22 6.22 0 0 1-.145-1.446c.012-.484.081-.962.206-1.434s.31-.916.544-1.343a5.98 5.98 0 0 1 .853-1.174c.331-.359 1.653-1.646 3.968-3.86a39.02 39.02 0 0 1 7.657-5.693l6.919-4.114 3.569-2.371c.552-.424 1.054-.738 1.506-.944s.919-.361 1.403-.454a6 6 0 0 1 1.47-.097 5.89 5.89 0 0 1 1.452.254c.476.145.925.343 1.349.593a6.05 6.05 0 0 1 1.167.901c.355.351.661.736.919 1.156s.464.871.617 1.343a6.1 6.1 0 0 1 .272 1.446 6.03 6.03 0 0 1-.073 1.476 6.46 6.46 0 0 1-.429 1.41c-.202.448-.454.867-.756 1.258s-.647.746-1.034 1.053l-6.157 4.495-9.085 6.619-5.099 4.078s-1.772 1.605-2.171 1.851a5.9 5.9 0 0 1-1.264.587c-.448.145-.903.234-1.367.266s-.933.014-1.397-.067-.905-.214-1.337-.399-.827-.421-1.198-.708-.708-.611-.998-.974a5.83 5.83 0 0 1-.738-1.186c-.198-.424-.341-.865-.429-1.325a5.75 5.75 0 0 1-.097-1.392 5.48 5.48 0 0 1 .236-1.373c.133-.452.319-.879.556-1.283s.52-.772.847-1.107 1.694-1.087 4.101-2.257l8.462-4.096a315.42 315.42 0 0 1 9.387-4.35l6.907-3.188s2.542-1.244 2.897-1.373.74-.25 1.155-.363a5.19 5.19 0 0 1 1.264-.194c.431-.012.857.028 1.276.121a5.39 5.39 0 0 1 1.21.424c.387.19.744.421 1.07.696a5.19 5.19 0 0 1 .877.932c.254.347.462.72.623 1.119s.28.807.345 1.234a5.58 5.58 0 0 1 .036 1.27 5.34 5.34 0 0 1-.272 1.252c-.141.407-.331.79-.569 1.149a5.43 5.43 0 0 1-.817.98c-.314.294-.659.547-1.034.756s-2.111 1.458-5.207 3.745-5.883 4.183-8.371 5.687-4.24 2.67-5.256 3.497-1.722 1.341-2.117 1.531-.814.327-1.246.411-.873.125-1.312.109-.871-.093-1.294-.218-.825-.292-1.204-.514a5.59 5.59 0 0 1-1.052-.787c-.319-.306-.595-.647-.829-1.022s-.421-.766-.562-1.186-.224-.849-.26-1.289-.014-.877.054-1.313.196-.851.369-1.258a5.53 5.53 0 0 1 .659-1.137c.262-.351.565-.666.907-.944s2.472-1.087 6.387-2.426 7.687-2.545 11.316-3.63 6.508-2.087 8.649-3.007 3.409-1.412 3.817-1.488a5.27 5.27 0 0 1 1.234-.097c.415.02.822.089 1.221.206a5.12 5.12 0 0 1 1.131.496c.359.21.688.458.986.744a5.01 5.01 0 0 1 .774.962 4.97 4.97 0 0 1 .527 1.119c.129.395.207.801.235 1.216s.015.827-.054 1.234a5.01 5.01 0 0 1-.351 1.186c-.165.383-.375.74-.629 1.071s-.536.621-.859.883-.677.48-1.052.653l-5.607 2.698-9.326 4.646-4.796 2.402a4.74 4.74 0 0 1-1.077.248c-.367.036-.732.028-1.095-.024a4.4 4.4 0 0 1-1.065-.278c-.343-.137-.663-.313-.962-.526s-.573-.466-.811-.744a4.32 4.32 0 0 1-.605-.92 4.39 4.39 0 0 1-.369-1.035c-.081-.359-.119-.722-.115-1.089a4.7 4.7 0 0 1 .151-1.089 4.6 4.6 0 0 1 .411-1.023c.173-.323.383-.621.629-.895s.528-.508.835-.714 2.232-.829 5.764-1.882 7.145-2.021 10.826-2.892 6.338-1.607 7.972-2.208 2.645-.93 3.024-.986.758-.067 1.137-.03a4.82 4.82 0 0 1 1.113.242 4.7 4.7 0 0 1 1.022.502c.319.21.609.454.871.732s.486.585.672.92.33.686.435 1.053a4.64 4.64 0 0 1 .163 1.125c.012.383-.022.762-.102 1.137s-.21.728-.375 1.071a4.61 4.61 0 0 1-.623.956 4.76 4.76 0 0 1-.829.781c-.311.226-.643.411-.998.557s-2.089 1.032-5.214 2.662-6.038 3.065-8.739 4.308-4.401 2.15-5.111 2.71-1.242.905-1.609 1.022-.74.188-1.119.212a4.53 4.53 0 0 1-1.143-.061c-.379-.065-.744-.174-1.095-.327s-.677-.353-.98-.587-.579-.5-.816-.799-.437-.623-.599-.974-.278-.71-.351-1.089a4.67 4.67 0 0 1-.079-1.137 4.64 4.64 0 0 1 .2-1.125c.109-.367.262-.716.46-1.047s.425-.633.696-.907.569-.512.895-.714 1.988-.68 4.984-1.434l11.795-2.783 11.237-2.577 4.464-.992c.347-.04.693-.04 1.04 0a4.33 4.33 0 0 1 1.004.242c.327.121.633.28.919.478a4.17 4.17 0 0 1 .781.684c.23.258.427.54.592.847s.285.629.369.968a4.21 4.21 0 0 1 .127 1.028 4.02 4.02 0 0 1-.121 1.029 4.1 4.1 0 0 1-.362.968c-.158.311-.351.597-.581.859a4.52 4.52 0 0 1-.774.69c-.287.198-.591.359-.914.484s-2.26 1.162-5.8 3.11-6.596 3.495-9.169 4.652-4.05 1.968-4.421 2.432-.732.746-1.083.847-.702.165-1.064.181a4.41 4.41 0 0 1-1.083-.085 4.16 4.16 0 0 1-1.028-.339 4.34 4.34 0 0 1-.919-.575c-.286-.226-.538-.484-.756-.774a4.47 4.47 0 0 1-.55-.938c-.141-.335-.242-.682-.302-1.041a4.43 4.43 0 0 1-.048-1.083c.024-.363.093-.718.206-1.065s.27-.669.46-.98.421-.587.684-.841.55-.474.865-.659 1.71-.547 4.185-1.095l7.5-1.531 5.171-.968 2.008-.284a4.84 4.84 0 0 1 1.228.097 5.02 5.02 0 0 1 1.167.387 5.15 5.15 0 0 1 1.047.659c.318.262.603.559.853.889a5.05 5.05 0 0 1 .617 1.065 5.31 5.31 0 0 1 .344 1.186 4.85 4.85 0 0 1 .049 1.234 5.14 5.14 0 0 1-.242 1.204 5.39 5.39 0 0 1-.526 1.119c-.222.351-.482.669-.781.956a5.02 5.02 0 0 1-.986.738c-.358.21-.735.371-1.131.484s-1.364.813-2.897 2.087l-2.764 2.486a2.83 2.83 0 0 1-1.1.847 5.8 5.8 0 0 1-1.307.381 5.69 5.69 0 0 1-1.361.055c-.455-.041-.899-.133-1.33-.279a5.25 5.25 0 0 1-1.228-.58c-.387-.246-.74-.533-1.059-.859a5.85 5.85 0 0 1-.816-1.09c-.226-.395-.403-.813-.532-1.252a5.83 5.83 0 0 1-.218-1.343 5.87 5.87 0 0 1 .109-1.355c.092-.448.238-.879.435-1.295s.436-.795.726-1.15.617-.669.98-.944 1.506-.647 3.417-1.119a111.25 111.25 0 0 1 5.341-1.204l3.217-.569a5.97 5.97 0 0 1 1.47.024 5.98 5.98 0 0 1 1.427.369c.456.186.886.421 1.289.708s.766.615 1.088.986.595.784.817 1.228.393.899.502 1.379.165.972.157 1.464-.07.982-.199 1.458-.305.936-.539 1.367-.518.837-.852 1.204a6.3 6.3 0 0 1-1.113.956 5.88 5.88 0 0 1-1.313.666c-.468.169-2.274.562-5.419 1.179s-6.099.89-8.849.817-5.756-.208-9.018-.405-6.324-.331-9.199-.4-5.224-.058-7.058.031l-7.034.278-7.445.284-6.568.079-4.252-.121a9.77 9.77 0 0 1-1.681-.248c-.565-.133-1.103-.331-1.615-.593s-.992-.589-1.427-.968-.819-.805-1.149-1.277-.607-.982-.816-1.518a7.26 7.26 0 0 1-.429-1.67c-.073-.573-.077-1.147-.012-1.724s.198-1.131.399-1.676a6.96 6.96 0 0 1 .786-1.531 7.07 7.07 0 0 1 1.125-1.301c.431-.387.901-.718 1.409-.992a7.43 7.43 0 0 1 1.609-.623c.556-.141 1.125-.216 1.706-.224s1.992-.803 4.246-2.396 4.232-2.864 5.945-3.823 3.454-2.178 5.22-3.666 3.425-2.805 4.978-3.95a157.93 157.93 0 0 0 4.409-3.358c1.391-1.097 2.899-2.063 4.524-2.898s3.274-1.416 4.96-1.742 3.591-.365 5.716-.115 4.026.581 5.716.992 3.504.9 5.443 1.464 4.014 1.252 6.224 2.063c2.205.815 4.155 1.799 5.849 2.952s3.326 2.468 4.899 3.932 3.01 3.186 4.312 5.154 2.238 4.088 2.806 6.37.615 4.342.127 6.177a19.86 19.86 0 0 1-2.129 5.106c-.927 1.569-2.209 2.674-3.846 3.315s-3.476 1.135-5.528 1.482-4.537.632-7.452.853a124.6 124.6 0 0 1-8.57.363l-7.772.018a367.51 367.51 0 0 0-6.798.025l-6.405.066-6.701.067c-2.339.028-4.431-.01-6.278-.115s-3.685-.297-5.528-.587-3.708-1.103-5.607-2.438-3.26-2.892-4.095-4.659-1.024-3.664-.581-5.681 1.375-4.245 2.794-6.685 2.74-4.437 3.95-5.977 2.663-2.98 4.361-4.307l5.395-4.187c1.895-1.472 3.847-2.755 5.855-3.848s4.081-1.964 6.23-2.602 4.316-.996 6.502-1.077 4.24-.012 6.163.206 3.816.597 5.691 1.125 3.835 1.123 5.891 1.785 3.964 1.305 5.722 1.942 3.643 2.257 5.643 4.858 3.032 4.394 3.097 5.366a8.9 8.9 0 0 1-.279 2.88 8.94 8.94 0 0 1-1.179 2.632c-.54.815-1.194 1.52-1.96 2.117a8.87 8.87 0 0 1-2.534 1.385c-.923.323-1.873.49-2.849.502a8.99 8.99 0 0 1-2.848-.436 8.88 8.88 0 0 1-2.571-1.325c-.782-.581-1.451-1.273-2.008-2.075s-.97-1.666-1.24-2.602-.391-1.896-.351-2.868a8.98 8.98 0 0 1 .593-2.831 8.92 8.92 0 0 1 1.458-2.487c.621-.75 1.347-1.381 2.177-1.894s1.722-.877 2.674-1.095 1.907-.286 2.879-.194a8.96 8.96 0 0 1 2.788.744c.891.399 1.693.928 2.407 1.585a8.7 8.7 0 0 1 1.772 2.281c.468.855.786 1.763.956 2.722a8.9 8.9 0 0 1 .036 2.886c-.149.968-.448 1.883-.895 2.747a8.82 8.82 0 0 1-1.718 2.323 8.91 8.91 0 0 1-2.371 1.645c-.879.419-1.802.688-2.77.805a8.88 8.88 0 0 1-2.885-.121c-.955-.202-1.855-.549-2.697-1.041s-1.579-1.107-2.22-1.845a8.78 8.78 0 0 1-1.518-2.456l-.557-1.349 2.601 2.408c1.734 1.605 1.532 2.043-.605 1.313s-4.203-1.4-6.211-2.009-3.943-1.053-5.806-1.319-3.806-.196-5.831.212-3.752 1.129-5.183 2.178l-4.857 3.642c-1.811 1.383-3.369 2.773-4.675 4.168s-2.568 1.024-3.786-1.113-.966-3.136.768-2.983a68.65 68.65 0 0 0 5.268.26l5.564.06 6.091.067 5.879.03 6.429-.097s4.997-.185 7.506-.375l7.33-.496c2.375-.145 2.792.305 1.252 1.349s-3.064.847-4.573-.605-3.118-2.426-4.832-2.934a156.01 156.01 0 0 1-5.298-1.682l-5.274-1.658s-3.417-.095-5.171 1.192a126.3 126.3 0 0 1-5.582 3.872l-5.365 3.799s-3.52 2.418-5.71 3.527l-7.131 3.509c-2.56 1.227-5.068 2.162-7.524 2.808-2.451.641-3.96.895-4.524.762a7.26 7.26 0 0 1-1.615-.593c-.516-.266-.992-.589-1.427-.968s-.819-.805-1.149-1.277-.607-.982-.816-1.518a7.26 7.26 0 0 1-.429-1.67c-.073-.573-.077-1.147-.012-1.724s.196-1.131.393-1.676a7.16 7.16 0 0 1 .792-1.531 7.07 7.07 0 0 1 1.125-1.301c.431-.387.901-.718 1.409-.992a7.46 7.46 0 0 1 1.603-.623c.56-.141 1.131-.216 1.712-.224s1.079.056 1.506.181 1.615.355 3.55.69 4.036.597 6.302.787l7.343.647 6.683.496s4.179.089 7.046.012 5.917-.224 9.151-.442l8.8-.514 7.518-.587 4.306-.478a5.97 5.97 0 0 1 1.47.024c.488.064.962.188 1.421.369a5.93 5.93 0 0 1 1.295.708c.403.286.766.615 1.088.986s.595.784.817 1.228.393.899.502 1.379.165.972.157 1.464-.068.982-.193 1.458a5.9 5.9 0 0 1-.545 1.367c-.234.435-.518.837-.852 1.204a6.3 6.3 0 0 1-1.113.956c-.412.274-.849.496-1.313.666s-.961.167-1.482-.007-1.82-.129-3.889.134-3.318.488-3.737.665-.855.303-1.307.375-.905.097-1.361.061a5.94 5.94 0 0 1-1.33-.273c-.436-.145-.845-.34-1.228-.586s-.74-.533-1.059-.859a5.85 5.85 0 0 1-.816-1.09c-.226-.395-.403-.813-.532-1.252a5.83 5.83 0 0 1-.218-1.343 5.87 5.87 0 0 1 .109-1.355c.092-.448.238-.879.435-1.295s.436-.795.726-1.15.617-.669.98-.944 1.345-.831 2.933-1.67a130.53 130.53 0 0 0 4.772-2.65c1.597-.924 2.601-1.394 3.012-1.41a4.87 4.87 0 0 1 1.234.097 5.02 5.02 0 0 1 1.167.387 5.15 5.15 0 0 1 1.047.659c.318.262.603.559.853.889a5.05 5.05 0 0 1 .617 1.065 5.31 5.31 0 0 1 .344 1.186 4.85 4.85 0 0 1 .049 1.234 5.14 5.14 0 0 1-.242 1.204 5.39 5.39 0 0 1-.526 1.119c-.222.347-.482.665-.781.956a5.02 5.02 0 0 1-.986.738c-.358.21-.735.371-1.131.484s-1.08.147-2.044.091-2.671.087-5.123.43l-6.477.944-3.321.593s-.702.165-1.064.181a4.41 4.41 0 0 1-1.083-.085 4.16 4.16 0 0 1-1.028-.339 4.34 4.34 0 0 1-.919-.575c-.286-.226-.538-.484-.756-.774a4.47 4.47 0 0 1-.55-.938c-.141-.335-.242-.682-.302-1.041a4.43 4.43 0 0 1-.048-1.083c.024-.363.093-.718.206-1.065s.27-.669.46-.98.421-.587.684-.841.55-.474.865-.659.667-.405 1.058-.672 1.905-.944 4.543-2.045 5.933-2.761 9.888-4.991 6.099-3.368 6.442-3.412.693-.04 1.04 0a4.33 4.33 0 0 1 1.004.242c.327.121.633.28.919.478a4.17 4.17 0 0 1 .781.684c.23.258.427.54.592.847s.285.629.369.968a4.21 4.21 0 0 1 .127 1.028 4.02 4.02 0 0 1-.121 1.029 4.1 4.1 0 0 1-.362.968c-.158.311-.351.597-.581.859a4.52 4.52 0 0 1-.774.69c-.287.198-.591.359-.914.484s-1.822.43-4.487.913-6.361 1.379-11.087 2.686l-10.796 3.122-4.258 1.343a4.57 4.57 0 0 1-1.119.212 4.53 4.53 0 0 1-1.143-.061c-.379-.065-.744-.174-1.095-.327s-.677-.353-.98-.587-.579-.5-.816-.799-.437-.623-.599-.974-.278-.71-.351-1.089a4.67 4.67 0 0 1-.079-1.137 4.64 4.64 0 0 1 .2-1.125c.109-.367.262-.716.46-1.047s.425-.633.696-.907.569-.512.895-.714.893-.47 1.7-.805 2.55-1.115 5.22-2.341 5.776-2.864 9.32-4.9 5.5-3.089 5.879-3.146.758-.067 1.137-.03a4.82 4.82 0 0 1 1.113.242 4.7 4.7 0 0 1 1.022.502c.319.21.609.454.871.732s.486.585.672.92.33.686.435 1.053.155.742.163 1.125-.022.762-.102 1.137-.21.728-.375 1.071-.377.661-.623.956a4.76 4.76 0 0 1-.829.781c-.311.226-.643.411-.998.557s-1.385.375-3.103.69-4.31 1.018-7.79 2.124a174.47 174.47 0 0 1-9.907 2.831l-5.202 1.367a4.64 4.64 0 0 1-1.071.248 4.57 4.57 0 0 1-1.101-.024 4.4 4.4 0 0 1-1.065-.278c-.343-.137-.663-.313-.962-.526s-.573-.466-.811-.744-.444-.587-.605-.914a4.52 4.52 0 0 1-.369-1.034 4.79 4.79 0 0 1-.115-1.095 4.7 4.7 0 0 1 .151-1.089 4.6 4.6 0 0 1 .411-1.023c.169-.323.379-.621.629-.895s.528-.508.835-.714 1.849-1.125 4.615-2.771 6.026-3.471 9.78-5.463 5.834-3.021 6.242-3.098a5.27 5.27 0 0 1 1.234-.097c.415.02.822.089 1.221.206a5.33 5.33 0 0 1 1.131.496c.359.21.688.458.986.744a5.01 5.01 0 0 1 .774.962 4.97 4.97 0 0 1 .527 1.119c.129.395.207.801.235 1.216a5.01 5.01 0 0 1-.405 2.42 4.86 4.86 0 0 1-.629 1.065c-.25.331-.536.627-.859.889s-.673.48-1.052.653-1.683.496-3.925.956-5.048 1.351-8.419 2.674-6.651 2.668-9.84 4.047l-5.377 2.347c-.399.189-.814.327-1.246.411a5.5 5.5 0 0 1-1.312.109c-.44-.02-.871-.093-1.294-.218s-.825-.292-1.204-.514a5.59 5.59 0 0 1-1.052-.787c-.319-.306-.595-.647-.829-1.022s-.421-.766-.562-1.186-.224-.849-.26-1.289a5.66 5.66 0 0 1 .054-1.307c.073-.436.196-.857.369-1.264a5.53 5.53 0 0 1 .659-1.137c.262-.351.565-.666.907-.944s1.083-.734 2.22-1.367 2.913-1.746 5.316-3.328l6.798-4.501 5.48-3.902s2.482-1.841 2.897-1.954a5.19 5.19 0 0 1 1.264-.194c.431-.012.857.028 1.276.121a5.39 5.39 0 0 1 1.21.424 5.13 5.13 0 0 1 1.07.696 5.19 5.19 0 0 1 .877.932c.254.347.462.72.623 1.119s.28.807.345 1.234a5.58 5.58 0 0 1 .036 1.27 5.34 5.34 0 0 1-.272 1.252c-.141.407-.329.79-.562 1.149a5.63 5.63 0 0 1-.823.98c-.314.294-.659.547-1.034.756s-1.512.565-3.411 1.065-4.212 1.466-6.949 2.91-5.585 3.132-8.54 5.064-5.401 3.325-7.337 4.168-3.097 1.393-3.496 1.64a5.9 5.9 0 0 1-1.264.587c-.448.145-.903.234-1.367.266s-.933.014-1.397-.067-.905-.214-1.337-.399-.827-.421-1.198-.708a5.7 5.7 0 0 1-.998-.974 5.83 5.83 0 0 1-.738-1.186c-.198-.424-.341-.865-.429-1.325a5.75 5.75 0 0 1-.097-1.392 5.48 5.48 0 0 1 .236-1.373c.133-.452.319-.879.556-1.283s.52-.772.847-1.107 1.075-.922 2.244-1.761 2.923-2.273 5.262-4.301a220.78 220.78 0 0 1 6.962-5.82l5.825-4.501s2.597-1.833 3.048-2.039.915-.361 1.403-.454a6 6 0 0 1 1.47-.097 5.89 5.89 0 0 1 1.452.254c.476.145.925.343 1.349.593a6.05 6.05 0 0 1 1.167.901 5.91 5.91 0 0 1 .919 1.156c.258.424.464.871.617 1.343a6.1 6.1 0 0 1 .272 1.446 5.97 5.97 0 0 1-.073 1.47c-.089.488-.232.96-.429 1.416-.202.448-.454.867-.756 1.258a6.23 6.23 0 0 1-1.034 1.053c-.387.307-.893.613-1.518.92s-1.855 1.008-3.689 2.105-3.875 2.42-6.121 3.981-4.532 3.342-6.847 5.342-3.675 3.13-4.083 3.4a6.21 6.21 0 0 1-1.3.647 5.99 5.99 0 0 1-1.409.315c-.488.048-.972.038-1.451-.03s-.946-.196-1.397-.381-.875-.415-1.27-.702a5.84 5.84 0 0 1-1.065-.98c-.314-.371-.581-.774-.798-1.21s-.379-.891-.484-1.367a6.22 6.22 0 0 1-.145-1.446c.012-.484.081-.962.206-1.434s.31-.916.544-1.343a5.98 5.98 0 0 1 .853-1.174c.331-.359 1.087-.928 2.268-1.706s2.625-1.888 4.331-3.327 3.464-3.081 5.274-4.937 2.899-2.934 3.266-3.225.768-.526 1.191-.72a5.91 5.91 0 0 1 1.331-.411c.46-.085.921-.113 1.385-.085a5.88 5.88 0 0 1 1.373.248c.448.141.871.333 1.27.575s.764.528 1.095.859.617.696.859 1.095.433.827.575 1.27.22.905.248 1.373 0 .926-.085 1.385a5.92 5.92 0 0 1-.411 1.331c-.194.423-.433.821-.72 1.192l-.436.551z" fill-opacity=".1"/><path d="M52.508 96.2l2.316-2.505 4.427-5.306c1.415-1.863 2.964-3.63 4.645-5.3l5.322-5.203 5.093-4.719c1.532-1.347 3.288-2.615 5.268-3.805s4.167-2.166 6.562-2.94 4.47-1.198 6.224-1.27 3.633.222 5.637.883 3.819 1.551 5.444 2.668l4.711 3.412c1.512 1.157 3.036 2.186 4.573 3.085l4.79 3.031c1.657 1.125 3.278 2.495 4.863 4.108s2.917 3.241 3.998 4.894 1.727 3.731 1.941 6.243-.758 4.939-2.915 7.278-4.48 3.751-6.98 4.223-5.084.821-7.754 1.035l-6.774.508-5.721.302-5.776.133-6.853.097-7.185.278-6.199.273-5.631.211-2.691.146c-.069.008-.452-.023-1.149-.091s-1.377-.22-2.038-.454a8.64 8.64 0 0 1-1.869-.926 8.57 8.57 0 0 1-1.585-1.349 8.5 8.5 0 0 1-1.222-1.688c-.343-.613-.605-1.258-.786-1.936s-.28-1.359-.296-2.056.05-1.389.2-2.075.385-1.341.696-1.966.694-1.21 1.149-1.742c.447-.536.954-1.01 1.518-1.422a8.59 8.59 0 0 1 1.827-1.01A8.7 8.7 0 0 1 62.3 90.7c.694-.101 1.691-.823 2.994-2.166s2.734-2.39 4.294-3.14a38.64 38.64 0 0 1 4.814-1.924c1.645-.532 3.826-1.085 6.544-1.658l7.82-1.476c2.5-.415 4.762-.669 6.786-.762s4.171.103 6.441.575l5.77 1.367c1.581.44 2.78.873 3.599 1.301s1.546.974 2.183 1.639a8.36 8.36 0 0 1 1.542 2.251c.392.835.64 1.71.744 2.626a8.37 8.37 0 0 1-.133 2.728 8.31 8.31 0 0 1-.998 2.541 8.22 8.22 0 0 1-1.754 2.093 8.23 8.23 0 0 1-2.328 1.416c-.855.347-1.742.548-2.661.605a8.46 8.46 0 0 1-2.716-.284c-.887-.238-1.714-.615-2.48-1.131a8.44 8.44 0 0 1-1.996-1.863c-.56-.73-.99-1.533-1.288-2.408s-.452-1.767-.46-2.686.139-1.823.429-2.698a8.44 8.44 0 0 1 1.264-2.42c.552-.738 1.209-1.367 1.971-1.888a8.45 8.45 0 0 1 2.468-1.162c.887-.25 1.792-.353 2.716-.308a8.31 8.31 0 0 1 2.667.575c.859.335 1.641.799 2.347 1.391a8.37 8.37 0 0 1 1.778 2.075c.48.787.821 1.629 1.022 2.529a8.45 8.45 0 0 1 .163 2.722c-.096.92-.336 1.799-.719 2.638a8.34 8.34 0 0 1-1.518 2.263 8.29 8.29 0 0 1-2.166 1.664c-.81.436-1.669.732-2.576.889s-1.821.157-2.728.012l-1.367-.218-1.869-.575c-1.25-.383-2.935-.728-5.056-1.035s-4.266-.276-6.435.103l-6.387 1.246a35.16 35.16 0 0 0-5.921 1.821c-1.859.754-3.81 1.825-5.855 3.212s-4.145 2.533-6.29 3.437-3.566 1.32-4.264 1.252-1.377-.22-2.038-.454a8.64 8.64 0 0 1-1.869-.926 8.27 8.27 0 0 1-1.585-1.349 8.5 8.5 0 0 1-1.222-1.688c-.343-.613-.605-1.256-.786-1.929s-.28-1.366-.296-2.064.05-1.389.2-2.075.385-1.337.696-1.966.691-1.21 1.143-1.742a8.63 8.63 0 0 1 1.524-1.422 8.59 8.59 0 0 1 1.827-1.01A8.7 8.7 0 0 1 62.3 90.7c.69-.101 1.51-.155 2.462-.163l4.058-.091 5.589-.248 6.139-.339 6.079-.236 5.576-.085 6.411-.236 6.98-.466 6.326-.538c2.044-.194 2.224.768.538 2.886-1.681 2.122-3.237 2.628-4.669 1.519a52.35 52.35 0 0 0-4.355-3.049c-1.471-.928-3.06-2.067-4.766-3.418s-3.464-2.493-5.274-3.424-3.704-.913-5.691.042-3.74 1.966-5.256 3.019l-4.482 3.364-4.264 3.34c-1.371 1.037-2.923 2.476-4.657 4.32l-4.875 5.294-2.855 3.043a6.52 6.52 0 0 1-1.264.847 6.11 6.11 0 0 1-1.421.514 6.32 6.32 0 0 1-1.506.17 6.36 6.36 0 0 1-1.506-.206c-.492-.129-.962-.315-1.409-.557a6.32 6.32 0 0 1-1.24-.877c-.375-.343-.706-.726-.992-1.149s-.512-.875-.69-1.355a6.44 6.44 0 0 1-.345-1.477c-.052-.504-.044-1.008.024-1.512s.196-.998.381-1.47.425-.922.72-1.337l.448-.623h-.006z" fill-opacity=".1"/><path d="M119.339 95.416l-4.911-.55-8.679-.647-6.496-.024-6.587.308-7.73.526-8.244.69-7.5.756-4.76.563c-1.077.133-1.909.171-2.498.115s-1.163-.175-1.724-.369a7.26 7.26 0 0 1-1.579-.774c-.496-.319-.946-.694-1.349-1.125a7.22 7.22 0 0 1-1.046-1.422c-.286-.512-.51-1.055-.671-1.627a7.23 7.23 0 0 1-.26-1.736c-.016-.589.036-1.172.157-1.748a7.21 7.21 0 0 1 .581-1.664c.258-.532.577-1.024.956-1.476s.806-.853 1.282-1.204.986-.639 1.53-.865 1.115-.383 1.7-.472 1.625-1.117 3.121-3.085 3.214-3.662 5.141-5.082 4.087-2.704 6.478-3.866 4.901-2.107 7.542-2.825 5.324-1.087 8.062-1.107 4.959.296 6.653.95l6.417 2.868 6.284 3.122c1.601.823 3.256 1.563 4.966 2.22l5.522 2.378 3.121 1.531c.105.101.437.341.998.72a8.39 8.39 0 0 1 1.524 1.325c.456.5.843 1.051 1.161 1.652s.567 1.222.732 1.876.258 1.325.266 2.002-.072 1.345-.23 2.002a8.23 8.23 0 0 1-.695 1.894 8.55 8.55 0 0 1-1.131 1.67c-.444.512-.942.964-1.494 1.355-.557.387-1.149.704-1.778.95a8.05 8.05 0 0 1-1.96.502c-.669.089-1.341.095-2.014.018a8.25 8.25 0 0 1-1.96-.46c-.637-.234-2.441-.151-5.413.248s-5.621.476-7.935.23l-6.472-.678-6.847-.357c-2.56-.032-4.966.028-7.216.181l-7.167.49-7.246.611-5.262.393c-1.198.024-2.232-.03-3.103-.163s-1.69-.395-2.468-.799a7.96 7.96 0 0 1-2.087-1.549c-.613-.629-1.109-1.341-1.488-2.136s-.615-1.625-.72-2.492-.069-1.736.109-2.595.49-1.668.938-2.426a8 8 0 0 1 1.657-2.003 8.01 8.01 0 0 1 2.214-1.361c.81-.335 1.653-.53 2.528-.587a7.9 7.9 0 0 1 2.589.248c.847.226 1.637.581 2.371 1.065s1.365 1.073 1.905 1.767a8 8 0 0 1 1.246 2.281c.29.831.439 1.686.448 2.565a8.02 8.02 0 0 1-.393 2.559 7.96 7.96 0 0 1-1.192 2.311c-.52.706-1.141 1.309-1.863 1.809a8.06 8.06 0 0 1-2.347 1.119c-.843.246-1.704.349-2.583.309s-1.722-.212-2.54-.526-1.571-.758-2.244-1.319a7.92 7.92 0 0 1-1.706-1.96 7.97 7.97 0 0 1-.986-2.402 7.87 7.87 0 0 1-.175-2.589c.089-.875.313-1.712.671-2.511a7.97 7.97 0 0 1 1.434-2.172 8.14 8.14 0 0 1 2.05-1.597c.77-.419 1.589-.704 2.456-.853l1.294-.23 1.657-.006 4.857-.163 6.901-.357 7.578-.375 8.341-.097 7.482.2 8.431.097 8.062-.073c1.767-.04 3.702.038 5.807.236s3.443.492 4.004.871a8.39 8.39 0 0 1 1.524 1.325c.451.5.839 1.049 1.161 1.646a8.43 8.43 0 0 1 .732 1.882c.169.657.258 1.325.266 2.002s-.07 1.345-.224 2.002-.391 1.289-.701 1.894a8.55 8.55 0 0 1-1.131 1.67c-.444.512-.942.964-1.494 1.355-.557.387-1.149.704-1.778.95a8.05 8.05 0 0 1-1.954.502c-.673.089-1.347.095-2.02.018a8.25 8.25 0 0 1-1.96-.46c-.633-.234-1.54-.682-2.721-1.343l-4.343-2.202-4.948-2.42-5.141-2.62-6.253-2.94c-2.331-1.008-4.403-1.313-6.218-.914s-3.532.944-5.165 1.633a29.12 29.12 0 0 0-4.706 2.529c-1.508.996-3.218 2.283-5.129 3.86-1.911 1.585-4.189 3.043-6.834 4.374s-4.256 1.974-4.845 1.918-1.161-.175-1.718-.369-1.089-.452-1.585-.774-.946-.694-1.349-1.125-.754-.904-1.04-1.416-.516-1.059-.677-1.627a7.31 7.31 0 0 1-.26-1.742c-.016-.589.036-1.172.157-1.748a7.21 7.21 0 0 1 .581-1.664c.258-.528.577-1.02.956-1.476s.806-.853 1.282-1.204.986-.639 1.53-.865 1.115-.383 1.7-.472 1.276-.119 2.075-.091l4.476-.067 7.79-.248 8.758-.06 8.165.357 6.702.442 6.671.26h8.818l5.667.03a5.91 5.91 0 0 1 1.41.417c.451.198.873.446 1.264.744a6.14 6.14 0 0 1 1.052 1.022c.311.383.569.799.774 1.246a5.99 5.99 0 0 1 .46 1.391c.097.484.133.97.109 1.458a6.15 6.15 0 0 1-.248 1.452 5.83 5.83 0 0 1-.581 1.343c-.25.427-.546.817-.889 1.168s-.724.663-1.143.926-.863.464-1.331.617a6.02 6.02 0 0 1-1.439.284l-.732.054z" fill-opacity=".1"/><path d="M38.176 149.023l.544-.907 1.137-1.785 1.046-1.7.786-1.609.738-1.585.702-1.464.605-1.343c.19-.444.371-.936.544-1.477l.49-1.827c.157-.673.399-1.383.726-2.129s.55-1.188.671-1.325a1.68 1.68 0 0 1 .423-.345 1.63 1.63 0 0 1 .508-.194 1.66 1.66 0 0 1 .544-.018 1.7 1.7 0 0 1 .52.158c.165.08.313.185.441.314a1.7 1.7 0 0 1 .327.436 1.82 1.82 0 0 1 .163.52 1.77 1.77 0 0 1-.012.545 1.59 1.59 0 0 1-.187.514 1.63 1.63 0 0 1-.333.423c-.137.125-.29.224-.46.297s-.341.123-.526.139a1.67 1.67 0 0 1-.544-.042 1.79 1.79 0 0 1-.502-.212c-.157-.097-.288-.216-.405-.357s-.208-.303-.272-.472-.099-.353-.103-.538.014-.361.066-.539a1.67 1.67 0 0 1 .236-.49c.109-.149.238-.278.387-.387a1.54 1.54 0 0 1 .484-.242 1.6 1.6 0 0 1 .538-.079c.181.004.359.037.532.097a1.58 1.58 0 0 1 .478.266 1.66 1.66 0 0 1 .369.399c.097.154.169.321.218.503a1.73 1.73 0 0 1 .048.538c-.016.186-.058.363-.127.532l-.109.255-.296.556c-.193.371-.403.918-.629 1.64a19.22 19.22 0 0 1-.78 2.099l-.798 1.718-.702 1.355-.738 1.374-.786 1.585-.889 1.809-1.022 1.754-1.01 1.742-.593 1.071a1.76 1.76 0 0 1-.242.254c-.093.077-.192.142-.296.194a1.36 1.36 0 0 1-.333.115 1.42 1.42 0 0 1-.345.03 1.44 1.44 0 0 1-.345-.054c-.113-.029-.22-.073-.32-.133a1.32 1.32 0 0 1-.284-.206 1.21 1.21 0 0 1-.224-.272 1.44 1.44 0 0 1-.157-.315c-.036-.109-.06-.222-.073-.339a1.23 1.23 0 0 1 .012-.345 1.4 1.4 0 0 1 .091-.338l.067-.164zm7.905-21.169l.242-1.651.375-3.134.375-2.904.375-2.535.278-1.936c.097-.561.256-1.032.478-1.416s.651-.671 1.276-.853 1.157-.163 1.597.067.794.593 1.052 1.101a8.1 8.1 0 0 1 .617 1.627l.381 1.712c.109.565.218 1.378.327 2.439l.133 1.851a1.53 1.53 0 0 1-.145.496 1.6 1.6 0 0 1-.302.417c-.121.121-.26.222-.417.303-.153.076-.317.127-.49.151a1.58 1.58 0 0 1-.514-.012 1.54 1.54 0 0 1-.484-.181 1.48 1.48 0 0 1-.399-.321 1.56 1.56 0 0 1-.278-.43 1.65 1.65 0 0 1-.127-.502c-.016-.174-.002-.345.042-.514s.107-.323.2-.472a1.49 1.49 0 0 1 .345-.381 1.52 1.52 0 0 1 .448-.254c.161-.061.329-.093.502-.097a1.48 1.48 0 0 1 .514.067 1.46 1.46 0 0 1 .46.229c.141.104.262.222.363.363s.177.295.23.46.077.335.073.508a1.52 1.52 0 0 1-.097.503 1.67 1.67 0 0 1-.254.453c-.109.137-.236.248-.381.345a1.54 1.54 0 0 1-.472.2c-.169.044-.341.058-.514.042s-.341-.052-.502-.121a1.52 1.52 0 0 1-.429-.278 1.66 1.66 0 0 1-.327-.399c-.089-.153-.143-.311-.175-.484l-.048-.255-.042-1.379-.163-2.129c-.081-.501-.125-1.142-.133-1.924s-.081-.954-.218-.502-.262 1.046-.363 1.784l-.315 2.457c-.105.891-.163 1.853-.175 2.885l-.115 3.213-.139 1.827a1.28 1.28 0 0 1-.109.308 1.42 1.42 0 0 1-.181.273 1.36 1.36 0 0 1-.236.217 1.27 1.27 0 0 1-.29.158 1.4 1.4 0 0 1-.315.084 1.19 1.19 0 0 1-.321.007 1.44 1.44 0 0 1-.314-.073 1.23 1.23 0 0 1-.29-.145 1.26 1.26 0 0 1-.248-.212 1.62 1.62 0 0 1-.194-.266 1.4 1.4 0 0 1-.121-.303 1.73 1.73 0 0 1-.042-.326v-.158z"/><path d="M51.278 121.876l.248-1.658.423-3.261.309-2.764.266-2.203.333-2.577.242-1.718c.04-.121.099-.232.175-.333s.161-.193.266-.266.218-.127.339-.163a1.05 1.05 0 0 1 .375-.043c.125.004.248.029.369.073a1.1 1.1 0 0 1 .321.188 1.03 1.03 0 0 1 .248.284c.069.109.117.224.145.345a1.18 1.18 0 0 1 .024.375 1.2 1.2 0 0 1-.091.363c-.052.117-.121.222-.206.314s-.187.172-.296.236-.232.101-.357.121a1.03 1.03 0 0 1-.375.006c-.125-.016-.244-.054-.357-.115-.113-.056-.214-.131-.302-.223a1.16 1.16 0 0 1-.218-.303c-.053-.117-.087-.238-.103-.363s-.012-.25.012-.375a1.32 1.32 0 0 1 .133-.351 1.17 1.17 0 0 1 .242-.29c.093-.085.2-.152.321-.2s.238-.077.363-.085a1.17 1.17 0 0 1 .375.037c.121.032.236.082.345.151a1.07 1.07 0 0 1 .272.254 1.09 1.09 0 0 1 .181.327c.044.121.067.244.067.369l.006.193-.254 1.543-.429 2.511-.284 2.111-.181 2.783-.175 3.309-.133 1.821a1.34 1.34 0 0 1-.109.309 1.42 1.42 0 0 1-.181.266 1.36 1.36 0 0 1-.236.218c-.089.06-.184.111-.284.151a1.36 1.36 0 0 1-.308.085 1.19 1.19 0 0 1-.315.006c-.109-.012-.214-.036-.315-.073a1.36 1.36 0 0 1-.29-.145c-.089-.06-.169-.129-.242-.206s-.135-.169-.187-.266-.093-.191-.121-.296a1.23 1.23 0 0 1-.042-.321l-.006-.151z"/><path d="M55.885 107.295l.272 1.035c.177.69.292 1.625.345 2.807l.194 3.255.212 2.486.175 1.839.091 1.888.006 1.779-.006.901a1.73 1.73 0 0 1-.03.327 1.7 1.7 0 0 1-.103.308 1.29 1.29 0 0 1-.169.273 1.73 1.73 0 0 1-.23.223 1.38 1.38 0 0 1-.278.158 1.28 1.28 0 0 1-.309.091 1.08 1.08 0 0 1-.32.012c-.104-.012-.214-.029-.315-.061s-.202-.079-.29-.139a1.32 1.32 0 0 1-.254-.2c-.073-.076-.137-.161-.194-.254a2.08 2.08 0 0 1-.121-.296 1.45 1.45 0 0 1-.048-.321c-.004-.109.018-.494.079-1.167l.315-2.699.538-3.194.429-2.39c.085-.585.486-1.254 1.204-2.008s1.367-.638 1.935.351c.565.984.837 2.004.817 3.061l-.194 3.303-.248 3.17c-.056.96-.028 1.684.085 2.172s.161.787.145.883a1.13 1.13 0 0 1-.079.279 1.17 1.17 0 0 1-.139.248 1.08 1.08 0 0 1-.194.211 1.57 1.57 0 0 1-.242.158 1.21 1.21 0 0 1-.272.097c-.093.021-.187.028-.284.024a1.09 1.09 0 0 1-.284-.043.98.98 0 0 1-.266-.108 1.07 1.07 0 0 1-.236-.17 1.37 1.37 0 0 1-.187-.218 1.18 1.18 0 0 1-.127-.26 1.55 1.55 0 0 1-.06-.278c-.008-.097.163-.569.514-1.416l1.04-2.486c.343-.815.816-1.567 1.421-2.257s1.163-.619 1.675.2.75 1.627.702 2.426-.181 1.647-.399 2.535l-.448 2.063-.169.931a2.58 2.58 0 0 1-.097.333 1.01 1.01 0 0 1-.139.272 1.31 1.31 0 0 1-.2.236c-.077.072-.159.127-.248.176a1.32 1.32 0 0 1-.29.109c-.097.028-.198.042-.302.042a1.3 1.3 0 0 1-.302-.036 1.54 1.54 0 0 1-.29-.103 1.25 1.25 0 0 1-.254-.176 1.21 1.21 0 0 1-.206-.223c-.06-.085-.109-.176-.145-.273a1.27 1.27 0 0 1-.073-.296 1.13 1.13 0 0 1-.006-.309c.012-.101.242-.459.69-1.077s1.123-1.262 2.014-1.936 1.827-1.179 2.806-1.506 1.615-.327 1.905 0 .409.905.357 1.748a10.94 10.94 0 0 1-.429 2.445l-.653 2.105c-.198.617-.524 1.426-.98 2.426a15.1 15.1 0 0 1-1.657 2.807l-1.802 2.42-1.312 1.809-.95 1.482-1.059 1.797-.859 1.603c-.173.391-.312.851-.417 1.38l-.472 2.147-.623 2.481-.556 2.359-.315 1.446a1.52 1.52 0 0 1-.187.399 1.35 1.35 0 0 1-.702.515 1.45 1.45 0 0 1-.435.066c-.149 0-.294-.03-.436-.078a1.33 1.33 0 0 1-.381-.212c-.117-.089-.218-.202-.302-.327s-.139-.26-.175-.405a1.43 1.43 0 0 1-.042-.436 1.4 1.4 0 0 1 .103-.429c.057-.137.133-.263.23-.375a1.35 1.35 0 0 1 .345-.279c.129-.076.266-.129.411-.157s.292-.034.442-.018a1.37 1.37 0 0 1 .417.127 1.27 1.27 0 0 1 .617.605 1.41 1.41 0 0 1 .133.423 1.22 1.22 0 0 1-.006.436 1.34 1.34 0 0 1-.139.417 1.42 1.42 0 0 1-.272.345 1.31 1.31 0 0 1-.369.242 1.42 1.42 0 0 1-.429.115 1.45 1.45 0 0 1-.435-.03c-.145-.032-.28-.093-.405-.169s-.24-.178-.333-.291a1.33 1.33 0 0 1-.224-.387 1.29 1.29 0 0 1-.085-.43l-.012-.223.333-1.368.544-2.408c.141-.689.244-1.474.308-2.353a12.89 12.89 0 0 1 .478-2.601c.254-.855.5-1.509.738-1.961.23-.451.595-1.014 1.095-1.688l1.403-1.76 1.179-1.349c.347-.403.764-.99 1.252-1.761l1.542-2.492 1.464-2.535c.431-.807.75-1.49.956-2.051l.738-2.069c.29-.815-.058-.776-1.046.115l-1.542 1.482a1.01 1.01 0 0 1-.139.272 1.31 1.31 0 0 1-.2.236c-.077.072-.159.127-.248.176a1.32 1.32 0 0 1-.29.109c-.097.028-.198.042-.302.042a1.3 1.3 0 0 1-.302-.036 1.54 1.54 0 0 1-.29-.103 1.25 1.25 0 0 1-.254-.176 1.21 1.21 0 0 1-.206-.223 1.6 1.6 0 0 1-.145-.273 1.27 1.27 0 0 1-.073-.296 1.13 1.13 0 0 1-.006-.309.96.96 0 0 1 .115-.332c.069-.117.173-.404.314-.86.137-.451.268-1.07.393-1.857l.351-2.68c.113-.996.317-1.313.611-.95s.294.974 0 1.833l-.81 2.154-.387 1.004a1.01 1.01 0 0 1-.079.279 1.17 1.17 0 0 1-.139.248 1.08 1.08 0 0 1-.194.211 1.57 1.57 0 0 1-.242.158 1.21 1.21 0 0 1-.272.097c-.093.021-.187.028-.284.024a1.09 1.09 0 0 1-.284-.043.98.98 0 0 1-.266-.108 1.07 1.07 0 0 1-.236-.17 1.37 1.37 0 0 1-.187-.218 1.18 1.18 0 0 1-.127-.26 1.55 1.55 0 0 1-.06-.278c-.008-.097.014-.069.067.085s.048-.097-.012-.739-.093-1.453-.097-2.438l.03-3.097-.091-3.073c-.081-.968.097-1.551.532-1.749s.589-.022.46.539-.254 1.316-.375 2.28l-.266 3.207-.206 2.686-.145 1.083a1.7 1.7 0 0 1-.103.308 1.29 1.29 0 0 1-.169.273 1.73 1.73 0 0 1-.23.223 1.38 1.38 0 0 1-.278.158 1.28 1.28 0 0 1-.309.091 1.08 1.08 0 0 1-.32.012c-.104-.012-.214-.029-.315-.061s-.202-.079-.29-.139a1.32 1.32 0 0 1-.254-.2c-.073-.076-.137-.161-.194-.254a2.08 2.08 0 0 1-.121-.296 1.45 1.45 0 0 1-.048-.321c-.004-.109.034-.417.127-.938a10.03 10.03 0 0 0 .133-1.802v-1.821l-.03-1.767c-.028-.641-.113-1.468-.254-2.48l-.381-3.031c-.109-1.013-.266-1.86-.472-2.541l-.327-1.186c-.016-.105-.018-.208-.006-.309a1.17 1.17 0 0 1 .067-.314c.032-.101.079-.196.139-.285s.123-.169.2-.242a1.3 1.3 0 0 1 .26-.187 1.33 1.33 0 0 1 .29-.121 1.43 1.43 0 0 1 .314-.049 1.1 1.1 0 0 1 .309.031c.105.02.206.054.302.102s.186.101.266.17.153.147.218.236.117.175.157.272l.06.151zm-8.763 24.421l1.137.29 2.087.569 1.688.424c.488.092 1.244.312 2.268.659l1.748.665a1.62 1.62 0 0 1 .351.333c.101.133.177.276.23.43a1.49 1.49 0 0 1 .079.484 1.47 1.47 0 0 1-.079.478 1.5 1.5 0 0 1-.224.429 1.51 1.51 0 0 1-.357.339 1.44 1.44 0 0 1-.441.206c-.157.044-.319.062-.484.054s-.318-.048-.472-.109a1.49 1.49 0 0 1-.417-.248 1.57 1.57 0 0 1-.32-.369c-.085-.141-.143-.292-.175-.454s-.046-.322-.03-.484a1.38 1.38 0 0 1 .133-.471 1.51 1.51 0 0 1 .659-.696 1.36 1.36 0 0 1 .46-.158c.162-.025.323-.028.484 0a1.61 1.61 0 0 1 .466.152 1.44 1.44 0 0 1 .387.296 1.43 1.43 0 0 1 .272.399 1.59 1.59 0 0 1 .133.472 1.52 1.52 0 0 1-.03.484 1.41 1.41 0 0 1-.175.454 1.46 1.46 0 0 1-.315.369 1.42 1.42 0 0 1-.417.254 1.5 1.5 0 0 1-.478.103c-.166.008-.327-.004-.484-.048l-.236-.067-1.21-.526c-.802-.347-1.48-.589-2.032-.726l-1.651-.46c-.548-.169-1.21-.313-1.984-.43l-1.319-.223a1.74 1.74 0 0 1-.327-.152c-.101-.064-.194-.141-.278-.23a1.34 1.34 0 0 1-.218-.284 1.46 1.46 0 0 1-.139-.327 1.75 1.75 0 0 1-.06-.357 1.51 1.51 0 0 1 .03-.35 1.67 1.67 0 0 1 .109-.339 1.46 1.46 0 0 1 .194-.303 1.49 1.49 0 0 1 .254-.248c.097-.073.2-.133.308-.181s.228-.083.345-.103a1.3 1.3 0 0 1 .351-.012l.181.012zm78.634-17.613l-.719-1.198c-.484-.799-.9-1.367-1.246-1.706s-.783-.311-1.307.085-1.062.695-1.603.901l-1.185.411-.575.152c-.133.024-.266.034-.399.03a1.83 1.83 0 0 1-.399-.067c-.129-.04-.252-.094-.369-.163a1.73 1.73 0 0 1-.321-.242 1.68 1.68 0 0 1-.247-.315c-.073-.112-.132-.233-.176-.363a1.66 1.66 0 0 1-.072-.393c-.013-.137-.007-.272.018-.405.02-.133.058-.26.115-.381a1.69 1.69 0 0 1 .199-.351 1.96 1.96 0 0 1 .284-.285 1.88 1.88 0 0 1 .339-.217c.121-.057.488.07 1.101.381.613.306 1.177.429 1.693.369s1.26 0 2.232.181l2.238.339c.516.045 1.012.19 1.488.436.468.242.837.601 1.107 1.077s.379.97.326 1.482-.211.936-.49 1.27-.622.611-1.034.829-.986.357-1.724.406-1.354-.025-1.85-.218-1.016-.329-1.549-.406a3.86 3.86 0 0 0-1.602.097c-.537.141-1.051.305-1.543.49s-.709.065-.653-.363.647-.365 1.784.188 1.75.901 1.839 1.058a1.82 1.82 0 0 1 .181.497c.033.177.037.355.013.532a1.63 1.63 0 0 1-.158.508c-.08.157-.183.301-.308.43a1.56 1.56 0 0 1-.436.308 1.49 1.49 0 0 1-.508.151 1.6 1.6 0 0 1-.526-.012c-.177-.036-.343-.098-.496-.187s-.296-.196-.417-.333a1.66 1.66 0 0 1-.284-.448c-.072-.166-.111-.332-.127-.514a1.64 1.64 0 0 1 .048-.526c.04-.174.109-.337.206-.49a1.62 1.62 0 0 1 .356-.393c.142-.109.297-.196.466-.261a1.62 1.62 0 0 1 .52-.096c.178-.004.353.02.526.072a1.62 1.62 0 0 1 .472.236 1.67 1.67 0 0 1 .375.375 1.59 1.59 0 0 1 .236.478 1.53 1.53 0 0 1 .067.527c-.004.177-.037.35-.097.52a1.66 1.66 0 0 1-.266.46 1.56 1.56 0 0 1-.393.351c-.154.096-.317.167-.49.211a1.56 1.56 0 0 1-.527.043 1.8 1.8 0 0 1-.514-.127c-.165-.073-.314-.17-.447-.291l-.2-.181-.816-.666a24.35 24.35 0 0 1-1.778-1.639c-.646-.65-.714-1.309-.206-1.979s1.044-1.117 1.621-1.331l2.207-.689a7.27 7.27 0 0 1 2.619-.273c.851.069 1.613.295 2.287.678.677.375.778.534.302.478l-2.22-.157-2.715-.2c-.811-.077-1.394-.242-1.748-.496s-.271-.335.254-.23.719.171.586.2-.266.034-.399.03a1.83 1.83 0 0 1-.399-.067c-.129-.04-.252-.094-.369-.163a1.73 1.73 0 0 1-.321-.242 1.68 1.68 0 0 1-.247-.315c-.073-.112-.13-.233-.17-.363a1.49 1.49 0 0 1-.078-.393c-.013-.137-.007-.272.018-.405.02-.133.058-.26.115-.381a1.69 1.69 0 0 1 .199-.351 1.96 1.96 0 0 1 .284-.285 1.88 1.88 0 0 1 .339-.217c.121-.057.313-.107.575-.152s.703-.193 1.324-.447l1.658-.793a2.67 2.67 0 0 1 1.578-.326c.561.052 1.036.215 1.428.49a7.3 7.3 0 0 1 1.215 1.113l1.494 1.784.968 1.259c.056.109.101.222.133.339s.042.242.042.363a1.58 1.58 0 0 1-.042.357c-.028.117-.071.229-.127.338s-.123.21-.2.303a1.39 1.39 0 0 1-.272.242 1.66 1.66 0 0 1-.32.169 1.56 1.56 0 0 1-.357.091c-.121.016-.24.018-.357.006s-.24-.044-.357-.085a1.59 1.59 0 0 1-.321-.169 1.45 1.45 0 0 1-.272-.242l-.127-.133z"/><path d="M119.63 120.777l-1.736.442c-1.161.29-2.095.593-2.8.907s-1.174.567-1.404.756-.391.303-.484.339-.195.055-.296.067a1.47 1.47 0 0 1-.296-.006 1.42 1.42 0 0 1-.291-.079 1.53 1.53 0 0 1-.26-.145c-.08-.061-.153-.129-.217-.206a1.51 1.51 0 0 1-.17-.248c-.044-.089-.076-.183-.097-.284s-.03-.196-.03-.297a1.4 1.4 0 0 1 .043-.296c.028-.097.066-.19.114-.278s.107-.166.176-.242.143-.138.224-.194.367-.024.846.085 1.206.135 2.19.078 2.24.315 3.768 1.113 2.292 1.269 2.304 1.422a1.4 1.4 0 0 1-.048.448c-.036.149-.097.286-.181.411a1.36 1.36 0 0 1-.309.333c-.121.093-.252.165-.393.218s-.294.074-.448.078-.302-.024-.447-.072-.272-.113-.393-.206-.226-.197-.315-.327a1.28 1.28 0 0 1-.193-.405c-.045-.145-.063-.294-.055-.448a1.46 1.46 0 0 1 .091-.441 1.43 1.43 0 0 1 .23-.387 1.24 1.24 0 0 1 .338-.297 1.41 1.41 0 0 1 .412-.175 1.53 1.53 0 0 1 .453-.031 1.45 1.45 0 0 1 .436.121 1.36 1.36 0 0 1 .375.249c.113.1.205.219.278.356s.123.275.151.424a1.44 1.44 0 0 1 0 .454c-.02.149-.066.292-.139.429s-.157.254-.266.363-.232.19-.369.254-.286.107-.435.127-.305.01-.454-.018a1.32 1.32 0 0 1-.411-.163c-.133-.077-.25-.174-.351-.291a1.44 1.44 0 0 1-.236-.381l-.085-.211-.937-.23a9.03 9.03 0 0 0-1.936-.254c-.661-.017-1.199-.099-1.615-.248s-.663-.206-.756-.17-.195.055-.296.067a1.47 1.47 0 0 1-.296-.006 1.42 1.42 0 0 1-.291-.079 1.53 1.53 0 0 1-.26-.145c-.08-.061-.153-.129-.217-.206a1.51 1.51 0 0 1-.17-.248c-.044-.089-.076-.183-.097-.284s-.03-.196-.03-.297a1.4 1.4 0 0 1 .043-.296c.028-.097.066-.19.114-.278s.107-.166.176-.242c.064-.073.139-.138.224-.194s.256-.143.514-.272l1.597-.847c.802-.432 1.77-.847 2.903-1.247l1.869-.623a1.33 1.33 0 0 1 .332-.018c.113.008.226.03.339.067a1.56 1.56 0 0 1 .308.139 1.35 1.35 0 0 1 .267.218 1.22 1.22 0 0 1 .205.272c.061.097.107.2.139.308a1.32 1.32 0 0 1 .055.339c.008.109 0 .22-.024.333s-.055.222-.103.327a1.36 1.36 0 0 1-.182.29 1.46 1.46 0 0 1-.242.236c-.092.073-.191.131-.296.175l-.157.067z"/><path d="M117.636 113.492l-.671 1.361c-.444.904-1.313 2.261-2.607 4.072l-3.194 4.931-2.189 3.884-1.028 1.784a.89.89 0 0 1-.212.194c-.077.052-.161.091-.254.115a.82.82 0 0 1-.278.024.92.92 0 0 1-.279-.067c-.088-.036-.167-.086-.235-.151a.77.77 0 0 1-.182-.218.75.75 0 0 1-.097-.26c-.02-.093-.024-.187-.012-.284a.88.88 0 0 1 .079-.266c.04-.089.095-.166.163-.23a.95.95 0 0 1 .23-.17c.085-.044.173-.072.266-.084s.186-.01.278.006.186.046.266.091a.92.92 0 0 1 .224.175c.065.073.115.151.151.236a.81.81 0 0 1 .073.272.97.97 0 0 1-.018.285 1.01 1.01 0 0 1-.109.26c-.052.08-.115.151-.187.211s-.154.107-.242.14-.182.05-.279.054a.81.81 0 0 1-.278-.036c-.093-.024-.177-.065-.254-.121a.9.9 0 0 1-.199-.2c-.056-.077-.099-.159-.127-.248a.73.73 0 0 1-.043-.278c0-.097.016-.19.049-.279l.048-.133.913-1.688 2.178-4.017c.842-1.553 1.864-3.192 3.066-4.918s2-3.047 2.395-3.975l.659-1.5a1.01 1.01 0 0 1 .164-.212 1.11 1.11 0 0 1 .211-.157.92.92 0 0 1 .242-.109c.085-.029.172-.045.26-.049a1.07 1.07 0 0 1 .254.018 1 1 0 0 1 .254.085 1.38 1.38 0 0 1 .224.133.96.96 0 0 1 .188.194c.056.068.101.143.133.224s.062.165.078.254.023.175.019.26a1.16 1.16 0 0 1-.055.26l-.036.127zm-5.554 14.52l-.907 1.404-1.645 2.619-1.246 2.136-.611 1.059a1.04 1.04 0 0 1-.254.223c-.097.061-.2.105-.309.134s-.225.036-.338.024a.94.94 0 0 1-.327-.085c-.105-.044-.2-.105-.284-.181a.99.99 0 0 1-.206-.261c-.056-.1-.095-.207-.115-.32a1.07 1.07 0 0 1-.006-.339c.016-.113.049-.22.097-.321s.119-.191.2-.272a.98.98 0 0 1 .272-.194c.105-.052.213-.084.326-.096a.93.93 0 0 1 .333.012c.113.02.22.058.321.115s.183.127.26.211a.98.98 0 0 1 .181.285 1.03 1.03 0 0 1 .048.665c-.028.109-.072.212-.133.309s-.141.179-.229.248a1.13 1.13 0 0 1-.291.169 1.15 1.15 0 0 1-.332.061c-.113 0-.224-.016-.333-.049a1.14 1.14 0 0 1-.302-.151c-.093-.068-.172-.149-.236-.242s-.119-.193-.152-.302-.046-.22-.042-.333.026-.224.067-.333l.06-.157.538-.908 1.222-2.178 1.494-2.728.901-1.573c.061-.077.129-.145.206-.206a1.21 1.21 0 0 1 .248-.151c.089-.04.179-.069.272-.085a.98.98 0 0 1 .284-.018c.097.004.192.02.285.049a1.01 1.01 0 0 1 .26.121c.084.048.161.106.23.175s.129.143.181.224a1.05 1.05 0 0 1 .115.266 1 1 0 0 1 .054.284c.008.093.002.188-.018.285a1.21 1.21 0 0 1-.085.272l-.054.133z"/><path d="M106.54 128.097l-.943 1.119c-.637.746-1.549 1.674-2.734 2.783l-2.909 2.783-1.966 1.984-.95.944a.81.81 0 0 1-.562.176.86.86 0 0 1-.29-.049.94.94 0 0 1-.26-.145.87.87 0 0 1-.206-.218 1.08 1.08 0 0 1-.121-.272.93.93 0 0 1-.024-.296c.008-.101.03-.198.066-.291a.93.93 0 0 1 .157-.254.9.9 0 0 1 .23-.187.89.89 0 0 1 .278-.109c.101-.021.202-.025.302-.012a.92.92 0 0 1 .284.084c.092.044.169.101.242.17a.85.85 0 0 1 .175.242.78.78 0 0 1 .091.284.92.92 0 0 1 0 .296 1.01 1.01 0 0 1-.103.285.87.87 0 0 1-.181.23c-.072.065-.161.123-.254.163a.77.77 0 0 1-.284.079.89.89 0 0 1-.296-.025.75.75 0 0 1-.278-.115c-.084-.057-.159-.116-.224-.193a.88.88 0 0 1-.151-.26c-.032-.093-.05-.19-.054-.291s.008-.199.036-.296a.89.89 0 0 1 .127-.266l.085-.127.841-.847 1.96-2.033 2.758-2.789c1.093-1.073 1.933-2.001 2.522-2.783l.98-1.264a1.01 1.01 0 0 1 .212-.164c.08-.048.163-.084.248-.109a1.53 1.53 0 0 1 .266-.048c.088-.004.177.004.266.024a1.27 1.27 0 0 1 .254.079 1.08 1.08 0 0 1 .23.145c.072.056.137.121.193.194a1.25 1.25 0 0 1 .133.229 1.17 1.17 0 0 1 .079.261.99.99 0 0 1 .012.266.96.96 0 0 1-.048.26 1.12 1.12 0 0 1-.115.248l-.073.115zm11.646-1.892l-1.198 1.035-1.802 1.597c-.399.375-.643.659-.732.853s-.169.333-.254.405-.177.135-.278.188a1.34 1.34 0 0 1-.315.115 1.33 1.33 0 0 1-.332.042 1.85 1.85 0 0 1-.333-.042 1.43 1.43 0 0 1-.309-.121 1.36 1.36 0 0 1-.278-.194c-.084-.077-.157-.161-.217-.254a1.43 1.43 0 0 1-.158-.296 1.77 1.77 0 0 1-.078-.327c-.012-.113-.01-.224.006-.333a1.3 1.3 0 0 1 .078-.327c.045-.104.099-.203.164-.296s.365-.198.901-.315l2.268-.514c.968-.222 2.068-.323 3.302-.302l2.081.078c.153.033.296.087.429.164s.25.177.351.29a1.27 1.27 0 0 1 .242.393c.06.141.097.291.109.448a1.34 1.34 0 0 1-.042.454 1.54 1.54 0 0 1-.188.423 1.36 1.36 0 0 1-.308.333c-.121.097-.256.171-.406.224-.145.052-.294.078-.447.078a1.33 1.33 0 0 1-.454-.066 1.3 1.3 0 0 1-.411-.206 1.46 1.46 0 0 1-.321-.326 1.5 1.5 0 0 1-.199-.418 1.32 1.32 0 0 1-.055-.454 1.33 1.33 0 0 1 .091-.447c.056-.146.133-.279.23-.4a1.31 1.31 0 0 1 .345-.302c.133-.081.274-.139.423-.176a1.34 1.34 0 0 1 .46-.03 1.31 1.31 0 0 1 .441.115 1.42 1.42 0 0 1 .387.248 1.35 1.35 0 0 1 .278.363c.077.137.129.282.158.436a1.3 1.3 0 0 1 .006.453 1.57 1.57 0 0 1-.139.442 1.55 1.55 0 0 1-.273.369 1.35 1.35 0 0 1-.375.26c-.141.069-.288.113-.441.133l-.23.025-1.578-.097a24.23 24.23 0 0 0-3.019-.018c-.959.052-1.481.115-1.566.187s-.177.135-.278.188a1.34 1.34 0 0 1-.315.115 1.33 1.33 0 0 1-.332.042 1.85 1.85 0 0 1-.333-.042 1.43 1.43 0 0 1-.309-.121 1.36 1.36 0 0 1-.278-.194c-.084-.077-.157-.161-.217-.254a1.43 1.43 0 0 1-.158-.296 1.77 1.77 0 0 1-.078-.327c-.012-.113-.01-.224.006-.333a1.3 1.3 0 0 1 .078-.327c.045-.104.099-.203.164-.296a4 4 0 0 1 .417-.478c.214-.226.52-.496.919-.811s.968-.861 1.694-1.627l1.228-1.24a1.7 1.7 0 0 1 .29-.164 1.33 1.33 0 0 1 .32-.09c.113-.017.222-.021.327-.012.113.008.222.03.327.066s.205.085.302.145a1.43 1.43 0 0 1 .254.212c.077.081.143.169.2.266a1.41 1.41 0 0 1 .127.309c.032.109.05.22.054.332.004.105-.006.212-.03.321a1.52 1.52 0 0 1-.109.321 1.7 1.7 0 0 1-.175.278l-.109.127z"/><path d="M121.177 130.134l-.852 2.68c-.569 1.787-1.353 3.676-2.353 5.669l-2.728 4.942-2.044 3.503-.926 1.682c-.072.093-.157.17-.254.23a1.13 1.13 0 0 1-.32.133 1.11 1.11 0 0 1-.345.03c-.113-.012-.224-.04-.333-.084s-.201-.111-.29-.188a1.16 1.16 0 0 1-.212-.272c-.056-.101-.096-.21-.121-.327s-.022-.228-.006-.345.051-.221.103-.326a1.01 1.01 0 0 1 .206-.279 1.05 1.05 0 0 1 .611-.302c.113-.012.228-.008.344.012s.22.065.321.121.19.133.266.218a1.03 1.03 0 0 1 .188.29 1.1 1.1 0 0 1 .078.339c.008.113-.002.226-.03.339s-.073.22-.133.32a1.1 1.1 0 0 1-.236.255c-.089.072-.187.129-.296.169a1.01 1.01 0 0 1-.345.06c-.117 0-.226-.012-.339-.048a.96.96 0 0 1-.308-.151c-.093-.069-.174-.151-.242-.248a1.01 1.01 0 0 1-.151-.309 1.09 1.09 0 0 1-.043-.345c.004-.117.027-.23.067-.338l.06-.164.932-1.506 2.068-3.412c.754-1.271 1.585-2.858 2.492-4.762s1.611-3.765 2.111-5.572l.81-2.837c.037-.089.085-.171.146-.248s.123-.145.199-.206a1.21 1.21 0 0 1 .248-.151 1 1 0 0 1 .272-.091 1.16 1.16 0 0 1 .285-.024 1.15 1.15 0 0 1 .284.048 1.36 1.36 0 0 1 .266.115c.085.053.161.111.23.176a1.24 1.24 0 0 1 .181.23.98.98 0 0 1 .121.26c.032.093.051.187.055.284a1.36 1.36 0 0 1-.012.285l-.025.145zm8.389-17.144l.29 1.669c.193 1.118.572 2.785 1.137 5.004s.988 4.469 1.27 6.764.379 4.384.303 6.267l-.242 4.193a8.52 8.52 0 0 1-.617 2.571l-.599 1.319c-.069.08-.147.147-.236.199a.91.91 0 0 1-.284.109.95.95 0 0 1-.309.012c-.101-.012-.199-.04-.296-.084s-.176-.103-.248-.176-.139-.149-.188-.242a1.05 1.05 0 0 1-.09-.29 1 1 0 0 1 0-.309 1.07 1.07 0 0 1 .103-.29.96.96 0 0 1 .187-.242c.073-.069.157-.125.254-.169a1.02 1.02 0 0 1 .296-.079c.101-.008.202-.002.303.018s.195.065.284.121a.9.9 0 0 1 .23.2.81.81 0 0 1 .157.26.97.97 0 0 1 .061.302c.008.101-.002.202-.031.303a1.08 1.08 0 0 1-.133.278c-.06.085-.131.157-.211.218a.82.82 0 0 1-.273.139.95.95 0 0 1-.604 0c-.097-.036-.186-.085-.266-.145s-.156-.139-.212-.224a1.01 1.01 0 0 1-.127-.284c-.028-.101-.034-.198-.03-.303a1.03 1.03 0 0 1 .066-.296l.061-.145.447-.781c.295-.516.47-1.216.526-2.099l.17-3.993c.052-1.783-.071-3.775-.369-5.977s-.766-4.425-1.391-6.667l-1.331-5.016-.405-1.796a1.09 1.09 0 0 1 .012-.279.93.93 0 0 1 .079-.278 1.12 1.12 0 0 1 .139-.248 1.39 1.39 0 0 1 .199-.206c.073-.06.153-.113.242-.157s.176-.071.272-.091a1.1 1.1 0 0 1 .279-.024 1.15 1.15 0 0 1 .284.048 1.03 1.03 0 0 1 .26.109c.085.049.161.107.23.176.068.064.129.137.181.217a1.17 1.17 0 0 1 .127.261l.043.133z"/><path d="M131.227 137.666l-.731 1.41c-.484.943-1.017 1.843-1.597 2.698l-2.026 3.261-2.105 3.835-1.796 3.6-.95 1.863c-.065.089-.143.164-.236.224a1.03 1.03 0 0 1-.296.139c-.105.029-.212.041-.321.037a1.06 1.06 0 0 1-.32-.073 1 1 0 0 1-.279-.169.92.92 0 0 1-.211-.248c-.057-.093-.097-.194-.121-.303s-.031-.218-.018-.327a.98.98 0 0 1 .09-.314.97.97 0 0 1 .182-.266 1.01 1.01 0 0 1 .26-.2c.097-.052.199-.087.308-.103a1.12 1.12 0 0 1 .327 0c.109.016.212.051.308.103a1.01 1.01 0 0 1 .26.2c.073.08.133.169.182.266.044.101.072.206.085.314a.95.95 0 0 1-.019.327 1 1 0 0 1-.121.303 1.05 1.05 0 0 1-.205.248c-.08.069-.18.129-.284.169s-.206.065-.315.073a1.08 1.08 0 0 1-.327-.037 1.16 1.16 0 0 1-.296-.139 1.02 1.02 0 0 1-.236-.224c-.064-.088-.115-.185-.151-.29a.95.95 0 0 1-.054-.321c0-.109.018-.215.054-.32l.054-.158.95-1.657 1.887-3.576 2.081-3.975 1.887-3.26c.496-.799.959-1.682 1.391-2.65l.719-1.567c.049-.077.105-.147.17-.212a1.08 1.08 0 0 1 .224-.163c.08-.049.165-.085.254-.109s.179-.038.272-.042a.96.96 0 0 1 .266.024c.089.02.175.048.26.084a1 1 0 0 1 .23.152c.072.056.137.123.193.199a1.15 1.15 0 0 1 .133.236 1.2 1.2 0 0 1 .079.266 1.25 1.25 0 0 1 .006.273c-.004.088-.022.177-.054.266l-.043.133zm-66.356 2.684l-2.214 2.426-4.155 4.495-2.667 3.013-1.258 1.712-.641.883c-.081.081-.173.146-.278.194a.98.98 0 0 1-.32.091 1.06 1.06 0 0 1-.339-.018 1.1 1.1 0 0 1-.315-.121 1.03 1.03 0 0 1-.26-.218c-.073-.085-.131-.18-.175-.284a1.2 1.2 0 0 1-.073-.333.93.93 0 0 1 .036-.333.92.92 0 0 1 .139-.308c.06-.097.137-.18.23-.249a1 1 0 0 1 .296-.157 1.19 1.19 0 0 1 .333-.06c.113 0 .224.018.333.054s.21.089.302.157a1.12 1.12 0 0 1 .23.242 1.14 1.14 0 0 1 .145.309.93.93 0 0 1 .036.333c-.004.113-.028.224-.073.332a1.06 1.06 0 0 1-.169.291 1.11 1.11 0 0 1-.254.218c-.097.061-.206.102-.315.127a1.04 1.04 0 0 1-.339.018c-.113-.012-.222-.04-.327-.085a1.17 1.17 0 0 1-.278-.187c-.085-.081-.153-.172-.206-.273s-.089-.205-.109-.314-.02-.226 0-.339a1 1 0 0 1 .103-.321l.079-.151.593-.714 1.355-1.754c.512-.698 1.389-1.749 2.631-3.152l4.01-4.598 2.244-2.59a1.18 1.18 0 0 1 .236-.163c.085-.044.173-.079.266-.103s.185-.03.278-.03.185.006.278.03.181.059.266.103a1.34 1.34 0 0 1 .236.157c.069.065.131.138.188.218a1.19 1.19 0 0 1 .133.248c.036.088.054.182.067.279a1.07 1.07 0 0 1 0 .278 1.28 1.28 0 0 1-.067.272.94.94 0 0 1-.133.254l-.079.121zm39.101.289l.913 1.525a31.08 31.08 0 0 1 1.73 3.345l1.179 2.959.684 2.401.32 1.446c0 .125-.02.246-.06.363a1.05 1.05 0 0 1-.169.333 1.15 1.15 0 0 1-.266.254 1 1 0 0 1-.333.157 1.08 1.08 0 0 1-.363.049 1.22 1.22 0 0 1-.363-.079c-.117-.044-.224-.107-.32-.187a1.13 1.13 0 0 1-.242-.279 1.14 1.14 0 0 1-.14-.338c-.028-.125-.036-.249-.024-.37a1.09 1.09 0 0 1 .097-.356c.048-.117.115-.22.2-.309a1.2 1.2 0 0 1 .296-.23c.113-.061.224-.101.345-.121a1.27 1.27 0 0 1 .369-.006c.125.02.244.059.357.115s.207.135.296.224a1.12 1.12 0 0 1 .206.302c.056.113.09.232.102.357a1.12 1.12 0 0 1-.012.369c-.028.121-.072.236-.133.345a1.15 1.15 0 0 1-.236.285 1.26 1.26 0 0 1-.314.193c-.117.044-.238.071-.363.079a1.12 1.12 0 0 1-.369-.037 1.07 1.07 0 0 1-.333-.151 1.13 1.13 0 0 1-.272-.248c-.076-.101-.135-.21-.175-.327l-.067-.175-.193-1.131c-.133-.755-.307-1.468-.52-2.142s-.595-1.555-1.144-2.644-1.165-2.111-1.85-3.079l-1.101-1.597c-.049-.093-.085-.192-.109-.297a1.64 1.64 0 0 1-.03-.308c.004-.105.02-.208.048-.309a1.26 1.26 0 0 1 .121-.296c.048-.093.109-.178.182-.254s.153-.144.241-.2c.089-.061.184-.107.285-.139a1.38 1.38 0 0 1 .308-.073 1.34 1.34 0 0 1 .309.012 1.12 1.12 0 0 1 .302.079c.101.04.194.093.278.157a1.25 1.25 0 0 1 .23.212l.103.121z"/></svg>