<svg xmlns="http://www.w3.org/2000/svg" width="192" height="192" fill="none" xmlns:v="https://vecta.io/nano"><g fill="#000"><path d="M68.629 69.25l-.583 4.053-.828 7.59-.36 6.143-.169 4.636c-.032 1.353.068 2.847.298 4.482s.57 3.289 1.031 4.951 1.036 3.33 1.723 5.005l2.205 4.857c.787 1.567 1.709 3.099 2.768 4.596s2.25 2.99 3.561 4.481l3.555 3.926c1.058 1.126 2.101 2.033 3.127 2.72l2.449 1.635c.611.402 1.235.654 1.872.757l2.456.288 3.276.201c1.18.045 2.431-.04 3.751-.254l4.172-.65c1.466-.215 2.736-.485 3.813-.811 1.071-.322 1.999-.721 2.781-1.199l2.3-1.293c.75-.384 1.435-.82 2.055-1.307l1.893-1.587 1.716-1.628a16.95 16.95 0 0 0 1.384-1.588c.42-.554.773-1.204 1.058-1.95l1.051-2.432 1.466-2.967 1.363-3.042c.353-.924.665-1.941.936-3.048a27.4 27.4 0 0 1 .984-3.182c.384-1.014.633-1.892.746-2.633s.199-1.508.244-2.298.145-1.623.299-2.499c.149-.88.262-1.845.339-2.894l.176-3.001.075-2.76-.02-2.465-.007-2.707.007-2.814-.156-2.599-.238-3.155-.054-2.023c.027-.161.079-.315.156-.462s.181-.277.299-.389.26-.208.413-.275.315-.116.482-.134.328-.009.495.027a1.56 1.56 0 0 1 .835.496c.108.129.194.27.257.422s.1.317.109.482-.009.326-.054.482a1.53 1.53 0 0 1-.211.449c-.095.134-.208.252-.339.355a1.66 1.66 0 0 1-.441.228 1.51 1.51 0 0 1-.488.08c-.168 0-.33-.027-.489-.08a1.66 1.66 0 0 1-.441-.228c-.131-.103-.244-.221-.339-.355s-.165-.288-.21-.449-.063-.317-.054-.482a1.5 1.5 0 0 1 .108-.482 1.64 1.64 0 0 1 .258-.422c.109-.125.233-.23.373-.315a1.58 1.58 0 0 1 .461-.181c.168-.036.333-.045.496-.027a1.52 1.52 0 0 1 .481.134c.154.067.292.159.414.275s.217.241.298.389.129.301.157.462l.04.248-.102 1.775-.23 3.155-.163 2.606v2.814l-.027 2.72-.075 2.486-.047 2.807-.102 3.162c-.05 1.139-.151 2.113-.305 2.921l-.36 2.506c-.086.862-.228 1.706-.427 2.532s-.466 1.713-.814 2.66-.66 2.012-.936 3.196-.593 2.273-.95 3.269-.789 2.044-1.309 3.142l-1.316 2.921-1.092 2.727c-.367.974-.814 1.764-1.344 2.372s-1.074 1.156-1.634 1.634l-1.873 1.628-2.157 1.715c-.755.536-1.492.956-2.211 1.26-.715.299-1.531.723-2.449 1.273s-1.952.996-3.114 1.353c-1.167.357-2.476.65-3.928.878l-4.348.71c-1.443.25-2.772.364-3.989.341l-3.514-.134c-1.126-.067-2.117-.232-2.971-.495s-1.553-.628-2.11-1.092-1.395-1.081-2.517-1.849-2.225-1.724-3.297-2.868l-3.636-4.02c-1.357-1.536-2.589-3.092-3.697-4.669s-2.065-3.16-2.87-4.763l-2.279-5.018c-.71-1.738-1.307-3.475-1.791-5.212a39.69 39.69 0 0 1-1.099-5.206c-.244-1.733-.355-3.283-.332-4.649l.129-4.683.312-6.244.76-7.664.57-4.18c.023-.08.054-.159.095-.234s.091-.139.149-.201.122-.116.19-.161.149-.087.231-.114.158-.051.244-.06.163-.007.244.007.17.029.251.06.149.072.217.121.136.105.19.168a1.55 1.55 0 0 1 .142.208 1.39 1.39 0 0 1 .088.241c.018.08.027.161.027.241l-.007.127z"/><path d="M46.906 64.205l-1.662.241-3.114.462c-.963.152-1.015.404-.156.757l2.863 1.206c1.049.456 2.096.775 3.141.958l3.202.57 2.897.402c.846.067 1.61.21 2.293.429s1.348.351 1.994.409l2.293.181 2.795.161 2.856.094 2.876.06 3.175.054 3.31.034 3.215.027 2.578-.06 2.144-.1 2.422-.04 2.985.027 3.534.067 3.358.194 3.534.248 3.711.114 3.242.06c1 .009 1.949.109 2.849.302a23.73 23.73 0 0 0 2.714.415l2.991.194 3.087.094 2.822.027 2.856.013 3.025.02 2.938.007 2.761-.02 2.225-.094 2.15-.08 2.727.027a21.18 21.18 0 0 0 2.754-.107l2.368-.255 1.967-.208 1.899-.261c.665-.116 1.129-.375 1.391-.777s.323-.822.17-1.273-.496-.739-1.025-.864-1.013-.29-1.451-.496a10.36 10.36 0 0 0-1.513-.549c-.57-.165-1.219-.246-1.947-.241s-1.416-.138-2.062-.429-1.244-.447-1.791-.469-1.377-.123-2.503-.301l-2.042-.362c-.24-.062-.464-.159-.672-.288s-.389-.297-.542-.489-.272-.398-.353-.63-.131-.464-.136-.71c-.004-.237.032-.471.109-.703a2.17 2.17 0 0 1 .325-.643 2.32 2.32 0 0 1 .516-.509c.203-.138.423-.243.658-.315s.477-.103.726-.094a2.29 2.29 0 0 1 .712.141 2.14 2.14 0 0 1 .638.362c.19.152.35.331.481.536s.226.427.285.663.077.476.054.717-.081.473-.176.697a2.16 2.16 0 0 1-.4.603c-.167.179-.357.328-.57.449a2.25 2.25 0 0 1-.692.248 2.47 2.47 0 0 1-.726.013c-.244-.036-.477-.107-.698-.214s-.414-.255-.591-.429c-.171-.174-.312-.371-.42-.59a2.18 2.18 0 0 1-.211-.69c-.031-.237-.022-.473.028-.71.045-.241.129-.467.251-.677s.28-.395.461-.556a2.17 2.17 0 0 1 .617-.389 2.33 2.33 0 0 1 .712-.168l.367-.027 1.614.281 2.646.402c.692.08 1.311.259 1.859.536s1.074.426 1.58.435 1.14.094 1.9.255l1.824.456c.466.147.912.377 1.337.69s.918.59 1.479.831 1.01.534 1.35.891.61.775.814 1.239.348 1.123.42 1.976-.147 1.641-.658 2.365-.968 1.271-1.37 1.641-1.113.605-2.144.703l-2.421.127-1.886-.027c-.674.004-1.488.06-2.442.167l-2.87.194-2.727.027-2.15-.087-2.225-.094-2.761-.02a320.84 320.84 0 0 0-2.944 0l-3.026.007c-.995.004-1.951 0-2.869-.013l-2.849-.034-3.162-.067-3.195-.174c-1.004-.085-1.881-.232-2.632-.442s-1.632-.324-2.632-.328-2.087-.007-3.263-.02l-3.792-.067-3.507-.174c-.977-.085-2.062-.118-3.256-.1l-3.534.067-2.985.027-2.422-.04-2.144-.1c-.656-.049-1.515-.069-2.578-.06l-3.215.02-3.31.034-3.188.034-2.89.027-2.903.02c-1.004.013-1.983.009-2.937-.013a19.43 19.43 0 0 1-2.7-.241c-.841-.134-1.488-.324-1.94-.57s-1.121-.4-2.008-.476l-2.965-.335-3.493-.456c-1.235-.161-2.365-.413-3.392-.757l-2.951-.971c-.941-.304-1.714-.851-2.32-1.641s-.798-1.461-.59-2.01.613-.992 1.214-1.327 1.393-.608 2.374-.817l3.114-.683 1.811-.368a1.46 1.46 0 0 1 .312.02 1.85 1.85 0 0 1 .305.094c.099.045.19.101.271.168s.16.141.224.221.124.176.169.275a1.57 1.57 0 0 1 .095.301c.018.103.023.206.014.308s-.023.206-.054.308-.075.199-.129.288a1.53 1.53 0 0 1-.203.248 1.07 1.07 0 0 1-.251.194 1.31 1.31 0 0 1-.292.127l-.149.047z"/><path d="M40.619 63.906l.597-.322c.394-.21.902-.411 1.526-.603s1.14-.44 1.547-.744.965-.511 1.689-.637l1.927-.228 2.137-.161 2.198-.174 2.422-.074c.999-.009 1.881-.154 2.646-.436a9.53 9.53 0 0 1 2.354-.543l1.947-.134 1.703-.033 1.784-.054 2.205-.047 1.737.04c.235.036.457.109.665.221s.4.252.563.422a2.11 2.11 0 0 1 .394.576c.1.214.163.438.19.67s.014.465-.041.697-.136.442-.258.643a2.13 2.13 0 0 1-.455.529 2.23 2.23 0 0 1-.604.362 2.28 2.28 0 0 1-.692.147 2.18 2.18 0 0 1-.699-.074 2.07 2.07 0 0 1-.638-.295 2.08 2.08 0 0 1-.516-.476c-.14-.188-.249-.393-.326-.616s-.115-.451-.115-.683.038-.467.115-.69.185-.429.326-.616.317-.346.516-.476a2.07 2.07 0 0 1 .638-.295 2.18 2.18 0 0 1 .699-.074 2.28 2.28 0 0 1 .692.147c.222.089.423.21.604.362a2.13 2.13 0 0 1 .455.529 2.08 2.08 0 0 1 .258.65 1.97 1.97 0 0 1 .041.69c-.027.237-.09.46-.19.67a2.11 2.11 0 0 1-.394.576 2.18 2.18 0 0 1-.563.422 2.05 2.05 0 0 1-.665.221l-.353.06-1.384-.02-2.198-.04-1.75-.04a58.01 58.01 0 0 0-2.164 0l-1.974.107c-.502.058-1.108.214-1.818.469s-1.382.398-2.015.429l-2.137.127c-.791.054-1.533.143-2.225.268a10.07 10.07 0 0 1-1.947.174l-1.927-.034c-.674-.009-1.458.161-2.354.509l-1.947.811-.814.348a1.79 1.79 0 0 1-.427.094c-.14.018-.283.016-.427-.007a1.61 1.61 0 0 1-.414-.107c-.136-.054-.262-.123-.38-.208s-.228-.183-.319-.295-.176-.226-.244-.355-.111-.263-.142-.402a1.95 1.95 0 0 1-.047-.422 1.9 1.9 0 0 1 .061-.422c.041-.139.095-.27.163-.395s.156-.246.251-.348a1.81 1.81 0 0 1 .332-.281l.183-.121v.007z"/><path d="M70.221 60.841l-.027-1.192c-.018-.795.14-1.943.475-3.444s.932-3.095 1.804-4.77l2.639-4.602 2.008-3.377c.461-.862 1.011-1.661 1.648-2.398s1.424-1.427 2.347-2.057 2.071-1.137 3.433-1.521l3.873-1.226 3.405-1.085 2.727-.69 2.266-.389c.746-.089 1.734-.134 2.964-.134a20.62 20.62 0 0 1 3.616.315l2.903.389c.76.054 1.678.21 2.754.469s2.139.715 3.175 1.367 1.897 1.128 2.585 1.44 1.411.762 2.17 1.347l2.476 1.996 2.225 1.675c.593.371 1.12.82 1.581 1.347l1.384 1.675 1.187 1.561 1.343 1.675c.561.661.984 1.541 1.269 2.64s.597 1.896.936 2.392.647 1.195.909 2.084.545 1.639.848 2.251l.773 1.702.57 1.514c.167.491.43 1.025.787 1.601l.685 1.159c.104.201.174.411.21.63a1.96 1.96 0 0 1-.006.67c-.041.219-.116.427-.224.623a2.08 2.08 0 0 1-.407.529c-.168.152-.355.275-.563.368a2.07 2.07 0 0 1-.652.174c-.226.018-.45.002-.671-.047s-.43-.134-.624-.254a1.97 1.97 0 0 1-.509-.436c-.149-.17-.265-.359-.346-.57a2.02 2.02 0 0 1-.136-.65c-.009-.228.018-.449.082-.663s.158-.415.285-.603a2.13 2.13 0 0 1 .468-.476c.185-.134.386-.237.603-.308s.435-.105.665-.1a2 2 0 0 1 .665.114 2.26 2.26 0 0 1 .59.315c.181.139.333.301.455.489a2.04 2.04 0 0 1 .278.61c.059.214.081.436.068.663a2.04 2.04 0 0 1-.15.65 2.02 2.02 0 0 1-.352.563 2.12 2.12 0 0 1-.523.429c-.194.112-.402.19-.624.234a2.04 2.04 0 0 1-.678.033c-.226-.027-.441-.089-.645-.187s-.393-.219-.556-.375l-.244-.234-.78-1.36c-.52-.907-.862-1.737-1.024-2.492s-.401-1.367-.726-1.849-.552-.956-.692-1.42a6.21 6.21 0 0 1-.238-1.447c-.027-.5-.117-1.034-.271-1.601s-.371-1.137-.651-1.722c-.285-.585-.441-1.126-.468-1.621s-.111-1.009-.251-1.541a3.15 3.15 0 0 0-.76-1.387c-.366-.389-.674-.808-.923-1.259s-.592-.974-1.031-1.581l-1.017-1.534c-.231-.415-.636-.846-1.215-1.293l-2.225-1.735-2.32-1.836c-.642-.509-1.322-.958-2.041-1.347l-2.341-1.4a8.15 8.15 0 0 0-2.754-1.119l-2.673-.469-2.774-.415c-1.054-.17-2.173-.232-3.358-.188l-2.808.087-2.103.141c-.715.076-1.576.257-2.585.543l-3.405 1.112-3.663 1.152c-1.176.308-2.159.73-2.951 1.266a12.1 12.1 0 0 0-2.022 1.715c-.561.607-1.074 1.362-1.54 2.264l-1.947 3.397-2.429 4.314c-.787 1.523-1.316 2.961-1.587 4.315s-.409 2.432-.427 3.222l-.041 1.313a.95.95 0 0 1-.061.248 1.1 1.1 0 0 1-.122.228 1.03 1.03 0 0 1-.176.194.99.99 0 0 1-.21.147c-.077.04-.158.072-.244.094s-.172.027-.258.027-.172-.009-.258-.027a1.15 1.15 0 0 1-.244-.094c-.077-.04-.147-.089-.21-.147a1.03 1.03 0 0 1-.176-.194 1.11 1.11 0 0 1-.122-.228.95.95 0 0 1-.061-.248l-.014-.127z"/><path d="M135.005 64.716l-.766-.422a5.06 5.06 0 0 0-1.662-.576c-.593-.098-.95-.181-1.072-.248s-.235-.141-.339-.234a1.9 1.9 0 0 1-.265-.308 1.64 1.64 0 0 1-.183-.368c-.045-.129-.075-.261-.088-.395a1.55 1.55 0 0 1 .013-.409 1.47 1.47 0 0 1 .109-.395 1.6 1.6 0 0 1 .197-.355 1.62 1.62 0 0 1 .285-.301 1.83 1.83 0 0 1 .345-.221 1.47 1.47 0 0 1 .387-.134 1.61 1.61 0 0 1 .414-.04 1.75 1.75 0 0 1 .407.06c.136.036.764.335 1.886.898l1.872.965c.136.085.253.185.353.301s.176.255.23.402a1.36 1.36 0 0 1 .089.449 1.52 1.52 0 0 1-.055.449 1.37 1.37 0 0 1-.203.415 1.33 1.33 0 0 1-.333.328c-.126.089-.264.159-.413.208s-.301.065-.455.06a1.33 1.33 0 0 1-.454-.08 1.48 1.48 0 0 1-.407-.221 1.49 1.49 0 0 1-.312-.342 1.41 1.41 0 0 1-.19-.422c-.04-.152-.05-.297-.041-.449s.05-.306.109-.449a1.44 1.44 0 0 1 .251-.389 1.39 1.39 0 0 1 .359-.288c.136-.076.28-.13.434-.161s.305-.038.455-.02c.158.022.307.067.447.134a1.38 1.38 0 0 1 .38.268 1.39 1.39 0 0 1 .278.368c.072.138.113.284.136.435s.02.304-.007.456-.079.295-.156.429a1.43 1.43 0 0 1-.291.362c-.117.103-.242.185-.387.248a1.58 1.58 0 0 1-.455.121 1.33 1.33 0 0 1-.454-.04l-.231-.054-1.77-.59-1.947-.69a1.46 1.46 0 0 1-.333-.234 1.76 1.76 0 0 1-.271-.308c-.072-.116-.133-.239-.183-.368s-.075-.261-.088-.395a1.55 1.55 0 0 1 .013-.409 1.47 1.47 0 0 1 .109-.395 1.6 1.6 0 0 1 .197-.355 1.62 1.62 0 0 1 .285-.301 1.83 1.83 0 0 1 .345-.221 1.47 1.47 0 0 1 .387-.134 1.61 1.61 0 0 1 .414-.04 1.75 1.75 0 0 1 .407.06c.136.036.554.183 1.255.442s1.291.552 1.784.864l.882.583a1.37 1.37 0 0 1 .264.248 1.77 1.77 0 0 1 .184.308 1.41 1.41 0 0 1 .115.348c.023.12.029.232.02.348a1.85 1.85 0 0 1-.061.355 1.43 1.43 0 0 1-.149.328 1.69 1.69 0 0 1-.224.288 1.42 1.42 0 0 1-.292.221 1.51 1.51 0 0 1-.325.147 1.65 1.65 0 0 1-.36.067 1.41 1.41 0 0 1-.359-.02 1.47 1.47 0 0 1-.346-.107l-.17-.074zM73.417 85.138l.407-1.126c.271-.75.59-1.451.957-2.104s.841-1.186 1.438-1.601 1.171-.703 1.723-.864a8.99 8.99 0 0 1 1.73-.322c.606-.054 1.253.063 1.94.335s1.278.607 1.771.992 1.174 1.208 2.042 2.472 1.303 2.001 1.303 2.211a1.82 1.82 0 0 1-.088.59c-.063.196-.156.377-.278.543a1.9 1.9 0 0 1-.441.429 1.98 1.98 0 0 1-.556.261 2.04 2.04 0 0 1-.617.08 1.87 1.87 0 0 1-.604-.127c-.194-.071-.371-.172-.529-.301a1.89 1.89 0 0 1-.407-.462c-.113-.174-.192-.36-.237-.556s-.063-.398-.041-.603a1.78 1.78 0 0 1 .156-.59c.081-.188.192-.357.332-.509a1.97 1.97 0 0 1 .488-.375 1.78 1.78 0 0 1 .583-.208c.204-.036.409-.038.617-.007a1.88 1.88 0 0 1 .583.188 1.86 1.86 0 0 1 .495.362 1.71 1.71 0 0 1 .359.496 1.82 1.82 0 0 1 .17.583c.023.201.02.409-.02.61a2.01 2.01 0 0 1-.224.563 1.79 1.79 0 0 1-.393.469c-.154.138-.328.246-.522.322a1.82 1.82 0 0 1-.597.141c-.208.013-.414-.005-.617-.054a2.04 2.04 0 0 1-.563-.248 2.11 2.11 0 0 1-.454-.415 1.98 1.98 0 0 1-.299-.529l-.102-.288-.597-.804a16.42 16.42 0 0 0-1.201-1.474 1.74 1.74 0 0 0-1.513-.583 2.67 2.67 0 0 0-1.574.657c-.452.389-.782.965-.99 1.728l-.394 1.326a1.94 1.94 0 0 1-.217.355 1.65 1.65 0 0 1-.298.288 1.77 1.77 0 0 1-.353.214 1.54 1.54 0 0 1-.4.121 1.55 1.55 0 0 1-.407.027 1.94 1.94 0 0 1-.414-.074 2.08 2.08 0 0 1-.38-.174c-.118-.072-.226-.154-.326-.248a1.66 1.66 0 0 1-.258-.328 1.59 1.59 0 0 1-.17-.375c-.041-.134-.066-.264-.075-.402a1.57 1.57 0 0 1 .027-.409l.034-.201zm28.268.007l.427-1.166c.285-.777.679-1.445 1.181-2.003a3.98 3.98 0 0 1 1.906-1.179c.769-.219 1.411-.36 1.926-.422a8.25 8.25 0 0 1 1.52-.034c.497.031 1.099.272 1.804.724s1.307.913 1.805 1.373 1.112 1.324 1.845 2.579 1.094 1.979 1.085 2.184-.05.395-.122.583a1.8 1.8 0 0 1-.305.516c-.131.156-.283.288-.455.395a1.86 1.86 0 0 1-.563.228 1.94 1.94 0 0 1-.603.04 1.77 1.77 0 0 1-.584-.154c-.186-.085-.355-.19-.509-.328a1.82 1.82 0 0 1-.373-.469c-.095-.174-.16-.362-.196-.563a1.87 1.87 0 0 1-.014-.596 1.81 1.81 0 0 1 .19-.57 1.77 1.77 0 0 1 .359-.482 1.8 1.8 0 0 1 .496-.335 1.92 1.92 0 0 1 .583-.168c.203-.023.4-.02.604.02a2.1 2.1 0 0 1 .563.214 1.8 1.8 0 0 1 .468.375c.136.152.242.322.319.509a1.84 1.84 0 0 1 .135.583 1.87 1.87 0 0 1-.054.596 2 2 0 0 1-.244.543 1.84 1.84 0 0 1-.414.442c-.158.125-.334.221-.529.288a1.82 1.82 0 0 1-.597.101 1.81 1.81 0 0 1-.597-.087 1.93 1.93 0 0 1-.543-.275 1.74 1.74 0 0 1-.42-.429c-.118-.165-.204-.344-.258-.536l-.088-.288-.448-.797c-.298-.532-.841-1.128-1.628-1.789s-1.621-.963-2.503-.904-1.418.449-1.608 1.186l-.373 1.286a1.74 1.74 0 0 1-.217.348 1.47 1.47 0 0 1-.292.288 2.09 2.09 0 0 1-.346.208 1.98 1.98 0 0 1-.393.121c-.136.022-.271.031-.407.027s-.271-.034-.407-.074a2.14 2.14 0 0 1-.373-.168 1.77 1.77 0 0 1-.326-.255c-.095-.094-.178-.201-.251-.322s-.129-.239-.169-.368a1.69 1.69 0 0 1-.075-.402 1.9 1.9 0 0 1 .027-.395l.041-.201zm-8.309 18.005l-.645.83c-.434.554-.733 1.112-.895 1.675s.097 1.128.794 1.695 1.332.925 1.893 1.072 1.038-.272 1.431-1.26.242-1.82-.454-2.498-1.336-.963-1.933-.865l-1.194.208a1.83 1.83 0 0 1-.604-.007c-.204-.036-.389-.093-.57-.187a2.04 2.04 0 0 1-.482-.362 1.86 1.86 0 0 1-.339-.496c-.086-.183-.14-.375-.163-.576a1.82 1.82 0 0 1 .034-.589c.041-.196.122-.382.231-.557s.235-.326.393-.455.326-.232.516-.308a2.05 2.05 0 0 1 .59-.128c.199-.009.398.014.597.067s.378.139.549.255a1.79 1.79 0 0 1 .434.409 1.71 1.71 0 0 1 .285.529 1.85 1.85 0 0 1 .095.583 1.87 1.87 0 0 1-.095.589 1.95 1.95 0 0 1-.285.53 1.8 1.8 0 0 1-.441.408 1.93 1.93 0 0 1-1.146.315c-.204-.013-.4-.058-.59-.134a1.89 1.89 0 0 1-.516-.308 1.73 1.73 0 0 1-.393-.456 1.91 1.91 0 0 1-.224-.556c-.041-.196-.05-.393-.027-.589s.077-.393.163-.576a1.86 1.86 0 0 1 .339-.496 1.89 1.89 0 0 1 .482-.355l.271-.141 1.852-.308c1.235-.206 2.162-.109 2.781.288s1.122.791 1.52 1.166l1.126 1.045c.353.326.647.735.882 1.226s.339 1.056.299 1.695a11.53 11.53 0 0 1-.292 1.936c-.154.648-.407 1.409-.76 2.284s-.918 1.474-1.696 1.796-1.425.44-1.94.342l-1.811-.456c-.701-.205-1.474-.5-2.32-.884-.855-.384-1.52-.905-1.994-1.561a3.22 3.22 0 0 1-.617-2.204c.059-.818.237-1.66.536-2.526s.656-1.588 1.085-2.164l.78-1.012c.09-.093.19-.176.298-.248a1.77 1.77 0 0 1 .353-.16 1.45 1.45 0 0 1 .387-.081 1.86 1.86 0 0 1 .387.014 1.85 1.85 0 0 1 .373.107c.122.053.235.118.339.194a1.6 1.6 0 0 1 .285.268 1.67 1.67 0 0 1 .21.328 1.53 1.53 0 0 1 .122.362c.027.125.038.257.034.382a1.38 1.38 0 0 1-.068.382c-.036.125-.086.243-.149.355l-.102.168zm-33.793-8.423l-1.289-.06-2.347-.067a224.15 224.15 0 0 1-2.34-.013c-.859-.009-1.626-.13-2.3-.375s-.737-.797-.19-1.641c.547-.853 1.015-1.083 1.404-.69s.884.811 1.486 1.253l1.757 1.213c.565.362 1.04.391 1.424.087s.475-.366.271-.187-.265.181-.183.02a2.54 2.54 0 0 1 .305-.449c.122-.139.258-.259.407-.362s.308-.188.475-.255a2.19 2.19 0 0 1 .529-.134 2.5 2.5 0 0 1 .549-.007 2.16 2.16 0 0 1 .522.12 2.49 2.49 0 0 1 .488.241 2.36 2.36 0 0 1 .407.355 2.03 2.03 0 0 1 .319.442 2.14 2.14 0 0 1 .197.496 1.99 1.99 0 0 1 .075.536 2.39 2.39 0 0 1-.061.536c-.041.179-.086.793-.136 1.856l-.346 3.571-.407 3.256-.109 1.91-.014.824a1.58 1.58 0 0 1-.115.375 1.72 1.72 0 0 1-.204.341c-.082.107-.174.197-.278.282s-.222.147-.339.201a1.53 1.53 0 0 1-.38.12 1.45 1.45 0 0 1-.393.027 1.44 1.44 0 0 1-.393-.067 1.45 1.45 0 0 1-.366-.154 1.91 1.91 0 0 1-.319-.241c-.095-.094-.179-.197-.251-.308a1.86 1.86 0 0 1-.163-.362 1.6 1.6 0 0 1-.075-.389c-.009-.129.194-.629.611-1.5s.837-1.494 1.262-1.869a7.35 7.35 0 0 1 1.296-.932 5.89 5.89 0 0 1 1.445-.562c.52-.129 1.171-.094 1.967.093a4.89 4.89 0 0 1 2.062 1.039c.579.496 1.004.965 1.275 1.407a4.88 4.88 0 0 1 .59 1.474c.122.531.113 1.098-.027 1.701s-.633 1.22-1.479 1.863-1.884.868-3.114.676l-2.157-.442a1.88 1.88 0 0 1-.556-.382 1.96 1.96 0 0 1-.407-.536 2.11 2.11 0 0 1-.21-.636 1.96 1.96 0 0 1 .007-.67 1.94 1.94 0 0 1 .217-.63 1.98 1.98 0 0 1 .414-.529c.167-.156.357-.281.57-.375a2.09 2.09 0 0 1 .651-.174c.226-.022.457-.007.678.047a2.18 2.18 0 0 1 .631.247 2.08 2.08 0 0 1 .509.443c.149.174.265.366.346.576s.129.429.142.656-.018.445-.081.664a1.97 1.97 0 0 1-.292.602 1.92 1.92 0 0 1-.468.483 2.08 2.08 0 0 1-.604.308 2.25 2.25 0 0 1-.665.107c-.226 0-.454-.042-.672-.114a2.15 2.15 0 0 1-.597-.321c-.181-.139-.335-.302-.461-.489a2.03 2.03 0 0 1-.278-.61 2.06 2.06 0 0 1-.068-.663 2.04 2.04 0 0 1 .149-.657c.086-.21.204-.399.353-.569a2.09 2.09 0 0 1 .522-.429 2.06 2.06 0 0 1 .631-.241c.226-.049.452-.06.678-.034l.339.041.577-.027c.384-.014.31-.043-.224-.087s-1.049.116-1.533.482-.73.61-.753.744a1.58 1.58 0 0 1-.115.375 1.72 1.72 0 0 1-.204.341c-.082.107-.174.197-.278.282s-.222.147-.339.201a1.53 1.53 0 0 1-.38.12 1.45 1.45 0 0 1-.393.027 1.44 1.44 0 0 1-.393-.067 1.45 1.45 0 0 1-.366-.154c-.117-.067-.224-.147-.319-.241s-.179-.197-.251-.308a1.86 1.86 0 0 1-.163-.362 1.6 1.6 0 0 1-.075-.389c-.009-.129.018-.397.081-.803.063-.411.09-1.061.081-1.95v-3.182c.005-1.228-.05-2.332-.163-3.31s-.142-1.764-.102-2.372.095-.985.176-1.146a2.54 2.54 0 0 1 .305-.449c.122-.139.258-.259.407-.362s.308-.188.475-.255a2.19 2.19 0 0 1 .529-.134 2.5 2.5 0 0 1 .549-.007 2.16 2.16 0 0 1 .522.12 2.49 2.49 0 0 1 .488.241 2.36 2.36 0 0 1 .407.355c.127.134.233.279.319.436a2.24 2.24 0 0 1 .197.502 2.36 2.36 0 0 1 .075.536 2.39 2.39 0 0 1-.061.536c-.041.179-.226.433-.556.777l-1.221 1.333c-.475.545-1.038.911-1.689 1.099s-1.244.21-1.777.054-1.115-.398-1.757-.737-1.18-.668-1.628-.985l-1.628-1.233c-.642-.509-1.165-.983-1.567-1.42a4.31 4.31 0 0 1-.902-1.541c-.199-.59.056-1.26.767-2.01s1.438-.918 2.184-.502 1.463.668 2.15.757 1.382.127 2.083.127l2.347-.067 1.486-.033a1.56 1.56 0 0 1 .4.094c.131.049.246.112.359.188s.215.165.305.268a1.54 1.54 0 0 1 .231.328c.063.121.111.246.143.375s.047.261.047.395-.016.266-.047.395-.079.255-.143.375a1.54 1.54 0 0 1-.231.328c-.09.103-.192.192-.305.268s-.233.139-.359.188-.265.08-.4.094l-.197.027z"/><path d="M91.103 111.282l-1.146.482c-.769.322-1.782.833-3.039 1.535s-2.77 1.666-4.552 2.894a50 50 0 0 0-4.993 3.932c-1.556 1.394-2.826 2.66-3.812 3.799s-1.7 2.061-2.144 2.767-.814 1.373-1.113 2.003l-.563 1.092a1.22 1.22 0 0 1-.278.248 1.06 1.06 0 0 1-.339.154 1.2 1.2 0 0 1-.373.034 1.07 1.07 0 0 1-.359-.088c-.118-.049-.224-.113-.319-.194s-.174-.181-.237-.288-.106-.221-.129-.342-.032-.243-.014-.368.047-.243.102-.355a1.33 1.33 0 0 1 .217-.302 1.43 1.43 0 0 1 .298-.214 1.13 1.13 0 0 1 .36-.114 1.14 1.14 0 0 1 .373.007 1.08 1.08 0 0 1 .346.127 1.05 1.05 0 0 1 .298.228 1.22 1.22 0 0 1 .204.308c.05.112.079.23.088.355s.004.248-.027.369a1.01 1.01 0 0 1-.142.335 1.22 1.22 0 0 1-.244.281c-.1.076-.208.136-.326.181s-.24.069-.366.074-.244-.012-.366-.047-.233-.09-.332-.161-.194-.156-.271-.255a1.32 1.32 0 0 1-.17-.328 1.13 1.13 0 0 1-.047-.368c0-.126.02-.246.061-.362l.068-.174.604-.932 1.364-2.09c.507-.768 1.271-1.762 2.293-2.981s2.338-2.571 3.935-4.053 3.297-2.872 5.101-4.181l4.674-3.175 3.114-1.722 1.302-.549c.1-.032.204-.05.312-.054a1.38 1.38 0 0 1 .305.02c.109.022.21.054.305.094s.186.1.271.167a1.46 1.46 0 0 1 .217.221c.068.085.122.177.163.275s.077.194.095.302a1.13 1.13 0 0 1 .014.301c-.009.107-.029.21-.061.308a1.11 1.11 0 0 1-.136.288 1.1 1.1 0 0 1-.197.241c-.077.076-.161.141-.251.195l-.136.08z"/><path d="M68.558 129.806l-1.838 1.729-3.039 3.048c-.796.88-1.436 1.351-1.92 1.413s-.004-.388 1.438-1.353l3.602-2.378c.954-.621 1.707-1.405 2.259-2.352l.95-1.581a1.26 1.26 0 0 1 .305-.294c.113-.085.24-.148.38-.188s.276-.058.421-.054a1.37 1.37 0 0 1 .421.081 1.36 1.36 0 0 1 .366.207 1.32 1.32 0 0 1 .285.309 1.22 1.22 0 0 1 .163.388 1.16 1.16 0 0 1 .034.416 1.14 1.14 0 0 1-.102.401c-.054.134-.131.253-.231.356s-.206.194-.332.261-.256.12-.4.147-.28.029-.421.007-.28-.058-.407-.121-.246-.145-.346-.248-.188-.212-.251-.341a1.22 1.22 0 0 1-.122-.402c-.018-.139-.014-.277.014-.416s.077-.268.149-.388.156-.235.264-.328a1.43 1.43 0 0 1 .36-.228c.131-.054.269-.087.414-.101a1.53 1.53 0 0 1 .427.034 1.41 1.41 0 0 1 .387.167 1.27 1.27 0 0 1 .319.282 1.17 1.17 0 0 1 .204.368c.05.13.077.266.081.409a1.2 1.2 0 0 1-.061.415l-.061.201-1.309 1.802c-.868 1.206-1.784 2.169-2.747 2.888l-3.127 2.211c-1.122.746-2.067 1.255-2.836 1.527s-1.368.279-1.811.02-.669-.694-.678-1.306.142-1.161.468-1.648.886-1.217 1.682-2.191l2.944-3.283 1.879-1.916a1.49 1.49 0 0 1 .285-.167c.104-.045.21-.078.319-.101a1.62 1.62 0 0 1 .326-.02c.109.009.217.029.326.06s.204.076.298.134.183.125.265.201a1.65 1.65 0 0 1 .203.262c.059.093.104.192.136.294a1.63 1.63 0 0 1 .061.322 1.54 1.54 0 0 1-.02.322c-.023.107-.056.212-.102.315s-.102.192-.17.281l-.102.127z"/><path d="M70.661 132.536l.163 1.628.115 1.896c-.036.174-.097.337-.183.489a1.64 1.64 0 0 1-.332.409 1.55 1.55 0 0 1-.455.281c-.163.072-.335.114-.515.127s-.351-.002-.522-.046a1.59 1.59 0 0 1-.488-.208c-.149-.094-.28-.21-.393-.348a1.76 1.76 0 0 1-.258-.456 1.59 1.59 0 0 1-.102-.516c-.005-.179.02-.353.075-.522s.133-.326.237-.469.231-.266.38-.369.303-.181.475-.234a1.43 1.43 0 0 1 .516-.067c.181.004.355.038.522.1a1.44 1.44 0 0 1 .461.255 1.66 1.66 0 0 1 .359.395 1.52 1.52 0 0 1 .204.482c.045.17.061.344.047.523a1.7 1.7 0 0 1-.136.509c-.068.161-.163.308-.285.442s-.255.239-.414.329a1.72 1.72 0 0 1-.502.174 1.52 1.52 0 0 1-.529.013c-.172-.022-.339-.074-.502-.154a1.69 1.69 0 0 1-.427-.308c-.127-.125-.231-.266-.312-.422a1.81 1.81 0 0 1-.156-.503l-.034-.268-.081-1.326-.095-1.514a1.75 1.75 0 0 1 .027-.375 1.76 1.76 0 0 1 .122-.356c.054-.116.122-.223.203-.321a1.74 1.74 0 0 1 .278-.268 1.41 1.41 0 0 1 .332-.188 1.71 1.71 0 0 1 .366-.107 1.52 1.52 0 0 1 .373-.02 1.78 1.78 0 0 1 .38.08c.122.036.237.09.346.161a1.65 1.65 0 0 1 .298.235 1.63 1.63 0 0 1 .231.301c.068.112.12.228.156.349l.054.187z"/><path d="M67.769 134.076l.02.355c.014.237-.029.462-.129.677a1.45 1.45 0 0 1-.434.542c-.185.148-.398.244-.638.288-.231.04-.461.025-.692-.047s-.425-.185-.597-.355a1.38 1.38 0 0 1-.36-.589 1.41 1.41 0 0 1-.047-.684c.045-.236.142-.446.292-.629a1.46 1.46 0 0 1 1.235-.556 1.5 1.5 0 0 1 .665.207 1.43 1.43 0 0 1 .495.489l.19.302zm-1.916-2.573l-1.146.201c-.769.134-1.809.455-3.121.964l-2.212.811a1.44 1.44 0 0 1-.482.013 1.35 1.35 0 0 1-.454-.134 1.62 1.62 0 0 1-.393-.274c-.117-.111-.206-.239-.278-.382a1.45 1.45 0 0 1-.142-.449 1.52 1.52 0 0 1 .007-.476 1.54 1.54 0 0 1 .163-.442 1.58 1.58 0 0 1 .298-.368c.122-.108.256-.195.4-.262a1.56 1.56 0 0 1 .468-.114c.158-.013.317-.002.475.034a1.53 1.53 0 0 1 .441.188 1.48 1.48 0 0 1 .36.314 1.62 1.62 0 0 1 .237.409 1.44 1.44 0 0 1 .088.462c.004.16-.011.317-.061.469a1.36 1.36 0 0 1-.21.422 1.34 1.34 0 0 1-.332.342 1.41 1.41 0 0 1-.427.208c-.153.045-.312.071-.475.067a1.53 1.53 0 0 1-.468-.087 1.49 1.49 0 0 1-.421-.228 1.38 1.38 0 0 1-.319-.349 1.41 1.41 0 0 1-.197-.435 1.65 1.65 0 0 1-.041-.469c.014-.161.052-.315.115-.462a1.37 1.37 0 0 1 .258-.396 1.4 1.4 0 0 1 .366-.301l.21-.121 2.225-.777 3.378-1.011 1.33-.235a1.31 1.31 0 0 1 .346.02 1.8 1.8 0 0 1 .332.101 1.56 1.56 0 0 1 .305.181 1.31 1.31 0 0 1 .251.248 1.4 1.4 0 0 1 .183.294 1.47 1.47 0 0 1 .109.335 1.22 1.22 0 0 1 .02.342 1.48 1.48 0 0 1-.061.342 1.57 1.57 0 0 1-.142.315c-.058.099-.136.196-.217.281a1.83 1.83 0 0 1-.278.214 1.6 1.6 0 0 1-.319.141l-.17.054zm54.106-10.163l1.499 1.152c.995.768 2.065 1.84 3.209 3.216s2.293 2.925 3.446 4.649c1.149 1.729 2.139 3.422 2.971 5.079l1.92 3.959a15.69 15.69 0 0 1 .991 2.901c.217.947.341 2.061.373 3.343l-.082 4.026-.332 3.846-.258 3.517-.102 1.929a1.02 1.02 0 0 1-.135.315 1.06 1.06 0 0 1-.231.255 1.09 1.09 0 0 1-.298.167 1.13 1.13 0 0 1-.346.067.97.97 0 0 1-.34-.047c-.113-.035-.217-.087-.312-.154s-.176-.147-.244-.241a1.09 1.09 0 0 1-.156-.308c-.032-.107-.047-.219-.047-.335s.027-.228.067-.335a1.09 1.09 0 0 1 .17-.301c.072-.089.158-.166.258-.228a1.04 1.04 0 0 1 .319-.134c.113-.027.228-.036.346-.027a1.05 1.05 0 0 1 .332.08.97.97 0 0 1 .292.188c.09.076.162.163.217.261a1.08 1.08 0 0 1 .122.322c.022.116.025.23.007.342a1.07 1.07 0 0 1-.102.328 1.08 1.08 0 0 1-.197.281 1.12 1.12 0 0 1-.285.195.96.96 0 0 1-.332.1c-.113.018-.229.016-.346-.007a1.02 1.02 0 0 1-.319-.12c-.104-.054-.194-.125-.271-.215a.93.93 0 0 1-.19-.288 1 1 0 0 1-.082-.328l-.013-.174.23-1.776.421-3.483.305-3.725.075-3.779c-.032-1.174-.129-2.173-.292-2.994-.163-.827-.463-1.72-.902-2.68l-1.872-3.805c-.805-1.586-1.771-3.21-2.897-4.871l-3.263-4.375c-1.054-1.255-2.087-2.255-3.1-3.001l-1.608-1.199c-.058-.058-.11-.125-.156-.201a.91.91 0 0 1-.108-.228 1.17 1.17 0 0 1-.054-.248c-.005-.08 0-.163.013-.248a.91.91 0 0 1 .075-.241.83.83 0 0 1 .129-.214.85.85 0 0 1 .176-.188c.068-.049.14-.094.217-.134s.163-.06.244-.074a1.18 1.18 0 0 1 .251-.02 1.23 1.23 0 0 1 .251.04c.082.027.161.061.238.101l.108.067zm-39.779 5.453l-1.723.348c-1.153.232-2.159.623-3.019 1.172s-1.556 1.106-2.103 1.655-1.027 1.208-1.452 1.976l-.753 1.32a1.21 1.21 0 0 1-.292.295 1.28 1.28 0 0 1-.366.181 1.17 1.17 0 0 1-.414.06 1.17 1.17 0 0 1-.407-.074c-.131-.044-.251-.109-.36-.194s-.201-.185-.278-.301-.133-.241-.17-.375-.043-.271-.034-.409a1.21 1.21 0 0 1 .095-.395 1.3 1.3 0 0 1 .217-.342 1.26 1.26 0 0 1 .319-.261 1.23 1.23 0 0 1 .387-.148c.14-.027.278-.031.414-.013s.274.056.4.114a1.35 1.35 0 0 1 .339.234c.099.099.181.21.244.335a1.15 1.15 0 0 1 .122.389c.018.134.016.27-.007.408s-.075.262-.142.382a1.15 1.15 0 0 1-.251.322 1.23 1.23 0 0 1-.346.221c-.127.054-.26.092-.4.1a1.28 1.28 0 0 1-.414-.026 1.31 1.31 0 0 1-.38-.154 1.41 1.41 0 0 1-.312-.275c-.09-.107-.158-.223-.203-.348s-.079-.264-.088-.402.014-.275.054-.409l.061-.194.95-1.421c.633-.951 1.28-1.753 1.94-2.405s1.535-1.351 2.612-2.083 2.189-1.26 3.338-1.595l1.893-.529a1.54 1.54 0 0 1 .346 0c.118.013.231.042.339.087a1.28 1.28 0 0 1 .312.161 1.15 1.15 0 0 1 .265.228 1.16 1.16 0 0 1 .204.288c.054.102.097.21.129.321s.041.233.041.349a1.42 1.42 0 0 1-.041.335 1.37 1.37 0 0 1-.122.328 1.38 1.38 0 0 1-.203.288 1.43 1.43 0 0 1-.258.234c-.095.067-.204.121-.312.161l-.169.061zm-12.417 14.07l-.36 2.264-.753 4.784-.57 4.133-.231 3.182-.088 1.756c-.027.129-.075.25-.142.361a1.06 1.06 0 0 1-.258.289 1.24 1.24 0 0 1-.332.201 1.13 1.13 0 0 1-.38.08c-.131.005-.26-.005-.387-.04a1.28 1.28 0 0 1-.353-.161 1.24 1.24 0 0 1-.285-.261 1.48 1.48 0 0 1-.183-.342c-.041-.125-.061-.252-.061-.382a1.12 1.12 0 0 1 .068-.382c.041-.12.099-.232.176-.335s.176-.192.285-.268a1.25 1.25 0 0 1 .353-.16c.127-.032.255-.045.387-.041s.258.036.38.081a1.3 1.3 0 0 1 .339.201 1.24 1.24 0 0 1 .251.294 1.13 1.13 0 0 1 .142.356 1.25 1.25 0 0 1 .02.388 1.22 1.22 0 0 1-.102.369c-.059.116-.133.221-.224.314s-.192.172-.305.235a1.07 1.07 0 0 1-.373.121 1.14 1.14 0 0 1-.387 0c-.131-.018-.255-.059-.373-.121s-.215-.141-.305-.235a1.14 1.14 0 0 1-.217-.314 1.12 1.12 0 0 1-.109-.376l-.02-.194.163-1.594.271-3.27.387-4.2.502-4.811.258-2.438c.027-.112.068-.217.122-.315.054-.103.12-.197.197-.281s.163-.161.258-.228.197-.114.305-.154.222-.067.339-.081a1.48 1.48 0 0 1 .339 0c.113.014.224.041.332.081a1.32 1.32 0 0 1 .305.161 1.55 1.55 0 0 1 .258.227 1.37 1.37 0 0 1 .197.282 1.39 1.39 0 0 1 .163.65v.174zm44.404-12.196l.224 2.131c.154 1.424.208 2.941.163 4.549l-.251 4.421-.488 3.424c-.204.933-.349 1.849-.435 2.746l-.183 1.528a1.17 1.17 0 0 1-.176.335c-.077.103-.167.19-.271.261a1.09 1.09 0 0 1-.346.168c-.127.035-.254.051-.38.047s-.258-.036-.38-.081a1.28 1.28 0 0 1-.333-.187c-.099-.085-.183-.181-.251-.288s-.115-.224-.142-.349-.041-.252-.027-.382.041-.248.095-.368a1.24 1.24 0 0 1 .21-.315 1.31 1.31 0 0 1 .305-.235 1.18 1.18 0 0 1 .36-.127c.131-.022.26-.022.387 0a1.33 1.33 0 0 1 .366.114 1.05 1.05 0 0 1 .298.228c.091.089.165.192.224.308a1.26 1.26 0 0 1 .109.369c.013.125.007.25-.021.375a1.02 1.02 0 0 1-.135.355 1.13 1.13 0 0 1-.244.295 1.18 1.18 0 0 1-.319.201c-.122.049-.247.075-.373.08-.132.009-.26-.002-.387-.034a1.1 1.1 0 0 1-.346-.154 1.18 1.18 0 0 1-.285-.261 1.04 1.04 0 0 1-.183-.328 1.07 1.07 0 0 1-.068-.375v-.195l.285-1.373.543-2.653c.176-.849.303-1.921.38-3.216l.095-4.187a27.97 27.97 0 0 0-.374-4.355l-.352-2.284c0-.103.013-.208.04-.315a1.16 1.16 0 0 1 .109-.302 1.27 1.27 0 0 1 .183-.268 1.31 1.31 0 0 1 .244-.221c.091-.062.186-.113.285-.154a1.33 1.33 0 0 1 .319-.08 1.31 1.31 0 0 1 .319 0 1.12 1.12 0 0 1 .319.074 1.3 1.3 0 0 1 .291.14 1.56 1.56 0 0 1 .251.215c.073.08.136.167.19.261a1.52 1.52 0 0 1 .116.301l.04.161zm5.323-3.242l.143 1.42.183 3.45.047 4-.162 3.584-.251 2.767-.075 1.99.041 1.661c.018.559-.208 1.363-.679 2.412-.466 1.054-.769 1.608-.909 1.662a1.47 1.47 0 0 1-.434.093c-.154.009-.303-.006-.448-.047a1.4 1.4 0 0 1-.407-.187c-.122-.085-.228-.185-.318-.302a1.43 1.43 0 0 1-.211-.395c-.049-.138-.072-.283-.068-.435s.023-.293.068-.436.12-.268.211-.388a1.4 1.4 0 0 1 .325-.302 1.28 1.28 0 0 1 .407-.181c.145-.04.292-.056.441-.047a1.25 1.25 0 0 1 .441.094c.14.054.265.13.373.228a1.61 1.61 0 0 1 .292.335c.077.129.131.266.163.409a1.34 1.34 0 0 1 .02.442c-.014.147-.054.29-.122.429a1.32 1.32 0 0 1-.251.361 1.51 1.51 0 0 1-.346.268 1.61 1.61 0 0 1-.427.141c-.145.022-.292.02-.441-.007-.15-.022-.292-.069-.428-.14a1.28 1.28 0 0 1-.352-.268 1.32 1.32 0 0 1-.251-.362c-.064-.139-.102-.282-.116-.429a1.27 1.27 0 0 1 .021-.435 1.51 1.51 0 0 1 .169-.416 1.38 1.38 0 0 1 .292-.335l.169-.14.075-.429c.054-.286.106-.722.156-1.307l.19-1.741.285-2.004.251-2.626c.063-.996.07-2.141.02-3.437l-.217-3.832c-.095-1.259-.237-2.358-.427-3.296l-.292-1.581c-.004-.107.005-.217.027-.328a1.35 1.35 0 0 1 .116-.322c.05-.103.113-.199.19-.288a1.24 1.24 0 0 1 .251-.234c.09-.067.189-.123.298-.168s.219-.069.332-.087.231-.022.34-.013c.117.013.23.038.339.073.108.041.21.092.305.154a1.37 1.37 0 0 1 .265.215 1.54 1.54 0 0 1 .21.275 1.73 1.73 0 0 1 .129.314l.047.168zm-33.219 1.774l.359 1.507c.235 1.014.4 2.271.495 3.772l.183 4.107.109 2.914.203 2.974.088 2.131c-.023.152-.07.295-.142.429s-.158.252-.271.355-.233.192-.373.254a1.39 1.39 0 0 1-.441.128 1.44 1.44 0 0 1-.455-.02c-.149-.036-.289-.092-.42-.168s-.253-.172-.353-.288a1.45 1.45 0 0 1-.237-.382c-.054-.143-.086-.29-.095-.442s0-.302.041-.449a1.42 1.42 0 0 1 .19-.409 1.35 1.35 0 0 1 .312-.328c.122-.094.255-.158.4-.208a1.51 1.51 0 0 1 .448-.08 1.45 1.45 0 0 1 .454.074 1.26 1.26 0 0 1 .4.207 1.46 1.46 0 0 1 .319.322 1.35 1.35 0 0 1 .19.409c.041.148.059.297.054.449a1.31 1.31 0 0 1-.095.435 1.39 1.39 0 0 1-.238.389 1.33 1.33 0 0 1-.339.294c-.131.081-.274.137-.427.168a1.31 1.31 0 0 1-.454.027c-.149-.014-.294-.052-.434-.114a1.56 1.56 0 0 1-.38-.255 1.33 1.33 0 0 1-.278-.355 1.43 1.43 0 0 1-.149-.422l-.041-.228.081-1.882.088-2.928-.109-2.854-.339-3.792c-.145-1.331-.387-2.485-.726-3.464l-.543-1.641a1.5 1.5 0 0 1-.014-.348 1.82 1.82 0 0 1 .075-.349 1.51 1.51 0 0 1 .156-.321 1.54 1.54 0 0 1 .231-.275 1.25 1.25 0 0 1 .292-.214 1.26 1.26 0 0 1 .332-.141 1.65 1.65 0 0 1 .353-.054c.118-.005.235.005.353.027s.237.065.346.114.21.118.305.194a1.49 1.49 0 0 1 .251.255c.072.098.131.203.176.315l.068.161zm5.585 2.455l.366 1.058c.244.715.407 1.699.488 2.955l.142 3.718.013 3.39.081 3.443.061 2.077a1.08 1.08 0 0 1-.122.369c-.059.111-.136.214-.231.308a1.18 1.18 0 0 1-.319.214c-.118.054-.242.094-.373.107s-.262.014-.393-.013-.246-.074-.36-.141a1.17 1.17 0 0 1-.298-.248c-.085-.099-.154-.205-.204-.321a1.2 1.2 0 0 1-.054-.757 1.32 1.32 0 0 1 .163-.355c.072-.108.16-.201.264-.282s.217-.14.339-.181a1.17 1.17 0 0 1 .387-.067 1.25 1.25 0 0 1 .387.061c.122.04.237.098.346.174a1.1 1.1 0 0 1 .265.274 1.15 1.15 0 0 1 .17.349 1.21 1.21 0 0 1 .047.382 1.08 1.08 0 0 1-.081.375 1.14 1.14 0 0 1-.197.335 1.28 1.28 0 0 1-.292.248 1.32 1.32 0 0 1-.359.147 1.19 1.19 0 0 1-.393.027 1.16 1.16 0 0 1-.373-.101c-.122-.053-.231-.125-.326-.214a1.28 1.28 0 0 1-.237-.301c-.063-.117-.106-.237-.129-.362l-.034-.194.047-1.876-.007-3.417-.17-3.303-.292-3.336c-.127-1.05-.308-1.93-.543-2.64l-.38-1.219c-.023-.103-.032-.208-.027-.315a1.3 1.3 0 0 1 .054-.315 1.38 1.38 0 0 1 .122-.295 1.22 1.22 0 0 1 .197-.254 1.35 1.35 0 0 1 .251-.208 1.78 1.78 0 0 1 .299-.134 1.3 1.3 0 0 1 .319-.067c.104-.009.208-.004.312.013a1.41 1.41 0 0 1 .319.094 1.14 1.14 0 0 1 .278.161c.086.067.165.136.237.221a1.4 1.4 0 0 1 .17.268l.068.148z"/><path d="M89.452 144.538l1.791-.054 3.609-.04 2.998-.02a17.49 17.49 0 0 1 2.11.053c.611.058 1.189.083 1.723.074s1.348.103 2.428.335l1.873.456c.172.071.325.167.461.288a1.7 1.7 0 0 1 .339.422 1.6 1.6 0 0 1 .183.496c.036.179.036.357.014.536a1.58 1.58 0 0 1-.163.515 1.67 1.67 0 0 1-.319.436c-.131.125-.278.228-.441.308a1.67 1.67 0 0 1-.522.154 1.6 1.6 0 0 1-.543-.013 1.72 1.72 0 0 1-.509-.188 1.68 1.68 0 0 1-.42-.335c-.122-.138-.219-.29-.292-.455a1.58 1.58 0 0 1-.129-.523 1.68 1.68 0 0 1 .048-.536c.04-.174.111-.335.21-.482s.222-.286.366-.402.303-.199.475-.262a1.57 1.57 0 0 1 .536-.093 1.69 1.69 0 0 1 .536.073 1.65 1.65 0 0 1 .488.242c.15.102.276.227.38.375a1.65 1.65 0 0 1 .245.475 1.79 1.79 0 0 1 .067.536c-.004.179-.038.353-.101.523s-.159.326-.272.469-.253.257-.407.355a1.65 1.65 0 0 1-.502.214c-.176.041-.357.054-.542.041l-.272-.027-1.648-.489-2.904-.771c-.836-.192-1.646-.281-2.428-.268l-2.903.148-3.528.361-1.974.228a1.5 1.5 0 0 1-.38-.06 1.39 1.39 0 0 1-.353-.154 1.58 1.58 0 0 1-.312-.228 1.93 1.93 0 0 1-.244-.295 1.59 1.59 0 0 1-.163-.341c-.041-.121-.066-.246-.075-.376-.014-.12-.009-.243.014-.368a1.67 1.67 0 0 1 .109-.369 1.61 1.61 0 0 1 .19-.328c.077-.103.167-.194.271-.274a1.47 1.47 0 0 1 .326-.201c.118-.059.24-.099.366-.121l.19-.04zm-6.876.139l-1.648-.054-3.989-.02-4.335.1c-1.334.05-2.77.199-4.308.449l-2.49.369a1.29 1.29 0 0 1-.366-.067 1.3 1.3 0 0 1-.326-.181 1.02 1.02 0 0 1-.244-.275 1.14 1.14 0 0 1-.149-.335c-.031-.121-.041-.243-.027-.368a1.21 1.21 0 0 1 .088-.355 1.14 1.14 0 0 1 .197-.308c.082-.093.183-.17.292-.228a1.2 1.2 0 0 1 .346-.121 1.29 1.29 0 0 1 .373-.013 1.23 1.23 0 0 1 .353.107c.113.054.212.123.298.208s.163.187.217.294a1.09 1.09 0 0 1 .115.356 1.21 1.21 0 0 1-.013.361 1.07 1.07 0 0 1-.129.349 1.09 1.09 0 0 1-.231.288 1.1 1.1 0 0 1-.312.194 1.09 1.09 0 0 1-.36.087.97.97 0 0 1-.366-.027 1.23 1.23 0 0 1-.346-.147 1.1 1.1 0 0 1-.278-.241 1.28 1.28 0 0 1-.183-.322 1.2 1.2 0 0 1-.068-.355 1.12 1.12 0 0 1 .047-.368 1.09 1.09 0 0 1 .169-.329 1.15 1.15 0 0 1 .258-.254 1.2 1.2 0 0 1 .332-.161l.183-.054 2.408-.268 4.43-.402 4.389-.241 4.023-.161 1.798-.04a1.47 1.47 0 0 1 .305.074 1.58 1.58 0 0 1 .271.147 1.23 1.23 0 0 1 .231.201 1.05 1.05 0 0 1 .176.248c.05.094.086.19.108.288s.041.204.041.302a1.12 1.12 0 0 1-.041.301c-.023.099-.059.195-.108.288a1.03 1.03 0 0 1-.176.248 1.23 1.23 0 0 1-.231.201c-.086.058-.176.107-.271.148a1.47 1.47 0 0 1-.305.073l-.149.014zm32.99 1.882l1.072.007 2.374.114 2.401.281a15.65 15.65 0 0 1 2.422.583c.868.277 1.671.485 2.408.623l2.286.335 1.411.181a1.37 1.37 0 0 1 .428.194c.131.085.246.19.346.315a1.31 1.31 0 0 1 .217.409 1.33 1.33 0 0 1 .081.462 1.43 1.43 0 0 1-.074.455c-.05.148-.123.284-.218.409s-.214.232-.346.322a1.38 1.38 0 0 1-.42.194c-.154.045-.31.063-.468.054a1.5 1.5 0 0 1-.461-.101c-.15-.053-.285-.132-.407-.234a1.53 1.53 0 0 1-.306-.355c-.086-.134-.138-.277-.169-.429a1.28 1.28 0 0 1-.027-.462 1.28 1.28 0 0 1 .122-.449 1.51 1.51 0 0 1 .264-.389 1.54 1.54 0 0 1 .814-.429c.159-.026.317-.026.475 0a1.33 1.33 0 0 1 .441.148c.14.071.267.165.38.281a1.41 1.41 0 0 1 .264.382 1.3 1.3 0 0 1 .123.442 1.48 1.48 0 0 1-.021.469 1.49 1.49 0 0 1-.176.429 1.52 1.52 0 0 1-.299.355c-.122.103-.257.183-.407.241-.144.058-.296.092-.454.101l-.238.013-1.295-.208-2.531-.442-2.387-.529-2.11-.476c-.633-.111-1.352-.178-2.157-.201l-2.286-.033c-.715.004-1.133 0-1.255-.014a2.05 2.05 0 0 1-.36-.087c-.117-.044-.228-.102-.332-.174a1.58 1.58 0 0 1-.278-.241c-.086-.094-.156-.197-.211-.308a1.74 1.74 0 0 1-.135-.342 1.44 1.44 0 0 1-.041-.362 1.66 1.66 0 0 1 .041-.362c.031-.12.077-.234.135-.341s.125-.215.211-.308a1.64 1.64 0 0 1 .278-.242 1.57 1.57 0 0 1 .332-.174c.117-.045.238-.073.36-.087l.183-.02z"/><path d="M107.069 145.305l1.499-.033h1.757a1.81 1.81 0 0 1 .502.167c.158.085.298.19.42.315a1.71 1.71 0 0 1 .299.435c.072.157.12.324.142.503.018.17.007.339-.034.509a1.64 1.64 0 0 1-.19.482 1.73 1.73 0 0 1-.346.402 1.72 1.72 0 0 1-.447.268c-.168.063-.339.101-.516.114a1.62 1.62 0 0 1-.529-.06 1.44 1.44 0 0 1-.475-.221c-.149-.098-.278-.217-.386-.355a1.48 1.48 0 0 1-.245-.463 1.52 1.52 0 0 1-.088-.509c0-.174.03-.344.088-.509a1.59 1.59 0 0 1 .245-.462c.109-.138.237-.257.386-.355a1.42 1.42 0 0 1 .475-.221c.172-.049.348-.067.529-.054a1.84 1.84 0 0 1 .516.107c.163.067.312.157.447.268a1.73 1.73 0 0 1 .346.402 1.48 1.48 0 0 1 .19.483c.041.169.052.341.034.516s-.07.339-.142.495-.177.306-.299.436-.262.23-.42.315a1.81 1.81 0 0 1-.502.167l-.258.04-1.499-.04-1.683-.06c-.126-.014-.248-.043-.366-.087a1.78 1.78 0 0 1-.339-.174 1.5 1.5 0 0 1-.278-.248c-.086-.094-.158-.195-.217-.302a1.39 1.39 0 0 1-.129-.348c-.032-.125-.048-.248-.048-.369s.016-.248.048-.368a1.4 1.4 0 0 1 .129-.349c.059-.111.131-.212.217-.301a1.88 1.88 0 0 1 .278-.248 1.78 1.78 0 0 1 .339-.174c.118-.045.24-.074.366-.087l.184-.027zm-15.995 6.753l2.293.047 5.183-.134 4.796-.449 3.365-.483 1.614-.201a1.03 1.03 0 0 1 .306.047.9.9 0 0 1 .278.154.89.89 0 0 1 .346.509c.031.103.043.206.034.309s-.028.21-.068.308-.095.181-.163.261-.154.147-.244.201-.188.092-.292.114a.95.95 0 0 1-.319.013c-.104-.009-.206-.035-.305-.08a.88.88 0 0 1-.258-.181 1.01 1.01 0 0 1-.19-.248c-.05-.094-.083-.192-.102-.295-.013-.107-.011-.212.007-.314s.052-.201.102-.295.113-.177.19-.248a1.05 1.05 0 0 1 .264-.174c.1-.041.202-.067.306-.081a1.1 1.1 0 0 1 .319.02c.104.023.201.063.291.121a.94.94 0 0 1 .238.201 1.02 1.02 0 0 1 .163.268 1.03 1.03 0 0 1 .061.308 1.04 1.04 0 0 1-.034.308c-.032.103-.077.197-.136.282s-.131.16-.217.227a.86.86 0 0 1-.278.141l-.156.047-1.445.248-3.439.569-4.959.577-5.257.294-2.435.034a1.35 1.35 0 0 1-.292-.074 1.65 1.65 0 0 1-.265-.134c-.086-.054-.154-.123-.217-.194s-.124-.156-.169-.241a1.53 1.53 0 0 1-.109-.275 1.23 1.23 0 0 1 0-.576 1.5 1.5 0 0 1 .109-.275c.046-.089.102-.165.169-.241s.136-.136.217-.194a1.55 1.55 0 0 1 .265-.134 1.29 1.29 0 0 1 .292-.074l.142-.013z"/><path d="M91.686 152.559l.95 1.179c.629.791 1.23 1.449 1.804 1.976s1.131.889 1.669 1.086 1.196.357 1.974.469l2.395.261c.818.058 1.506-.02 2.062-.235s1.126-.632 1.71-1.252 1.108-1.24 1.573-1.856l.848-1.112c.109-.125.231-.228.367-.308a1.47 1.47 0 0 1 .447-.181c.159-.036.319-.045.482-.027s.319.058.468.12.278.157.4.268.215.237.292.376a1.38 1.38 0 0 1 .156.442c.027.161.027.319 0 .475a1.36 1.36 0 0 1-.149.456 1.51 1.51 0 0 1-.292.382c-.118.112-.249.201-.393.268a1.55 1.55 0 0 1-.462.127 1.58 1.58 0 0 1-.481-.02c-.163-.036-.315-.094-.455-.174s-.258-.183-.366-.308a1.55 1.55 0 0 1-.251-.402c-.059-.152-.095-.308-.109-.469s.009-.317.055-.469a1.41 1.41 0 0 1 .196-.429 1.45 1.45 0 0 1 .333-.348 1.33 1.33 0 0 1 .42-.221c.154-.054.312-.081.475-.081s.324.02.482.074a1.34 1.34 0 0 1 .42.221c.132.094.245.208.34.342.09.134.158.274.203.422a1.42 1.42 0 0 1 .054.475 1.49 1.49 0 0 1-.101.463l-.089.227-.834 1.052-1.574 1.869c-.497.545-1.047.965-1.648 1.26-.606.299-1.332.558-2.178.777-.845.214-1.718.299-2.618.255l-2.883-.255c-1.017-.129-1.904-.38-2.659-.75s-1.468-.851-2.137-1.441l-2.055-1.969-1.167-1.233a1.38 1.38 0 0 1-.163-.315 1.39 1.39 0 0 1-.081-.342 1.43 1.43 0 0 1 0-.341c.013-.116.043-.23.088-.342s.095-.21.163-.308a1.32 1.32 0 0 1 .237-.261c.09-.076.19-.143.298-.201s.215-.094.332-.121.228-.04.346-.04.235.015.353.047a1.39 1.39 0 0 1 .332.127c.104.054.201.121.292.201l.129.114z"/></g><path d="M70.079 58.445l.122-1.722.387-3.718c.172-1.331.572-2.771 1.201-4.321s1.28-2.798 1.954-3.745l2.483-3.169c.977-1.166 1.911-2.148 2.802-2.948s2.015-1.59 3.385-2.372l3.751-1.929a33.58 33.58 0 0 1 3.378-1.3c1.121-.357 2.367-.63 3.738-.817s2.68-.297 3.941-.328l3.453-.074c1.044-.018 2.363.06 3.955.235a22.76 22.76 0 0 1 4.456.938l3.48 1.313c.937.424 2.133 1.161 3.589 2.211l3.27 2.539 2.394 2.285 2.558 2.706c.827.925 1.61 1.988 2.347 3.189s1.348 2.494 1.831 3.879l1.364 4.187c.421 1.402.667 2.588.739 3.557s.032 2.088-.122 3.343-.631 2.36-1.431 3.33-1.886 1.659-3.27 2.084-3.077.728-5.094.911l-4.973.275a199.34 199.34 0 0 1-3.731-.033l-3.649-.08-4.07-.268-4.484-.456-4.538-.502-3.914-.388-3.195-.362-3.88-.737c-1.565-.335-3.172-.837-4.823-1.507s-3.161-1.597-4.531-2.78-2.214-2.354-2.544-3.524-.303-2.43.095-3.765a8.7 8.7 0 0 1 2.028-3.537l2.883-2.767 2.985-2.385c1.036-.768 2.177-1.458 3.426-2.07s2.544-1.083 3.887-1.414 2.754-.547 4.219-.65 3.087-.045 4.864.161l4.796.77 4.721 1.192c1.727.496 3.157 1.059 4.287 1.688s2.275 1.429 3.446 2.398 2.298 2.104 3.392 3.403a19.85 19.85 0 0 1 2.761 4.315c.746 1.581 1.056 3.312.929 5.192s-.692 3.263-1.682 4.134-2.682 1.313-5.061 1.313-4.823-.288-7.333-.851l-7.326-1.708-6.485-1.588-4.538-.945c-1.081-.143-1.843-.31-2.286-.502l-.984-.402a2.77 2.77 0 0 1-.604-.288 2.75 2.75 0 0 1-.516-.422c-.154-.161-.287-.337-.4-.529a2.53 2.53 0 0 1-.258-.603c-.059-.214-.093-.433-.102-.657s.011-.442.061-.657a2.6 2.6 0 0 1 .217-.63c.095-.201.215-.386.36-.556s.307-.322.488-.456.375-.239.583-.328a2.7 2.7 0 0 1 .644-.174 2.81 2.81 0 0 1 .672-.027c.222.022 1.651-.695 4.287-2.151s5.058-2.396 7.279-2.807 4.114-.59 5.692-.536 3.057.849 4.45 2.398 1.827 2.745 1.302 3.598c-.52.849-2.046 1.422-4.579 1.722s-5.655.382-9.381.235l-9.341-.342-4.762-.208-1.309-.114a2.34 2.34 0 0 1-.577-.154c-.19-.072-.366-.165-.529-.281s-.317-.243-.448-.395a2.44 2.44 0 0 1-.332-.496 2.34 2.34 0 0 1-.204-.556 2.15 2.15 0 0 1-.068-.59c.004-.197.032-.391.081-.583s.122-.377.217-.556.21-.335.346-.482a2.3 2.3 0 0 1 .455-.382c.167-.112.346-.203.536-.275s.384-.112.583-.134l3.005-.415 7.964-.744c3.505-.237 6.386-.277 8.642-.121l3.208.328c-.113.067-.083.109.089.127a2.04 2.04 0 0 1 .495.114c.163.058.316.136.461.234a2.13 2.13 0 0 1 .394.328c.113.13.21.268.291.415s.15.31.19.476c.045.165.068.333.068.502a1.92 1.92 0 0 1-.054.509c-.041.165-.1.324-.177.476s-.171.292-.284.422-.242.244-.387.342a2.16 2.16 0 0 1-.448.241 2.18 2.18 0 0 1-.502.127c-.172.022-1.058.192-2.659.509s-4.029.574-7.286.77l-7.265.623-2.646.322c-.167-.009-.332-.038-.495-.087s-.317-.116-.461-.201-.276-.188-.394-.308a1.85 1.85 0 0 1-.312-.389 1.93 1.93 0 0 1-.21-.449 1.84 1.84 0 0 1-.095-.489 2.28 2.28 0 0 1 .027-.496c.032-.165.081-.324.149-.476s.154-.295.258-.429.222-.246.353-.348.274-.19.427-.261.314-.116.482-.147 2.196.018 6.085.147l11.865.368 8.968.382 3.174.248a1.96 1.96 0 0 1 .448.121 1.51 1.51 0 0 1 .4.221c.127.089.24.192.339.308a1.68 1.68 0 0 1 .258.382 2.1 2.1 0 0 1 .156.429 1.95 1.95 0 0 1 .041.456c0 .152-.02.302-.061.449s-.1.295-.177.429-.167.257-.271.368a1.84 1.84 0 0 1-.353.295 1.87 1.87 0 0 1-.413.201c-.145.053-.297.087-.455.1s-1.748.391-4.782 1.132c-3.039.741-6.275 1.012-9.708.811s-5.771-.487-7.001-.858-1.942-.572-2.123-.603a2.34 2.34 0 0 1-.522-.154 2.13 2.13 0 0 1-.468-.275 2.04 2.04 0 0 1-.387-.375 2.41 2.41 0 0 1-.285-.456 2.3 2.3 0 0 1-.17-.516 2.38 2.38 0 0 1-.034-.536c.009-.179.041-.355.095-.529s.127-.339.217-.496a2.49 2.49 0 0 1 .332-.422c.131-.13.274-.241.427-.335a2.61 2.61 0 0 1 .495-.228c.176-.054.355-.087.536-.1s1.047-.261 2.598-.744 3.984-.907 7.313-1.273 5.763-.476 7.319-.342l2.585.208c.167 0 .332.022.495.067s.319.098.468.174a2.02 2.02 0 0 1 .407.288 2.01 2.01 0 0 1 .332.375c.095.139.17.286.224.442a1.91 1.91 0 0 1 .116.476 2.28 2.28 0 0 1 0 .496c-.023.165-.066.326-.129.482s-.138.297-.238.435-.206.257-.332.368-.267.199-.421.275-.305.132-.468.167-1.714.447-4.653 1.219-5.68.621-8.236-.442-3.747-2.456-3.575-4.18 1.578-2.981 4.233-3.785 5.249-1.186 7.795-1.146 4.002.239 4.368.583.645.525.835.543.368.065.549.127a2.56 2.56 0 0 1 .509.255 2.39 2.39 0 0 1 .427.368 2.3 2.3 0 0 1 .326.456 2.37 2.37 0 0 1 .21.523c.045.183.07.368.075.556s-.02.373-.061.556-.111.36-.197.529a2.46 2.46 0 0 1-.312.462c-.127.143-.267.268-.421.375a2.24 2.24 0 0 1-.502.268 2.53 2.53 0 0 1-.549.141l-3.025.59s-4.31.529-7.449.489-5.35-.288-6.634-.73-2.013-.674-2.184-.697-.339-.067-.502-.134a2.05 2.05 0 0 1-.461-.241 2.21 2.21 0 0 1-.387-.348c-.113-.134-.21-.277-.292-.429a2.38 2.38 0 0 1-.176-.482c-.041-.17-.061-.342-.061-.516a2.13 2.13 0 0 1 .075-.509 2.24 2.24 0 0 1 .19-.482 1.97 1.97 0 0 1 .305-.422c.118-.125.249-.237.394-.335a2.48 2.48 0 0 1 .461-.234c.167-.058.337-.096.509-.114s1.3-.686 3.371-2.003 3.403-2.095 3.982-2.331.966-.375 1.174-.415c.203-.045.411-.062.624-.054s.414.04.617.094.396.139.577.241a2.68 2.68 0 0 1 .502.369 2.55 2.55 0 0 1 .4.476c.113.179.203.366.271.563s.111.398.129.603a2.77 2.77 0 0 1-.027.616c-.032.206-.088.404-.17.596a2.42 2.42 0 0 1-.312.536c-.126.165-.269.315-.427.449s-.339.239-.529.328-.957.105-2.3.033l-4.348-.188c-1.551-.063-1.755.027-.611.268s2.372.623 3.683 1.159 2.698.938 4.158 1.206c1.466.268 2.953.449 4.464.543s2.865.266 4.077.529 2.159 1.081 2.856 2.452c.692 1.371.8 2.637.325 3.799-.474 1.17-1.173 2.117-2.096 2.841s-1.524 1.219-1.791 1.474a3.25 3.25 0 0 1-.793.576 3.59 3.59 0 0 1-.821.288 3.58 3.58 0 0 1-.868.08 3.58 3.58 0 0 1-.869-.121 3.61 3.61 0 0 1-.807-.328 3.42 3.42 0 0 1-.706-.502 3.76 3.76 0 0 1-.569-.663c-.159-.241-.287-.498-.387-.77a3.83 3.83 0 0 1-.19-.844c-.027-.286-.02-.574.02-.864a3.85 3.85 0 0 1 .231-.831 3.29 3.29 0 0 1 .427-.75c.172-.232.369-.442.591-.63s.918-.532 2.075-1.032 2.427-.833 3.806-.998 2.196-.167 2.449-.02a1.64 1.64 0 0 0 .841.221c.303 0 .604.036.902.107s.577.179.848.322a3.52 3.52 0 0 1 .746.509 3.69 3.69 0 0 1 .604.67 3.67 3.67 0 0 1 .428.797c.108.277.18.565.217.864s.036.599 0 .898a3.68 3.68 0 0 1-.217.871c-.109.281-.251.547-.428.797-.172.25-.371.473-.597.67a3.67 3.67 0 0 1-1.601.831c-.298.072-.4-.46-.305-1.594s.862-1.548 2.3-1.253l3.731.878s2.071.489 3.039.596 2.279.228 3.921.362l4.355.281 3.405.047s2.164-.125 3.467-.281 2.376-.156 3.222 0 1.42.306 1.723.449a4.04 4.04 0 0 1 .848.529c.262.214.495.453.698.717a4.42 4.42 0 0 1 .502.864c.132.308.222.625.272.951a4.12 4.12 0 0 1 .041.998 4.02 4.02 0 0 1-.204.971 4.19 4.19 0 0 1-.434.891c-.181.281-.394.538-.638.77a4.18 4.18 0 0 1-.807.59c-.289.17-.597.299-.923.389s-.655.147-.99.161-.674-.02-1.004-.087.029-.147 1.079-.241 1.033-.047-.061.154-2.465.243-4.111.127l-5.373-.295-5.427-.067s-3.717.051-6.119.033-4.649-.098-6.743-.228-3.801-.199-5.121-.208-2.506.004-3.555.04l-4.592.188-4.851.161-3.907.013-4.118-.007a48.17 48.17 0 0 1-4.287-.214l-4.029-.322-4.111-.208-4.355-.228a71.6 71.6 0 0 1-3.996-.375l-4.355-.442s-3.265-.237-5.02-.295-3.371-.087-4.85-.087-2.892.004-4.24.027l-3.066.08c-.692.022-1.21.013-1.553-.027s-.678-.123-1.004-.248a4.14 4.14 0 0 1-.916-.476 4.1 4.1 0 0 1-.773-.677 4.35 4.35 0 0 1-.583-.838c-.163-.304-.285-.623-.366-.958s-.122-.668-.122-1.012.043-.681.129-1.012.204-.648.366-.951a4.37 4.37 0 0 1 .59-.844 4.23 4.23 0 0 1 .773-.67c.285-.197.59-.355.916-.476a4.22 4.22 0 0 1 1.004-.241c.344-.04 1.015.13 2.015.509s2.404.795 4.199 1.246 3.652.813 5.556 1.085 3.772.487 5.603.657 3.455.266 4.884.288 2.725.02 3.887-.007l3.324-.087 3.548-.06h3.962l3.622-.04 3.969-.167 4.138-.114a72.49 72.49 0 0 1 3.982.121l4.511.281a91.58 91.58 0 0 0 4.389.228l3.894.06 4.043.047 4.301.06 4.091.013 3.934-.013a65.56 65.56 0 0 0 3.874-.141c1.284-.089 2.448-.103 3.493-.04l3.222.201 3.128.08s2.254-.065 3.819-.141 2.571-.078 3.005-.007a3.9 3.9 0 0 1 1.235.409 4.16 4.16 0 0 1 1.031.777c.303.317.547.672.732 1.065a4.03 4.03 0 0 1 .346 1.239 3.91 3.91 0 0 1-.074 1.28c-.091.424-.251.822-.482 1.192a3.96 3.96 0 0 1-.841.978 4.01 4.01 0 0 1-1.113.663 3.98 3.98 0 0 1-1.268.275 4.1 4.1 0 0 1-1.296-.141 4.03 4.03 0 0 1-1.18-.536c-.362-.246-.676-.54-.943-.884s-.47-.728-.611-1.139a3.9 3.9 0 0 1 0-2.532c.141-.411.344-.788.611-1.132s.581-.643.943-.884.762-.427 1.187-.543.85-.161 1.289-.134a3.98 3.98 0 0 1 2.388.938c.334.281.615.608.841.978s.386.773.481 1.192.114.853.068 1.286-.167.842-.352 1.239-.423.746-.726 1.058-.649.576-1.038.777a3.9 3.9 0 0 1-1.235.409l-.651.107a3554.17 3554.17 0 0 0-2.496-.147l-4.077-.308-4.545-.462-4.891-.429a65.56 65.56 0 0 0-3.874-.141l-3.941-.02a421.18 421.18 0 0 0-4.097.007l-4.328.04h-4.098l-3.995-.054-4.43-.027-4.382-.027-3.873-.007c-1.199 0-2.578-.04-4.138-.121l-3.969-.168-3.629-.04a1156.71 1156.71 0 0 1-3.968-.007l-3.568-.074-3.351-.127-3.948-.087c-1.452-.022-3.127.004-5.027.08l-6.166.194c-2.207.049-4.5-.208-6.879-.77l-4.077-.904c-.344-.04-.678-.123-1.004-.248a4.31 4.31 0 0 1-.916-.469c-.285-.197-.543-.424-.773-.683a4.35 4.35 0 0 1-.583-.838c-.163-.304-.285-.623-.366-.958s-.122-.668-.122-1.012.043-.677.129-1.012.204-.648.366-.951.359-.583.59-.837a3.84 3.84 0 0 1 .773-.677c.285-.197.59-.355.916-.476a4.22 4.22 0 0 1 1.004-.241c.344-.04.862-.047 1.553-.02s1.734.063 3.114.094l4.477.147 5.047.228a80.13 80.13 0 0 1 5.318.462l4.532.724s2.585.518 4.023.764l4.185.697 3.846.509 3.758.355a45.07 45.07 0 0 0 4.002.174l4.118-.007 3.921.02 3.439.107 3.073.181 3.107.241 3.541.308c1.275.116 2.903.152 4.884.107s4.14-.163 6.465-.368l6.078-.616 5.651-.697c2.03-.259 3.787-.353 5.271-.281s2.781.045 3.88-.08 1.8-.116 2.103.027a4.04 4.04 0 0 1 .848.529c.262.214.495.453.698.717a4.42 4.42 0 0 1 .502.864c.132.308.222.625.272.951a4.07 4.07 0 0 1 .041.992 4.03 4.03 0 0 1-.204.978 4.19 4.19 0 0 1-.434.891c-.181.281-.394.538-.638.77a4.18 4.18 0 0 1-.807.59c-.289.17-.597.299-.923.389s-.655.147-.99.161-.674-.02-1.004-.087-.461-.138-.393-.214-.518-.094-1.757-.067l-3.555.094-3.717.087c-1.344.022-2.965-.056-4.864-.234s-3.464-.397-4.708-.656-2.517-.549-3.819-.871a43.61 43.61 0 0 1-3.881-1.139c-1.284-.442-2.299-.987-3.045-1.635s-1.158-1.963-1.235-3.946.47-3.479 1.642-4.475c1.166-1.005 1.904-1.507 2.211-1.507s.604.036.902.107.577.179.848.322a3.52 3.52 0 0 1 .746.509 3.69 3.69 0 0 1 .604.67 3.67 3.67 0 0 1 .428.797c.108.277.18.565.217.864s.036.599 0 .898a3.68 3.68 0 0 1-.217.871c-.109.281-.251.547-.428.797a3.85 3.85 0 0 1-.597.67 3.67 3.67 0 0 1-.753.509 3.52 3.52 0 0 1-.848.322c-.298.072-.707-.022-1.228-.281s-1.406-.237-2.645.067-1.99.514-2.252.643-.536.221-.821.288-.574.089-.868.08a3.58 3.58 0 0 1-.869-.121 3.61 3.61 0 0 1-.807-.328 3.42 3.42 0 0 1-.706-.502c-.217-.197-.407-.418-.569-.663s-.287-.498-.387-.77a3.83 3.83 0 0 1-.19-.844c-.027-.286-.02-.574.02-.864a3.85 3.85 0 0 1 .231-.831c.109-.268.249-.516.421-.744.176-.237.375-.449.597-.636s.848-.194 1.865-.02.665.243-1.072.208-3.55-.168-5.454-.395-3.83-.668-5.779-1.306-3.641-1.501-5.074-2.586-2.426-2.343-2.978-3.758-.588-2.774-.108-4.073 1.666-2.193 3.548-2.68 3.385-.659 4.498-.516 2.205.453 3.29.918 1.725.677 1.934.636c.203-.045.411-.062.624-.054s.414.04.617.094.396.139.577.241a2.68 2.68 0 0 1 .502.369 2.55 2.55 0 0 1 .4.476c.113.179.203.366.271.563s.111.398.129.603a2.77 2.77 0 0 1-.027.616c-.032.206-.088.404-.17.596a2.42 2.42 0 0 1-.312.536c-.126.165-.269.315-.427.449s-.339.239-.529.328-.602.181-1.235.261-1.542.275-2.74.569-2.499.927-3.901 1.909-2.189 1.463-2.361 1.44-.339-.067-.502-.134-.317-.143-.461-.241a2.21 2.21 0 0 1-.387-.348c-.113-.134-.21-.277-.292-.429a2.38 2.38 0 0 1-.176-.482c-.041-.17-.061-.342-.061-.516a2.13 2.13 0 0 1 .075-.509 2.24 2.24 0 0 1 .19-.482 1.97 1.97 0 0 1 .305-.422c.118-.125.249-.237.394-.335a2.48 2.48 0 0 1 .461-.234c.167-.058.337-.096.509-.114s.92.277 2.232.884 3.358.936 6.126.971 5.21-.268 7.34-.925l3.487-.951s.368.065.549.127a2.56 2.56 0 0 1 .509.255 2.75 2.75 0 0 1 .427.368 2.3 2.3 0 0 1 .326.456 2.37 2.37 0 0 1 .21.523c.045.183.07.368.075.556s-.02.373-.061.556-.111.36-.197.529a2.46 2.46 0 0 1-.312.462c-.127.143-.267.268-.421.375a2.24 2.24 0 0 1-.502.268 2.53 2.53 0 0 1-.549.141c-.185.027-.611-.288-1.275-.945s-1.94-.929-3.84-.831-3.916.516-6.051 1.253-2.505 1.146-1.126 1.226 3.032.038 4.972-.127 3.39-.545 4.349-1.139 1.528-.891 1.696-.891.332.022.495.067.319.098.468.174a2.02 2.02 0 0 1 .407.288 2.01 2.01 0 0 1 .332.375c.095.139.17.286.224.442a1.91 1.91 0 0 1 .116.476 2.28 2.28 0 0 1 0 .496c-.023.165-.066.326-.129.482s-.138.297-.238.435-.206.257-.332.368-.267.199-.421.275-.305.132-.468.167-1.033-.065-2.611-.315-3.878-.208-6.913.127-5.578.88-7.632 1.635-3.17 1.11-3.351 1.079a2.34 2.34 0 0 1-.522-.154 2.13 2.13 0 0 1-.468-.275 2.04 2.04 0 0 1-.387-.375 2.41 2.41 0 0 1-.285-.456 2.3 2.3 0 0 1-.17-.516 2.38 2.38 0 0 1-.034-.536c.009-.179.041-.355.095-.529s.127-.339.217-.496a2.49 2.49 0 0 1 .332-.422c.131-.13.274-.241.427-.335a2.61 2.61 0 0 1 .495-.228c.176-.054.355-.087.536-.1s.893.252 2.137.797 3.464.882 6.662 1.025 6.408-.101 9.619-.73 4.894-.934 5.047-.911a1.96 1.96 0 0 1 .448.121 1.51 1.51 0 0 1 .4.221c.127.089.24.192.339.308a1.68 1.68 0 0 1 .258.382 2.1 2.1 0 0 1 .156.429 1.95 1.95 0 0 1 .041.456c0 .152-.02.302-.061.449s-.1.295-.177.429-.167.257-.271.368a1.84 1.84 0 0 1-.353.295 1.87 1.87 0 0 1-.413.201c-.145.053-.297.087-.455.1s-1.212-.031-3.175-.134-4.934-.185-8.927-.248l-11.688-.261-5.942-.181c-.167-.009-.332-.038-.495-.087s-.317-.116-.461-.201-.276-.188-.394-.308a1.85 1.85 0 0 1-.312-.389 1.93 1.93 0 0 1-.21-.449 1.84 1.84 0 0 1-.095-.489 2.28 2.28 0 0 1 .027-.496c.032-.165.081-.324.149-.476s.154-.295.258-.429.222-.246.353-.348.274-.19.427-.261.314-.116.482-.147 1.052-.107 2.652-.228l6.98-.496c3.048-.21 5.508-.536 7.38-.978s2.895-.648 3.067-.63a2.04 2.04 0 0 1 .495.114c.163.058.316.136.461.234s.274.203.387.328a2.2 2.2 0 0 1 .298.415c.086.152.15.31.19.476.045.165.068.333.068.502a1.92 1.92 0 0 1-.054.509c-.041.165-.1.324-.177.476s-.171.292-.284.422-.242.244-.387.342a2.16 2.16 0 0 1-.448.241 2.18 2.18 0 0 1-.502.127c-.172.022-.486-.221-.943-.73s-1.49-.668-3.086-.462-4.057.438-7.381.71-6.04.681-8.147 1.226-3.261.8-3.46.777a2.34 2.34 0 0 1-.577-.154c-.19-.072-.366-.165-.529-.281s-.317-.243-.448-.395a2.44 2.44 0 0 1-.332-.496 2.34 2.34 0 0 1-.204-.556 2.15 2.15 0 0 1-.068-.59c.004-.197.032-.391.081-.583a2.4 2.4 0 0 1 .217-.549c.095-.179.21-.342.346-.489a2.3 2.3 0 0 1 .455-.382c.167-.112.346-.203.536-.275s.384-.112.583-.134.638.083 1.316.315 2.27.331 4.776.308l9.138-.047c3.586 0 6.143.326 7.672.978s1.784.898.753.724-2.494-.034-4.389.422-3.855 1.121-5.895 1.996-3.867 1.731-5.481 2.566c-1.61.844-2.521 1.228-2.734 1.152a2.77 2.77 0 0 1-.604-.288 2.44 2.44 0 0 1-.516-.422c-.154-.161-.287-.337-.4-.529a2.53 2.53 0 0 1-.258-.603c-.059-.214-.093-.433-.102-.657s.011-.442.061-.657a2.6 2.6 0 0 1 .217-.63c.095-.201.215-.386.36-.556s.307-.322.488-.456.375-.239.583-.328a2.7 2.7 0 0 1 .644-.174 2.81 2.81 0 0 1 .672-.027c.222.022.556.201 1.004.536s1.174.643 2.191.938 2.508.616 4.47.965l6.512 1.099 6.818.998 5.393.831c1.415.268 1.904-.094 1.465-1.085s-1.108-1.95-1.994-2.888c-.891-.938-2.167-1.99-3.826-3.155-1.665-1.166-3.141-1.996-4.43-2.492s-2.497-.858-3.623-1.085-2.376-.371-3.751-.415-2.605-.013-3.69.094-2.395.411-3.941.911S86.432 51.335 85.6 52s-2.028 1.474-3.602 2.412-1.913 1.691-1.017 2.258 1.924 1.074 3.087 1.521 2.492.857 4.002 1.246 2.817.627 3.907.73 2.361.183 3.799.241 2.933.092 4.484.087l4.267.02 3.758-.054 3.507-.161 3.365-.221s2.415.007 3.894.302 2.139-.107 1.98-1.206c-.158-1.09-.4-2.153-.725-3.189s-.738-2.092-1.249-3.169-1.209-2.144-2.109-3.216c-.905-1.072-1.877-2.052-2.917-2.941s-1.954-1.641-2.741-2.258-1.7-1.244-2.727-1.883c-1.022-.634-2.03-1.005-3.025-1.112a83.72 83.72 0 0 0-3.121-.275l-3.256-.127L95.761 41c-1.176.005-2.478.21-3.907.616s-2.632.815-3.609 1.239a22.2 22.2 0 0 0-2.985 1.594 14.5 14.5 0 0 0-2.808 2.325c-.859.902-1.768 2.081-2.727 3.537s-1.569 2.689-1.832 3.698a18.69 18.69 0 0 0-.529 3.236l-.217 2.137a3.41 3.41 0 0 1-.265.811 3.63 3.63 0 0 1-.454.717 3.33 3.33 0 0 1-.617.59c-.231.174-.477.317-.739.429s-.543.197-.828.241a3.38 3.38 0 0 1-.848.04c-.289-.018-.572-.071-.848-.161s-.529-.21-.773-.362-.468-.324-.672-.529a3.82 3.82 0 0 1-.522-.677c-.145-.246-.258-.505-.339-.777s-.129-.552-.142-.837l-.02-.422z" fill="#e67700" fill-opacity=".1"/><g fill="#000"><path d="M73.66 73.24l-.047 2.13-.095 4.335-.041 4.12c.004 1.286.147 2.648.427 4.087s.66 2.892 1.14 4.361 1.02 2.859 1.621 4.167l1.737 4.067 1.567 3.45 1.927 3.477a19.99 19.99 0 0 0 2.897 3.919l3.365 3.303 2.965 2.573a15.71 15.71 0 0 1 2.368 2.425c.715.902 1.002 2.597.861 5.085s-.721 4.006-1.757 4.555-2.313.724-3.833.523-2.881-.657-4.084-1.38a11.08 11.08 0 0 1-3.107-2.827l-2.198-2.928-2.008-2.452-2.32-2.613-2.157-2.458c-.638-.728-1.316-1.747-2.035-3.055l-1.933-3.37-1.872-3.377c-.674-1.313-1.16-2.443-1.459-3.39s-.522-1.925-.685-2.934-.262-2.166-.312-3.47l-.068-3.671a30.81 30.81 0 0 1 .244-3.631l.38-3.866.298-3.578c.109-1.085.387-2.474.834-4.167s1.061-2.981 1.838-3.866 1.847-1.554 3.195-1.996 2.621-.681 3.819-.717l3.358-.054 3.1.007 3.399.02 3.785.027 3.887.034 4.633.074 4.905.08 4.497.034 4.722.194 4.518.268 3.853.094 3.297-.034 2.604-.054c.729-.004 1.341.034 1.839.114s.968.237 1.411.469.839.529 1.187.891a4.63 4.63 0 0 1 .834 1.213 4.45 4.45 0 0 1 .401 1.42c.054.491.027.98-.082 1.467s-.292.942-.549 1.367c-.263.424-.586.797-.97 1.119s-.81.574-1.276.757a4.5 4.5 0 0 1-1.451.322c-.507.027-1.002-.027-1.486-.161a4.67 4.67 0 0 1-1.35-.616 4.66 4.66 0 0 1-1.085-1.018 4.39 4.39 0 0 1-.692-1.3c-.163-.469-.244-.951-.244-1.447s.081-.985.244-1.454c.158-.469.391-.9.698-1.293s.663-.735 1.079-1.012.868-.487 1.357-.616a4.59 4.59 0 0 1 1.479-.161c.502.027.988.132 1.458.315s.891.442 1.275.764a4.7 4.7 0 0 1 .964 1.119c.257.42.441.873.549 1.36s.136.976.082 1.467a4.45 4.45 0 0 1-.401 1.42c-.212.451-.49.858-.834 1.219a4.6 4.6 0 0 1-1.187.891 4.69 4.69 0 0 1-1.418.469l-.739.121-1.676-.027-3.46-.074-3.839-.101-3.534-.107-3.392-.181-4.186-.107-4.497.027-4.905.08-4.633.08-3.887.027-3.785.027-3.941.02-3.975.121c-1.266.076-1.954.71-2.062 1.903l-.265 3.658-.292 4.087-.19 4.268.197 3.618c.122 1.054.45 2.173.984 3.357s1.117 2.291 1.764 3.323l2.225 3.557c.837 1.344 1.614 2.445 2.334 3.303l2.435 2.854 2.571 3.249c.8 1.126 1.47 2.3 2.008 3.524s.45 2.519-.251 3.872-1.359 1.573-1.988.657-1.373-1.813-2.245-2.707l-2.557-2.432-2.286-2.177-2.34-2.593c-.873-1.004-1.716-2.26-2.53-3.765l-2.096-4.24-1.438-3.772-1.526-4.355c-.638-1.706-1.146-3.361-1.526-4.964l-.807-3.859c-.163-.974-.251-1.945-.264-2.914l-.014-3.376-.041-4.12-.095-4.335.007-2.539c.032-.272.097-.536.197-.79a3.43 3.43 0 0 1 .387-.73 3.53 3.53 0 0 1 .549-.61c.208-.183.436-.339.685-.469s.502-.221.773-.288a3.41 3.41 0 0 1 1.642 0 3.56 3.56 0 0 1 .773.288c.249.13.477.286.685.469a3.53 3.53 0 0 1 .55.61c.158.228.287.471.387.73a3.17 3.17 0 0 1 .197.79l.054.409z" fill-opacity=".1"/><path d="M82.978 130.451l-1.452.704c-.959.464-1.942 1.172-2.951 2.124s-1.675 1.884-2.001 2.8l-.855 2.82-1.017 4.188-1.099 4.816c-.294 1.39-.477 2.56-.55 3.511-.072.956-.165 1.644-.278 2.063-.118.425-.299.818-.543 1.18a4.1 4.1 0 0 1-.895.951 4.07 4.07 0 0 1-1.16.616c-.416.143-.846.217-1.289.221a4.31 4.31 0 0 1-1.302-.201 4.01 4.01 0 0 1-1.16-.603 3.8 3.8 0 0 1-.909-.931 3.96 3.96 0 0 1-.563-1.172 3.86 3.86 0 0 1-.149-1.287c.018-.437.109-.862.271-1.272a4 4 0 0 1 .672-1.113c.285-.335.615-.616.99-.844s.785-.395 1.214-.489a4.07 4.07 0 0 1 1.316-.08 4.12 4.12 0 0 1 1.262.335c.407.183.771.424 1.092.723a3.79 3.79 0 0 1 .8 1.025 3.94 3.94 0 0 1 .434 1.226 4 4 0 0 1 .007 1.293 3.95 3.95 0 0 1-.407 1.233 4.13 4.13 0 0 1-.787 1.039 3.96 3.96 0 0 1-1.085.73 4.12 4.12 0 0 1-1.262.362 4.06 4.06 0 0 1-1.309-.067c-.434-.09-.841-.246-1.221-.469a4.04 4.04 0 0 1-1.011-.831 3.95 3.95 0 0 1-.685-1.106c-.167-.406-.265-.828-.292-1.266l-.041-.656c0 .004.072-.563.217-1.702l.502-3.155c.195-.965.538-2.18 1.031-3.645l1.031-3.598.733-3.202c.294-1.206.651-2.318 1.072-3.336s.923-1.91 1.492-2.687 1.223-1.492 1.947-2.157 1.608-1.349 2.639-2.05 2.046-1.275 3.032-1.722l1.886-.804c.271-.089.55-.145.834-.167a3.54 3.54 0 0 1 .841.033c.285.045.558.123.821.235a3.62 3.62 0 0 1 .739.422c.226.17.43.364.611.583a3.45 3.45 0 0 1 .454.71c.122.259.213.527.271.804a3.22 3.22 0 0 1 .068.83 3.25 3.25 0 0 1-.136.831 3.56 3.56 0 0 1-.332.771c-.145.245-.317.471-.516.676a3.75 3.75 0 0 1-.658.53l-.366.227z" fill-opacity=".1"/><path d="M84.992 127.573l1.275.395c.85.263 1.868.668 3.053 1.213s2.302.893 3.365 1.031 2.2.137 3.426-.006l4.111-.637 4.674-1.032 4.375-1.199c1.321-.397 2.422-.942 3.304-1.634l2.089-1.655a11.39 11.39 0 0 1 1.384-.985c.416-.237.86-.404 1.33-.503a4.46 4.46 0 0 1 1.418-.053c.475.053.927.183 1.356.388.435.206.824.474 1.167.804s.624.702.841 1.126.369.864.441 1.333.061.931-.02 1.4-.237.905-.468 1.32a4.35 4.35 0 0 1-.875 1.106c-.353.321-.746.578-1.181.77s-.897.304-1.377.348a4.19 4.19 0 0 1-1.411-.093 4.31 4.31 0 0 1-1.316-.523c-.407-.25-.762-.558-1.065-.925a4.2 4.2 0 0 1-.719-1.205 4.21 4.21 0 0 1-.285-1.374 4.16 4.16 0 0 1 .17-1.393c.136-.451.339-.871.61-1.26s.606-.723.991-1.005a4.41 4.41 0 0 1 1.262-.643c.456-.147.924-.217 1.404-.208a4.37 4.37 0 0 1 1.397.242c.453.156.866.381 1.242.676a4.26 4.26 0 0 1 .963 1.025c.262.398.454.824.577 1.28s.171.924.135 1.393-.138.929-.319 1.367-.434.835-.746 1.193l-.475.535-1.424 1.086c-.954.728-2.128 1.494-3.521 2.298s-2.885 1.436-4.464 1.882l-4.829 1.273-5.38 1.139c-1.94.357-3.582.558-4.925.603-1.343.04-2.542-.025-3.595-.194s-2.209-.454-3.466-.838-2.309-.844-3.141-1.38a13.55 13.55 0 0 0-2.49-1.266l-1.621-.65c-.262-.129-.504-.286-.726-.469a3.74 3.74 0 0 1-.597-.623c-.172-.232-.312-.48-.421-.743a3.34 3.34 0 0 1-.231-.825 3.35 3.35 0 0 1-.027-.85c.027-.286.088-.565.183-.838a3.5 3.5 0 0 1 .38-.77 3.55 3.55 0 0 1 .556-.657c.212-.196.445-.364.699-.502a3.42 3.42 0 0 1 .8-.328c.28-.076.565-.119.855-.128a3.44 3.44 0 0 1 .855.081l.427.087z" fill-opacity=".1"/></g></svg>