<svg xmlns="http://www.w3.org/2000/svg" width="360" height="504" fill="none" xmlns:v="https://vecta.io/nano"><rect width="360" height="504" rx="16" fill="#fff"/><path d="M108.005 149h-9.126l-12.69-35.64h9.099l8.154 25.353 8.154-25.353h9.099L108.005 149zm16.972 0v-22.167h8.208V149h-8.208zm4.212-26.73a4.48 4.48 0 0 1-3.294-1.35c-.9-.918-1.35-2.007-1.35-3.267s.45-2.349 1.35-3.267c.918-.936 2.016-1.404 3.294-1.404.846 0 1.62.216 2.322.648.702.414 1.269.972 1.701 1.674s.648 1.485.648 2.349c0 1.26-.459 2.349-1.377 3.267-.918.9-2.016 1.35-3.294 1.35zM147.048 149h-8.235v-37.152h8.235V149zm13.5 0h-8.235v-37.152h8.235V149zm22.491 0v-3.591c-.162.36-.576.882-1.242 1.566-.648.684-1.512 1.305-2.592 1.863-1.08.54-2.34.81-3.78.81-2.16 0-4.05-.522-5.67-1.566a10.89 10.89 0 0 1-3.78-4.239c-.9-1.782-1.35-3.753-1.35-5.913s.45-4.122 1.35-5.886c.9-1.782 2.16-3.204 3.78-4.266s3.51-1.593 5.67-1.593c1.386 0 2.601.225 3.645.675 1.044.432 1.89.954 2.538 1.566.648.594 1.098 1.143 1.35 1.647v-3.24h8.154V149h-8.073zm-10.368-11.07c0 1.008.234 1.917.702 2.727.468.792 1.089 1.413 1.863 1.863.792.45 1.665.675 2.619.675.99 0 1.863-.225 2.619-.675s1.35-1.071 1.782-1.863c.45-.81.675-1.719.675-2.727s-.225-1.908-.675-2.7c-.432-.81-1.026-1.44-1.782-1.89-.756-.468-1.629-.702-2.619-.702-.954 0-1.827.234-2.619.702-.774.45-1.395 1.08-1.863 1.89-.468.792-.702 1.692-.702 2.7zm35.287 22.923c-1.548 0-3.087-.135-4.617-.405-1.512-.27-2.925-.729-4.239-1.377a9.61 9.61 0 0 1-3.321-2.673l4.806-4.995c.414.486.918.963 1.512 1.431.612.468 1.359.855 2.241 1.161.9.306 1.989.459 3.267.459 1.188 0 2.223-.207 3.105-.621s1.566-1.017 2.052-1.809c.504-.792.756-1.755.756-2.889v-.54h8.073v1.026c0 2.448-.612 4.509-1.836 6.183-1.206 1.674-2.835 2.934-4.887 3.78s-4.356 1.269-6.912 1.269zM213.52 149v-3.591c-.162.36-.576.882-1.242 1.566-.648.684-1.512 1.305-2.592 1.863-1.08.54-2.34.81-3.78.81-2.16 0-4.05-.522-5.67-1.566a10.89 10.89 0 0 1-3.78-4.239c-.9-1.782-1.35-3.753-1.35-5.913s.45-4.122 1.35-5.886c.9-1.782 2.16-3.204 3.78-4.266s3.51-1.593 5.67-1.593c1.386 0 2.601.225 3.645.675 1.044.432 1.89.954 2.538 1.566.648.594 1.098 1.143 1.35 1.647v-3.24h8.154V149h-8.073zm-10.368-11.07c0 1.008.234 1.917.702 2.727.468.792 1.089 1.413 1.863 1.863.792.45 1.665.675 2.619.675.99 0 1.863-.225 2.619-.675s1.35-1.071 1.782-1.863c.45-.81.675-1.719.675-2.727s-.225-1.908-.675-2.7c-.432-.81-1.026-1.44-1.782-1.89-.756-.468-1.629-.702-2.619-.702-.954 0-1.827.234-2.619.702-.774.45-1.395 1.08-1.863 1.89-.468.792-.702 1.692-.702 2.7zm30.236 1.728a3.93 3.93 0 0 0 .756 2.106c.45.612 1.071 1.098 1.863 1.458.81.342 1.764.513 2.862.513 1.044 0 1.98-.108 2.808-.324.846-.216 1.575-.486 2.187-.81.63-.324 1.116-.657 1.458-.999l3.186 5.076c-.45.486-1.089.963-1.917 1.431-.81.45-1.881.819-3.213 1.107s-3.015.432-5.049.432c-2.448 0-4.626-.459-6.534-1.377a10.56 10.56 0 0 1-4.509-4.05c-1.098-1.782-1.647-3.96-1.647-6.534 0-2.16.468-4.104 1.404-5.832.954-1.746 2.331-3.123 4.131-4.131 1.8-1.026 3.969-1.539 6.507-1.539 2.412 0 4.5.441 6.264 1.323a9.24 9.24 0 0 1 4.104 3.942c.972 1.728 1.458 3.888 1.458 6.48l-.027.864c0 .432-.018.72-.054.864h-16.038zm8.397-4.293c-.018-.576-.171-1.143-.459-1.701-.288-.576-.72-1.044-1.296-1.404-.576-.378-1.314-.567-2.214-.567s-1.665.18-2.295.54c-.612.342-1.08.792-1.404 1.35s-.504 1.152-.54 1.782h8.208zM261.254 149h-8.208v-22.167h8.208v3.429h-.135c.144-.414.495-.936 1.053-1.566.558-.648 1.341-1.224 2.349-1.728 1.008-.522 2.241-.783 3.699-.783 1.026 0 1.971.162 2.835.486.864.306 1.494.603 1.89.891l-3.186 6.669c-.252-.306-.702-.621-1.35-.945-.63-.342-1.422-.513-2.376-.513-1.098 0-2.007.279-2.727.837-.702.558-1.224 1.233-1.566 2.025-.324.792-.486 1.539-.486 2.241V149z" fill="#1a8000"/><g fill="#000"><path d="M95.867 178.08c-.313 0-.574-.035-.784-.105s-.364-.138-.462-.203l.455-.931c.061.051.133.093.217.126a.88.88 0 0 0 .357.056c.205 0 .362-.063.469-.189s.189-.303.231-.532a4.39 4.39 0 0 0 .063-.798v-6.251h1.218v6.545c0 .453-.058.849-.175 1.19s-.296.614-.553.805-.602.287-1.036.287zm1.19-10.794a.77.77 0 0 1-.567-.231c-.154-.159-.231-.348-.231-.567 0-.145.035-.278.105-.399a.89.89 0 0 1 .294-.294c.121-.075.254-.112.399-.112s.285.037.406.112a.83.83 0 0 1 .287.294c.07.121.105.254.105.399 0 .219-.077.408-.231.567a.77.77 0 0 1-.567.231zm3.546 4.865c0 .602.128 1.083.385 1.442s.66.532 1.197.532.94-.177 1.197-.532.385-.84.385-1.442v-2.898h1.204v3.066c0 .56-.11 1.055-.329 1.484a2.38 2.38 0 0 1-.945 1.008c-.411.238-.915.357-1.512.357s-1.097-.119-1.512-.357-.726-.579-.945-1.008-.322-.924-.322-1.484v-3.066h1.197v2.898zm8.138-3.066c.298 0 .576.03.833.091s.485.133.672.217.326.159.406.224l-.483.77c-.094-.084-.262-.177-.504-.28s-.514-.161-.812-.161c-.327 0-.605.065-.833.196s-.343.31-.343.553.116.436.35.581c.238.14.555.257.952.35a4.79 4.79 0 0 1 .889.301c.28.126.506.301.679.525s.259.513.259.882c0 .336-.07.623-.21.861s-.329.422-.567.567a2.72 2.72 0 0 1-.798.308 4.14 4.14 0 0 1-.896.098c-.355 0-.675-.037-.959-.112s-.525-.154-.721-.252a2.52 2.52 0 0 1-.42-.266l.483-.868c.121.117.319.24.595.371a2.22 2.22 0 0 0 .952.196c.392 0 .709-.082.952-.245s.364-.385.364-.651c0-.201-.059-.362-.175-.483s-.273-.219-.469-.294-.411-.14-.644-.196a4.59 4.59 0 0 1-.658-.203c-.21-.084-.404-.191-.581-.322a1.53 1.53 0 0 1-.413-.49c-.103-.196-.154-.425-.154-.686a1.22 1.22 0 0 1 .315-.847c.21-.238.485-.42.826-.546a3.18 3.18 0 0 1 1.113-.189zm2.891.168h1.127v-2.359h1.211v2.359h1.477v1.043h-1.477v2.842c0 .336.058.583.175.742s.282.238.483.238c.177 0 .315-.033.413-.098s.156-.11.175-.133l.483.896c-.028.023-.103.068-.224.133s-.278.124-.469.175-.416.077-.672.077c-.448 0-.824-.135-1.127-.406s-.448-.709-.448-1.302v-3.164h-1.127v-1.043zM124.863 175v-1.12c-.038.117-.147.278-.329.483s-.423.392-.735.56-.672.245-1.092.245c-.532 0-1.015-.126-1.449-.378s-.773-.604-1.029-1.057-.378-.992-.378-1.603.126-1.143.378-1.596a2.78 2.78 0 0 1 1.029-1.064 2.79 2.79 0 0 1 1.449-.385c.415 0 .774.075 1.078.224s.553.322.735.518.296.364.329.504v-1.078h1.204V175h-1.19zm-3.808-2.87c0 .415.091.775.273 1.078a1.97 1.97 0 0 0 .707.707c.294.163.606.245.938.245.354 0 .672-.084.952-.252s.501-.404.665-.707.245-.665.245-1.071-.082-.761-.245-1.064-.385-.546-.665-.714-.598-.259-.952-.259a1.86 1.86 0 0 0-.938.252 1.97 1.97 0 0 0-.707.707c-.182.303-.273.663-.273 1.078zm11.309 2.87h-1.211v-5.747h1.211v.994h-.035c.023-.121.109-.273.259-.455a2.09 2.09 0 0 1 .616-.49c.261-.145.574-.217.938-.217.266 0 .499.037.7.112s.35.14.434.21l-.497 1.008c-.066-.065-.18-.131-.343-.196s-.367-.105-.609-.105c-.308 0-.572.096-.791.287a1.89 1.89 0 0 0-.504.693c-.112.266-.168.513-.168.742V175zm4.337-2.625c.005.345.079.66.224.945s.359.511.644.679.644.252 1.064.252c.355 0 .656-.051.903-.154s.457-.233.616-.378a1.96 1.96 0 0 0 .343-.399l.595.735a2.51 2.51 0 0 1-.567.588c-.219.168-.488.296-.805.385s-.705.14-1.162.14c-.616 0-1.15-.131-1.603-.392-.448-.266-.793-.632-1.036-1.099s-.364-1.01-.364-1.617c0-.56.114-1.064.343-1.512s.56-.81.994-1.071c.439-.261.966-.392 1.582-.392.565 0 1.055.119 1.47.357a2.41 2.41 0 0 1 .973.994c.233.429.35.943.35 1.54l-.007.203-.014.196h-4.543zm3.402-.917c-.005-.191-.061-.401-.168-.63s-.271-.425-.504-.588-.548-.245-.945-.245c-.411 0-.742.079-.994.238a1.51 1.51 0 0 0-.546.581c-.117.224-.184.439-.203.644h3.36zm5.251 6.615a5.04 5.04 0 0 1-1.232-.14c-.364-.093-.684-.226-.959-.399a2.22 2.22 0 0 1-.651-.595l.798-.763c.089.121.208.25.357.385s.362.259.623.357.602.147 1.022.147c.411 0 .758-.089 1.043-.266s.502-.408.651-.707a2.23 2.23 0 0 0 .224-1.008v-.189h1.19v.266c0 .635-.138 1.167-.413 1.596s-.637.761-1.099.98c-.462.224-.98.336-1.554.336zM147.23 175v-1.12c-.037.117-.147.278-.329.483s-.422.392-.735.56c-.308.163-.672.245-1.092.245-.532 0-1.015-.126-1.449-.378s-.772-.604-1.029-1.057-.378-.992-.378-1.603.126-1.143.378-1.596.6-.812 1.029-1.064a2.79 2.79 0 0 1 1.449-.385c.415 0 .775.075 1.078.224.308.149.553.322.735.518.187.196.296.364.329.504v-1.078h1.204V175h-1.19zm-3.808-2.87c0 .415.091.775.273 1.078a1.98 1.98 0 0 0 .707.707c.294.163.607.245.938.245.355 0 .672-.084.952-.252a1.8 1.8 0 0 0 .665-.707c.163-.308.245-.665.245-1.071s-.082-.761-.245-1.064-.385-.546-.665-.714-.597-.259-.952-.259a1.86 1.86 0 0 0-.938.252 1.98 1.98 0 0 0-.707.707c-.182.303-.273.663-.273 1.078zm7.821.021c0 .602.129 1.083.385 1.442.262.355.661.532 1.197.532.542 0 .941-.177 1.197-.532s.385-.84.385-1.442v-2.898h1.204v3.066c0 .56-.109 1.055-.329 1.484a2.37 2.37 0 0 1-.945 1.008c-.41.238-.914.357-1.512.357-.592 0-1.096-.119-1.512-.357-.41-.243-.725-.579-.945-1.008-.214-.429-.322-.924-.322-1.484v-3.066h1.197v2.898zm7.29 2.849h-1.225v-9.632h1.225V175zm6.375 0v-1.12c-.038.117-.147.278-.329.483s-.423.392-.735.56-.672.245-1.092.245c-.532 0-1.015-.126-1.449-.378s-.773-.604-1.029-1.057-.378-.992-.378-1.603.126-1.143.378-1.596a2.78 2.78 0 0 1 1.029-1.064 2.79 2.79 0 0 1 1.449-.385c.415 0 .774.075 1.078.224s.553.322.735.518.296.364.329.504v-1.078h1.204V175h-1.19zm-3.808-2.87c0 .415.091.775.273 1.078a1.97 1.97 0 0 0 .707.707c.294.163.606.245.938.245.354 0 .672-.084.952-.252s.501-.404.665-.707.245-.665.245-1.071-.082-.761-.245-1.064-.385-.546-.665-.714-.598-.259-.952-.259a1.86 1.86 0 0 0-.938.252 1.97 1.97 0 0 0-.707.707c-.182.303-.273.663-.273 1.078zm7.822 2.87h-1.211v-5.747h1.211v.994h-.035c.024-.121.11-.273.259-.455s.355-.345.616-.49.574-.217.938-.217c.266 0 .5.037.7.112.206.07.35.14.434.21l-.497 1.008c-.065-.065-.179-.131-.343-.196s-.366-.105-.609-.105c-.308 0-.571.096-.791.287s-.387.422-.504.693-.168.513-.168.742V175zm7.317 0v-5.747h1.218V175h-1.218zm.623-7.714c-.219 0-.408-.077-.567-.231-.154-.159-.231-.348-.231-.567s.077-.408.231-.567c.159-.159.348-.238.567-.238a.74.74 0 0 1 .399.112c.126.075.226.173.301.294s.112.25.112.399c0 .219-.079.408-.238.567-.159.154-.35.231-.574.231zm5.67 1.799a2.66 2.66 0 0 1 1.099.238c.359.159.653.411.882.756s.35.786.35 1.337V175h-1.232v-3.346c0-.569-.133-.982-.399-1.239s-.609-.392-1.029-.392c-.275 0-.541.079-.798.238s-.46.369-.623.644-.245.579-.245.924V175h-1.218v-5.747h1.218v1.022c.042-.159.156-.331.343-.518s.425-.345.714-.476.602-.196.938-.196zm7.137 0a2.66 2.66 0 0 1 1.099.238c.359.159.653.411.882.756s.35.786.35 1.337V175h-1.232v-3.346c0-.569-.133-.982-.399-1.239s-.609-.392-1.029-.392a1.49 1.49 0 0 0-.798.238c-.252.154-.46.369-.623.644s-.245.579-.245.924V175h-1.218v-5.747h1.218v1.022c.042-.159.156-.331.343-.518s.424-.345.714-.476.602-.196.938-.196zm6.583 6.083c-.592 0-1.12-.133-1.582-.399a2.92 2.92 0 0 1-1.078-1.078c-.261-.457-.392-.973-.392-1.547s.131-1.092.392-1.554.621-.828 1.078-1.099c.462-.271.99-.406 1.582-.406s1.109.135 1.561.406c.458.271.815.637 1.071 1.099s.385.98.385 1.554-.128 1.09-.385 1.547a2.85 2.85 0 0 1-1.071 1.078c-.452.266-.973.399-1.561.399zm0-1.043c.374 0 .698-.086.973-.259s.497-.408.651-.707.231-.644.231-1.022-.077-.719-.231-1.022a1.8 1.8 0 0 0-.651-.721c-.275-.177-.599-.266-.973-.266s-.707.089-.987.266-.499.418-.658.721-.231.644-.231 1.022.077.719.231 1.022.378.534.658.707.609.259.987.259zm7.077.035c.364 0 .658-.058.882-.175s.364-.201.42-.252l.595.875c-.047.042-.159.11-.336.203s-.397.17-.672.245a3.47 3.47 0 0 1-.924.112 3.16 3.16 0 0 1-1.47-.35c-.453-.238-.819-.583-1.099-1.036s-.413-1.006-.413-1.659.137-1.211.413-1.659a2.76 2.76 0 0 1 1.099-1.029 3.16 3.16 0 0 1 1.47-.35c.34 0 .644.042.91.126.266.079.485.168.658.266s.287.173.343.224l-.602.875a1.97 1.97 0 0 0-.217-.168 1.6 1.6 0 0 0-.42-.217c-.178-.065-.39-.098-.637-.098-.299 0-.591.082-.875.245s-.511.39-.693.693-.273.667-.273 1.092.091.791.273 1.099c.182.303.413.537.693.7a1.77 1.77 0 0 0 .875.238zm3.864-1.785c.005.345.08.66.224.945s.36.511.644.679c.29.168.644.252 1.064.252.355 0 .656-.051.903-.154.252-.107.458-.233.616-.378a1.96 1.96 0 0 0 .343-.399l.595.735a2.51 2.51 0 0 1-.567.588c-.219.168-.487.296-.805.385s-.704.14-1.162.14c-.616 0-1.15-.131-1.603-.392-.448-.266-.793-.632-1.036-1.099s-.364-1.01-.364-1.617c0-.56.115-1.064.343-1.512s.56-.81.994-1.071.966-.392 1.582-.392c.565 0 1.055.119 1.47.357a2.4 2.4 0 0 1 .973.994c.234.429.35.943.35 1.54l-.007.203-.014.196h-4.543zm3.402-.917c-.004-.191-.06-.401-.168-.63-.102-.229-.27-.425-.504-.588s-.548-.245-.945-.245c-.41 0-.742.079-.994.238a1.51 1.51 0 0 0-.546.581c-.116.224-.184.439-.203.644h3.36zm5.72-2.373c.378 0 .745.079 1.099.238.36.159.654.411.882.756.234.341.35.786.35 1.337V175h-1.232v-3.346c0-.569-.133-.982-.399-1.239s-.609-.392-1.029-.392c-.275 0-.541.079-.798.238-.252.154-.459.369-.623.644s-.245.579-.245.924V175h-1.218v-5.747h1.218v1.022c.042-.159.157-.331.343-.518s.425-.345.714-.476a2.25 2.25 0 0 1 .938-.196zm3.434.168h1.127v-2.359h1.211v2.359h1.477v1.043h-1.477v2.842c0 .336.058.583.175.742s.282.238.483.238c.177 0 .315-.033.413-.098s.156-.11.175-.133l.483.896c-.028.023-.103.068-.224.133a2.21 2.21 0 0 1-.469.175 2.62 2.62 0 0 1-.672.077c-.448 0-.824-.135-1.127-.406s-.448-.709-.448-1.302v-3.164h-1.127v-1.043zm9.843 8.659h-1.211v-8.659h1.232v1.078c.042-.145.159-.315.35-.511s.448-.366.77-.511.7-.224 1.12-.224c.532 0 1.003.128 1.414.385s.74.607.973 1.064.357.985.357 1.596-.121 1.146-.364 1.603a2.68 2.68 0 0 1-.994 1.057c-.415.252-.891.378-1.428.378-.434 0-.814-.082-1.141-.245-.322-.163-.576-.348-.763-.553s-.287-.369-.315-.49v4.032zm3.801-5.782c0-.415-.086-.775-.259-1.078-.168-.303-.392-.539-.672-.707s-.583-.252-.91-.252c-.359 0-.686.086-.98.259a1.84 1.84 0 0 0-.7.714c-.173.303-.259.658-.259 1.064a2.15 2.15 0 0 0 .259 1.071c.173.303.406.539.7.707a1.94 1.94 0 0 0 .98.252c.327 0 .63-.082.91-.245s.504-.404.672-.707c.173-.303.259-.663.259-1.078zm3.74 2.87h-1.225v-9.632h1.225V175zm6.374 0v-1.12c-.037.117-.147.278-.329.483-.177.205-.422.392-.735.56s-.672.245-1.092.245c-.532 0-1.015-.126-1.449-.378-.429-.252-.772-.604-1.029-1.057-.252-.457-.378-.992-.378-1.603s.126-1.143.378-1.596c.257-.457.6-.812 1.029-1.064a2.79 2.79 0 0 1 1.449-.385c.416 0 .775.075 1.078.224s.553.322.735.518c.187.196.297.364.329.504v-1.078h1.204V175h-1.19zm-3.808-2.87c0 .415.091.775.273 1.078a1.98 1.98 0 0 0 .707.707c.294.163.607.245.938.245.355 0 .672-.084.952-.252a1.8 1.8 0 0 0 .665-.707c.164-.308.245-.665.245-1.071s-.081-.761-.245-1.064-.385-.546-.665-.714-.597-.259-.952-.259a1.86 1.86 0 0 0-.938.252 1.98 1.98 0 0 0-.707.707c-.182.303-.273.663-.273 1.078zm9.013 1.757l1.939-4.634h1.218l-3.878 8.659h-1.232l1.302-2.912-2.366-5.747h1.239l1.778 4.634zm4.843-1.512a2.11 2.11 0 0 0 .224.945 1.63 1.63 0 0 0 .644.679c.289.168.644.252 1.064.252.354 0 .655-.051.903-.154s.457-.233.616-.378.273-.282.343-.399l.595.735a2.51 2.51 0 0 1-.567.588c-.22.168-.488.296-.805.385s-.705.14-1.162.14c-.616 0-1.151-.131-1.603-.392-.448-.266-.794-.632-1.036-1.099s-.364-1.01-.364-1.617c0-.56.114-1.064.343-1.512a2.58 2.58 0 0 1 .994-1.071c.438-.261.966-.392 1.582-.392.564 0 1.054.119 1.47.357a2.41 2.41 0 0 1 .973.994c.233.429.35.943.35 1.54l-.007.203-.014.196h-4.543zm3.402-.917c-.005-.191-.061-.401-.168-.63s-.271-.425-.504-.588-.549-.245-.945-.245c-.411 0-.742.079-.994.238s-.43.352-.546.581-.185.439-.203.644h3.36zm3.704 3.542h-1.211v-5.747h1.211v.994h-.035c.023-.121.109-.273.259-.455a2.09 2.09 0 0 1 .616-.49c.261-.145.574-.217.938-.217.266 0 .499.037.7.112s.35.14.434.21l-.497 1.008c-.066-.065-.18-.131-.343-.196s-.367-.105-.609-.105c-.308 0-.572.096-.791.287a1.89 1.89 0 0 0-.504.693c-.112.266-.168.513-.168.742V175z"/><path d="M173.968 202.628l4.052-.019 9.141-.088 10.434-.124 10.758-.132 10.852-.131 10.883-.131c3.634-.041 6.338.323 8.111 1.093 1.769.778 2.893 2.66 3.372 5.644s.76 6.211.843 9.666l.137 10.546-.006 10.765-.044 10.827-.019 10.839.057 10.846.087 10.846.094 10.845.087 10.846.088 10.865c.029 3.625-.346 6.321-1.124 8.086s-2.664 2.899-5.67 3.39-6.238.787-9.709.887l-10.59.187-10.814.044-10.877.006-10.896.037-10.896.107-10.895.143-10.902.144-10.896.143-10.908.144c-3.643.046-6.352-.318-8.13-1.093-1.773-.774-2.897-2.658-3.372-5.65-.47-2.993-.743-6.217-.818-9.672l-.118-10.559.031-10.777.062-10.833.038-10.858-.031-10.859-.069-10.858-.075-10.858-.069-10.858-.062-10.871c-.025-3.63.35-6.329 1.124-8.098s2.668-2.894 5.669-3.385 6.228-.784 9.691-.88l10.577-.169 10.796-.031 10.852.006 10.877-.025 10.871-.093 12.737-.144 7.431-.056c.087.017.168.044.243.081.079.042.15.094.212.156a.85.85 0 0 1 .144.206.75.75 0 0 1 .069.25.7.7 0 0 1-.013.262.72.72 0 0 1-.093.237.85.85 0 0 1-.169.2c-.062.054-.135.098-.219.131a.73.73 0 0 1-.249.057.67.67 0 0 1-.256-.025c-.088-.021-.167-.057-.238-.107s-.133-.108-.187-.174-.096-.148-.125-.231-.043-.169-.043-.256a.77.77 0 0 1 .043-.256.76.76 0 0 1 .119-.219c.054-.071.116-.131.187-.181a.69.69 0 0 1 .231-.106c.088-.025.173-.036.256-.031s.173.023.256.056.152.073.219.131a.61.61 0 0 1 .168.194.74.74 0 0 1 .1.237c.021.083.025.168.013.256a.86.86 0 0 1-.063.25c-.037.079-.087.149-.15.212s-.124.114-.199.156a.87.87 0 0 1-.244.087l-.131.019h-7.299a4275.03 4275.03 0 0 1-12.738-.006c-3.625-.004-7.251.004-10.877.025l-10.871.093-10.852.144-10.77.181-10.446.312c-3.397.142-6.455.375-9.173.7s-4.314 1.146-4.776 2.466-.706 3.784-.731 7.393l-.075 10.846-.081 10.858-.075 10.858-.075 10.858-.044 10.859.038 10.852.081 10.833.119 10.752.256 10.434c.12 3.388.337 6.439.649 9.153s1.128 4.304 2.448 4.758 3.79.681 7.411.681h10.883 10.902l10.896.006 10.896.006 10.902-.037 10.889-.106 10.871-.157 10.789-.193 10.471-.325c3.401-.141 6.465-.377 9.192-.705s4.314-1.153 4.776-2.473.702-3.776.718-7.38l.056-10.834.057-10.845.056-10.852.056-10.846.019-10.846-.056-10.839-.1-10.821-.144-10.74-.275-10.415c-.125-3.384-.345-6.433-.662-9.147s-1.134-4.298-2.453-4.752-3.782-.686-7.399-.686l-10.859-.019-10.845-.013-10.765-.018-10.434-.019a1112.97 1112.97 0 0 0-9.135.012l-4.133.013a.89.89 0 0 1-.156-.038c-.05-.02-.096-.045-.138-.075s-.085-.064-.118-.106a.52.52 0 0 1-.094-.125c-.025-.05-.044-.099-.056-.149a.62.62 0 0 1-.019-.157c0-.054.006-.106.019-.156s.031-.104.056-.149.054-.09.088-.132a.48.48 0 0 1 .118-.106c.042-.025.088-.048.138-.068a.89.89 0 0 1 .156-.038l.075-.012z" stroke="#1d1d1d" stroke-width="1.725"/><path d="M159.775 246.483l-.415 2.881-.588 5.397-.256 4.367-.12 3.296c-.023.962.048 2.024.212 3.186s.405 2.339.733 3.52.736 2.367 1.225 3.558l1.567 3.453a25.46 25.46 0 0 0 1.968 3.268c.755 1.063 1.599 2.125 2.532 3.186l2.527 2.791c.752.8 1.493 1.445 2.223 1.934l1.741 1.162c.434.286.878.465 1.331.538l1.746.205 2.33.143c.839.032 1.728-.029 2.667-.181l2.965-.462c1.042-.153 1.946-.345 2.711-.576s1.421-.513 1.977-.853l1.635-.919c.534-.273 1.021-.583 1.461-.929l1.346-1.129 1.22-1.157a11.92 11.92 0 0 0 .984-1.129c.299-.394.55-.856.752-1.386l.748-1.729 1.041-2.11.97-2.162c.251-.658.472-1.38.665-2.167a19.26 19.26 0 0 1 .7-2.263c.273-.721.45-1.345.53-1.872a16.23 16.23 0 0 0 .174-1.633c.032-.562.103-1.155.212-1.777a22.06 22.06 0 0 0 .241-2.057l.126-2.134.053-1.963-.015-1.752-.005-1.925.005-2-.111-1.848-.169-2.243-.038-1.439a1.08 1.08 0 0 1 .111-.328 1.14 1.14 0 0 1 .212-.277 1.03 1.03 0 0 1 .294-.195 1.08 1.08 0 0 1 .343-.095c.115-.013.233-.006.352.019a1.1 1.1 0 0 1 .328.129c.099.06.188.134.265.223a1.16 1.16 0 0 1 .183.3 1.06 1.06 0 0 1 .077.343 1.01 1.01 0 0 1-.038.343 1.07 1.07 0 0 1-.15.319 1.18 1.18 0 0 1-.241.253c-.096.07-.201.124-.313.162s-.229.057-.348.057a1.08 1.08 0 0 1-.347-.057c-.112-.038-.217-.092-.313-.162s-.174-.157-.242-.253a1.07 1.07 0 0 1-.149-.319 1.04 1.04 0 0 1-.039-.343 1.09 1.09 0 0 1 .078-.343 1.16 1.16 0 0 1 .183-.3 1.09 1.09 0 0 1 .593-.352c.119-.025.236-.032.352-.019s.233.044.342.095.208.113.295.195.154.172.212.277.091.214.111.328l.029.177-.073 1.262-.164 2.243-.115 1.853v2l-.02 1.934-.053 1.767-.033 1.996-.073 2.248c-.035.809-.108 1.502-.217 2.076l-.255 1.782c-.062.613-.163 1.213-.304 1.8s-.331 1.218-.579 1.891-.469 1.43-.666 2.272a21.03 21.03 0 0 1-.675 2.324 23.6 23.6 0 0 1-.931 2.234l-.935 2.077-.777 1.938c-.26.692-.578 1.254-.954 1.686s-.764.823-1.163 1.162l-1.331 1.158-1.533 1.219c-.537.381-1.061.68-1.573.895s-1.088.515-1.741.905-1.387.708-2.213.963a20.24 20.24 0 0 1-2.793.623l-3.091.505c-1.026.178-1.971.259-2.836.243l-2.498-.095c-.801-.048-1.505-.165-2.112-.352s-1.105-.447-1.5-.777-.992-.768-1.789-1.314-1.582-1.226-2.344-2.039l-2.585-2.858c-.965-1.092-1.841-2.199-2.629-3.319s-1.467-2.247-2.04-3.387l-1.62-3.567a33.64 33.64 0 0 1-1.273-3.706 28.15 28.15 0 0 1-.782-3.701c-.173-1.232-.252-2.333-.236-3.305l.092-3.329.222-4.439.54-5.449.405-2.972a.82.82 0 0 1 .067-.167.8.8 0 0 1 .241-.257c.052-.035.107-.062.164-.081s.113-.037.174-.043.116-.005.174.005a.65.65 0 0 1 .178.043c.055.022.106.051.154.085a.65.65 0 0 1 .135.12 1.02 1.02 0 0 1 .102.147 1.03 1.03 0 0 1 .062.172.77.77 0 0 1 .02.171l-.005.091z"/><path d="M144.331 242.896l-1.181.171-2.214.329c-.685.108-.722.287-.111.538l2.035.857c.746.324 1.491.551 2.233.681l2.277.405 2.059.286a7.2 7.2 0 0 1 1.63.305 6.76 6.76 0 0 0 1.418.29l1.63.129 1.987.114 2.03.067 2.045.043 2.257.038 2.354.024 2.286.019 1.832-.043 1.524-.071 1.722-.029 2.122.019 2.513.048 2.387.138 2.513.176 2.638.081 2.305.043a10.13 10.13 0 0 1 2.025.214 16.74 16.74 0 0 0 1.93.295l2.126.139 2.195.066 2.006.019 2.03.01 2.151.014 2.089.005 1.962-.014 1.582-.067 1.529-.057 1.939.019a15.17 15.17 0 0 0 1.958-.076l1.683-.181 1.399-.148 1.35-.186c.473-.082.802-.267.989-.552a.98.98 0 0 0 .12-.905c-.109-.321-.352-.526-.728-.615a5.32 5.32 0 0 1-1.032-.352 7.42 7.42 0 0 0-1.076-.391c-.405-.117-.866-.174-1.384-.171s-1.006-.099-1.466-.305-.884-.318-1.273-.333-.979-.088-1.78-.215l-1.451-.257c-.171-.044-.33-.113-.478-.205s-.276-.211-.386-.347a1.48 1.48 0 0 1-.25-.448c-.061-.162-.094-.33-.097-.505-.003-.168.023-.335.077-.5a1.54 1.54 0 0 1 .232-.457c.103-.14.225-.261.366-.362a1.71 1.71 0 0 1 .468-.224 1.57 1.57 0 0 1 .516-.067 1.63 1.63 0 0 1 .507.1c.167.06.318.146.453.257s.249.235.342.381a1.57 1.57 0 0 1 .203.472 1.51 1.51 0 0 1 .039.51 1.67 1.67 0 0 1-.126.495 1.54 1.54 0 0 1-.284.429 1.7 1.7 0 0 1-.406.319 1.62 1.62 0 0 1-.491.176 1.75 1.75 0 0 1-.516.009c-.174-.025-.34-.076-.497-.152a1.69 1.69 0 0 1-.42-.305 1.61 1.61 0 0 1-.299-.419c-.077-.156-.127-.319-.149-.491s-.016-.336.019-.504.092-.332.178-.481a1.72 1.72 0 0 1 .328-.396c.132-.117.278-.209.439-.276a1.66 1.66 0 0 1 .507-.119l.26-.019 1.148.2 1.881.286a3.89 3.89 0 0 1 1.321.381c.389.2.764.303 1.124.309s.81.067 1.35.181l1.298.324a3.26 3.26 0 0 1 .95.491c.302.222.652.419 1.051.59s.719.38.96.634.434.551.578.881.248.799.299 1.405a2.47 2.47 0 0 1-.467 1.681c-.364.515-.688.904-.975 1.167s-.79.43-1.524.5l-1.721.091-1.341-.019c-.479.003-1.058.043-1.736.119l-2.04.138-1.939.019-1.529-.062-1.582-.067-1.962-.014c-.666-.003-1.364-.003-2.094 0l-2.15.005c-.708.003-1.388 0-2.04-.01l-2.026-.023-2.247-.048-2.272-.124c-.714-.06-1.337-.165-1.871-.314s-1.161-.23-1.871-.234-1.484-.004-2.32-.014l-2.696-.048-2.493-.123c-.695-.061-1.466-.085-2.315-.072l-2.513.048-2.122.019-1.722-.029-1.524-.071c-.466-.035-1.077-.049-1.832-.043l-2.286.014-2.354.024-2.266.024-2.055.019-2.064.014a55.56 55.56 0 0 1-2.088-.009c-.682-.016-1.322-.073-1.92-.172s-1.057-.23-1.379-.405-.797-.284-1.428-.338l-2.107-.238-2.484-.324c-.878-.114-1.681-.294-2.411-.538l-2.098-.691c-.669-.216-1.219-.605-1.649-1.167s-.568-1.038-.42-1.428.436-.705.863-.943.991-.432 1.688-.582l2.214-.485 1.288-.262a.97.97 0 0 1 .221.014c.074.016.147.038.217.067a.81.81 0 0 1 .193.119.91.91 0 0 1 .159.157c.049.06.089.125.121.195a1.19 1.19 0 0 1 .068.214c.012.074.016.147.009.22s-.016.146-.038.219-.053.141-.092.204a1.07 1.07 0 0 1-.145.177c-.051.054-.111.1-.178.138a.92.92 0 0 1-.208.09l-.106.034z"/><path d="M139.862 242.683l.424-.229c.28-.149.642-.292 1.085-.428s.811-.313 1.1-.529.686-.364 1.201-.452l1.369-.162 1.52-.115 1.562-.123 1.722-.053c.71-.006 1.337-.109 1.881-.309a6.72 6.72 0 0 1 1.673-.386l1.384-.096 1.211-.023 1.268-.038 1.568-.034 1.234.029c.167.025.325.078.473.157s.284.179.4.3a1.5 1.5 0 0 1 .28.41c.071.152.116.311.135.476s.01.33-.029.495a1.5 1.5 0 0 1-.183.458 1.55 1.55 0 0 1-.323.376 1.6 1.6 0 0 1-.43.257 1.64 1.64 0 0 1-.492.105c-.167.009-.332-.008-.496-.053s-.315-.114-.454-.209a1.49 1.49 0 0 1-.366-.338c-.1-.134-.177-.28-.232-.439s-.082-.32-.082-.485.028-.332.082-.491.132-.305.232-.438a1.49 1.49 0 0 1 .366-.338 1.48 1.48 0 0 1 .454-.21c.164-.044.329-.062.496-.052a1.58 1.58 0 0 1 .492.105c.158.063.301.149.43.257a1.53 1.53 0 0 1 .323.376c.086.143.148.297.183.462a1.4 1.4 0 0 1 .029.491 1.49 1.49 0 0 1-.135.476c-.071.152-.164.289-.28.409s-.249.221-.4.301a1.48 1.48 0 0 1-.473.157l-.251.043-.983-.015-1.563-.028-1.244-.029c-.447-.009-.96-.009-1.539 0l-1.403.076c-.357.042-.788.153-1.293.334s-.982.282-1.432.305l-1.519.09a14.31 14.31 0 0 0-1.582.191c-.489.088-.95.13-1.384.123l-1.37-.023c-.479-.007-1.037.114-1.673.362l-1.384.576-.579.248a1.29 1.29 0 0 1-.304.066 1.07 1.07 0 0 1-.304-.005c-.103-.012-.201-.038-.294-.076a1.26 1.26 0 0 1-.27-.147c-.087-.061-.162-.131-.227-.21s-.125-.16-.173-.252-.079-.188-.102-.286a1.42 1.42 0 0 1-.033-.3c.003-.102.017-.202.043-.3s.068-.192.116-.281.111-.175.178-.248.15-.143.237-.2l.13-.086v.005z"/><path d="M160.907 240.504l-.019-.848c-.013-.565.1-1.381.337-2.448s.663-2.2 1.283-3.391l1.876-3.272 1.428-2.401a9.28 9.28 0 0 1 1.172-1.705c.456-.527 1.013-1.014 1.668-1.462.66-.448 1.473-.808 2.441-1.081l2.754-.872 2.421-.772 1.938-.49 1.611-.276c.531-.064 1.233-.096 2.108-.096s1.731.075 2.57.224l2.064.276c.54.039 1.193.15 1.958.334s1.521.508 2.257.972 1.349.801 1.838 1.024 1.003.541 1.543.957l1.76 1.419 1.582 1.191a5.07 5.07 0 0 1 1.124.957l.984 1.191.844 1.11.955 1.191c.398.469.699 1.095.902 1.876s.424 1.348.665 1.7.46.85.646 1.482.388 1.165.603 1.6l.55 1.21.405 1.076c.119.35.305.729.559 1.139l.488.824a1.5 1.5 0 0 1 .149.447 1.39 1.39 0 0 1-.005.477 1.48 1.48 0 0 1-.159.443 1.46 1.46 0 0 1-.289.376c-.119.108-.253.195-.401.262s-.302.108-.463.124a1.63 1.63 0 0 1-.477-.034 1.42 1.42 0 0 1-.444-.181c-.138-.082-.258-.185-.361-.309s-.188-.256-.246-.405a1.44 1.44 0 0 1-.097-.462c-.006-.162.013-.319.058-.472a1.54 1.54 0 0 1 .203-.428c.093-.131.204-.243.332-.339s.275-.168.43-.219.308-.074.472-.071a1.42 1.42 0 0 1 .473.081 1.61 1.61 0 0 1 .419.224c.129.098.237.214.324.347a1.42 1.42 0 0 1 .197.434c.042.152.058.309.049.471s-.045.313-.107.462-.144.28-.25.401-.23.222-.372.304-.286.135-.443.167-.322.043-.483.024a1.44 1.44 0 0 1-.458-.134c-.148-.066-.28-.155-.395-.266l-.174-.167-.554-.967c-.37-.644-.613-1.235-.729-1.772s-.284-.971-.516-1.314a3.86 3.86 0 0 1-.492-1.01c-.096-.333-.152-.676-.168-1.029s-.084-.735-.193-1.138-.264-.808-.463-1.224-.314-.8-.333-1.153a5.43 5.43 0 0 0-.179-1.095c-.099-.381-.279-.71-.54-.986a4.41 4.41 0 0 1-.656-.896 11.65 11.65 0 0 0-.733-1.124l-.723-1.09c-.164-.296-.452-.602-.863-.92l-1.582-1.233-1.65-1.305c-.456-.362-.94-.681-1.451-.958l-1.664-.995a5.79 5.79 0 0 0-1.958-.795l-1.9-.334-1.973-.295c-.749-.121-1.545-.165-2.387-.133l-1.997.061-1.495.101c-.508.053-1.12.182-1.837.385l-2.421.791-2.604.819c-.836.219-1.536.519-2.098.9s-1.039.791-1.437 1.22-.764.968-1.095 1.61l-1.384 2.414-1.727 3.068c-.559 1.082-.936 2.105-1.128 3.067s-.291 1.729-.304 2.291l-.029.933c-.007.061-.021.12-.044.177s-.051.111-.086.162a.82.82 0 0 1-.126.138.74.74 0 0 1-.149.105c-.055.028-.113.05-.174.066s-.122.019-.183.019-.122-.006-.183-.019-.119-.038-.174-.066a.72.72 0 0 1-.15-.105c-.048-.042-.09-.088-.125-.138s-.064-.105-.087-.162-.037-.116-.043-.177l-.01-.09z"/><path d="M206.965 243.259l-.545-.3a3.61 3.61 0 0 0-1.182-.41c-.421-.07-.675-.128-.762-.176a1.25 1.25 0 0 1-.241-.167 1.31 1.31 0 0 1-.188-.219c-.055-.082-.098-.17-.13-.262s-.053-.186-.063-.281a1.08 1.08 0 0 1 .01-.29c.013-.099.038-.192.077-.281s.082-.173.14-.253a1.17 1.17 0 0 1 .202-.214 1.29 1.29 0 0 1 .246-.157c.087-.045.179-.077.275-.096s.195-.031.294-.028.196.017.29.043.543.238 1.34.638l1.331.686c.097.06.18.132.251.214a.96.96 0 0 1 .227.605 1.08 1.08 0 0 1-.039.319 1.05 1.05 0 0 1-.144.295c-.065.089-.143.167-.237.234a1.04 1.04 0 0 1-.294.147.99.99 0 0 1-.323.043.95.95 0 0 1-.323-.057c-.106-.038-.203-.09-.29-.157s-.16-.151-.221-.243-.106-.192-.135-.3a1.04 1.04 0 0 1-.029-.319 1.05 1.05 0 0 1 .077-.319 1.03 1.03 0 0 1 .178-.276c.074-.083.159-.151.256-.205s.199-.092.309-.115a.98.98 0 0 1 .323-.014c.112.016.218.048.318.095s.19.112.27.191a1 1 0 0 1 .198.262c.048.098.08.202.096.309a.98.98 0 0 1-.005.324c-.019.108-.056.21-.111.305a.92.92 0 0 1-.207.257c-.08.073-.172.132-.275.177s-.21.073-.323.085a.94.94 0 0 1-.323-.028l-.164-.038-1.259-.419-1.384-.491a1 1 0 0 1-.236-.167 1.21 1.21 0 0 1-.193-.219c-.052-.082-.095-.17-.13-.262a1.11 1.11 0 0 1-.063-.281 1.08 1.08 0 0 1 .01-.29c.013-.099.038-.192.077-.281s.082-.173.14-.253a1.17 1.17 0 0 1 .202-.214 1.29 1.29 0 0 1 .246-.157c.087-.045.179-.077.275-.096s.195-.031.294-.028.196.017.29.043a16.27 16.27 0 0 1 .892.314c.495.187.918.392 1.268.614l.627.415c.071.051.134.109.188.176s.095.143.13.219.066.162.082.248a.9.9 0 0 1 .015.248c-.007.085-.021.169-.043.252a.88.88 0 0 1-.107.233 1.2 1.2 0 0 1-.159.205 1.01 1.01 0 0 1-.207.157 1.03 1.03 0 0 1-.232.105 1.16 1.16 0 0 1-.255.048 1.01 1.01 0 0 1-.256-.015c-.087-.015-.169-.041-.246-.076l-.12-.052zm-43.786 14.519l.289-.8a10.02 10.02 0 0 1 .68-1.496c.258-.463.598-.843 1.023-1.138s.833-.5 1.225-.614a6.27 6.27 0 0 1 1.23-.229c.43-.035.89.044 1.379.238s.908.432 1.259.705.834.859 1.451 1.757.926 1.423.926 1.572a1.22 1.22 0 0 1-.062.419c-.046.14-.111.269-.198.386s-.195.222-.314.305-.254.144-.395.186a1.49 1.49 0 0 1-.439.057c-.148-.006-.291-.037-.429-.091a1.26 1.26 0 0 1-.376-.214c-.116-.095-.213-.205-.29-.329a1.24 1.24 0 0 1-.169-.395 1.21 1.21 0 0 1-.029-.429c.013-.146.05-.285.111-.419a1.34 1.34 0 0 1 .237-.362 1.37 1.37 0 0 1 .347-.266c.129-.073.267-.123.415-.148s.291-.027.439-.005a1.33 1.33 0 0 1 .414.134 1.31 1.31 0 0 1 .352.257c.106.101.192.219.256.352a1.31 1.31 0 0 1 .121.415 1.31 1.31 0 0 1-.015.433c-.032.14-.085.273-.159.4a1.28 1.28 0 0 1-.28.334 1.21 1.21 0 0 1-.371.228 1.29 1.29 0 0 1-.425.1c-.147.01-.294-.003-.438-.038a1.46 1.46 0 0 1-.401-.176 1.51 1.51 0 0 1-.323-.295 1.4 1.4 0 0 1-.212-.377l-.072-.205-.425-.571a11.72 11.72 0 0 0-.853-1.048 1.24 1.24 0 0 0-1.076-.414c-.427.035-.8.19-1.119.466s-.556.686-.704 1.229l-.28.943c-.041.089-.093.173-.154.253s-.132.144-.212.205a1.29 1.29 0 0 1-.251.152 1.11 1.11 0 0 1-.284.086c-.097.019-.193.025-.29.019a1.31 1.31 0 0 1-.294-.053 1.29 1.29 0 0 1-.27-.123 1.38 1.38 0 0 1-.232-.177 1.22 1.22 0 0 1-.183-.233 1.15 1.15 0 0 1-.12-.267c-.029-.092-.047-.187-.053-.286a1.1 1.1 0 0 1 .019-.29l.024-.143zm20.097.005l.304-.829c.202-.552.482-1.027.839-1.424a2.85 2.85 0 0 1 1.355-.838c.546-.158 1.003-.256 1.37-.3a5.59 5.59 0 0 1 1.08-.024c.357.026.781.193 1.283.514a9.47 9.47 0 0 1 1.283.977c.353.33.791.941 1.312 1.833s.778 1.407.771 1.553-.035.281-.087.414a1.29 1.29 0 0 1-.217.367c-.094.111-.201.205-.323.281s-.259.13-.4.162a1.41 1.41 0 0 1-.429.029 1.27 1.27 0 0 1-.415-.11 1.34 1.34 0 0 1-.362-.233c-.106-.096-.194-.207-.265-.334a1.34 1.34 0 0 1-.14-.4c-.026-.143-.029-.284-.009-.424s.067-.278.135-.405a1.24 1.24 0 0 1 .255-.342c.103-.099.22-.178.352-.239s.27-.103.415-.119a1.29 1.29 0 0 1 .429.015c.142.031.275.082.4.152a1.28 1.28 0 0 1 .333.267 1.24 1.24 0 0 1 .227.362 1.29 1.29 0 0 1 .096.414 1.35 1.35 0 0 1-.038.424c-.039.137-.097.265-.174.386a1.31 1.31 0 0 1-.294.314c-.113.089-.238.157-.376.205s-.28.071-.425.071a1.25 1.25 0 0 1-.424-.062 1.36 1.36 0 0 1-.386-.195 1.22 1.22 0 0 1-.299-.305 1.24 1.24 0 0 1-.183-.381l-.063-.204-.318-.567c-.212-.378-.598-.802-1.158-1.272s-1.152-.684-1.779-.643-1.008.319-1.143.843l-.265.915c-.042.088-.094.171-.155.247a1.06 1.06 0 0 1-.207.205 1.53 1.53 0 0 1-.246.148c-.09.038-.183.066-.28.085a1.48 1.48 0 0 1-.289.02c-.097-.007-.193-.024-.289-.053a1.52 1.52 0 0 1-.266-.119 1.29 1.29 0 0 1-.231-.181c-.068-.067-.127-.143-.179-.229a1.13 1.13 0 0 1-.12-.262c-.029-.092-.047-.187-.053-.285-.003-.092.003-.186.019-.281l.029-.143zm-5.907 12.8l-.459.59c-.308.394-.52.791-.636 1.191s.069.802.564 1.205.947.657 1.346.762.738-.194 1.017-.895.172-1.294-.323-1.777-.95-.684-1.374-.614l-.849.147a1.29 1.29 0 0 1-.429-.004c-.142-.023-.277-.067-.405-.134a1.43 1.43 0 0 1-.343-.257 1.32 1.32 0 0 1-.241-.352 1.31 1.31 0 0 1-.116-.41 1.41 1.41 0 0 1 .024-.419c.032-.14.087-.272.164-.395a1.22 1.22 0 0 1 .28-.324c.109-.092.232-.165.367-.219a1.46 1.46 0 0 1 .419-.091c.142-.006.283.01.425.048a1.26 1.26 0 0 1 .39.181 1.27 1.27 0 0 1 .309.29c.09.115.157.24.202.376a1.32 1.32 0 0 1 .068.415 1.33 1.33 0 0 1-.068.419 1.35 1.35 0 0 1-.202.376c-.09.115-.195.211-.314.291s-.252.138-.39.176a1.39 1.39 0 0 1-.425.048 1.38 1.38 0 0 1-.419-.096 1.35 1.35 0 0 1-.367-.219 1.24 1.24 0 0 1-.28-.324 1.37 1.37 0 0 1-.159-.395c-.029-.14-.035-.279-.019-.419a1.31 1.31 0 0 1 .116-.41 1.32 1.32 0 0 1 .241-.352c.1-.102.214-.186.342-.253l.193-.1 1.317-.219c.878-.146 1.537-.077 1.977.205s.798.562 1.08.829l.801.743c.251.232.46.522.627.872s.241.75.212 1.205a8.22 8.22 0 0 1-.207 1.376c-.109.46-.29 1.002-.54 1.624s-.653 1.048-1.206 1.277-1.013.312-1.379.243l-1.288-.324a12.64 12.64 0 0 1-1.649-.629c-.608-.273-1.081-.643-1.418-1.11s-.484-.989-.439-1.567.169-1.179.381-1.795.466-1.129.772-1.539l.554-.719a1.23 1.23 0 0 1 .212-.176 1.29 1.29 0 0 1 .251-.115c.09-.031.182-.05.275-.057a1.34 1.34 0 0 1 .275.01 1.33 1.33 0 0 1 .265.076c.087.038.167.084.241.138s.142.118.203.191.108.147.149.233a1.18 1.18 0 0 1 .087.257 1.15 1.15 0 0 1 .024.272.97.97 0 0 1-.048.271 1.2 1.2 0 0 1-.106.253l-.072.119zm-24.025-5.988l-.916-.043-1.669-.047a172.64 172.64 0 0 1-1.663-.01c-.611-.003-1.156-.092-1.635-.267s-.524-.566-.135-1.167.721-.77.998-.49a9.07 9.07 0 0 0 1.056.891l1.249.862c.402.257.74.277 1.013.062s.338-.261.193-.134-.188.129-.13.014a1.81 1.81 0 0 1 .217-.319 1.6 1.6 0 0 1 .289-.257c.106-.073.219-.133.338-.181s.247-.079.376-.095a1.75 1.75 0 0 1 .39-.005 1.52 1.52 0 0 1 .372.086 1.72 1.72 0 0 1 .347.171 1.62 1.62 0 0 1 .289.253 1.45 1.45 0 0 1 .227.314 1.52 1.52 0 0 1 .14.353 1.43 1.43 0 0 1 .053.381c0 .127-.014.254-.043.381s-.061.563-.097 1.319l-.246 2.539-.289 2.314-.077 1.358-.01.586a1.08 1.08 0 0 1-.082.266 1.25 1.25 0 0 1-.145.243c-.058.073-.123.14-.197.2a1.36 1.36 0 0 1-.242.143c-.086.041-.176.07-.27.086a1.05 1.05 0 0 1-.279.019 1.01 1.01 0 0 1-.28-.048 1.05 1.05 0 0 1-.26-.109c-.084-.051-.16-.108-.227-.172a1.26 1.26 0 0 1-.179-.219 1.31 1.31 0 0 1-.115-.257c-.029-.089-.047-.181-.053-.276s.138-.448.434-1.067.594-1.062.897-1.329a5.26 5.26 0 0 1 .921-.662 4.18 4.18 0 0 1 1.027-.4c.367-.089.833-.067 1.399.067s1.051.382 1.466.738.714.686.906 1a3.51 3.51 0 0 1 .42 1.048c.087.378.08.781-.019 1.21s-.45.867-1.052 1.324-1.339.617-2.213.481l-1.534-.315c-.148-.066-.28-.157-.395-.271s-.216-.238-.29-.381a1.51 1.51 0 0 1-.149-.453c-.026-.158-.024-.317.005-.476a1.36 1.36 0 0 1 .154-.448c.077-.142.175-.268.294-.376s.254-.2.405-.267a1.49 1.49 0 0 1 .463-.123 1.45 1.45 0 0 1 .483.033c.157.035.307.094.448.176s.259.191.362.315.188.26.246.409a1.54 1.54 0 0 1 .101.467 1.48 1.48 0 0 1-.058.471c-.045.156-.114.299-.207.429s-.201.248-.333.343-.275.172-.429.219a1.5 1.5 0 0 1-.473.076 1.6 1.6 0 0 1-.477-.081 1.53 1.53 0 0 1-.425-.228c-.128-.099-.238-.215-.328-.348s-.156-.278-.197-.433a1.48 1.48 0 0 1-.049-.472 1.47 1.47 0 0 1 .106-.467 1.44 1.44 0 0 1 .251-.404c.106-.121.23-.223.372-.305a1.45 1.45 0 0 1 .93-.196l.242.029.409-.019c.274-.01.221-.03-.159-.062s-.746.083-1.09.343-.519.433-.535.529a1.08 1.08 0 0 1-.082.266 1.25 1.25 0 0 1-.145.243c-.058.073-.123.14-.197.2a1.36 1.36 0 0 1-.242.143c-.086.041-.176.07-.27.086a1.05 1.05 0 0 1-.279.019 1.01 1.01 0 0 1-.28-.048 1.05 1.05 0 0 1-.26-.109 1.07 1.07 0 0 1-.227-.172 1.26 1.26 0 0 1-.179-.219 1.31 1.31 0 0 1-.115-.257c-.029-.089-.047-.181-.053-.276s.013-.283.058-.572.064-.754.057-1.386v-2.262c.004-.873-.035-1.658-.115-2.353s-.102-1.254-.073-1.686.068-.7.126-.815a1.81 1.81 0 0 1 .217-.319 1.6 1.6 0 0 1 .289-.257c.106-.073.219-.133.338-.181s.247-.079.376-.095a1.75 1.75 0 0 1 .39-.005 1.52 1.52 0 0 1 .372.086 1.72 1.72 0 0 1 .347.171 1.62 1.62 0 0 1 .289.253 1.5 1.5 0 0 1 .227.309 1.63 1.63 0 0 1 .14.358 1.66 1.66 0 0 1 .053.381c0 .127-.014.254-.043.381s-.161.308-.396.552l-.868.948c-.338.387-.738.648-1.201.781s-.884.149-1.263.038-.793-.282-1.249-.524-.84-.474-1.158-.7l-1.157-.876a9.73 9.73 0 0 1-1.114-1.01 3.07 3.07 0 0 1-.642-1.095c-.141-.42.04-.896.545-1.429s1.023-.653 1.553-.358 1.04.475 1.529.539.982.09 1.48.09l1.669-.048 1.056-.023a1.09 1.09 0 0 1 .285.066 1.29 1.29 0 0 1 .255.134 1.09 1.09 0 0 1 .217.19 1.07 1.07 0 0 1 .164.234 1.18 1.18 0 0 1 .102.266c.022.092.033.186.033.281a1.2 1.2 0 0 1-.033.281c-.023.092-.057.181-.102.267a1.04 1.04 0 0 1-.164.233c-.064.073-.136.137-.217.191a1.29 1.29 0 0 1-.255.133c-.093.035-.188.057-.285.067l-.14.019z"/><path d="M175.753 276.365l-.815.342c-.547.229-1.267.593-2.161 1.091s-1.969 1.185-3.236 2.058-2.447 1.805-3.549 2.796-2.01 1.89-2.711 2.7-1.209 1.466-1.524 1.967a13.95 13.95 0 0 0-.791 1.424l-.4.777a.87.87 0 0 1-.198.176.74.74 0 0 1-.241.109.79.79 0 0 1-.265.024.77.77 0 0 1-.256-.062c-.083-.035-.159-.081-.226-.138a.83.83 0 0 1-.169-.205c-.045-.076-.076-.157-.092-.242a.72.72 0 0 1-.009-.262.74.74 0 0 1 .072-.253.94.94 0 0 1 .154-.214c.064-.061.135-.111.212-.153s.166-.068.256-.081.175-.011.265.005.169.046.246.091a.73.73 0 0 1 .212.162c.058.063.107.136.145.219s.056.163.063.252a.72.72 0 0 1-.02.262c-.019.086-.053.165-.101.238s-.106.143-.173.2-.148.097-.232.129a.79.79 0 0 1-.26.052c-.087.003-.174-.008-.261-.033a.78.78 0 0 1-.236-.114c-.074-.051-.138-.111-.193-.181s-.092-.151-.121-.234a.8.8 0 0 1-.033-.262.77.77 0 0 1 .043-.257l.048-.124.43-.662.969-1.486c.36-.546.903-1.252 1.63-2.119s1.662-1.828 2.797-2.882 2.344-2.042 3.627-2.972l3.323-2.258 2.213-1.224.926-.39a.86.86 0 0 1 .222-.038 1 1 0 0 1 .217.014 1.12 1.12 0 0 1 .217.067.95.95 0 0 1 .193.119c.058.047.109.1.154.157s.087.125.116.195.055.138.068.215.016.144.009.214a.99.99 0 0 1-.043.219c-.023.073-.055.141-.096.205a.85.85 0 0 1-.14.171.91.91 0 0 1-.179.138l-.096.058z"/><path d="M159.725 289.534l-1.307 1.229-2.161 2.167c-.566.625-1.021.96-1.365 1.005s-.003-.276 1.023-.962l2.561-1.691a4.96 4.96 0 0 0 1.606-1.672l.675-1.124c.061-.082.133-.152.217-.209s.17-.105.27-.134.196-.041.299-.038.202.022.299.057a.95.95 0 0 1 .26.148c.081.063.148.136.203.219s.093.178.116.276a.86.86 0 0 1 .024.296.82.82 0 0 1-.073.285.76.76 0 0 1-.164.253c-.067.076-.146.138-.236.185s-.182.086-.284.105a.86.86 0 0 1-.299.005c-.103-.013-.2-.041-.29-.086s-.175-.103-.246-.176a.84.84 0 0 1-.178-.243.87.87 0 0 1-.087-.286.89.89 0 0 1 .01-.295c.019-.098.054-.19.106-.276a.83.83 0 0 1 .188-.234 1.06 1.06 0 0 1 .255-.162 1.05 1.05 0 0 1 .295-.071 1.1 1.1 0 0 1 .303.024c.097.025.188.065.275.119s.163.121.227.2.112.167.145.262.054.189.058.29a.87.87 0 0 1-.044.296l-.043.143-.931 1.281c-.617.857-1.268 1.541-1.953 2.053l-2.224 1.571c-.797.531-1.469.893-2.015 1.086s-.973.199-1.288.015-.476-.494-.482-.929a1.98 1.98 0 0 1 .332-1.172c.232-.346.631-.865 1.196-1.557l2.093-2.334 1.336-1.362c.065-.048.132-.088.203-.119a1.15 1.15 0 0 1 .227-.072c.077-.012.154-.017.231-.014s.154.021.232.043a.93.93 0 0 1 .212.095 1.18 1.18 0 0 1 .188.143 1.19 1.19 0 0 1 .145.186.92.92 0 0 1 .096.209c.022.077.037.153.043.229a1.04 1.04 0 0 1-.014.229c-.016.076-.04.15-.072.223a1.11 1.11 0 0 1-.121.2l-.072.091z"/><path d="M161.22 291.475l.116 1.157.082 1.348a1.21 1.21 0 0 1-.131.348 1.15 1.15 0 0 1-.236.29 1.07 1.07 0 0 1-.323.2 1.12 1.12 0 0 1-.367.091 1.16 1.16 0 0 1-.371-.033c-.122-.029-.238-.078-.347-.148a1.16 1.16 0 0 1-.28-.248 1.23 1.23 0 0 1-.183-.324c-.045-.12-.069-.243-.072-.366a1.09 1.09 0 0 1 .053-.372c.038-.121.094-.232.168-.333s.164-.189.27-.262a1.2 1.2 0 0 1 .338-.167c.119-.038.241-.054.367-.048s.252.027.371.072a1.02 1.02 0 0 1 .328.181 1.16 1.16 0 0 1 .255.281c.068.105.116.219.145.343s.044.244.034.371-.045.245-.097.362a1.09 1.09 0 0 1-.202.315 1.2 1.2 0 0 1-.294.233c-.113.06-.232.102-.357.124a1.08 1.08 0 0 1-.376.009c-.123-.016-.241-.052-.357-.109s-.214-.13-.304-.219-.164-.189-.222-.3a1.27 1.27 0 0 1-.111-.358l-.024-.19-.058-.943-.067-1.077c-.004-.088.003-.177.019-.266s.048-.17.087-.253.087-.158.144-.228.124-.134.198-.191.15-.098.236-.133.171-.061.261-.076a1.08 1.08 0 0 1 .265-.015 1.35 1.35 0 0 1 .27.057.92.92 0 0 1 .246.115c.077.047.148.103.212.166s.119.139.164.215a1.01 1.01 0 0 1 .111.247l.039.134z"/><path d="M159.164 292.57l.015.252c.009.169-.021.329-.092.481a1.04 1.04 0 0 1-.309.386c-.135.105-.283.173-.453.205-.164.028-.328.017-.492-.033a1 1 0 0 1-.424-.253c-.122-.121-.208-.26-.256-.419a1.04 1.04 0 0 1-.034-.486 1 1 0 0 1 .208-.448c.106-.133.236-.235.39-.304a1.05 1.05 0 0 1 .487-.091 1.07 1.07 0 0 1 .473.148c.148.089.265.205.352.347l.135.215zm-1.362-1.83l-.815.143c-.547.095-1.286.324-2.219.686l-1.572.576a1.06 1.06 0 0 1-.342.01c-.113-.013-.221-.045-.324-.096a1.15 1.15 0 0 1-.279-.195c-.081-.079-.147-.17-.198-.271a1.04 1.04 0 0 1-.101-.32c-.016-.114-.015-.227.005-.338a1.03 1.03 0 0 1 .115-.314c.054-.098.129-.186.212-.262a1.13 1.13 0 0 1 .285-.186c.103-.048.217-.071.333-.081a1.13 1.13 0 0 1 .337.024 1.12 1.12 0 0 1 .314.133c.096.061.182.135.255.224a1.09 1.09 0 0 1 .169.291 1.01 1.01 0 0 1 .063.328c.006.115-.008.226-.043.334a.98.98 0 0 1-.15.3c-.064.095-.143.176-.236.243s-.195.116-.304.147-.222.051-.338.048a1.06 1.06 0 0 1-.332-.062 1.03 1.03 0 0 1-.299-.162.97.97 0 0 1-.227-.247 1.02 1.02 0 0 1-.14-.31c-.026-.111-.035-.222-.029-.333a1.06 1.06 0 0 1 .082-.329.96.96 0 0 1 .183-.281c.074-.086.161-.157.261-.214l.149-.086 1.582-.553 2.402-.719.945-.167c.08-.006.162-.001.246.015a1.17 1.17 0 0 1 .236.071 1.1 1.1 0 0 1 .217.129c.068.051.127.109.179.176a1 1 0 0 1 .13.21c.035.076.061.155.077.238s.021.16.015.243a.93.93 0 0 1-.044.243 1.02 1.02 0 0 1-.101.223 1.17 1.17 0 0 1-.154.2c-.061.058-.127.108-.198.153a1.16 1.16 0 0 1-.227.1l-.12.038zm38.466-7.225l1.066.819c.707.546 1.467 1.308 2.281 2.286s1.63 2.08 2.45 3.306a33.63 33.63 0 0 1 2.112 3.61l1.365 2.815c.315.702.55 1.389.704 2.062s.243 1.466.265 2.377l-.058 2.863-.236 2.734-.183 2.5-.072 1.372c-.02.079-.052.154-.097.224s-.1.13-.164.181-.135.09-.212.119a.83.83 0 0 1-.246.047.69.69 0 0 1-.241-.033.78.78 0 0 1-.222-.11c-.068-.047-.125-.104-.174-.171a.78.78 0 0 1-.111-.219.74.74 0 0 1-.033-.238.67.67 0 0 1 .048-.238.81.81 0 0 1 .12-.215c.051-.064.113-.117.184-.162a.75.75 0 0 1 .226-.095c.081-.019.163-.025.246-.019a.72.72 0 0 1 .237.057.67.67 0 0 1 .207.134c.064.054.116.115.154.185a.76.76 0 0 1 .087.229c.016.082.018.163.005.243a.68.68 0 0 1-.072.233c-.036.073-.082.14-.14.2a.79.79 0 0 1-.203.138.69.69 0 0 1-.236.072c-.08.013-.162.011-.246-.005a.72.72 0 0 1-.227-.086c-.074-.038-.138-.089-.193-.152a.7.7 0 0 1-.135-.205c-.032-.073-.051-.151-.057-.233l-.01-.124.164-1.262.299-2.477.217-2.648.053-2.686c-.023-.836-.092-1.545-.207-2.129s-.33-1.223-.642-1.906l-1.331-2.705c-.572-1.127-1.259-2.281-2.059-3.463l-2.32-3.11c-.749-.892-1.484-1.603-2.204-2.134l-1.143-.852a.69.69 0 0 1-.111-.143c-.035-.051-.061-.105-.077-.162a.88.88 0 0 1-.039-.176.81.81 0 0 1 .01-.176c.01-.058.027-.115.053-.172a.61.61 0 0 1 .092-.152c.035-.051.077-.096.125-.134a1.01 1.01 0 0 1 .154-.095.72.72 0 0 1 .174-.052c.061-.013.121-.018.178-.015a.88.88 0 0 1 .179.029c.058.019.114.043.169.071l.077.048zm-28.281 3.877l-1.225.247c-.82.165-1.535.443-2.146.834s-1.106.786-1.495 1.176-.73.859-1.032 1.405l-.535.939a.86.86 0 0 1-.208.209c-.08.057-.167.1-.26.129a.91.91 0 0 1-.294.043c-.099-.003-.193-.018-.29-.053s-.178-.078-.255-.138-.143-.132-.198-.214a.92.92 0 0 1-.121-.267 1.01 1.01 0 0 1-.024-.29c.007-.096.029-.189.068-.282a.92.92 0 0 1 .154-.242c.068-.077.143-.139.227-.186a.87.87 0 0 1 .275-.105.91.91 0 0 1 .294-.009c.1.012.194.039.284.08s.168.101.242.167.128.149.173.238.074.178.087.277a.97.97 0 0 1-.005.29.93.93 0 0 1-.101.272.83.83 0 0 1-.178.228c-.074.067-.156.119-.246.157a.8.8 0 0 1-.285.072c-.1.009-.198.003-.294-.019a.89.89 0 0 1-.27-.11c-.084-.054-.158-.119-.222-.195a.81.81 0 0 1-.145-.248c-.035-.092-.056-.187-.062-.285a.87.87 0 0 1 .038-.291l.044-.138.675-1.01c.45-.676.91-1.246 1.379-1.71s1.092-.96 1.857-1.481 1.556-.895 2.373-1.134l1.345-.376c.084-.009.166-.009.246 0a.9.9 0 0 1 .241.062.93.93 0 0 1 .222.114c.071.045.133.099.188.162s.106.129.145.205.069.149.091.229a1.04 1.04 0 0 1 .029.247c0 .08-.009.159-.029.239a1.07 1.07 0 0 1-.086.233 1.02 1.02 0 0 1-.145.205c-.055.063-.116.119-.183.166s-.145.086-.222.115l-.121.043zm-8.828 10.003l-.255 1.61-.536 3.4-.405 2.939-.164 2.262-.062 1.248a.81.81 0 0 1-.102.257.73.73 0 0 1-.183.205c-.071.061-.149.108-.236.143s-.177.054-.27.057a.91.91 0 0 1-.526-.143c-.077-.05-.145-.112-.202-.185a1.04 1.04 0 0 1-.131-.243c-.029-.089-.043-.18-.043-.272s.016-.182.048-.271.071-.165.126-.238a.94.94 0 0 1 .202-.191c.077-.051.161-.089.251-.114s.181-.032.275-.029a1.03 1.03 0 0 1 .27.057c.087.035.167.083.241.143a.87.87 0 0 1 .178.21.81.81 0 0 1 .102.252.89.89 0 0 1 .014.277.9.9 0 0 1-.072.262c-.042.082-.095.157-.159.223a.92.92 0 0 1-.217.167c-.084.045-.172.073-.266.086s-.185.016-.275 0-.181-.041-.265-.086a.92.92 0 0 1-.217-.167.81.81 0 0 1-.154-.223c-.042-.086-.068-.175-.077-.267l-.015-.138.116-1.134.193-2.324.275-2.987.357-3.419.183-1.734c.019-.079.048-.154.087-.224a1.06 1.06 0 0 1 .14-.2c.055-.06.115-.114.183-.162a1.05 1.05 0 0 1 .217-.109 1.02 1.02 0 0 1 .241-.058 1.08 1.08 0 0 1 .241 0 1.02 1.02 0 0 1 .236.058c.078.028.15.066.218.114a1.18 1.18 0 0 1 .183.162 1.01 1.01 0 0 1 .14.2.99.99 0 0 1 .086.229c.02.079.029.157.029.233v.124zm31.569-8.671l.16 1.515c.109 1.013.147 2.091.115 3.234l-.178 3.143-.347 2.434c-.145.664-.248 1.315-.309 1.953l-.13 1.086c-.029.086-.071.165-.126.238a.81.81 0 0 1-.193.186.76.76 0 0 1-.246.119.86.86 0 0 1-.27.033c-.093-.006-.183-.025-.27-.057a.94.94 0 0 1-.236-.133c-.071-.06-.13-.129-.178-.205a.76.76 0 0 1-.102-.248.77.77 0 0 1-.019-.271c.006-.089.029-.176.068-.262a.84.84 0 0 1 .149-.224c.061-.067.137-.122.217-.167a.83.83 0 0 1 .256-.09c.093-.016.185-.016.275 0a.87.87 0 0 1 .26.081c.08.041.151.095.212.162a.81.81 0 0 1 .159.219.87.87 0 0 1 .077.262.83.83 0 0 1-.014.267.74.74 0 0 1-.096.252c-.045.079-.103.149-.174.21a.79.79 0 0 1-.227.142.8.8 0 0 1-.265.058c-.093.006-.185-.002-.275-.024a.8.8 0 0 1-.246-.11.83.83 0 0 1-.202-.186c-.058-.069-.102-.147-.131-.233a.76.76 0 0 1-.048-.267v-.138l.203-.976.386-1.886c.125-.604.215-1.366.27-2.286l.067-2.977c-.01-1.061-.098-2.093-.265-3.096l-.251-1.624c0-.073.01-.148.029-.224s.042-.148.077-.215a.94.94 0 0 1 .13-.19 1 1 0 0 1 .174-.157 1.08 1.08 0 0 1 .203-.11 1 1 0 0 1 .226-.057c.077-.009.153-.009.227 0a.82.82 0 0 1 .227.052c.074.026.143.059.207.101a1.12 1.12 0 0 1 .178.152c.052.057.097.119.135.186s.063.141.082.214l.029.114zm3.785-2.305l.101 1.01.13 2.453.034 2.843-.116 2.548-.178 1.968-.053 1.414.029 1.181c.012.397-.148.969-.483 1.715s-.546 1.143-.646 1.181a1.03 1.03 0 0 1-.309.067c-.109.006-.215-.005-.318-.033s-.199-.074-.289-.134-.163-.132-.227-.214a1.04 1.04 0 0 1-.149-.281.83.83 0 0 1-.049-.31.99.99 0 0 1 .049-.309c.035-.099.085-.191.149-.277a.97.97 0 0 1 .232-.214c.09-.06.186-.103.289-.129s.207-.039.313-.033.214.026.314.067a.88.88 0 0 1 .265.162 1.21 1.21 0 0 1 .207.238c.057.089.094.189.116.29a.93.93 0 0 1 .015.315c-.01.105-.039.206-.087.305a.95.95 0 0 1-.179.257c-.074.076-.156.14-.246.19a1.11 1.11 0 0 1-.303.1c-.103.016-.208.015-.314-.004a.98.98 0 0 1-.304-.1c-.093-.048-.177-.112-.25-.191a.95.95 0 0 1-.179-.257c-.045-.099-.072-.2-.082-.305s-.008-.208.015-.31a1.05 1.05 0 0 1 .12-.295c.055-.089.124-.168.208-.238l.12-.1.053-.305c.039-.203.076-.513.111-.929l.135-1.238.203-1.424.178-1.867a24.4 24.4 0 0 0 .015-2.444l-.155-2.724c-.067-.895-.169-1.676-.304-2.343l-.207-1.124c-.003-.077.003-.154.019-.234a.97.97 0 0 1 .082-.228.98.98 0 0 1 .135-.205.89.89 0 0 1 .179-.167c.064-.047.135-.087.212-.119a1.04 1.04 0 0 1 .236-.062.98.98 0 0 1 .241-.009 1.21 1.21 0 0 1 .242.052 1.08 1.08 0 0 1 .217.11 1 1 0 0 1 .188.152 1.07 1.07 0 0 1 .149.195 1.23 1.23 0 0 1 .092.224l.034.119zm-23.617 1.261l.255 1.072c.168.721.285 1.614.353 2.681l.13 2.92.077 2.072.145 2.115.062 1.514a.93.93 0 0 1-.101.305.89.89 0 0 1-.193.253.91.91 0 0 1-.265.181 1.01 1.01 0 0 1-.314.09 1 1 0 0 1-.323-.014c-.106-.026-.206-.065-.299-.119a.94.94 0 0 1-.251-.205c-.07-.083-.127-.173-.168-.272s-.061-.206-.068-.314a.88.88 0 0 1 .029-.319 1.04 1.04 0 0 1 .135-.291 1.02 1.02 0 0 1 .222-.233c.087-.064.182-.113.284-.148a1.07 1.07 0 0 1 .319-.057c.11-.003.217.018.323.053s.198.081.284.147a1.03 1.03 0 0 1 .227.229.97.97 0 0 1 .135.29 1.08 1.08 0 0 1 .039.319 1.01 1.01 0 0 1-.068.31 1 1 0 0 1-.169.276.92.92 0 0 1-.241.21c-.093.057-.194.097-.304.119a.92.92 0 0 1-.323.019.98.98 0 0 1-.308-.081 1.11 1.11 0 0 1-.27-.181.93.93 0 0 1-.198-.252c-.052-.096-.087-.196-.106-.3l-.029-.162.058-1.339.062-2.081-.077-2.029-.241-2.696c-.103-.946-.275-1.767-.516-2.462l-.386-1.167a1.03 1.03 0 0 1-.009-.248 1.2 1.2 0 0 1 .053-.248c.029-.082.066-.158.111-.228s.102-.138.164-.196a.89.89 0 0 1 .207-.152c.074-.044.153-.078.236-.1a1.14 1.14 0 0 1 .251-.038 1.12 1.12 0 0 1 .251.019c.087.019.169.046.246.081a1.06 1.06 0 0 1 .217.138 1.05 1.05 0 0 1 .178.181c.052.07.093.145.126.224l.048.114zm3.971 1.745l.26.753c.174.508.289 1.208.347 2.1l.102 2.644.009 2.41.058 2.448.044 1.477a.76.76 0 0 1-.087.261c-.042.08-.097.153-.164.22s-.143.114-.227.152a.77.77 0 0 1-.265.076c-.093.013-.187.01-.28-.009s-.175-.053-.256-.1a.88.88 0 0 1-.212-.177c-.061-.069-.109-.146-.144-.228a.83.83 0 0 1-.063-.267.85.85 0 0 1 .024-.271.95.95 0 0 1 .116-.253.85.85 0 0 1 .188-.2.79.79 0 0 1 .241-.128c.09-.032.182-.048.275-.048a.89.89 0 0 1 .275.043.92.92 0 0 1 .246.124.79.79 0 0 1 .188.195c.054.076.095.159.12.248a.89.89 0 0 1 .034.271.75.75 0 0 1-.058.267.8.8 0 0 1-.14.238.89.89 0 0 1-.207.176.92.92 0 0 1-.256.105.85.85 0 0 1-.279.019.86.86 0 0 1-.266-.071c-.086-.039-.163-.089-.231-.153a.89.89 0 0 1-.169-.214.86.86 0 0 1-.091-.257l-.025-.139.034-1.333-.005-2.429-.12-2.348-.208-2.372c-.09-.746-.218-1.372-.385-1.877l-.27-.867c-.017-.073-.023-.147-.02-.224a.85.85 0 0 1 .039-.223c.019-.073.048-.143.087-.21a.82.82 0 0 1 .14-.181 1 1 0 0 1 .178-.148c.067-.038.138-.069.212-.095a.99.99 0 0 1 .227-.048.87.87 0 0 1 .222.01c.077.013.152.035.226.067a.86.86 0 0 1 .198.114 1.19 1.19 0 0 1 .169.157c.052.06.088.124.12.191l.049.104z"/><path d="M174.579 300.007l1.273-.038 2.566-.028 2.132-.015c.566-.016 1.065-.003 1.5.038a11.01 11.01 0 0 0 1.225.053c.382-.007.958.073 1.726.238l1.331.324c.122.051.232.119.328.205s.177.189.241.3a1.17 1.17 0 0 1 .13.352 1.25 1.25 0 0 1 .01.381c-.019.13-.058.253-.116.367s-.133.217-.226.31a1.32 1.32 0 0 1-.314.219 1.2 1.2 0 0 1-.371.109 1.14 1.14 0 0 1-.386-.009c-.129-.026-.249-.07-.362-.134a1.21 1.21 0 0 1-.299-.238 1.16 1.16 0 0 1-.207-.324 1.12 1.12 0 0 1-.092-.371 1.2 1.2 0 0 1 .034-.381 1.02 1.02 0 0 1 .15-.343c.07-.108.157-.203.26-.286s.215-.141.338-.186.249-.066.381-.066a1.29 1.29 0 0 1 .381.052 1.18 1.18 0 0 1 .347.171 1.07 1.07 0 0 1 .27.267c.077.105.135.218.173.338a1.18 1.18 0 0 1 .049.381c-.003.13-.028.251-.073.372s-.112.232-.193.333a1.27 1.27 0 0 1-.289.253 1.18 1.18 0 0 1-.357.152c-.125.029-.254.038-.386.029l-.193-.019-1.171-.348-2.065-.548c-.594-.136-1.17-.2-1.726-.19l-2.064.104-2.508.258-1.403.162c-.094-.004-.184-.018-.271-.043s-.173-.062-.25-.11a1.34 1.34 0 0 1-.222-.162 1.41 1.41 0 0 1-.174-.209c-.048-.077-.087-.158-.116-.243a1.14 1.14 0 0 1-.053-.267c-.009-.086-.006-.173.01-.262a1.2 1.2 0 0 1 .077-.262c.036-.082.081-.16.135-.233s.119-.138.193-.196a1.11 1.11 0 0 1 .232-.142c.084-.038.17-.07.26-.086l.135-.029zm-4.888.099l-1.172-.038-2.836-.014-3.082.071c-.948.035-1.969.141-3.062.319l-1.77.262c-.09-.003-.177-.019-.26-.048a.89.89 0 0 1-.232-.128.79.79 0 0 1-.173-.195c-.049-.073-.084-.153-.107-.239s-.029-.173-.019-.261a.79.79 0 0 1 .063-.253c.035-.079.082-.152.14-.219a.72.72 0 0 1 .207-.162c.077-.041.159-.07.246-.086s.175-.019.265-.009.171.038.251.076.151.087.212.148.116.133.155.209.069.164.082.253a.89.89 0 0 1-.01.257.75.75 0 0 1-.092.248.74.74 0 0 1-.164.204.76.76 0 0 1-.222.138c-.08.035-.165.056-.255.062a.69.69 0 0 1-.261-.019c-.086-.022-.168-.057-.246-.104a.8.8 0 0 1-.197-.172.88.88 0 0 1-.13-.229c-.029-.082-.045-.166-.049-.252s.008-.176.034-.262a.73.73 0 0 1 .121-.233c.055-.073.112-.131.183-.181a.86.86 0 0 1 .236-.115l.13-.038 1.713-.19 3.149-.286 3.12-.171 2.86-.115 1.278-.028c.074.009.146.027.217.052a1.16 1.16 0 0 1 .193.105c.061.041.116.089.164.143a.83.83 0 0 1 .125.176.81.81 0 0 1 .077.205c.02.073.029.144.029.214s-.009.145-.029.214a.81.81 0 0 1-.077.205c-.032.064-.074.122-.125.176s-.103.102-.164.143a1.03 1.03 0 0 1-.193.105c-.071.025-.143.043-.217.052l-.106.01zm23.453 1.339l.762.004 1.688.081 1.708.2c.53.08 1.104.218 1.721.415s1.188.344 1.712.443l1.626.238 1.003.128c.109.029.21.075.304.139a1.02 1.02 0 0 1 .246.223c.067.089.119.186.154.291s.058.214.058.329a1.01 1.01 0 0 1-.053.323 1.02 1.02 0 0 1-.155.291c-.07.089-.152.165-.246.229a.99.99 0 0 1-.299.138 1.01 1.01 0 0 1-.332.038 1.06 1.06 0 0 1-.328-.072.94.94 0 0 1-.29-.166c-.083-.073-.156-.157-.217-.253s-.098-.197-.12-.305a.95.95 0 0 1-.02-.328c.01-.111.039-.218.087-.319a1.11 1.11 0 0 1 .188-.277 1.12 1.12 0 0 1 .579-.304 1.01 1.01 0 0 1 .338 0 .91.91 0 0 1 .313.104 1.03 1.03 0 0 1 .27.2 1.01 1.01 0 0 1 .188.272.89.89 0 0 1 .087.314 1.07 1.07 0 0 1-.352.891c-.087.073-.183.13-.289.171s-.211.065-.323.072l-.169.009-.921-.147-1.799-.315-1.698-.376-1.5-.338a10.65 10.65 0 0 0-1.533-.143l-1.626-.024c-.508.003-.805 0-.892-.009a1.48 1.48 0 0 1-.255-.062c-.084-.032-.163-.073-.237-.124a1.09 1.09 0 0 1-.197-.172.88.88 0 0 1-.15-.219c-.042-.076-.074-.157-.096-.243a1.12 1.12 0 0 1-.029-.257 1.13 1.13 0 0 1 .029-.257c.022-.086.054-.167.096-.243s.088-.152.15-.219a1.1 1.1 0 0 1 .197-.171 1.16 1.16 0 0 1 .237-.124.99.99 0 0 1 .255-.062l.13-.014z"/><path d="M187.103 300.553l1.066-.024h1.249a1.26 1.26 0 0 1 .357.119c.113.06.212.135.299.224a1.19 1.19 0 0 1 .212.309 1.2 1.2 0 0 1 .102.358c.013.12.005.241-.024.362s-.071.238-.135.343a1.21 1.21 0 0 1-.246.285c-.096.082-.203.143-.319.191s-.241.071-.366.081a1.07 1.07 0 0 1-.376-.043 1.1 1.1 0 0 1-.338-.157c-.103-.073-.198-.154-.275-.253s-.135-.208-.174-.328-.062-.238-.062-.362a1.09 1.09 0 0 1 .062-.362 1.06 1.06 0 0 1 .174-.329 1.16 1.16 0 0 1 .275-.252c.103-.073.215-.126.338-.157a1.08 1.08 0 0 1 .376-.039 1.22 1.22 0 0 1 .366.077 1.24 1.24 0 0 1 .319.19 1.27 1.27 0 0 1 .246.286 1.08 1.08 0 0 1 .135.343c.029.12.037.243.024.367a1.19 1.19 0 0 1-.102.352c-.054.114-.125.218-.212.31s-.186.163-.299.223-.231.097-.357.12l-.183.028-1.066-.028-1.196-.043a1.04 1.04 0 0 1-.26-.062 1.22 1.22 0 0 1-.241-.124c-.074-.051-.14-.11-.198-.176a1.06 1.06 0 0 1-.154-.215c-.042-.079-.073-.162-.092-.247a1.24 1.24 0 0 1-.034-.262 1.03 1.03 0 0 1 .034-.262c.023-.086.05-.169.092-.248a.91.91 0 0 1 .154-.214c.058-.067.124-.126.198-.176a1.17 1.17 0 0 1 .241-.124c.083-.032.17-.053.26-.062l.13-.019zm-11.371 4.8l1.63.034 3.685-.096 3.409-.319 2.392-.343 1.148-.143a.7.7 0 0 1 .217.034c.074.025.14.062.198.109a.64.64 0 0 1 .154.162.63.63 0 0 1 .092.2c.022.073.03.146.024.219s-.019.15-.048.219a.75.75 0 0 1-.116.186.72.72 0 0 1-.174.143c-.064.038-.133.065-.207.081s-.153.019-.227.01a.68.68 0 0 1-.217-.058.65.65 0 0 1-.183-.128.66.66 0 0 1-.135-.176c-.035-.067-.059-.137-.072-.21a.73.73 0 0 1 .005-.224c.012-.073.037-.143.072-.209a.65.65 0 0 1 .135-.177.79.79 0 0 1 .188-.123c.071-.029.143-.048.217-.058a.67.67 0 0 1 .227.015c.074.016.143.044.207.085a.66.66 0 0 1 .169.143.73.73 0 0 1 .116.191c.025.07.04.143.043.219s-.005.146-.024.219a.63.63 0 0 1-.097.2.76.76 0 0 1-.154.162c-.061.048-.127.078-.198.1l-.111.033-1.027.177-2.445.404-3.525.41-3.738.21-1.731.023c-.071-.009-.14-.027-.208-.052s-.127-.057-.188-.095a.73.73 0 0 1-.154-.138c-.045-.05-.089-.112-.121-.172a1 1 0 0 1-.077-.195c-.019-.067-.024-.135-.024-.205s.008-.138.024-.205a.9.9 0 0 1 .077-.195.86.86 0 0 1 .121-.171c.045-.051.096-.097.154-.139a1.23 1.23 0 0 1 .188-.095c.068-.025.137-.043.208-.052l.101-.01z"/><path d="M176.168 305.71l.675.838c.447.562.874 1.03 1.283 1.405s.803.632 1.186.772.85.254 1.403.333l1.703.186c.582.041 1.07-.014 1.466-.167s.801-.449 1.215-.891a16.06 16.06 0 0 0 1.119-1.319l.603-.791a1.1 1.1 0 0 1 .26-.219 1.06 1.06 0 0 1 .319-.128c.112-.026.226-.032.342-.019a1.18 1.18 0 0 1 .333.085c.103.048.198.112.284.191a1.09 1.09 0 0 1 .208.267c.054.098.091.203.111.314a1.01 1.01 0 0 1 0 .338c-.016.115-.052.223-.106.324a1.08 1.08 0 0 1-.208.272c-.083.079-.177.142-.279.19a1.11 1.11 0 0 1-.328.091c-.116.012-.23.008-.343-.015a1.1 1.1 0 0 1-.323-.124c-.096-.057-.183-.13-.26-.219s-.134-.181-.179-.285a1.2 1.2 0 0 1-.077-.334c-.006-.114.006-.225.039-.333s.075-.21.139-.305.144-.178.237-.248a.95.95 0 0 1 .299-.157 1.02 1.02 0 0 1 .337-.057c.116-.003.23.014.343.052s.209.088.299.158.173.147.241.242.112.196.145.301a.99.99 0 0 1 .038.338c-.006.114-.03.224-.072.328l-.063.162-.593.748-1.119 1.329c-.354.387-.744.686-1.172.895s-.947.397-1.548.553-1.222.213-1.861.181l-2.05-.181c-.724-.092-1.354-.27-1.891-.534s-1.043-.605-1.519-1.024l-1.461-1.4-.83-.876a1.01 1.01 0 0 1-.115-.224.96.96 0 0 1-.058-.243.99.99 0 0 1 0-.243c.009-.083.03-.164.062-.243a1.05 1.05 0 0 1 .116-.219c.048-.07.105-.132.169-.186a1.27 1.27 0 0 1 .212-.143 1 1 0 0 1 .237-.085 1.06 1.06 0 0 1 .245-.029.98.98 0 0 1 .251.033 1 1 0 0 1 .237.091c.074.038.143.086.207.143l.092.081z"/></g><path d="M160.806 238.801l.087-1.224.275-2.644c.122-.946.406-1.97.853-3.072s.91-1.989 1.389-2.662l1.765-2.253c.695-.829 1.359-1.527 1.992-2.096s1.432-1.13 2.407-1.686l2.667-1.371c.803-.359 1.604-.667 2.401-.924a15.82 15.82 0 0 1 2.658-.581c.971-.134 1.905-.212 2.802-.234l2.454-.052c.743-.013 1.68.043 2.812.166s2.185.35 3.169.667l2.474.934c.665.301 1.516.825 2.551 1.572l2.324 1.805 1.703 1.624 1.818 1.924c.588.657 1.145 1.413 1.669 2.267s.958 1.774 1.302 2.758l.969 2.977c.299.997.474 1.84.526 2.529s.022 1.484-.087 2.377-.448 1.678-1.018 2.367-1.34 1.179-2.324 1.481-2.188.518-3.622.648l-3.535.195a140.47 140.47 0 0 1-2.653-.024l-2.594-.057-2.894-.19-3.188-.324-3.226-.358-2.783-.276-2.271-.257-2.759-.524a20.55 20.55 0 0 1-3.429-1.072 11.54 11.54 0 0 1-3.221-1.976c-.971-.838-1.574-1.674-1.809-2.505s-.215-1.728.068-2.677a6.17 6.17 0 0 1 1.442-2.515l2.049-1.967 2.122-1.696c.737-.546 1.548-1.036 2.436-1.471s1.808-.77 2.763-1.005a17.79 17.79 0 0 1 3-.462c1.042-.07 2.194-.032 3.458.114l3.409.548 3.357.847c1.228.353 2.244.753 3.048 1.201s1.617 1.016 2.45 1.705 1.633 1.495 2.411 2.419 1.433 1.947 1.963 3.068.751 2.354.661 3.691-.492 2.319-1.196 2.939-1.907.933-3.598.933-3.429-.205-5.213-.605l-5.209-1.214-4.61-1.129-3.227-.672c-.768-.101-1.31-.22-1.625-.357l-.699-.286a1.96 1.96 0 0 1-.429-.204c-.136-.086-.258-.186-.367-.301s-.204-.239-.285-.376a1.81 1.81 0 0 1-.183-.428c-.042-.153-.066-.308-.072-.467s.008-.315.043-.467a1.83 1.83 0 0 1 .155-.448c.067-.143.152-.274.255-.395a2.09 2.09 0 0 1 .347-.324 2.19 2.19 0 0 1 .415-.233c.148-.061.301-.102.458-.124a1.96 1.96 0 0 1 .478-.019c.157.016 1.173-.494 3.048-1.529s3.596-1.704 5.175-1.996 2.924-.419 4.046-.381 2.173.604 3.164 1.705 1.298 1.952.925 2.558-1.454 1.011-3.255 1.224-4.02.272-6.67.167l-6.641-.243-3.385-.148-.931-.081c-.141-.019-.278-.055-.41-.109s-.26-.118-.376-.2a1.58 1.58 0 0 1-.318-.281c-.094-.108-.172-.226-.237-.353s-.112-.255-.144-.395a1.51 1.51 0 0 1-.049-.419c.004-.14.023-.278.058-.415a1.82 1.82 0 0 1 .155-.395 1.68 1.68 0 0 1 .246-.343 1.61 1.61 0 0 1 .323-.271c.119-.08.246-.145.381-.196a1.91 1.91 0 0 1 .414-.095l2.137-.295 5.662-.529c2.492-.168 4.54-.197 6.144-.086l2.281.234c-.08.047-.059.078.063.09a1.49 1.49 0 0 1 .352.081 1.47 1.47 0 0 1 .328.167c.103.067.196.144.28.233a1.71 1.71 0 0 1 .207.296c.061.108.106.22.135.338s.048.236.048.357-.009.241-.038.362a1.56 1.56 0 0 1-.126.338c-.054.108-.122.208-.202.3a1.45 1.45 0 0 1-.275.243 1.56 1.56 0 0 1-.319.172c-.115.044-.234.074-.356.09s-.753.137-1.891.362-2.865.408-5.18.548l-5.165.443-1.881.228a1.47 1.47 0 0 1-.352-.062c-.115-.034-.225-.082-.328-.142s-.196-.134-.279-.219a1.31 1.31 0 0 1-.222-.277c-.064-.101-.114-.208-.15-.319s-.061-.23-.067-.348a1.6 1.6 0 0 1 .019-.352 1.58 1.58 0 0 1 .106-.338c.048-.108.11-.21.184-.305s.157-.175.25-.248.195-.135.304-.185a1.55 1.55 0 0 1 .343-.105c.118-.022 1.56.012 4.326.105l8.434.262 6.376.271 2.257.176a1.4 1.4 0 0 1 .318.086 1.07 1.07 0 0 1 .285.157 1.36 1.36 0 0 1 .241.219 1.18 1.18 0 0 1 .183.272 1.41 1.41 0 0 1 .111.305 1.36 1.36 0 0 1 .029.323 1.2 1.2 0 0 1-.043.32 1.25 1.25 0 0 1-.126.304 1.35 1.35 0 0 1-.192.262 1.3 1.3 0 0 1-.251.21c-.093.06-.192.108-.294.143a1.21 1.21 0 0 1-.324.071c-.109.01-1.242.278-3.4.805s-4.461.719-6.901.576-4.102-.346-4.977-.609l-1.509-.429c-.129-.022-.253-.059-.372-.109a1.51 1.51 0 0 1-.333-.196 1.47 1.47 0 0 1-.274-.266 1.72 1.72 0 0 1-.203-.324c-.055-.118-.095-.24-.121-.367s-.03-.254-.024-.381.029-.252.068-.376a1.71 1.71 0 0 1 .154-.353 1.79 1.79 0 0 1 .236-.3c.094-.092.195-.171.304-.238s.23-.121.352-.162a1.74 1.74 0 0 1 .381-.071c.129-.01.745-.186 1.847-.529s2.833-.645 5.199-.905 4.098-.338 5.204-.243l1.838.148c.119 0 .236.016.352.047a1.58 1.58 0 0 1 .332.124 1.46 1.46 0 0 1 .29.205c.09.079.169.168.236.267a1.27 1.27 0 0 1 .159.314c.042.108.069.221.082.338a1.6 1.6 0 0 1 0 .353c-.016.117-.046.232-.091.343s-.098.211-.169.309-.147.183-.237.262-.189.142-.299.195a1.42 1.42 0 0 1-.332.12l-3.309.866c-2.086.547-4.038.442-5.855-.314s-2.663-1.746-2.541-2.972 1.122-2.119 3.009-2.691 3.731-.843 5.542-.814 2.845.169 3.105.414.459.373.594.386.262.046.39.09.249.108.362.181a1.7 1.7 0 0 1 .304.262c.09.099.167.207.231.324s.114.241.15.371a1.83 1.83 0 0 1 .053.396 1.81 1.81 0 0 1-.044.395 1.75 1.75 0 0 1-.139.376c-.061.118-.135.227-.222.329s-.19.191-.299.267-.232.143-.357.19-.256.081-.391.1-.849.159-2.151.419-3.064.377-5.295.348-3.804-.205-4.717-.519l-1.553-.495a1.41 1.41 0 0 1-.357-.096 1.43 1.43 0 0 1-.327-.171c-.103-.073-.195-.156-.275-.248a1.73 1.73 0 0 1-.208-.305 1.72 1.72 0 0 1-.125-.343c-.029-.12-.044-.242-.044-.366a1.51 1.51 0 0 1 .054-.362 1.57 1.57 0 0 1 .135-.343c.057-.108.13-.208.217-.3s.176-.169.279-.238.213-.123.328-.167.24-.068.362-.081.924-.487 2.397-1.424l2.831-1.658c.408-.168.686-.266.834-.295a1.73 1.73 0 0 1 .444-.038c.148.006.294.029.439.067a1.87 1.87 0 0 1 .41.171c.128.073.247.16.357.262s.204.214.284.338a1.94 1.94 0 0 1 .193.4c.048.14.079.283.092.429a2.01 2.01 0 0 1-.02.438 1.74 1.74 0 0 1-.12.424c-.058.137-.132.264-.222.381s-.191.224-.304.319a1.94 1.94 0 0 1-.376.234c-.135.066-.68.074-1.635.023l-3.091-.133c-1.103-.044-1.248.019-.434.191s1.686.443 2.618.824a14.94 14.94 0 0 0 2.957.857c1.041.19 2.099.319 3.173.386s2.037.189 2.898.376 1.536.768 2.031 1.743.569 1.875.231 2.701c-.337.832-.834 1.505-1.49 2.019l-1.273 1.048c-.19.181-.378.318-.564.41a2.53 2.53 0 0 1-1.201.262c-.209-.004-.415-.032-.618-.086a2.54 2.54 0 0 1-.573-.234 2.38 2.38 0 0 1-.502-.357 2.74 2.74 0 0 1-.405-.471 2.65 2.65 0 0 1-.275-.548 2.66 2.66 0 0 1-.135-.6 2.64 2.64 0 0 1 .014-.615c.033-.203.087-.4.164-.59s.179-.368.304-.534.262-.314.42-.447.652-.378 1.476-.734 1.724-.592 2.705-.709 1.561-.12 1.741-.015.38.157.598.157.429.026.642.077a2.6 2.6 0 0 1 .602.228 2.54 2.54 0 0 1 .531.362c.164.143.307.302.429.477s.227.366.304.566.129.402.154.615a2.62 2.62 0 0 1 0 .638 2.54 2.54 0 0 1-.154.619c-.077.2-.178.389-.304.567s-.264.337-.424.476-.343.264-.536.362a2.6 2.6 0 0 1-.602.229c-.213.051-.285-.327-.217-1.134s.612-1.1 1.634-.89l2.653.624c.752.206 1.472.347 2.161.423l2.787.258 3.096.2 2.421.033c.717-.022 1.539-.089 2.465-.2s1.689-.111 2.29 0 1.01.217 1.225.319.42.227.603.376a3.15 3.15 0 0 1 .497.51c.142.19.26.395.357.614a2.84 2.84 0 0 1 .193.677 2.95 2.95 0 0 1 .029.709c-.02.235-.068.466-.145.691s-.18.433-.309.633-.279.383-.453.548-.365.302-.574.419a2.71 2.71 0 0 1-.656.277c-.231.066-.466.104-.704.114a3.16 3.16 0 0 1-.714-.062c-.234-.048.021-.105.767-.171s.735-.034-.043.109-1.752.173-2.923.091l-3.819-.21-3.859-.048-4.35.024-4.793-.162-3.642-.147c-.938-.007-1.781.003-2.527.028l-3.265.134-3.448.114-2.778.009-2.927-.004-3.048-.153-2.865-.228-2.922-.148-3.097-.162-2.84-.267-3.096-.314-3.569-.21-3.449-.062c-1.051-.003-2.056.004-3.014.019l-2.18.058c-.492.016-.86.009-1.104-.019a2.96 2.96 0 0 1-.714-.177 2.92 2.92 0 0 1-1.201-.819c-.16-.181-.299-.379-.414-.595a2.87 2.87 0 0 1-.261-.681c-.058-.235-.087-.475-.087-.72s.031-.484.092-.719.145-.46.26-.676a3.11 3.11 0 0 1 .42-.6c.164-.181.347-.34.55-.476a2.92 2.92 0 0 1 .651-.339 3 3 0 0 1 .714-.171c.244-.029.721.092 1.432.362s1.709.565 2.985.886 2.596.578 3.95.771l3.984.467 3.472.205 2.763-.005 2.364-.062 2.522-.043h2.816l2.576-.028 2.821-.119 2.942-.081 2.831.086 3.207.2 3.12.161 2.768.043 2.875.034 3.057.043 2.909.009 2.797-.009 2.753-.1c.914-.064 1.741-.073 2.484-.029l2.291.143 2.223.057 2.715-.1 2.137-.005c.309.048.601.145.878.291a2.97 2.97 0 0 1 .733.552c.215.226.389.478.521.758a2.91 2.91 0 0 1 .246.881 2.78 2.78 0 0 1-.054.909c-.064.302-.178.585-.342.848a2.82 2.82 0 0 1-.598.696 2.83 2.83 0 0 1-.791.471 2.81 2.81 0 0 1-.902.195c-.312.016-.619-.017-.921-.1s-.582-.209-.839-.381a2.9 2.9 0 0 1-.67-.628c-.19-.248-.335-.518-.434-.81a2.76 2.76 0 0 1 0-1.8c.099-.293.244-.561.434-.805a2.76 2.76 0 0 1 .67-.629 2.86 2.86 0 0 1 .844-.386c.299-.082.604-.114.916-.095a2.84 2.84 0 0 1 .902.195c.293.114.558.272.796.472s.437.432.598.695a2.83 2.83 0 0 1 .342.848 2.89 2.89 0 0 1 .049.914c-.036.305-.119.599-.251.881s-.301.531-.516.753a2.81 2.81 0 0 1-.738.553c-.277.146-.569.242-.878.29l-.463.076a2000.23 2000.23 0 0 0-1.775-.105l-2.898-.219-3.231-.328-3.478-.305-2.753-.1-2.802-.014c-.946-.004-1.917-.002-2.913.004l-3.077.029h-2.913l-2.841-.038-3.149-.019-3.115-.019-2.754-.005a58.13 58.13 0 0 1-2.942-.086l-2.821-.119-2.581-.028a876.45 876.45 0 0 1-2.821-.005l-2.537-.053-2.382-.09-2.807-.062c-1.032-.016-2.223.003-3.573.057l-4.384.138c-1.569.035-3.199-.147-4.891-.547l-2.898-.643a2.96 2.96 0 0 1-.714-.177c-.231-.085-.448-.197-.651-.333a3.1 3.1 0 0 1-.55-.486c-.16-.181-.299-.379-.414-.595a2.87 2.87 0 0 1-.261-.681c-.058-.235-.087-.475-.087-.72a2.89 2.89 0 0 1 .092-.719c.058-.235.145-.46.26-.676a2.99 2.99 0 0 1 .42-.595 2.69 2.69 0 0 1 .55-.481 2.92 2.92 0 0 1 .651-.339 3 3 0 0 1 .714-.171c.244-.029.612-.033 1.104-.014l2.214.066 3.183.105 3.588.162 3.781.329 3.221.514 2.86.543 2.976.495 2.734.362 2.672.253 2.846.124 2.927-.005 2.788.014 2.445.076 2.184.129 2.209.171 2.518.22c.906.082 2.064.107 3.472.076l4.596-.262 4.321-.438 4.018-.496c1.443-.184 2.692-.251 3.747-.2s1.977.032 2.758-.057 1.28-.083 1.495.019.42.227.603.376a3.15 3.15 0 0 1 .497.51c.142.19.26.395.357.614a2.84 2.84 0 0 1 .193.677c.038.235.048.47.029.705s-.068.47-.145.695-.18.433-.309.633-.279.383-.453.548-.365.302-.574.419a2.71 2.71 0 0 1-.656.277c-.231.066-.466.104-.704.114a3.16 3.16 0 0 1-.714-.062c-.234-.048-.328-.098-.279-.152s-.368-.067-1.249-.048l-2.527.067-2.643.062c-.955.015-2.108-.04-3.458-.167l-3.347-.467-2.715-.619-2.759-.81c-.913-.314-1.635-.702-2.165-1.162s-.824-1.395-.878-2.805.334-2.474 1.167-3.182c.829-.714 1.354-1.072 1.572-1.072s.429.026.642.077a2.6 2.6 0 0 1 .602.228 2.54 2.54 0 0 1 .531.362c.164.143.307.302.429.477s.227.366.304.566.129.402.154.615a2.62 2.62 0 0 1 0 .638 2.54 2.54 0 0 1-.154.619c-.077.2-.178.389-.304.567s-.264.333-.424.476-.343.264-.536.362-.39.178-.602.229-.504-.016-.873-.2-1-.169-1.881.047l-1.601.458a2.85 2.85 0 0 1-.584.204 2.5 2.5 0 0 1-.617.058c-.209-.004-.415-.032-.618-.086a2.54 2.54 0 0 1-.573-.234 2.38 2.38 0 0 1-.502-.357 2.5 2.5 0 0 1-.405-.471 2.65 2.65 0 0 1-.275-.548 2.66 2.66 0 0 1-.135-.6 2.64 2.64 0 0 1 .014-.615c.033-.203.087-.4.164-.59a2.35 2.35 0 0 1 .299-.529 2.72 2.72 0 0 1 .425-.452c.161-.134.603-.138 1.326-.015s.473.173-.762.148-2.524-.119-3.877-.281-2.724-.475-4.109-.929-2.589-1.067-3.608-1.838-1.725-1.666-2.117-2.672-.418-1.972-.077-2.896 1.185-1.559 2.522-1.905 2.407-.469 3.198-.367 1.567.322 2.339.653 1.226.481 1.374.452a1.73 1.73 0 0 1 .444-.038c.148.006.294.029.439.067a1.87 1.87 0 0 1 .41.171c.128.073.247.16.357.262s.204.214.284.338a1.94 1.94 0 0 1 .193.4c.048.14.079.283.092.429a2.01 2.01 0 0 1-.02.438 1.74 1.74 0 0 1-.12.424c-.058.137-.132.264-.222.381s-.191.224-.304.319a1.94 1.94 0 0 1-.376.234c-.135.066-.428.128-.878.185s-1.096.196-1.948.405-1.777.659-2.773 1.358-1.556 1.04-1.679 1.024a1.41 1.41 0 0 1-.357-.096c-.115-.044-.225-.101-.327-.171s-.195-.156-.275-.248a1.73 1.73 0 0 1-.208-.305 1.72 1.72 0 0 1-.125-.343c-.029-.12-.044-.242-.044-.366a1.51 1.51 0 0 1 .054-.362 1.57 1.57 0 0 1 .135-.343c.057-.108.13-.208.217-.3s.176-.169.279-.238.213-.123.328-.167.24-.068.362-.081.654.197 1.587.629 2.387.665 4.355.69 3.703-.19 5.218-.657l2.479-.676c.131.016.262.046.39.09s.249.108.362.181.211.164.304.262.167.207.231.324.114.241.15.371a1.83 1.83 0 0 1 .053.396 1.81 1.81 0 0 1-.044.395 1.75 1.75 0 0 1-.139.376c-.061.118-.135.227-.222.329s-.19.191-.299.267-.232.143-.357.19-.256.081-.391.1-.434-.204-.906-.671-1.38-.661-2.73-.591-2.784.367-4.302.891-1.781.814-.801.871 2.156.027 3.535-.09 2.41-.387 3.092-.81 1.087-.633 1.206-.633.236.016.352.047a1.58 1.58 0 0 1 .332.124 1.46 1.46 0 0 1 .29.205c.09.079.169.168.236.267a1.27 1.27 0 0 1 .159.314c.042.108.069.221.082.338a1.6 1.6 0 0 1 0 .353c-.016.117-.046.232-.091.343s-.098.211-.169.309-.147.183-.237.262-.189.142-.299.195a1.42 1.42 0 0 1-.332.12c-.116.028-.735-.046-1.857-.224s-2.757-.148-4.914.09-3.966.626-5.426 1.162l-2.382.767c-.129-.022-.253-.059-.372-.109a1.51 1.51 0 0 1-.333-.196 1.47 1.47 0 0 1-.274-.266 1.72 1.72 0 0 1-.203-.324c-.055-.118-.095-.24-.121-.367s-.03-.254-.024-.381.029-.252.068-.376a1.71 1.71 0 0 1 .154-.353 1.79 1.79 0 0 1 .236-.3c.094-.092.195-.171.304-.238s.23-.121.352-.162a1.74 1.74 0 0 1 .381-.071c.129-.01.635.179 1.52.566s2.462.628 4.735.729 4.556-.071 6.839-.519l3.588-.648a1.4 1.4 0 0 1 .318.086 1.07 1.07 0 0 1 .285.157 1.36 1.36 0 0 1 .241.219 1.18 1.18 0 0 1 .183.272 1.41 1.41 0 0 1 .111.305 1.36 1.36 0 0 1 .029.323 1.2 1.2 0 0 1-.043.32 1.25 1.25 0 0 1-.126.304 1.35 1.35 0 0 1-.192.262 1.3 1.3 0 0 1-.251.21c-.093.06-.192.108-.294.143a1.21 1.21 0 0 1-.324.071c-.109.01-.861-.022-2.257-.095l-6.346-.176-8.31-.186-4.225-.129a1.47 1.47 0 0 1-.352-.062c-.115-.034-.225-.082-.328-.142s-.196-.134-.279-.219a1.31 1.31 0 0 1-.222-.277c-.064-.101-.114-.208-.15-.319s-.061-.23-.067-.348a1.6 1.6 0 0 1 .019-.352 1.58 1.58 0 0 1 .106-.338c.048-.108.11-.21.184-.305s.157-.175.25-.248.195-.135.304-.185a1.55 1.55 0 0 1 .343-.105c.118-.022.747-.076 1.885-.162l4.963-.353c2.167-.149 3.916-.381 5.247-.695l2.18-.448a1.49 1.49 0 0 1 .352.081 1.47 1.47 0 0 1 .328.167 1.4 1.4 0 0 1 .275.233 1.59 1.59 0 0 1 .212.296c.061.108.106.22.135.338s.048.236.048.357-.009.241-.038.362a1.56 1.56 0 0 1-.126.338c-.054.108-.122.208-.202.3a1.45 1.45 0 0 1-.275.243 1.56 1.56 0 0 1-.319.172c-.115.044-.234.074-.356.09s-.346-.157-.671-.519-1.059-.475-2.194-.329l-5.247.505c-2.363.194-4.294.484-5.792.872l-2.46.552c-.141-.019-.278-.055-.41-.109s-.26-.118-.376-.2a1.58 1.58 0 0 1-.318-.281c-.094-.108-.172-.226-.237-.353s-.112-.255-.144-.395a1.51 1.51 0 0 1-.049-.419c.004-.14.023-.278.058-.415s.087-.266.155-.39.149-.243.246-.348a1.61 1.61 0 0 1 .323-.271c.119-.08.246-.145.381-.196a1.91 1.91 0 0 1 .414-.095c.142-.016.454.059.936.224s1.614.235 3.395.219l6.496-.033c2.55 0 4.368.232 5.455.695s1.268.638.535.515-1.773-.024-3.12.3-2.741.797-4.191 1.419l-3.897 1.824c-1.144.6-1.792.873-1.943.819a1.96 1.96 0 0 1-.429-.204 1.71 1.71 0 0 1-.367-.301c-.109-.114-.204-.239-.285-.376a1.81 1.81 0 0 1-.183-.428c-.042-.153-.066-.308-.072-.467s.008-.315.043-.467a1.83 1.83 0 0 1 .155-.448c.067-.143.152-.274.255-.395a2.09 2.09 0 0 1 .347-.324 2.19 2.19 0 0 1 .415-.233c.148-.061.301-.102.458-.124a1.96 1.96 0 0 1 .478-.019c.157.016.395.143.714.381s.834.457 1.557.667 1.783.438 3.178.686l4.63.781 4.847.709 3.834.591c1.007.19 1.354-.067 1.042-.772s-.788-1.386-1.418-2.052-1.54-1.415-2.72-2.244-2.233-1.419-3.149-1.772-1.775-.609-2.576-.771-1.689-.264-2.667-.295a20.24 20.24 0 0 0-2.623.066c-.769.076-1.703.292-2.802.648s-1.95.77-2.542 1.243-1.442 1.048-2.561 1.715-1.36 1.202-.723 1.605a12.49 12.49 0 0 0 2.194 1.081 26.64 26.64 0 0 0 2.846.886c1.077.273 2.003.446 2.778.519l2.7.172 3.188.061 3.034.015 2.672-.038 2.493-.115 2.392-.157c.794-.067 1.717.005 2.768.214s1.521-.076 1.408-.857c-.112-.775-.284-1.53-.516-2.267s-.524-1.488-.887-2.253-.86-1.524-1.5-2.286-1.334-1.459-2.074-2.091l-1.948-1.605c-.563-.438-1.209-.884-1.939-1.338s-1.443-.715-2.151-.791l-2.218-.195-2.315-.091-2.416-.005c-.836.004-1.762.15-2.778.439s-1.871.579-2.566.881-1.402.679-2.122 1.133-1.389 1.008-1.996 1.653-1.258 1.48-1.939 2.515-1.116 1.911-1.302 2.629-.312 1.484-.376 2.3l-.155 1.52c-.038.2-.101.392-.188.576a2.58 2.58 0 0 1-.323.51 2.42 2.42 0 0 1-.439.419c-.164.124-.339.225-.526.305s-.385.139-.588.171a2.4 2.4 0 0 1-.603.029c-.206-.013-.407-.051-.603-.115s-.376-.149-.549-.257-.333-.23-.478-.376-.265-.306-.371-.481-.183-.359-.241-.553a2.49 2.49 0 0 1-.102-.595l-.014-.3z" fill="#e67700" fill-opacity=".1"/><g fill="#000"><path d="M163.352 249.319l-.034 1.514-.067 3.082-.029 2.929c.003.915.104 1.883.304 2.906a25.98 25.98 0 0 0 .81 3.1 27.54 27.54 0 0 0 1.153 2.963l1.234 2.891 1.114 2.453 1.37 2.472a14.22 14.22 0 0 0 2.059 2.786l2.392 2.348 2.108 1.829a11.22 11.22 0 0 1 1.683 1.724c.508.642.712 1.847.612 3.615s-.512 2.849-1.249 3.239-1.644.515-2.725.372-2.048-.467-2.903-.982a7.87 7.87 0 0 1-2.209-2.009l-1.562-2.082-1.428-1.743-1.649-1.858-1.534-1.748c-.453-.517-.935-1.241-1.447-2.172l-1.374-2.395-1.331-2.401c-.479-.933-.825-1.737-1.037-2.41s-.371-1.368-.487-2.086a21.15 21.15 0 0 1-.222-2.467l-.048-2.61a21.98 21.98 0 0 1 .173-2.582l.271-2.748.212-2.543c.077-.772.275-1.759.593-2.963s.754-2.119 1.307-2.748 1.313-1.105 2.271-1.419 1.864-.485 2.716-.51l2.387-.038 2.204.005 2.416.014 2.691.019 2.764.024 3.293.052 3.487.057 3.198.024 3.356.138 3.212.191 2.74.066 2.343-.023 1.852-.038c.518-.004.954.023 1.307.081s.688.168 1.003.333a3.25 3.25 0 0 1 .844.633c.245.258.443.545.594.862s.246.658.284 1.01a3.13 3.13 0 0 1-.058 1.043c-.077.346-.207.67-.39.972s-.417.567-.69.795-.575.408-.907.539-.675.209-1.032.228a3.29 3.29 0 0 1-1.056-.114c-.344-.095-.664-.241-.96-.438s-.553-.442-.771-.724-.38-.588-.492-.924-.174-.677-.174-1.029.058-.7.174-1.034a3.07 3.07 0 0 1 .497-.919c.215-.282.471-.522.766-.719s.618-.346.965-.438a3.24 3.24 0 0 1 1.051-.115 3.33 3.33 0 0 1 1.037.224c.331.134.634.315.907.543s.498.494.685.796a3.13 3.13 0 0 1 .448 2.01 3.14 3.14 0 0 1-.284 1.009 3.26 3.26 0 0 1-.594.867 3.25 3.25 0 0 1-.844.634c-.318.165-.654.276-1.007.333l-.526.086-1.191-.019-2.46-.053-2.73-.071-2.512-.076-2.412-.129-2.975-.076-3.198.019-3.487.057-3.293.057-2.764.019-2.691.019-2.802.015-2.826.085c-.9.054-1.389.505-1.466 1.353l-.188 2.601-.208 2.905-.135 3.034.14 2.572c.087.749.32 1.545.699 2.386s.795 1.629 1.254 2.363l1.582 2.529c.595.955 1.148 1.738 1.659 2.348l1.732 2.029 1.827 2.31c.569.8 1.045 1.635 1.428 2.505s.32 1.791-.179 2.753-.966 1.118-1.413.467a14.35 14.35 0 0 0-1.596-1.924l-1.818-1.729-1.625-1.548-1.664-1.844c-.621-.714-1.22-1.606-1.799-2.676l-1.49-3.015-1.023-2.682-1.085-3.096c-.453-1.213-.815-2.389-1.085-3.529l-.574-2.743c-.116-.693-.178-1.383-.188-2.072l-.01-2.401-.029-2.929-.067-3.082.005-1.805c.022-.193.069-.381.14-.562a2.39 2.39 0 0 1 .275-.519 2.46 2.46 0 0 1 .39-.433c.148-.13.31-.242.487-.334s.357-.157.55-.205.387-.071.584-.071.39.024.583.071.376.116.55.205.339.204.487.334.278.274.391.433a2.48 2.48 0 0 1 .275.519c.07.181.117.369.139.562l.039.291z" fill-opacity=".1"/><path d="M169.976 289.993l-1.032.5c-.681.33-1.381.833-2.098 1.51s-1.191 1.34-1.422 1.991l-.608 2.005-.723 2.977-.782 3.424c-.209.988-.339 1.82-.39 2.496s-.118 1.169-.198 1.467a2.84 2.84 0 0 1-.386.838c-.177.261-.389.486-.636.677a2.92 2.92 0 0 1-.825.438c-.296.101-.601.154-.916.157a3.07 3.07 0 0 1-.926-.143c-.299-.098-.574-.241-.825-.429a2.69 2.69 0 0 1-.646-.662c-.18-.257-.314-.535-.401-.833a2.77 2.77 0 0 1-.106-.915c.013-.311.078-.612.193-.905s.275-.552.478-.79a2.87 2.87 0 0 1 .704-.6c.27-.165.558-.281.863-.348a2.89 2.89 0 0 1 .936-.057c.312.032.611.111.897.238a2.85 2.85 0 0 1 .776.514 2.69 2.69 0 0 1 .569.729 2.81 2.81 0 0 1 .309.872 2.86 2.86 0 0 1 .005.919 2.8 2.8 0 0 1-.29.876c-.148.277-.334.523-.559.739a2.82 2.82 0 0 1-.772.519c-.283.133-.582.219-.897.257a2.86 2.86 0 0 1-.931-.048 2.81 2.81 0 0 1-.868-.333c-.273-.159-.512-.356-.718-.591a2.8 2.8 0 0 1-.487-.786c-.119-.289-.188-.589-.208-.9l-.029-.467c0 .004.052-.4.155-1.209l.357-2.244c.138-.686.382-1.549.733-2.591l.733-2.557.521-2.277c.209-.857.463-1.648.762-2.372s.655-1.357 1.061-1.91.869-1.06 1.384-1.534 1.143-.958 1.876-1.457 1.455-.907 2.156-1.224l1.34-.572c.193-.063.391-.103.593-.119s.399-.008.598.024a2.43 2.43 0 0 1 .584.167 2.59 2.59 0 0 1 .526.3c.16.121.305.259.434.414s.236.324.323.505.151.375.193.572.058.393.048.59a2.34 2.34 0 0 1-.096.591 2.52 2.52 0 0 1-.237.548 2.59 2.59 0 0 1-.366.481 2.69 2.69 0 0 1-.468.376l-.261.162z" fill-opacity=".1"/><path d="M171.408 287.946l.907.281c.604.188 1.328.475 2.17.863s1.637.635 2.392.733 1.564.097 2.436-.005l2.922-.452 3.323-.734 3.111-.852c.939-.283 1.722-.67 2.348-1.162l1.486-1.177a8 8 0 0 1 .984-.7c.296-.168.611-.287.945-.357s.667-.08 1.008-.038a2.99 2.99 0 0 1 .964.276 3.09 3.09 0 0 1 .83.571c.244.232.444.499.598.801s.262.614.313.947.044.662-.014.996a2.98 2.98 0 0 1-.333.938 3.09 3.09 0 0 1-.622.786 3.1 3.1 0 0 1-.839.548c-.312.133-.638.216-.979.247a2.97 2.97 0 0 1-1.003-.066c-.335-.073-.646-.197-.936-.372s-.542-.397-.757-.657a2.97 2.97 0 0 1-.511-.857c-.122-.315-.19-.64-.203-.977s.024-.667.121-.99a3.11 3.11 0 0 1 .434-.896 3.12 3.12 0 0 1 .704-.714c.273-.2.572-.353.897-.458a3.05 3.05 0 0 1 .998-.147c.341.003.672.06.994.171s.616.272.882.481a3.04 3.04 0 0 1 .685.729c.187.283.323.586.41.91a2.89 2.89 0 0 1 .097.99c-.023.337-.098.661-.227.972a3.15 3.15 0 0 1-.531.848l-.337.381-1.013.772c-.678.517-1.513 1.062-2.503 1.633s-2.051 1.021-3.173 1.339l-3.434.905-3.825.809c-1.379.254-2.546.397-3.501.429s-1.807-.018-2.556-.138-1.57-.323-2.464-.596-1.642-.6-2.233-.981-1.182-.678-1.77-.9l-1.153-.462c-.186-.092-.358-.203-.516-.333s-.299-.278-.424-.443a2.47 2.47 0 0 1-.299-.529 2.35 2.35 0 0 1-.164-.586c-.032-.203-.039-.405-.019-.605a2.49 2.49 0 0 1 .13-.595 2.45 2.45 0 0 1 .27-.548c.112-.171.244-.327.395-.467s.317-.258.497-.357.37-.179.569-.233a2.66 2.66 0 0 1 .608-.091 2.5 2.5 0 0 1 .607.057l.304.062z" fill-opacity=".1"/></g><rect x="33" y="352.953" width="293" height="41" rx="16" fill="#f7f7f7"/><path d="M96.997 372.805l-1.827 5.148h-1.89l-2.142-7.389h2.043l1.287 5.31 1.809-5.166h1.449l1.791 5.166 1.305-5.31h2.043l-2.133 7.389h-1.89l-1.845-5.148zm7.337 5.148v-7.389h1.917v7.389h-1.917zm.981-9.603a1.14 1.14 0 0 1-.837-.351c-.228-.234-.342-.513-.342-.837s.114-.603.342-.837c.234-.24.513-.36.837-.36a1.09 1.09 0 0 1 .594.171 1.22 1.22 0 0 1 .441.432 1.06 1.06 0 0 1 .171.594 1.14 1.14 0 0 1-.351.837c-.234.234-.519.351-.855.351zm7.6 1.998a3.59 3.59 0 0 1 1.449.306 2.63 2.63 0 0 1 1.152.981c.306.444.459 1.023.459 1.737v4.581h-1.935v-4.23c0-.666-.159-1.155-.477-1.467-.312-.318-.717-.477-1.215-.477-.33 0-.645.093-.945.279s-.546.438-.738.756c-.186.318-.279.684-.279 1.098v4.041h-1.926v-7.389h1.926v1.242c.054-.204.198-.417.432-.639.24-.228.543-.42.909-.576.366-.162.762-.243 1.188-.243zm14.668 2.457l-1.827 5.148h-1.89l-2.142-7.389h2.043l1.287 5.31 1.809-5.166h1.449l1.791 5.166 1.305-5.31h2.043l-2.133 7.389h-1.89l-1.845-5.148zm7.337 5.148v-7.389h1.917v7.389h-1.917zm.981-9.603a1.14 1.14 0 0 1-.837-.351c-.228-.234-.342-.513-.342-.837s.114-.603.342-.837c.234-.24.513-.36.837-.36a1.09 1.09 0 0 1 .594.171 1.22 1.22 0 0 1 .441.432 1.06 1.06 0 0 1 .171.594 1.14 1.14 0 0 1-.351.837c-.234.234-.519.351-.855.351zm2.551 2.214h1.386v-3.033h1.908v3.033h1.827v1.62h-1.827v3.159c0 .396.066.693.198.891a.67.67 0 0 0 .585.297c.21 0 .375-.039.495-.117.126-.078.201-.132.225-.162l.711 1.395c-.036.036-.141.096-.315.18s-.399.162-.675.234-.591.108-.945.108c-.624 0-1.146-.186-1.566-.558-.414-.372-.621-.954-.621-1.746v-3.681h-1.386v-1.62zm11.247-.216a3.57 3.57 0 0 1 1.44.306 2.63 2.63 0 0 1 1.152.981c.306.444.459 1.023.459 1.737v4.581h-1.935v-4.23c0-.666-.153-1.155-.459-1.467-.3-.318-.699-.477-1.197-.477a1.81 1.81 0 0 0-.954.279c-.306.186-.558.438-.756.756-.192.318-.288.684-.288 1.098v4.041h-1.935v-12.384h1.935v6.237c.054-.204.198-.417.432-.639.24-.228.543-.42.909-.576.366-.162.765-.243 1.197-.243zm8.968.216h1.386v-3.033h1.908v3.033h1.827v1.62h-1.827v3.159c0 .396.066.693.198.891a.67.67 0 0 0 .585.297c.21 0 .375-.039.495-.117.126-.078.201-.132.225-.162l.711 1.395c-.036.036-.141.096-.315.18s-.399.162-.675.234-.591.108-.945.108c-.624 0-1.146-.186-1.566-.558-.414-.372-.621-.954-.621-1.746v-3.681h-1.386v-1.62zm11.247-.216a3.57 3.57 0 0 1 1.44.306 2.63 2.63 0 0 1 1.152.981c.306.444.459 1.023.459 1.737v4.581h-1.935v-4.23c0-.666-.153-1.155-.459-1.467-.3-.318-.699-.477-1.197-.477a1.81 1.81 0 0 0-.954.279c-.306.186-.558.438-.756.756-.192.318-.288.684-.288 1.098v4.041h-1.935v-12.384h1.935v6.237c.054-.204.198-.417.432-.639.24-.228.543-.42.909-.576.366-.162.765-.243 1.197-.243zm6.351 4.365c.012.39.105.741.279 1.053s.429.558.765.738c.342.174.759.261 1.251.261.426 0 .792-.057 1.098-.171a2.93 2.93 0 0 0 .774-.423c.204-.168.354-.324.45-.468l.855 1.161c-.186.252-.42.477-.702.675a3.21 3.21 0 0 1-1.053.459c-.414.114-.927.171-1.539.171-.804 0-1.503-.165-2.097-.495s-1.056-.795-1.386-1.395c-.324-.6-.486-1.302-.486-2.106 0-.72.15-1.368.45-1.944.3-.582.735-1.041 1.305-1.377.576-.336 1.266-.504 2.07-.504.75 0 1.401.15 1.953.45s.978.732 1.278 1.296c.306.558.459 1.233.459 2.025l-.009.297c0 .15-.006.249-.018.297h-5.697zm3.924-1.404c-.006-.192-.072-.411-.198-.657-.12-.246-.315-.459-.585-.639-.27-.186-.63-.279-1.08-.279-.462 0-.837.09-1.125.27a1.74 1.74 0 0 0-.639.63c-.138.24-.219.465-.243.675h3.87zm11.643 8.595c-.564 0-1.089-.057-1.575-.171-.48-.108-.909-.273-1.287-.495-.378-.216-.684-.483-.918-.801l1.197-1.188c.126.156.288.318.486.486.198.174.459.318.783.432.324.12.735.18 1.233.18.486 0 .9-.099 1.242-.297.348-.198.612-.471.792-.819.186-.342.279-.738.279-1.188v-.225h1.89v.342c0 .816-.183 1.5-.549 2.052a3.42 3.42 0 0 1-1.485 1.26c-.624.288-1.32.432-2.088.432zm2.232-3.951v-1.368c-.048.144-.186.342-.414.594-.222.252-.528.48-.918.684-.384.204-.84.306-1.368.306a3.56 3.56 0 0 1-1.863-.495 3.52 3.52 0 0 1-1.305-1.377c-.318-.588-.477-1.266-.477-2.034s.159-1.446.477-2.034a3.52 3.52 0 0 1 1.305-1.377c.552-.336 1.173-.504 1.863-.504.516 0 .963.09 1.341.27s.681.387.909.621c.234.234.378.438.432.612v-1.287h1.908v7.389h-1.89zm-4.446-3.69c0 .474.105.888.315 1.242s.483.627.819.819c.342.192.708.288 1.098.288.42 0 .792-.099 1.116-.297.33-.198.588-.471.774-.819.192-.354.288-.765.288-1.233s-.096-.876-.288-1.224a2.06 2.06 0 0 0-.774-.828 2.05 2.05 0 0 0-1.116-.306c-.39 0-.756.099-1.098.297-.336.192-.609.465-.819.819s-.315.768-.315 1.242zm11.905 3.906c-.774 0-1.464-.168-2.07-.504-.6-.342-1.071-.804-1.413-1.386-.342-.588-.513-1.254-.513-1.998s.171-1.413.513-2.007.813-1.062 1.413-1.404c.606-.348 1.296-.522 2.07-.522s1.458.174 2.052.522a3.69 3.69 0 0 1 1.395 1.404c.342.594.513 1.263.513 2.007s-.171 1.41-.513 1.998c-.336.582-.801 1.044-1.395 1.386-.594.336-1.278.504-2.052.504zm0-1.62c.432 0 .807-.099 1.125-.297s.564-.468.738-.81.261-.732.261-1.17-.087-.828-.261-1.17c-.174-.348-.42-.624-.738-.828s-.693-.306-1.125-.306-.81.102-1.134.306a2.12 2.12 0 0 0-.747.828c-.174.342-.261.732-.261 1.17s.087.828.261 1.17a2.07 2.07 0 0 0 .747.81c.324.198.702.297 1.134.297zm9.106 1.62c-.774 0-1.464-.168-2.07-.504-.6-.342-1.071-.804-1.413-1.386-.342-.588-.513-1.254-.513-1.998s.171-1.413.513-2.007.813-1.062 1.413-1.404c.606-.348 1.296-.522 2.07-.522s1.458.174 2.052.522a3.69 3.69 0 0 1 1.395 1.404c.342.594.513 1.263.513 2.007s-.171 1.41-.513 1.998c-.336.582-.801 1.044-1.395 1.386-.594.336-1.278.504-2.052.504zm0-1.62c.432 0 .807-.099 1.125-.297s.564-.468.738-.81.261-.732.261-1.17-.087-.828-.261-1.17c-.174-.348-.42-.624-.738-.828s-.693-.306-1.125-.306-.81.102-1.134.306a2.12 2.12 0 0 0-.747.828c-.174.342-.261.732-.261 1.17s.087.828.261 1.17a2.07 2.07 0 0 0 .747.81c.324.198.702.297 1.134.297zm8.817 1.62c-.696 0-1.311-.165-1.845-.495s-.954-.789-1.26-1.377c-.3-.588-.45-1.266-.45-2.034s.15-1.446.45-2.034c.306-.588.726-1.047 1.26-1.377.534-.336 1.149-.504 1.845-.504.516 0 .975.09 1.377.27.402.174.723.378.963.612s.381.441.423.621v-6.282h1.926v12.384h-1.899v-1.368c-.084.21-.255.438-.513.684s-.585.459-.981.639c-.39.174-.822.261-1.296.261zm.495-1.557a2.24 2.24 0 0 0 1.143-.297c.342-.198.615-.471.819-.819.204-.354.306-.765.306-1.233s-.102-.876-.306-1.224c-.204-.354-.477-.63-.819-.828a2.19 2.19 0 0 0-1.143-.306c-.384 0-.741.099-1.071.297-.324.192-.585.465-.783.819s-.297.768-.297 1.242.099.888.297 1.242.459.627.783.819c.33.192.687.288 1.071.288zm9.83-6.048h1.386v-3.033h1.908v3.033h1.827v1.62h-1.827v3.159c0 .396.066.693.198.891a.67.67 0 0 0 .585.297c.21 0 .375-.039.495-.117.126-.078.201-.132.225-.162l.711 1.395c-.036.036-.141.096-.315.18s-.399.162-.675.234-.591.108-.945.108c-.624 0-1.146-.186-1.566-.558-.414-.372-.621-.954-.621-1.746v-3.681h-1.386v-1.62zm8.088 4.149c.012.39.105.741.279 1.053s.429.558.765.738c.342.174.759.261 1.251.261.426 0 .792-.057 1.098-.171a2.93 2.93 0 0 0 .774-.423c.204-.168.354-.324.45-.468l.855 1.161c-.186.252-.42.477-.702.675a3.21 3.21 0 0 1-1.053.459c-.414.114-.927.171-1.539.171-.804 0-1.503-.165-2.097-.495s-1.056-.795-1.386-1.395c-.324-.6-.486-1.302-.486-2.106 0-.72.15-1.368.45-1.944.3-.582.735-1.041 1.305-1.377.576-.336 1.266-.504 2.07-.504.75 0 1.401.15 1.953.45s.978.732 1.278 1.296c.306.558.459 1.233.459 2.025l-.009.297c0 .15-.006.249-.018.297h-5.697zm3.924-1.404c-.006-.192-.072-.411-.198-.657-.12-.246-.315-.459-.585-.639-.27-.186-.63-.279-1.08-.279-.462 0-.837.09-1.125.27a1.74 1.74 0 0 0-.639.63c-.138.24-.219.465-.243.675h3.87zm9.304 4.644v-1.368c-.048.144-.186.342-.414.594-.222.252-.528.48-.918.684-.384.204-.84.306-1.368.306a3.56 3.56 0 0 1-1.863-.495 3.52 3.52 0 0 1-1.305-1.377c-.318-.588-.477-1.266-.477-2.034s.159-1.446.477-2.034a3.52 3.52 0 0 1 1.305-1.377c.552-.336 1.173-.504 1.863-.504.516 0 .963.09 1.341.27s.681.387.909.621c.234.234.378.438.432.612v-1.287h1.908v7.389h-1.89zm-4.446-3.69c0 .474.105.888.315 1.242s.483.627.819.819c.342.192.708.288 1.098.288.42 0 .792-.099 1.116-.297.33-.198.588-.471.774-.819.192-.354.288-.765.288-1.233s-.096-.876-.288-1.224a2.06 2.06 0 0 0-.774-.828 2.05 2.05 0 0 0-1.116-.306c-.39 0-.756.099-1.098.297-.336.192-.609.465-.819.819s-.315.768-.315 1.242zm17.577-3.915c.552 0 1.026.117 1.422.351.402.234.711.594.927 1.08.222.486.333 1.107.333 1.863v4.311h-1.899v-3.969c0-.714-.102-1.257-.306-1.629-.198-.372-.573-.558-1.125-.558a1.59 1.59 0 0 0-.846.243c-.264.162-.477.405-.639.729-.156.318-.234.723-.234 1.215v3.969h-1.782v-3.969c0-.714-.123-1.257-.369-1.629-.24-.372-.6-.558-1.08-.558-.306 0-.588.078-.846.234s-.465.396-.621.72-.234.735-.234 1.233v3.969h-1.908v-7.389h1.908v1.107c.066-.186.213-.381.441-.585.234-.204.525-.378.873-.522a2.96 2.96 0 0 1 1.143-.216c.45 0 .822.084 1.116.252.3.162.537.366.711.612.18.246.312.492.396.738.084-.246.246-.492.486-.738.246-.246.552-.45.918-.612.366-.168.771-.252 1.215-.252z" fill="#1a8000"/></svg>