<svg xmlns="http://www.w3.org/2000/svg" width="192" height="192" fill="none" xmlns:v="https://vecta.io/nano"><g fill="#000"><path d="M49.522 80.144l-.295-2.026-.494-4.358a16.94 16.94 0 0 1 .25-4.702c.299-1.58.757-3.029 1.372-4.346l1.802-3.846.994-2.007a1.03 1.03 0 0 1 .25-.238.94.94 0 0 1 .308-.144c.111-.033.224-.048.34-.044a1.09 1.09 0 0 1 .333.063 1.08 1.08 0 0 1 .301.169.97.97 0 0 1 .224.25.95.95 0 0 1 .135.306.89.89 0 0 1 .026.338.89.89 0 0 1-.083.319c-.047.1-.109.198-.186.281a.94.94 0 0 1-.269.213 1.14 1.14 0 0 1-.321.113 1.07 1.07 0 0 1-.346.006 1.1 1.1 0 0 1-.327-.1.99.99 0 0 1-.276-.2.87.87 0 0 1-.199-.269 1.11 1.11 0 0 1-.103-.325 1.09 1.09 0 0 1 .013-.331.9.9 0 0 1 .122-.313c.06-.096.128-.188.218-.263s.182-.133.288-.175a1.03 1.03 0 0 1 .333-.081 1.05 1.05 0 0 1 .34.031.91.91 0 0 1 .314.131 1.09 1.09 0 0 1 .257.225.95.95 0 0 1 .167.294 1.07 1.07 0 0 1 .064.331.97.97 0 0 1-.051.331l-.051.163-.987 1.776-1.808 3.552c-.543 1.184-.945 2.476-1.205 3.877-.252 1.401-.293 2.849-.122 4.346l.66 4.258.404 2.151a1 1 0 0 1-.026.275c-.017.096-.047.186-.09.269a1.15 1.15 0 0 1-.154.238 1.14 1.14 0 0 1-.205.2 1.63 1.63 0 0 1-.25.138c-.09.038-.184.065-.282.081a1.12 1.12 0 0 1-.282.013 1.34 1.34 0 0 1-.282-.056 1.15 1.15 0 0 1-.263-.119 1.29 1.29 0 0 1-.224-.175 1.23 1.23 0 0 1-.173-.225 1.03 1.03 0 0 1-.115-.263l-.045-.138v.006zm10.641-26.811l2.526-1.251c1.688-.834 5.286-1.298 10.791-1.394s10.781.761 15.838 2.57c5.057 1.801 8.981 4.713 11.772 8.735s4.001 8.923 3.617 14.7l-1.199 17.445c-.415 5.853.564 11.024 2.936 15.513s6.019 8.283 10.926 11.393 10.031 6.125 15.357 9.048 9.376 5.469 12.15 7.641 4.707 4.051 5.81 5.64 2.013 2.995 2.744 4.22l1.148 1.995a.89.89 0 0 1 .051.3c0 .104-.017.206-.051.306a.97.97 0 0 1-.148.276.9.9 0 0 1-.231.212c-.085.059-.179.102-.282.131a1 1 0 0 1-.32.038 1.07 1.07 0 0 1-.308-.069.94.94 0 0 1-.269-.156c-.086-.067-.156-.146-.212-.238a.83.83 0 0 1-.115-.287 1.05 1.05 0 0 1-.02-.307 1.05 1.05 0 0 1 .084-.3c.047-.096.107-.181.179-.256a.99.99 0 0 1 .25-.188.96.96 0 0 1 .302-.1c.106-.017.211-.017.314 0a.99.99 0 0 1 .301.1.87.87 0 0 1 .257.181 1.2 1.2 0 0 1 .179.257 1.05 1.05 0 0 1 .084.3.95.95 0 0 1-.013.306c-.026.105-.067.2-.122.288a.83.83 0 0 1-.199.238 1.05 1.05 0 0 1-.276.162 1.07 1.07 0 0 1-.307.069c-.107.004-.212-.008-.315-.038a.92.92 0 0 1-.288-.125c-.09-.058-.167-.129-.231-.212l-.096-.125-.923-1.839c-.62-1.225-1.424-2.574-2.411-4.045s-2.834-3.258-5.527-5.371-6.714-4.646-12.074-7.585a245.98 245.98 0 0 1-15.664-9.348c-5.083-3.293-8.853-7.322-11.311-12.087s-3.482-10.096-3.084-15.995L103.065 77c.453-5.494-.592-10.119-3.135-13.875s-6.22-6.499-11.016-8.216c-4.8-1.709-9.817-2.537-15.049-2.482s-8.673.513-10.323 1.363l-2.578 1.313a1.51 1.51 0 0 1-.237.056.87.87 0 0 1-.231-.006.85.85 0 0 1-.231-.056 1.1 1.1 0 0 1-.212-.106.97.97 0 0 1-.18-.156.98.98 0 0 1-.135-.194c-.035-.067-.066-.144-.083-.219a1.06 1.06 0 0 1-.032-.225 1.51 1.51 0 0 1 .032-.238.94.94 0 0 1 .09-.213.76.76 0 0 1 .135-.194 1.25 1.25 0 0 1 .179-.156l.103-.063z"/><path d="M73.145 47.442l1.904-.738c1.274-.492 3.92-.963 7.938-1.413s9.122-.173 15.312.832 11.817 3.06 16.883 6.165c5.061 3.114 9.03 7.022 11.906 11.724s4.867 9.673 5.97 14.913 1.994 9.965 2.674 14.175 1.883 7.426 3.61 9.661a16.6 16.6 0 0 0 6.444 5.077c2.569 1.151 4.659 2.524 6.27 4.121s2.781 3.443 3.495 5.54 1.064 4.425 1.064 6.984a39.19 39.19 0 0 1-.699 7.503c-.47 2.447-1.011 4.59-1.622 6.428l-1.577 4.759-.731 2.119a.7.7 0 0 1-.16.213.88.88 0 0 1-.218.144.69.69 0 0 1-.257.075.73.73 0 0 1-.269-.013c-.09-.016-.175-.048-.257-.093-.077-.042-.145-.098-.205-.169s-.107-.14-.141-.219-.053-.169-.058-.256 0-.175.026-.263a.67.67 0 0 1 .109-.238.85.85 0 0 1 .18-.193c.072-.055.151-.096.237-.126a.83.83 0 0 1 .269-.043.71.71 0 0 1 .263.037c.086.025.167.065.244.119s.134.117.186.188.089.154.115.237a.79.79 0 0 1 .032.263c-.004.087-.023.173-.058.256a.66.66 0 0 1-.134.225.79.79 0 0 1-.205.175.85.85 0 0 1-.25.1c-.086.021-.174.028-.263.019s-.182-.035-.263-.069-.156-.085-.225-.143-.124-.134-.166-.213-.073-.156-.09-.244-.013-.175 0-.262l.019-.132.667-2.001 1.552-4.658c.589-1.772 1.115-3.833 1.577-6.184a39.27 39.27 0 0 0 .724-7.11c.022-2.396-.262-4.541-.852-6.434s-1.616-3.576-3.065-5.04-3.546-2.842-6.29-4.139-5.046-3.172-6.893-5.64-3.123-5.809-3.815-10.023-1.554-8.852-2.597-13.925-2.92-9.867-5.63-14.381-6.486-8.281-11.33-11.286c-4.838-3.001-10.263-4.99-16.273-5.965s-10.939-1.255-14.786-.825-6.393.9-7.65 1.413l-2.007.807c-.077.021-.154.033-.231.038s-.156-.008-.237-.025a1.09 1.09 0 0 1-.224-.075c-.073-.038-.139-.081-.199-.131s-.12-.106-.167-.169a.89.89 0 0 1-.116-.206.98.98 0 0 1-.064-.225.8.8 0 0 1-.006-.225 1.07 1.07 0 0 1 .051-.231c.026-.075.062-.144.109-.206s.094-.127.154-.181a.8.8 0 0 1 .192-.138l.103-.056z"/><path d="M101.317 45.406l2.097-.907c1.402-.609 3.77-.877 7.104-.807s6.707 1.361 10.105 3.871 6.229 6.138 8.49 10.874 3.584 10.267 3.956 16.595.351 12.124-.077 17.389-.504 9.054-.218 11.368 1.344 3.983 3.187 5.008c1.842 1.03 3.958 2.36 6.348 3.989s4.392 3.781 5.995 6.453c1.598 2.677 2.851 5.434 3.757 8.273s1.627 5.334 2.174 7.485.885 3.835 1 5.039-.075 2.301-.571 3.302-.784 1.542-.852 1.626-.154.145-.244.2a1.04 1.04 0 0 1-.301.118c-.106.025-.214.032-.321.019a1.09 1.09 0 0 1-.314-.081.94.94 0 0 1-.263-.181c-.081-.071-.148-.155-.199-.251a.89.89 0 0 1-.102-.293c-.018-.105-.018-.209 0-.313a.96.96 0 0 1 .102-.3.95.95 0 0 1 .192-.25 1.06 1.06 0 0 1 .27-.182c.098-.041.201-.068.308-.081a.91.91 0 0 1 .32.019 1.09 1.09 0 0 1 .301.112.87.87 0 0 1 .244.207c.073.079.128.169.167.269a.81.81 0 0 1 .07.306.86.86 0 0 1-.032.313 1.01 1.01 0 0 1-.134.281c-.06.088-.133.165-.218.231a1.07 1.07 0 0 1-.289.144c-.102.038-.207.056-.314.056s-.218-.016-.321-.05a.99.99 0 0 1-.288-.15c-.086-.062-.158-.137-.218-.225a.9.9 0 0 1-.135-.287c-.026-.104-.043-.205-.038-.313a.85.85 0 0 1 .07-.306l.058-.15.795-1.007c.53-.675.737-1.545.622-2.608s-.451-2.649-.994-4.771-1.242-4.547-2.097-7.278-2.007-5.35-3.456-7.86-3.349-4.56-5.7-6.152l-6.54-4.309c-2.013-1.275-3.214-3.203-3.603-5.783s-.379-6.462.044-11.656.464-10.851.135-16.983-1.556-11.459-3.668-15.982-4.71-7.972-7.809-10.348c-3.095-2.368-6.149-3.591-9.163-3.67s-5.2.2-6.559.825l-2.155.969a.91.91 0 0 1-.237.044c-.081.004-.154 0-.231-.012s-.158-.035-.231-.069a.85.85 0 0 1-.205-.119.89.89 0 0 1-.173-.163.83.83 0 0 1-.122-.2 1.01 1.01 0 0 1-.077-.225 1 1 0 0 1-.012-.225 1.05 1.05 0 0 1 .038-.231 1.28 1.28 0 0 1 .096-.213 1.02 1.02 0 0 1 .148-.181.88.88 0 0 1 .186-.15l.102-.062zm-16.36 6.807l-1.879-1.119-5.309-2.858c-2.283-1.155-4.909-1.888-7.88-2.201s-5.867.338-8.688 1.938-5.112 4.004-6.861 7.222-2.629 6.153-2.642 8.791.306 4.69.955 6.153l1.93 3.877 1 1.832c.034.1.049.204.045.313s-.023.213-.058.313a.97.97 0 0 1-.16.281.98.98 0 0 1-.244.213c-.094.058-.194.102-.301.131a1.04 1.04 0 0 1-.321.025c-.111-.008-.218-.033-.321-.075s-.194-.098-.276-.169-.15-.154-.205-.25a.92.92 0 0 1-.115-.294 1 1 0 0 1-.013-.319 1.07 1.07 0 0 1 .096-.306 1.02 1.02 0 0 1 .186-.263 1.19 1.19 0 0 1 .269-.188 1.14 1.14 0 0 1 .308-.094c.111-.017.22-.015.327.006s.214.056.308.106a1 1 0 0 1 .257.2.88.88 0 0 1 .179.269.98.98 0 0 1 .077.306.9.9 0 0 1-.019.319c-.025.104-.068.202-.128.294a.99.99 0 0 1-.218.238 1.03 1.03 0 0 1-.282.156.84.84 0 0 1-.321.063 1.08 1.08 0 0 1-.327-.037 1.07 1.07 0 0 1-.295-.144c-.09-.062-.167-.136-.231-.219l-.096-.131-.846-1.801-1.892-4.308c-.697-1.672-1.015-3.956-.955-6.853s1.069-6.069 3.014-9.529 4.497-6.046 7.656-7.76 6.369-2.411 9.631-2.082 6.066 1.073 8.425 2.22 4.172 2.074 5.45 2.782l2.02 1.144a1.12 1.12 0 0 1 .192.181.9.9 0 0 1 .141.225c.034.079.066.163.083.25a1.05 1.05 0 0 1 .019.256c-.004.092-.019.179-.045.263a1.12 1.12 0 0 1-.109.244c-.047.075-.1.144-.16.206a1.04 1.04 0 0 1-.212.163 1.17 1.17 0 0 1-.25.113c-.085.026-.173.046-.263.05a.94.94 0 0 1-.263-.013 1.45 1.45 0 0 1-.263-.075l-.122-.056z"/><path d="M65.697 63.071l-.455-1.125c-.303-.75-.695-1.267-1.173-1.551s-1.513.163-3.116 1.351-3.105 3.852-4.52 8.004-1.919 8.395-1.513 12.743.973 7.687 1.699 10.029 1.257 4.55 1.577 6.622.492 4.449.513 7.147l.038 8.603c.009 3.039-.19 5.734-.596 8.085s-.876 4.1-1.411 5.259-.864 2.032-.975 2.632.16 1.566.814 2.883 1.396 2.637 2.238 3.958 1.639 2.462 2.404 3.42 1.18 1.482 1.231 1.582a.92.92 0 0 1 .096.313.92.92 0 0 1-.006.325c-.021.108-.06.213-.115.313s-.126.179-.212.25a1.12 1.12 0 0 1-.282.181 1.05 1.05 0 0 1-.327.075c-.111.013-.222.004-.333-.025s-.214-.069-.308-.131a.94.94 0 0 1-.25-.213.97.97 0 0 1-.167-.287 1.04 1.04 0 0 1-.064-.319.92.92 0 0 1 .045-.325.99.99 0 0 1 .148-.294c.068-.092.147-.169.237-.232s.194-.116.301-.15.222-.048.333-.043.227.025.333.062.199.092.289.163a.88.88 0 0 1 .224.243c.06.092.105.192.135.301s.034.216.026.325a1 1 0 0 1-.077.319c-.047.1-.109.191-.186.275a.94.94 0 0 1-.257.206 1.14 1.14 0 0 1-.321.113c-.111.021-.222.023-.333.006a.99.99 0 0 1-.321-.094c-.103-.05-.194-.112-.276-.187l-.115-.119-1.064-1.57-2.398-3.645c-.889-1.384-1.686-2.889-2.392-4.515-.705-1.621-.953-2.82-.744-3.595s.562-1.67 1.058-2.695.934-2.657 1.327-4.908.584-4.901.571-7.935l-.038-8.473c-.021-2.618-.186-4.923-.494-6.915s-.849-4.21-1.609-6.666-1.332-5.967-1.725-10.536.209-9.062 1.795-13.481c1.582-4.41 3.343-7.26 5.283-8.548s3.445-1.678 4.527-1.182 1.815 1.148 2.199 1.97l.616 1.344c.021.075.034.152.038.231a.8.8 0 0 1-.019.225c-.017.079-.043.154-.077.225a1 1 0 0 1-.128.2c-.051.063-.109.117-.173.163a.81.81 0 0 1-.212.119.87.87 0 0 1-.231.069c-.081.013-.16.017-.237.013a1.14 1.14 0 0 1-.237-.05c-.077-.025-.15-.058-.218-.1a.91.91 0 0 1-.186-.15c-.056-.058-.105-.121-.147-.188l-.058-.1z"/><path d="M63.049 144.845l-1.975-1.363c-1.317-.909-3.144-2.677-5.482-5.303s-4.578-5.802-6.733-9.529-3.772-7.335-4.867-10.824-1.329-6.778-.693-9.867 1.524-6.152 2.674-9.191 2.041-6.288 2.687-9.761 1.101-6.23 1.379-8.273.534-3.677.769-4.902.643-2.674 1.212-4.346l1.379-4.215.917-2.97.455-1.388s.09-.152.154-.219.137-.113.218-.15a.8.8 0 0 1 .257-.081.87.87 0 0 1 .276.006c.09.017.173.046.25.087a.83.83 0 0 1 .212.169c.064.063.113.136.148.219s.062.169.071.256.002.175-.019.263-.062.169-.109.244a.71.71 0 0 1-.18.194.78.78 0 0 1-.237.131c-.085.033-.173.052-.263.056s-.179-.013-.269-.038a.92.92 0 0 1-.244-.113 1.01 1.01 0 0 1-.192-.188.9.9 0 0 1-.122-.238c-.026-.083-.039-.171-.039-.263s.021-.173.051-.256a.75.75 0 0 1 .135-.231c.056-.071.122-.129.199-.175s.16-.085.25-.106a.72.72 0 0 1 .269-.025.96.96 0 0 1 .263.063c.081.033.156.081.224.144a.87.87 0 0 1 .173.2.78.78 0 0 1 .096.25c.017.088.019.175.006.263l-.019.131-.391 1.269-.923 2.995-1.353 4.133s-.94 2.997-1.167 4.189-.485 2.83-.763 4.902-.75 4.883-1.417 8.448-1.554 6.832-2.674 9.792-1.998 5.859-2.635 8.697-.43 5.928.622 9.267 2.631 6.811 4.725 10.43 4.255 6.682 6.495 9.191 4.025 4.213 5.354 5.096l2.077 1.407c.06.05.111.109.154.175s.086.132.115.207a1.44 1.44 0 0 1 .058.225.84.84 0 0 1-.006.231.87.87 0 0 1-.058.225.75.75 0 0 1-.109.207.93.93 0 0 1-.16.175c-.06.05-.126.094-.199.131a.86.86 0 0 1-.224.081c-.077.021-.154.032-.231.032a.9.9 0 0 1-.237-.032c-.077-.021-.152-.048-.224-.081l-.109-.056z"/><path d="M53.758 54.061l-1.917 3.771c-1.278 2.514-2.498 6.372-3.661 11.574s-1.844 10.25-2.058 15.132.004 9.042.654 12.481 1.304 6.448 1.975 9.041 1.158 5.021 1.449 7.285l.757 5.877.314 2.608c-.004.092-.021.179-.051.262a.83.83 0 0 1-.141.238.9.9 0 0 1-.205.175c-.077.05-.167.086-.257.106a.85.85 0 0 1-.276.019.83.83 0 0 1-.269-.069c-.085-.037-.162-.087-.231-.15a.71.71 0 0 1-.167-.206.78.78 0 0 1-.096-.256.81.81 0 0 1-.006-.269c.013-.092.041-.177.083-.257s.098-.156.167-.218a.98.98 0 0 1 .224-.157 1.03 1.03 0 0 1 .263-.075.77.77 0 0 1 .276.013c.094.016.182.048.263.094s.152.102.212.168a1.01 1.01 0 0 1 .148.232.91.91 0 0 1 .064.262c.004.088-.004.178-.026.269s-.062.169-.109.244-.115.142-.192.2a1 1 0 0 1-.237.131c-.09.03-.182.044-.276.044a.76.76 0 0 1-.269-.037 1.05 1.05 0 0 1-.25-.119c-.073-.054-.137-.119-.192-.194a1 1 0 0 1-.122-.244l-.038-.131-.327-2.47-.757-5.771c-.286-2.193-.776-4.604-1.468-7.235s-1.374-5.721-2.045-9.285-.898-7.841-.693-12.831.9-10.163 2.084-15.519 2.394-9.302 3.642-11.837l1.943-3.896c.047-.071.103-.136.167-.194a1.14 1.14 0 0 1 .199-.144 1.04 1.04 0 0 1 .237-.094 1.3 1.3 0 0 1 .25-.038c.085-.005.162.008.244.025a1 1 0 0 1 .237.081.86.86 0 0 1 .212.131.88.88 0 0 1 .173.181 1.09 1.09 0 0 1 .128.213c.03.079.051.158.064.238a.93.93 0 0 1 .006.244c-.008.079-.026.158-.051.238l-.045.119zm2.72 85.323l.564.87c.372.579.549 1.482.532 2.707s-.353 2.374-1.007 3.458-1.244 1.903-1.77 2.457a2.97 2.97 0 0 1-2.007.907c-.804.054-1.712-.775-2.738-2.489s-2.622-4.641-4.79-8.785-4.063-8.977-5.687-14.5-2.693-10.674-3.206-15.463-.494-8.984.045-12.581 1.34-6.851 2.392-9.748l2.494-7.072 1.302-4.271s.295-2.393.115-4.102-.588-3.558-1.225-5.559l-1.372-4.521c-.278-1.021-.293-2.065-.045-3.133s.391-1.655.442-1.751a.92.92 0 0 1 .186-.256 1.19 1.19 0 0 1 .269-.188 1 1 0 0 1 .308-.087 1.23 1.23 0 0 1 .327.006c.107.016.207.058.301.113a1 1 0 0 1 .257.2.94.94 0 0 1 .173.269.98.98 0 0 1 .077.306.89.89 0 0 1-.032.319.89.89 0 0 1-.128.288 1.07 1.07 0 0 1-.218.238.89.89 0 0 1-.282.15 1.04 1.04 0 0 1-.321.063 1.18 1.18 0 0 1-.321-.044.98.98 0 0 1-.288-.144.97.97 0 0 1-.231-.225.9.9 0 0 1-.141-.288.98.98 0 0 1-.045-.313c.004-.109.026-.213.064-.313s.092-.192.16-.275a.88.88 0 0 1 .244-.206 1 1 0 0 1 .301-.125c.107-.025.214-.033.321-.025s.216.035.314.081.194.098.276.169a.88.88 0 0 1 .199.25.92.92 0 0 1 .115.294 1.14 1.14 0 0 1 .006.319l-.026.156-.519 1.169c-.346.775-.38 1.638-.103 2.589l1.411 4.583c.663 2.109 1.081 4.106 1.257 5.99s.13 3.368-.135 4.452-.695 2.545-1.302 4.383-1.415 4.146-2.424 6.934-1.772 5.913-2.289 9.36-.517 7.514 0 12.187 1.582 9.698 3.193 15.088 3.518 10.128 5.719 14.225l4.334 8.354c.693 1.476 1.25 2.032 1.674 1.67s.9-.936 1.417-1.732.799-1.605.834-2.426-.107-1.507-.423-2.045l-.532-.932c-.039-.083-.066-.169-.083-.256a1.28 1.28 0 0 1-.013-.257.87.87 0 0 1 .051-.256 1.03 1.03 0 0 1 .109-.238 1.02 1.02 0 0 1 .167-.212 1.17 1.17 0 0 1 .218-.156 1.27 1.27 0 0 1 .244-.113 1.13 1.13 0 0 1 .269-.044c.086-.004.173.002.263.019a1.55 1.55 0 0 1 .256.075c.081.038.158.083.231.138a1 1 0 0 1 .186.187l.083.106z"/><path d="M48.944 53.083l1.924-.869c1.282-.584 2.958-1.517 5.027-2.801s4.416-2.439 7.04-3.464l6.636-2.651 2.86-1.194c.107-.05.222-.083.346-.1a1.04 1.04 0 0 1 .359.013 1.08 1.08 0 0 1 .333.119c.106.059.201.138.282.225a1.03 1.03 0 0 1 .192.294c.047.108.075.223.083.344a1.04 1.04 0 0 1-.032.344c-.03.113-.077.225-.141.325a.93.93 0 0 1-.244.256 1.1 1.1 0 0 1-.314.175 1.24 1.24 0 0 1-.353.063 1 1 0 0 1-.353-.05 1.04 1.04 0 0 1-.321-.156 1.22 1.22 0 0 1-.257-.25 1.07 1.07 0 0 1-.154-.313.95.95 0 0 1-.051-.344 1.03 1.03 0 0 1 .071-.344c.043-.113.103-.215.18-.306a1.1 1.1 0 0 1 .269-.231 1.08 1.08 0 0 1 .327-.138 1.27 1.27 0 0 1 .359-.031 1.24 1.24 0 0 1 .346.088 1.16 1.16 0 0 1 .308.188.98.98 0 0 1 .218.275 1.14 1.14 0 0 1 .128.331 1.07 1.07 0 0 1 .006.35 1.01 1.01 0 0 1-.109.331 1.1 1.1 0 0 1-.212.288l-.128.125-2.969 1.132-6.707 2.639c-2.488 1-4.788 2.186-6.899 3.558l-5.04 3.026-2.02 1.032a1.25 1.25 0 0 1-.301.063 1.05 1.05 0 0 1-.295-.006 1.18 1.18 0 0 1-.295-.075 1.42 1.42 0 0 1-.269-.144 1.44 1.44 0 0 1-.224-.2 1.2 1.2 0 0 1-.167-.25 1.18 1.18 0 0 1-.103-.281c-.026-.096-.036-.192-.032-.288s.015-.2.045-.3a1.28 1.28 0 0 1 .109-.275 1.25 1.25 0 0 1 .18-.238 1.1 1.1 0 0 1 .231-.194l.128-.087zm12.367-11.002l2.193-2.351c1.471-1.563 4.095-3.104 7.874-4.621s7.329-2.495 10.637-2.932 5.835-.056 7.579 1.157 3.217 2.956 4.418 5.227a203.92 203.92 0 0 1 3.302 6.472c.996 2.051 2.056 3.706 3.18 4.965s2.08 2.132 2.866 2.633 1.576.625 2.379.375 1.268-.381 1.379-.381a1.02 1.02 0 0 1 .32.044c.106.034.203.081.289.144a1.08 1.08 0 0 1 .231.231.91.91 0 0 1 .141.288c.034.1.049.204.045.313s-.026.213-.064.313-.099.192-.167.275a.98.98 0 0 1-.244.213c-.094.058-.194.1-.301.125s-.216.027-.327.019a.89.89 0 0 1-.314-.081.9.9 0 0 1-.276-.175c-.081-.071-.15-.154-.205-.25a1.01 1.01 0 0 1-.109-.3 1.17 1.17 0 0 1-.007-.319 1 1 0 0 1 .103-.3 1.03 1.03 0 0 1 .192-.256 1.05 1.05 0 0 1 .27-.181.91.91 0 0 1 .314-.094 1.08 1.08 0 0 1 .327.012c.107.021.207.058.301.113s.184.121.257.2a1.06 1.06 0 0 1 .173.275c.043.096.066.198.07.306s0 .215-.025.319a.99.99 0 0 1-.135.288.97.97 0 0 1-.218.238 1.12 1.12 0 0 1-.288.156l-.154.05-1.693.138c-1.124.092-2.195-.173-3.212-.794s-2.136-1.622-3.354-3.001-2.328-3.089-3.328-5.127l-3.084-6.172c-1.056-2.08-2.289-3.668-3.7-4.765s-3.621-1.415-6.643-.957-6.303 1.382-9.842 2.77-6.012 2.87-7.419 4.446l-2.212 2.445a1.5 1.5 0 0 1-.218.144 1.18 1.18 0 0 1-.244.088 1.05 1.05 0 0 1-.25.031 1.03 1.03 0 0 1-.256-.031c-.086-.021-.167-.052-.244-.094s-.15-.086-.218-.144a.87.87 0 0 1-.167-.188c-.047-.071-.092-.146-.122-.225a1.34 1.34 0 0 1-.064-.25c-.009-.079-.009-.16 0-.244a1.19 1.19 0 0 1 .064-.25 1.44 1.44 0 0 1 .122-.225l.077-.106v.006z"/><path d="M93.348 46.565l-1.257-.857c-.834-.567-2.46-.982-4.88-1.244s-5.273-.321-8.547-.175l-7.521.006-2.283-.225c.214-.008.28-.015.199-.019a1.02 1.02 0 0 1-.244-.05 1.19 1.19 0 0 1-.224-.1 1.08 1.08 0 0 1-.192-.15 1.09 1.09 0 0 1-.147-.194.9.9 0 0 1-.096-.219c-.026-.079-.041-.16-.045-.244a.89.89 0 0 1 .019-.238 1.14 1.14 0 0 1 .077-.231c.034-.075.079-.138.135-.2a1.09 1.09 0 0 1 .173-.169 1.13 1.13 0 0 1 .218-.125c.073-.029.152-.052.237-.069l3.155-.438c2.022-.279 4.783-.123 8.284.469s7.188 1.872 11.073 3.827c3.877 1.963 6.978 3.643 9.303 5.04s3.982 2.584 4.97 3.577 1.596 1.968 1.827 2.926.434 2.051.609 3.276l.257 2.007a1.02 1.02 0 0 1-.077.313.96.96 0 0 1-.173.269c-.073.083-.156.152-.25.206a.99.99 0 0 1-.308.112.86.86 0 0 1-.327.013 1 1 0 0 1-.314-.088.92.92 0 0 1-.27-.181.99.99 0 0 1-.199-.256.97.97 0 0 1-.102-.306.9.9 0 0 1 .006-.319.89.89 0 0 1 .109-.306 1.03 1.03 0 0 1 .199-.25.9.9 0 0 1 .276-.175.95.95 0 0 1 .32-.081.97.97 0 0 1 .327.019 1 1 0 0 1 .302.125c.094.054.177.123.25.206s.124.175.167.275a1.07 1.07 0 0 1 .064.319.99.99 0 0 1-.18.607.97.97 0 0 1-.526.375c-.102.033-.209.05-.32.05a1.25 1.25 0 0 1-.327-.056c-.103-.038-.199-.09-.289-.156a.99.99 0 0 1-.218-.238.8.8 0 0 1-.134-.288l-.045-.156-.097-1.782c-.064-1.188-.143-2.145-.237-2.87s-.568-1.511-1.423-2.37-2.432-1.972-4.719-3.339-5.296-3.008-9.015-4.909c-3.728-1.901-7.243-3.143-10.548-3.727s-5.995-.684-8.073-.3l-3.238.569a1.26 1.26 0 0 1-.244-.05 1.19 1.19 0 0 1-.224-.1 1.08 1.08 0 0 1-.192-.15 1.09 1.09 0 0 1-.147-.194.9.9 0 0 1-.096-.219.93.93 0 0 1-.045-.238c-.004-.083.002-.165.019-.244a1.14 1.14 0 0 1 .077-.231c.034-.075.079-.138.135-.2a1.09 1.09 0 0 1 .173-.169 1.13 1.13 0 0 1 .218-.125c.073-.029.152-.052.237-.069s.28.229.596.725 1.077.613 2.283.338 3.499-.496 6.88-.663 6.414-.079 9.099.25 4.471.763 5.36 1.313l1.423.907a1.17 1.17 0 0 1 .173.181 1.59 1.59 0 0 1 .122.219c.03.075.051.154.064.238s.009.165 0 .244a.96.96 0 0 1-.058.238.81.81 0 0 1-.109.219.91.91 0 0 1-.167.188 1.1 1.1 0 0 1-.205.144 1.16 1.16 0 0 1-.237.094 1 1 0 0 1-.25.031c-.081 0-.162-.008-.244-.025a1 1 0 0 1-.237-.081l-.115-.056zm8.324 40.719l-1.699 1.188c-1.137.788-1.902 1.597-2.295 2.426s-.515 1.549-.365 2.157.372 1.096.654 1.463l.564.675a1.08 1.08 0 0 1 .231.288c.064.104.109.219.135.344a1.03 1.03 0 0 1 .006.363 1.08 1.08 0 0 1-.109.35 1.09 1.09 0 0 1-.218.3c-.09.088-.19.158-.301.213s-.235.09-.359.106a1.05 1.05 0 0 1-.378-.006c-.124-.025-.242-.067-.353-.125a1.22 1.22 0 0 1-.295-.231c-.085-.092-.152-.194-.199-.306a1.26 1.26 0 0 1-.096-.356c-.013-.125.002-.242.032-.363s.079-.233.147-.338a1.19 1.19 0 0 1 .25-.275 1.09 1.09 0 0 1 .327-.181 1.25 1.25 0 0 1 .372-.069c.124-.004.248.013.372.05a1.23 1.23 0 0 1 .334.163 1.19 1.19 0 0 1 .269.256 1.16 1.16 0 0 1 .167.331 1.04 1.04 0 0 1 .051.363 1.15 1.15 0 0 1-.071.356c-.043.117-.105.223-.186.319a1.29 1.29 0 0 1-.276.25 1.04 1.04 0 0 1-.346.144 1.25 1.25 0 0 1-.372.031c-.128-.013-.25-.042-.365-.088l-.18-.075-.898-1.338c-.598-.888-.955-1.815-1.071-2.783s.107-2.047.667-3.251 1.387-2.251 2.494-3.151l1.801-1.432c.094-.058.195-.102.302-.131a1.27 1.27 0 0 1 .333-.056 1.24 1.24 0 0 1 .327.019c.107.021.212.054.314.1a1.53 1.53 0 0 1 .289.169 1.4 1.4 0 0 1 .231.231 1.49 1.49 0 0 1 .173.281 1.15 1.15 0 0 1 .096.313 1.15 1.15 0 0 1 .019.319 1.16 1.16 0 0 1-.057.319c-.035.104-.082.202-.142.294s-.128.181-.205.256l-.122.119zm-31.64 3.292l-1.084.163-1.93.344-1.007.175a1.33 1.33 0 0 1-.34-.044c-.111-.029-.218-.069-.321-.119s-.197-.119-.282-.194-.16-.16-.224-.256a1.52 1.52 0 0 1-.16-.294c-.038-.108-.064-.217-.077-.325a1.28 1.28 0 0 1 .006-.338c.017-.113.041-.221.083-.325a1.6 1.6 0 0 1 .16-.288 1.62 1.62 0 0 1 .231-.25 1.27 1.27 0 0 1 .282-.188 1.69 1.69 0 0 1 .327-.119l1.032-.206c.577-.113 1.513-.177 2.808-.194s2.646.156 4.052.507 2.629.809 3.655 1.376 1.896 1.117 2.61 1.638l2.052 1.482 1.116.832a1.19 1.19 0 0 1 .224.281 1.13 1.13 0 0 1 .115.331 1.11 1.11 0 0 1 .006.356.99.99 0 0 1-.115.338c-.055.108-.126.202-.212.281s-.19.152-.301.206a1.15 1.15 0 0 1-.346.1 1.19 1.19 0 0 1-.365-.019 1.23 1.23 0 0 1-.34-.125 1.15 1.15 0 0 1-.282-.231c-.077-.088-.139-.188-.186-.3a1.04 1.04 0 0 1-.083-.344 1.11 1.11 0 0 1 .032-.356 1.16 1.16 0 0 1 .154-.319 1.2 1.2 0 0 1 .244-.263c.098-.071.205-.127.321-.169s.235-.058.359-.063.244.019.359.056.222.092.321.163a1.14 1.14 0 0 1 .257.256 1.06 1.06 0 0 1 .154.319 1.1 1.1 0 0 1 .045.35c-.004.121-.03.238-.077.35s-.105.215-.186.306a1.18 1.18 0 0 1-.269.231c-.102.062-.22.106-.34.131s-.239.037-.359.025a1.13 1.13 0 0 1-.353-.094l-.167-.069-.975-.813-1.943-1.501c-.645-.463-1.402-.921-2.27-1.376s-1.891-.805-3.084-1.063-2.357-.34-3.495-.244l-2.687.356-1.167.213a1.33 1.33 0 0 1-.34-.044c-.111-.029-.218-.069-.321-.119s-.197-.119-.282-.194-.16-.16-.224-.256a1.52 1.52 0 0 1-.16-.294c-.038-.108-.064-.217-.077-.325a1.28 1.28 0 0 1 .006-.338c.017-.113.041-.221.083-.325a1.6 1.6 0 0 1 .16-.288 1.62 1.62 0 0 1 .231-.25 1.27 1.27 0 0 1 .282-.188 1.69 1.69 0 0 1 .327-.119c.111-.025.434-.044.968-.056s1.161-.079 1.891-.188l1.244-.169a1.25 1.25 0 0 1 .301.025c.098.021.195.054.289.1a1.02 1.02 0 0 1 .256.163 1.04 1.04 0 0 1 .212.219c.064.079.115.165.154.256a1.27 1.27 0 0 1 .083.288 1.35 1.35 0 0 1 .006.294c-.008.1-.03.198-.064.294a1.19 1.19 0 0 1-.135.269 1.43 1.43 0 0 1-.192.231c-.077.067-.16.125-.25.175s-.184.09-.282.119l-.147.038zm-2.254 1.968l.494 1.632c.325 1.092.791 1.993 1.398 2.701s1.255 1.155 1.943 1.351 1.481.146 2.366-.138l3.264-1.038 2.116-.625a1.08 1.08 0 0 1 .346.019.96.96 0 0 1 .321.119 1.04 1.04 0 0 1 .269.219 1.26 1.26 0 0 1 .18.288 1.08 1.08 0 0 1 .077.331.94.94 0 0 1-.038.331 1.04 1.04 0 0 1-.141.313 1.3 1.3 0 0 1-.237.244.97.97 0 0 1-.308.156 1.19 1.19 0 0 1-.34.063 1.07 1.07 0 0 1-.34-.056c-.111-.037-.214-.086-.308-.156a.93.93 0 0 1-.237-.244.89.89 0 0 1-.147-.306.87.87 0 0 1-.038-.331.96.96 0 0 1 .07-.331c.043-.104.1-.2.173-.288a1.22 1.22 0 0 1 .263-.225 1.16 1.16 0 0 1 .321-.125 1.09 1.09 0 0 1 .346-.019 1.16 1.16 0 0 1 .333.088.98.98 0 0 1 .288.188 1.08 1.08 0 0 1 .212.269.94.94 0 0 1 .109.319 1.01 1.01 0 0 1 .006.338.94.94 0 0 1-.109.319 1.08 1.08 0 0 1-.212.269 1.02 1.02 0 0 1-.282.194l-.16.069-1.968.481-3.764.938c-1.197.309-2.312.294-3.347-.044s-1.971-.973-2.796-1.907-1.43-1.947-1.827-3.039l-.635-1.776a1.26 1.26 0 0 1-.019-.281c.004-.096.021-.188.051-.275a1.03 1.03 0 0 1 .115-.263 1 1 0 0 1 .173-.225c.068-.071.145-.131.231-.181a1.15 1.15 0 0 1 .263-.119c.094-.029.19-.048.288-.056a1.32 1.32 0 0 1 .282.012 1.29 1.29 0 0 1 .282.081 1.36 1.36 0 0 1 .25.15 1.14 1.14 0 0 1 .212.194 1.13 1.13 0 0 1 .154.244l.058.131z"/></g><path d="M74.866 96.876l-1.629.038c-1.09.021-2.312-.329-3.668-1.05s-2.129-1.715-2.321-2.995.12-2.678.923-4.196l1.885-3.939c.453-1.109.554-2.047.301-2.814s-.737-1.644-1.468-2.645l-1.154-1.651a1.12 1.12 0 0 1-.083-.313.8.8 0 0 1 .032-.319.95.95 0 0 1 .128-.294 1.02 1.02 0 0 1 .225-.244 1.03 1.03 0 0 1 .282-.156 1.11 1.11 0 0 1 .327-.062c.111 0 .22.015.327.044a1.07 1.07 0 0 1 .295.144 1.03 1.03 0 0 1 .237.231 1.02 1.02 0 0 1 .147.288 1.15 1.15 0 0 1 .045.319 1.03 1.03 0 0 1-.064.319 1 1 0 0 1-.167.281.98.98 0 0 1-.244.213 1 1 0 0 1-.301.125c-.111.029-.222.038-.333.025a1.21 1.21 0 0 1-.321-.075c-.103-.042-.195-.1-.276-.175a.96.96 0 0 1-.205-.25 1.12 1.12 0 0 1-.115-.3 1.04 1.04 0 0 1-.013-.325c.013-.108.051-.21.102-.306s.111-.188.192-.263a.86.86 0 0 1 .269-.188.91.91 0 0 1 .314-.094c.111-.017.22-.015.327.006s.216.058.314.112a1 1 0 0 1 .257.2l.109.125 1.077 1.807c.714 1.205 1.195 2.339 1.443 3.402s.139 2.222-.34 3.477-1.073 2.501-1.795 3.727-1.066 2.314-1.032 3.252.504 1.59 1.398 1.97 1.859.525 2.898.438l1.693-.119a1.01 1.01 0 0 1 .269.05 1.23 1.23 0 0 1 .25.113c.077.046.154.102.218.169s.12.133.167.213a1.38 1.38 0 0 1 .115.25 1.06 1.06 0 0 1 .045.263 1.09 1.09 0 0 1-.019.263 1.14 1.14 0 0 1-.083.256 1.02 1.02 0 0 1-.147.231 1.01 1.01 0 0 1-.192.188 1.2 1.2 0 0 1-.237.138c-.085.038-.175.065-.269.081l-.135.019zm24.235-3.7l-2.828-1.15c-1.885-.767-3.559-2.074-5.02-3.921s-1.597-4.125-.404-6.834 1.466-4.66.821-5.84-1.582-1.978-2.821-2.407l-3.36-1.238-1.629-.669a.77.77 0 0 1-.212-.175.84.84 0 0 1-.141-.238.7.7 0 0 1-.064-.263.84.84 0 0 1 .032-.275.95.95 0 0 1 .115-.25.87.87 0 0 1 .199-.194.76.76 0 0 1 .244-.131c.09-.029.182-.044.276-.044s.192.015.282.044a.97.97 0 0 1 .244.131c.077.054.141.121.192.2a.76.76 0 0 1 .122.25.94.94 0 0 1 .026.269c-.004.092-.023.181-.058.269a.79.79 0 0 1-.148.231.77.77 0 0 1-.212.175c-.081.05-.169.086-.263.106a1.07 1.07 0 0 1-.282.013c-.094-.013-.184-.038-.269-.075a.79.79 0 0 1-.231-.156c-.069-.066-.124-.133-.167-.213s-.077-.171-.09-.263-.017-.183 0-.275a.79.79 0 0 1 .09-.256.77.77 0 0 1 .167-.219.94.94 0 0 1 .237-.15c.085-.042.175-.067.269-.075a1.07 1.07 0 0 1 .282.013l.135.031 1.513.581 3.725 1.532c1.483.634 2.599 1.738 3.347 3.314s.513 3.668-.692 6.278-1.214 4.56-.013 5.853 2.729 2.293 4.597 3.001l2.911 1.119a1.09 1.09 0 0 1 .211.15 1.04 1.04 0 0 1 .167.194c.047.071.086.146.115.225a.99.99 0 0 1 .058.25.91.91 0 0 1-.006.244.85.85 0 0 1-.064.25 1.03 1.03 0 0 1-.129.219 1.07 1.07 0 0 1-.173.188c-.064.055-.141.1-.218.138s-.165.071-.25.088a1.03 1.03 0 0 1-.25.025.91.91 0 0 1-.257-.038l-.128-.031z" fill="#78b964"/><path d="M73.075 94.879l-.596-.181a6.32 6.32 0 0 0-1.097-.25c-.334-.042-.573-.09-.705-.144a1.89 1.89 0 0 1-.385-.206 1.82 1.82 0 0 1-.314-.288 1.62 1.62 0 0 1-.244-.35c-.064-.125-.113-.256-.148-.394a1.72 1.72 0 0 1-.038-.419 1.53 1.53 0 0 1 .058-.419c.039-.138.092-.269.16-.394a1.87 1.87 0 0 1 .257-.344c.098-.104.207-.196.327-.275a1.77 1.77 0 0 1 .391-.188 1.66 1.66 0 0 1 .423-.094 1.87 1.87 0 0 1 .436.006c.145.021.498.025 1.071.013l1.904.063c.701.054 1.317.148 1.847.281s1.111.383 1.731.75 1.114.98 1.468 1.851.543 1.415.551 1.632a1.93 1.93 0 0 1-.077.625 1.81 1.81 0 0 1-.282.575 2 2 0 0 1-.449.456 2.08 2.08 0 0 1-.577.288 1.97 1.97 0 0 1-.641.094 1.95 1.95 0 0 1-.641-.106 1.92 1.92 0 0 1-.571-.306 1.82 1.82 0 0 1-.442-.463c-.119-.18-.214-.371-.269-.575s-.077-.419-.064-.632a2.02 2.02 0 0 1 .147-.619 1.96 1.96 0 0 1 .34-.538c.145-.163.312-.298.5-.406a2.09 2.09 0 0 1 .609-.231 2.11 2.11 0 0 1 .648-.025c.218.025.427.083.628.175a1.99 1.99 0 0 1 .532.363 1.89 1.89 0 0 1 .385.513 1.85 1.85 0 0 1 .205.6c.034.212.028.423-.006.631a1.88 1.88 0 0 1-.218.6 1.89 1.89 0 0 1-.397.5 1.99 1.99 0 0 1-1.173.512 1.99 1.99 0 0 1-.648-.044 1.97 1.97 0 0 1-.603-.238 2.01 2.01 0 0 1-.487-.419 1.83 1.83 0 0 1-.327-.544l-.122-.3.115-.381c.073-.25-.154-.461-.68-.632s-1.015-.285-1.481-.356-1.118-.127-1.968-.181l-1.481-.163a1.89 1.89 0 0 1-.385-.206 1.82 1.82 0 0 1-.314-.288 1.62 1.62 0 0 1-.244-.35c-.064-.125-.113-.256-.148-.394a1.72 1.72 0 0 1-.038-.419 1.53 1.53 0 0 1 .058-.419c.039-.138.092-.269.16-.394a1.87 1.87 0 0 1 .257-.344c.098-.104.207-.196.327-.275a1.77 1.77 0 0 1 .391-.188 1.66 1.66 0 0 1 .423-.094 1.87 1.87 0 0 1 .436.006c.145.021.419.092.834.213l1.193.413.757.313c.124.058.237.131.34.219a1.62 1.62 0 0 1 .276.288 1.82 1.82 0 0 1 .192.344 1.53 1.53 0 0 1 .103.381 1.31 1.31 0 0 1 .006.388 1.42 1.42 0 0 1-.09.381c-.043.125-.103.244-.179.356a1.59 1.59 0 0 1-.263.3c-.098.088-.207.163-.327.225a1.44 1.44 0 0 1-.372.15 1.87 1.87 0 0 1-.397.056 1.64 1.64 0 0 1-.398-.044l-.199-.044zm24.775-1.647l.943-.707a14.02 14.02 0 0 0 1.834-1.663l1.083-1.088a1.59 1.59 0 0 1 .417-.213c.154-.046.31-.067.468-.062a1.35 1.35 0 0 1 .462.081c.15.05.286.123.41.219a1.53 1.53 0 0 1 .321.338 1.52 1.52 0 0 1 .192.419 1.35 1.35 0 0 1 .039.457 1.26 1.26 0 0 1-.109.45 1.52 1.52 0 0 1-.244.388c-.103.117-.229.215-.365.294a1.61 1.61 0 0 1-.443.162 1.63 1.63 0 0 1-.468.019c-.158-.016-.308-.065-.449-.131a1.47 1.47 0 0 1-.391-.263c-.111-.108-.203-.233-.276-.375s-.119-.281-.141-.431a1.31 1.31 0 0 1 .007-.463c.03-.15.081-.294.154-.431a1.49 1.49 0 0 1 .295-.363 1.39 1.39 0 0 1 .391-.25c.146-.062.297-.1.455-.112a1.36 1.36 0 0 1 .468.031 1.32 1.32 0 0 1 .436.175 1.38 1.38 0 0 1 .353.306c.102.117.181.248.237.394a1.49 1.49 0 0 1 .096.45c.004.154-.015.306-.058.457a1.55 1.55 0 0 1-.205.413l-.141.188-1.058.994-1.968 1.751-1.045.863a1.23 1.23 0 0 1-.321.144c-.111.037-.224.06-.34.069a1.62 1.62 0 0 1-.346-.013 1.32 1.32 0 0 1-.333-.094 1.63 1.63 0 0 1-.301-.169c-.094-.071-.18-.15-.256-.238a1.45 1.45 0 0 1-.186-.288 1.27 1.27 0 0 1-.141-.657 1.27 1.27 0 0 1 .058-.338c.034-.113.079-.219.135-.319a1.27 1.27 0 0 1 .212-.269l.122-.125z" fill="#68d44a"/><g fill="#000"><path d="M102.402 111.525l-.738.356c-.495.238-1.072.452-1.731.644a16.72 16.72 0 0 1-2.02.463 20.3 20.3 0 0 1-2.135.244l-2.244.075c-.765.004-1.567-.025-2.404-.088L88.712 113l-2.334-.306-2.109-.288-1.744-.2-1.494-.194c-.462-.062-1.114-.2-1.956-.412l-2.296-.607-1.821-.55-.904-.294c-.081-.021-.173-.083-.276-.188a1.75 1.75 0 0 1-.269-.337c-.073-.125-.13-.257-.173-.394a1.78 1.78 0 0 1-.077-.425 1.59 1.59 0 0 1 .032-.426 1.61 1.61 0 0 1 .135-.412c.06-.129.137-.25.231-.363s.199-.212.314-.3.246-.161.378-.219a1.91 1.91 0 0 1 .423-.125c.145-.025.293-.031.442-.019s.288.036.43.082.276.1.404.175.308.346.552.8.573.898.975 1.332l1.289 1.257c.457.408.904.758 1.34 1.05l1.327.826 1.385.706 1.539.694c.551.25 1.175.432 1.872.544l2.276.313 2.456.206 2.379.069 2.161-.025c.671-.017 1.248-.065 1.731-.144l1.487-.275 1.418-.35 1.551-.525c.594-.225.962-.332 1.103-.319s.272-.077.404-.269a2.1 2.1 0 0 1 .487-.5c.188-.142.396-.25.622-.326s.453-.112.693-.112.466.035.692.106a2.36 2.36 0 0 1 .629.319c.188.142.348.309.481.5s.237.398.301.619.09.453.077.682-.062.458-.148.675-.205.413-.359.588a2.14 2.14 0 0 1-.538.45 2.36 2.36 0 0 1-.654.257 2.19 2.19 0 0 1-.699.037c-.24-.025-.466-.085-.68-.181a2.08 2.08 0 0 1-.583-.382 1.98 1.98 0 0 1-.43-.55c-.111-.204-.188-.421-.231-.65s-.038-.453 0-.682.114-.448.225-.656a2.09 2.09 0 0 1 .423-.544 2.04 2.04 0 0 1 .577-.388c.218-.1.444-.163.68-.188a2.22 2.22 0 0 1 .705.038c.231.046.449.129.654.25a2.02 2.02 0 0 1 .538.444c.154.175.276.371.366.588a1.98 1.98 0 0 1 .154.669c.013.229-.011.456-.071.681l-.096.338-1.59 1.151c-1.064.771-1.939 1.258-2.622 1.463l-1.738.487-1.449.301-1.821.262a21.24 21.24 0 0 1-2.199.163l-2.302.006-1.885-.012-1.423-.038-2.052-.15-2.405-.313a10.41 10.41 0 0 1-2.045-.569l-1.77-.769-1.674-.888-1.597-1-1.597-1.226c-.59-.483-1.148-1.019-1.674-1.607s-.878-1.125-1.058-1.6-.327-.763-.43-.863c-.103-.105-.192-.219-.269-.344s-.13-.257-.173-.394a1.78 1.78 0 0 1-.077-.425 1.59 1.59 0 0 1 .032-.426 1.61 1.61 0 0 1 .135-.412c.06-.129.137-.25.231-.363s.199-.212.314-.3.246-.161.378-.219a1.91 1.91 0 0 1 .423-.125c.145-.025.293-.031.442-.019s.288.036.43.082a1.66 1.66 0 0 1 .397.175c.128.079.199.112.212.1s.265.081.757.281l1.827.713 2.225.763 1.879.5 1.699.313 2.058.3 2.206.237 2.263.119 2.231-.019 2.045-.112 1.834-.188 1.674-.331a12.34 12.34 0 0 0 1.565-.494l.923-.35c.107-.034.216-.054.327-.063a1.39 1.39 0 0 1 .321.025c.111.017.215.048.314.094a1.38 1.38 0 0 1 .282.169c.09.067.169.142.237.225a1.29 1.29 0 0 1 .167.275 1.34 1.34 0 0 1 .102.306c.018.109.024.215.02.319a1.3 1.3 0 0 1-.064.313c-.035.104-.079.202-.135.294a1.3 1.3 0 0 1-.205.256c-.077.075-.163.14-.257.194l-.147.088z"/><path d="M102.03 109.239l.436-.213c.287-.142.511-.229.673-.262a1.39 1.39 0 0 1 .494-.025 1.51 1.51 0 0 1 .475.125c.153.066.29.156.41.269s.22.239.301.381a1.34 1.34 0 0 1 .154.456 1.3 1.3 0 0 1 0 .482c-.025.158-.077.308-.154.45a1.31 1.31 0 0 1-.301.381c-.12.113-.254.205-.404.276s-.308.108-.474.125-.332.012-.494-.025a1.57 1.57 0 0 1-.462-.175 1.53 1.53 0 0 1-.365-.313c-.107-.125-.193-.263-.257-.413a1.53 1.53 0 0 1-.109-.462 1.39 1.39 0 0 1 .058-.476 1.38 1.38 0 0 1 .205-.437 1.57 1.57 0 0 1 .34-.351c.128-.1.271-.175.429-.225s.321-.081.488-.081a1.48 1.48 0 0 1 .481.081c.158.05.303.125.436.225a1.5 1.5 0 0 1 .34.344 1.61 1.61 0 0 1 .211.438 1.51 1.51 0 0 1 .051.482c-.008.162-.042.316-.102.462s-.15.288-.257.413a1.56 1.56 0 0 1-.372.313l-.218.125-.468.137-.634.188c-.116.029-.231.044-.347.044a1.62 1.62 0 0 1-.346-.032c-.116-.025-.224-.064-.327-.119a1.35 1.35 0 0 1-.295-.187 1.47 1.47 0 0 1-.237-.25 1.53 1.53 0 0 1-.167-.3 1.57 1.57 0 0 1-.09-.332 1.27 1.27 0 0 1-.006-.337 1.54 1.54 0 0 1 .077-.332 1.37 1.37 0 0 1 .154-.306c.068-.096.145-.184.231-.263s.179-.142.282-.2l.16-.081zm-42.207-.519l.942 1.276 2.757 3.639c1.205 1.58 2.806 3.156 4.803 4.727l4.854 3.652 3.244 2.244 1.494 1.063c.068.067.126.144.173.232a.82.82 0 0 1 .083.262.78.78 0 0 1 0 .282.84.84 0 0 1-.096.262.91.91 0 0 1-.18.226.93.93 0 0 1-.244.15.86.86 0 0 1-.276.068.74.74 0 0 1-.289-.018.95.95 0 0 1-.263-.107.99.99 0 0 1-.218-.181.92.92 0 0 1-.141-.244.85.85 0 0 1-.058-.275c-.004-.096.006-.19.032-.281s.073-.171.128-.25a.82.82 0 0 1 .199-.201c.077-.058.162-.1.256-.125s.188-.043.282-.043a.84.84 0 0 1 .288.05.97.97 0 0 1 .25.137.81.81 0 0 1 .192.207.71.71 0 0 1 .115.256c.021.092.034.183.026.275a.76.76 0 0 1-.064.275.87.87 0 0 1-.372.413.82.82 0 0 1-.269.1.82.82 0 0 1-.289.012c-.094-.012-.186-.039-.276-.081l-.128-.062-1.404-.945-3.328-2.244-5.104-3.79c-2.124-1.663-3.806-3.274-5.046-4.833l-2.866-3.57-1.071-1.351c-.047-.075-.083-.154-.109-.238a1.06 1.06 0 0 1-.045-.262c-.004-.084.002-.169.019-.257a1.16 1.16 0 0 1 .083-.25.94.94 0 0 1 .148-.219c.06-.067.12-.133.192-.187a1.52 1.52 0 0 1 .231-.131 1.35 1.35 0 0 1 .263-.075 1.38 1.38 0 0 1 .263-.013 1.13 1.13 0 0 1 .263.056.92.92 0 0 1 .244.113 1.16 1.16 0 0 1 .212.162l.096.094z"/><path d="M78.862 123.227l1.564.957c1.047.634 2.394 1.236 4.04 1.807a34.98 34.98 0 0 0 5.001 1.319l4.341.626 3.424.206 1.782.075a1.31 1.31 0 0 1 .327.131 1.15 1.15 0 0 1 .263.232.96.96 0 0 1 .18.3 1.01 1.01 0 0 1 .07.338 1.04 1.04 0 0 1-.045.343c-.034.109-.085.211-.154.307a1.08 1.08 0 0 1-.25.25c-.094.067-.199.119-.314.156s-.227.05-.346.05a1.29 1.29 0 0 1-.353-.062 1.02 1.02 0 0 1-.308-.169c-.094-.071-.173-.154-.237-.25a1.03 1.03 0 0 1-.147-.319c-.03-.113-.041-.227-.032-.344s.036-.229.083-.338a1.14 1.14 0 0 1 .186-.287 1.13 1.13 0 0 1 .276-.219 1.16 1.16 0 0 1 .327-.125 1.06 1.06 0 0 1 .359-.013 1.13 1.13 0 0 1 .34.094 1.26 1.26 0 0 1 .288.2 1.02 1.02 0 0 1 .205.282 1 1 0 0 1 .109.325 1.07 1.07 0 0 1-.006.35 1.14 1.14 0 0 1-.115.325 1.21 1.21 0 0 1-.218.269 1.11 1.11 0 0 1-.295.188 1 1 0 0 1-.346.087l-.18.019-1.609-.181-3.52-.319c-1.274-.088-2.808-.28-4.604-.576s-3.595-.733-5.399-1.313-3.249-1.157-4.335-1.732l-1.744-.95a1.47 1.47 0 0 1-.218-.207c-.064-.079-.118-.162-.16-.25s-.075-.185-.096-.281-.024-.196-.019-.288a1.15 1.15 0 0 1 .051-.294c.026-.095.064-.185.115-.268a1.12 1.12 0 0 1 .186-.238 1.19 1.19 0 0 1 .237-.188c.085-.05.175-.091.269-.125.098-.029.199-.048.301-.056.094-.008.192-.004.295.013s.194.045.289.087l.141.056z"/><path d="M111.415 118.466l-.859 1.832c-.569 1.226-1.212 2.447-1.93 3.664s-1.43 2.199-2.136 2.958a13.75 13.75 0 0 1-2.173 1.92c-.744.525-1.644 1.094-2.7 1.707l-1.757.963c-.115.037-.235.054-.359.05a1.21 1.21 0 0 1-.359-.069c-.115-.042-.22-.102-.314-.182a1.2 1.2 0 0 1-.244-.262 1.19 1.19 0 0 1-.141-.332.97.97 0 0 1-.026-.35c.013-.121.043-.235.09-.344a1.14 1.14 0 0 1 .199-.3 1.09 1.09 0 0 1 .288-.219c.107-.058.22-.098.34-.118s.242-.027.365-.007a1.13 1.13 0 0 1 .346.107c.112.054.21.123.295.206a1.25 1.25 0 0 1 .212.288 1.19 1.19 0 0 1 .103.344 1.02 1.02 0 0 1-.013.356 1.19 1.19 0 0 1-.128.331c-.06.105-.137.196-.231.275a1.04 1.04 0 0 1-.308.188c-.115.046-.233.073-.353.081a1.18 1.18 0 0 1-.365-.031c-.12-.029-.231-.077-.333-.144-.103-.062-.192-.141-.269-.237a.95.95 0 0 1-.173-.307c-.043-.116-.066-.233-.071-.35s.017-.24.051-.356a1.11 1.11 0 0 1 .167-.313 1.14 1.14 0 0 1 .263-.25l.147-.106 1.487-.732c.988-.492 1.796-.95 2.424-1.376s1.231-.967 1.808-1.625 1.171-1.572 1.796-2.739 1.181-2.38 1.673-3.639l.814-2.014c.056-.091.12-.175.193-.25a1.43 1.43 0 0 1 .243-.2c.09-.054.186-.1.289-.137s.207-.055.314-.063.205-.004.308.013.209.043.308.081.19.094.275.156a1.38 1.38 0 0 1 .231.213c.069.079.126.167.173.262s.082.194.103.294.03.207.026.307a1.06 1.06 0 0 1-.045.306l-.045.15z"/><path d="M85.397 125.848l.552 1.669c.368 1.113.876 1.93 1.526 2.451s1.485.813 2.507.876a7.21 7.21 0 0 0 3.039-.494c1.005-.388 2.043-.919 3.116-1.595l1.77-1.075a1.06 1.06 0 0 1 .34-.069 1.17 1.17 0 0 1 .346.038 1.26 1.26 0 0 1 .314.143c.094.067.177.146.25.238a1.01 1.01 0 0 1 .16.3.99.99 0 0 1 .051.332.98.98 0 0 1-.058.331 1.05 1.05 0 0 1-.167.3 1.07 1.07 0 0 1-.25.231 1.05 1.05 0 0 1-.321.138 1.16 1.16 0 0 1-.34.037 1.13 1.13 0 0 1-.34-.075c-.107-.045-.205-.106-.295-.181a1.07 1.07 0 0 1-.224-.256 1.09 1.09 0 0 1-.128-.319 1.11 1.11 0 0 1-.013-.338c.013-.112.045-.221.096-.325a1.13 1.13 0 0 1 .199-.275.99.99 0 0 1 .603-.306.96.96 0 0 1 .346 0 1.11 1.11 0 0 1 .603.318.99.99 0 0 1 .192.282 1.08 1.08 0 0 1 .09.325c.013.113.006.225-.019.338s-.071.216-.135.312a1.07 1.07 0 0 1-.224.257l-.135.112-1.821.963a27.66 27.66 0 0 1-3.713 1.638c-1.257.446-2.571.601-3.943.451s-2.531-.611-3.475-1.395a7.14 7.14 0 0 1-2.103-2.876l-.725-1.838a1.32 1.32 0 0 1-.032-.282 1.08 1.08 0 0 1 .038-.281c.025-.091.062-.182.109-.269a1.12 1.12 0 0 1 .173-.231.94.94 0 0 1 .224-.182 1.23 1.23 0 0 1 .256-.131 1.2 1.2 0 0 1 .289-.063 1.33 1.33 0 0 1 .288.007c.098.013.192.037.282.075s.175.077.257.131a1.35 1.35 0 0 1 .218.194c.064.075.118.154.16.237l.064.132zm-13.476-1.009l.385.907c.256.613.511 1.144.763 1.594l.859 1.407 1.058 1.451 1.173 1.413 1.186 1.257 1.59 1.432 1.859 1.594 1.853 1.557c.663.559 1.199.961 1.609 1.207l1.488.932 1.564.937c.466.255 1.02.511 1.661.77l2.552.894 1.866.6a1.92 1.92 0 0 1 .513.281c.154.125.282.269.385.432a1.8 1.8 0 0 1 .231.525 1.75 1.75 0 0 1 .045.575 1.81 1.81 0 0 1-.141.557 1.89 1.89 0 0 1-.321.481c-.133.146-.286.261-.462.357s-.359.156-.551.194a1.77 1.77 0 0 1-.59.012 1.93 1.93 0 0 1-.558-.169 1.84 1.84 0 0 1-.481-.337 1.88 1.88 0 0 1-.34-.469 1.79 1.79 0 0 1-.167-.551c-.026-.191-.019-.383.019-.575s.107-.365.205-.531.222-.321.372-.451a1.85 1.85 0 0 1 .494-.306 1.79 1.79 0 0 1 .571-.131c.201-.017.398 0 .59.05s.372.121.539.225a1.81 1.81 0 0 1 .436.387 1.61 1.61 0 0 1 .282.501 1.71 1.71 0 0 1 .109.562 1.73 1.73 0 0 1-.083.569 1.82 1.82 0 0 1-.263.513 1.62 1.62 0 0 1-.417.4 1.92 1.92 0 0 1-.526.257 2 2 0 0 1-.584.075l-.301-.013-1.366-.444-2.103-.731a17.39 17.39 0 0 1-1.654-.763l-1.673-.888-1.661-.913-1.706-.975a14.59 14.59 0 0 1-1.52-1.038c-.479-.375-.972-.838-1.481-1.388l-1.571-1.664-1.372-1.344-1.218-1.157-1.295-1.394-1.314-1.557-1.237-1.67a16.11 16.11 0 0 1-.962-1.638l-.821-1.701-.468-1.081c-.034-.121-.056-.242-.064-.363a1.49 1.49 0 0 1 .154-.713 1.36 1.36 0 0 1 .199-.313 1.76 1.76 0 0 1 .269-.256 1.9 1.9 0 0 1 .327-.181 1.67 1.67 0 0 1 .366-.107 1.93 1.93 0 0 1 .372-.012c.124.008.246.033.365.075a1.44 1.44 0 0 1 .346.156 1.54 1.54 0 0 1 .289.232c.09.087.167.185.231.294l.096.162zm43.433-3.562l-.141 1.6a26.96 26.96 0 0 1-.59 3.533c-.295 1.288-.665 2.451-1.109 3.489s-.956 1.959-1.533 2.751l-1.654 2.139-1.475 1.701-1.404 1.469-1.526 1.463-1.584 1.426-1.475 1.269-1.314 1.101-1.244.963-1.334 1.031c-.487.396-.874.665-1.16.807s-.496.229-.628.263a1.89 1.89 0 0 1-.41.056c-.136.004-.28-.015-.417-.044s-.261-.075-.385-.137-.244-.132-.346-.219a1.75 1.75 0 0 1-.282-.3 1.56 1.56 0 0 1-.199-.357 1.74 1.74 0 0 1-.109-.387 1.85 1.85 0 0 1-.006-.407 1.59 1.59 0 0 1 .09-.394 1.66 1.66 0 0 1 .186-.356 1.68 1.68 0 0 1 .269-.307c.103-.091.216-.171.34-.237s.498-.307 1.135-.719 1.109-.794 1.43-1.132l1.167-1.257 1.468-1.613 1.417-1.607 1.25-1.376 1.379-1.557a18.94 18.94 0 0 0 1.455-2.013l1.039-1.67.737-1.188.763-1.244.969-1.526c.401-.6.716-1.256.942-1.969l.802-2.501c.307-.955.523-1.518.647-1.689s.265-.312.436-.437.357-.219.558-.282a1.97 1.97 0 0 1 .622-.094 1.96 1.96 0 0 1 .616.1c.201.071.386.169.557.294a2.09 2.09 0 0 1 .43.451 2 2 0 0 1 .257.562c.055.2.076.403.064.607s-.06.408-.141.6a1.91 1.91 0 0 1-.334.525c-.137.155-.297.284-.481.388a1.99 1.99 0 0 1-.59.225c-.21.042-.416.05-.622.025a2.03 2.03 0 0 1-.609-.169c-.192-.087-.365-.204-.519-.35s-.278-.31-.372-.494a1.88 1.88 0 0 1-.199-.581 1.94 1.94 0 0 1 .007-.613 2.02 2.02 0 0 1 .205-.582 1.93 1.93 0 0 1 .917-.825c.192-.083.395-.135.609-.156.205-.021.412-.009.622.037a2.11 2.11 0 0 1 .583.238 1.96 1.96 0 0 1 .475.4 1.83 1.83 0 0 1 .32.531 1.81 1.81 0 0 1 .129.601 1.95 1.95 0 0 1-.071.606l-.09.3-.263.738-.577 1.695c-.205.638-.493 1.323-.865 2.057s-.725 1.323-1.071 1.757a11.51 11.51 0 0 0-.923 1.319l-.795 1.276-1.212 1.744-1.661 2.258-1.366 1.632-1.051 1.025c-.364.342-.746.755-1.148 1.238l-1.302 1.689-1.385 1.85-1.346 1.582c-.44.467-.844.838-1.212 1.113s-.849.546-1.443.813l-1.09.457a2 2 0 0 1-.41.056c-.136.004-.28-.015-.417-.044s-.261-.075-.385-.137-.244-.132-.346-.219a1.75 1.75 0 0 1-.282-.3c-.081-.112-.148-.226-.199-.351a1.86 1.86 0 0 1-.109-.393 1.85 1.85 0 0 1-.006-.407 1.59 1.59 0 0 1 .09-.394 1.66 1.66 0 0 1 .186-.356 1.68 1.68 0 0 1 .269-.307c.103-.091.216-.171.34-.237l.898-.438 1.558-.75c.564-.271 1.067-.557 1.507-.857l1.36-.957 1.481-1.119 1.59-1.332 1.558-1.35 1.449-1.27c.466-.421.956-.917 1.469-1.488s1.01-1.202 1.494-1.882.908-1.494 1.275-2.432.674-1.995.905-3.183.352-2.311.378-3.383l.058-1.744a1.17 1.17 0 0 1 .089-.282 1.13 1.13 0 0 1 .154-.25 1.33 1.33 0 0 1 .205-.206 1.12 1.12 0 0 1 .257-.15c.09-.042.184-.071.282-.088a1.4 1.4 0 0 1 .295-.025c.098.004.197.027.295.057a1.07 1.07 0 0 1 .269.112 1.02 1.02 0 0 1 .237.181c.073.067.135.142.186.226a1.25 1.25 0 0 1 .129.268 1.06 1.06 0 0 1 .051.288l.013.138z"/></g><g fill="#2b8a3e"><path d="M95.696 142.307l-.936-.094c-.62-.067-.699.004-.237.212s.607.086.449-.356-.526-.532-1.103-.269-.97.336-1.18.231-.301-.273-.263-.506.122-.454.237-.663.261-.387.436-.55a2.08 2.08 0 0 1 .596-.388 2.13 2.13 0 0 1 .692-.181c.239-.025.479-.013.718.037a2.34 2.34 0 0 1 .66.263 2.23 2.23 0 0 1 .539.457c.158.179.28.377.365.594a2.11 2.11 0 0 1 .154.687c.013.238-.015.469-.083.694a2.01 2.01 0 0 1-.301.632 2.26 2.26 0 0 1-.5.506c-.188.142-.398.251-.628.326a2.17 2.17 0 0 1-.712.106 2.27 2.27 0 0 1-.705-.113c-.231-.079-.442-.189-.635-.331s-.35-.317-.487-.513a1.97 1.97 0 0 1-.295-.638c-.064-.229-.09-.46-.077-.694a2.18 2.18 0 0 1 .16-.681c.09-.221.214-.419.372-.594s.342-.33.551-.45a2.27 2.27 0 0 1 .667-.257c.239-.05.479-.06.718-.031a2.15 2.15 0 0 1 .693.194c.214.1.408.231.584.394a2.14 2.14 0 0 1 .43.55 2.22 2.22 0 0 1 .224.669l.058.35-.314 1.738c-.209 1.159-.528 1.908-.955 2.245s-.979.561-1.641.669-1.321.079-1.975-.1a3.4 3.4 0 0 1-1.641-.975c-.432-.475-.722-.984-.872-1.526s-.194-1.057-.135-1.557.182-1.023.353-1.557.425-1.021.75-1.463a2.83 2.83 0 0 1 1.218-.963c.492-.2 1.049-.292 1.673-.275a14.32 14.32 0 0 1 1.725.131c.526.071 1.137.265 1.834.582s1.208.913 1.52 1.776c.316.854.455 1.611.417 2.269s-.133 1.259-.269 1.801a2.8 2.8 0 0 1-.84 1.388c-.415.384-.936.615-1.564.694s-1.259-.056-1.904-.406-1.137-.688-1.462-1.013-.618-.767-.878-1.326a15.29 15.29 0 0 1-.699-1.763c-.205-.613-.237-1.142-.096-1.588s.688-.855 1.629-1.226 1.727-.529 2.347-.475l1.129.113c.132.029.259.073.378.131s.237.129.34.213.195.183.276.287c.077.109.141.223.192.344a1.65 1.65 0 0 1 .109.375c.017.134.019.263.006.388-.013.133-.041.26-.083.381s-.103.244-.179.357-.158.208-.257.3c-.098.087-.207.165-.327.231a1.56 1.56 0 0 1-.372.144c-.128.038-.261.058-.397.063h-.192z"/><path d="M97.13 145.291l.109 1.219.212 2.033.218 1.75c.077.63.201 1.155.372 1.576s.269.7.282.838a1.53 1.53 0 0 1-.007.419 1.63 1.63 0 0 1-.102.4c-.056.129-.124.25-.205.363a1.85 1.85 0 0 1-.289.312 2.03 2.03 0 0 1-.353.232 1.72 1.72 0 0 1-.404.137c-.137.034-.278.048-.423.044a1.59 1.59 0 0 1-.417-.056 1.68 1.68 0 0 1-.398-.15 1.76 1.76 0 0 1-.34-.238 1.83 1.83 0 0 1-.282-.319c-.081-.117-.145-.24-.192-.369a16.26 16.26 0 0 1-.25-.85c-.115-.438-.192-.944-.231-1.52l-.167-1.544c-.073-.45.083-1.036.468-1.757s.793-1.14 1.237-1.269l1.321-.394c.44-.13 1.058-.257 1.853-.382l2.154-.306 1.302-.213c.226-.054.414-.083.564-.087s.297.008.442.037.287.075.424.138.263.137.378.225.218.196.308.313a1.64 1.64 0 0 1 .218.375 1.77 1.77 0 0 1 .128.419c.021.146.028.289.019.431a1.91 1.91 0 0 1-.09.432 2.05 2.05 0 0 1-.192.387 1.8 1.8 0 0 1-.282.338c-.111.1-.231.187-.359.262a1.92 1.92 0 0 1-.41.169c-.142.042-.496.055-1.065.038s-1.19.062-1.866.25a7.32 7.32 0 0 0-1.923.844c-.607.375-1.205.684-1.795.926a5.31 5.31 0 0 1-1.802.4l-1.834.018c-.607-.012-1.222-.008-1.847.013l-2.449.044c-1.009.008-1.62-.004-1.834-.038a2.2 2.2 0 0 1-.603-.2c-.192-.1-.361-.225-.507-.375a1.89 1.89 0 0 1-.359-.519 1.71 1.71 0 0 1-.173-.594 1.8 1.8 0 0 1 .032-.625c.047-.205.126-.396.237-.576s.248-.341.41-.475.348-.246.545-.325.41-.123.628-.131.425.008.635.062.397.146.577.263a1.85 1.85 0 0 1 .462.425 1.83 1.83 0 0 1 .301.55c.068.2.103.405.103.613a1.9 1.9 0 0 1-.398 1.169c-.133.167-.286.309-.462.426s-.374.208-.584.262a1.9 1.9 0 0 1-.635.069 2.14 2.14 0 0 1-.622-.131 2.05 2.05 0 0 1-.545-.319c-.167-.138-.306-.296-.417-.475s-.19-.374-.237-.582a1.77 1.77 0 0 1-.032-.619 1.85 1.85 0 0 1 .167-.6 1.8 1.8 0 0 1 .359-.513 2.03 2.03 0 0 1 .507-.381 2.23 2.23 0 0 1 .609-.201l.314-.05 1.507.013 2.43.025 1.789-.025 1.648-.088a2.87 2.87 0 0 0 1.391-.431 9.72 9.72 0 0 1 1.468-.738c.564-.229 1.088-.41 1.571-.544.483-.129 1.184-.223 2.103-.281l1.609-.1c.15-.004.297.008.442.037s.287.075.424.138.263.137.378.225.218.196.308.313a1.64 1.64 0 0 1 .218.375 1.77 1.77 0 0 1 .128.419c.021.146.028.289.019.431a1.91 1.91 0 0 1-.09.432 2.05 2.05 0 0 1-.192.387 1.8 1.8 0 0 1-.282.338c-.111.1-.231.187-.359.262a1.92 1.92 0 0 1-.41.169c-.142.042-.327.075-.558.1l-1.193.2c-.564.105-1.344.198-2.34.282s-1.477.371-1.456.875l.064 1.557.058 1.007a1.53 1.53 0 0 1-.007.419 1.63 1.63 0 0 1-.102.4c-.056.129-.124.25-.205.363a1.67 1.67 0 0 1-.289.306c-.107.092-.224.169-.353.231-.128.067-.263.115-.404.144-.137.034-.278.048-.423.044a1.59 1.59 0 0 1-.417-.056 1.68 1.68 0 0 1-.398-.15 1.76 1.76 0 0 1-.34-.238 1.83 1.83 0 0 1-.282-.319c-.081-.117-.145-.24-.192-.369l-.096-.306-.173-.957a8.75 8.75 0 0 1-.128-1.713l-.026-1.62c-.03-.5-.128-1.15-.295-1.95l-.25-1.395a1.77 1.77 0 0 1 .038-.369 1.68 1.68 0 0 1 .128-.356c.06-.113.13-.217.212-.313s.182-.181.289-.256a1.87 1.87 0 0 1 .333-.182c.12-.045.244-.077.372-.093a1.46 1.46 0 0 1 .378-.013c.128.013.254.042.378.088s.239.096.346.162a1.81 1.81 0 0 1 .295.244 1.63 1.63 0 0 1 .224.307c.06.112.107.229.141.35l.051.181z"/><path d="M97.459 153.915l-.122.788-.263 1.513a3.44 3.44 0 0 1-.519 1.307c-.252.384-.419.719-.5 1.007s-.167.494-.244.619a2.07 2.07 0 0 1-.295.344 2.1 2.1 0 0 1-.372.269 2.25 2.25 0 0 1-.43.169c-.15.041-.301.064-.455.068a1.83 1.83 0 0 1-.455-.043c-.154-.034-.299-.084-.436-.15s-.269-.144-.385-.244-.227-.205-.321-.325a1.91 1.91 0 0 1-.224-.394 1.67 1.67 0 0 1-.122-.432c-.021-.15-.026-.3-.013-.45s.045-.296.096-.438l.308-.975c.15-.509.453-1.122.91-1.839s.947-1.367 1.456-1.95 1-.945 1.462-1.07 1.02-.104 1.661.075 1.225.521 1.75 1.026l1.648 1.632 1.077 1.157c.141.183.248.383.321.6s.107.44.102.669a1.83 1.83 0 0 1-.122.663c-.076.217-.185.415-.327.594s-.316.337-.513.462c-.192.126-.401.217-.628.276s-.457.081-.692.068-.46-.068-.674-.156a1.99 1.99 0 0 1-.59-.35 1.95 1.95 0 0 1-.442-.525c-.12-.196-.203-.405-.25-.626s-.058-.45-.032-.675.094-.446.192-.65.235-.394.397-.557.348-.302.558-.406.425-.173.66-.207a2.27 2.27 0 0 1 .693.007c.23.041.448.116.654.225s.386.246.545.413.286.354.384.562.154.428.18.657a2.03 2.03 0 0 1-.051.675 2.02 2.02 0 0 1-.263.625c-.12.192-.272.361-.456.507a2.17 2.17 0 0 1-.596.344c-.218.083-.444.129-.68.137a2.01 2.01 0 0 1-.686-.081c-.226-.062-.436-.158-.628-.288l-.288-.193-.846-1.32c-.569-.875-1.043-1.084-1.423-.625s-.682 1.005-.904 1.626l-.455 1.119a2.07 2.07 0 0 1-.295.344 2.1 2.1 0 0 1-.372.269 2.25 2.25 0 0 1-.43.169c-.15.041-.301.064-.455.068a1.83 1.83 0 0 1-.455-.043c-.154-.034-.299-.084-.436-.15s-.269-.144-.385-.244-.227-.205-.321-.325a1.91 1.91 0 0 1-.224-.394 1.67 1.67 0 0 1-.122-.432c-.021-.15-.026-.3-.013-.45s.045-.296.096-.438.156-.329.314-.563l.737-1.175c.333-.554.549-1.092.648-1.613l.199-.957a1.4 1.4 0 0 1 .154-.35 1.38 1.38 0 0 1 .237-.307 1.53 1.53 0 0 1 .301-.237 1.8 1.8 0 0 1 .353-.163c.124-.041.252-.066.385-.075s.257-.002.385.019.254.056.378.106a1.48 1.48 0 0 1 .333.194c.107.075.201.163.282.263s.156.208.212.325a1.59 1.59 0 0 1 .122.363c.026.125.034.25.026.375l-.006.187z"/></g><g fill="#000"><path d="M53.546 81.095l.763-2.163c.509-1.447 1.421-2.847 2.738-4.202s2.571-2.434 3.751-3.239l3.02-1.838c.829-.421 1.842-.765 3.039-1.032s2.646-.415 4.347-.444l4.456.019c1.269.042 2.695.273 4.277.694l4.097 1.144c1.146.342 2.261.742 3.347 1.201s2.107.973 3.065 1.544l3.289 2.101c1.235.821 2.255 1.592 3.058 2.314l2.475 2.357 2.354 2.582c.718.875 1.316 1.863 1.795 2.964s.774 2.495.885 4.183l.198 4.633.033 4.49.192 3.952c.128 1.047.417 2.16.865 3.339a15.03 15.03 0 0 0 1.745 3.289c.713 1.013 1.348 2.157 1.904 3.433s.861 2.439.917 3.489c.06 1.055-.009 2.33-.205 3.827s-.471 2.668-.834 3.501l-1.366 2.977-1.058 2.176-.506.9c-.18.3-.391.573-.635.819a4.46 4.46 0 0 1-.821.644 4.37 4.37 0 0 1-.949.438c-.337.108-.681.175-1.032.2a4.64 4.64 0 0 1-1.052-.044c-.346-.058-.681-.156-1.006-.294a4.22 4.22 0 0 1-.911-.512c-.282-.209-.534-.446-.757-.713a4.18 4.18 0 0 1-.558-.869c-.15-.313-.259-.638-.327-.976s-.094-.679-.077-1.025.07-.678.173-1.007.098-1.027 0-2.082-.137-2.074-.115-3.058-.079-2.315-.301-3.995l-.744-5.078c-.274-1.709-.415-3.138-.423-4.289v-3.402l.026-3.176c.004-1.005-.1-2.161-.314-3.47l-.404-3.308-.154-3.47-.128-3.658a18.94 18.94 0 0 1 .109-2.87l.513-3.527.641-4.433c.197-1.497.22-2.901.07-4.214s-.417-2.468-.789-3.464l-1.206-2.858c-.432-.917-.972-1.693-1.622-2.326s-1.438-1.169-2.379-1.62l-2.661-1.188c-.838-.346-2.184-.792-4.04-1.338s-3.903-.915-6.143-1.094-4.148-.233-5.726-.15-2.932.248-4.078.494-2.176.909-3.103 1.988-1.532 2.418-1.802 4.014l-.641 4.058-.308 3.045-.045 3.333.026 2.088c.004.092-.015.275-.058.55a3.11 3.11 0 0 1-.224.8c-.107.258-.246.5-.417.725a3.3 3.3 0 0 1-.584.606c-.218.179-.455.329-.712.45s-.526.217-.808.275a3.6 3.6 0 0 1-.846.075c-.286-.004-.569-.044-.846-.119s-.536-.181-.789-.319a3.76 3.76 0 0 1-.686-.488 3.53 3.53 0 0 1-.539-.638c-.158-.234-.284-.484-.378-.75a3.29 3.29 0 0 1-.179-.807c-.026-.279.111-1.109.41-2.489s.759-2.849 1.379-4.421l1.77-4.114a25.53 25.53 0 0 1 1.815-3.22c.65-.967 1.515-1.87 2.597-2.707s2.154-1.542 3.232-2.113 2.071-1.021 2.994-1.338 2.4-.373 4.443-.156l5.123.675c1.368.229 2.672.552 3.911.969s2.439.888 3.584 1.426l4.322 2.27L94.8 64.35c.795.559 2.011 1.655 3.648 3.289s2.684 2.897 3.141 3.789.845 1.924 1.148 3.083l.487 2.17a3.62 3.62 0 0 1-.038.863c-.051.283-.137.559-.256.825s-.27.515-.449.744-.385.436-.616.619-.481.331-.75.457-.549.208-.84.263-.59.081-.885.069-.59-.067-.872-.15-.558-.194-.814-.344-.489-.319-.699-.519-.4-.429-.558-.675-.282-.507-.372-.782.143.031.712.919.366 1.1-.609.65-2.071-1.246-3.302-2.388-2.618-2.272-4.161-3.377l-3.969-2.739c-1.107-.717-2.133-1.217-3.078-1.501s-1.992-.494-3.129-.632l-3.924-.369c-1.479-.117-2.757-.092-3.834.075s-2.105.482-3.071.957-1.81 1.011-2.546 1.607-1.34 1.232-1.802 1.92-.797 1.117-.994 1.288a3.33 3.33 0 0 1-.641.438c-.231.121-.474.213-.731.275s-.511.094-.776.094-.519-.029-.776-.088-.5-.152-.731-.269-.451-.261-.648-.431-.37-.356-.519-.569a3.1 3.1 0 0 1-.365-.669 3.24 3.24 0 0 1-.192-.744c-.03-.254-.03-.509 0-.763s.09-.5.18-.738a3.05 3.05 0 0 1 .365-.675c.145-.213.951-.742 2.417-1.588s3.099-1.426 4.911-1.738l5.322-.657 6.175-.375 5.899-.394 3.828-.381c.996-.125 2.349.042 4.059.5s3.595 1.365 5.655 2.733l4.841 3.22 1.975 1.363c.154.125.289.267.404.425a2.22 2.22 0 0 1 .295.507c.077.179.131.367.161.563s.036.386.019.582c-.022.192-.064.381-.128.569s-.152.359-.263.525-.233.311-.379.444-.312.248-.487.344-.355.171-.551.225-.389.079-.59.088-.4-.015-.597-.056c-.192-.042-.38-.104-.564-.188s-.53-.542-1.052-1.363a25.98 25.98 0 0 0-1.956-2.639 26.3 26.3 0 0 0-2.366-2.495c-.799-.73-1.68-1.699-2.642-2.908l-2.699-3.308c-.834-.996-1.776-1.642-2.828-1.938a7.75 7.75 0 0 0-3.103-.25c-1.017.133-2.112.417-3.283.85l-2.27.757a3.3 3.3 0 0 1-1.032.037c-.346-.042-.677-.138-.994-.288s-.594-.338-.846-.575a3.24 3.24 0 0 1-.609-.813c-.158-.304-.263-.625-.314-.963a3.06 3.06 0 0 1 .013-1.007 3.1 3.1 0 0 1 .346-.95 3.15 3.15 0 0 1 .641-.794c.257-.229.545-.415.866-.556s.654-.221 1-.25a3.19 3.19 0 0 1 1.032.069c.338.079.656.208.955.388s.554.402.776.669a3.07 3.07 0 0 1 .519.869 3 3 0 0 1 .205.988 3.04 3.04 0 0 1-.128 1.001 2.96 2.96 0 0 1-.449.907c-.201.279-.442.521-.724.725s-.588.352-.917.456-.675.154-1.026.15a3.38 3.38 0 0 1-1.019-.181c-.329-.113-.63-.275-.904-.488a3.08 3.08 0 0 1-.699-.744 2.94 2.94 0 0 1-.417-.919 2.96 2.96 0 0 1-.096-1.007c.021-.338.1-.665.237-.982a3.09 3.09 0 0 1 .545-.857c.231-.254.498-.467.802-.638l.449-.256 1.135-.356c.757-.242 1.629-.45 2.616-.625s2.234-.323 3.751-.431 3.052.054 4.604.488 2.644.99 3.264 1.669l2.167 2.564 2.501 3.12 2.578 2.976c.872.93 1.727 2.109 2.565 3.539l1.487 2.332c.154.125.289.267.404.425a2.22 2.22 0 0 1 .295.507 2.31 2.31 0 0 1 .161.556c.029.196.036.392.019.588s-.06.381-.128.569-.152.356-.263.519a2.26 2.26 0 0 1-.379.45 2.7 2.7 0 0 1-.481.344c-.175.096-.361.171-.557.225s-.389.079-.59.088-.4-.015-.597-.056c-.192-.042-.38-.104-.564-.188s-.838-.538-1.975-1.351l-4.283-2.757c-1.718-1.017-3.125-1.707-4.219-2.07s-2.092-.548-3.007-.544-2.142.081-3.68.244l-5.79.75-5.88.932-4.084.719c-1.12.192-2.127.448-3.02.769s-1.432.567-1.629.738a3.33 3.33 0 0 1-.641.438c-.231.121-.474.213-.731.275s-.511.094-.776.094-.519-.029-.776-.088-.5-.152-.731-.269-.451-.261-.648-.431-.37-.356-.519-.569a3.1 3.1 0 0 1-.365-.669 3.24 3.24 0 0 1-.192-.744c-.03-.254-.03-.509 0-.763s.09-.5.18-.738a3.05 3.05 0 0 1 .365-.675c.145-.213.175-.233.09-.062s.372-.252 1.372-1.257 2.054-1.876 3.161-2.626 2.411-1.444 3.911-2.082 2.973-1.032 4.418-1.194 2.992-.229 4.642-.2a43.18 43.18 0 0 1 4.79.344c1.547.204 3.011.561 4.392 1.069s2.618 1.109 3.713 1.801l4.636 2.639c2.001 1.067 3.548 2.08 4.642 3.039s2.349 1.936 3.764 2.945 2.139 1.657 2.16 1.945a3.62 3.62 0 0 1-.038.863c-.051.283-.137.559-.256.825s-.27.515-.449.744-.385.436-.616.619-.481.331-.75.457-.549.208-.84.263-.59.081-.885.069-.586-.067-.872-.15-.558-.194-.814-.344-.489-.319-.699-.519-.4-.429-.558-.675-.282-.507-.372-.782-.169-.775-.224-1.501-.393-1.647-1.013-2.776-1.599-2.224-2.95-3.283l-4.168-2.958-3.552-2.076-2.693-1.226c-.855-.346-1.891-.613-3.11-.8s-2.697-.286-4.424-.281-3.005.208-3.834.613-1.783 1.071-2.86 2.001-1.855 1.865-2.321 2.808-.889 2.103-1.269 3.47l-.866 3.52-.353 1.888a3.11 3.11 0 0 1-.224.8c-.107.258-.246.5-.417.725a3.3 3.3 0 0 1-.584.606c-.218.179-.455.329-.712.45s-.526.217-.808.275a3.6 3.6 0 0 1-.846.075c-.286-.004-.569-.044-.846-.119a3.53 3.53 0 0 1-.782-.319c-.252-.138-.483-.3-.692-.488a3.53 3.53 0 0 1-.539-.638c-.158-.234-.284-.484-.378-.75a3.29 3.29 0 0 1-.179-.807c-.026-.279-.009-.681.051-1.207l.167-2.213.212-3.039.385-3.233.526-3.564c.197-1.296.541-2.562 1.032-3.795s1.22-2.445 2.174-3.62 2.052-2.109 3.283-2.801a15.18 15.18 0 0 1 3.924-1.519l4.751-1.001c1.787-.342 3.588-.592 5.405-.75s3.306-.163 4.469-.025l3.552.594 3.315.782c1.004.267 2.281.698 3.828 1.294s2.744 1.134 3.578 1.613 1.748 1.217 2.731 2.214 1.789 1.907 2.405 2.745 1.169 1.828 1.673 2.983l1.359 3.545c.411 1.213.712 2.272.904 3.176s.276 2.016.238 3.32-.158 2.826-.372 4.565l-.661 4.546-.5 3.389c-.107.971-.169 2.053-.186 3.245l.02 3.902.314 4.502.288 3.883.09 3.083.244 4.202c.119 1.734.295 3.063.525 3.989s.411 1.859.539 2.789l.462 2.907a20.41 20.41 0 0 1 .314 2.97l.154 3.127a22.1 22.1 0 0 1-.032 3.314c-.094 1.113-.229 1.817-.404 2.113-.18.3-.391.573-.635.819a4.46 4.46 0 0 1-.821.644 4.37 4.37 0 0 1-.949.438c-.337.108-.681.175-1.032.2a4.64 4.64 0 0 1-1.052-.044c-.346-.058-.681-.156-1.006-.294a4.22 4.22 0 0 1-.911-.512c-.282-.209-.534-.446-.757-.713s-.404-.557-.558-.869-.259-.638-.327-.976a4.08 4.08 0 0 1-.077-1.019 3.87 3.87 0 0 1 .173-1.013c.098-.329.374-.898.827-1.707s.958-1.88 1.513-3.214c.56-1.334.956-2.47 1.187-3.408s.059-1.828-.501-2.682l-1.769-2.945c-.616-1.117-1.201-2.443-1.757-3.977a20.02 20.02 0 0 1-1.09-4.765c-.171-1.638-.259-3.247-.263-4.827l-.006-4.402.032-3.883c.017-1.234-.207-2.264-.673-3.089s-1.105-1.711-1.917-2.67l-2.424-2.826c-.799-.938-1.836-1.872-3.11-2.801s-2.328-1.605-3.161-2.026a23.57 23.57 0 0 0-2.796-1.175l-3.341-1.007c-1.197-.313-2.323-.515-3.379-.607s-2.3-.073-3.732.044l-4.187.525c-1.355.238-2.501.636-3.437 1.194a20.61 20.61 0 0 0-2.68 1.907c-.851.717-1.471 1.759-1.86 3.126l-.724 2.364a2.79 2.79 0 0 1-.359.588c-.145.179-.31.34-.494.481s-.389.26-.603.356a3.07 3.07 0 0 1-.667.2c-.231.042-.462.056-.693.044a3.01 3.01 0 0 1-.693-.119c-.227-.071-.44-.165-.641-.281s-.385-.261-.551-.419-.31-.342-.43-.538-.22-.409-.289-.625-.115-.446-.128-.675a2.56 2.56 0 0 1 .039-.675l.064-.338z" fill-opacity=".1"/><path d="M54.167 79.914l.058-2.107.09-3.62c.021-1.005.209-2.078.564-3.22a20.1 20.1 0 0 1 1.321-3.245c.53-1.025 1.421-2.397 2.674-4.114l2.917-3.689 2.001-2.057c.65-.63 1.547-1.301 2.693-2.013a24.99 24.99 0 0 1 3.539-1.838l4.251-1.619c1.624-.563 2.956-.9 3.995-1.013s2.105-.115 3.2-.006 2.295.398 3.591.869 2.439.973 3.418 1.507 2.248 1.384 3.822 2.539l4.116 3.264 2.988 2.682c.821.767 1.708 1.78 2.661 3.039l2.18 3.176c.505.863 1.033 2.099 1.584 3.708l1.231 4.296c.274 1.251.451 2.393.532 3.427l.077 1.795c-.034.167-.068.415-.102.744a3.93 3.93 0 0 1-.212.957c-.111.313-.258.607-.442.882s-.394.525-.641.75a4.4 4.4 0 0 1-.808.581 4.16 4.16 0 0 1-.93.375c-.329.088-.66.135-.994.144a4.55 4.55 0 0 1-1.007-.088 4.26 4.26 0 0 1-.949-.325c-.303-.142-.583-.319-.84-.531a4.28 4.28 0 0 1-.692-.713c-.197-.267-.359-.552-.487-.857a4.05 4.05 0 0 1-.269-.944c-.051-.325.077-.058.385.8s.173.948-.404.256-1.159-1.467-1.744-2.326l-1.641-2.551c-.509-.842-1.3-1.949-2.372-3.32l-2.674-3.227c-.718-.775-2.016-1.828-3.892-3.158l-4.482-2.939c-1.12-.634-2.424-1.071-3.911-1.313s-2.672-.167-3.552.213-1.765.825-2.667 1.338-1.802 1.278-2.699 2.307l-1.661 1.963-.564.769c-.167.229-.359.438-.577.625a3.89 3.89 0 0 1-.712.475c-.257.129-.526.225-.808.288s-.566.1-.853.1a3.88 3.88 0 0 1-.853-.106 3.7 3.7 0 0 1-.808-.306 3.59 3.59 0 0 1-.705-.475c-.214-.192-.402-.402-.564-.632a3.52 3.52 0 0 1-.398-.75c-.103-.263-.169-.534-.199-.813s-.034-.565 0-.844.109-.55.212-.813.075-.832-.096-1.707-.246-1.916-.224-3.12l-.045-3.777c-.055-1.317.034-2.62.269-3.908s.712-2.268 1.43-2.951 1.669-1.071 2.866-1.163 2.283-.104 3.245-.037l1.891.094c.299 0 .609.027.93.081a4.02 4.02 0 0 1 .936.275c.299.125.579.286.84.482a3.96 3.96 0 0 1 .692.663c.205.25.376.519.513.807s.242.594.301.907.088.629.07.95a3.93 3.93 0 0 1-.167.938c-.094.304-.224.594-.391.869s-.363.527-.59.757-.485.423-.763.594-.573.298-.885.394a3.94 3.94 0 0 1-.955.181c-.329.025-.9.329-1.712.913s-1.607 1.244-2.385 1.995l-1.891 1.932c-.483.534-.9.934-1.25 1.201s-.735.473-1.154.619a4.27 4.27 0 0 1-1.295.225 4.17 4.17 0 0 1-1.302-.194c-.423-.133-.814-.327-1.173-.581a3.95 3.95 0 0 1-.917-.919c-.256-.359-.444-.744-.564-1.157s-.177-.842-.16-1.276a3.95 3.95 0 0 1 .256-1.257c.158-.404.38-.773.667-1.107a3.86 3.86 0 0 1 .988-.844c.376-.229.782-.394 1.218-.494a4.06 4.06 0 0 1 1.308-.088 4.19 4.19 0 0 1 1.276.325c.406.175.772.411 1.096.706a3.89 3.89 0 0 1 .814 1.007 3.91 3.91 0 0 1 .455 2.495c-.064.429-.199.838-.404 1.226a3.93 3.93 0 0 1-.782 1.032 4.03 4.03 0 0 1-1.077.732 4.17 4.17 0 0 1-1.263.363c-.44.054-.879.038-1.315-.05a4.06 4.06 0 0 1-1.231-.463 3.95 3.95 0 0 1-1.013-.813c-.291-.329-.522-.694-.692-1.094s-.265-.817-.295-1.251.011-.855.122-1.276.289-.807.532-1.169l.366-.544.699-.707 2.578-2.42c1.257-1.138 2.43-2.08 3.52-2.826s2.345-1.294 3.764-1.632 2.296-.479 2.616-.425a4.02 4.02 0 0 1 .936.275c.299.125.579.286.84.482a3.96 3.96 0 0 1 .692.663c.205.25.376.519.513.807s.242.594.301.907.088.629.07.95a3.93 3.93 0 0 1-.167.938c-.094.304-.224.594-.391.869s-.363.527-.59.757-.485.423-.763.594-.573.298-.885.394a3.94 3.94 0 0 1-.955.181l-.59.019c-.064-.008-.472-.334-1.225-.975s-1.158-.302-1.206 1.007l-.032 3.764.077 3.364c.021 1.046-.036 2.04-.173 2.983s-.293 1.53-.455 1.763-.359.438-.577.625a3.66 3.66 0 0 1-.712.469 3.28 3.28 0 0 1-.808.294c-.282.067-.566.1-.853.1a3.88 3.88 0 0 1-.853-.106 3.9 3.9 0 0 1-.808-.3 3.81 3.81 0 0 1-.705-.481c-.214-.192-.402-.402-.564-.632a3.52 3.52 0 0 1-.398-.75c-.103-.263-.169-.534-.199-.813s-.034-.561 0-.844.109-.55.212-.813.357-.642.75-1.138.977-1.109 1.75-1.838l2.603-2.332c.962-.821 2.056-1.572 3.283-2.251s2.736-1.313 4.527-1.901 3.336-.811 4.623-.657 2.492.417 3.604.788 2.315.867 3.61 1.501l4.123 2.101c1.449.771 2.701 1.534 3.757 2.289a24.53 24.53 0 0 1 2.821 2.345l2.571 2.62c.889.938 1.814 2.122 2.776 3.552l2.443 3.608 2.109 3.239c.744 1.192 1.099 1.953 1.065 2.282a3.93 3.93 0 0 1-.212.957 4.12 4.12 0 0 1-.436.882c-.184.275-.4.525-.647.75a4.4 4.4 0 0 1-.808.581 4.16 4.16 0 0 1-.93.375c-.325.088-.656.135-.994.144a4.55 4.55 0 0 1-1.007-.088 4.26 4.26 0 0 1-.949-.325c-.303-.142-.583-.319-.84-.531a4.09 4.09 0 0 1-.686-.713 4.02 4.02 0 0 1-.493-.857 4.05 4.05 0 0 1-.269-.944c-.051-.325-.049-.586.006-.782s.064-.813.026-1.863c-.038-1.042-.182-2.157-.43-3.345s-.631-2.339-1.161-3.439l-1.558-2.907c-.513-.838-1.186-1.686-2.02-2.545l-2.757-2.72c-1.009-.955-2.129-1.911-3.36-2.87s-2.548-1.78-3.937-2.464-2.702-1.069-3.924-1.157-2.462.04-3.719.381-2.721.923-4.392 1.745-3.097 1.77-4.277 2.845-2.11 2.053-2.802 2.92-1.441 1.922-2.231 3.177a13.96 13.96 0 0 0-1.738 3.977 15.04 15.04 0 0 0-.487 4.208l.013 2.482c-.03.25-.092.492-.186.725a2.78 2.78 0 0 1-.359.663c-.145.208-.314.396-.507.563a3.31 3.31 0 0 1-.635.431 3.22 3.22 0 0 1-.718.263c-.252.063-.506.094-.763.094s-.511-.031-.763-.094a3.22 3.22 0 0 1-.718-.263c-.231-.121-.443-.265-.635-.431s-.361-.354-.507-.563-.269-.425-.359-.663a2.83 2.83 0 0 1-.186-.732l-.045-.369z" fill-opacity=".1"/><path d="M97.03 66.344l-1.167-1.432c-.778-.95-1.601-1.647-2.469-2.089l-3.071-1.382-3.206-1.113c-.953-.267-2.567-.513-4.841-.738l-5.194-.388a20.14 20.14 0 0 0-3.623.231c-1.223.183-2.509.684-3.86 1.501s-2.573 1.759-3.655 2.826-1.971 2.414-2.667 4.039-1.099 3.066-1.206 4.321l-.154 3.62c.004 1.159-.032 1.932-.109 2.32a3.55 3.55 0 0 1-.417 1.1 3.65 3.65 0 0 1-.75.913 3.74 3.74 0 0 1-1.013.631c-.372.158-.761.248-1.167.281s-.806.002-1.199-.094a3.76 3.76 0 0 1-1.103-.463c-.342-.213-.639-.473-.891-.782a3.43 3.43 0 0 1-.59-1.026c-.141-.371-.218-.752-.231-1.144s.047-.784.167-1.163.297-.73.532-1.05a3.52 3.52 0 0 1 .853-.825c.334-.229.686-.406 1.071-.519a3.85 3.85 0 0 1 1.193-.163 3.79 3.79 0 0 1 1.18.225 3.58 3.58 0 0 1 1.045.575c.316.25.584.536.801.869s.376.692.474 1.076a3.49 3.49 0 0 1 .096 1.169c-.034.396-.13.775-.288 1.138a3.72 3.72 0 0 1-.648.988 3.85 3.85 0 0 1-.936.731 3.76 3.76 0 0 1-1.129.407c-.398.071-.797.081-1.199.031a3.69 3.69 0 0 1-1.148-.35c-.363-.175-.688-.402-.975-.682a3.7 3.7 0 0 1-.705-.95c-.18-.354-.297-.727-.353-1.119l-.077-.588.154-1.907.314-3.402a19.11 19.11 0 0 1 .519-2.845c.239-.909.571-1.87.994-2.883s.977-2.157 1.661-3.433 1.436-2.349 2.257-3.208 1.665-1.601 2.533-2.226a27.24 27.24 0 0 1 2.757-1.738c.966-.533 2.001-1.027 3.103-1.494s2.522-.721 4.245-.775l4.456.013 4.392.163c1.68.05 3.061.177 4.142.382s2.159.498 3.232.869l3.815 1.401c1.475.563 2.911 1.28 4.309 2.151s2.507 1.795 3.315 2.782l1.417 1.782a2.85 2.85 0 0 1 .315.65 3.37 3.37 0 0 1 .141.706 2.85 2.85 0 0 1-.039.713 3.01 3.01 0 0 1-.211.688 2.9 2.9 0 0 1-.379.613 2.91 2.91 0 0 1-.513.513 3.14 3.14 0 0 1-.628.381 3.08 3.08 0 0 1-.699.219 3.05 3.05 0 0 1-.724.05 3.34 3.34 0 0 1-.731-.119c-.235-.071-.459-.169-.673-.294a3.13 3.13 0 0 1-.583-.431l-.263-.256zm11.477-3.555l.353 2.182c.239 1.455.41 3.06.513 4.815s.321 3.374.641 4.871l1.09 4.683 1.206 4.74 1.192 4.264 1.347 3.858 1.558 3.545 1.667 3.145 1.731 3.051 1.738 2.908c.585.913 1.222 1.788 1.911 2.626l2.866 3.152 3.18 3.232 2.693 2.558 2.872 2.745 2.911 2.92 2.732 2.989 3.385 3.695 3.828 4.033 3.238 3.414 2.18 2.283 1.014 1.163a3.63 3.63 0 0 1 .436.737 3.54 3.54 0 0 1 .243.826 3.36 3.36 0 0 1 .032.856 3.46 3.46 0 0 1-.179.838c-.094.275-.22.534-.379.776s-.344.462-.557.662-.443.367-.699.513a3.77 3.77 0 0 1-.815.332 3.76 3.76 0 0 1-.865.137c-.295.008-.586-.014-.872-.069s-.569-.15-.834-.275a3.66 3.66 0 0 1-.744-.463l-2.257-1.819c-1.273-1.034-2.246-1.961-2.917-2.783l-2.475-2.938a11.37 11.37 0 0 0-3.533-2.77l-3.539-1.664-3.027-1.281c-1.039-.447-2.056-.953-3.052-1.52l-3.02-1.807-3.558-2.47a35.96 35.96 0 0 1-3.886-3.383l-3.956-3.951-3.059-3.083-2.558-2.839c-1.06-1.23-1.958-2.514-2.693-3.852-.744-1.334-1.434-2.77-2.071-4.308l-1.456-3.72c-.329-.947-.737-2.353-1.224-4.221l-1.084-4.427c-.231-1.084-.398-2.264-.5-3.539a27.85 27.85 0 0 1-.045-3.82l.282-3.289c.12-.925.38-2.107.782-3.545s1.073-2.922 2.014-4.452 2.372-2.084 4.283-1.663 3.088 1.151 3.52 2.201.752 2.374.962 3.971l.68 4.796.788 4.471.872 3.908.975 3.552 1.167 3.602 1.654 4.184 1.904 3.92 1.93 3.377 2.065 3.432 1.962 3.008c.616.88 1.432 1.855 2.449 2.926s1.824 2.13 2.418 3.177.912 1.732.968 2.069a2.97 2.97 0 0 1-.007 1.013 3.12 3.12 0 0 1-.339.957c-.167.3-.379.567-.635.8s-.545.415-.866.557a3.2 3.2 0 0 1-1 .263 3.13 3.13 0 0 1-1.039-.063c-.337-.075-.656-.202-.955-.381s-.562-.401-.789-.663a3.1 3.1 0 0 1-.526-.869c-.128-.317-.2-.646-.218-.988a2.96 2.96 0 0 1 .122-1.007 3.14 3.14 0 0 1 .443-.913c.201-.283.44-.527.718-.731a3.14 3.14 0 0 1 1.949-.619 3.15 3.15 0 0 1 1.02.168c.333.113.639.273.916.482a3.07 3.07 0 0 1 .706.738 3.04 3.04 0 0 1 .429.925c.09.329.124.665.103 1.007a3.01 3.01 0 0 1-.231.988 3.05 3.05 0 0 1-.545.863 3.01 3.01 0 0 1-.795.644 3.16 3.16 0 0 1-.968.369c-.342.07-.686.085-1.032.043a3.17 3.17 0 0 1-1.001-.275c-.316-.146-.6-.337-.853-.575s-.459-.509-.621-.813l-.244-.45-.866-1.513c-.581-1.005-1.167-1.893-1.757-2.664s-1.177-1.638-1.75-2.601l-1.904-3.183-2.116-3.577-1.937-3.539-2.295-4.151c-.949-1.63-1.695-3.135-2.238-4.515l-1.327-3.858-1.039-3.721-1.045-3.952-1.27-4.452c-.504-1.617-.976-3.518-1.417-5.703s.297-3.091 2.225-2.732 2.657 1.082 2.2 2.182a21.83 21.83 0 0 0-1.11 3.483c-.282 1.226-.444 2.311-.487 3.258a19.79 19.79 0 0 0 .077 2.845c.098.959.267 1.926.506 2.901l1.071 3.902 1.372 4.089 1.43 3.533 1.398 3.239c.423.904 1.022 1.846 1.795 2.826l2.193 2.526 2.988 2.958 3.661 3.676 3.174 3.021c.975.829 1.917 1.513 2.828 2.05l4.059 2.183 4.232 1.988 3.699 1.495c1.449.596 2.886 1.552 4.309 2.87s2.62 2.615 3.591 3.883 2.081 2.432 3.334 3.507l2.142 1.951a3.82 3.82 0 0 1 .436.744 3.54 3.54 0 0 1 .243.826 3.36 3.36 0 0 1 .032.856 3.46 3.46 0 0 1-.179.838c-.094.275-.22.534-.379.776s-.344.462-.557.662-.443.367-.699.513a3.6 3.6 0 0 1-.808.332c-.287.079-.577.125-.872.137a3.79 3.79 0 0 1-.872-.069c-.286-.055-.569-.15-.834-.275a3.66 3.66 0 0 1-.744-.463c-.227-.184-.57-.594-1.032-1.231l-2.071-2.664-3.116-3.789-2.61-3.208-1.821-2.182-2.212-2.495-2.545-2.77-2.854-2.745-2.943-2.701-2.917-2.72c-1.022-.963-2.133-2.176-3.334-3.639l-2.995-3.79a26.49 26.49 0 0 1-2.052-3.139l-1.609-3.126-1.584-3.283-1.571-3.52-1.494-3.933-1.256-4.139-1.078-4.296-1.327-4.765-1.359-5.027a44.39 44.39 0 0 1-.923-4.959l-.699-4.602-.404-2.489a2.38 2.38 0 0 1 .051-.607c.043-.2.103-.398.192-.581s.201-.363.334-.525a2.45 2.45 0 0 1 .455-.425 2.39 2.39 0 0 1 .545-.306 2.49 2.49 0 0 1 .603-.175c.205-.033.412-.042.622-.025a2.82 2.82 0 0 1 .615.119c.201.067.391.154.571.263s.338.238.487.388a2.45 2.45 0 0 1 .378.488c.107.175.191.363.251.563l.089.294z" fill-opacity=".1"/><path d="M148.743 143.766l-1.167-1.62-2.232-2.882-2.116-2.282c-.701-.68-1.697-1.297-2.988-1.851l-3.385-1.263-2.764-.863c-.876-.284-1.803-.65-2.782-1.101l-2.918-1.263a26.36 26.36 0 0 1-2.911-1.388c-.962-.533-2.22-1.332-3.776-2.395l-4.187-3.082-3.815-3.283c-1.309-1.196-2.36-2.368-3.155-3.514l-2.667-3.502c-.988-1.188-1.723-2.253-2.206-3.195l-1.263-2.695c-.364-.854-.701-1.855-1.013-3.001l-.77-3.152c-.196-.958-.338-2.011-.423-3.157l-.135-3.52.032-3.739.007-4.765.07-4.646.353-3.852.455-4.02.257-3.502c.025-1.017.166-2.339.423-3.964l.513-4.371.16-3.426c.017-.992.062-1.649.135-1.97a2.95 2.95 0 0 1 .365-.901c.171-.283.385-.531.641-.744a3.07 3.07 0 0 1 .853-.5c.312-.121.635-.192.968-.213s.667.019.988.106a2.97 2.97 0 0 1 .904.4 3.03 3.03 0 0 1 .724.669c.206.258.362.542.469.85a2.96 2.96 0 0 1 .16.957c.004.329-.047.648-.154.957a2.94 2.94 0 0 1-.468.863c-.201.258-.44.481-.718.669a3.1 3.1 0 0 1-.898.406c-.325.087-.654.123-.987.106-.338-.017-.663-.086-.975-.206a3.07 3.07 0 0 1-.853-.5c-.256-.208-.472-.452-.647-.732s-.293-.584-.366-.9-.092-.644-.058-.969a2.93 2.93 0 0 1 .263-.938 2.98 2.98 0 0 1 .558-.8 3.09 3.09 0 0 1 1.731-.9 3.06 3.06 0 0 1 .994 0c.329.05.644.152.943.306a2.95 2.95 0 0 1 .788.582c.236.238.424.504.565.8s.231.613.269.938l.051.488-.128 1.482-.211 3.583-.206 4.352-.198 3.883-.186 3.664-.206 3.933-.147 3.552-.058 4.465.071 4.677.16 3.514.391 4.089c.205 1.626.575 3.227 1.109 4.802s1.067 2.902 1.61 3.965 1.15 1.984 1.821 2.751l2.648 3.151c1.094 1.33 2.184 2.491 3.27 3.483l3.591 3.102c1.303 1.075 2.571 2.015 3.802 2.82s2.417 1.431 3.559 1.882l3.936 1.682c1.48.675 2.85 1.209 4.111 1.6s2.301.797 3.122 1.213 1.744.957 2.77 1.62 1.949 1.421 2.77 2.276l2.372 2.682 2.354 2.989 1.41 1.907a2.98 2.98 0 0 1 .295.701 3.28 3.28 0 0 1 .109.738c.004.25-.021.498-.077.744a3.14 3.14 0 0 1-.25.706 3.1 3.1 0 0 1-.423.626 3.31 3.31 0 0 1-.564.512c-.21.146-.434.267-.674.363s-.485.162-.737.2a3.1 3.1 0 0 1-.763.019c-.256-.025-.506-.079-.75-.163a3.29 3.29 0 0 1-.693-.331 2.97 2.97 0 0 1-.589-.488l-.263-.275z" fill-opacity=".1"/></g></svg>