<svg xmlns="http://www.w3.org/2000/svg" width="201" height="202" fill="none" xmlns:v="https://vecta.io/nano"><rect x="1" y="1" width="200" height="200" rx="16" fill="#fff"/><g fill="#000"><path d="M70.09 71.909l-.018 1.168.12 5.173c.089 2.664.734 6.297 1.934 10.9s3.115 8.989 5.745 13.152 5.227 7.255 7.78 9.279 5.571 2.395 9.045 1.122 6.72-3.227 9.741-5.87 5.311-5.525 6.871-8.657 2.673-5.894 3.341-8.288l1.435-5.27c.289-1.12.389-1.934.3-2.441l-.24-1.278c-.071-.348-.154-1.081-.249-2.201s-.214-1.954-.355-2.492l-.429-1.717c-.142-.603-.213-.951-.213-1.043a.76.76 0 0 1 .037-.263.9.9 0 0 1 .12-.235.84.84 0 0 1 .189-.184.79.79 0 0 1 .24-.115c.086-.025.174-.035.263-.032a.84.84 0 0 1 .263.051c.083.031.16.078.231.134a.91.91 0 0 1 .175.203.81.81 0 0 1 .12.508.84.84 0 0 1-.069.258.82.82 0 0 1-.143.221.93.93 0 0 1-.212.166c-.077.043-.16.072-.249.088a.87.87 0 0 1-.268.005.9.9 0 0 1-.249-.083.83.83 0 0 1-.217-.157.81.81 0 0 1-.152-.217.88.88 0 0 1-.074-.254c-.012-.089-.009-.178.009-.268a.81.81 0 0 1 .097-.249c.043-.077.098-.145.166-.203a.93.93 0 0 1 .226-.143c.083-.037.169-.054.259-.06a.87.87 0 0 1 .267.023c.086.025.166.061.24.111s.143.109.199.18a.74.74 0 0 1 .124.231l.046.129.107.872c.07.585.18 1.183.327 1.795s.285 1.475.411 2.598.184 1.853.175 2.192.017.837.069 1.486-.066 1.544-.355 2.686-.786 2.944-1.481 5.408-1.868 5.325-3.516 8.574-4.049 6.24-7.199 8.966-6.574 4.711-10.272 5.957-6.959.798-9.792-1.352-5.597-5.367-8.292-9.649-4.656-8.772-5.884-13.47c-1.221-4.701-1.886-8.392-1.993-11.075l-.171-5.201-.005-1.251a.72.72 0 0 1 .037-.166c.022-.055.049-.108.083-.157a.91.91 0 0 1 .115-.129.88.88 0 0 1 .138-.097.64.64 0 0 1 .162-.06.67.67 0 0 1 .171-.023.67.67 0 0 1 .171.023.64.64 0 0 1 .162.06.86.86 0 0 1 .139.097.91.91 0 0 1 .115.129.76.76 0 0 1 .083.157.72.72 0 0 1 .037.166l.014.083zM59.236 99.682l.12-1.587.498-4.19.743-5.182.863-4.55.9-3.645c.28-1.114.695-2.312 1.246-3.595a49.24 49.24 0 0 1 2.04-4.121l2.459-4.292 2.326-3.636 1.864-2.427a20.29 20.29 0 0 1 1.564-1.592c.514-.471.989-.861 1.426-1.172s.817-.623 1.14-.946a2.17 2.17 0 0 1 1.154-.618c.446-.089.863-.112 1.251-.069s.772.155 1.154.346l1.075.6c.338.209.681.491 1.029.844a12.68 12.68 0 0 1 .955 1.075l1.057 1.431c.421.587.904 1.344 1.449 2.27l1.352 2.409c.36.68.66 1.18.9 1.5l.66.923c.197.289.385.661.563 1.117s.425.921.738 1.407.535.932.665 1.338l.448 1.384.277.9a.93.93 0 0 1 .009.258c-.009.086-.023.171-.051.254a1.14 1.14 0 0 1-.111.231 1.13 1.13 0 0 1-.162.203 1.24 1.24 0 0 1-.208.152 1.04 1.04 0 0 1-.235.101 1.08 1.08 0 0 1-.258.042c-.086.003-.172-.003-.258-.018a1.21 1.21 0 0 1-.245-.083c-.077-.037-.149-.083-.217-.138s-.128-.117-.18-.185a1.1 1.1 0 0 1-.129-.226c-.034-.08.105-.371.415-.872s.895-1.243 1.754-2.224 1.858-1.914 2.999-2.806l3.281-2.51 2.912-2.003c.892-.548 1.749-1.011 2.571-1.389s1.572-.777 2.242-1.195a8 8 0 0 1 2.178-.941c.781-.209 1.552-.349 2.312-.429l2.368-.166 2.062-.092 1.565-.083c.486-.022 1.095.242 1.827.789s1.458 1.269 2.169 2.155 1.43 1.99 2.159 3.304 1.323 2.795 1.782 4.444l1.08 4.587.553 3.65.231 2.732.111 2.123c.027.621.018 1.22-.028 1.795l-.226 2.266-.226 3.244c-.046 1.231-.154 2.235-.323 3.013s-.286 1.486-.351 2.132l-.101 1.698.064 1.527.097 1.532c.015.489-.395 1.171-1.232 2.044l-1.426 1.389c-.111.056-.229.091-.355.107a1.14 1.14 0 0 1-.369-.014 1.29 1.29 0 0 1-.342-.134 1.11 1.11 0 0 1-.286-.235 1.04 1.04 0 0 1-.194-.314 1.03 1.03 0 0 1-.083-.36 1.15 1.15 0 0 1 .032-.365 1.16 1.16 0 0 1 .153-.337 1.09 1.09 0 0 1 .249-.272c.098-.077.206-.137.323-.18a1.12 1.12 0 0 1 .364-.064 1.23 1.23 0 0 1 .365.055 1.15 1.15 0 0 1 .328.171 1.11 1.11 0 0 1 .258.263c.071.101.125.212.162.332a1.16 1.16 0 0 1 .041.365c-.003.126-.028.247-.074.364a1.07 1.07 0 0 1-.184.319c-.08.095-.173.176-.277.244a1.18 1.18 0 0 1-.342.139 1.28 1.28 0 0 1-.369.027c-.123-.012-.241-.044-.355-.097s-.217-.117-.309-.203a1.03 1.03 0 0 1-.226-.29 1.06 1.06 0 0 1-.125-.347c-.022-.123-.023-.246-.005-.369a1.18 1.18 0 0 1 .111-.35 1.23 1.23 0 0 1 .222-.3l.133-.13.956-.558c.636-.369.966-.74.987-1.112l.157-1.38.208-1.573.184-1.79c.068-.692.177-1.389.328-2.09s.24-1.687.277-2.949l.184-3.299.254-2.178a9.66 9.66 0 0 0 .102-1.68l-.093-2.072-.239-2.653-.559-3.544-1.034-4.375c-.43-1.55-.995-2.946-1.693-4.185s-1.377-2.255-2.035-3.055-1.231-1.421-1.726-1.855-.941-.655-1.347-.665l-1.436-.018c-.55-.003-1.219.014-2.007.051l-2.229.175a14.77 14.77 0 0 0-2.016.374c-.649.166-1.326.481-2.031.946s-1.433.884-2.187 1.26-1.544.84-2.372 1.394-1.738 1.244-2.741 2.063l-3.041 2.566c-1.028.889-1.863 1.709-2.506 2.46l-1.49 1.758c-.354.428-.525.455-.512.083s.025-.511.037-.425.018.172.009.258-.023.171-.051.254a1.14 1.14 0 0 1-.111.231 1.13 1.13 0 0 1-.162.203 1.24 1.24 0 0 1-.208.152 1.04 1.04 0 0 1-.235.101 1.08 1.08 0 0 1-.258.042c-.086.003-.172-.003-.258-.018a1.21 1.21 0 0 1-.245-.083c-.077-.037-.149-.083-.217-.138s-.128-.117-.18-.185a1.1 1.1 0 0 1-.129-.226l-.355-.877a11.53 11.53 0 0 1-.489-1.491c-.126-.489-.3-.929-.521-1.32s-.451-.904-.697-1.55-.474-1.152-.692-1.527l-.914-1.514-1.421-2.187c-.554-.825-1.084-1.511-1.592-2.058l-1.417-1.666c-.443-.566-.892-1.026-1.347-1.38s-.903-.577-1.334-.669-.815-.04-1.144.157l-1.117.623c-.412.218-.86.548-1.343.988a19.92 19.92 0 0 0-1.472 1.49c-.495.554-1.092 1.332-1.791 2.335l-2.284 3.581-2.418 4.227-1.966 3.978c-.529 1.218-.929 2.384-1.2 3.498l-.872 3.586c-.308 1.277-.58 2.773-.817 4.49l-.706 5.136-.438 4.148-.106 1.666a.89.89 0 0 1-.051.166.66.66 0 0 1-.092.148c-.037.047-.078.086-.125.12a.61.61 0 0 1-.148.087c-.052.025-.106.042-.162.051a.82.82 0 0 1-.171.009.66.66 0 0 1-.171-.032c-.052-.015-.105-.039-.157-.069a.67.67 0 0 1-.134-.111.77.77 0 0 1-.106-.134.89.89 0 0 1-.069-.157.79.79 0 0 1-.028-.171l-.005-.083z"/><path d="M58.84 98.458l.295 1.375.632 3.032.683 2.972c.228.879.492 1.709.794 2.487s.688 1.613 1.158 2.496l1.431 2.524c.483.8.995 1.537 1.537 2.211s1.034 1.221 1.467 1.633.894.723 1.389.933 1.106.518 1.841.918 1.486.754 2.261 1.052l2.206.863 1.984.683c.628.181 1.274.309 1.938.383l1.684.125c.458.009.846.099 1.163.272a1.85 1.85 0 0 0 .997.24l1.14-.023 1.518.037c.6.027 1.188.016 1.763-.033l1.809-.097 1.947-.115 2.501-.226 3.304-.295 3.392-.425 2.912-.489 2.381-.512 2.289-.536 2.27-.438 1.777-.429a6.95 6.95 0 0 0 1.296-.535c.379-.204.7-.416.965-.637a3.49 3.49 0 0 0 .697-.822c.203-.323.433-.65.692-.983l.761-.936.692-.896a5.28 5.28 0 0 0 .522-.913 10.83 10.83 0 0 0 .383-1.029l.378-1.177c.13-.397.306-.792.531-1.186l.678-1.117.725-1.241c.258-.477.45-1.06.577-1.749l.369-1.657.36-1.527.36-1.44c.117-.35.193-.826.23-1.426l.102-1.117a1.45 1.45 0 0 1 .161-.388c.077-.123.171-.231.282-.323s.234-.163.369-.212a1.3 1.3 0 0 1 .415-.088 1.32 1.32 0 0 1 .425.051 1.33 1.33 0 0 1 .388.185 1.4 1.4 0 0 1 .304.295 1.3 1.3 0 0 1 .194.378c.046.135.068.275.065.42a1.42 1.42 0 0 1-.074.42c-.05.135-.117.26-.203.374s-.194.21-.314.29-.251.139-.392.176-.28.046-.425.037a1.35 1.35 0 0 1-.415-.097c-.132-.053-.252-.126-.36-.222s-.202-.205-.272-.328a1.28 1.28 0 0 1-.153-.401 1.24 1.24 0 0 1-.018-.425 1.17 1.17 0 0 1 .12-.406 1.34 1.34 0 0 1 .24-.351 1.41 1.41 0 0 1 .346-.254c.126-.065.261-.108.406-.129s.283-.02.425.005.275.072.401.143.238.154.337.258a1.32 1.32 0 0 1 .235.36c.059.126.096.261.111.406l.018.217a348.44 348.44 0 0 0-.078.872c-.055.584-.169 1.129-.342 1.634s-.335 1.069-.489 1.702l-.387 1.514-.291 1.172-.272 1.269c-.099.437-.326.937-.683 1.5l-1.126 1.684c-.394.563-.66 1.04-.799 1.431l-.452 1.301a8.47 8.47 0 0 1-.581 1.315c-.219.4-.468.772-.748 1.117a9.59 9.59 0 0 1-.803.89l-.775.776-.923 1.056c-.354.428-.721.756-1.103.983a8.38 8.38 0 0 1-1.287.623c-.477.188-.977.336-1.5.443l-1.827.369-2.22.448-2.298.558a24.02 24.02 0 0 1-2.441.559l-2.953.535-3.429.489-3.281.369-2.538.342-1.943.217-1.86.198a16.72 16.72 0 0 1-1.883.157c-.615.019-1.146.014-1.592-.014a11.75 11.75 0 0 1-1.32-.147c-.434-.077-.783-.248-1.047-.513s-.606-.426-1.025-.484l-1.726-.212a13.35 13.35 0 0 1-2.1-.416c-.668-.187-1.347-.417-2.04-.687l-2.284-.877c-.828-.314-1.6-.662-2.317-1.043l-1.966-1.024c-.597-.302-1.127-.683-1.592-1.145s-.991-1.052-1.569-1.772-1.115-1.483-1.61-2.298l-1.495-2.616a24 24 0 0 1-1.237-2.621 25.7 25.7 0 0 1-.863-2.585l-.734-2.981-.692-3.008-.346-1.459a.67.67 0 0 1 .005-.175.81.81 0 0 1 .046-.175c.022-.055.049-.108.083-.157a.86.86 0 0 1 .125-.134c.043-.037.092-.069.148-.097a.63.63 0 0 1 .166-.06.57.57 0 0 1 .175-.019c.058 0 .117.008.175.023s.114.037.166.065.105.063.148.106.081.085.115.134.061.103.083.161l.032.083z"/><path d="M86.781 44.892l-1.094-.019-2.109-.028c-.677-.009-1.255.046-1.735.166s-1.101.411-1.874.863l-2.769 1.8-3.295 2.492-3.498 2.953-3.604 3.087-3.087 2.635c-.867.757-1.567 1.45-2.1 2.081l-1.403 1.837-1.334 1.938-1.491 2.164-1.26 1.91c-.332.532-.655 1.148-.969 1.846l-1.043 2.418-.992 2.672-.78 2.607-.605 2.663-.434 2.686-.461 2.658a22.75 22.75 0 0 0-.378 2.524l-.157 2.275-.069 2.293.065 2.612.208 2.921.268 2.815c.098.867.257 1.779.475 2.736s.529 2.021.923 3.194l1.204 3.336 1.237 2.806c.412.818.823 1.533 1.232 2.145a15.7 15.7 0 0 0 1.227 1.62l1.343 1.606c.489.6.98 1.127 1.472 1.583l1.292 1.218 1.56 1.407 1.108.965a.73.73 0 0 1 .161.226c.04.086.071.171.083.263a.8.8 0 0 1-.005.272c-.019.089-.046.18-.092.263a.95.95 0 0 1-.171.217.91.91 0 0 1-.231.148.89.89 0 0 1-.268.069.85.85 0 0 1-.277-.018 1 1 0 0 1-.254-.111c-.08-.049-.149-.109-.208-.18a.94.94 0 0 1-.138-.24.89.89 0 0 1-.051-.272c-.006-.093.005-.183.032-.273a.91.91 0 0 1 .12-.249.84.84 0 0 1 .194-.194.88.88 0 0 1 .249-.124.75.75 0 0 1 .272-.042c.092.003.183.02.272.051a.8.8 0 0 1 .24.134c.074.059.135.126.184.203a.81.81 0 0 1 .111.254c.025.089.034.181.028.277a1 1 0 0 1-.065.267.83.83 0 0 1-.148.231.79.79 0 0 1-.217.175.84.84 0 0 1-.258.097c-.092.018-.18.022-.272.009a.91.91 0 0 1-.268-.078l-.125-.06-1.015-1.103-1.477-1.666c-.308-.375-.726-.81-1.255-1.306a16.44 16.44 0 0 1-1.518-1.629l-1.38-1.652c-.437-.51-.872-1.093-1.306-1.749a21.66 21.66 0 0 1-1.292-2.265c-.428-.852-.849-1.814-1.264-2.884l-1.237-3.42-.951-3.318c-.228-1.003-.389-1.944-.484-2.824l-.272-2.842-.212-2.981-.065-2.677.069-2.34.166-2.367a24.82 24.82 0 0 1 .383-2.556l.461-2.644.448-2.76.618-2.741.803-2.686 1.006-2.736 1.084-2.515c.338-.751.681-1.397 1.029-1.938l1.283-1.924 1.486-2.164 1.366-1.994a23.29 23.29 0 0 1 1.504-1.957c.572-.68 1.294-1.401 2.164-2.164l3.078-2.649 3.595-3.106 3.53-3.023 3.359-2.589 2.995-1.957c.898-.523 1.64-.834 2.224-.932s1.215-.157 1.892-.166l2.114-.028 1.181-.009a.66.66 0 0 1 .171.041c.055.022.108.049.157.083a.66.66 0 0 1 .129.115.78.78 0 0 1 .167.314.8.8 0 0 1 .018.171c0 .059-.006.115-.018.171a.78.78 0 0 1-.065.166.79.79 0 0 1-.102.148.91.91 0 0 1-.129.115.74.74 0 0 1-.157.083.66.66 0 0 1-.171.042l-.088.009zm-.373-4.399l.725.185c.486.126.907.208 1.264.245s.735.129 1.135.286.857.24 1.371.258l1.514.014 1.56.032 1.933.212 2.496.355 2.865.369 3.041.364 3.138.438 3.609.457 3.918.554 3.35.683c.969.218 1.781.531 2.436.937s1.423 1.015 2.312 1.827l2.972 2.755a35.55 35.55 0 0 1 3.009 3.152l2.215 2.741c.569.745 1.075 1.607 1.518 2.589l1.297 2.838c.421.914.787 1.863 1.098 2.847l1.02 2.926a25.8 25.8 0 0 1 .89 2.792l.573 2.69.429 2.695.272 2.879.115 3.129.051 3.383-.069 3.59a38.54 38.54 0 0 1-.401 3.881l-.628 3.973-.54 3.304-.508 2.865c-.184.976-.472 2.08-.862 3.314l-1.103 3.401c-.348 1.03-.754 2.005-1.219 2.925l-1.347 2.64a20.86 20.86 0 0 1-1.412 2.339l-1.629 2.142-1.989 2.21c-.741.766-1.46 1.43-2.155 1.993l-2.026 1.629a13.42 13.42 0 0 1-2.178 1.399l-2.321 1.209-2.261 1.107-2.174.909-2.575.988-3.576 1.195-4.836 1.287-5.002 1.062-3.401.623-2.187.355-2.067.157c-.717.028-1.538.02-2.464-.023s-1.975-.256-3.138-.628l-3.572-1.218c-1.212-.44-2.243-.903-3.092-1.389l-2.538-1.555-2.427-1.504-2.293-1.316-1.906-1.052a8.23 8.23 0 0 0-1.62-.678l-.955-.309a.84.84 0 0 1-.189-.157.88.88 0 0 1-.129-.203.8.8 0 0 1-.055-.236.81.81 0 0 1 .019-.244.8.8 0 0 1 .097-.222.94.94 0 0 1 .162-.18.74.74 0 0 1 .212-.12.85.85 0 0 1 .24-.046.8.8 0 0 1 .24.037.77.77 0 0 1 .217.106.8.8 0 0 1 .175.176.74.74 0 0 1 .106.217c.025.076.035.156.032.24a.78.78 0 0 1-.046.239c-.031.077-.072.148-.125.213a.75.75 0 0 1-.18.161.72.72 0 0 1-.222.093.67.67 0 0 1-.245.018.71.71 0 0 1-.235-.06c-.074-.031-.141-.074-.203-.129s-.112-.119-.152-.189a.8.8 0 0 1-.083-.231.7.7 0 0 1-.005-.24.84.84 0 0 1 .069-.235.65.65 0 0 1 .143-.194.75.75 0 0 1 .198-.143.71.71 0 0 1 .235-.07c.08-.012.16-.01.24.005l.12.028.909.397a13.2 13.2 0 0 1 1.652.863l1.887 1.093 2.326 1.334 2.423 1.504 2.418 1.491c.784.458 1.777.906 2.976 1.343l3.396 1.181c1.064.351 2.04.549 2.926.595l2.363.023 1.97-.143c.628-.064 1.346-.18 2.155-.346l3.378-.618 4.933-1.048 4.763-1.26 3.53-1.181 2.542-.974 2.109-.881 2.234-1.094 2.228-1.149a12.07 12.07 0 0 0 2.077-1.329l1.961-1.573c.659-.532 1.349-1.169 2.072-1.911l1.924-2.136 1.56-2.035c.477-.677.932-1.432 1.366-2.266l1.315-2.552c.44-.867.832-1.813 1.177-2.838l1.084-3.318c.379-1.19.66-2.267.845-3.23l.498-2.847.54-3.299.623-3.904c.206-1.341.337-2.603.392-3.784l.07-3.549-.047-3.355-.115-3.059-.263-2.806-.415-2.63-.545-2.579c-.212-.849-.507-1.769-.886-2.76l-1.001-2.884a22.81 22.81 0 0 0-1.075-2.778l-1.237-2.723c-.4-.901-.878-1.715-1.435-2.441l-2.146-2.653c-.877-1.04-1.864-2.069-2.963-3.087l-2.893-2.667c-.834-.76-1.513-1.312-2.04-1.657s-1.258-.612-2.205-.812l-3.263-.614-3.904-.489-3.618-.374-3.11-.314-3.055-.198-2.87-.152-2.413-.065-1.86.046a15.4 15.4 0 0 1-1.606.009l-1.527-.134a5.71 5.71 0 0 1-1.477-.42c-.493-.212-.946-.349-1.371-.411l-1.366-.245-.863-.203a1.4 1.4 0 0 1-.245-.125 1.1 1.1 0 0 1-.208-.184.98.98 0 0 1-.161-.226 1.21 1.21 0 0 1-.102-.254 1.32 1.32 0 0 1-.037-.277c0-.089.011-.178.032-.268a1.29 1.29 0 0 1 .092-.258 1.17 1.17 0 0 1 .157-.231.97.97 0 0 1 .203-.185 1.11 1.11 0 0 1 .245-.134 1.14 1.14 0 0 1 .268-.069 1.01 1.01 0 0 1 .272 0l.138.014z"/><path d="M78.641 62.369l1.02.512c.677.338 1.674 1.209 2.99 2.612s2.321 2.873 3.013 4.412l2.086 4.472c.701 1.437 1.427 1.615 2.178.535s1.846-2.257 3.286-3.521 2.847-2.31 4.222-3.138 2.697-1.494 3.974-1.998 2.555-.934 3.834-1.288l4.061-.904 4.343-.706c1.467-.221 3.301.157 5.5 1.135s3.643 2.104 4.329 3.378 1.179 2.741 1.472 4.402a33.58 33.58 0 0 1 .503 5.108l.069 4.915.028 4.467c.006 1.443-.147 2.996-.457 4.661s-.915 2.983-1.814 3.955a7.46 7.46 0 0 1-3.248 2.067c-1.268.412-3.035.309-5.303-.309s-4.074-1.243-5.413-1.883l-3.876-1.929-3.978-2.229c-1.405-.834-2.845-1.109-4.319-.826l-4.209.877c-1.332.298-3.087.598-5.265.9l-5.348.581c-1.387.086-3.115-.138-5.182-.674s-3.867-1.244-5.408-2.118-3.393-2.733-5.565-5.579-2.758-5.207-1.749-7.083 1.775-3.484 2.298-4.832 1.275-2.621 2.257-3.812 1.789-2.389 2.413-3.595 2.592-1.918 5.902-2.137 5.561.408 6.742 1.869 2.113 2.838 2.806 4.139 1.717 2.461 3.073 3.479 2.956 1.607 4.808 1.767l5.782.351c2.003.074 2.798-.74 2.386-2.441s-.163-3.186.747-4.453c.911-1.261 2.12-2.186 3.627-2.773s1.48-.125-.073 1.38l-2.317 2.109c.009-.092.112-.398.309-.918s.448-1.012.762-1.467a6.89 6.89 0 0 1 1.098-1.241c.415-.372.869-.688 1.361-.946s1.005-.46 1.546-.595a6.71 6.71 0 0 1 1.643-.203 6.75 6.75 0 0 1 1.647.194 6.91 6.91 0 0 1 1.551.581c.495.258.95.571 1.366.937a6.92 6.92 0 0 1 1.103 1.237c.319.455.578.943.775 1.463s.334 1.052.401 1.606.073 1.103.005 1.657.368 1.733 1.297 3.539 1.504 3.442 1.735 4.91l.692 4.735c.228 1.683.315 2.892.263 3.627a6.64 6.64 0 0 1-.498 2.127 6.7 6.7 0 0 1-1.154 1.85 6.66 6.66 0 0 1-1.684 1.389c-.637.372-1.317.632-2.04.78a6.64 6.64 0 0 1-2.178.083 6.65 6.65 0 0 1-2.095-.614 6.76 6.76 0 0 1-1.791-1.251 6.69 6.69 0 0 1-1.292-1.758c-.338-.655-.561-1.347-.669-2.077s-.097-1.457.032-2.183.376-1.412.73-2.058.802-1.218 1.347-1.717 1.149-.901 1.823-1.2 1.378-.483 2.113-.554 1.458-.017 2.178.152a6.64 6.64 0 0 1 2.012.84 6.6 6.6 0 0 1 1.643 1.435c.471.569.837 1.198 1.098 1.887s.408 1.401.439 2.136a6.82 6.82 0 0 1-.268 2.169 6.73 6.73 0 0 1-.946 1.966c-.424.603-.934 1.124-1.527 1.564a6.72 6.72 0 0 1-1.943.992 6.67 6.67 0 0 1-2.16.318c-.735-.009-1.45-.137-2.145-.383a6.73 6.73 0 0 1-1.916-1.052 6.67 6.67 0 0 1-1.476-1.606c-.406-.618-.702-1.283-.886-1.993l-.282-1.071-.3-2.201a55.15 55.15 0 0 0-.918-4.891l-1.237-4.758c-.409-1.384-.769-2.993-1.079-4.827s-.373-3.01-.176-3.53.448-1.012.762-1.467a6.89 6.89 0 0 1 1.098-1.241c.415-.372.867-.688 1.357-.946a6.82 6.82 0 0 1 1.55-.595 6.71 6.71 0 0 1 1.643-.203 6.75 6.75 0 0 1 1.647.194 6.63 6.63 0 0 1 1.551.581c.492.258.947.571 1.366.937s.786.778 1.103 1.237.575.941.775 1.458.334 1.057.401 1.611.073 1.103.005 1.657-.385 1.4-.96 2.538-1.687 2.153-3.327 3.036-1.924.849-.854-.092 1.602-2.095 1.592-3.461.094-1.357.3.018.243 2.867.12 4.467-.501 3.167-1.135 4.702-1.563 2.764-2.787 3.687-2.474 1.569-3.747 1.938-2.835.568-4.684.586a255.31 255.31 0 0 1-6.082-.018c-2.206-.034-4.307-.215-6.303-.544a17.6 17.6 0 0 1-5.644-1.961c-1.769-.975-3.298-2.01-4.587-3.106s-2.461-2.343-3.516-3.743-1.666-2.918-1.841-4.555 1.244-2.641 4.25-3.013 4.195.134 3.558 1.518-1.486 2.66-2.538 3.826-1.955 2.42-2.709 3.77-1.638 2.596-2.653 3.747-1.295 1.06-.84-.272.454-3.026-.014-5.09-.049-2.712 1.264-1.943l3.793 2.053c1.212.597 2.57.818 4.075.665s3.106-.418 4.813-.803l5.805-1.071c2.163-.326 4.385-.411 6.668-.254s4.151.555 5.607 1.195l4.425 2.141c1.495.791 2.569 1.786 3.221 2.986s.48 2.264-.517 3.184-1.487.594-1.481-.969l.018-4.679.148-4.324c.089-1.329.906-1.709 2.45-1.14s1.577.98.088 1.241l-4.287.752c-1.372.24-2.921.712-4.647 1.417s-3.124 1.518-4.195 2.441l-3.433 2.709c-1.215.883-2.669 1.712-4.361 2.487s-3.533 1.181-5.533 1.218-3.761-.338-5.274-1.117-2.697-2.046-3.549-3.812l-2.049-4.836c-.517-1.458-.874-2.884-1.071-4.278-.203-1.397-.614-2.315-1.232-2.755l-1.37-1.001c-.295-.231-.56-.492-.794-.784s-.424-.614-.581-.955a4.62 4.62 0 0 1-.332-1.061c-.071-.369-.095-.74-.074-1.112s.088-.738.198-1.098.263-.695.457-1.015.418-.617.683-.881.557-.498.877-.692a4.72 4.72 0 0 1 1.015-.462c.357-.114.723-.181 1.098-.203a4.47 4.47 0 0 1 1.108.065c.369.065.724.174 1.066.328l.512.226z" fill-opacity=".3"/><path d="M118.063 95.385l-1.883-.078c-1.258-.052-2.946-.238-5.062-.558l-6.401-1.144-6.59-1.251c-2.246-.385-4.333-.598-6.262-.641s-3.586.026-4.961.208l-5.15.844c-2.058.378-4.279.575-6.663.591s-4.453-.589-6.216-1.823-3.232-2.753-4.416-4.559-1.932-3.539-2.243-5.191-.137-3.564.521-5.736 1.39-3.999 2.197-5.473l2.229-3.987 2.598-4.135c1.049-1.572 2.19-2.738 3.424-3.498s2.641-1.161 4.222-1.195 3.099.311 4.555 1.034 2.532 1.913 3.239 3.581 1.28 3.267 1.726 4.799l1.061 4.444c.268 1.43.374 2.906.318 4.425s.443 1.818 1.486.886 2.34-1.632 3.881-2.109a15.16 15.16 0 0 0 4.273-2.09l3.724-2.621a50.04 50.04 0 0 1 3.977-2.52c1.474-.849 2.954-1.535 4.44-2.058s3.141-.818 4.974-.886 3.399.223 4.698.881 2.708 2.067 4.222 4.227 2.44 3.878 2.778 5.154.5 2.927.485 4.951-.193 3.77-.531 5.228a14.53 14.53 0 0 1-1.671 4.148c-.778 1.304-2.25 2.387-4.416 3.249-2.159.861-4.454 1.098-6.885.711s-4.236-1.172-5.417-2.344-2.183-2.786-3.014-4.85-1.212-3.756-1.135-5.076l.471-4.342c.237-1.572.172-3.142-.194-4.712s-.023-1.778 1.029-.618 2.337 1.735 3.853 1.735 1.958.586 1.325 1.749-1.551 2.363-2.751 3.59l-2.362 2.317c-.382.317-.891.663-1.528 1.038s-1.321.634-2.044.785-1.457.183-2.192.097-1.437-.294-2.104-.614a6.68 6.68 0 0 1-1.8-1.251c-.532-.514-.968-1.1-1.306-1.758s-.568-1.354-.678-2.086a6.72 6.72 0 0 1 .028-2.192c.126-.729.368-1.418.725-2.067s.801-1.226 1.343-1.73 1.155-.904 1.832-1.209a6.81 6.81 0 0 1 2.118-.563c.735-.071 1.464-.022 2.187.148a6.73 6.73 0 0 1 2.026.831c.628.391 1.178.871 1.652 1.44a6.65 6.65 0 0 1 1.108 1.892c.267.689.417 1.404.447 2.146a6.74 6.74 0 0 1-.263 2.173 6.71 6.71 0 0 1-.941 1.98 6.75 6.75 0 0 1-1.528 1.573 6.64 6.64 0 0 1-1.947 1.006 6.73 6.73 0 0 1-2.169.328 6.77 6.77 0 0 1-2.155-.378c-.701-.246-1.343-.597-1.924-1.052a6.67 6.67 0 0 1-1.49-1.606 6.66 6.66 0 0 1-1.108-4.181 6.82 6.82 0 0 1 .494-2.136c.283-.683.668-1.304 1.154-1.864l.729-.835a33.77 33.77 0 0 1 .568-.475c.382-.314.972-1.017 1.772-2.109l2.677-3.479c.984-1.221 2.731-2.289 5.242-3.202s4.582-.926 6.216-.028 2.882 2.189 3.737 3.881 1.425 3.458 1.708 5.297.329 3.758.147 5.764-.953 3.355-2.298 4.056-1.598.438-.761-.789.606-1.624-.692-1.2-2.789 1.195-4.481 2.312l-4.642 3.166c-1.4.994-2.775 1.809-4.126 2.446s-2.668 1.183-3.964 1.629-2.72.774-4.273.974-3.566.335-6.036.397-4.656-.326-6.557-1.172-3.222-1.947-3.955-3.304a13.03 13.03 0 0 1-1.43-4.273 29.88 29.88 0 0 1-.295-4.799 42.03 42.03 0 0 0-.203-4.836c-.16-1.526.638-1.835 2.395-.928s2.292 1.96 1.597 3.166-1.584 2.407-2.667 3.604-1.18 2.326-.291 3.387 2.289 1.478 4.209 1.241l6.174-.595c2.2-.166 4.462-.174 6.788-.023s4.735.468 7.236.951l6.926 1.546 5.616 1.444c1.628.415 3.067.683 4.319.803l2.451.291c.387.074.761.194 1.121.36s.691.372 1.001.618a4.82 4.82 0 0 1 .822.84c.243.311.443.648.6 1.011s.273.735.341 1.126a4.76 4.76 0 0 1 .06 1.167 4.99 4.99 0 0 1-.221 1.158 4.85 4.85 0 0 1-.489 1.066 5.07 5.07 0 0 1-.734.918c-.283.277-.594.517-.932.72a5.14 5.14 0 0 1-1.08.475c-.375.114-.762.18-1.158.198l-.586.032z" fill-opacity=".3"/><path d="M82.585 95.558l.42.406 1.269 1.2c.563.532.986.881 1.269 1.047l1.029.558c.397.203.871.404 1.421.605l1.449.457a11.94 11.94 0 0 0 1.44.267l1.578.157 1.555.046 1.541-.014a10.31 10.31 0 0 0 1.518-.143c.513-.086.929-.232 1.246-.438l1.02-.669.992-.678c.298-.209.517-.338.655-.388s.242-.151.319-.305a1.52 1.52 0 0 1 .3-.411 1.5 1.5 0 0 1 .41-.291 1.55 1.55 0 0 1 .485-.143 1.56 1.56 0 0 1 .507.019 1.61 1.61 0 0 1 .471.175c.148.083.279.192.392.318a1.53 1.53 0 0 1 .268.429c.068.157.108.322.12.494a1.55 1.55 0 0 1-.046.503c-.043.166-.108.32-.203.461s-.205.269-.337.374-.283.189-.443.245a1.55 1.55 0 0 1-.498.092 1.59 1.59 0 0 1-.499-.069c-.163-.052-.314-.129-.452-.231s-.257-.221-.355-.36a1.53 1.53 0 0 1-.222-.452 1.54 1.54 0 0 1-.064-.503 1.62 1.62 0 0 1 .096-.498c.062-.157.147-.301.254-.434s.234-.245.379-.337a1.52 1.52 0 0 1 .466-.198 1.54 1.54 0 0 1 .503-.037c.172.015.337.059.493.129s.294.158.42.272a1.57 1.57 0 0 1 .314.397 1.58 1.58 0 0 1 .171.475c.031.169.035.338.014.508l-.037.254-.909.941c-.606.631-1.086 1.055-1.44 1.274l-1.015.623-1.029.563c-.366.184-.798.353-1.297.507s-.998.256-1.49.296a15.12 15.12 0 0 1-1.495.046l-1.611-.046-1.657-.12-1.37-.157c-.372-.043-.835-.142-1.389-.296a14.12 14.12 0 0 1-1.601-.558l-1.264-.554-1.209-.567c-.48-.228-.911-.466-1.292-.716s-.875-.655-1.481-1.209l-1.315-1.255-.494-.531a1.12 1.12 0 0 1-.143-.235 1.1 1.1 0 0 1-.083-.268c-.015-.093-.025-.185-.019-.277s.023-.183.051-.272a1.14 1.14 0 0 1 .115-.254 1.07 1.07 0 0 1 .392-.392 1.11 1.11 0 0 1 .254-.115 1.18 1.18 0 0 1 .272-.051 1.05 1.05 0 0 1 .277.018 1.04 1.04 0 0 1 .268.083 1.09 1.09 0 0 1 .235.143l.111.088zM50.407 142.75l.683-.037c.455-.025 1.001-.1 1.638-.226l2.427-.499 3.475-.715 4.319-1.034 4.859-1.287 4.827-1.172 4.273-1.066 3.812-1.02 3.406-.835 3.175-.697 3.212-.803 3.512-1.08 3.456-1.034 2.999-.95 2.967-1.08 3.097-1.149 2.911-1.117 2.506-.932 2.381-.854 2.672-.936 2.843-1.025 2.519-.946 1.985-.757 1.767-.627 1.795-.568 1.523-.553 1.255-.527 1.214-.484 1.093-.425 1.265-.47c.513-.188 1.041-.416 1.582-.683s1.097-.477 1.666-.637l1.052-.254c.13-.012.257-.003.383.028s.243.084.351.152a1.19 1.19 0 0 1 .286.259 1.09 1.09 0 0 1 .185.332c.046.12.071.244.074.374a1.25 1.25 0 0 1-.051.383 1.27 1.27 0 0 1-.171.341 1.17 1.17 0 0 1-.272.268c-.105.077-.218.134-.342.17s-.249.057-.378.051a1.32 1.32 0 0 1-.378-.069 1.28 1.28 0 0 1-.333-.189c-.101-.083-.186-.179-.253-.286a1.12 1.12 0 0 1-.153-.351c-.03-.126-.041-.254-.032-.383a1.25 1.25 0 0 1 .092-.369 1.2 1.2 0 0 1 .208-.323 1.05 1.05 0 0 1 .3-.24 1.13 1.13 0 0 1 .36-.134 1.12 1.12 0 0 1 .383-.009 1.19 1.19 0 0 1 .364.115c.114.056.217.129.31.222a1.13 1.13 0 0 1 .221.309c.059.117.097.24.115.369s.011.254-.013.383-.068.246-.13.36-.144.209-.24.295a1.24 1.24 0 0 1-.323.208l-.18.074-1.112.286-1.638.512c-.354.154-.803.286-1.347.397l-1.292.272-1.103.277-1.251.351-1.324.374-1.588.475-1.758.521-1.749.577-1.993.738-2.534.951-2.851 1.029-2.663.932-2.367.854-2.492.927-2.926 1.122-3.105 1.149-3.018 1.103-3.018.955-3.442 1.034-3.576 1.098-3.244.821-3.143.697-3.378.84-3.825 1.038-4.273 1.085-4.799 1.195-4.878 1.329-4.342 1.094-3.452.784-2.58.604c-.741.179-1.341.256-1.8.231l-.775-.046c-.059-.006-.115-.02-.171-.041a.72.72 0 0 1-.157-.084.69.69 0 0 1-.134-.12.65.65 0 0 1-.102-.143c-.028-.055-.048-.11-.06-.166s-.023-.117-.023-.175a.7.7 0 0 1 .023-.175c.015-.058.032-.111.06-.167a.7.7 0 0 1 .102-.143c.04-.046.085-.086.134-.12s.102-.061.157-.083a.63.63 0 0 1 .171-.041l.088-.009z"/><path d="M141.212 108.463l-.507 1.181-.9 2.335c-.262.769-.451 1.454-.568 2.054s-.074 1.078.12 1.435.432.275.715-.245l.711-1.269.461-.724.259-.337c.055-.068.12-.129.194-.185a1.16 1.16 0 0 1 .23-.133c.08-.034.165-.057.254-.07s.177-.02.263-.014.177.028.263.056a1.1 1.1 0 0 1 .24.115 1.04 1.04 0 0 1 .203.166c.062.065.116.136.162.213s.077.161.101.244a1.24 1.24 0 0 1 .046.263c.004.089-.004.179-.023.268s-.047.169-.087.249-.043-.049-.019-.388.077-.14.166.596.13 1.429.13 2.09.206 1.101.609 1.32.907.117 1.504-.305 1.174-.923 1.721-1.513l1.172-1.385.43-.572c.055-.046.113-.086.175-.12a.85.85 0 0 1 .198-.074c.071-.018.142-.026.213-.023s.141.008.212.023.134.045.198.079.119.074.171.12a.9.9 0 0 1 .143.161.89.89 0 0 1 .097.189c.025.068.042.137.051.208a1 1 0 0 1-.005.212.85.85 0 0 1-.051.203.74.74 0 0 1-.101.19c-.04.058.031.444.212 1.158s.399.94.651.687l.48-.521a1.02 1.02 0 0 1 .254-.249c.095-.068.201-.119.318-.152a1.04 1.04 0 0 1 .351-.042 1.05 1.05 0 0 1 .346.069c.11.043.212.102.304.176a1.05 1.05 0 0 1 .231.267 1.04 1.04 0 0 1 .162.679 1.19 1.19 0 0 1-.088.341c-.049.111-.114.209-.194.295s-.177.162-.281.217-.216.099-.333.12a1.03 1.03 0 0 1-.35.005c-.12-.019-.233-.054-.337-.106s-.203-.126-.286-.213a1.04 1.04 0 0 1-.203-.286c-.053-.107-.085-.221-.097-.341a1.01 1.01 0 0 1 .014-.351c.021-.117.063-.227.124-.332s.134-.192.226-.272a.97.97 0 0 1 .3-.185 1.07 1.07 0 0 1 .342-.083 1.05 1.05 0 0 1 .35.032c.117.031.225.079.323.143a1.14 1.14 0 0 1 .263.24c.074.096.131.199.171.31a1.22 1.22 0 0 1 .06.35c.003.117-.014.232-.051.346l-.055.171-.775 1.089c-.514.726-.969 1.118-1.366 1.177s-.818-.089-1.265-.434-.732-.771-.858-1.278-.188-1.022-.194-1.532l-.069-1.68c-.04-.609-.034-.937.019-.983s.113-.086.175-.12a.85.85 0 0 1 .198-.074c.071-.018.142-.026.213-.023s.141.008.212.023.134.045.198.079.119.074.171.12a.9.9 0 0 1 .143.161.89.89 0 0 1 .097.189c.025.068.042.137.051.208a1 1 0 0 1-.005.212.85.85 0 0 1-.051.203.74.74 0 0 1-.101.19c-.04.058-.195.238-.466.54l-1.352 1.541c-.634.729-1.414 1.357-2.34 1.883s-1.726.675-2.399.447-1.169-.597-1.486-1.098-.523-1.115-.619-1.841-.123-1.277-.083-1.652.017-.789-.069-1.232-.101-.703-.046-.771.12-.129.194-.185a1.16 1.16 0 0 1 .23-.133c.08-.034.165-.057.254-.07s.177-.02.263-.014.177.028.263.056a1.1 1.1 0 0 1 .24.115 1.04 1.04 0 0 1 .203.166c.062.065.116.136.162.213s.077.161.101.244a1.07 1.07 0 0 1 .042.263.97.97 0 0 1-.019.268c-.018.086-.047.169-.087.249s-.129.189-.277.328-.339.381-.582.738l-.973 1.338c-.406.539-.828.888-1.265 1.048a1.78 1.78 0 0 1-1.329-.046c-.446-.188-.763-.451-.95-.789s-.306-.751-.356-1.237-.023-1.074.07-1.763.25-1.441.475-2.266l.743-2.459.466-1.325a.98.98 0 0 1 .138-.198c.053-.062.113-.115.18-.162s.14-.084.217-.115.156-.046.236-.055.16-.01.24 0a.9.9 0 0 1 .24.06c.073.027.144.064.212.11s.129.1.184.162a1.12 1.12 0 0 1 .139.203 1.08 1.08 0 0 1 .083.226c.021.08.032.16.032.24s-.011.16-.032.24l-.028.12z"/><path d="M141.815 105.53l1.366-.005 3.341.005 3.548.027 2.359-.004 1.338-.014c.372.009.738.054 1.098.134s.737.223 1.131.429a9.84 9.84 0 0 1 1.19.743c.397.289.782.706 1.154 1.25a14.37 14.37 0 0 1 .909 1.509c.234.462.441 1.077.623 1.846s.192 1.577.023 2.414-.292 1.298-.378 1.384a1.06 1.06 0 0 1-.291.203 1.12 1.12 0 0 1-.342.102 1.09 1.09 0 0 1-.355-.014c-.117-.022-.228-.063-.332-.125a1.02 1.02 0 0 1-.277-.226 1.1 1.1 0 0 1-.185-.3.97.97 0 0 1-.083-.346c-.009-.12.002-.238.033-.355a.93.93 0 0 1 .143-.323 1 1 0 0 1 .24-.263c.092-.077.195-.136.309-.176s.23-.061.35-.064a1.13 1.13 0 0 1 .351.055c.114.034.22.086.319.157a1.02 1.02 0 0 1 .249.254 1.04 1.04 0 0 1 .157.323c.033.114.047.231.041.351a1.14 1.14 0 0 1-.069.35 1.19 1.19 0 0 1-.175.309 1.16 1.16 0 0 1-.596.37.99.99 0 0 1-.355.027c-.12-.012-.235-.041-.346-.087a1.06 1.06 0 0 1-.3-.194 1.22 1.22 0 0 1-.217-.282c-.058-.104-.098-.217-.12-.337a1.14 1.14 0 0 1-.009-.355c.018-.117.055-.229.111-.337l.078-.161.065-.503c.043-.339.032-.776-.033-1.311s-.192-1-.373-1.384a9.45 9.45 0 0 0-.633-1.14c-.243-.372-.643-.772-1.209-1.2s-1.11-.73-1.642-.9-1.063-.255-1.583-.267a51.51 51.51 0 0 0-2.354.023l-3.511.097-3.314.17-1.481.097c-.08-.006-.157-.021-.231-.046a.91.91 0 0 1-.217-.101c-.064-.043-.124-.093-.179-.148s-.104-.121-.144-.189-.07-.14-.092-.217-.034-.155-.037-.235c-.003-.074.003-.151.019-.231a.92.92 0 0 1 .074-.222c.033-.07.075-.137.124-.198a.93.93 0 0 1 .171-.166c.061-.046.129-.086.203-.12a1.02 1.02 0 0 1 .226-.065l.12-.018zm-.866 12.007l-.849.983c-.563.656-.64.983-.231.983l.803-.027c.123-.019.248-.019.374 0a1.11 1.11 0 0 1 .355.124c.114.059.214.134.3.226s.16.197.212.314a1.14 1.14 0 0 1 .097.36 1.11 1.11 0 0 1-.018.378c-.028.124-.076.24-.143.351a1.15 1.15 0 0 1-.245.286 1.12 1.12 0 0 1-.323.189c-.117.05-.238.077-.365.084a1.18 1.18 0 0 1-.373-.042c-.123-.034-.237-.088-.342-.162a1.15 1.15 0 0 1-.267-.258 1.14 1.14 0 0 1-.176-.332c-.04-.12-.06-.245-.06-.374a1.16 1.16 0 0 1 .06-.369c.04-.12.1-.231.18-.332s.166-.188.268-.259a1.14 1.14 0 0 1 .341-.157c.123-.034.248-.047.374-.041a1.28 1.28 0 0 1 .369.083 1.31 1.31 0 0 1 .323.194c.096.083.176.18.24.29s.111.225.139.351a1.07 1.07 0 0 1 .018.374 1.05 1.05 0 0 1-.101.36c-.053.117-.123.221-.213.314a1.14 1.14 0 0 1-.3.226l-.166.087-1.31.25c-.877.169-1.518.116-1.925-.157s-.669-.673-.779-1.196-.062-1.045.147-1.559.563-1.129 1.062-1.846l.844-1.168c.065-.064.135-.121.212-.17a1.15 1.15 0 0 1 .25-.111c.086-.028.173-.045.263-.051a1.06 1.06 0 0 1 .263.019 1.1 1.1 0 0 1 .258.078c.083.037.16.083.231.139a1.02 1.02 0 0 1 .194.189 1.09 1.09 0 0 1 .138.23 1.26 1.26 0 0 1 .083.259 1.31 1.31 0 0 1 .019.263 1.21 1.21 0 0 1-.051.268.94.94 0 0 1-.111.244l-.069.115z"/><path d="M140.261 119.852l1.362.337c.907.224 1.898.387 2.971.489s2.117.284 3.138.558l1.643.503c.074.062.135.134.185.217a.88.88 0 0 1 .106.263.92.92 0 0 1 .018.286.83.83 0 0 1-.074.273c-.04.089-.093.169-.161.24s-.14.127-.226.17-.173.077-.268.093a.81.81 0 0 1-.554-.088c-.086-.043-.163-.1-.23-.171s-.122-.146-.162-.235-.066-.177-.078-.272a.99.99 0 0 1 .013-.287.92.92 0 0 1 .107-.263c.049-.083.11-.157.184-.221a.87.87 0 0 1 .24-.148.79.79 0 0 1 .282-.06.86.86 0 0 1 .281.028.91.91 0 0 1 .466.314c.059.077.105.16.139.249s.046.186.046.281-.016.19-.046.282a.94.94 0 0 1-.13.254c-.058.077-.127.143-.207.198a1 1 0 0 1-.259.12.95.95 0 0 1-.281.032.95.95 0 0 1-.282-.06l-.133-.05-1.136-.37c-.756-.243-1.71-.395-2.861-.456s-2.192-.167-3.115-.323l-1.49-.277c-.077-.025-.149-.059-.217-.102a.96.96 0 0 1-.184-.152 1.21 1.21 0 0 1-.139-.189c-.04-.071-.071-.145-.092-.222a.86.86 0 0 1-.042-.235c0-.077.008-.154.023-.231a.95.95 0 0 1 .074-.226c.037-.074.08-.141.129-.203a1 1 0 0 1 .176-.162.81.81 0 0 1 .203-.119c.074-.031.151-.053.23-.065s.159-.015.236-.009l.12.009h-.005z"/><path d="M142.225 122.615l.235 1.371c.157.919.435 1.744.835 2.473l.646 1.241a1 1 0 0 1 .046.3.89.89 0 0 1-.06.3c-.033.099-.083.188-.147.268a.95.95 0 0 1-.226.203c-.087.055-.18.097-.282.125s-.198.032-.3.023a.94.94 0 0 1-.3-.07.97.97 0 0 1-.258-.166.86.86 0 0 1-.189-.235.87.87 0 0 1-.107-.286.87.87 0 0 1-.009-.305.9.9 0 0 1 .088-.29.86.86 0 0 1 .175-.25 1 1 0 0 1 .249-.18c.093-.046.19-.077.291-.092a1.04 1.04 0 0 1 .305.009.96.96 0 0 1 .286.102 1.1 1.1 0 0 1 .24.189c.067.077.123.163.166.258a.99.99 0 0 1 .074.296.95.95 0 0 1-.023.304 1 1 0 0 1-.12.282.97.97 0 0 1-.203.226c-.08.065-.168.115-.263.152a.93.93 0 0 1-.3.06.95.95 0 0 1-.305-.041 1 1 0 0 1-.272-.134.84.84 0 0 1-.217-.212l-.092-.13-.614-1.329c-.409-.889-.726-1.789-.951-2.699l-.346-1.481a.89.89 0 0 1 .005-.236.79.79 0 0 1 .069-.226 1.08 1.08 0 0 1 .115-.208c.05-.064.105-.123.167-.175a.97.97 0 0 1 .198-.124c.074-.034.149-.06.226-.079a1 1 0 0 1 .231-.018c.08.003.158.015.235.037a1.02 1.02 0 0 1 .222.092 1.07 1.07 0 0 1 .189.143.99.99 0 0 1 .152.184.87.87 0 0 1 .102.213l.037.115zm19.088-7.263l.12 1.546c.083 1.034.06 2.29-.069 3.77l-.401 3.276-.513 2.248-.341 1.306a.81.81 0 0 1-.139.226.91.91 0 0 1-.207.17c-.077.047-.16.079-.249.097a.75.75 0 0 1-.263.01.79.79 0 0 1-.259-.074.91.91 0 0 1-.217-.152c-.064-.062-.118-.133-.161-.213a.75.75 0 0 1-.079-.254.8.8 0 0 1 0-.267.89.89 0 0 1 .093-.249c.043-.08.097-.151.161-.213a.89.89 0 0 1 .222-.147c.083-.037.169-.059.258-.065a.97.97 0 0 1 .268.014.81.81 0 0 1 .244.106c.077.046.145.103.203.171a.83.83 0 0 1 .134.231.85.85 0 0 1 .051.263c.006.089-.005.176-.032.263a.82.82 0 0 1-.116.24.8.8 0 0 1-.184.193c-.071.053-.15.093-.236.12s-.174.042-.263.042a.86.86 0 0 1-.263-.051.75.75 0 0 1-.235-.125c-.071-.055-.131-.121-.18-.198a.76.76 0 0 1-.106-.24.79.79 0 0 1-.028-.268l.009-.133.37-1.126c.243-.751.415-1.455.516-2.114s.188-1.676.268-3.055.046-2.575-.102-3.599l-.221-1.652c.003-.077.014-.154.032-.231a.86.86 0 0 1 .088-.221c.037-.068.081-.131.134-.189s.111-.11.175-.153a1.05 1.05 0 0 1 .212-.111c.074-.027.15-.044.227-.05a1.18 1.18 0 0 1 .23 0 .91.91 0 0 1 .226.06c.07.028.143.064.208.11a1.05 1.05 0 0 1 .175.157c.052.058.096.123.13.194a1.04 1.04 0 0 1 .083.222l.027.115zm-1.793 14.262l-.54 1.652c-.36 1.101-1.164 2.636-2.413 4.605l-4.329 6.41-3.839 5.426-2.404 3.434-1.099 1.536a.6.6 0 0 1-.166.125c-.061.031-.126.052-.194.065a.68.68 0 0 1-.207-.005.57.57 0 0 1-.194-.069.73.73 0 0 1-.166-.125.77.77 0 0 1-.116-.175c-.027-.062-.044-.128-.05-.199a.65.65 0 0 1 .014-.207c.015-.068.041-.131.078-.19a.71.71 0 0 1 .134-.156c.055-.047.115-.082.18-.107s.132-.038.203-.041a.55.55 0 0 1 .203.028.6.6 0 0 1 .189.087.74.74 0 0 1 .148.143c.043.056.075.117.097.185a.57.57 0 0 1 .027.203c0 .071-.01.138-.032.203s-.058.129-.102.185a.59.59 0 0 1-.152.138c-.058.04-.121.069-.189.088s-.135.021-.203.018a.73.73 0 0 1-.203-.046.65.65 0 0 1-.175-.111c-.053-.046-.097-.098-.134-.157a.72.72 0 0 1-.074-.193.8.8 0 0 1-.009-.208.66.66 0 0 1 .06-.199l.041-.092 1.011-1.472 2.381-3.456 3.775-5.436 4.171-6.244c1.175-1.867 1.924-3.355 2.248-4.462l.526-1.749c.027-.058.061-.114.101-.166a.73.73 0 0 1 .139-.139c.049-.04.104-.073.166-.101a.87.87 0 0 1 .184-.055c.065-.013.128-.017.189-.014a.68.68 0 0 1 .19.037.72.72 0 0 1 .18.078c.055.034.106.074.152.12s.086.097.12.152a.71.71 0 0 1 .078.176c.018.062.031.129.037.194s-.001.124-.014.189l-.018.097z"/><path d="M143.705 130.094l-2.192 2.723c-1.465 1.815-3.358 3.897-5.681 6.248l-5.934 5.814-4.264 3.973-1.897 1.745a.6.6 0 0 1-.194.087c-.07.022-.143.029-.216.023a.61.61 0 0 1-.208-.046c-.068-.028-.129-.064-.185-.111a.6.6 0 0 1-.138-.166.7.7 0 0 1-.079-.198.63.63 0 0 1-.009-.212.59.59 0 0 1 .056-.208c.03-.068.07-.128.12-.18a.68.68 0 0 1 .175-.129.55.55 0 0 1 .203-.065.63.63 0 0 1 .212 0c.074.012.142.035.203.069a.69.69 0 0 1 .171.13.61.61 0 0 1 .12.18.65.65 0 0 1 .06.207c.006.071.002.142-.014.212a.68.68 0 0 1-.078.199c-.037.062-.088.117-.143.166a.56.56 0 0 1-.18.106.62.62 0 0 1-.213.046.54.54 0 0 1-.212-.023.61.61 0 0 1-.194-.087c-.061-.044-.113-.094-.157-.153a.66.66 0 0 1-.101-.189.68.68 0 0 1-.032-.212c0-.071.01-.142.032-.212a.77.77 0 0 1 .101-.19l.07-.083 1.785-1.703 4.204-4 5.801-5.787 5.542-6.257 2.22-2.829c.049-.049.101-.091.157-.125s.12-.064.184-.083a1.11 1.11 0 0 1 .199-.037c.064-.003.13.002.198.014a.81.81 0 0 1 .194.06 1.14 1.14 0 0 1 .171.106c.052.043.1.091.143.143s.073.114.101.176a.8.8 0 0 1 .06.193.85.85 0 0 1 .014.194.85.85 0 0 1-.042.199.69.69 0 0 1-.083.184l-.05.088zm-87.446 2.684l1.149.665c.769.436 1.397 1.086 1.883 1.947s.811 1.646.974 2.363.14 1.279-.078 1.679-.489.703-.821.9-.775.288-1.329.272-1.028-.083-1.421-.212l-.752-.277a1.15 1.15 0 0 1-.291-.212 1.11 1.11 0 0 1-.208-.3 1.08 1.08 0 0 1-.106-.346c-.015-.123-.011-.245.014-.365a1.23 1.23 0 0 1 .124-.341 1.2 1.2 0 0 1 .231-.282 1.21 1.21 0 0 1 .304-.193 1.17 1.17 0 0 1 .355-.083 1.06 1.06 0 0 1 .36.032 1.14 1.14 0 0 1 .332.143c.105.068.195.149.272.245s.135.204.175.318.065.237.065.36a1.1 1.1 0 0 1-.051.36 1.14 1.14 0 0 1-.161.323 1.26 1.26 0 0 1-.263.258 1.05 1.05 0 0 1-.323.157c-.12.037-.242.052-.364.046a1.07 1.07 0 0 1-.355-.069 1.02 1.02 0 0 1-.309-.185 1.06 1.06 0 0 1-.24-.272 1.1 1.1 0 0 1-.143-.332 1.21 1.21 0 0 1-.028-.365c.009-.123.043-.24.092-.35a1.06 1.06 0 0 1 .198-.305 1.02 1.02 0 0 1 .277-.226 1.06 1.06 0 0 1 .346-.125 1.21 1.21 0 0 1 .36-.009l.185.028.665.406c.446.268.832.361 1.158.281s.404-.306.226-.669l-.734-1.453c-.314-.609-.849-1.074-1.606-1.394l-1.237-.554a.9.9 0 0 1-.198-.166.91.91 0 0 1-.152-.212 1.03 1.03 0 0 1-.097-.24c-.022-.083-.037-.172-.037-.258a.91.91 0 0 1 .028-.254c.019-.086.048-.168.088-.245a1.13 1.13 0 0 1 .143-.217c.058-.068.118-.126.189-.175a1.11 1.11 0 0 1 .226-.125 1.15 1.15 0 0 1 .254-.069c.086-.012.171-.014.254-.004s.171.027.254.055l.125.046z"/><path d="M56.698 138.178l.798.632c.532.415.961.986 1.288 1.712s.551 1.384.674 1.966a1.9 1.9 0 0 1-.341 1.596c-.351.483-.971.703-1.86.66s-2.001-.392-3.346-1.038l-3.299-1.731-2.321-1.246-1.154-.567a.76.76 0 0 1-.18-.189.79.79 0 0 1-.115-.24.74.74 0 0 1-.028-.259.82.82 0 0 1 .051-.258.89.89 0 0 1 .139-.231.79.79 0 0 1 .198-.166c.077-.046.158-.08.245-.102s.174-.023.263-.013a.79.79 0 0 1 .254.069c.08.037.154.084.221.143s.118.128.162.208a.84.84 0 0 1 .088.512.85.85 0 0 1-.083.249.89.89 0 0 1-.157.212.85.85 0 0 1-.217.152c-.083.037-.168.06-.254.07s-.178.009-.268-.01a.79.79 0 0 1-.245-.096c-.077-.047-.145-.103-.203-.171a.82.82 0 0 1-.139-.226c-.031-.08-.049-.165-.055-.254a.84.84 0 0 1 .023-.263c.025-.086.062-.166.111-.24s.109-.137.18-.189.148-.097.231-.125a.77.77 0 0 1 .263-.046c.089 0 .175.014.258.042l.129.041 1.024.586 2.275 1.283 3.036 1.537c1.191.563 2.123.87 2.796.923.68.049.969-.088.867-.411l-.457-1.251c-.203-.513-.572-.941-1.108-1.283l-.881-.586a.88.88 0 0 1-.138-.166c-.043-.061-.077-.126-.102-.194s-.04-.138-.046-.212a.7.7 0 0 1 .005-.212.82.82 0 0 1 .055-.212c.025-.068.058-.131.101-.19a.83.83 0 0 1 .148-.161.78.78 0 0 1 .18-.12.86.86 0 0 1 .208-.074.73.73 0 0 1 .212-.023c.071 0 .141.009.212.028a.81.81 0 0 1 .203.083l.097.051z"/><path d="M51.062 140.889l-.235.974c-.157.649-.381 1.212-.674 1.689s-.754.811-1.394 1.011-1.372.166-2.206-.102l-1.813-.577-.674-.226c-.071-.031-.135-.071-.194-.12a.89.89 0 0 1-.162-.166.87.87 0 0 1-.12-.198c-.031-.074-.052-.148-.065-.222a1 1 0 0 1-.009-.235.8.8 0 0 1 .042-.226.87.87 0 0 1 .101-.208c.04-.068.088-.128.143-.18a1.05 1.05 0 0 1 .185-.143.9.9 0 0 1 .212-.092.91.91 0 0 1 .226-.037 1.09 1.09 0 0 1 .231.014c.077.015.295.007.655-.023s.76.02 1.2.161.832.315 1.177.522.628.624.84 1.245.145 1.263-.212 1.925-.814 1.18-1.361 1.546a4.59 4.59 0 0 1-1.813.715c-.661.111-1.315.008-1.961-.309s-1.248-.737-1.804-1.269-.852-.848-.886-.955-.055-.217-.055-.328a.98.98 0 0 1 .055-.328 1.05 1.05 0 0 1 .157-.295c.068-.089.148-.166.24-.231s.197-.108.305-.138.218-.039.332-.033a1.09 1.09 0 0 1 .323.07c.105.043.2.101.286.175s.157.155.212.254.1.198.125.309a1 1 0 0 1 .019.332c-.012.111-.043.217-.092.319a1.06 1.06 0 0 1-.185.277 1.11 1.11 0 0 1-.268.198 1.02 1.02 0 0 1-.314.106c-.111.019-.222.019-.332 0s-.217-.054-.318-.106-.186-.12-.263-.203a1 1 0 0 1-.185-.277.97.97 0 0 1-.092-.318 1.21 1.21 0 0 1 .019-.333c.025-.11.066-.213.125-.309s.131-.18.217-.254.181-.13.286-.17a1.1 1.1 0 0 1 .328-.07 1.01 1.01 0 0 1 .328.037.97.97 0 0 1 .305.139 1.04 1.04 0 0 1 .24.231l.102.133.415.402c.277.271.725.498 1.343.683s1.087.189 1.407.014.543-.473.678-.891.057-.694-.245-.826-.68-.206-1.135-.231-.714-.049-.785-.083-.135-.071-.194-.12a.89.89 0 0 1-.162-.166.87.87 0 0 1-.12-.198c-.031-.074-.052-.148-.065-.222a1 1 0 0 1-.009-.235.8.8 0 0 1 .042-.226.99.99 0 0 1 .097-.208.92.92 0 0 1 .148-.18c.055-.055.117-.103.185-.143a.9.9 0 0 1 .212-.092.91.91 0 0 1 .226-.037 1.09 1.09 0 0 1 .231.014c.077.015.298.1.664.253l1.38.503c.557.181 1.032.207 1.435.065s.645-.535.715-1.181l.143-1.089a1.24 1.24 0 0 1 .101-.236 1.33 1.33 0 0 1 .157-.203 1.37 1.37 0 0 1 .203-.157.96.96 0 0 1 .231-.106 1.13 1.13 0 0 1 .254-.05.99.99 0 0 1 .254.013 1.06 1.06 0 0 1 .245.079c.08.037.151.077.221.129s.128.112.18.18a.94.94 0 0 1 .134.217 1.03 1.03 0 0 1 .078.244 1.2 1.2 0 0 1 .018.254l-.009.129zm-9.932 1.458l.605-1.196c.4-.799 1.075-1.63 2.026-2.491s1.909-1.532 2.875-2.012l2.404-1.066c.64-.234 1.084-.436 1.334-.605s.404-.266.466-.281.118-.019.18-.019a.74.74 0 0 1 .185.023.87.87 0 0 1 .175.065.7.7 0 0 1 .148.106c.049.04.091.086.125.138a.79.79 0 0 1 .083.167.57.57 0 0 1 .046.18.91.91 0 0 1 0 .184c-.009.062-.025.12-.046.176a.76.76 0 0 1-.088.166c-.037.053-.074.095-.12.138a.87.87 0 0 1-.157.102c-.052.03-.346.001-.881-.088a8.42 8.42 0 0 0-1.726-.097c-.618.025-1.301.223-2.049.586a7.93 7.93 0 0 0-2.026 1.408c-.603.578-1.023 1.122-1.26 1.633a14.97 14.97 0 0 0-.614 1.541c-.173.516-.235.842-.189.983l.111.356a.92.92 0 0 1 .037.29.96.96 0 0 1-.065.291.85.85 0 0 1-.148.254c-.065.077-.14.141-.226.194a.9.9 0 0 1-.272.11.95.95 0 0 1-.295.019.86.86 0 0 1-.286-.079.9.9 0 0 1-.245-.161c-.074-.071-.134-.149-.18-.235s-.081-.184-.097-.282-.02-.195-.005-.291.046-.192.092-.281a.91.91 0 0 1 .18-.24.87.87 0 0 1 .245-.166.9.9 0 0 1 .286-.083.99.99 0 0 1 .291.014.84.84 0 0 1 .277.11c.086.052.161.113.226.189a.93.93 0 0 1 .152.254.85.85 0 0 1 .069.286c.006.099-.005.196-.032.291a.86.86 0 0 1-.12.272.9.9 0 0 1-.203.217.86.86 0 0 1-.554.189.94.94 0 0 1-.291-.046.91.91 0 0 1-.263-.138.84.84 0 0 1-.203-.212l-.083-.125.189-1.181c.126-.788.269-1.345.429-1.671l.72-1.435c.323-.631.84-1.283 1.55-1.957a9.18 9.18 0 0 1 2.437-1.652c.911-.43 1.872-.616 2.884-.558l1.606.065a.82.82 0 0 1 .18-.019.74.74 0 0 1 .185.023.87.87 0 0 1 .175.065.7.7 0 0 1 .148.106c.049.04.091.086.125.138a.79.79 0 0 1 .083.167.56.56 0 0 1 .046.175.96.96 0 0 1 0 .189c-.009.062-.025.12-.046.176a.76.76 0 0 1-.088.166c-.037.053-.074.095-.12.138a.87.87 0 0 1-.157.102c-.052.03-.217.096-.494.198l-1.297.494c-.591.227-1.314.555-2.169.983s-1.692 1.007-2.51 1.739-1.412 1.5-1.772 2.303l-.595 1.283c-.034.052-.074.101-.12.148s-.098.084-.157.115a.72.72 0 0 1-.175.078 1 1 0 0 1-.194.028c-.065.003-.124-.001-.189-.014a.68.68 0 0 1-.18-.064.95.95 0 0 1-.166-.102.73.73 0 0 1-.134-.138 1.08 1.08 0 0 1-.097-.171.75.75 0 0 1-.051-.185.67.67 0 0 1-.009-.189.8.8 0 0 1 .042-.189l.028-.092z"/><path d="M41.964 147.178l.701 2.353 1.597 4.587c.603 1.489 1.161 2.621 1.675 3.396l.877 1.256a.96.96 0 0 1 .166.221.83.83 0 0 1 .088.258c.015.093.015.183 0 .273a.89.89 0 0 1-.088.263.79.79 0 0 1-.166.217.89.89 0 0 1-.226.157c-.083.04-.171.064-.263.073s-.183.005-.272-.013a.88.88 0 0 1-.258-.102.84.84 0 0 1-.208-.175.82.82 0 0 1-.143-.236.89.89 0 0 1-.06-.267.82.82 0 0 1 .028-.273.84.84 0 0 1 .115-.249.92.92 0 0 1 .429-.332c.089-.028.18-.042.272-.042a.75.75 0 0 1 .272.042.92.92 0 0 1 .24.129.84.84 0 0 1 .189.199.82.82 0 0 1 .115.249c.024.089.038.18.032.272s-.026.182-.06.268a.87.87 0 0 1-.138.235.86.86 0 0 1-.208.175.95.95 0 0 1-.254.107.92.92 0 0 1-.277.013c-.092-.009-.18-.033-.263-.073l-.125-.056-1.024-1.573c-.68-1.046-1.349-2.328-2.007-3.844l-1.772-4.61-.807-2.441c-.012-.074-.017-.148-.014-.222a.76.76 0 0 1 .042-.221 1.07 1.07 0 0 1 .092-.208c.04-.064.083-.125.139-.18a.98.98 0 0 1 .175-.139.96.96 0 0 1 .208-.096 1.08 1.08 0 0 1 .221-.042 1.1 1.1 0 0 1 .221.014.86.86 0 0 1 .217.064.89.89 0 0 1 .194.116 1.01 1.01 0 0 1 .161.161c.049.059.089.123.12.194l.046.102zm11.567-3.005l.808 2.584 1.204 4.352.66 3.313.245 1.689a.77.77 0 0 1-.078.272.87.87 0 0 1-.161.235c-.067.07-.14.128-.226.171a.85.85 0 0 1-.272.088.98.98 0 0 1-.281 0 .88.88 0 0 1-.272-.092c-.083-.047-.157-.105-.221-.176a.91.91 0 0 1-.162-.235.83.83 0 0 1-.074-.272.88.88 0 0 1 .019-.286c.022-.092.057-.18.106-.264a.82.82 0 0 1 .429-.359.79.79 0 0 1 .281-.06.77.77 0 0 1 .282.032.8.8 0 0 1 .258.12.93.93 0 0 1 .203.198.89.89 0 0 1 .134.249.78.78 0 0 1 .041.282.88.88 0 0 1-.046.281.81.81 0 0 1-.134.25.9.9 0 0 1-.208.198.88.88 0 0 1-.258.115.9.9 0 0 1-.286.028.94.94 0 0 1-.522-.208c-.074-.062-.131-.138-.18-.221a.93.93 0 0 1-.106-.263l-.028-.143-.161-1.394c-.108-.932-.311-1.956-.609-3.073l-1.352-4.236-.928-2.672a1 1 0 0 1-.018-.231 1.01 1.01 0 0 1 .037-.235c.022-.077.052-.149.092-.217a1.03 1.03 0 0 1 .143-.189.82.82 0 0 1 .185-.148c.068-.04.138-.077.212-.101a.87.87 0 0 1 .231-.051 1.04 1.04 0 0 1 .235.009c.077.015.152.038.226.069a.9.9 0 0 1 .203.116.95.95 0 0 1 .171.166.9.9 0 0 1 .129.198l.051.111zm3.495-.656l.808 1.177.881 1.342a1.11 1.11 0 0 1 .088.328c.012.114.005.226-.023.337a1.07 1.07 0 0 1-.125.314 1.13 1.13 0 0 1-.221.258 1.17 1.17 0 0 1-.295.171 1.07 1.07 0 0 1-.328.069 1.02 1.02 0 0 1-.337-.037 1.13 1.13 0 0 1-.309-.148 1.1 1.1 0 0 1-.245-.235.95.95 0 0 1-.152-.3c-.037-.108-.055-.218-.055-.332a1.05 1.05 0 0 1 .06-.337.98.98 0 0 1 .161-.295c.068-.093.149-.169.245-.231a1.13 1.13 0 0 1 .309-.143 1.01 1.01 0 0 1 .337-.032c.114.007.224.03.332.073a1.04 1.04 0 0 1 .286.18.91.91 0 0 1 .217.259c.055.099.1.203.125.314a.98.98 0 0 1 .014.341.97.97 0 0 1-.092.323 1.09 1.09 0 0 1-.189.282c-.077.083-.171.15-.272.203a1.1 1.1 0 0 1-.323.106 1.12 1.12 0 0 1-.337-.005.98.98 0 0 1-.323-.111 1.14 1.14 0 0 1-.268-.207l-.115-.125-.775-1.204-.84-1.311a1.02 1.02 0 0 1-.083-.23.91.91 0 0 1-.023-.24c0-.084.011-.165.032-.245a.95.95 0 0 1 .092-.226.82.82 0 0 1 .143-.203 1.1 1.1 0 0 1 .185-.157.95.95 0 0 1 .222-.111c.077-.028.155-.046.235-.055a.96.96 0 0 1 .245.004.98.98 0 0 1 .235.06 1.02 1.02 0 0 1 .217.12.84.84 0 0 1 .18.167l.083.092z"/><path d="M55.762 146.239l.6-1.989 1.144-4.139.844-3.502.517-2.377.258-1.117c.028-.067.065-.129.111-.184s.1-.103.162-.143a.66.66 0 0 1 .198-.083.69.69 0 0 1 .212-.014.61.61 0 0 1 .208.055c.065.03.128.066.18.116a.6.6 0 0 1 .134.17.7.7 0 0 1 .069.203.55.55 0 0 1 .005.213.59.59 0 0 1-.065.207.63.63 0 0 1-.129.171.64.64 0 0 1-.175.125.72.72 0 0 1-.208.06.61.61 0 0 1-.212-.01.82.82 0 0 1-.203-.073.7.7 0 0 1-.277-.323c-.028-.065-.045-.134-.051-.208a.71.71 0 0 1 .023-.212.68.68 0 0 1 .088-.199.63.63 0 0 1 .143-.157c.058-.046.121-.08.189-.101a.69.69 0 0 1 .212-.042.71.71 0 0 1 .212.033c.068.021.131.053.189.096a.7.7 0 0 1 .152.157.71.71 0 0 1 .092.194.81.81 0 0 1 .028.212l-.005.111-.198 1.02-.461 2.413-.78 3.577-1.052 4.194-.577 2.1c-.028.062-.062.12-.102.175a.77.77 0 0 1-.138.148.72.72 0 0 1-.171.106.7.7 0 0 1-.194.065.71.71 0 0 1-.194.018.87.87 0 0 1-.198-.032c-.064-.018-.131-.045-.189-.078s-.112-.074-.161-.12a.84.84 0 0 1-.129-.157 1.12 1.12 0 0 1-.083-.18.88.88 0 0 1-.042-.199c-.006-.064-.005-.13.005-.198l.019-.102zm64.318-16.218l-.092.969c-.062.646-.091 1.744-.088 3.295s.129 2.961.388 4.231.527 2.323.817 3.157l.793 2.33.683 1.952.346 1.006a.8.8 0 0 1-.009.249.79.79 0 0 1-.083.231c-.043.071-.095.135-.157.194a.64.64 0 0 1-.207.129.72.72 0 0 1-.24.06c-.084.006-.165 0-.245-.018s-.16-.054-.231-.097-.127-.102-.18-.166a.79.79 0 0 1-.124-.217.78.78 0 0 1-.046-.24.85.85 0 0 1 .036-.245c.025-.08.06-.154.107-.221a.77.77 0 0 1 .175-.176c.068-.049.141-.086.221-.111a.73.73 0 0 1 .245-.032c.083.003.165.019.245.046s.147.068.212.12a.68.68 0 0 1 .166.185c.046.071.078.146.097.226a.78.78 0 0 1 .023.249.9.9 0 0 1-.06.24.77.77 0 0 1-.134.208.72.72 0 0 1-.194.152c-.073.043-.15.072-.23.088a.75.75 0 0 1-.25.004c-.083-.009-.161-.032-.235-.069s-.14-.089-.198-.148-.111-.124-.148-.198l-.055-.115-.217-.891c-.145-.594-.342-1.243-.591-1.947l-.867-2.395c-.327-.892-.636-2.018-.928-3.378s-.465-2.837-.508-4.43l-.041-3.36.041-1.075c.013-.07.034-.138.065-.203s.065-.129.111-.184.092-.11.147-.153a.8.8 0 0 1 .185-.11c.065-.031.132-.053.203-.065s.142-.017.212-.014a.88.88 0 0 1 .213.037.93.93 0 0 1 .193.088.84.84 0 0 1 .171.134.82.82 0 0 1 .129.17.94.94 0 0 1 .088.194c.022.068.035.139.042.212l.004.102z"/><path d="M124.664 148.393l1.01-.628c.668-.418 1.271-.839 1.809-1.264l1.731-1.477 2.081-1.882 1.994-1.915 1.818-1.966 1.892-2.248 1.504-2.076c.388-.622.858-1.245 1.412-1.869s1.032-1.369 1.435-2.233.626-1.631.679-2.299-.088-1.475-.42-2.413-.58-1.91-.734-2.926-.212-1.696-.175-2.044a3.15 3.15 0 0 1 .267-.997c.145-.317.337-.603.577-.858a3.22 3.22 0 0 1 .817-.628c.307-.166.634-.278.978-.336a3.15 3.15 0 0 1 1.034-.005c.344.055.672.163.983.323a3.14 3.14 0 0 1 .826.623 3.2 3.2 0 0 1 .581.849 3.05 3.05 0 0 1 .282.997 3.21 3.21 0 0 1-.047 1.029c-.073.341-.199.663-.378.964a3.18 3.18 0 0 1-.664.789 3.2 3.2 0 0 1-1.892.766 3.08 3.08 0 0 1-1.025-.106 3.17 3.17 0 0 1-.941-.429c-.289-.194-.542-.429-.757-.706a3.22 3.22 0 0 1-.489-.909c-.111-.329-.168-.669-.171-1.02a3.12 3.12 0 0 1 .162-1.02 3.13 3.13 0 0 1 .48-.913c.209-.28.458-.519.747-.716a3.17 3.17 0 0 1 .932-.438c.336-.095.679-.135 1.029-.12a3.16 3.16 0 0 1 1.011.217 3.12 3.12 0 0 1 .886.531 3.21 3.21 0 0 1 .674.779 3.14 3.14 0 0 1 .387.96l.116.513a142.03 142.03 0 0 0-.023.595c-.016.397.089.983.313 1.758l.679 2.289c.233.75.304 1.676.212 2.778s-.285 2.041-.577 2.81a14.65 14.65 0 0 1-1.066 2.201c-.412.702-.964 1.474-1.656 2.317l-1.888 2.436-1.776 2.261-2.123 2.34-2.164 2.127-2.34 1.975-2.386 1.851-2.035 1.504-2.03 1.389-1.283.748c-.178.08-.363.14-.554.18s-.387.05-.581.041-.386-.046-.577-.101a2.3 2.3 0 0 1-.535-.236c-.17-.098-.323-.217-.462-.355a2.34 2.34 0 0 1-.369-.457c-.101-.166-.183-.343-.245-.531a2.4 2.4 0 0 1-.11-.572c-.015-.194-.003-.387.027-.581a2.19 2.19 0 0 1 .171-.559c.08-.179.175-.349.295-.503a2.43 2.43 0 0 1 .411-.419l.231-.185zm17.202-41.908l1.2-.005 2.611-.069c.936-.043 1.791-.015 2.566.083l2.409.199c.827.034 1.68.16 2.556.378l2.621.715c.871.253 1.648.68 2.331 1.283s1.097 1.242 1.241 1.915l.443 2.331.392 2.708.24 2.455.102 2.105.023 2.39.009 2.593c.003.819-.083 1.737-.258 2.755s-.417 1.98-.725 2.875l-.78 2.575a15.06 15.06 0 0 1-.826 2.367c-.338.76-.809 1.52-1.412 2.28s-1.049 1.246-1.338 1.449-.598.351-.937.452a3.17 3.17 0 0 1-1.033.125 3.16 3.16 0 0 1-1.02-.208c-.329-.123-.629-.297-.9-.521a3.16 3.16 0 0 1-.688-.785c-.184-.298-.318-.618-.401-.96s-.103-.687-.069-1.038.118-.687.263-1.01a3.18 3.18 0 0 1 .567-.868c.24-.262.514-.477.822-.646s.635-.285.983-.346.69-.068 1.038-.019a3.14 3.14 0 0 1 .992.319 3.19 3.19 0 0 1 .84.618c.246.252.446.537.6.854a3.22 3.22 0 0 1 .291.997 3.31 3.31 0 0 1-.037 1.042 3.19 3.19 0 0 1-.374.974c-.175.305-.395.572-.66.803s-.56.414-.886.549a3.14 3.14 0 0 1-1.011.24c-.353.025-.699-.008-1.038-.097a3.2 3.2 0 0 1-1.721-1.126c-.215-.277-.382-.581-.498-.913a3.08 3.08 0 0 1-.185-1.025 3.18 3.18 0 0 1 .152-1.029 3.27 3.27 0 0 1 .471-.927l.314-.425.595-.821a5.67 5.67 0 0 0 .886-1.878 27.73 27.73 0 0 1 .766-2.345c.32-.858.549-1.784.688-2.778s.207-1.922.207-2.787l.005-2.423-.005-2.381-.12-2.418-.175-2.464c-.046-.861-.497-1.455-1.352-1.781s-1.606-.531-2.252-.623a21.58 21.58 0 0 1-2.141-.429c-.782-.194-1.64-.312-2.575-.356l-2.607-.069-1.491-.037a2.33 2.33 0 0 1-.563-.143c-.181-.067-.354-.157-.517-.267s-.304-.24-.434-.388a2.55 2.55 0 0 1-.332-.475 2.28 2.28 0 0 1-.203-.545c-.046-.188-.069-.383-.069-.577a2.44 2.44 0 0 1 .069-.576c.046-.19.114-.37.203-.545s.203-.331.332-.475.274-.277.434-.388a2.44 2.44 0 0 1 .517-.268c.182-.07.371-.118.568-.143l.286-.032zM45.39 147.296l.577 1.957.978 3.894c.268 1.289.606 2.398 1.015 3.327l.678 1.68a1.89 1.89 0 0 1 .018.591c-.025.197-.085.384-.171.563s-.2.338-.341.48a1.77 1.77 0 0 1-.475.346 1.87 1.87 0 0 1-.558.18 1.83 1.83 0 0 1-.591-.014 1.82 1.82 0 0 1-.554-.199c-.175-.098-.329-.221-.462-.369a1.63 1.63 0 0 1-.318-.494c-.08-.181-.129-.37-.148-.567a1.78 1.78 0 0 1 .042-.586 1.93 1.93 0 0 1 .231-.545c.105-.17.238-.317.392-.443s.323-.22.508-.29a1.8 1.8 0 0 1 .581-.116 1.77 1.77 0 0 1 .581.079c.191.055.368.14.531.253s.3.256.42.416.205.335.263.526a1.87 1.87 0 0 1 .083.581 1.79 1.79 0 0 1-.106.582 1.8 1.8 0 0 1-.286.512 1.86 1.86 0 0 1-.438.397 1.81 1.81 0 0 1-.54.235 1.8 1.8 0 0 1-.586.051 1.69 1.69 0 0 1-.572-.139c-.181-.076-.348-.181-.498-.313a1.74 1.74 0 0 1-.369-.457l-.148-.259-.526-1.647-.983-3.382a29.3 29.3 0 0 0-1.232-3.618l-.821-2.128a1.77 1.77 0 0 1-.046-.475 1.88 1.88 0 0 1 .069-.471 2.1 2.1 0 0 1 .18-.447c.08-.139.174-.266.282-.383a1.85 1.85 0 0 1 .369-.309 1.92 1.92 0 0 1 .429-.213 2.07 2.07 0 0 1 .471-.101 1.95 1.95 0 0 1 .471.009 2.11 2.11 0 0 1 .466.129c.151.061.286.139.415.231a1.86 1.86 0 0 1 .351.328 1.9 1.9 0 0 1 .263.401l.106.217z" fill-opacity=".1"/><path d="M56.673 154.4l1.37-.854c.92-.569 2.252-1.226 3.996-1.971l4.675-1.776c1.375-.44 2.819-.818 4.333-1.135l5.934-1.099 6.47-1.029 5.358-.766 5.182-.84 5.039-1.112 4.024-1.139c1.092-.339 1.937-.69 2.533-1.053a10.6 10.6 0 0 0 1.639-1.222l1.629-1.417 1.61-1.458 1.629-1.786 1.587-2.003a6.75 6.75 0 0 0 1.02-2.127c.228-.791.502-.808.822-.051s.197 1.332-.36 1.726-1.38.727-2.478 1.001l-2.797.692-2.224.554-3.341.706-3.715.577-2.815.305-3.069.212-3.221.198-3.069.208-3.346.208c-1.19.092-2.527.104-4.01.037l-3.226-.305a11.13 11.13 0 0 1-1.952-.586c-.637-.259-1.26-.563-1.869-.914l-2.436-1.435-2.783-1.638-2.639-1.491c-.92-.504-1.054-.827-.401-.969s.723.285.203 1.269l-1.527 2.658c-.501.788-.884 1.486-1.149 2.095s-.465 1.296-.6 2.068-.209 1.656-.212 2.662l-.106 2.488-.369 2.787-.72 3.544-.757 2.884c-.209.766-.961.76-2.257-.019s-1.7-1.429-1.223-1.942 1.115-.963 1.924-1.348l2.437-1.061 2.617-.937 2.469-.687 2.852-.596 2.939-.535 2.252-.332 2.293-.323 3.802-.6 5.736-1.057 5.685-1.163 5.597-1.5c2.04-.633 3.748-1.261 5.126-1.882s2.395-1.175 3.041-1.662 1.406-1.136 2.28-1.942l1.827-1.837c.348-.418.593-.683.734-.794a2.14 2.14 0 0 1 .457-.272 2.11 2.11 0 0 1 .512-.157c.175-.031.352-.041.531-.032s.354.046.526.101.331.13.484.222a2.07 2.07 0 0 1 .42.332 2.16 2.16 0 0 1 .328.42 2.31 2.31 0 0 1 .212.489 2.32 2.32 0 0 1 .097.526c.009.179-.003.356-.037.531a2.26 2.26 0 0 1-.161.512 2.11 2.11 0 0 1-.277.452c-.114.142-.537.31-1.269.503s-2.071.453-4.006.766-4.139.548-6.612.702l-6.516.443-4.748.281-3.922.042c-1.314-.022-2.467-.012-3.461.028l-2.801.124c-.871.046-1.924.026-3.161-.06l-3.502-.401-3.032-.54c-.923-.182-1.932-.489-3.027-.923s-1.626.155-1.601 1.767-.108 2.927-.388 3.946l-.891 3.239-.683 2.82c-.145.741-.46.892-.946.452s.274-1.118 2.28-2.044 3.928-1.603 5.768-2.04l4.73-.964 4.269-.55 5.182-.613 5.242-.752 3.982-.743c1.077-.237 2.154-.54 3.23-.909l2.949-1.163c.886-.41 1.591-.842 2.114-1.297s.849-.717.987-.775a2.01 2.01 0 0 1 .429-.12 1.97 1.97 0 0 1 .448-.014 1.92 1.92 0 0 1 .434.097 1.67 1.67 0 0 1 .401.194 1.7 1.7 0 0 1 .342.286c.104.107.193.226.267.355a1.87 1.87 0 0 1 .171.415 1.74 1.74 0 0 1 .065.439 1.82 1.82 0 0 1-.037.443 2.03 2.03 0 0 1-.148.424 1.95 1.95 0 0 1-.24.374 1.8 1.8 0 0 1-.328.305c-.12.089-.516.12-1.19.092l-2.15-.037-4.624.069-7.729.06c-2.83 0-5.327-.008-7.489-.023l-5.491-.046-4.31-.046-3.507-.083c-.963-.04-1.603.269-1.92.927s-.477 1.371-.471 2.137l-.069 2.367c-.052.806-.06 1.458-.023 1.957s.035.843-.005 1.033a2.46 2.46 0 0 1-.185.545 2.29 2.29 0 0 1-.314.489 2.3 2.3 0 0 1-.415.397c-.157.117-.325.214-.503.291a2.53 2.53 0 0 1-.554.157c-.194.03-.386.038-.577.023s-.383-.059-.568-.12a2.33 2.33 0 0 1-.521-.25 2.4 2.4 0 0 1-.448-.369 2.43 2.43 0 0 1-.346-.461 2.41 2.41 0 0 1-.221-.531 2.27 2.27 0 0 1-.092-.572c-.006-.194.569-.76 1.726-1.698s2.696-1.678 4.619-2.22l6.377-1.597 6.013-1.093 5.104-.406 4.472-.236 2.976-.24c.738-.07 1.215-.215 1.43-.433s.397-.322.535-.319.28.023.415.06.265.094.388.162a2.06 2.06 0 0 1 .337.249 1.75 1.75 0 0 1 .268.318 1.78 1.78 0 0 1 .185.379 1.68 1.68 0 0 1 .088.41 1.71 1.71 0 0 1-.014.416 1.89 1.89 0 0 1-.111.406c-.055.129-.125.251-.208.364s-.178.213-.286.305-.224.165-.351.226-.258.108-.397.139-.732-.051-1.791-.236-2.776-.367-5.154-.549l-7.476-.226-6.871.244c-1.969.127-3.745.127-5.33 0s-2.593-.564-3.027-1.315-.54-1.753-.328-2.999l.581-2.847.346-1.145.198-.383a1.73 1.73 0 0 1 .254-.387c.102-.12.215-.225.342-.314s.261-.168.406-.226a1.84 1.84 0 0 1 .448-.12c.154-.022.308-.025.461-.01a1.97 1.97 0 0 1 .452.102 1.99 1.99 0 0 1 .415.203 2.05 2.05 0 0 1 .355.3 2.2 2.2 0 0 1 .272.378 1.94 1.94 0 0 1 .171.43 1.92 1.92 0 0 1 .065.456 1.66 1.66 0 0 1-.046.462c-.034.154-.151 1.054-.351 2.699s-.525 3.369-.965 5.169l-.826 3.774-.231 1.274c-.046.132-.108.257-.185.374a1.75 1.75 0 0 1-.268.318 1.83 1.83 0 0 1-.337.245c-.123.068-.252.118-.388.152a1.69 1.69 0 0 1-.411.06c-.142.003-.28-.011-.415-.041s-.266-.077-.392-.139-.242-.137-.346-.226a1.8 1.8 0 0 1-.286-.309c-.08-.111-.146-.232-.198-.365a1.81 1.81 0 0 1-.111-.401 1.88 1.88 0 0 1-.009-.415l.323-2.372.655-5.985.521-5.603.185-2.108c.012-.216.032-.383.06-.503s.071-.24.129-.351a1.56 1.56 0 0 1 .203-.309c.083-.096.175-.18.277-.254a1.62 1.62 0 0 1 .323-.175 1.57 1.57 0 0 1 .36-.097c.123-.016.248-.017.374-.005s.243.04.36.083.231.095.332.166.2.148.286.24a1.49 1.49 0 0 1 .212.305c.062.107.108.223.138.346s.051.243.051.369l-.046 3.719.078 6.442c.092 1.938.245 3.258.457 3.96s.318 1.113.309 1.236a1.66 1.66 0 0 1-.069.365 1.58 1.58 0 0 1-.152.337c-.065.104-.142.2-.231.286s-.188.164-.295.226-.217.115-.337.152-.242.059-.365.065-.246-.003-.369-.028-.24-.058-.351-.111-.22-.117-.318-.193a1.63 1.63 0 0 1-.258-.263c-.077-.099-.14-.205-.189-.319s-.085-.232-.106-.355.121-.96.429-2.52l.9-5.2.484-3.009a1.33 1.33 0 0 1 .115-.282 1.18 1.18 0 0 1 .18-.244c.071-.077.149-.143.235-.199a1.29 1.29 0 0 1 .272-.133c.095-.034.195-.056.3-.065s.203-.006.304.009a1.19 1.19 0 0 1 .291.083c.095.037.185.086.268.148a1.27 1.27 0 0 1 .221.208c.065.08.12.166.166.258a1.22 1.22 0 0 1 .102.286c.022.102.031.203.028.305s.201 1.179.614 3.234l.886 4.047c.178.643.264 1.031.258 1.163s-.029.262-.069.388a1.7 1.7 0 0 1-.152.36 1.75 1.75 0 0 1-.24.309 1.57 1.57 0 0 1-.304.245 1.53 1.53 0 0 1-.355.166c-.126.04-.254.064-.383.074a1.39 1.39 0 0 1-.392-.019c-.129-.021-.255-.058-.378-.111a1.6 1.6 0 0 1-.337-.198c-.105-.08-.198-.171-.282-.272s-.152-.213-.208-.333a1.6 1.6 0 0 1-.12-.373c-.025-.13-.291-.317-.798-.563s-.795-.434-.863-.563a1.75 1.75 0 0 1-.152-.406 1.86 1.86 0 0 1-.051-.434 1.69 1.69 0 0 1 .055-.429 1.62 1.62 0 0 1 .157-.406 1.67 1.67 0 0 1 .249-.356 1.66 1.66 0 0 1 .328-.29c.12-.08.248-.147.383-.199s.28-.086.425-.101.289-.019.434 0 .285.053.42.106a1.67 1.67 0 0 1 .388.207 1.82 1.82 0 0 1 .323.287c.095.11.158.161.189.152s.089.04.175.157.162.243.217.378.095.271.12.415.026.29.014.434-.042.286-.088.425-.109.269-.189.392a1.58 1.58 0 0 1-.277.332c-.105.102-.22.188-.346.259s-.26.13-.401.17-.281.063-.429.07a2.06 2.06 0 0 1-.429-.037c-.145-.031-.282-.079-.411-.143a1.8 1.8 0 0 1-.369-.231c-.111-.092-.225-.705-.341-1.837l-.401-3.774c-.157-1.385-.44-2.471-.849-3.258s-.817-1.3-1.232-1.546l-.844-.499c-.148-.086-.283-.189-.406-.309a2.21 2.21 0 0 1-.323-.397c-.089-.144-.161-.298-.217-.461a2.31 2.31 0 0 1-.102-.498c-.012-.173-.005-.343.023-.513a2.08 2.08 0 0 1 .143-.489 2.15 2.15 0 0 1 .258-.443 1.98 1.98 0 0 1 .355-.364 2.15 2.15 0 0 1 .429-.273c.157-.073.318-.127.484-.161s.34-.046.512-.037.337.034.503.083.569 1.055 1.218 3.018l1.707 5.759c.489 1.877 1.181 3.039 2.076 3.489s2.232.549 4.001.3l4.167-.656c1.006-.187 2.12-.315 3.341-.383s2.955-.044 5.201.06l5.242.226c1.246.047 2.178-.043 2.796-.267s1.243-.533 1.874-.923l1.943-1.228 1.209-.729a2.07 2.07 0 0 1 .443-.106 2.09 2.09 0 0 1 .461.005c.151.018.299.055.443.11s.276.131.402.217a1.93 1.93 0 0 1 .341.31c.102.113.188.239.259.378s.123.278.157.429a1.85 1.85 0 0 1 .055.452c-.003.154-.023.306-.06.457s-.095.289-.166.425-.162.26-.263.373-.217.214-.346.3-.631.06-1.514-.087-1.692-.019-2.427.378-1.197.615-1.375.646-.357.039-.535.023a2.22 2.22 0 0 1-.531-.101c-.169-.056-.331-.131-.485-.226a2.25 2.25 0 0 1-.42-.337 2.29 2.29 0 0 1-.328-.425 2.26 2.26 0 0 1-.217-.494c-.052-.172-.082-.349-.088-.53a2.22 2.22 0 0 1 .037-.536c.034-.178.089-.349.166-.512a2.14 2.14 0 0 1 .281-.457 2.19 2.19 0 0 1 .383-.373c.145-.111.3-.203.466-.277s.927-.076 2.284-.014l3.064.115 1.947-.009 1.219.014c.197.031.386.083.567.157a2.54 2.54 0 0 1 .517.29c.16.117.303.251.429.402s.237.315.323.494.154.364.194.558.062.389.055.586a2.35 2.35 0 0 1-.083.586c-.052.191-.127.372-.226.545s-.21.33-.346.475a2.37 2.37 0 0 1-.452.378c-.166.111-.343.199-.531.263s-.38.107-.577.125-.541.109-1.033.272-.872.254-1.14.273-.537-.002-.798-.07-.506-.173-.734-.318a2.53 2.53 0 0 1-.591-.54 2.39 2.39 0 0 1-.387-.697c-.093-.255-.142-.518-.148-.789s.031-.535.111-.794a2.57 2.57 0 0 1 .36-.71c.16-.219.35-.406.572-.563a2.38 2.38 0 0 1 .715-.351 2.42 2.42 0 0 1 .794-.106 2.41 2.41 0 0 1 .784.157 2.44 2.44 0 0 1 .697.397 2.53 2.53 0 0 1 .531.6 2.38 2.38 0 0 1 .369 1.536c-.022.268-.088.526-.198.775s-.253.47-.434.67-.391.366-.628.498-.484.223-.752.272a2.4 2.4 0 0 1-.798.014c-.268-.037-.523-.117-.766-.24s-.456-.277-.646-.471-.342-.407-.462-.65a2.57 2.57 0 0 1-.231-.766 2.52 2.52 0 0 1 .028-.799 2.4 2.4 0 0 1 .282-.752c.135-.234.303-.44.503-.618a2.39 2.39 0 0 1 .678-.429l.374-.157 1.389-.272c.929-.182 1.492-.259 1.689-.231s.386.083.567.157a2.54 2.54 0 0 1 .517.29c.16.117.303.251.429.402s.237.315.323.494.154.364.194.558.062.389.055.586a2.3 2.3 0 0 1-.083.582 2.31 2.31 0 0 1-.226.549c-.095.172-.21.33-.346.475a2.37 2.37 0 0 1-.452.378c-.166.111-.343.199-.531.263s-.38.107-.577.125-.616-.002-1.259-.06l-2.109-.166a18.33 18.33 0 0 1-2.308-.309c-.781-.154-1.261-.216-1.44-.185s-.357.039-.535.023a2.22 2.22 0 0 1-.531-.101c-.169-.056-.331-.131-.485-.226a2.25 2.25 0 0 1-.42-.337 2.29 2.29 0 0 1-.328-.425 2.26 2.26 0 0 1-.217-.494c-.052-.172-.082-.349-.088-.53a2.24 2.24 0 0 1 .037-.536c.034-.178.089-.349.166-.512a2.14 2.14 0 0 1 .281-.457 2.19 2.19 0 0 1 .383-.373c.145-.111.3-.203.466-.277a3.85 3.85 0 0 1 .526-.18c.185-.053.917-.029 2.197.069l2.137.069a2.07 2.07 0 0 1 .443-.106 2.09 2.09 0 0 1 .461.005c.151.018.299.055.443.11s.276.128.402.217.24.191.341.305a1.88 1.88 0 0 1 .259.383c.071.135.123.278.157.429a1.85 1.85 0 0 1 .055.452c-.003.154-.023.305-.06.453a1.79 1.79 0 0 1-.166.429c-.074.135-.162.26-.263.373s-.217.214-.346.3-.54.31-1.242.67l-2.418 1.144a10.55 10.55 0 0 1-2.718.812c-.895.139-1.975.202-3.239.189l-5.122-.06c-2.15-.03-3.781-.01-4.892.06l-3.179.309-4.375.739c-1.907.357-3.522.5-4.845.429s-2.33-.712-3.023-1.934-1.349-2.793-1.97-4.716-.926-3.348-.923-4.277-.069-1.432-.217-1.519-.283-.189-.406-.309a2.21 2.21 0 0 1-.323-.397c-.089-.144-.161-.298-.217-.461a2.31 2.31 0 0 1-.102-.498c-.012-.173-.005-.343.023-.513a2.08 2.08 0 0 1 .143-.489 2.15 2.15 0 0 1 .258-.443 1.98 1.98 0 0 1 .355-.364 2.15 2.15 0 0 1 .429-.273c.157-.073.318-.127.484-.161s.34-.046.512-.037.337.034.503.083.457.191.881.425.881.761 1.38 1.573.994 1.774 1.477 2.884.729 2.601.729 4.463l.129 2.967c.089.117.162.241.217.374a1.98 1.98 0 0 1 .12.419c.022.145.026.29.014.434s-.042.286-.088.425-.109.269-.189.392a1.58 1.58 0 0 1-.277.332c-.105.102-.22.188-.346.259s-.26.13-.401.17-.281.063-.429.07a2.06 2.06 0 0 1-.429-.037c-.145-.031-.282-.079-.411-.143a1.8 1.8 0 0 1-.369-.231l-.401-.346c-.154-.142-.265-.277-.332-.406a1.75 1.75 0 0 1-.152-.406 1.86 1.86 0 0 1-.051-.434 1.69 1.69 0 0 1 .055-.429 1.62 1.62 0 0 1 .157-.406 1.67 1.67 0 0 1 .249-.356c.095-.11.203-.207.323-.29a2.08 2.08 0 0 1 .388-.199c.138-.052.28-.086.425-.101s.289-.019.434 0 .285.053.42.106a1.67 1.67 0 0 1 .388.207 1.82 1.82 0 0 1 .323.287c.095.11.143.31.143.599s.295.717.895 1.274.892.906.886 1.038-.029.262-.069.388a1.7 1.7 0 0 1-.152.36 1.75 1.75 0 0 1-.24.309 1.57 1.57 0 0 1-.304.245 1.53 1.53 0 0 1-.355.166c-.126.04-.254.064-.383.074a1.39 1.39 0 0 1-.392-.019c-.129-.021-.255-.058-.378-.111a1.6 1.6 0 0 1-.337-.198c-.105-.08-.198-.171-.282-.272s-.152-.213-.208-.333a1.6 1.6 0 0 1-.12-.373c-.025-.13-.058-.522-.102-1.177l-.222-2.963c-.108-1.322-.257-2.448-.448-3.377l-.249-1.537a1.33 1.33 0 0 1 .115-.282 1.18 1.18 0 0 1 .18-.244c.071-.077.149-.143.235-.199a1.29 1.29 0 0 1 .272-.133c.095-.034.195-.056.3-.065s.203-.006.304.009.195.043.291.083.185.086.268.148a1.27 1.27 0 0 1 .221.208c.065.08.12.166.166.258a1.22 1.22 0 0 1 .102.286c.022.102.031.203.028.305s-.145 1.107-.425 3.018l-.618 4.923-.212 2.252a1.66 1.66 0 0 1-.069.365 1.48 1.48 0 0 1-.152.332 1.4 1.4 0 0 1-.231.291c-.089.089-.188.164-.295.226s-.217.115-.337.152a1.82 1.82 0 0 1-.365.065c-.123.006-.246-.003-.369-.028s-.24-.058-.351-.111-.22-.117-.318-.193a1.63 1.63 0 0 1-.258-.263c-.077-.099-.14-.205-.189-.319s-.085-.232-.106-.355-.068-.534-.138-1.242l-.286-4.028-.3-6.677-.079-3.89c.028-.124.071-.24.129-.351a1.56 1.56 0 0 1 .203-.309c.083-.096.175-.18.277-.254a1.62 1.62 0 0 1 .323-.175 1.57 1.57 0 0 1 .36-.097c.123-.016.248-.017.374-.005s.243.04.36.083.231.095.332.166.2.148.286.24a1.49 1.49 0 0 1 .212.305c.062.107.108.223.138.346s.051.241.051.364-.041.294-.134.503-.205.894-.337 2.063l-.485 5.57-.351 6.243-.138 2.626c-.046.132-.108.257-.185.374a1.75 1.75 0 0 1-.268.318 1.83 1.83 0 0 1-.337.245c-.123.068-.252.118-.388.152a1.69 1.69 0 0 1-.411.06c-.142.003-.28-.011-.415-.041a1.53 1.53 0 0 1-.392-.139c-.126-.061-.242-.137-.346-.226a1.8 1.8 0 0 1-.286-.309c-.08-.111-.146-.231-.198-.36a1.9 1.9 0 0 1-.111-.406 1.88 1.88 0 0 1-.009-.415c.015-.139.134-.554.355-1.246s.498-1.874.831-3.544.558-3.492.669-5.473l.268-3.18a1.73 1.73 0 0 1 .254-.387c.102-.12.215-.225.342-.314s.261-.168.406-.226a1.84 1.84 0 0 1 .448-.12c.154-.022.308-.025.461-.01a1.97 1.97 0 0 1 .452.102 1.99 1.99 0 0 1 .415.203 2.05 2.05 0 0 1 .355.3 2.2 2.2 0 0 1 .272.378 1.94 1.94 0 0 1 .171.43 1.92 1.92 0 0 1 .065.456 1.66 1.66 0 0 1-.046.462c-.034.154-.225.54-.572 1.158s-.654 1.535-.909 2.75.058 1.66.941 1.334 2.335-.578 4.356-.766l7.074-.434h7.873l4.901.425 1.278.281c.141.003.28.023.415.06s.265.094.388.162.232.151.337.249a1.75 1.75 0 0 1 .268.318 1.78 1.78 0 0 1 .185.379 2.02 2.02 0 0 1 .088.406 1.74 1.74 0 0 1-.014.42 1.89 1.89 0 0 1-.111.406c-.055.129-.125.251-.208.364s-.178.213-.286.305-.224.165-.351.226-.258.108-.397.139-.203.063-.203.106-.483.103-1.458.189l-3.369.323-4.338.415-4.739.655c-1.535.296-3.399.766-5.593 1.413s-4.256 1.115-6.179 1.398-2.904.52-2.944.71a2.46 2.46 0 0 1-.185.545 2.29 2.29 0 0 1-.314.489 2.3 2.3 0 0 1-.415.397c-.157.117-.325.214-.503.291a2.53 2.53 0 0 1-.554.157c-.194.03-.386.038-.577.023s-.383-.059-.568-.12a2.33 2.33 0 0 1-.521-.25 2.54 2.54 0 0 1-.448-.364 2.6 2.6 0 0 1-.346-.466 2.41 2.41 0 0 1-.221-.531 2.27 2.27 0 0 1-.092-.572c-.006-.194.018-.542.074-1.043l.217-1.795.175-2.234.152-2.547c.065-.898.408-1.786 1.029-2.662s1.523-1.236 2.704-1.076l3.046.462c.846.148 1.957.211 3.332.189l4.301-.078 5.473-.13 7.425-.212 7.872-.383c2.452-.163 4.05-.138 4.795.074s1.186.289 1.324.231a2.01 2.01 0 0 1 .429-.12 1.97 1.97 0 0 1 .448-.014 1.92 1.92 0 0 1 .434.097 1.67 1.67 0 0 1 .401.194 1.7 1.7 0 0 1 .342.286c.104.107.193.226.267.355a1.87 1.87 0 0 1 .171.415 1.74 1.74 0 0 1 .065.439 1.82 1.82 0 0 1-.037.443 2.03 2.03 0 0 1-.148.424 1.95 1.95 0 0 1-.24.374 1.8 1.8 0 0 1-.328.305c-.12.089-.543.309-1.269.659l-2.565 1.071-3.267 1.135c-1.2.394-2.353.686-3.461.877l-4.061.734-5.284.909-5.081.803-4.001.747-4.305 1.186c-1.667.52-3.31 1.148-4.928 1.883s-3.095 1.197-4.43 1.394-2.169-.263-2.501-1.38-.389-2.026-.171-2.727.449-1.655.692-2.852l.757-3.309.757-3.493c.243-1.326.863-2.717 1.86-4.172s1.886-2.019 2.667-1.693 1.487.701 2.109 1.126 1.357.753 2.206.987l2.704.646c.954.197 2.018.316 3.193.356l3.073.129 2.796.124 3.364.014 3.752-.207 4.684-.54 6.396-.808 6.313-.766 2.939-.494a2.14 2.14 0 0 1 .457-.272 2.11 2.11 0 0 1 .512-.157c.175-.031.352-.041.531-.032s.354.046.526.101.331.13.484.222a2.07 2.07 0 0 1 .42.332c.126.126.234.266.323.42a2.14 2.14 0 0 1 .217.489 2.32 2.32 0 0 1 .097.526c.009.179-.003.356-.037.531a2.26 2.26 0 0 1-.161.512 2.11 2.11 0 0 1-.277.452c-.114.142-.326.348-.637.619s-.826.62-1.546 1.038l-1.998 1.255-2.15 1.343-3.429 1.837c-1.467.747-3.246 1.504-5.335 2.27l-5.648 1.924-5.588 1.675-5.828 1.759-3.895 1.052-2.22.392-2.257.434-2.764.544-3.581.817a20.26 20.26 0 0 0-3.839 1.398l-3.115 1.546c-.852.44-1.944.375-3.276-.194-1.335-.563-1.981-1.275-1.938-2.136s.203-1.688.471-2.487l.766-2.497a31.47 31.47 0 0 0 .637-2.852l.425-3.142.392-3.3c.16-1.135.349-2.049.568-2.741s.508-1.42.858-2.182l1.264-2.525 1.79-3.133c.701-1.166 1.381-1.91 2.04-2.233s1.604-.377 2.838-.153 2.149.489 2.746.803l2.33 1.348 2.289 1.495 1.929 1.329c.72.474 1.471.87 2.252 1.19s1.794.536 3.036.646l3.572.203 3.106-.06 3.013-.355 3.156-.457 2.879-.415 2.792-.498 2.441-.42c.656-.093 1.302-.228 1.939-.406l1.998-.55 2.15-.609 2.169-.627 2.072-.503c.671-.136 1.569-.22 2.695-.254s2.043.157 2.75.581 1.129 1.363 1.274 2.815-.031 2.524-.526 3.217a16.14 16.14 0 0 1-1.666 1.984l-2.146 1.966-2.146 1.758-1.892 1.338-2.067 1.32c-.738.464-1.504.84-2.298 1.126s-1.752.574-2.875.854l-4.167 1.084-5.168 1.163-5.224.881-5.311.803-6.377 1.075-5.713 1.126a35.29 35.29 0 0 0-4.029 1.159c-1.277.449-2.723 1.047-4.338 1.795l-3.844 1.901-1.578.854a1.28 1.28 0 0 1-.337.101 1.62 1.62 0 0 1-.346.019 1.54 1.54 0 0 1-.346-.07c-.111-.037-.217-.086-.319-.147s-.189-.139-.272-.222-.154-.18-.212-.281-.108-.21-.138-.323-.054-.226-.06-.346a1.47 1.47 0 0 1 .023-.347c.025-.113.062-.224.111-.332s.111-.207.185-.3a1.56 1.56 0 0 1 .254-.244l.143-.106z" fill-opacity=".1"/><path d="M53.293 153.871l.365-.923a21.96 21.96 0 0 0 .734-2.233l.831-2.829c.311-1.012.638-1.881.983-2.607l1.001-2.372 1.034-2.737.886-2.658.761-2.515.734-2.533.66-2.483c.231-.83.554-1.65.969-2.459s.981-1.331 1.707-1.555 1.724-.137 3.004.253 2.334.871 3.17 1.431l3.027 1.887 3.129 1.754a24.42 24.42 0 0 0 2.815 1.241c.969.357 2.123.697 3.461 1.02s2.394.521 3.166.595 1.91.125 3.406.153l3.525-.065c.855-.074 1.941-.228 3.258-.461l3.073-.697 2.607-.743a33.99 33.99 0 0 1 3.42-.702l3.488-.618c1.049-.209 1.997-.477 2.843-.803l2.289-.923 1.26-.498a2.27 2.27 0 0 1 .549-.079c.203-.009.403.006.6.046a2.68 2.68 0 0 1 .572.194c.184.086.355.194.512.323a2.57 2.57 0 0 1 .42.439 2.43 2.43 0 0 1 .466 1.103c.034.2.042.401.023.604s-.055.397-.12.591a2.56 2.56 0 0 1-.258.544 2.55 2.55 0 0 1-.383.466c-.148.142-.309.263-.485.365a2.41 2.41 0 0 1-.554.235l-2.007.489-3.955.753-4.817.743-5.118.756-4.813.78-4.776.909-4.85 1.112-4.79 1.486-4.748 1.805-4.121 1.799c-1.215.576-2.2 1.119-2.953 1.629s-1.56 1.235-2.427 2.164l-1.961 2.312-1.237 1.708c-.385.529-.783 1.181-1.195 1.956l-.807 1.459a3.15 3.15 0 0 1-.378.512c-.129.139-.269.26-.429.364a2.15 2.15 0 0 1-.503.249 2.21 2.21 0 0 1-.549.125c-.188.018-.375.015-.563-.009a2.39 2.39 0 0 1-.54-.148 2.34 2.34 0 0 1-.494-.272 2.36 2.36 0 0 1-.415-.383 2.17 2.17 0 0 1-.309-.466c-.083-.169-.149-.346-.189-.531a2.22 2.22 0 0 1-.055-.558c.007-.191.029-.372.078-.554a2.33 2.33 0 0 1 .208-.521c.092-.167.612-1.256 1.56-3.268l2.4-5.099 2.012-4.134 1.97-4.047 1.394-3.18.614-1.666c.105-.31.195-.53.272-.66s.168-.241.272-.346a1.81 1.81 0 0 1 .351-.272 1.74 1.74 0 0 1 .835-.263c.151-.009.298 0 .443.028a1.79 1.79 0 0 1 .425.134 1.82 1.82 0 0 1 .378.23 1.65 1.65 0 0 1 .309.31 1.94 1.94 0 0 1 .231.383c.062.139.105.275.129.419a1.99 1.99 0 0 1 .028.443c-.009.147-.035.293-.079.434l-.789 2.506c-.48 1.532-1.04 2.978-1.68 4.338s-1.041 2.482-1.204 3.368l-.341 1.532a1.95 1.95 0 0 1-.235.37 2.02 2.02 0 0 1-.323.299 1.81 1.81 0 0 1-.383.217 1.8 1.8 0 0 1-.42.116c-.148.021-.294.026-.438.014s-.291-.044-.429-.093-.274-.114-.397-.194-.235-.173-.337-.281a1.95 1.95 0 0 1-.263-.351 1.93 1.93 0 0 1-.166-.406c-.04-.141-.062-.286-.065-.434s.006-.293.037-.438.357-.478.969-1.001 1.497-1.122 2.653-1.795l2.483-1.565.946-.646a1.91 1.91 0 0 1 .42-.143 1.78 1.78 0 0 1 .443-.037 1.92 1.92 0 0 1 .438.069c.144.04.282.097.411.171a1.89 1.89 0 0 1 .355.263 1.79 1.79 0 0 1 .281.342c.08.126.145.26.194.401a1.72 1.72 0 0 1 .092.434 1.93 1.93 0 0 1-.014.443 1.84 1.84 0 0 1-.12.424 1.85 1.85 0 0 1-.222.388 1.87 1.87 0 0 1-.305.323l-1.661 1.468-2.404 2.219c-.609.597-.969.914-1.08.951a1.44 1.44 0 0 0-.346.18c-.123.083-.249.15-.388.203s-.275.087-.42.106a2.14 2.14 0 0 1-.438 0 1.91 1.91 0 0 1-.424-.106c-.135-.053-.263-.12-.383-.203a1.63 1.63 0 0 1-.328-.291 1.8 1.8 0 0 1-.249-.36 1.72 1.72 0 0 1-.152-.411 1.56 1.56 0 0 1-.051-.429 1.86 1.86 0 0 1 .051-.434 1.89 1.89 0 0 1 .157-.41c.068-.129.151-.248.249-.356s.448-.566 1.057-1.365 1.426-1.688 2.441-2.654l2.095-2.164.743-.84a1.94 1.94 0 0 1 .36-.221 1.68 1.68 0 0 1 .401-.125 1.64 1.64 0 0 1 .424-.028 1.59 1.59 0 0 1 .415.074 1.69 1.69 0 0 1 .388.171 1.74 1.74 0 0 1 .332.258 1.82 1.82 0 0 1 .263.333c.074.12.132.252.175.387a1.74 1.74 0 0 1 .079.415c.009.142.001.282-.023.42a1.67 1.67 0 0 1-.125.406 1.89 1.89 0 0 1-.217.365c-.086.111-.664.138-1.735.083a19.01 19.01 0 0 0-2.93.055l-1.472.18a1.24 1.24 0 0 1-.397.028c-.169-.009-.331-.038-.494-.088a2.04 2.04 0 0 1-.457-.203c-.145-.083-.275-.184-.392-.304a2.1 2.1 0 0 1-.314-.388 2.3 2.3 0 0 1-.208-.457 1.87 1.87 0 0 1-.092-.489 2.08 2.08 0 0 1 .023-.498 2.17 2.17 0 0 1 .148-.48c.068-.154.152-.297.254-.429a2.01 2.01 0 0 1 .351-.356c.132-.104.274-.192.425-.263s.312-.121.475-.152.663.017 1.49.143l2.723.485c.987.197 1.932.329 2.833.397s1.678.287 2.33.659 1.075.677 1.269.914l.494.582c.135.144.249.304.341.479a2.75 2.75 0 0 1 .222.554 2.34 2.34 0 0 1 .078.586c.003.197-.018.397-.065.591a2.61 2.61 0 0 1-.198.558c-.089.178-.203.343-.332.494a2.33 2.33 0 0 1-.438.397 2.46 2.46 0 0 1-.521.286c-.185.071-.375.12-.572.148a2.47 2.47 0 0 1-.595.009 2.5 2.5 0 0 1-.577-.134 2.45 2.45 0 0 1-.531-.268c-.166-.111-.617-.484-1.361-1.121s-1.452-1.701-2.123-3.193-.801-2.518-.392-3.078 1.055-.92 1.938-1.071 1.451-.215 1.703-.193l.701.083a2.88 2.88 0 0 1 .628.18c.2.086.388.193.563.323s.332.283.471.452a2.64 2.64 0 0 1 .351.544 2.98 2.98 0 0 1 .208.619 2.89 2.89 0 0 1 .055.65c-.009.219-.045.433-.106.642s-.141.409-.249.6a2.95 2.95 0 0 1-.392.521 2.69 2.69 0 0 1-.503.411c-.185.117-.38.211-.586.281s-.418.116-.637.134-1.135-.161-2.75-.54l-3.692-.743c-.846-.12-1.635-.321-2.367-.604l-1.481-.577c-.255-.099-.486-.235-.692-.411s-.384-.378-.526-.609-.243-.483-.305-.747-.074-.533-.046-.803.097-.531.208-.78a2.45 2.45 0 0 1 .448-.669 2.57 2.57 0 0 1 .642-.49 2.52 2.52 0 0 1 .761-.263 2.43 2.43 0 0 1 .803-.004c.271.043.526.127.766.254a2.59 2.59 0 0 1 .646.48 2.43 2.43 0 0 1 .452.664 2.44 2.44 0 0 1 .221.775 2.51 2.51 0 0 1-.332 1.555 2.5 2.5 0 0 1-.517.619c-.206.175-.435.315-.688.42s-.514.16-.784.175a2.52 2.52 0 0 1-.803-.083c-.261-.071-.506-.182-.734-.332a2.41 2.41 0 0 1-.586-.549 2.5 2.5 0 0 1-.383-.711 2.42 2.42 0 0 1-.134-.794c0-.271.038-.538.125-.793s.211-.497.374-.716.357-.404.581-.558a2.47 2.47 0 0 1 .729-.342c.261-.073.528-.104.798-.092l.411.019a189.3 189.3 0 0 0 1.154.512c.773.342 1.515.603 2.229.784s1.787.322 3.212.411l2.46.185a2.51 2.51 0 0 1 .623.18 2.9 2.9 0 0 1 .568.323c.176.13.332.283.471.452a2.64 2.64 0 0 1 .351.544 2.87 2.87 0 0 1 .208.619 2.89 2.89 0 0 1 .055.65c-.009.219-.045.433-.106.642s-.141.409-.249.6a2.95 2.95 0 0 1-.392.521 2.69 2.69 0 0 1-.503.411c-.185.117-.38.211-.586.281s-.418.116-.637.134-.455-.092-.711-.332-.149-.688.318-1.343 1.1-.658 1.906-.009l1.407 1.2c.135.144.249.304.341.479a2.75 2.75 0 0 1 .222.554c.053.194.075.386.078.586a2.35 2.35 0 0 1-.065.591 2.61 2.61 0 0 1-.198.558c-.089.178-.203.343-.332.494a2.33 2.33 0 0 1-.438.397 2.46 2.46 0 0 1-.521.286c-.185.071-.375.12-.572.148a2.47 2.47 0 0 1-.595.009 2.5 2.5 0 0 1-.577-.134 2.36 2.36 0 0 1-.526-.268c-.166-.11-.286-.363-.36-.756s-.537-.665-1.389-.822l-3.475-.706-2.45-.489c-.166-.009-.329-.038-.489-.088s-.317-.115-.461-.198a2.08 2.08 0 0 1-.392-.309 2.1 2.1 0 0 1-.314-.388 2.3 2.3 0 0 1-.208-.457 1.87 1.87 0 0 1-.092-.489 2.08 2.08 0 0 1 .023-.498 2.17 2.17 0 0 1 .148-.48c.068-.154.152-.297.254-.429a2.01 2.01 0 0 1 .351-.356c.132-.104.274-.192.425-.263s.312-.121.475-.152.585-.037 1.255-.018 1.324.266 1.961.743 1.012.67 1.126.581a1.88 1.88 0 0 1 .36-.221 1.68 1.68 0 0 1 .401-.125 1.64 1.64 0 0 1 .424-.028 1.59 1.59 0 0 1 .415.074 1.69 1.69 0 0 1 .388.171 1.95 1.95 0 0 1 .332.258 1.82 1.82 0 0 1 .263.333c.074.12.132.252.175.387a1.74 1.74 0 0 1 .079.415c.009.142.001.282-.023.42a1.67 1.67 0 0 1-.125.406 1.89 1.89 0 0 1-.217.365c-.086.111-.364.36-.835.748s-1.121 1.032-1.961 1.933a28.46 28.46 0 0 0-2.358 2.907l-1.278 1.671c-.12.083-.248.15-.383.203a1.91 1.91 0 0 1-.425.106 2.14 2.14 0 0 1-.438 0 1.91 1.91 0 0 1-.424-.106c-.135-.053-.263-.12-.383-.203a1.63 1.63 0 0 1-.328-.291 1.8 1.8 0 0 1-.249-.36 1.72 1.72 0 0 1-.152-.411 1.56 1.56 0 0 1-.051-.429 1.86 1.86 0 0 1 .051-.434 1.89 1.89 0 0 1 .157-.41c.068-.129.151-.248.249-.356s.249-.181.461-.212.618-.283 1.218-.757 1.418-1.281 2.455-2.422l1.758-1.814a1.91 1.91 0 0 1 .42-.143 1.78 1.78 0 0 1 .443-.037 1.92 1.92 0 0 1 .438.069c.144.04.282.097.411.171a1.89 1.89 0 0 1 .355.263 1.79 1.79 0 0 1 .281.342c.08.126.145.26.194.401a1.72 1.72 0 0 1 .092.434 1.93 1.93 0 0 1-.014.443 1.84 1.84 0 0 1-.12.424 1.85 1.85 0 0 1-.222.388 1.87 1.87 0 0 1-.305.323c-.114.095-.451.275-1.011.549l-2.667 1.385c-1.221.652-1.864 1.044-1.929 1.176a1.98 1.98 0 0 1-.235.37 2.02 2.02 0 0 1-.323.299 1.81 1.81 0 0 1-.383.217 1.8 1.8 0 0 1-.42.116c-.148.021-.294.026-.438.014s-.291-.044-.429-.093-.274-.114-.397-.194-.235-.173-.337-.281a1.79 1.79 0 0 1-.258-.351c-.074-.129-.131-.264-.171-.406a1.72 1.72 0 0 1-.065-.434c-.003-.148.006-.293.037-.438s.099-.343.194-.595l.586-1.348 1.232-2.898c.529-1.286.992-2.779 1.389-4.48l.711-2.742c.077-.126.168-.241.272-.346a1.81 1.81 0 0 1 .351-.272 1.74 1.74 0 0 1 .835-.263c.151-.009.298 0 .443.028a1.79 1.79 0 0 1 .425.134 1.82 1.82 0 0 1 .378.23 1.65 1.65 0 0 1 .309.31 1.94 1.94 0 0 1 .231.383c.062.139.105.275.129.419a1.99 1.99 0 0 1 .028.443c-.009.147-.035.293-.079.434s-.163.351-.351.628-.48.781-.868 1.523-.863 1.801-1.417 3.179l-1.68 4.126-1.601 4.203-1.523 4.513c-.517 1.579-1.004 2.786-1.463 3.623l-.881 1.463a2.21 2.21 0 0 1-.429.364 2.15 2.15 0 0 1-.503.249 2.21 2.21 0 0 1-.549.125c-.188.018-.375.015-.563-.009a2.39 2.39 0 0 1-.54-.148 2.34 2.34 0 0 1-.494-.272 2.45 2.45 0 0 1-.415-.378c-.123-.141-.226-.302-.309-.471s-.149-.346-.189-.531-.062-.366-.055-.554a2.27 2.27 0 0 1 .078-.558 2.33 2.33 0 0 1 .208-.521c.092-.167.348-.482.766-.946l1.795-2.095 2.053-2.405a18.81 18.81 0 0 1 1.813-1.79 15.65 15.65 0 0 1 1.827-1.352c.6-.378 1.338-.794 2.215-1.237l3.189-1.583 4.213-1.91 4.878-1.943 4.942-1.656 4.901-1.302 4.785-1.14 4.771-1.093 4.947-1.149 4.601-1.255 4.024-1.177 2.201-.545c.203-.009.403.006.6.046a2.68 2.68 0 0 1 .572.194c.184.086.355.194.512.323a2.57 2.57 0 0 1 .42.439 2.43 2.43 0 0 1 .466 1.103c.034.2.042.401.023.604s-.055.397-.12.591a2.56 2.56 0 0 1-.258.544 2.55 2.55 0 0 1-.383.466c-.148.142-.309.263-.485.365a2.41 2.41 0 0 1-.554.235c-.194.055-.306.08-.327.074s-.362.071-1.029.222l-2.441.535-3.018.715-3.244.868-3.111.978-2.791.955c-.896.296-2.082.563-3.558.803l-3.715.568-2.935.281-2.496.028-2.45-.115-2.99-.264c-1.074-.126-1.954-.292-2.64-.498s-1.591-.527-2.713-.964-2.169-.922-3.147-1.454l-2.496-1.347-1.887-1.043c-.572-.329-1.332-.865-2.28-1.606s-1.078-1.246-.392-1.514.891.013.614.84l-.803 2.635-.835 2.676-.849 2.557-.955 2.663-1.075 2.69c-.354.861-.761 1.653-1.223 2.376s-.857 1.508-1.177 2.354l-1.052 2.806-.974 2.436-.554 1.163a2.41 2.41 0 0 1-.355.475c-.135.145-.288.269-.457.374a2.58 2.58 0 0 1-.531.258c-.188.064-.382.105-.581.12a2.18 2.18 0 0 1-.586-.023 2.44 2.44 0 0 1-.568-.161 2.57 2.57 0 0 1-.512-.291 2.35 2.35 0 0 1-.429-.411 2.42 2.42 0 0 1-.318-.498 2.45 2.45 0 0 1-.189-.558 2.51 2.51 0 0 1-.051-.586 2.67 2.67 0 0 1 .092-.582l.083-.286zm9.518-35.068l-.54-.96-1.061-2.072-1.154-2.589-1.163-2.658c-.348-.793-.597-1.544-.748-2.252l-.526-2.639-.411-2.806a18.11 18.11 0 0 1-.028-2.524l.212-2.469.346-2.584.337-2.63.332-2.75.305-2.589.235-2.27.355-2.28c.142-.707.266-1.194.374-1.458s.26-.506.448-.724.405-.395.651-.54a2.65 2.65 0 0 1 .794-.304 2.62 2.62 0 0 1 .849-.037 2.61 2.61 0 0 1 .817.235 2.6 2.6 0 0 1 .697.484 2.63 2.63 0 0 1 .508.683 2.67 2.67 0 0 1 .258.808 2.62 2.62 0 0 1-.286 1.652 2.62 2.62 0 0 1-.522.669c-.21.197-.449.349-.711.466s-.535.194-.821.222a2.61 2.61 0 0 1-.845-.055 2.73 2.73 0 0 1-.789-.328 2.49 2.49 0 0 1-.637-.554 2.64 2.64 0 0 1-.434-.734 2.65 2.65 0 0 1-.171-.831 2.62 2.62 0 0 1 .102-.845c.08-.274.201-.529.365-.766s.36-.44.591-.609a2.61 2.61 0 0 1 .757-.392 2.66 2.66 0 0 1 .84-.125 2.58 2.58 0 0 1 .835.148 2.47 2.47 0 0 1 .743.406 2.71 2.71 0 0 1 .581.623 2.59 2.59 0 0 1 .346.775c.074.277.102.558.083.844l-.028.429-.48 1.938-.6 2.958-.208 2.561-.171 2.792-.189 2.7-.194 2.469c-.071.683-.103 1.609-.097 2.778s.072 2.075.208 2.718.246 1.397.332 2.27.271 1.711.545 2.511l.895 2.621.9 2.372.937 1.919.628 1.242c.074.184.125.373.152.567a2.31 2.31 0 0 1 .009.582 2.34 2.34 0 0 1-.129.572 2.25 2.25 0 0 1-.263.521 2.52 2.52 0 0 1-.378.448 2.48 2.48 0 0 1-.475.341 2.56 2.56 0 0 1-.545.217 2.53 2.53 0 0 1-.577.083 2.44 2.44 0 0 1-.577-.06 2.34 2.34 0 0 1-1.043-.521 2.5 2.5 0 0 1-.397-.429l-.171-.24zm46.555.731l.877-.443c.584-.295 1.095-.694 1.532-1.195s.998-1.078 1.684-1.73 1.431-1.463 2.234-2.442l1.753-2.321c.366-.569.774-1.356 1.223-2.362l1.075-2.478c.268-.646.553-1.469.854-2.469l.729-2.469.678-2.155c.265-.794.523-1.812.776-3.055l.678-3.235.706-3.835.517-3.895.221-1.823c.071-.261.182-.505.333-.729a2.65 2.65 0 0 1 .549-.581c.215-.163.45-.288.706-.374s.518-.129.789-.129a2.36 2.36 0 0 1 .789.125 2.47 2.47 0 0 1 .706.374c.215.163.398.355.549.577a2.39 2.39 0 0 1 .337.725c.074.261.105.528.092.798a2.53 2.53 0 0 1-.17.78 2.59 2.59 0 0 1-.411.683 2.52 2.52 0 0 1-.609.521 2.48 2.48 0 0 1-1.541.341 2.42 2.42 0 0 1-.771-.212 2.53 2.53 0 0 1-.66-.448 2.41 2.41 0 0 1-.485-.637c-.126-.237-.212-.489-.258-.757a2.4 2.4 0 0 1 0-.798 2.47 2.47 0 0 1 .254-.757 2.44 2.44 0 0 1 .48-.637 2.47 2.47 0 0 1 .66-.452c.246-.114.503-.185.77-.212a2.41 2.41 0 0 1 .799.041 2.48 2.48 0 0 1 .743.295c.23.138.433.309.609.512a2.43 2.43 0 0 1 .415.688 2.34 2.34 0 0 1 .171.78l.023.401-.199 1.5-.35 3.06-.328 2.58-.388 2.492-.664 3.586-.798 3.239-.937 2.944-.923 2.741-.738 1.837-1.403 2.829-1.652 2.87c-.44.63-1.162 1.507-2.165 2.63l-2.459 2.621-2.229 2.183c-.852.837-1.595 1.397-2.229 1.68l-1.218.512c-.175.058-.357.095-.545.111a2.28 2.28 0 0 1-.558-.024c-.184-.03-.363-.083-.535-.156a2.29 2.29 0 0 1-.485-.282c-.151-.114-.284-.24-.401-.388s-.22-.301-.3-.47-.14-.346-.18-.531a2.25 2.25 0 0 1-.042-.554 2.31 2.31 0 0 1 .088-.553c.052-.179.126-.35.222-.513a2.42 2.42 0 0 1 .336-.447c.129-.135.274-.254.434-.356l.24-.152zM76.487 92.859l.988 1.993 1.772 3.272 1.454 2.294 1.297 1.887 1.546 1.98c.615.741 1.235 1.389 1.86 1.942s1.281.939 1.961 1.145 1.643.434 2.879.683 1.981.464 2.243.637a2.78 2.78 0 0 1 .683.623 2.91 2.91 0 0 1 .452.812 2.87 2.87 0 0 1 .166.909c.003.314-.041.62-.134.918a2.8 2.8 0 0 1-.42.826c-.185.252-.406.469-.665.651a2.89 2.89 0 0 1-.831.401 2.94 2.94 0 0 1-.923.12 2.86 2.86 0 0 1-.904-.184 2.76 2.76 0 0 1-.803-.466 2.8 2.8 0 0 1-.614-.693 2.82 2.82 0 0 1-.355-.858 2.83 2.83 0 0 1-.069-.923 2.82 2.82 0 0 1 .231-.895 2.95 2.95 0 0 1 .508-.775 2.94 2.94 0 0 1 .729-.577 2.83 2.83 0 0 1 .872-.309c.307-.055.617-.062.928-.019a2.77 2.77 0 0 1 1.629.831 2.85 2.85 0 0 1 .535.757c.138.283.223.579.263.89a2.74 2.74 0 0 1-.037.923c-.062.308-.171.597-.328.868s-.352.509-.586.715-.495.374-.784.494a2.86 2.86 0 0 1-.9.212 2.73 2.73 0 0 1-.923-.083l-.457-.115-.964-.365-1.984-.66a10.7 10.7 0 0 1-2.044-.849 7.55 7.55 0 0 1-1.887-1.444l-1.777-1.994-1.504-1.993-1.177-1.86-1.181-2.026-1.426-2.372-2.058-3.184-1.334-2.114a2.1 2.1 0 0 1-.152-.526 2.16 2.16 0 0 1-.023-.544c.015-.181.052-.363.111-.535s.137-.341.235-.498.215-.295.351-.425a2.29 2.29 0 0 1 .438-.328c.16-.092.328-.163.503-.212s.36-.082.544-.088a2.3 2.3 0 0 1 .54.046 2.35 2.35 0 0 1 .522.171 2.26 2.26 0 0 1 .461.295c.142.117.268.249.378.397l.166.222z" fill-opacity=".1"/><path d="M117.413 114.331l-.766.918c-.514.612-1.222 1.338-2.123 2.178-.908.84-1.797 1.475-2.667 1.906s-1.628.722-2.271.882l-2.898.595-2.967.424-3.027.106-3.12.028-2.234-.018-2.247-.019-2.353-.032c-.806-.012-1.737.008-2.792.06l-3.359.138-3.156.005-3.032-.009c-1.101.024-2.009-.014-2.723-.116a19.1 19.1 0 0 1-2.137-.429c-.708-.187-1.654-.566-2.838-1.135s-2.097-1.149-2.737-1.74-1.295-1.522-1.957-2.787-1.181-2.641-1.55-4.13-.629-2.901-.789-4.236l-.406-3.655-.189-3.511-.088-3.309-.134-2.501a7.61 7.61 0 0 0-.406-1.998l-.355-1.223c-.018-.181-.014-.363.014-.544s.072-.357.143-.526.155-.328.263-.475a2.3 2.3 0 0 1 .374-.401c.138-.117.289-.215.452-.295s.338-.143.517-.18a2.28 2.28 0 0 1 .54-.055 2.43 2.43 0 0 1 .54.079 2.31 2.31 0 0 1 .503.208 2.38 2.38 0 0 1 .443.318 2.51 2.51 0 0 1 .351.415c.098.154.178.317.24.489s.261.846.6 2.021l1.057 3.489 1.195 3.392 1.288 3.092 1.227 2.446 1.186 2.016 1.154 1.814 1.168 1.647 1.361 1.948c.495.738 1.218 1.529 2.169 2.371s1.975 1.445 3.073 1.796 2.323.632 3.664.835a34.37 34.37 0 0 0 4.342.35c1.554.034 3.109-.038 4.665-.216a31.94 31.94 0 0 0 4.578-.863c1.495-.4 2.869-.862 4.121-1.385s2.273-1.11 3.073-1.753c.8-.649 1.547-1.414 2.243-2.294s1.284-1.761 1.776-2.644l1.431-2.681 1.296-2.492 1.38-2.464c.508-.886 1.501-1.5 2.981-1.841s2.437.534 2.861 2.626.448 3.885.06 5.38-.953 2.847-1.698 4.056a14.36 14.36 0 0 1-2.727 3.24l-2.423 2.155c-.544.48-.913.769-1.107.867l-.489.259c-.133.074-.273.132-.42.175s-.297.068-.448.074a1.84 1.84 0 0 1-.452-.037 1.92 1.92 0 0 1-.434-.143 1.98 1.98 0 0 1-.383-.245 1.76 1.76 0 0 1-.318-.327c-.09-.123-.165-.254-.227-.393a2.01 2.01 0 0 1-.124-.438c-.025-.151-.031-.303-.019-.457a1.89 1.89 0 0 1 .093-.443 1.69 1.69 0 0 1 .194-.41c.083-.13.178-.248.286-.356s.358-.689.743-1.753.958-2.246 1.73-3.535l1.518-2.718.485-.946c.083-.111.178-.211.286-.3a1.74 1.74 0 0 1 .346-.221 1.78 1.78 0 0 1 .388-.134 1.61 1.61 0 0 1 .401-.033c.139.003.274.025.406.065s.259.089.379.157a1.75 1.75 0 0 1 .332.244c.098.096.184.202.258.319a1.47 1.47 0 0 1 .18.369c.043.129.071.263.083.401a1.62 1.62 0 0 1-.014.411c-.021.136-.058.266-.11.392s-.657 1.096-1.814 2.908-2.216 3.287-3.179 4.434l-1.477 1.638c-.028-.064-.083-.05-.166.042s-.182.174-.286.245a1.45 1.45 0 0 1-.332.166c-.12.043-.242.07-.365.083a1.73 1.73 0 0 1-.374-.005c-.126-.018-.247-.051-.364-.097s-.226-.106-.328-.18-.194-.158-.277-.254a1.54 1.54 0 0 1-.203-.309c-.058-.114-.101-.232-.129-.355a1.49 1.49 0 0 1-.037-.369 1.69 1.69 0 0 1 .051-.374 1.81 1.81 0 0 1 .138-.346c.062-.111.612-.866 1.652-2.266l3.337-4.476 2.335-3.392.682-1.153c.087-.09.182-.168.287-.236a1.52 1.52 0 0 1 .332-.161 1.64 1.64 0 0 1 .36-.079 1.69 1.69 0 0 1 .369.014c.123.019.241.051.355.097a1.69 1.69 0 0 1 .319.18c.101.074.192.158.272.254s.143.2.198.314a1.34 1.34 0 0 1 .12.346c.028.123.039.246.033.369a1.46 1.46 0 0 1-.056.364 1.7 1.7 0 0 1-.138.342c-.062.108-.539.654-1.431 1.638s-2.416 2.254-4.582 3.816l-5.39 3.646-3.452 2.127c-.873.548-1.893 1.018-3.059 1.412l-3.313.974-2.907.595c-.892.145-2.167.216-3.825.212l-5.099-.133c-1.741-.083-3.216-.246-4.425-.489a17.95 17.95 0 0 1-3.632-1.159 14.28 14.28 0 0 1-3.378-2.095c-1.043-.864-1.935-1.77-2.676-2.718l-1.878-2.598-1.486-2.565-1.227-2.414-1.034-1.841c-.345-.545-.538-.9-.581-1.066a2.14 2.14 0 0 1-.06-.503c0-.172.02-.342.06-.508a2.02 2.02 0 0 1 .18-.475c.08-.151.177-.291.291-.42a2.32 2.32 0 0 1 .378-.337 1.98 1.98 0 0 1 .452-.235 2.11 2.11 0 0 1 .494-.125c.169-.022.338-.022.508 0s.334.061.494.12a2.25 2.25 0 0 1 .452.235c.142.099.269.211.383.337s.206.269.286.419.235.699.466 1.643l.697 2.797.729 3.018c.255 1.092.546 1.975.872 2.648s.809 1.403 1.44 2.188l1.781 2.002c.557.554 1.8 1.063 3.728 1.528s3.626.778 5.09.932l3.816.291 3.267.083 2.967-.019a20.13 20.13 0 0 0 2.704-.281c.92-.157 1.917-.412 2.99-.766s2.225-.815 3.452-1.375 2.224-1.148 2.99-1.763c.766-.609 1.417-1.218 1.952-1.828l1.708-2.076 1.753-2.409 1.763-2.506 1.583-2.228.793-1.057c.083-.056.18-.142.291-.259a1.9 1.9 0 0 1 .379-.309 1.85 1.85 0 0 1 .438-.212 1.92 1.92 0 0 1 .475-.097c.163-.012.325-.006.485.018a1.97 1.97 0 0 1 .466.134c.151.065.291.145.42.24a1.93 1.93 0 0 1 .613.748c.071.147.124.301.157.461a2.1 2.1 0 0 1 .037.48 2.05 2.05 0 0 1-.074.48 2.13 2.13 0 0 1-.189.448l-2.362 3.848c-1.489 2.421-2.854 4.273-4.094 5.556s-2.781 2.368-4.623 3.263-3.746 1.659-5.718 2.293-4.148 1.148-6.539 1.541l-6.299.928c-1.809.218-3.584.341-5.325.369s-3.512-.12-5.311-.443-3.43-.844-4.882-1.564-2.835-1.638-4.158-2.755-2.547-2.361-3.673-3.733-2.004-2.754-2.644-4.144-1.117-2.612-1.44-3.673-.54-2.085-.651-3.078-.178-2.194-.203-3.6l.046-3.138.125-1.767c.028-.489.077-.844.148-1.066a2.11 2.11 0 0 1 .309-.609c.135-.188.298-.348.489-.48a2 2 0 0 1 .614-.3 2.03 2.03 0 0 1 .678-.088c.231.006.454.051.669.134a2.01 2.01 0 0 1 .595.341 2.06 2.06 0 0 1 .452.512c.123.197.212.408.268.632s.069.452.051.683-.079.448-.171.66a2.09 2.09 0 0 1-.374.577 2.23 2.23 0 0 1-.535.425 2.19 2.19 0 0 1-.646.231 2.21 2.21 0 0 1-.683.014 2.12 2.12 0 0 1-.655-.208c-.206-.105-.389-.238-.549-.401a2.12 2.12 0 0 1-.397-.563c-.101-.206-.166-.425-.194-.655s-.023-.455.023-.683.123-.441.24-.641.258-.377.434-.531.364-.272.577-.365.438-.141.669-.157.454.001.678.06a2.12 2.12 0 0 1 .628.277 2.13 2.13 0 0 1 .84 1.057 2.19 2.19 0 0 1 .125.674l.005.346-.369 1.647-.655 3.503-.332 3.083c-.028.821.046 1.703.222 2.644s.529 2.021 1.061 3.23 1.309 2.443 2.33 3.701a26.38 26.38 0 0 0 3.281 3.383c1.166.999 2.363 1.816 3.59 2.45s2.655 1.091 4.282 1.38 3.261.412 4.901.369 3.344-.188 5.113-.434l6.008-.974c2.243-.4 4.278-.919 6.106-1.559s3.485-1.328 4.983-2.063 2.761-1.703 3.789-2.903 2.049-2.608 3.073-4.227 1.737-2.893 2.128-3.825l.747-1.574a1.9 1.9 0 0 1 .379-.309 1.85 1.85 0 0 1 .438-.212 1.92 1.92 0 0 1 .475-.097c.163-.012.325-.006.485.018a1.97 1.97 0 0 1 .466.134c.151.065.291.145.42.24a1.93 1.93 0 0 1 .613.748c.071.147.124.301.157.461s.043.317.037.48a2.05 2.05 0 0 1-.074.48 2.13 2.13 0 0 1-.189.448.79.79 0 0 1-.378.323c-.166.071-.479.384-.937.941l-1.597 2.026-1.841 2.519-1.989 2.612a22.43 22.43 0 0 1-2.113 2.257c-.711.652-1.543 1.323-2.497 2.012s-2.09 1.386-3.401 2.081a34.86 34.86 0 0 1-3.871 1.772c-1.271.486-2.466.808-3.586.964s-2.126.213-3.018.167l-3.027-.097-3.35-.111-4.042-.162c-1.581-.055-3.238-.196-4.97-.424s-3.075-.6-4.019-1.117-1.718-1.107-2.321-1.781l-2.229-2.566c-.886-1.043-1.512-2.012-1.878-2.907s-.709-1.897-1.029-2.995l-.812-3.009-.655-2.538-.397-1.43a2.14 2.14 0 0 1-.06-.503c0-.172.02-.342.06-.508a2.02 2.02 0 0 1 .18-.475c.08-.151.177-.291.291-.42a2.32 2.32 0 0 1 .378-.337 1.98 1.98 0 0 1 .452-.235 2.11 2.11 0 0 1 .494-.125c.169-.022.338-.022.508 0s.334.061.494.12a2.25 2.25 0 0 1 .452.235c.142.099.268.211.378.337s.211.269.291.419.215.503.406 1.057l.628 1.823c.228.658.544 1.427.951 2.307l1.154 2.414c.366.735.826 1.509 1.38 2.321s1.238 1.567 2.044 2.275a10.68 10.68 0 0 0 2.736 1.73c1.021.449 2.041.799 3.06 1.048s2.366.375 4.052.387l4.873-.097 3.544-.17c.8-.031 1.683-.128 2.649-.291a28.67 28.67 0 0 0 2.944-.665c1-.283 1.946-.642 2.838-1.079s2.023-1.079 3.392-1.925l5.043-3.396c1.994-1.421 3.358-2.653 4.094-3.696l1.222-1.698c.087-.09.182-.168.287-.236a1.4 1.4 0 0 1 .332-.161 1.64 1.64 0 0 1 .36-.079 1.69 1.69 0 0 1 .369.014c.123.019.241.051.355.097a1.69 1.69 0 0 1 .319.18c.101.074.192.158.272.254a1.66 1.66 0 0 1 .198.309 1.43 1.43 0 0 1 .12.351c.028.123.039.246.033.369a1.46 1.46 0 0 1-.056.364 1.7 1.7 0 0 1-.138.342c-.062.108-.335.46-.822 1.057l-2.436 3.258-3.138 4.591-1.555 2.372c-.086.092-.182.174-.286.245a1.45 1.45 0 0 1-.332.166c-.12.043-.242.07-.365.083a1.73 1.73 0 0 1-.374-.005c-.126-.018-.247-.051-.364-.097s-.226-.106-.328-.18-.194-.158-.277-.254a1.54 1.54 0 0 1-.203-.309c-.058-.114-.101-.232-.129-.355a1.49 1.49 0 0 1-.037-.369 1.69 1.69 0 0 1 .051-.374 1.81 1.81 0 0 1 .138-.346c.062-.111.305-.195.729-.254s.912-.564 1.463-1.518l2.363-4.199 1.652-2.926c.083-.111.178-.211.286-.3a1.74 1.74 0 0 1 .346-.221 1.78 1.78 0 0 1 .388-.134 1.61 1.61 0 0 1 .401-.033c.139.003.274.025.406.065s.259.089.379.157a1.75 1.75 0 0 1 .332.244c.098.096.184.2.258.314s.137.242.18.374.071.263.083.401a1.62 1.62 0 0 1-.014.411c-.021.136-.058.266-.11.392s-.256.42-.609.882-.845 1.272-1.472 2.441-1.268 2.601-1.911 4.296-1.035 2.586-1.167 2.663-.273.132-.42.175-.297.068-.448.074a1.84 1.84 0 0 1-.452-.037 1.92 1.92 0 0 1-.434-.143 1.73 1.73 0 0 1-.383-.245 1.76 1.76 0 0 1-.318-.327c-.09-.123-.165-.254-.227-.393a2.01 2.01 0 0 1-.124-.438c-.025-.151-.031-.303-.019-.457a1.89 1.89 0 0 1 .093-.443 1.69 1.69 0 0 1 .194-.41 1.84 1.84 0 0 1 .286-.356c.11-.104.552-.338 1.324-.701s1.567-.929 2.386-1.698 1.495-1.595 2.03-2.478c.529-.88.894-1.898 1.094-3.055s.564-2.189 1.084-3.106.503-1.061-.041-.443a21.69 21.69 0 0 0-1.514 1.915l-1.472 2.354-1.707 2.824a33.68 33.68 0 0 1-2.188 3.041c-.849 1.055-1.781 1.955-2.796 2.699s-2.203 1.434-3.562 2.068-2.846 1.209-4.467 1.726a40.5 40.5 0 0 1-4.97 1.232c-1.692.307-3.392.52-5.099.636l-5.039.097c-1.652-.052-2.95-.22-3.895-.503s-1.786-.63-2.524-1.052a11.68 11.68 0 0 1-2.04-1.472 20.91 20.91 0 0 1-1.772-1.804c-.557-.643-1.081-1.334-1.573-2.072l-1.347-2.063-1.126-1.91-1.07-2.026-1.094-2.243-1.2-2.602-1.463-3.124-1.661-3.517a25.01 25.01 0 0 1-1.375-3.742l-.554-2.178c-.018-.181-.014-.363.014-.544s.072-.357.143-.526.155-.328.263-.475a2.3 2.3 0 0 1 .374-.401c.138-.117.289-.215.452-.295s.338-.143.517-.18a2.28 2.28 0 0 1 .54-.055 2.43 2.43 0 0 1 .54.079 2.31 2.31 0 0 1 .503.208 2.38 2.38 0 0 1 .443.318 2.51 2.51 0 0 1 .351.415c.098.154.178.317.24.489s.098.303.111.392.062.555.139 1.407a17.87 17.87 0 0 1 .065 2.317l-.042 2.45.129 3.138.314 3.263.563 3.221a22.08 22.08 0 0 0 1.029 3.322c.44 1.098 1.092 2.204 1.957 3.318s1.614 1.85 2.247 2.21 1.421.662 2.363.905a13.27 13.27 0 0 0 3.055.397l3-.019 3.018-.06 3.387-.023 2.93-.032 2.349-.037 2.243-.023 2.21-.028 2.137-.037 2.686-.064c1.107-.034 2.221-.142 3.341-.323l3.078-.605c.932-.224 1.727-.584 2.385-1.08s1.246-1.041 1.763-1.647l.988-1.112c.141-.132.298-.246.47-.342s.35-.169.54-.221a2.27 2.27 0 0 1 .572-.083c.194-.006.387.012.577.055s.374.103.549.189.337.196.485.319.283.269.397.429.212.326.286.508.125.367.152.558.033.388.014.581-.06.383-.125.568a2.3 2.3 0 0 1-.258.521l-.161.245z" fill-opacity=".1"/><path d="M65.525 92.658l-.115 3.562-.106 5.666c.006 1.403.085 2.638.235 3.706s.363 2.007.637 2.81a12.8 12.8 0 0 0 1.024 2.275l1.274 1.966c.44.603 1.114 1.295 2.021 2.076s1.678 1.348 2.312 1.708 1.43.714 2.39 1.061 1.857.6 2.681.757l2.386.328 2.427.184 2.603.143 2.612.065 2.603.028a18.96 18.96 0 0 0 2.303-.107l2.317-.276 2.806-.42c.984-.173 1.884-.388 2.7-.646s1.776-.699 2.884-1.311l2.768-1.56 2.04-1.218 1.915-1.218 2.054-1.408 1.979-1.43c.609-.443 1.142-.92 1.597-1.431l.766-.798c.058-.018.169-.091.332-.217s.343-.229.531-.309a2.67 2.67 0 0 1 .591-.18c.203-.034.407-.043.613-.028s.408.054.605.116a2.57 2.57 0 0 1 .558.258c.175.111.335.24.48.388s.269.31.374.489a2.53 2.53 0 0 1 .244.563c.059.197.094.398.107.604s-.007.414-.047.614a2.62 2.62 0 0 1-.189.586c-.086.188-.194.363-.323.526s-.491.699-1.084 1.615-1.395 1.748-2.404 2.492-2.154 1.443-3.443 2.095-2.73 1.225-4.333 1.726l-4.896 1.26c-1.658.341-3.263.577-4.813.706l-4.716.254-4.508.064c-1.415.006-2.678-.001-3.788-.023s-2.332-.201-3.655-.54-2.564-.747-3.733-1.218-2.223-.958-3.161-1.472-1.921-1.2-2.939-2.058l-2.635-2.27c-.735-.662-1.549-1.529-2.441-2.603l-2.335-3.115-1.68-2.732-1.177-2.067c-.335-.56-.532-.935-.591-1.126a1.77 1.77 0 0 1-.074-.595c.006-.2.045-.396.115-.586s.169-.36.295-.517a1.78 1.78 0 0 1 .448-.397 1.86 1.86 0 0 1 .544-.235 1.85 1.85 0 0 1 .595-.042c.2.015.392.063.577.143s.355.192.503.328.275.291.374.466.166.363.203.563a1.84 1.84 0 0 1 .014.595c-.031.2-.091.391-.18.572a2.01 2.01 0 0 1-.351.485 1.89 1.89 0 0 1-.489.346c-.181.086-.372.143-.572.171a1.95 1.95 0 0 1-.595-.019c-.194-.04-.378-.111-.554-.212s-.331-.223-.466-.374-.238-.32-.318-.507a1.8 1.8 0 0 1-.143-.582c-.012-.2.006-.398.055-.595a1.86 1.86 0 0 1 .235-.545c.111-.169.245-.317.402-.443a1.85 1.85 0 0 1 .521-.291c.188-.068.383-.105.586-.111a1.93 1.93 0 0 1 .591.083 1.9 1.9 0 0 1 .535.268c.163.12.303.261.42.425l.175.249.355.909.826 2.045c.314.756.746 1.581 1.297 2.473s1.269 1.82 2.164 2.783l2.256 2.431c.606.662 1.371 1.36 2.294 2.095l2.538 1.879c.766.513 1.666.989 2.7 1.426s2.118.796 3.253 1.079 2.223.462 3.263.545 2.258.098 3.645.046l4.37-.226 4.384-.438c1.4-.194 2.852-.5 4.356-.919s2.909-.895 4.214-1.43 2.471-1.163 3.493-1.883 2.053-1.587 3.096-2.593 1.737-1.803 2.081-2.4.594-.954.757-1.08.34-.229.531-.309a2.67 2.67 0 0 1 .591-.18c.203-.034.407-.043.613-.028s.408.054.605.116a2.57 2.57 0 0 1 .558.258c.175.111.335.24.48.388s.269.31.374.489a2.53 2.53 0 0 1 .244.563c.059.197.094.398.107.604s-.007.411-.047.614a2.62 2.62 0 0 1-.189.586c-.086.188-.194.363-.323.526s-.264.263-.406.309-.535.346-1.19.909-1.279 1.043-1.879 1.449l-2.058 1.472-2.233 1.565-2.049 1.241-2.067 1.177-2.262 1.278c-.772.431-1.493.768-2.164 1.011l-2.455.826-3.064.84-3.055.586-2.63.281-2.533.065-2.663-.023-2.746-.051-2.741-.125-2.663-.23c-.898-.087-2.167-.342-3.807-.766s-2.776-.803-3.419-1.145l-2.118-1.246a17.66 17.66 0 0 1-2.173-1.638c-.683-.597-1.235-1.192-1.657-1.786l-1.292-2.003-1.338-2.542c-.449-.948-.795-1.914-1.038-2.898s-.449-2.058-.609-3.23l-.425-3.941-.3-5.745-.083-3.807a2.19 2.19 0 0 1 .12-.484c.059-.157.135-.305.231-.443s.206-.263.332-.374a1.95 1.95 0 0 1 .406-.282c.151-.077.306-.135.466-.175a2.07 2.07 0 0 1 .987 0c.16.04.315.099.466.175s.283.171.406.282a2.02 2.02 0 0 1 .563.817c.058.157.099.318.12.484l.032.245z" fill-opacity=".1"/></g><path d="M91.817 1.985l6.36-.029 14.347-.137 16.376-.196 16.885-.206 17.032-.206 17.081-.206c5.704-.065 9.947.506 12.73 1.715 2.777 1.222 4.541 4.175 5.292 8.859.751 4.691 1.192 9.747 1.323 15.17l.216 16.552-.01 16.895-.069 16.993-.029 17.013.088 17.022.137 17.022.147 17.023.137 17.022.138 17.052c.045 5.69-.543 9.92-1.764 12.69-1.216 2.777-4.182 4.551-8.899 5.322-4.71.771-9.79 1.235-15.238 1.391l-16.621.294-16.973.069-17.072.01-17.1.059-17.101.166-17.101.226-17.11.225-17.101.225-17.12.226c-5.716.072-9.97-.5-12.759-1.715-2.783-1.215-4.547-4.172-5.292-8.869-.738-4.697-1.166-9.757-1.284-15.18l-.186-16.572.049-16.914.098-17.003.059-17.042-.049-17.042-.108-17.042-.118-17.042L1.1 38.783l-.098-17.061c-.039-5.697.549-9.934 1.764-12.71 1.222-2.77 4.188-4.541 8.898-5.312 4.704-.771 9.774-1.232 15.209-1.382l16.601-.265 16.944-.049 17.032.01 17.071-.039 17.061-.147 19.992-.225 11.662-.088c.137.026.264.069.382.127.124.065.235.147.333.245.092.098.167.206.226.323.058.124.094.255.107.392a1.1 1.1 0 0 1-.019.412 1.13 1.13 0 0 1-.147.372c-.072.118-.16.222-.265.314-.098.085-.212.154-.343.206a1.14 1.14 0 0 1-.392.088c-.137.013-.271 0-.402-.039-.137-.033-.261-.088-.372-.167a1.47 1.47 0 0 1-.294-.274c-.085-.111-.15-.232-.196-.363a1.2 1.2 0 0 1 0-.804c.039-.118.101-.232.186-.343a1.35 1.35 0 0 1 .294-.284c.111-.078.232-.134.363-.167a1.23 1.23 0 0 1 .402-.049c.137.007.271.036.401.088.125.046.239.114.343.206.111.085.2.186.265.304a1.19 1.19 0 0 1 .157.372 1.04 1.04 0 0 1 .019.402c-.013.137-.045.268-.098.392a1.17 1.17 0 0 1-.235.333 1.27 1.27 0 0 1-.313.245c-.125.065-.252.111-.383.137l-.205.029h-11.456c-7.638.007-14.302.003-19.992-.01a2478.11 2478.11 0 0 0-17.071.039L77.47 4.19l-17.032.225-16.905.284-16.395.49c-5.331.222-10.13.588-14.396 1.098-4.273.51-6.772 1.8-7.497 3.871s-1.107 5.939-1.147 11.603l-.118 17.022-.127 17.042-.118 17.042-.118 17.042-.069 17.042.059 17.032.127 17.003.186 16.875.402 16.376c.189 5.318.529 10.107 1.019 14.367.49 4.266 1.771 6.755 3.842 7.467s5.948 1.068 11.632 1.068h17.081 17.111l17.101.01 17.101.01 17.111-.059 17.091-.167 17.061-.245 16.934-.303 16.435-.51c5.337-.222 10.146-.591 14.425-1.107 4.273-.517 6.772-1.81 7.497-3.881.725-2.065 1.101-5.926 1.127-11.584l.088-17.002.088-17.023.089-17.032.088-17.022.029-17.022-.088-17.013-.157-16.983-.225-16.856-.431-16.346c-.196-5.312-.543-10.097-1.039-14.357s-1.78-6.746-3.852-7.458c-2.064-.719-5.935-1.078-11.612-1.078l-17.042-.029-17.023-.02-16.895-.029-16.375-.029c-5.325-.013-10.104-.007-14.337.02l-6.488.02a1.49 1.49 0 0 1-.245-.059 1.14 1.14 0 0 1-.216-.118.76.76 0 0 1-.186-.167c-.059-.059-.108-.124-.147-.196a1.15 1.15 0 0 1-.088-.235c-.02-.078-.029-.16-.029-.245s.01-.167.029-.245a.92.92 0 0 1 .088-.235c.039-.072.085-.14.137-.206a.76.76 0 0 1 .186-.167c.065-.039.137-.075.216-.108a1.49 1.49 0 0 1 .245-.059l.118-.02z" fill="#1d1d1d" stroke="#1d1d1d" stroke-width="1.725"/></svg>