<svg xmlns="http://www.w3.org/2000/svg" width="201" height="202" fill="none" xmlns:v="https://vecta.io/nano"><rect x="1" y="1" width="200" height="200" rx="16" fill="#fff"/><g fill="#000"><path d="M80.661 71.338l-.028 1.754-.042 4.736-.028 6.65c-.009 2.441.194 4.843.611 7.205s1.023 4.512 1.819 6.435 1.835 3.869 3.117 5.838l4.326 6.123c1.606 2.118 3.161 3.877 4.666 5.277s2.761 2.386 3.77 2.954 2.208.853 3.596.867c1.394.014 3-.33 4.819-1.033s3.645-1.627 5.478-2.76a31.76 31.76 0 0 0 5.158-3.98l4.895-4.708 4.173-4.237c1.12-1.212 2.12-2.483 2.999-3.814s1.771-2.859 2.673-4.584 1.644-3.629 2.222-5.7.998-4.07 1.243-5.998l.534-4.764.153-2.836c-.009-.643-.134-1.641-.375-2.996l-.333-2.247c.019-.143.058-.28.118-.409s.141-.247.243-.354.215-.187.34-.257.266-.109.41-.132a1.18 1.18 0 0 1 .423.007 1.3 1.3 0 0 1 .41.139c.125.069.236.157.333.264.102.102.181.22.236.354a1.21 1.21 0 0 1 .111.409c.014.143.005.287-.027.43a1.41 1.41 0 0 1-.16.395 1.3 1.3 0 0 1-.278.319c-.111.093-.233.166-.368.222a1.28 1.28 0 0 1-.416.083c-.148.009-.292-.007-.431-.048a1.38 1.38 0 0 1-.382-.18 1.37 1.37 0 0 1-.312-.298 1.41 1.41 0 0 1-.194-.381 1.15 1.15 0 0 1-.063-.423 1.25 1.25 0 0 1 .07-.416 1.21 1.21 0 0 1 .201-.374c.092-.115.199-.213.319-.291s.25-.143.389-.18a1.31 1.31 0 0 1 .424-.042 1.3 1.3 0 0 1 .416.097c.134.055.255.129.361.222s.204.208.278.333a1.18 1.18 0 0 1 .153.395l.048.208.028 1.297.097 2.163c.042.578.012 1.19-.09 1.838l-.319 2.885-.563 4.937c-.264 2.011-.71 4.11-1.34 6.296s-1.405 4.17-2.34 5.95l-2.811 4.792a30.88 30.88 0 0 1-3.118 3.96l-4.221 4.285-5.048 4.826c-1.703 1.595-3.524 2.987-5.464 4.175-1.935 1.188-3.92 2.154-5.957 2.898s-3.886 1.077-5.547.999-3.071-.453-4.228-1.11-2.52-1.724-4.103-3.203-3.187-3.289-4.825-5.444l-4.457-6.324c-1.338-2.066-2.43-4.126-3.277-6.178s-1.481-4.318-1.916-6.796-.657-4.937-.666-7.378l-.028-6.65-.042-4.736-.007-1.879a1.09 1.09 0 0 1 .056-.25 1.15 1.15 0 0 1 .125-.236c.051-.069.109-.134.174-.194s.134-.104.208-.146.16-.072.243-.09a1.01 1.01 0 0 1 .257-.035 1.01 1.01 0 0 1 .257.035c.083.019.164.049.243.09a1.29 1.29 0 0 1 .208.146 1.38 1.38 0 0 1 .174.194c.051.074.093.153.125.236a1.09 1.09 0 0 1 .056.25l.021.125z"/><path d="M67.536 112.342l.715-1.429 1.479-2.829 1.43-2.656 1.25-2.288a18.54 18.54 0 0 1 1.319-1.99l1.722-2.073 1.868-2.233 1.673-2.101 1.43-1.914 1.083-1.595.569-.784a1.48 1.48 0 0 1 .243-.208c.093-.06.187-.109.285-.146a1.23 1.23 0 0 1 .319-.069 1.23 1.23 0 0 1 .319 0c.106.014.211.042.312.083a1.13 1.13 0 0 1 .285.152c.088.06.167.132.236.215s.13.173.18.27.083.196.111.298a1.49 1.49 0 0 1 .035.319 1.77 1.77 0 0 1-.042.319c-.028.106-.069.208-.125.305s-.549.349-1.493.77-1.794.934-2.562 1.553-1.416 1.214-1.944 1.782l-1.291 1.539c-.333.458-.731 1.32-1.194 2.587s-.949 2.346-1.444 3.252l-1.541 2.621-1.284 2.254c-.329.652-.581 1.223-.757 1.713l-.59 1.678-.549 1.865c-.153.615.009.721.486.319l1.298-1.11 1.229-1.012 2.159-1.838 2.34-2.01 1.722-1.29c.597-.407 1.148-.892 1.652-1.456s1.143-1.165 1.916-1.803 1.384-1.228 1.819-1.769.875-1.181 1.319-1.92.859-1.343 1.257-1.81.308-.908-.271-1.338-1.173-.652-1.784-.666-1.338-.09-2.194-.229-1.652-.559-2.402-1.262-1.277-1.318-1.583-1.845-.572-1.091-.798-1.692l-.701-1.824-.785-2.323-.868-2.774c-.296-.915-.532-1.798-.708-2.649l-.493-2.427c-.153-.763-.213-1.636-.18-2.621s.259-1.93.666-2.836l1.215-2.517.944-1.831c.227-.448.581-1.068 1.062-1.858a7.79 7.79 0 0 1 1.791-2.032l2.132-1.56c.717-.476 1.386-.832 2.007-1.068s1.592-.527 2.902-.874l3.659-1.033 2.819-.791 2.09-.451c.648-.102 1.421-.16 2.319-.173s1.787.092 2.666.319l2.312.562c.667.148 1.35.381 2.049.7s1.328.666 1.888 1.04c.555.379 1.197.943 1.923 1.692l2.333 2.649 1.909 2.212 1.236 1.338c.38.434.692.915.938 1.442.24.527.435 1.214.583 2.06l.493 2.365.465 1.865a20.16 20.16 0 0 1 .354 1.949c.116.795.178 1.505.187 2.129s-.064 1.347-.236 2.17c-.166.823-.405 1.664-.715 2.524a12.55 12.55 0 0 1-1.18 2.448c-.486.772-1.092 1.472-1.819 2.101l-1.972 1.824a7.5 7.5 0 0 1-1.972 1.442 24.19 24.19 0 0 1-2.277 1.012 13.39 13.39 0 0 0-2.374 1.213c-.792.499-1.468.795-2.028.888l-2.034.368a17.58 17.58 0 0 1-2.597.27l-2.215.049-1.999.021c-.791.014-1.296.002-1.514-.035s-.431-.102-.625-.208-.375-.233-.528-.395a2 2 0 0 1-.368-.548c-.097-.199-.157-.409-.18-.631s-.012-.441.035-.659.127-.421.243-.61a2.22 2.22 0 0 1 .424-.506c.171-.143.359-.257.562-.34s.424-.13.646-.139.442.009.66.069.412.146.597.27.345.275.479.451.238.374.313.582a2.09 2.09 0 0 1 0 1.304c-.069.208-.171.402-.305.582a2.02 2.02 0 0 1-.479.451c-.185.125-.384.217-.597.277a2.13 2.13 0 0 1-.66.076c-.222-.014-.435-.06-.639-.139a2.09 2.09 0 0 1-.569-.34 1.97 1.97 0 0 1-.431-.506c-.111-.19-.192-.393-.243-.61s-.058-.437-.035-.659.081-.428.174-.631a2 2 0 0 1 .368-.548c.153-.162.329-.294.528-.395s.403-.178.625-.215l.326-.055 1.173.014 1.986.007 1.611-.028 1.645-.049h1.951c.75.018 1.516-.208 2.298-.68s1.75-.966 2.888-1.498 2.035-1.07 2.687-1.63l1.68-1.491a7.19 7.19 0 0 0 1.202-1.449l1.055-1.761c.366-.638.609-1.248.729-1.831s.192-1.334.201-2.254l-.062-2.51c-.056-.758-.197-1.542-.424-2.351s-.419-1.701-.576-2.663c-.162-.966-.382-1.657-.66-2.073s-.62-.869-1.027-1.373l-1.847-2.08c-.829-.883-1.599-1.618-2.312-2.205l-1.652-1.352c-.389-.314-.82-.606-1.292-.874s-1.064-.485-1.763-.666l-1.931-.555c-.583-.194-1.273-.266-2.069-.215l-2.007.125c-.546.042-1.146.134-1.798.277s-1.544.444-2.659.901l-3.444 1.394-2.965 1.075c-.796.25-1.541.638-2.236 1.165s-1.19 1.033-1.486 1.505a20.75 20.75 0 0 1-1.111 1.595c-.449.592-.835 1.269-1.159 2.032l-.847 2.066c-.25.615-.412 1.278-.486 1.99s-.1 1.394-.062 2.046.127 1.294.271 1.942.433 1.403.882 2.267l1.298 2.503 1.16 2.219 1.034 2.039c.333.675.711 1.149 1.132 1.422s.882.444 1.395.499 1.125.215 1.847.479 1.326.559 1.798.888.947.765 1.423 1.311a7.52 7.52 0 0 1 1.132 1.685c.278.582.389 1.253.333 2.011s-.319 1.398-.791 1.921-.933 1.13-1.395 1.824-.956 1.347-1.479 1.962a16.41 16.41 0 0 1-1.798 1.796l-1.882 1.664-1.583 1.45c-.477.434-.958.809-1.444 1.123s-1.03.751-1.632 1.297l-1.666 1.4c-.505.384-1.171.983-1.999 1.796l-1.972 1.831c-.481.407-1.023.816-1.625 1.227-.606.416-1.359.671-2.256.763s-1.597.002-2.097-.27-.865-.673-1.097-1.2-.292-1.072-.194-1.636a16.1 16.1 0 0 1 .451-1.866l.722-2.052.819-1.789.986-1.748 1.25-2.205 1.291-2.635L73 99.86l.896-2.108c.268-.712.625-1.313 1.069-1.803l1.562-1.65 2.145-2.059c.838-.758 1.595-1.225 2.27-1.401s1.058-.305 1.132-.388a1.48 1.48 0 0 1 .243-.208c.093-.06.187-.109.285-.146a1.23 1.23 0 0 1 .319-.069 1.23 1.23 0 0 1 .319 0c.106.014.211.042.312.083a1.13 1.13 0 0 1 .285.152c.088.06.167.132.236.215s.13.173.18.27.083.196.111.298a1.49 1.49 0 0 1 .035.319 1.77 1.77 0 0 1-.042.319c-.028.106-.069.208-.125.305s-.264.335-.639.728-.808.922-1.298 1.574l-1.541 1.865a23.53 23.53 0 0 0-1.666 2.087l-1.784 2.364-1.618 1.942a16.56 16.56 0 0 0-1.312 1.699c-.412.614-.831 1.345-1.257 2.191l-1.319 2.656-1.305 2.857-.701 1.595c-.056.087-.12.166-.194.235a1.11 1.11 0 0 1-.25.188c-.088.055-.18.097-.278.124a1.17 1.17 0 0 1-.306.056 1.47 1.47 0 0 1-.305-.021c-.102-.018-.199-.051-.292-.097s-.18-.095-.264-.16a1.37 1.37 0 0 1-.215-.221c-.065-.084-.118-.172-.16-.264a1.14 1.14 0 0 1-.083-.298c-.019-.102-.026-.201-.021-.298.009-.107.03-.208.063-.305l.049-.146z"/><path d="M85.521 91.583l-.562-.666c-.375-.439-.741-.931-1.097-1.477l-1.368-2.046-1.368-1.969c-.356-.495-.623-1.158-.798-1.99s-.306-1.664-.389-2.483l-.16-2.413-.056-2.351c-.009-.781.104-1.606.34-2.476s.585-1.558 1.035-2.066l1.409-1.47 1.375-1.331 1.653-1.56c.676-.624 1.245-1.063 1.708-1.318.472-.25.96-.435 1.465-.555s1.039-.312 1.59-.589 1.266-.444 2.145-.513l2.18-.139 1.764-.042c.597-.009 1.141.032 1.632.125l1.659.368 2.055.569 2.16.707c.689.254 1.265.557 1.728.908s.968.804 1.514 1.359.939 1.063 1.18 1.526a21.73 21.73 0 0 0 .958 1.65c.398.643.641 1.223.729 1.74a12.46 12.46 0 0 1 .16 1.713c.019.629.155 1.387.41 2.288s.344 1.791.27 2.656a14.95 14.95 0 0 1-.333 2.191 8.34 8.34 0 0 1-.618 1.727 7.05 7.05 0 0 1-.972 1.484c-.379.439-.872.922-1.479 1.449s-1.143.922-1.61 1.186a15.17 15.17 0 0 0-1.653 1.109c-.634.48-1.451.881-2.451 1.2-1.004.31-1.728.58-2.173.811a9.59 9.59 0 0 1-1.576.638c-.611.19-1.136.386-1.59.589s-.965.358-1.534.478l-1.937.312-1.847.166c-.509.019-1.615-.159-3.319-.534s-2.618-.666-2.756-.874a2.21 2.21 0 0 1-.299-.686 2.19 2.19 0 0 1-.07-.735c.018-.25.076-.49.174-.721a2.17 2.17 0 0 1 .396-.631 2.22 2.22 0 0 1 .583-.472c.222-.125.449-.217.694-.263a2.38 2.38 0 0 1 .743-.028c.245.032.488.104.715.215a2.15 2.15 0 0 1 .611.43c.176.176.322.374.437.596a2.15 2.15 0 0 1 .222.714c.032.249.032.49-.014.735a2.15 2.15 0 0 1-.25.707c-.12.217-.275.411-.465.583s-.393.307-.625.409-.472.164-.722.187a2.48 2.48 0 0 1-.736-.055c-.245-.06-.474-.157-.687-.291s-.4-.298-.562-.492-.282-.409-.375-.645a2.22 2.22 0 0 1-.146-.735c-.009-.245.023-.488.097-.728a2.41 2.41 0 0 1 .326-.673c.143-.204.317-.386.521-.534a2.25 2.25 0 0 1 .667-.333c.241-.079.486-.116.736-.111a2.26 2.26 0 0 1 .736.139 2.29 2.29 0 0 1 .653.361l.292.236.298-.18c.194-.12.6-.18 1.215-.18l1.729-.014c.541-.009 1.145-.065 1.812-.166a11.58 11.58 0 0 0 2.041-.513 11.37 11.37 0 0 0 2.027-.929c.657-.384 1.451-.7 2.381-.95s1.604-.601 2.007-1.068a8.03 8.03 0 0 1 1.361-1.241l1.423-1.082c.449-.361.775-.927.979-1.699s.303-1.449.312-2.018-.129-1.274-.402-2.129-.415-1.586-.424-2.205-.255-1.239-.736-1.858a8.49 8.49 0 0 0-1.638-1.623c-.611-.458-1.169-.823-1.674-1.096s-1.057-.485-1.659-.638l-1.673-.388a8.3 8.3 0 0 0-1.632-.166l-1.666-.014a36.66 36.66 0 0 1-1.784-.048c-.652-.032-1.229.095-1.715.381a6.93 6.93 0 0 1-1.576.666 3.73 3.73 0 0 0-1.507.846l-1.257 1.227-1.215 1.338-1.118 1.304c-.324.407-.491.994-.5 1.761l-.014 2.261.028 2.052.076 1.921c.023.652.22 1.276.59 1.872a15.75 15.75 0 0 0 1.139 1.63c.389.49.71.948.965 1.373a10.73 10.73 0 0 0 .93 1.304l.674.86c.079.12.141.25.187.388s.083.282.097.43a1.69 1.69 0 0 1-.014.43 1.86 1.86 0 0 1-.118.416 1.58 1.58 0 0 1-.215.381c-.088.115-.187.227-.299.319a2.07 2.07 0 0 1-.368.236 1.96 1.96 0 0 1-.416.146 1.66 1.66 0 0 1-.424.042 1.76 1.76 0 0 1-.437-.069 1.69 1.69 0 0 1-.403-.166 2.38 2.38 0 0 1-.354-.257l-.16-.153zm9.156-13.66l-.66.021c-.444.019-.613.305-.507.86s.442.978 1.007 1.255a3.39 3.39 0 0 0 1.77.354c.62-.046 1.007-.337 1.159-.874s-.028-1.015-.555-1.435-.743-.437-.646-.049.116.673.069.867-.116.379-.208.555a2.5 2.5 0 0 1-.333.485c-.129.148-.282.277-.444.388a2.25 2.25 0 0 1-.521.277 2.61 2.61 0 0 1-.569.146 2.52 2.52 0 0 1-.59 0 2.7 2.7 0 0 1-.576-.146 2.42 2.42 0 0 1-.521-.27c-.167-.116-.315-.247-.444-.395a2.35 2.35 0 0 1-.548-1.033 2.53 2.53 0 0 1-.069-.589c0-.199.171-.742.514-1.63l.687-1.65a2.21 2.21 0 0 1 .431-.582 2.32 2.32 0 0 1 .597-.409 2.18 2.18 0 0 1 .701-.201 2.22 2.22 0 0 1 .722.035c.241.051.465.139.673.264a2.36 2.36 0 0 1 .562.465 2.27 2.27 0 0 1 .375.617 2.25 2.25 0 0 1 .16.714 2.08 2.08 0 0 1-.069.714 2.29 2.29 0 0 1-.298.659 2.38 2.38 0 0 1-.5.534 2.23 2.23 0 0 1-.639.34 2.1 2.1 0 0 1-.715.125c-.241 0-.479-.037-.715-.111a2.33 2.33 0 0 1-.639-.333 2.19 2.19 0 0 1-.507-.527 2.33 2.33 0 0 1-.312-.659 2.34 2.34 0 0 1-.083-.714 2.3 2.3 0 0 1 .153-.707 2.24 2.24 0 0 1 .368-.624c.157-.19.343-.349.555-.478a2.31 2.31 0 0 1 .674-.27 2.07 2.07 0 0 1 .715-.042 2.16 2.16 0 0 1 .701.187c.227.102.428.236.604.402s.329.358.444.576a2.28 2.28 0 0 1 .236.686 2.22 2.22 0 0 1 .007.721l-.055.361-.222.915-.299 1.207a2.38 2.38 0 0 1-.208.555 2.5 2.5 0 0 1-.333.485c-.129.148-.282.277-.444.388a2.25 2.25 0 0 1-.521.277 2.61 2.61 0 0 1-.569.146 2.52 2.52 0 0 1-.59 0 2.7 2.7 0 0 1-.576-.146 2.42 2.42 0 0 1-.521-.27c-.167-.116-.315-.247-.444-.395a2.35 2.35 0 0 1-.548-1.033 2.53 2.53 0 0 1-.069-.589l.021-.61c.019-.208.074-.573.167-1.096.088-.513.326-1.045.715-1.595a6.52 6.52 0 0 1 1.347-1.408c.505-.389 1.252-.62 2.243-.707s1.803.092 2.423.527 1.287.855 1.999 1.248 1.236 1.068 1.583 2.025c.343.966.505 1.754.486 2.365-.013.61-.106 1.306-.277 2.087a5.31 5.31 0 0 1-.958 2.073c-.463.606-.996 1.042-1.597 1.311s-1.171.4-1.694.409-1.062.005-1.632-.014-1.185-.113-1.861-.284a16.83 16.83 0 0 1-2.118-.714c-.736-.3-1.317-.682-1.743-1.144s-.715-.936-.868-1.421-.194-1.107-.111-1.865l.271-1.893c.102-.513.356-1.077.764-1.692a3.36 3.36 0 0 1 1.645-1.324c.694-.263 1.266-.393 1.715-.375l.882.049a1.54 1.54 0 0 1 .43.104c.139.051.269.118.389.201a1.77 1.77 0 0 1 .326.291 1.93 1.93 0 0 1 .25.361c.069.134.123.273.16.416s.049.287.049.43a1.91 1.91 0 0 1-.049.43 1.76 1.76 0 0 1-.16.416 1.93 1.93 0 0 1-.25.361 1.77 1.77 0 0 1-.326.291 1.72 1.72 0 0 1-.389.201 1.56 1.56 0 0 1-.43.104l-.215.028zm26.628.758l.549-.569c.365-.379.918-.777 1.659-1.193s1.518-.608 2.319-.576 1.518.478 2.166 1.325 1.016 1.516 1.104 2.011a11.26 11.26 0 0 1 .16 1.623c.023.596-.153 1.472-.528 2.628s-.87 1.916-1.472 2.268-1.328.529-2.18.548-1.56-.028-2.111-.139-1.127-.37-1.742-.791-1.088-.915-1.417-1.498a6.79 6.79 0 0 1-.708-1.997c-.148-.744-.187-1.412-.118-2.004s.947-1.049 2.618-1.387 2.576-.418 2.714-.229a2.11 2.11 0 0 1 .313.617 2.16 2.16 0 0 1 .097.68 2.17 2.17 0 0 1-.125.686 2.22 2.22 0 0 1-.333.603 2.14 2.14 0 0 1-.514.465c-.194.125-.405.222-.632.277s-.456.081-.687.063-.456-.067-.674-.159-.414-.21-.59-.368a2.03 2.03 0 0 1-.437-.534c-.116-.203-.197-.421-.243-.652a2.14 2.14 0 0 1-.028-.686 2.19 2.19 0 0 1 .201-.659 2.13 2.13 0 0 1 .396-.569 2.23 2.23 0 0 1 .562-.409 2.08 2.08 0 0 1 .66-.208c.227-.032.456-.028.687.014a2.15 2.15 0 0 1 .653.229 2.34 2.34 0 0 1 .549.43c.157.176.282.37.374.583a2.2 2.2 0 0 1 .174.673 2.03 2.03 0 0 1-.049.687 2.14 2.14 0 0 1-.27.638 2.13 2.13 0 0 1-.459.52 1.98 1.98 0 0 1-.604.34 2.12 2.12 0 0 1-.68.139 2.04 2.04 0 0 1-.68-.09 2.22 2.22 0 0 1-.625-.298l-.285-.201 1.208-.714c.796-.481 1.155-.34 1.076.423s.185 1.137.806 1.137.916-.365.888-1.096-.229-.92-.604-.555l-.743.68a1.96 1.96 0 0 1-.368.222c-.134.06-.273.104-.416.132s-.292.037-.431.028a1.93 1.93 0 0 1-.43-.076c-.139-.041-.271-.106-.396-.18a1.86 1.86 0 0 1-.347-.27 1.84 1.84 0 0 1-.271-.347 2.02 2.02 0 0 1-.18-.395 1.93 1.93 0 0 1-.077-.43c-.009-.139 0-.282.028-.43a1.91 1.91 0 0 1 .132-.416 1.98 1.98 0 0 1 .222-.368l.139-.173z"/><path d="M119.207 77.023l.847-1.075a15.95 15.95 0 0 1 1.743-1.907c.602-.555 1.127-.985 1.59-1.276s.958-.522 1.472-.68 1.485-.291 2.916-.402l2.45-.118c.2.028.389.088.57.18a1.82 1.82 0 0 1 .479.354 1.87 1.87 0 0 1 .34.485 1.82 1.82 0 0 1 .167.576 1.73 1.73 0 0 1-.021.596c-.042.199-.114.384-.215.555a1.91 1.91 0 0 1-.382.465 1.82 1.82 0 0 1-.507.312 1.78 1.78 0 0 1-.576.139 1.73 1.73 0 0 1-.597-.062 1.79 1.79 0 0 1-.542-.243c-.171-.106-.319-.24-.444-.402a1.8 1.8 0 0 1-.285-.52 1.95 1.95 0 0 1-.104-.589 1.71 1.71 0 0 1 .09-.589 1.78 1.78 0 0 1 .271-.527c.12-.162.261-.3.423-.416a1.92 1.92 0 0 1 .542-.264c.194-.061.391-.079.59-.069a1.96 1.96 0 0 1 .59.118 1.93 1.93 0 0 1 .514.305 1.8 1.8 0 0 1 .389.444 1.83 1.83 0 0 1 .229.555 1.86 1.86 0 0 1 .042.596 1.82 1.82 0 0 1-.153.576 1.75 1.75 0 0 1-.326.492c-.138.148-.292.275-.473.367a1.85 1.85 0 0 1-.562.201l-.298.055-1.792.021c-1.199.014-2.057.074-2.576.18s-.995.351-1.43.721-.895.945-1.368 1.713l-.86 1.304c-.093.106-.197.199-.313.277a1.71 1.71 0 0 1-.375.194 1.79 1.79 0 0 1-.416.097 1.53 1.53 0 0 1-.417 0c-.143-.019-.275-.053-.41-.104a1.7 1.7 0 0 1-.368-.201c-.115-.079-.222-.171-.319-.277a1.52 1.52 0 0 1-.236-.354 1.81 1.81 0 0 1-.146-.395c-.033-.138-.048-.275-.048-.409 0-.143.018-.284.055-.423a1.61 1.61 0 0 1 .153-.388l.097-.187zM95.01 68.599l1.201.298a5.17 5.17 0 0 1 2.173 1.144c.643.564 1.153 1.119 1.527 1.664l1.513 2.101 1.062 1.553a1.74 1.74 0 0 1 .146.555 1.79 1.79 0 0 1-.035.569 1.63 1.63 0 0 1-.215.527c-.102.162-.227.312-.375.437s-.312.215-.493.284a1.8 1.8 0 0 1-.562.118 1.77 1.77 0 0 1-.562-.062 1.73 1.73 0 0 1-.521-.25 1.66 1.66 0 0 1-.41-.395c-.116-.152-.204-.321-.264-.506a1.81 1.81 0 0 1-.09-.562 1.91 1.91 0 0 1 .097-.562 1.74 1.74 0 0 1 .278-.506 1.67 1.67 0 0 1 .416-.388c.161-.106.335-.185.52-.236s.375-.069.57-.055a1.74 1.74 0 0 1 .555.132 1.63 1.63 0 0 1 .493.298 1.72 1.72 0 0 1 .361.437 1.82 1.82 0 0 1 .208.534 1.68 1.68 0 0 1 .028.569 1.75 1.75 0 0 1-.486 1.019c-.134.139-.287.252-.458.34a1.87 1.87 0 0 1-.542.18 1.85 1.85 0 0 1-.576-.007 1.68 1.68 0 0 1-.535-.187 1.79 1.79 0 0 1-.458-.354l-.194-.208-.916-1.331-1.5-2.406c-.384-.716-.919-1.126-1.604-1.227l-1.222-.208a2.27 2.27 0 0 1-.375-.173 1.73 1.73 0 0 1-.319-.263c-.097-.097-.18-.206-.25-.326s-.123-.247-.16-.381a1.55 1.55 0 0 1-.069-.409 1.69 1.69 0 0 1 .035-.402 1.46 1.46 0 0 1 .125-.388 1.65 1.65 0 0 1 .222-.354 1.82 1.82 0 0 1 .292-.284 1.65 1.65 0 0 1 .361-.208 1.63 1.63 0 0 1 .396-.118 1.73 1.73 0 0 1 .403-.021l.208.021zm17.582 36.911l-1.111-.229c-.745-.153-1.657-.405-2.735-.756s-2.234-.793-3.465-1.338l-2.985-1.373-1.875-.909c-.491-.24-.685-.316-.583-.228s.109.104.007.048a1.3 1.3 0 0 1-.278-.201 1.22 1.22 0 0 1-.229-.257 1.29 1.29 0 0 1-.153-.312c-.037-.111-.069-.217-.083-.333a1.74 1.74 0 0 1 .007-.347 1.78 1.78 0 0 1 .09-.333 1.25 1.25 0 0 1 .167-.298 1.56 1.56 0 0 1 .229-.257c.088-.074.183-.139.285-.194a1.42 1.42 0 0 1 .327-.118 1.66 1.66 0 0 1 .34-.035 1.26 1.26 0 0 1 .347.049c.116.033.345.28.701.756a21.94 21.94 0 0 0 1.34 1.567 6.76 6.76 0 0 0 1.813 1.394c.676.356 1.289.592 1.853.707.565.12 1.194.298 1.889.534a12.34 12.34 0 0 0 2.159.52c.745.111.984.074.715-.111s-.352-.367-.236-.561a2.07 2.07 0 0 1 .438-.507 2.05 2.05 0 0 1 .583-.346c.208-.084.426-.13.652-.139a2.14 2.14 0 0 1 .66.076c.217.065.421.16.611.284.185.13.345.285.479.465a1.92 1.92 0 0 1 .312.596 1.87 1.87 0 0 1 .105.652c0 .227-.037.449-.112.666a2.04 2.04 0 0 1-.319.589c-.139.18-.301.329-.486.458s-.393.217-.611.277a1.99 1.99 0 0 1-.659.07c-.227-.014-.447-.065-.66-.153a2.04 2.04 0 0 1-.569-.347 2.08 2.08 0 0 1-.431-.513 2.14 2.14 0 0 1-.25-.624 2.04 2.04 0 0 1-.028-.665c.024-.222.084-.437.181-.645a2.02 2.02 0 0 1 .382-.548c.157-.167.335-.301.534-.402.204-.107.417-.178.639-.215a2.02 2.02 0 0 1 .667.007 2.04 2.04 0 0 1 .632.215c.199.111.377.247.534.409a2.04 2.04 0 0 1 .368.561c.097.204.157.419.181.645a1.94 1.94 0 0 1-.042.659l-.076.333-1.792 1.616c-1.189 1.077-2.154 1.523-2.895 1.338l-2.347-.7-2.131-.735c-.606-.213-1.18-.477-1.722-.791s-1.134-.737-1.777-1.269c-.639-.527-1.162-1.225-1.569-2.094s-.662-1.338-.764-1.394a1.3 1.3 0 0 1-.278-.201 1.22 1.22 0 0 1-.229-.257 1.29 1.29 0 0 1-.153-.312c-.037-.111-.069-.217-.083-.333a1.74 1.74 0 0 1 .007-.347 1.78 1.78 0 0 1 .09-.333 1.42 1.42 0 0 1 .16-.298 1.38 1.38 0 0 1 .236-.257c.088-.074.183-.139.285-.194a1.42 1.42 0 0 1 .327-.118 1.66 1.66 0 0 1 .34-.035 1.26 1.26 0 0 1 .347.049c.116.033.373.18.785.458s.963.599 1.666.95 1.632.751 2.784 1.185 2.25.759 3.291.985l2.673.548 1.292.27a1.79 1.79 0 0 1 .34.16c.111.069.21.148.298.236a1.59 1.59 0 0 1 .229.305 1.84 1.84 0 0 1 .146.346c.037.121.058.245.063.375a1.7 1.7 0 0 1-.028.367c-.028.125-.067.243-.118.354a1.88 1.88 0 0 1-.201.326c-.079.097-.169.183-.271.257s-.211.143-.327.194a1.41 1.41 0 0 1-.361.104 1.47 1.47 0 0 1-.374.021l-.188-.021zm15.803-50.723l1.264-1.213c.842-.814 1.854-1.426 3.034-1.838s2.405-.423 3.687-.035 2.275 1.449 2.978 3.183c.709 1.734 1.195 4.246 1.458 7.538s.44 6.77.542 10.45.248 6.736.437 9.167l.5 6.366.202 2.864a.9.9 0 0 1-.077.284c-.037.093-.09.176-.159.25a.85.85 0 0 1-.23.18 1.03 1.03 0 0 1-.277.104c-.097.019-.197.021-.299.007a1.04 1.04 0 0 1-.285-.083c-.087-.046-.166-.104-.236-.173a1.11 1.11 0 0 1-.173-.243 1.01 1.01 0 0 1-.083-.284c-.014-.097-.012-.197.006-.298a.89.89 0 0 1 .105-.277.87.87 0 0 1 .187-.229.92.92 0 0 1 .25-.159.95.95 0 0 1 .285-.069c.102-.005.199.005.291.028a.92.92 0 0 1 .278.118c.083.051.155.116.215.194a.83.83 0 0 1 .146.256.91.91 0 0 1 .056.291.84.84 0 0 1-.042.298.89.89 0 0 1-.132.264.91.91 0 0 1-.208.208c-.083.06-.172.099-.264.132a.93.93 0 0 1-.299.035c-.097 0-.192-.019-.284-.055-.098-.032-.185-.081-.264-.146a.92.92 0 0 1-.195-.222.86.86 0 0 1-.118-.27l-.034-.146-.216-2.711-.513-6.407-.459-9.167-.513-10.166c-.236-3.125-.586-5.43-1.049-6.913s-1.08-2.325-1.853-2.538-1.586-.169-2.437.118c-.857.282-1.678.832-2.465 1.65l-1.292 1.311a1.04 1.04 0 0 1-.229.132 1.28 1.28 0 0 1-.257.083c-.088.014-.173.019-.256.014a1.06 1.06 0 0 1-.264-.049.99.99 0 0 1-.243-.104 1.19 1.19 0 0 1-.209-.166c-.064-.065-.12-.134-.166-.208a.98.98 0 0 1-.104-.243 1.06 1.06 0 0 1-.049-.264 1.18 1.18 0 0 1 .014-.257c.018-.088.046-.173.083-.257a1.09 1.09 0 0 1 .132-.229l.083-.104z"/><path d="M139.269 53.791l1.999 1.63c1.338 1.086 2.447 2.751 3.326 4.993a18.13 18.13 0 0 1 1.271 6.872c-.033 2.349-.44 5.034-1.222 8.058l-1.993 8.716-.958 6.241c-.083 1.373-.035 2.545.146 3.516l.555 2.822.292 1.532a1.03 1.03 0 0 1-.063.354 1.07 1.07 0 0 1-.166.312c-.074.093-.162.173-.264.243s-.211.113-.326.146a1.02 1.02 0 0 1-.355.035 1.12 1.12 0 0 1-.347-.083.95.95 0 0 1-.305-.187 1.05 1.05 0 0 1-.229-.27 1.12 1.12 0 0 1-.125-.333 1.01 1.01 0 0 1-.021-.354 1.05 1.05 0 0 1 .104-.347 1.14 1.14 0 0 1 .201-.291c.084-.088.179-.159.285-.215s.22-.092.34-.111a1.05 1.05 0 0 1 .361.007 1 1 0 0 1 .334.118c.106.055.201.127.284.215a1.18 1.18 0 0 1 .195.298c.051.111.081.227.09.347a1 1 0 0 1-.021.354c-.028.12-.072.231-.132.333a1.19 1.19 0 0 1-.236.27 1.23 1.23 0 0 1-.312.18c-.111.042-.227.065-.347.069a1.15 1.15 0 0 1-.355-.042 1.02 1.02 0 0 1-.576-.402 1.07 1.07 0 0 1-.166-.312l-.056-.173-.125-1.359-.417-3.037c-.199-1.119-.256-2.409-.173-3.869s.389-3.613.93-6.442l1.916-8.557c.732-2.871 1.118-5.349 1.16-7.434s-.296-4.089-1-5.998-1.724-3.358-3.062-4.348l-2.117-1.595a1.35 1.35 0 0 1-.188-.236 1.53 1.53 0 0 1-.125-.277c-.032-.102-.051-.203-.055-.305a1.04 1.04 0 0 1 .014-.298c.018-.102.048-.199.09-.291a1.3 1.3 0 0 1 .16-.264 1.51 1.51 0 0 1 .215-.215c.083-.065.171-.118.264-.159a1.24 1.24 0 0 1 .291-.09c.102-.023.202-.03.299-.021s.201.023.298.056a1.19 1.19 0 0 1 .285.118l.132.083z"/><path d="M142.573 98.162l-.028 1.331-.083 3.349-.098 3.654.035 2.441c.046.536.063 1.089.049 1.658l-.035 1.026a1.4 1.4 0 0 1-.083.34 1.34 1.34 0 0 1-.167.312c-.065.097-.141.185-.229.263a1.56 1.56 0 0 1-.292.194c-.101.056-.21.097-.326.125a1.33 1.33 0 0 1-.34.042c-.116 0-.232-.014-.347-.042s-.22-.069-.327-.125c-.101-.055-.196-.12-.284-.194s-.167-.166-.236-.263a1.53 1.53 0 0 1-.16-.312c-.042-.107-.069-.22-.083-.34s-.218-1.033-.611-2.753-.72-3.601-.979-5.645l-.764-5.353-.68-3.322a4.67 4.67 0 0 0-1.077-1.845c-.504-.546-.914-1.146-1.228-1.803s-.588-1.419-.82-2.302l-.361-1.581c-.009-.176.01-.347.056-.513a1.57 1.57 0 0 1 .215-.465c.102-.148.222-.273.361-.374s.292-.187.458-.243.331-.083.507-.083.345.03.507.09a1.55 1.55 0 0 1 .458.243c.139.106.257.231.354.374a1.6 1.6 0 0 1 .216.465c.046.171.064.342.055.513s-.049.344-.118.506-.153.31-.264.444a1.81 1.81 0 0 1-.396.333c-.148.088-.307.15-.479.187a1.6 1.6 0 0 1-.513.028 1.68 1.68 0 0 1-.5-.146c-.158-.069-.299-.164-.424-.284s-.234-.259-.312-.416a1.5 1.5 0 0 1-.167-.485c-.028-.176-.025-.349.007-.52a1.5 1.5 0 0 1 .167-.485c.078-.153.183-.289.312-.409s.266-.217.424-.291.328-.113.5-.132.347-.009.513.028c.172.037.331.102.479.194a1.44 1.44 0 0 1 .396.333c.111.134.199.282.264.444l.097.243.174 1.082c.115.716.345 1.463.687 2.24l1 2.052a8.2 8.2 0 0 1 .743 2.053l.722 3.467.972 5.367.771 4.785c.18 1.146.421 2.068.722 2.766s.444 1.098.43 1.214a1.4 1.4 0 0 1-.083.34 1.34 1.34 0 0 1-.167.312c-.065.097-.141.185-.229.263a1.56 1.56 0 0 1-.292.194c-.101.056-.21.097-.326.125a1.33 1.33 0 0 1-.34.042c-.116 0-.232-.014-.347-.042s-.22-.069-.327-.125c-.101-.055-.196-.12-.284-.194a1.33 1.33 0 0 1-.229-.263 1.34 1.34 0 0 1-.167-.312c-.042-.107-.069-.22-.083-.34s.048-.458.187-1.026a11.55 11.55 0 0 0 .271-1.658c.051-.536.062-1.35.035-2.441l-.098-3.654-.083-3.349-.007-1.491a1.47 1.47 0 0 1 .077-.319 1.42 1.42 0 0 1 .152-.291c.065-.092.139-.176.222-.25a1.37 1.37 0 0 1 .271-.187c.097-.051.199-.09.306-.118a1.6 1.6 0 0 1 .326-.035c.107 0 .215.012.326.035s.209.067.306.118a1.37 1.37 0 0 1 .271.187c.083.074.157.157.222.25s.111.185.153.291.062.208.076.319l.021.16z"/><path d="M125.003 59.214l.409-1.63c.273-1.086.954-1.972 2.041-2.656 1.093-.684 2.4-.497 3.923.562s2.798 2.219 3.826 3.481c1.027 1.253 1.772 2.711 2.235 4.376s.709 3.828.736 6.491l-.055 7.441-.146 5.013a15.81 15.81 0 0 0 .264 3.252l.659 3.439c.236 1.165.401 2.358.493 3.578l.097 1.997c-.027.106-.074.208-.138.305a.97.97 0 0 1-.229.243c-.088.074-.186.129-.292.166s-.222.055-.333.055a1.15 1.15 0 0 1-.334-.049.98.98 0 0 1-.298-.159 1.07 1.07 0 0 1-.236-.243 1.1 1.1 0 0 1-.146-.298c-.032-.106-.046-.224-.042-.34a.95.95 0 0 1 .07-.326 1.02 1.02 0 0 1 .173-.291 1.07 1.07 0 0 1 .257-.222c.097-.06.202-.102.313-.125a1.02 1.02 0 0 1 .333-.028 1.11 1.11 0 0 1 .326.09c.102.046.195.109.278.187a1.13 1.13 0 0 1 .208.263c.056.102.093.208.111.319a1.17 1.17 0 0 1 .007.34 1.1 1.1 0 0 1-.104.319 1.18 1.18 0 0 1-.201.27 1.16 1.16 0 0 1-.278.194 1.11 1.11 0 0 1-.326.09 1.02 1.02 0 0 1-.334-.014.96.96 0 0 1-.319-.125.94.94 0 0 1-.257-.215 1.14 1.14 0 0 1-.18-.284 1.04 1.04 0 0 1-.077-.326l-.007-.173v-1.539c0-1.031-.12-2.136-.361-3.315l-.687-3.641c-.222-1.248-.322-2.397-.299-3.446l.125-4.979.056-7.17c-.023-2.51-.215-4.475-.576-5.894s-.998-2.69-1.91-3.8-2.163-1.997-3.742-2.677-2.448-.525-2.624.465l-.306 1.609a1.12 1.12 0 0 1-.111.236 1.44 1.44 0 0 1-.166.201c-.065.06-.137.113-.216.16a1.18 1.18 0 0 1-.243.097c-.088.023-.176.037-.264.042a.94.94 0 0 1-.256-.021.95.95 0 0 1-.243-.09c-.084-.037-.158-.083-.223-.139s-.129-.125-.18-.194a1.01 1.01 0 0 1-.132-.229 1.21 1.21 0 0 1-.069-.257c-.014-.088-.017-.173-.007-.257l.007-.132zm-.139 1.183l-.473 2.67-1.694 7.51-2.076 8.328c-.569 2.325-1.18 4.089-1.833 5.291s-1.233 1.017-1.742-.555-.889-3.59-1.125-6.04l-.611-7.607-.368-6.387a22.88 22.88 0 0 1 .326-4.965l.5-2.684a.94.94 0 0 1 .181-.298.96.96 0 0 1 .264-.229.87.87 0 0 1 .319-.132c.116-.023.231-.037.347-.028a1.19 1.19 0 0 1 .34.09c.107.051.204.116.292.194a.96.96 0 0 1 .215.277c.056.102.095.21.118.326s.019.233 0 .354a1.1 1.1 0 0 1-.104.326 1.15 1.15 0 0 1-.208.284 1 1 0 0 1-.292.194c-.106.051-.217.085-.333.104s-.232.007-.347-.021a1.04 1.04 0 0 1-.327-.125 1.13 1.13 0 0 1-.27-.222c-.078-.088-.139-.187-.181-.298a1.2 1.2 0 0 1-.083-.34 1.24 1.24 0 0 1 .035-.347 1.25 1.25 0 0 1 .145-.319 1.15 1.15 0 0 1 .236-.257 1.07 1.07 0 0 1 .306-.166 1.09 1.09 0 0 1 .347-.055.95.95 0 0 1 .34.048 1.04 1.04 0 0 1 .313.16 1.05 1.05 0 0 1 .243.25c.065.097.12.203.152.319a1.1 1.1 0 0 1 .042.347l-.007.173-.562 2.261a15.94 15.94 0 0 0-.431 4.674l.396 6.324.667 7.628c.259 2.487.321 4.242.187 5.263s-.215 1.144-.243.368.241-2.33.792-4.66l1.985-8.273 1.583-7.447.451-2.802c.028-.088.065-.171.112-.25s.099-.15.159-.215a1.11 1.11 0 0 1 .215-.173c.078-.05.156-.083.244-.111s.175-.046.263-.055.176 0 .264.014a1.14 1.14 0 0 1 .264.076 1.04 1.04 0 0 1 .229.139.84.84 0 0 1 .195.187c.06.069.108.146.145.229a1.31 1.31 0 0 1 .084.257 1.02 1.02 0 0 1 .02.264l-.006.132zm-19.503-8.916l1.41 1.498c.939 1.003 1.826 2.404 2.659 4.202s1.451 3.419 1.854 4.861l1.131 3.876.549 1.921a1.15 1.15 0 0 1-.028.402 1.33 1.33 0 0 1-.153.368c-.07.116-.162.217-.263.305-.107.083-.223.15-.348.201a1.25 1.25 0 0 1-.395.076 1.27 1.27 0 0 1-.396-.049 1.18 1.18 0 0 1-.361-.173 1.27 1.27 0 0 1-.285-.277 1.21 1.21 0 0 1-.187-.361c-.037-.125-.056-.257-.056-.395a1.15 1.15 0 0 1 .07-.395 1.28 1.28 0 0 1 .194-.347 1.17 1.17 0 0 1 .299-.27 1.28 1.28 0 0 1 .361-.166c.134-.032.268-.044.402-.035a1.25 1.25 0 0 1 .389.09 1.35 1.35 0 0 1 .34.215 1.24 1.24 0 0 1 .257.305 1.41 1.41 0 0 1 .139.374 1.18 1.18 0 0 1 .014.402c-.018.134-.051.261-.111.381a1.11 1.11 0 0 1-.229.333c-.093.097-.199.176-.32.236s-.247.102-.381.125a1.31 1.31 0 0 1-.403-.007 1.4 1.4 0 0 1-.382-.139 1.3 1.3 0 0 1-.312-.243 1.27 1.27 0 0 1-.223-.34l-.083-.18-.368-1.727-.993-3.696c-.407-1.318-.976-2.748-1.708-4.292s-1.599-2.778-2.589-3.703l-1.583-1.526a1.18 1.18 0 0 1-.181-.291c-.046-.106-.079-.208-.097-.319s-.03-.222-.021-.333a1.35 1.35 0 0 1 .063-.333 1.28 1.28 0 0 1 .138-.305c.056-.097.125-.185.209-.264a1.12 1.12 0 0 1 .263-.208 1.32 1.32 0 0 1 .306-.139c.111-.037.222-.058.333-.062a1.16 1.16 0 0 1 .334.021 1.28 1.28 0 0 1 .319.097 1.16 1.16 0 0 1 .291.18l.132.104z"/><path d="M112.984 52.83l1.167 1.928c.773 1.29 1.52 2.838 2.242 4.646s1.227 3.416 1.528 4.812l.576 3.363c.083.846-.143 1.842-.68 2.989l-.972 1.865a1.19 1.19 0 0 1-.361.215c-.134.051-.267.088-.41.097s-.285-.012-.424-.049a1.3 1.3 0 0 1-.687-.464 1.23 1.23 0 0 1-.201-.368 1.25 1.25 0 0 1-.07-.416c0-.143.021-.282.063-.416s.113-.259.201-.374.185-.208.306-.291a1.35 1.35 0 0 1 .381-.18 1.4 1.4 0 0 1 .417-.048 1.34 1.34 0 0 1 .41.09c.13.051.257.123.368.215a1.38 1.38 0 0 1 .43.714c.033.139.042.277.028.416-.019.143-.056.28-.111.409a1.39 1.39 0 0 1-.236.354 1.36 1.36 0 0 1-.34.257 1.33 1.33 0 0 1-.396.132c-.139.023-.28.025-.424.007a1.22 1.22 0 0 1-.395-.139 1.23 1.23 0 0 1-.341-.25 1.28 1.28 0 0 1-.236-.347c-.06-.129-.099-.266-.118-.409s-.007-.277.021-.416a1.31 1.31 0 0 1 .153-.395l.111-.18.618-.797c.416-.532.611-1.16.583-1.886s-.197-1.722-.507-2.975-.831-2.704-1.548-4.341-1.504-3.072-2.361-4.306l-1.367-2.011a1.43 1.43 0 0 1-.146-.687 1.51 1.51 0 0 1 .055-.354 1.61 1.61 0 0 1 .132-.326 1.49 1.49 0 0 1 .215-.291 1.62 1.62 0 0 1 .271-.229 1.4 1.4 0 0 1 .327-.153 1.25 1.25 0 0 1 .347-.076 1.3 1.3 0 0 1 .354.007 1.51 1.51 0 0 1 .34.097 1.58 1.58 0 0 1 .312.173c.098.074.186.157.264.25l.111.139zm-2.858 11.469l-1.41-1.262c-.944-.841-2.254-1.759-3.929-2.753-1.68-.998-3.481-1.778-5.402-2.337l-4.353-1.227-2.597-.61-1.291-.291a1.31 1.31 0 0 1-.306-.194 1.27 1.27 0 0 1-.222-.277c-.06-.106-.102-.22-.125-.34a1.01 1.01 0 0 1-.007-.354.97.97 0 0 1 .104-.34.93.93 0 0 1 .208-.291c.088-.083.18-.159.292-.215a1.21 1.21 0 0 1 .34-.104c.12-.014.238-.009.354.014s.234.058.34.118a1.19 1.19 0 0 1 .278.222 1.07 1.07 0 0 1 .194.305 1.12 1.12 0 0 1 .083.347.9.9 0 0 1-.028.354 1.06 1.06 0 0 1-.139.333 1.07 1.07 0 0 1-.236.264 1.22 1.22 0 0 1-.312.173c-.116.046-.234.069-.354.069s-.238-.011-.354-.049-.222-.083-.319-.153-.183-.159-.257-.256a1.03 1.03 0 0 1-.16-.319c-.037-.116-.049-.233-.049-.354a1.17 1.17 0 0 1 .069-.354 1.23 1.23 0 0 1 .174-.312 1.02 1.02 0 0 1 .271-.236 1.07 1.07 0 0 1 .326-.139 1.03 1.03 0 0 1 .354-.035l.181.014 1.097.326 2.624.68 4.665 1.248c2.092.596 4.048 1.412 5.867 2.448s3.224 1.942 4.214 2.732l1.583 1.304a1.2 1.2 0 0 1 .181.25 1.38 1.38 0 0 1 .118.284c.028.102.042.203.042.305a1.17 1.17 0 0 1-.028.305 1.29 1.29 0 0 1-.104.291 1.38 1.38 0 0 1-.167.257c-.065.079-.146.148-.229.208s-.174.111-.271.153-.197.062-.298.076a1.12 1.12 0 0 1-.306.007 1.66 1.66 0 0 1-.298-.062c-.097-.032-.19-.083-.278-.139l-.132-.083z"/><path d="M96.513 55.933l-2.458 1.38c-1.638.92-2.981 2.187-4.027 3.8l-2.409 3.835-1.444 2.489-.708 1.227a1.14 1.14 0 0 1-.278.236 1.06 1.06 0 0 1-.333.139c-.116.032-.234.042-.354.028s-.243-.039-.354-.09-.211-.116-.298-.194a1.12 1.12 0 0 1-.229-.284c-.056-.106-.095-.219-.118-.34a1.05 1.05 0 0 1-.007-.361c.018-.12.055-.236.111-.347s.127-.203.215-.291a1.11 1.11 0 0 1 .292-.208c.111-.051.227-.085.347-.104s.241-.009.361.014a1.27 1.27 0 0 1 .34.132 1.02 1.02 0 0 1 .278.229c.079.093.144.194.194.305a1.13 1.13 0 0 1 .083.354 1.01 1.01 0 0 1-.035.354c-.032.12-.081.231-.146.333a1.2 1.2 0 0 1-.243.264c-.097.079-.204.139-.319.18s-.234.058-.354.062-.241-.019-.361-.056-.222-.09-.319-.159-.181-.162-.25-.264a.94.94 0 0 1-.16-.319c-.037-.12-.053-.24-.049-.361s.03-.238.076-.354l.063-.173.646-1.054 1.472-2.538 2.687-4.299c1.236-1.877 2.668-3.319 4.298-4.327l2.597-1.574c.097-.042.197-.072.299-.09a1.19 1.19 0 0 1 .312-.014c.106.005.211.023.312.055a1.23 1.23 0 0 1 .285.132 1.54 1.54 0 0 1 .25.201c.074.074.139.157.194.25s.093.189.125.291.046.206.056.312a1.21 1.21 0 0 1-.028.312 1.18 1.18 0 0 1-.097.298c-.042.097-.097.187-.167.27a1.26 1.26 0 0 1-.222.222l-.125.097z"/><path d="M82.018 66.799l.069-2.67.229-5.284c.111-1.743.389-3.289.833-4.639s1.016-2.552 1.715-3.606l1.187-1.727c.097-.093.208-.169.333-.229a1.35 1.35 0 0 1 .382-.111c.139-.014.273-.007.403.021a1.3 1.3 0 0 1 .375.139c.12.069.225.155.312.256a1.22 1.22 0 0 1 .208.34c.051.125.081.257.09.395a1.26 1.26 0 0 1-.201.763 1.19 1.19 0 0 1-.271.298c-.107.083-.225.146-.354.187a1.13 1.13 0 0 1-.396.069c-.134.005-.266-.014-.396-.055a1.13 1.13 0 0 1-.354-.187 1.19 1.19 0 0 1-.285-.284c-.074-.111-.132-.231-.174-.361a1.33 1.33 0 0 1-.049-.402c.009-.134.037-.264.083-.388s.118-.245.201-.347.19-.194.305-.264a1.11 1.11 0 0 1 .368-.153c.134-.032.268-.042.403-.028s.264.042.389.097.236.129.333.222a1.19 1.19 0 0 1 .25.319c.065.12.109.247.132.381s.026.261.007.395a1.37 1.37 0 0 1-.125.381l-.09.18-1.014 1.193c-.671.795-1.187 1.77-1.548 2.926s-.56 2.577-.597 4.279l.007 5.221.049 2.836a1.35 1.35 0 0 1-.083.326c-.042.106-.095.208-.16.305s-.139.176-.222.25a1.87 1.87 0 0 1-.278.194c-.102.051-.208.09-.319.118s-.222.042-.333.042a1.37 1.37 0 0 1-.333-.042 1.56 1.56 0 0 1-.319-.118c-.097-.055-.19-.12-.278-.194s-.157-.157-.222-.25-.118-.199-.16-.305a1.35 1.35 0 0 1-.083-.326l-.021-.166z"/><path d="M83.015 56.277l-.479 1.546-1.819 5.138-2.569 7.836c-.819 2.834-1.479 5.658-1.979 8.474l-1.062 6.248-.569 3.537-.285 1.65c-.032.097-.081.187-.146.27s-.132.153-.215.208-.176.104-.278.132-.197.039-.299.035-.201-.025-.299-.062-.185-.088-.264-.153a.84.84 0 0 1-.194-.229c-.056-.088-.095-.183-.118-.284a.81.81 0 0 1-.014-.298.98.98 0 0 1 .076-.298.91.91 0 0 1 .167-.25.98.98 0 0 1 .243-.187.99.99 0 0 1 .285-.097c.102-.018.204-.021.306-.007s.197.051.285.097.173.106.243.18.132.157.174.25a.81.81 0 0 1 .083.291.85.85 0 0 1-.014.305.88.88 0 0 1-.104.284c-.056.088-.12.164-.194.229a.86.86 0 0 1-.264.159c-.093.042-.19.065-.292.069a1.11 1.11 0 0 1-.305-.028 1.07 1.07 0 0 1-.278-.125c-.083-.06-.157-.129-.222-.208a1.17 1.17 0 0 1-.146-.27c-.032-.097-.049-.197-.049-.298v-.153l.222-1.505.535-3.557 1.048-6.379c.495-2.885 1.148-5.774 1.958-8.668l2.479-7.864 1.68-5.097.465-1.692a1.14 1.14 0 0 1 .139-.243 1.4 1.4 0 0 1 .194-.208c.074-.06.155-.111.243-.153a1.62 1.62 0 0 1 .264-.09c.093-.018.185-.025.278-.021a1.44 1.44 0 0 1 .278.042c.093.028.178.065.257.111a1.16 1.16 0 0 1 .229.166 1.35 1.35 0 0 1 .181.222 1 1 0 0 1 .118.257 1.09 1.09 0 0 1 .062.27c.005.092 0 .185-.014.277l-.021.139z"/><path d="M71.828 85.15l-.299-2.448-.43-5.547a28.6 28.6 0 0 1 .403-6.061 25.1 25.1 0 0 1 1.666-5.617 26.24 26.24 0 0 1 2.791-4.944c1.097-1.521 2.201-2.7 3.312-3.537l2.826-2.108 1.291-.929a.93.93 0 0 1 .292-.09c.102-.014.204-.014.305 0a.88.88 0 0 1 .285.104.96.96 0 0 1 .243.187c.069.074.125.16.167.257a.92.92 0 0 1 .076.291c.009.101.002.203-.021.305s-.062.197-.118.284a.84.84 0 0 1-.194.229c-.083.065-.171.116-.264.152a.96.96 0 0 1-.299.063c-.106.005-.208-.007-.305-.035a1.27 1.27 0 0 1-.278-.132.95.95 0 0 1-.215-.215c-.06-.083-.106-.173-.139-.27a.94.94 0 0 1-.049-.305.83.83 0 0 1 .056-.298.82.82 0 0 1 .146-.264.95.95 0 0 1 .222-.208.83.83 0 0 1 .278-.125.86.86 0 0 1 .306-.028.85.85 0 0 1 .299.069.88.88 0 0 1 .257.16.78.78 0 0 1 .194.236 1.01 1.01 0 0 1 .111.284c.019.102.023.203.014.305s-.044.199-.09.291-.1.176-.174.25l-.104.111-1.16.853-2.624 1.907c-.972.707-1.965 1.764-2.979 3.169s-1.872 2.922-2.576 4.549-1.213 3.354-1.527 5.18-.419 3.742-.312 5.735l.528 5.443.368 2.58a.9.9 0 0 1-.028.27c-.023.092-.049.173-.09.257s-.099.16-.16.229a1.32 1.32 0 0 1-.201.187c-.074.055-.155.095-.243.132a1.06 1.06 0 0 1-.264.069 1.07 1.07 0 0 1-.271 0c-.088-.009-.183-.03-.271-.062a.93.93 0 0 1-.243-.125 1.09 1.09 0 0 1-.208-.173.97.97 0 0 1-.264-.486l-.035-.132zm25.271-43.916l1.791-.409c1.194-.268 2.483-.46 3.867-.576s2.826-.005 4.312.333 3.001.895 4.547 1.657l3.729 1.962c.939.55 1.717.95 2.333 1.2l2.527 1.137 2.798 1.304 1.347.638a1.26 1.26 0 0 1 .257.243c.074.093.122.194.159.305a1.09 1.09 0 0 1 .056.347 1.07 1.07 0 0 1-.215.645 1.08 1.08 0 0 1-.257.243 1.13 1.13 0 0 1-.313.146.98.98 0 0 1-.347.035c-.116-.005-.229-.028-.34-.069a1.34 1.34 0 0 1-.299-.18c-.087-.079-.162-.169-.222-.27a1.09 1.09 0 0 1-.132-.319 1.23 1.23 0 0 1-.02-.347 1.03 1.03 0 0 1 .097-.34 1.02 1.02 0 0 1 .194-.284 1.04 1.04 0 0 1 .278-.208 1.01 1.01 0 0 1 .326-.111c.121-.018.239-.018.354 0a1.02 1.02 0 0 1 .327.111c.102.055.199.125.277.208s.144.18.195.291a1.06 1.06 0 0 1 .097.333c.009.116.002.231-.021.347a1.19 1.19 0 0 1-.132.326c-.06.097-.134.185-.222.264a1.32 1.32 0 0 1-.299.18c-.111.042-.224.065-.34.069s-.236-.002-.347-.035l-.167-.049-1.194-.569-2.832-1.297-2.562-1.255-2.285-1.304-3.485-1.81c-1.407-.694-2.747-1.188-4.02-1.484a11.35 11.35 0 0 0-3.798-.236 23.04 23.04 0 0 0-3.666.686l-1.916.506a1.47 1.47 0 0 1-.285 0 1.56 1.56 0 0 1-.285-.069 1.23 1.23 0 0 1-.257-.132 1.22 1.22 0 0 1-.215-.194 1.36 1.36 0 0 1-.167-.236 1.21 1.21 0 0 1-.104-.27 1.26 1.26 0 0 1-.035-.291 1.14 1.14 0 0 1 .035-.277 1.18 1.18 0 0 1 .104-.277 1.11 1.11 0 0 1 .16-.236 1.22 1.22 0 0 1 .215-.194 1.54 1.54 0 0 1 .257-.139l.139-.048zm21.855 1.894l2.674-.291 4.964-.409c1.527-.074 2.768-.058 3.721.049s1.977.562 3.083 1.352 2.023 1.579 2.763 2.378l1.687 1.928c.384.49.759 1.246 1.125 2.267l1.09 3.516.923 3.12c.255.758.632 1.604 1.132 2.538l1.423 2.587 1.292 2.489.646 1.498a1.24 1.24 0 0 1 .02.388c-.014.134-.048.261-.104.381s-.129.222-.222.319c-.088.097-.192.176-.312.236s-.239.106-.368.125a1.21 1.21 0 0 1-.389 0c-.134-.023-.259-.065-.375-.125a1.19 1.19 0 0 1-.313-.236c-.087-.097-.159-.206-.215-.326a1.18 1.18 0 0 1-.104-.374 1.2 1.2 0 0 1 .021-.388c.028-.125.076-.252.146-.367s.152-.21.25-.298a1.32 1.32 0 0 1 .34-.201 1.31 1.31 0 0 1 .382-.083 1.25 1.25 0 0 1 .389.048 1.16 1.16 0 0 1 .354.16 1.12 1.12 0 0 1 .284.27 1.24 1.24 0 0 1 .181.347c.041.125.062.254.062.388a1.19 1.19 0 0 1-.062.381 1.14 1.14 0 0 1-.188.347 1.12 1.12 0 0 1-.284.27 1.08 1.08 0 0 1-.354.16 1.1 1.1 0 0 1-.389.042 1.11 1.11 0 0 1-.382-.083 1.37 1.37 0 0 1-.333-.201c-.102-.088-.185-.187-.25-.298l-.104-.173-.403-1.227c-.269-.818-.63-1.627-1.083-2.427l-1.569-2.788c-.593-1.054-.993-1.974-1.201-2.76l-.889-3.065-1.076-3.176-.827-1.956c-.217-.444-.659-1.015-1.326-1.713s-1.416-1.366-2.235-2.004-1.609-1.01-2.382-1.116-1.89-.104-3.367.007l-4.881.548-2.819.374a.87.87 0 0 1-.284-.035c-.098-.023-.19-.055-.278-.097a1.25 1.25 0 0 1-.243-.166 1.1 1.1 0 0 1-.194-.222c-.056-.083-.102-.171-.139-.264a1.18 1.18 0 0 1-.07-.284c-.014-.101-.014-.192 0-.284a1.28 1.28 0 0 1 .07-.284c.032-.092.076-.18.132-.264a1.1 1.1 0 0 1 .194-.222 1.25 1.25 0 0 1 .243-.166c.088-.046.18-.081.278-.104l.145-.035z"/><path d="M108.749 39.76l.999-.444c.676-.291 1.354-.525 2.035-.7s1.328-.296 1.944-.374 1.307-.058 2.09.076 1.539.414 2.27.839a9.84 9.84 0 0 1 2.027 1.539c.616.596 1.174 1.227 1.674 1.893s1.018 1.673 1.569 3.009l.881 2.274a1.93 1.93 0 0 1 .021.548c-.023.18-.076.354-.159.52s-.183.314-.313.444-.271.238-.437.326-.336.136-.521.16a1.64 1.64 0 0 1-.542-.007 1.7 1.7 0 0 1-.513-.18 1.61 1.61 0 0 1-.431-.34c-.125-.134-.224-.284-.298-.451a1.58 1.58 0 0 1-.132-.527 1.63 1.63 0 0 1 .034-.541 1.69 1.69 0 0 1 .209-.506 1.75 1.75 0 0 1 .361-.409 1.71 1.71 0 0 1 .472-.27 1.75 1.75 0 0 1 .534-.111c.181-.005.362.018.542.069s.338.129.486.236a1.61 1.61 0 0 1 .389.381 1.63 1.63 0 0 1 .25.485 1.6 1.6 0 0 1 .076.534c-.005.18-.032.365-.097.541a1.74 1.74 0 0 1-.257.472 1.6 1.6 0 0 1-.403.367 1.61 1.61 0 0 1-.5.222 1.63 1.63 0 0 1-.541.049 1.47 1.47 0 0 1-.528-.125 1.66 1.66 0 0 1-.465-.284 1.62 1.62 0 0 1-.347-.423l-.139-.236-.555-1.63c-.375-1.086-.762-1.888-1.16-2.406a14.22 14.22 0 0 0-1.277-1.435c-.449-.435-1.072-.848-1.868-1.241s-1.673-.543-2.631-.437-1.768.31-2.43.61l-1.188.513c-.125.037-.252.06-.381.069s-.26-.005-.389-.028a1.42 1.42 0 0 1-.368-.118 1.72 1.72 0 0 1-.334-.201 1.58 1.58 0 0 1-.277-.277c-.078-.101-.146-.22-.202-.34a1.73 1.73 0 0 1-.111-.374c-.023-.125-.03-.252-.021-.381s.028-.257.07-.381.095-.243.16-.354a1.68 1.68 0 0 1 .243-.305 1.59 1.59 0 0 1 .312-.243l.167-.097zm-7.276 4.889l-2.097-1.144c-1.398-.767-3.189-1.57-5.374-2.406l-5.075-1.789c-1.199-.361-2.303-.449-3.312-.264s-2.067 1.024-3.173 2.503-2.206 3.405-3.298 5.79-1.872 4.443-2.34 6.172-.704 2.986-.722 3.758.023 1.424.125 1.942l.715 3.148.549 2.607a1.35 1.35 0 0 1-.104.444 1.44 1.44 0 0 1-.243.381 1.31 1.31 0 0 1-.785.443 1.23 1.23 0 0 1-.451.014 1.33 1.33 0 0 1-.437-.132 1.22 1.22 0 0 1-.368-.264 1.33 1.33 0 0 1-.271-.368 1.5 1.5 0 0 1-.132-.43 1.38 1.38 0 0 1 .007-.458 1.56 1.56 0 0 1 .16-.423 1.43 1.43 0 0 1 .285-.361 1.31 1.31 0 0 1 .382-.243c.139-.06.285-.097.437-.111a1.35 1.35 0 0 1 .451.035 1.38 1.38 0 0 1 .424.18c.13.079.243.178.34.298a1.34 1.34 0 0 1 .222.395 1.33 1.33 0 0 1 .09.444 1.36 1.36 0 0 1-.062.451c-.046.148-.113.284-.201.409a1.43 1.43 0 0 1-.319.326c-.125.093-.259.155-.403.201a1.35 1.35 0 0 1-.451.062 1.47 1.47 0 0 1-.451-.083 1.34 1.34 0 0 1-.396-.222c-.12-.097-.222-.21-.306-.34s-.144-.268-.18-.416l-.055-.222-.097-1.519c-.07-1.012-.178-1.807-.326-2.385a7.29 7.29 0 0 1-.222-1.817c-.005-.638.039-1.403.132-2.295s.386-2.256.882-4.091 1.317-4.013 2.479-6.532 2.442-4.609 3.839-6.282 2.796-2.644 4.18-2.899 2.731-.206 4.027.146 3.08.943 5.367 1.775l5.568 2.33 2.25 1.158c.083.056.157.12.222.194a1.28 1.28 0 0 1 .167.243c.046.088.081.18.104.277a1.2 1.2 0 0 1 .034.284 1.26 1.26 0 0 1-.034.291c-.023.092-.058.183-.104.27a1.28 1.28 0 0 1-.167.243 1.42 1.42 0 0 1-.222.194 1.48 1.48 0 0 1-.264.139 1.35 1.35 0 0 1-.285.069c-.092.009-.187.009-.284 0s-.192-.039-.285-.076l-.139-.048z"/><path d="M78.252 53.409l-1.264 1.29c-.847.855-1.687 2.05-2.52 3.585s-1.428 3.264-1.784 5.173-.43 3.352-.236 4.313.458 1.812.778 2.552l.521 1.297a1.17 1.17 0 0 1 .007.381 1.16 1.16 0 0 1-.118.361 1.13 1.13 0 0 1-.222.312 1.38 1.38 0 0 1-.312.222 1.12 1.12 0 0 1-.368.104 1.06 1.06 0 0 1-.382-.014c-.125-.023-.245-.067-.361-.132a1.13 1.13 0 0 1-.292-.243 1.15 1.15 0 0 1-.208-.326 1.22 1.22 0 0 1-.083-.368 1.31 1.31 0 0 1 .028-.381c.028-.124.086-.243.16-.354s.155-.199.257-.277a1.19 1.19 0 0 1 .333-.187 1.28 1.28 0 0 1 .375-.069 1.34 1.34 0 0 1 .382.055 1.14 1.14 0 0 1 .34.173c.106.078.197.164.271.27a1.2 1.2 0 0 1 .167.347 1.18 1.18 0 0 1 .049.374 1.15 1.15 0 0 1-.076.374c-.046.125-.111.236-.195.333s-.174.187-.285.257-.229.118-.354.146a1.06 1.06 0 0 1-.382.028 1.01 1.01 0 0 1-.368-.097 1.06 1.06 0 0 1-.319-.208 1.25 1.25 0 0 1-.243-.298l-.09-.166-.382-1.311c-.255-.869-.498-1.907-.729-3.113s-.157-2.894.222-5.048 1.028-4.103 1.93-5.846 1.743-3.081 2.534-4.001l1.305-1.484a1.52 1.52 0 0 1 .278-.187 1.33 1.33 0 0 1 .313-.111 1.15 1.15 0 0 1 .326-.035 1.29 1.29 0 0 1 .326.042 1.7 1.7 0 0 1 .312.125 1.63 1.63 0 0 1 .271.194 1.23 1.23 0 0 1 .215.25 1.61 1.61 0 0 1 .146.298 1.15 1.15 0 0 1 .076.326c.014.106.012.215-.007.326a1.25 1.25 0 0 1-.083.319 1.28 1.28 0 0 1-.16.291l-.097.139zm-2.222 45.28l1.125.7c.75.462 1.484 1.135 2.201 2.018s1.426 1.629 2.111 2.24l1.173 1.088c.093.125.162.259.208.402a1.49 1.49 0 0 1 .069.451c0 .152-.032.301-.083.444s-.123.282-.215.402a1.31 1.31 0 0 1-.333.305 1.21 1.21 0 0 1-.41.187c-.149.037-.306.058-.458.049a1.57 1.57 0 0 1-.437-.104c-.143-.06-.273-.141-.389-.243a1.32 1.32 0 0 1-.292-.346 1.24 1.24 0 0 1-.16-.423 1.34 1.34 0 0 1-.021-.451 1.44 1.44 0 0 1 .125-.437 1.37 1.37 0 0 1 .257-.374 1.32 1.32 0 0 1 .368-.271c.134-.069.278-.115.43-.139a1.34 1.34 0 0 1 .451.007 1.28 1.28 0 0 1 .43.146 1.5 1.5 0 0 1 .361.277c.102.116.185.243.25.382a1.3 1.3 0 0 1 .118.437 1.34 1.34 0 0 1-.035.45 1.34 1.34 0 0 1-.167.423 1.49 1.49 0 0 1-.694.569 1.48 1.48 0 0 1-.444.097 1.5 1.5 0 0 1-.451-.055 1.34 1.34 0 0 1-.41-.195l-.187-.131-1.034-1.089-1.875-2.032c-.551-.624-1.208-1.142-1.972-1.553l-1.284-.735a1.19 1.19 0 0 1-.257-.25 1.3 1.3 0 0 1-.194-.305c-.051-.111-.088-.226-.111-.347s-.037-.238-.028-.353c.005-.125.023-.245.056-.361a1.77 1.77 0 0 1 .146-.333 1.35 1.35 0 0 1 .222-.291 1.63 1.63 0 0 1 .278-.222 1.73 1.73 0 0 1 .333-.16c.115-.042.234-.06.354-.069a1.52 1.52 0 0 1 .354.014 1.77 1.77 0 0 1 .347.104l.174.076z"/><path d="M82.329 98.021l-.069 2.171-.326 4.375-.361 3.662-.174 1.664c-.042.129-.102.249-.181.36a1.25 1.25 0 0 1-.292.292c-.106.078-.227.138-.361.18a1.29 1.29 0 0 1-.403.048 1.31 1.31 0 0 1-.403-.076c-.13-.051-.248-.118-.354-.201a1.26 1.26 0 0 1-.271-.312 1.22 1.22 0 0 1-.16-.374c-.032-.135-.044-.269-.035-.403s.049-.272.104-.402a1.27 1.27 0 0 1 .222-.34c.093-.101.199-.187.319-.256a1.39 1.39 0 0 1 .389-.139c.134-.023.268-.025.403-.007s.271.06.396.125a1.21 1.21 0 0 1 .319.243c.097.097.176.208.236.333s.1.249.118.388a1.21 1.21 0 0 1-.014.409c-.028.134-.074.261-.139.381a1.22 1.22 0 0 1-.264.319c-.102.088-.213.16-.333.215-.13.056-.264.088-.403.097a1.31 1.31 0 0 1-.403-.034c-.134-.037-.259-.093-.375-.167s-.218-.164-.305-.27c-.083-.111-.148-.231-.194-.361s-.076-.263-.076-.402l-.007-.208.167-1.387.299-3.488a43.46 43.46 0 0 0 .056-4.264l-.049-2.344a1.45 1.45 0 0 1 .083-.34 1.5 1.5 0 0 1 .167-.319 1.38 1.38 0 0 1 .229-.263 1.73 1.73 0 0 1 .292-.201c.106-.055.218-.097.333-.125s.231-.042.347-.042.231.014.347.042a1.45 1.45 0 0 1 .333.125 1.72 1.72 0 0 1 .292.201c.088.079.164.166.229.263s.125.208.167.319.069.224.083.34l.021.173z"/><path d="M83.297 96.374l-.674 1.13c-.449.754-1.305 1.844-2.569 3.273s-2.71 2.892-4.339 4.376l-3.527 3.404-1.875 2.095-.93 1.04a1.02 1.02 0 0 1-.312.18.99.99 0 0 1-.354.062c-.12.005-.238-.011-.354-.048s-.222-.09-.319-.16a1.11 1.11 0 0 1-.257-.256 1.02 1.02 0 0 1-.153-.319 1.04 1.04 0 0 1-.049-.354 1.03 1.03 0 0 1 .063-.353 1.2 1.2 0 0 1 .18-.312 1.02 1.02 0 0 1 .271-.236 1.24 1.24 0 0 1 .326-.146c.115-.033.241-.037.361-.028a1.03 1.03 0 0 1 .347.091.98.98 0 0 1 .299.194 1.01 1.01 0 0 1 .229.277.99.99 0 0 1 .118.34 1.13 1.13 0 0 1 .014.354 1.17 1.17 0 0 1-.111.346 1.03 1.03 0 0 1-.208.291 1.11 1.11 0 0 1-.292.209 1.26 1.26 0 0 1-.34.104c-.12.013-.241.009-.361-.014s-.234-.065-.34-.125a1.19 1.19 0 0 1-.278-.222 1.3 1.3 0 0 1-.194-.305 1.12 1.12 0 0 1-.083-.347c-.009-.12 0-.238.028-.354a1.18 1.18 0 0 1 .146-.332l.097-.153.84-.881 1.958-2.149c.745-.851 1.884-2.007 3.416-3.467s2.863-2.862 3.992-4.216 1.905-2.404 2.34-3.162l.743-1.255a1.4 1.4 0 0 1 .215-.222 1.15 1.15 0 0 1 .264-.166c.097-.046.197-.079.299-.097a1.14 1.14 0 0 1 .306-.028 1.18 1.18 0 0 1 .305.055c.102.028.197.067.285.118a1.29 1.29 0 0 1 .25.194c.079.069.146.15.201.243a1.27 1.27 0 0 1 .132.277 1.18 1.18 0 0 1 .056.305 1.13 1.13 0 0 1-.014.305c-.014.106-.042.206-.083.298l-.062.146zm2.617 12.433l-1.166 2.06-2.367 3.89-1.854 2.767c-.444.619-.194 1.146.75 1.581s2 1.091 3.166 1.969l4.096 3.231 4.11 3.398c1.166.994 2.078 1.671 2.736 2.032s1.19.71 1.583 1.033.386.331-.035.021-.613-.876-.576-1.699-.15-1.775-.562-2.857-1.048-2.406-1.895-3.973l-2.236-3.703-1.514-2.171c-.356-.54-.933-1.1-1.729-1.678l-1.395-.991a1.59 1.59 0 0 1-.354-.298c-.107-.121-.19-.255-.25-.403a1.36 1.36 0 0 1-.104-.45 1.44 1.44 0 0 1 .049-.465 1.37 1.37 0 0 1 .188-.43 1.49 1.49 0 0 1 .319-.34 1.42 1.42 0 0 1 .41-.222c.148-.051.308-.083.465-.083s.31.023.458.07a1.45 1.45 0 0 1 .417.215c.13.097.238.21.326.339a1.54 1.54 0 0 1 .201.423c.046.152.06.303.056.465a1.49 1.49 0 0 1-.097.451c-.056.148-.134.284-.236.409a1.49 1.49 0 0 1-.354.305 1.57 1.57 0 0 1-.43.173c-.157.037-.315.047-.472.028a1.38 1.38 0 0 1-.451-.118 1.47 1.47 0 0 1-.389-.256 1.38 1.38 0 0 1-.285-.368 1.49 1.49 0 0 1-.153-.444 1.42 1.42 0 0 1-.007-.464 1.35 1.35 0 0 1 .146-.444 1.43 1.43 0 0 1 .278-.375 1.49 1.49 0 0 1 .389-.27 1.45 1.45 0 0 1 .444-.125 1.5 1.5 0 0 1 .472.021l.229.048 1.77 1.595c1.18 1.068 1.888 1.854 2.124 2.358s.731 1.234 1.486 2.191 1.615 2.252 2.583 3.883 1.743 3.151 2.326 4.556.893 2.543.916 3.426-.102 1.784-.361 2.704-.701 1.484-1.326 1.692-1.22.051-1.784-.471-1.213-1.02-1.93-1.477c-.717-.463-1.669-1.165-2.853-2.108l-4.138-3.225-4.173-3.016-2.958-1.977c-.759-.513-1.331-1.026-1.715-1.539a2.27 2.27 0 0 1-.451-1.713c.088-.624.361-1.206.819-1.747.458-.546 1.053-1.422 1.784-2.628l2.187-3.918 1.18-2.219c.06-.083.13-.16.208-.229a1.33 1.33 0 0 1 .257-.166c.088-.047.183-.081.285-.104a1.03 1.03 0 0 1 .292-.028 1.1 1.1 0 0 1 .305.042 1.16 1.16 0 0 1 .285.11 1.12 1.12 0 0 1 .243.174c.079.069.146.148.201.236a1.53 1.53 0 0 1 .139.27 1.31 1.31 0 0 1 .063.291 1.07 1.07 0 0 1 0 .298 1.35 1.35 0 0 1-.076.299l-.062.138zm33.042 3.411l2.082.527c1.384.351 2.741.943 4.069 1.775s2.386 1.78 3.173 2.83l1.729 2.316c.37.494.574.987.611 1.477s-.172 1.026-.625 1.608-1.514 1.251-3.194 1.99l-5.832 2.296-5.665 1.948c-1.574.509-2.789.819-3.646.929-.851.111-1.566-.076-2.145-.561s-.84-1.221-.784-2.205c.055-.99.476-2.085 1.263-3.287l2.611-3.724 2.346-3.086c.602-.781 1.19-1.692 1.764-2.732l1.007-1.719a1.34 1.34 0 0 1 .326-.264 1.49 1.49 0 0 1 .396-.139c.139-.027.275-.032.409-.014a1.61 1.61 0 0 1 .403.125c.125.065.236.146.333.243s.183.215.243.34.107.263.125.402a1.2 1.2 0 0 1-.014.409 1.25 1.25 0 0 1-.145.388c-.07.125-.158.234-.264.326a1.19 1.19 0 0 1-.354.222c-.13.056-.264.09-.403.104a1.4 1.4 0 0 1-.41-.034 1.49 1.49 0 0 1-.382-.167c-.12-.078-.224-.171-.312-.277s-.155-.234-.201-.368a1.14 1.14 0 0 1-.077-.409c-.004-.134.014-.27.056-.409a1.22 1.22 0 0 1 .187-.368c.084-.115.181-.214.292-.298a1.44 1.44 0 0 1 .375-.18c.139-.042.275-.06.41-.055.143.004.28.03.409.076s.255.12.361.208a1.2 1.2 0 0 1 .278.312c.079.12.134.247.167.381s.043.275.034.409-.048.273-.104.403l-.083.194-.625.915-1.069 1.505-1.306 1.803-2.166 3.12-2.208 3.315c-.592.943-.768 1.65-.527 2.122s1.122.439 2.659-.111l5.485-2.067 5.825-2.246c1.754-.671 2.513-1.228 2.277-1.672s-.662-1.095-1.291-1.955-1.5-1.627-2.611-2.316-2.358-1.174-3.742-1.456l-2.222-.472a.98.98 0 0 1-.271-.139c-.087-.055-.166-.12-.236-.194a1.03 1.03 0 0 1-.173-.249c-.046-.092-.09-.183-.118-.285a1.33 1.33 0 0 1-.042-.298 1.35 1.35 0 0 1 .035-.298 1.31 1.31 0 0 1 .104-.284c.046-.093.102-.178.167-.257s.139-.148.222-.208a1.38 1.38 0 0 1 .271-.146 1.22 1.22 0 0 1 .291-.076c.102-.014.202-.016.299-.007l.153.014zm-17.297 12.303l2.326 3.343c1.55 2.233 2.738 4.824 3.561 7.773.829 2.954 1.315 5.7 1.458 8.238s.112 4.674-.097 6.407l-.437 4.785-.188 2.371c-.032.121-.083.234-.152.34a1.13 1.13 0 0 1-.257.278 1.16 1.16 0 0 1-.327.173 1.02 1.02 0 0 1-.368.069 1.25 1.25 0 0 1-.368-.055 1.32 1.32 0 0 1-.333-.173 1.18 1.18 0 0 1-.264-.264 1.35 1.35 0 0 1-.159-.34c-.037-.12-.054-.245-.049-.374s.035-.245.076-.361c.047-.12.112-.229.195-.326a1.12 1.12 0 0 1 .278-.242c.106-.07.222-.118.347-.146s.25-.037.375-.028a1.23 1.23 0 0 1 .361.097c.115.051.22.12.312.208s.169.181.229.292a1.19 1.19 0 0 1 .125.353c.023.125.026.25.007.375a1.06 1.06 0 0 1-.118.353 1 1 0 0 1-.222.305c-.093.088-.194.16-.306.215a1.37 1.37 0 0 1-.361.104c-.125.014-.25.007-.375-.02s-.24-.067-.347-.132-.208-.143-.291-.236a1.13 1.13 0 0 1-.195-.319c-.051-.115-.078-.238-.083-.367l-.014-.188.278-2.184.548-4.611c.172-1.618.179-3.618.021-5.998s-.613-4.919-1.381-7.614-1.947-5.139-3.548-7.316l-2.472-3.398c-.051-.092-.09-.189-.118-.291s-.042-.21-.042-.312.007-.206.035-.312a1.42 1.42 0 0 1 .104-.298c.046-.093.104-.178.174-.257a1.16 1.16 0 0 1 .236-.215 1.31 1.31 0 0 1 .278-.152 1.35 1.35 0 0 1 .305-.077c.102-.018.204-.02.306-.007a1.46 1.46 0 0 1 .312.07 1.6 1.6 0 0 1 .278.138c.088.061.169.13.243.208l.104.118z"/><path d="M110.487 125.613l-.055 2.357-.104 6.29-.077 7.586-.055 6.054.055 4.347.049 2.129a1.29 1.29 0 0 1-.125.361 1.34 1.34 0 0 1-.229.305 1.09 1.09 0 0 1-.313.208 1.2 1.2 0 0 1-.368.104 1.13 1.13 0 0 1-.375-.021c-.125-.028-.243-.074-.354-.139a1.16 1.16 0 0 1-.291-.249c-.083-.097-.148-.206-.195-.326a1.28 1.28 0 0 1-.083-.368 1.29 1.29 0 0 1 .042-.381c.037-.125.09-.24.159-.347a1.13 1.13 0 0 1 .264-.27c.102-.079.213-.139.333-.18a1.17 1.17 0 0 1 .375-.063 1.17 1.17 0 0 1 .375.063 1.14 1.14 0 0 1 .334.18 1.26 1.26 0 0 1 .263.277c.07.107.123.22.16.34a1.36 1.36 0 0 1 .042.381 1.22 1.22 0 0 1-.084.368 1.11 1.11 0 0 1-.194.326 1.25 1.25 0 0 1-.292.249c-.111.065-.229.111-.354.139a1.13 1.13 0 0 1-.375.021 1.21 1.21 0 0 1-.368-.104 1.1 1.1 0 0 1-.312-.208 1.31 1.31 0 0 1-.229-.305 1.29 1.29 0 0 1-.125-.361l-.028-.187.077-1.942.055-4.347-.055-6.054-.077-7.586-.104-6.29-.035-2.517a1.08 1.08 0 0 1 .077-.312c.037-.102.085-.196.145-.284s.137-.173.216-.243.173-.136.27-.187a1.16 1.16 0 0 1 .299-.111 1.25 1.25 0 0 1 .319-.042c.107 0 .213.014.32.042a1.09 1.09 0 0 1 .298.111 1.35 1.35 0 0 1 .271.187 1.33 1.33 0 0 1 .215.243 1.27 1.27 0 0 1 .146.284c.042.102.067.206.076.312l.021.16zm-29.803-11.298l.021.368a1.45 1.45 0 0 1-.132.7 1.51 1.51 0 0 1-.444.562c-.194.153-.407.252-.653.298a1.47 1.47 0 0 1-.708-.048 1.44 1.44 0 0 1-.611-.368 1.43 1.43 0 0 1-.368-.61 1.48 1.48 0 0 1-.049-.707 1.45 1.45 0 0 1 .299-.652 1.51 1.51 0 0 1 .562-.444 1.48 1.48 0 0 1 .701-.132 1.53 1.53 0 0 1 .68.215 1.48 1.48 0 0 1 .507.506l.194.312z"/><path d="M78.976 120.458l-1.645.77-2.611 1.199c-.639.282-1.416.181-2.333-.305-.912-.48-1.377-.973-1.395-1.477s.243-1.259.798-2.267l1.423-2.462 1.118-1.948.701-1.193a1.62 1.62 0 0 1 .389-.34c.148-.092.308-.157.479-.194a1.47 1.47 0 0 1 .514-.035 1.77 1.77 0 0 1 .5.132 1.8 1.8 0 0 1 .43.284 1.71 1.71 0 0 1 .312.409 1.52 1.52 0 0 1 .167.486 1.51 1.51 0 0 1 .007.52 1.61 1.61 0 0 1-.16.485 1.5 1.5 0 0 1-.305.416 1.57 1.57 0 0 1-.424.292 1.68 1.68 0 0 1-.5.145 1.59 1.59 0 0 1-.514-.027c-.171-.033-.331-.095-.479-.188a1.5 1.5 0 0 1-.396-.326c-.116-.134-.206-.279-.271-.436a1.72 1.72 0 0 1-.118-.507 1.62 1.62 0 0 1 .056-.513c.042-.166.111-.321.208-.464a1.56 1.56 0 0 1 .354-.382c.134-.106.285-.187.451-.242.167-.061.336-.091.507-.091s.347.026.514.077.315.136.458.242a1.5 1.5 0 0 1 .354.368c.097.143.171.298.222.464a1.74 1.74 0 0 1 .063.514 1.63 1.63 0 0 1-.111.506l-.09.242-.639.992-1.194 1.845c-.37.568-.759 1.366-1.166 2.392-.407 1.031-.822 1.327-1.243.888s-.363-.756.16-.95 1.301-.606 2.347-1.221l1.743-.998c.12-.047.245-.079.375-.098.13-.013.255-.013.375 0a1.46 1.46 0 0 1 .375.091 1.59 1.59 0 0 1 .34.18 1.87 1.87 0 0 1 .292.25c.088.097.162.203.222.319a1.69 1.69 0 0 1 .139.36 1.75 1.75 0 0 1 .042.382 1.26 1.26 0 0 1-.042.374 1.72 1.72 0 0 1-.139.361c-.056.11-.127.215-.215.312s-.178.182-.285.256l-.16.111zm-21.934 3.871l.548-2.254 1.472-5.055c.625-1.867 1.335-3.564 2.132-5.09s1.578-2.752 2.333-3.682l1.958-2.302c.555-.605 1.115-1.153 1.68-1.643a10.49 10.49 0 0 0 1.611-1.782c.509-.702 1.352-1.549 2.527-2.552s1.844-1.521 2.02-1.553.345-.037.521-.014.336.074.493.152a1.62 1.62 0 0 1 .424.305c.125.125.227.266.305.423a1.76 1.76 0 0 1 .146.499 1.63 1.63 0 0 1-.014.52c-.032.175-.093.339-.18.492a1.59 1.59 0 0 1-.326.402c-.129.115-.282.208-.444.278a1.6 1.6 0 0 1-.5.124 1.66 1.66 0 0 1-.521-.041 1.78 1.78 0 0 1-.479-.208c-.148-.097-.278-.213-.389-.347a1.69 1.69 0 0 1-.25-.458c-.06-.166-.092-.337-.097-.513a1.6 1.6 0 0 1 .069-.513 1.52 1.52 0 0 1 .236-.465c.102-.143.224-.266.368-.367a1.65 1.65 0 0 1 .465-.229 1.63 1.63 0 0 1 .521-.069 1.58 1.58 0 0 1 .507.097c.162.06.317.153.451.264a1.54 1.54 0 0 1 .347.388 1.52 1.52 0 0 1 .208.478 1.48 1.48 0 0 1 .035.513 1.6 1.6 0 0 1-.125.506c-.069.161-.162.308-.278.437a1.67 1.67 0 0 1-.41.326l-.229.132-.75.61-1.659 1.436-1.562 1.393a14.38 14.38 0 0 1-1.444 1.124 13.45 13.45 0 0 0-1.611 1.331c-.542.513-1.132 1.184-1.77 2.011-.643.832-1.312 1.958-2.006 3.377s-1.312 3.04-1.84 4.847l-1.194 4.993-.451 2.448a1.45 1.45 0 0 1-.153.319 1.29 1.29 0 0 1-.229.27 1.59 1.59 0 0 1-.285.215 1.39 1.39 0 0 1-.326.139 1.52 1.52 0 0 1-.354.055 1.49 1.49 0 0 1-.347-.027 1.45 1.45 0 0 1-.333-.118 1.47 1.47 0 0 1-.305-.188 1.86 1.86 0 0 1-.243-.263c-.069-.093-.127-.194-.173-.305a1.49 1.49 0 0 1-.097-.34 1.46 1.46 0 0 1-.014-.347l.014-.18zm21.003-31.55l.847-.118c.569-.079 1.189-.074 1.861.014s1.391.534 2.145 1.352a8.76 8.76 0 0 1 1.75 2.788c.407 1.045.711 1.992.91 2.843l.458 2.101c.107.546.065 1.175-.125 1.887s-.759 1.239-1.708 1.594l-1.625.583a1.61 1.61 0 0 1-.417.055c-.139.005-.278-.009-.417-.041s-.271-.081-.396-.146a1.71 1.71 0 0 1-.347-.229 1.65 1.65 0 0 1-.278-.312 1.49 1.49 0 0 1-.201-.367 1.73 1.73 0 0 1-.104-.402 1.39 1.39 0 0 1-.007-.416 1.72 1.72 0 0 1 .09-.41 1.8 1.8 0 0 1 .194-.374c.074-.116.164-.222.271-.319a1.62 1.62 0 0 1 .34-.236c.125-.069.541.037 1.25.319l1.902.846c.551.282 1.048.835 1.493 1.657s.56 1.535.361 2.15-.715 1.142-1.548 1.581-1.662.719-2.499.839l-2.562.312-1.625.111a1.96 1.96 0 0 1-.604-.152 1.93 1.93 0 0 1-.521-.34c-.157-.139-.287-.301-.389-.486a1.9 1.9 0 0 1-.208-.582 2.01 2.01 0 0 1-.014-.624c.028-.208.095-.407.188-.596s.22-.352.368-.5a1.86 1.86 0 0 1 .507-.36 1.8 1.8 0 0 1 .597-.174 1.89 1.89 0 0 1 .618.021 2.06 2.06 0 0 1 .583.215c.185.102.34.238.479.395a1.97 1.97 0 0 1 .333.527 2.1 2.1 0 0 1 .146.604c.014.208-.005.413-.055.617a2.08 2.08 0 0 1-.25.568c-.116.176-.257.329-.424.458s-.343.236-.541.305a1.97 1.97 0 0 1-.611.111 1.85 1.85 0 0 1-1.166-.367 2.1 2.1 0 0 1-.437-.444c-.12-.171-.211-.356-.271-.555a1.84 1.84 0 0 1-.076-.617c.01-.208.044-.416.118-.61s.178-.379.313-.541a1.97 1.97 0 0 1 .465-.409 2.04 2.04 0 0 1 .576-.243l.305-.076 1.18-.077 2.444-.228c.838-.102 1.328.085 1.472.561s.014.516-.403.104l-1.361-1.255c-.486-.42-.384-.513.305-.277s.967.377.833.409a1.61 1.61 0 0 1-.417.055c-.139.005-.278-.009-.417-.041s-.271-.081-.396-.146a1.71 1.71 0 0 1-.347-.229 1.65 1.65 0 0 1-.278-.312 1.49 1.49 0 0 1-.201-.367 1.73 1.73 0 0 1-.104-.402 1.39 1.39 0 0 1-.007-.416c.014-.139.044-.276.09-.41a1.8 1.8 0 0 1 .194-.374c.074-.116.164-.222.271-.319a1.62 1.62 0 0 1 .34-.236l.944-.575c.509-.319.692-.814.548-1.484s-.412-1.387-.805-2.15-.803-1.38-1.229-1.838-.923-.661-1.493-.61l-1.041.069a1.93 1.93 0 0 1-.389-.055 1.68 1.68 0 0 1-.368-.139c-.116-.065-.222-.141-.319-.229s-.183-.187-.257-.298a1.76 1.76 0 0 1-.18-.347c-.046-.12-.076-.254-.09-.388a1.75 1.75 0 0 1 0-.381c.019-.134.051-.261.097-.381s.113-.24.187-.347.167-.203.264-.291a1.7 1.7 0 0 1 .326-.222 1.57 1.57 0 0 1 .375-.132l.187-.049zm-19.712 35.016l1.854 1.456c1.231.975 2.349 1.685 3.353 2.129s1.925.758 2.763.943l2.659.52 3.194.665 1.986.52a1.14 1.14 0 0 1 .326.229 1.2 1.2 0 0 1 .236.312 1.38 1.38 0 0 1 .125.375c.019.134.016.266-.007.395s-.065.259-.125.375a1.26 1.26 0 0 1-.243.318 1.23 1.23 0 0 1-.333.215c-.125.055-.248.091-.382.104a1.17 1.17 0 0 1-.396-.027 1.33 1.33 0 0 1-.368-.146c-.116-.069-.211-.155-.299-.256a1.45 1.45 0 0 1-.201-.347c-.046-.125-.074-.252-.083-.382a1.27 1.27 0 0 1 .049-.395c.037-.129.093-.249.167-.36s.171-.201.278-.285a1.23 1.23 0 0 1 .354-.18 1.21 1.21 0 0 1 .389-.062 1.12 1.12 0 0 1 .389.069 1.06 1.06 0 0 1 .347.187 1.24 1.24 0 0 1 .271.291 1.29 1.29 0 0 1 .167.361c.032.129.046.261.042.395a1.24 1.24 0 0 1-.09.382 1.22 1.22 0 0 1-.208.339 1.13 1.13 0 0 1-.305.25c-.116.069-.238.118-.368.146a1.28 1.28 0 0 1-.396.02l-.201-.027-1.625-.548c-1.088-.365-2.12-.615-3.097-.749l-2.937-.52c-.981-.208-2.074-.555-3.277-1.04s-2.449-1.184-3.735-2.094l-2.048-1.484a1.55 1.55 0 0 1-.208-.257c-.06-.093-.109-.196-.146-.298a1.55 1.55 0 0 1-.062-.326c-.009-.106-.005-.215.014-.326s.044-.217.09-.319a1.46 1.46 0 0 1 .167-.291 1.25 1.25 0 0 1 .229-.236 1.83 1.83 0 0 1 .278-.18c.097-.051.208-.081.319-.104a1.25 1.25 0 0 1 .319-.028c.106.005.222.023.333.056a1.49 1.49 0 0 1 .306.131l.139.084z"/><path d="M77.312 136.084l.59 2.462c.398 1.65 1.041 3.49 1.93 5.52l2.361 5.214 1.68 3.135c.426.633.838 1.391 1.236 2.274l.632 1.533c.028.138.035.279.021.423-.019.138-.058.272-.118.402s-.146.238-.243.34a1.24 1.24 0 0 1-.34.249 1.32 1.32 0 0 1-.396.132c-.144.018-.285.016-.424-.007a1.21 1.21 0 0 1-.396-.139 1.28 1.28 0 0 1-.326-.256 1.39 1.39 0 0 1-.236-.354 1.35 1.35 0 0 1-.104-.402 1.3 1.3 0 0 1 .028-.423 1.29 1.29 0 0 1 .16-.388 1.35 1.35 0 0 1 .278-.312 1.27 1.27 0 0 1 .361-.215c.13-.05.273-.074.417-.084a1.3 1.3 0 0 1 .417.056 1.18 1.18 0 0 1 .375.18 1.29 1.29 0 0 1 .299.291 1.21 1.21 0 0 1 .194.375c.042.134.063.273.063.416a1.39 1.39 0 0 1-.076.409 1.24 1.24 0 0 1-.201.368 1.4 1.4 0 0 1-.306.284c-.12.078-.248.136-.382.173a1.3 1.3 0 0 1-.424.035c-.144-.009-.275-.039-.41-.09a1.37 1.37 0 0 1-.354-.222 1.21 1.21 0 0 1-.264-.326l-.111-.18-.361-1.172a10.5 10.5 0 0 0-1.007-2.254l-1.77-3.259-2.617-5.374c-1-2.131-1.74-4.01-2.222-5.638l-.757-2.607a1.68 1.68 0 0 1-.007-.34 1.61 1.61 0 0 1 .229-.645 1.36 1.36 0 0 1 .229-.263 1.29 1.29 0 0 1 .278-.201 1.55 1.55 0 0 1 .319-.132 1.68 1.68 0 0 1 .34-.049c.116-.005.224.012.34.035a1.56 1.56 0 0 1 .319.118 1.36 1.36 0 0 1 .292.187c.088.074.167.164.236.257s.12.192.167.298l.063.166zm56.224-10.855l.035 2.163.028 5.957-.028 7.357-.125 5.235a25.72 25.72 0 0 1-.451 3.287l-.41 1.824c-.051.12-.12.227-.208.319s-.185.178-.292.243a1.31 1.31 0 0 1-.361.125c-.129.023-.259.025-.388.006s-.253-.057-.368-.117a1.15 1.15 0 0 1-.306-.222c-.088-.092-.167-.197-.222-.312-.056-.121-.093-.245-.111-.375a1.19 1.19 0 0 1 .014-.381c.023-.129.074-.245.139-.361a1.04 1.04 0 0 1 .243-.291 1.15 1.15 0 0 1 .326-.208c.116-.051.238-.081.368-.09a1.25 1.25 0 0 1 .389.034c.13.032.24.086.347.16a1.13 1.13 0 0 1 .278.257 1.31 1.31 0 0 1 .187.332 1.32 1.32 0 0 1 .069.382c0 .129-.018.256-.055.381a1.4 1.4 0 0 1-.174.34c-.078.106-.171.196-.277.27s-.213.13-.334.167-.252.053-.382.048a1.23 1.23 0 0 1-.381-.076 1.15 1.15 0 0 1-.334-.194 1.16 1.16 0 0 1-.25-.284 1.26 1.26 0 0 1-.152-.354c-.028-.129-.037-.259-.028-.388l.021-.188.451-1.407a10.93 10.93 0 0 0 .521-2.982l.007-5.159-.139-7.316-.243-5.901-.139-2.33a1.07 1.07 0 0 1 .062-.319c.037-.106.084-.208.139-.305a1.36 1.36 0 0 1 .209-.25c.083-.078.171-.145.263-.201a1.5 1.5 0 0 1 .306-.131c.106-.033.215-.051.326-.056s.213.005.32.028.217.058.319.104.19.104.278.173a1.22 1.22 0 0 1 .229.236 1.79 1.79 0 0 1 .166.291 1.52 1.52 0 0 1 .091.312l.027.167z"/><path d="M130.822 152.715l-.923 1.283-1.819 2.296c-.602.674-1.139 1.352-1.611 2.031l-.875 1.186c-.115.106-.245.192-.389.257a1.37 1.37 0 0 1-.451.124 1.42 1.42 0 0 1-.465-.02 1.44 1.44 0 0 1-.437-.181 1.35 1.35 0 0 1-.355-.298 1.52 1.52 0 0 1-.243-.402c-.06-.148-.092-.301-.097-.458s.007-.312.049-.464a1.33 1.33 0 0 1 .201-.423c.088-.134.195-.248.32-.34a1.39 1.39 0 0 1 .416-.222c.148-.051.301-.076.458-.076.162 0 .317.025.466.076a1.4 1.4 0 0 1 .409.222c.125.097.239.21.327.34s.152.27.194.423.058.309.049.471a1.49 1.49 0 0 1-.098.451 1.47 1.47 0 0 1-.243.402c-.102.12-.222.222-.361.305a1.56 1.56 0 0 1-.437.174 1.42 1.42 0 0 1-.465.02c-.158-.018-.308-.06-.452-.124a1.34 1.34 0 0 1-.388-.264c-.115-.111-.209-.236-.278-.374a1.5 1.5 0 0 1-.153-.444c-.023-.157-.023-.312 0-.465a1.5 1.5 0 0 1 .153-.444l.111-.208.861-1.026 1.618-1.893c.509-.573 1.025-1.315 1.548-2.226l.896-1.505a1.53 1.53 0 0 1 .27-.249c.097-.074.204-.134.32-.181s.229-.085.354-.104.24-.02.361-.006a1.42 1.42 0 0 1 .361.076c.116.037.224.09.326.159s.201.141.285.229a1.53 1.53 0 0 1 .222.298 1.51 1.51 0 0 1 .139.34 1.6 1.6 0 0 1 .055.361 1.56 1.56 0 0 1-.027.36 1.6 1.6 0 0 1-.125.347l-.077.166zm-17.56-.396l1.472 1.102c.982.731 1.986 1.628 3.013 2.691l2.417 2.649c.578.703 1.108 1.428 1.59 2.177l.798 1.332c.051.134.076.272.076.416a1.35 1.35 0 0 1-.055.43 1.28 1.28 0 0 1-.188.381c-.083.12-.185.222-.305.305a1.27 1.27 0 0 1-.382.187c-.139.047-.28.067-.423.063-.149-.005-.29-.033-.424-.084a1.32 1.32 0 0 1-.375-.208 1.42 1.42 0 0 1-.285-.319 1.32 1.32 0 0 1-.173-.395c-.033-.138-.044-.279-.035-.423s.049-.286.104-.416.132-.256.229-.367a1.33 1.33 0 0 1 .334-.264c.125-.074.259-.125.402-.152a1.25 1.25 0 0 1 .431-.007c.144.023.28.06.409.124s.246.144.348.25a1.24 1.24 0 0 1 .256.347c.061.129.102.266.125.409a1.35 1.35 0 0 1-.013.43 1.46 1.46 0 0 1-.146.402c-.074.125-.165.236-.271.333s-.227.173-.361.229a1.29 1.29 0 0 1-.417.104c-.143.014-.284.002-.423-.035a1.2 1.2 0 0 1-.396-.166c-.125-.079-.231-.174-.319-.285l-.139-.173-.493-1.019c-.333-.68-.759-1.341-1.278-1.984-.523-.637-1.263-1.412-2.221-2.323s-1.963-1.691-3-2.343l-1.68-1.089c-.088-.079-.166-.166-.236-.264a1.86 1.86 0 0 1-.167-.312c-.041-.111-.069-.226-.083-.346a1.44 1.44 0 0 1 0-.347c.014-.116.042-.229.083-.34a1.38 1.38 0 0 1 .167-.312c.065-.097.141-.185.229-.263a1.69 1.69 0 0 1 .292-.201c.106-.056.217-.097.333-.125a1.47 1.47 0 0 1 .347-.042c.116 0 .232.014.347.042s.22.069.327.125l.159.076zm2.984-16.726l1.132-.27 2.395-.541a20.8 20.8 0 0 0 2.271-.597c.675-.222 1.328-.48 1.958-.776l1.124-.486c.121-.037.243-.058.368-.062a1.48 1.48 0 0 1 .382.035 1.44 1.44 0 0 1 .354.117 1.5 1.5 0 0 1 .32.208 1.47 1.47 0 0 1 .257.271c.078.102.141.21.187.326a1.37 1.37 0 0 1 .104.367c.023.125.028.25.014.375-.009.125-.035.247-.076.367a1.58 1.58 0 0 1-.167.34 1.42 1.42 0 0 1-.236.291 1.64 1.64 0 0 1-.306.229c-.111.06-.083.594.084 1.602s.051 2.066-.333 3.162-.861 2.094-1.445 2.996c-.578.906-1.266 1.611-2.062 2.115s-1.62.691-2.485.561-1.586-.386-2.159-.769-1.352-1.219-2.333-2.504l-1.542-2.191c-.046-.171-.062-.347-.048-.527a1.45 1.45 0 0 1 .118-.506c.069-.167.162-.317.277-.451a1.54 1.54 0 0 1 .403-.333 1.78 1.78 0 0 1 .493-.187c.176-.037.352-.044.528-.021s.345.072.507.146a1.45 1.45 0 0 1 .423.305 1.69 1.69 0 0 1 .313.423 1.73 1.73 0 0 1 .159.499 1.49 1.49 0 0 1-.007.52c-.032.176-.09.342-.173.5a1.7 1.7 0 0 1-.327.416 1.42 1.42 0 0 1-.43.284 1.64 1.64 0 0 1-.514.139 1.66 1.66 0 0 1-.521-.042 1.42 1.42 0 0 1-.486-.201c-.152-.093-.284-.208-.395-.347s-.204-.284-.264-.451-.102-.337-.111-.513a1.67 1.67 0 0 1 .069-.527 1.61 1.61 0 0 1 .222-.471 1.68 1.68 0 0 1 .368-.375c.144-.106.301-.187.472-.242a1.67 1.67 0 0 1 .521-.077 1.62 1.62 0 0 1 .514.09 1.5 1.5 0 0 1 .458.257c.139.111.257.24.354.388l.146.222.604 1.033c.398.689.822 1.306 1.271 1.852a2.36 2.36 0 0 0 1.722.894c.699.05 1.263-.277 1.68-.984s.757-1.56 1.02-2.559.442-1.895.549-2.69.296-1.702.569-2.719.465-1.548.59-1.581a1.63 1.63 0 0 1 .368-.062 1.48 1.48 0 0 1 .382.035 1.44 1.44 0 0 1 .354.117 1.5 1.5 0 0 1 .32.208 1.47 1.47 0 0 1 .257.271c.078.102.141.21.187.326a1.37 1.37 0 0 1 .104.367c.023.125.028.25.014.375-.009.125-.035.247-.076.367a1.58 1.58 0 0 1-.167.34 1.42 1.42 0 0 1-.236.291 1.64 1.64 0 0 1-.306.229c-.111.06-.273.104-.486.132s-.597.136-1.138.326l-1.937.617-2.361.617-2.374.562-1.313.291c-.106.009-.215.007-.326-.007a1.38 1.38 0 0 1-.326-.083 1.43 1.43 0 0 1-.299-.16 1.39 1.39 0 0 1-.25-.222 1.68 1.68 0 0 1-.187-.277 1.18 1.18 0 0 1-.111-.312 1.33 1.33 0 0 1-.042-.326c0-.111.014-.222.042-.333s.069-.215.125-.312a1.36 1.36 0 0 1 .194-.277 1.25 1.25 0 0 1 .25-.215c.093-.065.192-.116.299-.153l.159-.062z"/><path d="M76.176 136.925l-1.847-.603-3.853-1.255-3.791-1.255-3.749-1.2c-1.31-.407-2.495-1.04-3.555-1.9s-1.678-2.103-1.854-3.731-.072-2.967.326-4.008l1.208-3.446c.407-1.248.662-2.371.764-3.37l.437-3.446c.19-1.309.37-2.18.542-2.615s.414-.832.715-1.192a4.3 4.3 0 0 1 1.055-.902 4.26 4.26 0 0 1 1.285-.513 4.38 4.38 0 0 1 1.389-.083 4.35 4.35 0 0 1 1.34.367 4.3 4.3 0 0 1 1.152.77 4.14 4.14 0 0 1 .84 1.103 4.32 4.32 0 0 1 .451 1.31 4.22 4.22 0 0 1 .007 1.387 4.19 4.19 0 0 1-.444 1.318c-.222.416-.495.786-.833 1.109a4.23 4.23 0 0 1-1.146.784 4.22 4.22 0 0 1-1.333.374c-.468.051-.93.028-1.389-.069s-.889-.273-1.291-.513-.757-.532-1.062-.888-.546-.751-.722-1.186a4.26 4.26 0 0 1-.306-1.359 4.42 4.42 0 0 1 .146-1.373 4.24 4.24 0 0 1 .583-1.262 4.2 4.2 0 0 1 .951-1.012 4.33 4.33 0 0 1 1.222-.652 4.17 4.17 0 0 1 1.368-.229c.468 0 .926.067 1.375.215a4.28 4.28 0 0 1 1.229.645c.375.282.694.617.958 1.005a4.25 4.25 0 0 1 .583 1.256 4.22 4.22 0 0 1 .16 1.38l-.035.7-.396 2.732c-.264 1.821-.643 3.502-1.139 5.041s-1.264 2.695-2.305 3.481-.967 1.436.208 1.963l3.437 1.386 3.742 1.2 3.916 1.207 2.229.769a3.48 3.48 0 0 1 .722.451 3.34 3.34 0 0 1 .59.603 3.32 3.32 0 0 1 .43.729 3.38 3.38 0 0 1 .243.811 3.25 3.25 0 0 1 .042.846c-.023.282-.072.559-.16.832a3.63 3.63 0 0 1-.354.77 3.64 3.64 0 0 1-.535.658c-.204.199-.428.37-.674.514a3.24 3.24 0 0 1-.778.339c-.273.084-.551.132-.833.146s-.562-.007-.84-.062l-.423-.077zm10.772-16.237l1.069 2.018c.718 1.35 1.502 2.434 2.354 3.252a34.57 34.57 0 0 0 2.652 2.302l2.715 2.094c.893.671 2.104 1.408 3.631 2.212a33.99 33.99 0 0 1 4.423 2.781c1.421 1.049 2.553 2.39 3.395 4.022s1.363 2.968 1.562 3.994l.521 3.023.444 3.828.299 4.549a21.15 21.15 0 0 1-.312 4.362c-.26 1.433-.505 2.355-.736 2.767a4.38 4.38 0 0 1-.868 1.081c-.352.31-.743.557-1.174.742a4.11 4.11 0 0 1-1.347.34 4.33 4.33 0 0 1-1.381-.111c-.454-.115-.88-.298-1.278-.548a4.22 4.22 0 0 1-1.034-.929 4.32 4.32 0 0 1-.688-1.206 4.14 4.14 0 0 1-.256-1.36 4.32 4.32 0 0 1 .18-1.373 4.38 4.38 0 0 1 .618-1.248c.273-.379.602-.705.986-.977a4.28 4.28 0 0 1 1.243-.618c.449-.138.907-.201 1.374-.187a4.14 4.14 0 0 1 1.361.257 4.19 4.19 0 0 1 1.215.686 4.16 4.16 0 0 1 .924 1.026c.254.398.437.823.548 1.276s.155.92.118 1.387a4.23 4.23 0 0 1-.333 1.346c-.185.429-.435.818-.75 1.164-.315.352-.676.643-1.083.874a4.23 4.23 0 0 1-1.298.479c-.463.087-.926.099-1.389.034a4.2 4.2 0 0 1-1.333-.402 4.16 4.16 0 0 1-1.125-.811c-.333-.328-.604-.703-.812-1.124s-.345-.862-.41-1.324a4.22 4.22 0 0 1 .035-1.387l.132-.693.173-.617c.112-.416.174-1.311.188-2.684l-.035-3.973c-.041-1.272-.139-2.418-.291-3.44l-.486-3.023c-.172-.989-.586-1.946-1.243-2.871-.657-.92-1.93-1.967-3.819-3.141l-4.159-2.864-2.93-2.427c-1.06-.888-2.212-1.96-3.458-3.218-1.236-1.262-2.256-2.556-3.062-3.883l-1.368-2.378a3.39 3.39 0 0 1-.229-.812 3.42 3.42 0 0 1-.028-.839 3.36 3.36 0 0 1 .174-.825 3.48 3.48 0 0 1 .368-.756 3.33 3.33 0 0 1 .542-.651 3.37 3.37 0 0 1 .673-.5 3.33 3.33 0 0 1 .785-.326 3.42 3.42 0 0 1 .833-.131 3.36 3.36 0 0 1 .833.076 3.68 3.68 0 0 1 .798.27 3.78 3.78 0 0 1 .715.458c.218.18.41.384.576.61l.257.347zm15.072-2.956l1.687.25c1.125.166 2.33.138 3.617-.083s2.423-.541 3.395-.957 2.301-1.075 3.985-1.977c1.69-.906 2.761-1.366 3.215-1.38s.891.035 1.326.16.831.324 1.201.582a4.06 4.06 0 0 1 .958.937c.269.36.47.755.604 1.185a4.16 4.16 0 0 1 .202 1.325c-.009.453-.09.892-.243 1.317a3.88 3.88 0 0 1-.646 1.165c-.278.356-.606.657-.986.902-.375.245-.782.425-1.222.541a4.11 4.11 0 0 1-1.326.117 4.19 4.19 0 0 1-1.305-.305 4.02 4.02 0 0 1-1.132-.7 4.01 4.01 0 0 1-.854-1.033c-.227-.389-.384-.805-.472-1.248a3.9 3.9 0 0 1-.049-1.332c.056-.448.181-.876.375-1.283a4 4 0 0 1 .771-1.095 4.04 4.04 0 0 1 1.076-.791 4.26 4.26 0 0 1 1.271-.409 4.07 4.07 0 0 1 1.34.028c.444.078.865.226 1.263.444a4.06 4.06 0 0 1 1.049.825 4.19 4.19 0 0 1 .736 1.116 4.18 4.18 0 0 1 .333 1.297 4.14 4.14 0 0 1-.09 1.331 4.15 4.15 0 0 1-.521 1.235 4.01 4.01 0 0 1-.882.998c-.347.282-.731.504-1.152.666l-.639.243a249.38 249.38 0 0 1-1.805.922c-1.208.615-2.493 1.135-3.854 1.56-1.36.43-2.668.77-3.922 1.019s-2.421.333-3.486.25l-3.284-.416-2.096-.409c-.278-.083-.542-.197-.792-.34a3.44 3.44 0 0 1-.694-.52 3.63 3.63 0 0 1-.549-.666 3.74 3.74 0 0 1-.368-.776c-.093-.278-.15-.56-.174-.846a3.54 3.54 0 0 1 .028-.86 3.36 3.36 0 0 1 .243-.825 3.75 3.75 0 0 1 .43-.749 3.46 3.46 0 0 1 .597-.624c.227-.185.472-.34.736-.465s.532-.217.819-.277a3.77 3.77 0 0 1 .854-.07l.431.021zm14.904 31.642l1.701 2.136c1.134 1.433 2.081 2.767 2.84 4.001l2.034 3.447c.593 1.072.933 1.775 1.021 2.108a3.1 3.1 0 0 1 .09 1.012 3.11 3.11 0 0 1-.229.985 3.15 3.15 0 0 1-.542.866c-.226.255-.488.47-.784.645a3.15 3.15 0 0 1-.951.361c-.338.069-.676.083-1.014.042a3.04 3.04 0 0 1-.979-.292 3.19 3.19 0 0 1-.833-.582 3.04 3.04 0 0 1-.604-.818c-.157-.306-.262-.627-.313-.964s-.044-.682.021-1.02.172-.656.334-.957a3.1 3.1 0 0 1 .631-.797c.255-.236.537-.423.847-.562a3.12 3.12 0 0 1 .986-.256c.342-.032.681-.01 1.014.069s.653.21.944.395a3.1 3.1 0 0 1 .764.666c.217.268.389.562.514.881s.187.651.201.998a3.07 3.07 0 0 1-.125 1.006 3.09 3.09 0 0 1-.444.915 3.04 3.04 0 0 1-.708.728 3.25 3.25 0 0 1-.903.465c-.329.101-.664.15-1.007.145s-.682-.064-1.006-.18-.621-.277-.889-.485a3.06 3.06 0 0 1-.688-.749l-.284-.43-.667-1.38-1.374-2.809c-.473-.947-1.333-2.08-2.583-3.397l-2.104-2.296c-.143-.212-.261-.441-.354-.686a3.27 3.27 0 0 1-.174-.749c-.027-.254-.025-.511.007-.77a3.02 3.02 0 0 1 .195-.742c.092-.245.213-.471.361-.679a3.4 3.4 0 0 1 .521-.576 2.99 2.99 0 0 1 .638-.43 3.18 3.18 0 0 1 .722-.27 3.06 3.06 0 0 1 .764-.083c.259 0 .514.032.764.097s.495.159.722.284a3.11 3.11 0 0 1 .632.444l.291.263z" fill-opacity=".1"/><path d="M92.846 103.395l1.021 2.434c.685 1.627 1.493 2.986 2.423 4.077s1.944 1.676 3.027 1.755 2.282.036 3.597-.125 2.49-.412 3.527-.763 2.094-.841 3.173-1.484l3.2-2.108 3.444-2.413 3.631-2.635c1.185-.911 2.051-1.993 2.597-3.245l1.944-4.535 2.124-4.84 1.979-4.5a37.98 37.98 0 0 0 1.646-4.771c.444-1.632.678-3.067.701-4.306l.034-3.453c0-1.063.042-1.835.125-2.316s.234-.943.466-1.373.525-.814.881-1.151c.361-.333.764-.601 1.208-.804a4.45 4.45 0 0 1 1.396-.381c.491-.051.974-.023 1.451.083s.926.287 1.347.541.782.569 1.097.943.562.795.743 1.248a4.41 4.41 0 0 1 .305 1.415c.023.49-.032.971-.166 1.442a4.32 4.32 0 0 1-.611 1.311 4.52 4.52 0 0 1-1.007 1.047c-.389.296-.817.52-1.284.673s-.94.229-1.431.229-.967-.086-1.43-.243-.889-.386-1.277-.686-.72-.647-.993-1.054-.475-.846-.604-1.317a4.3 4.3 0 0 1-.146-1.442c.028-.49.134-.962.319-1.415s.431-.864.75-1.234a4.4 4.4 0 0 1 1.111-.936 4.43 4.43 0 0 1 1.354-.527c.477-.102.958-.125 1.444-.069s.951.185 1.396.388a4.46 4.46 0 0 1 2.069 1.983c.226.43.379.888.458 1.373l.111.721-.028 1.692-.167 3.557c-.088 1.244-.293 2.513-.617 3.807l-1.417 5.194-1.625 4.826-1.534 3.349-1.395 3.155-1.104 2.857c-.371.985-.921 2.136-1.653 3.453s-1.437 2.455-2.117 3.398c-.685.952-1.681 1.932-2.986 2.94l-3.978 2.864-4.006 2.704c-1.324.897-2.655 1.699-3.992 2.407-1.343.707-2.884 1.308-4.624 1.803s-3.516.758-5.326.79c-1.805.037-3.33-.062-4.575-.298s-2.393-.617-3.457-1.144-2.099-1.373-3.09-2.538c-.991-1.17-1.766-2.249-2.326-3.238l-2.097-3.821-1.389-2.725c-.088-.264-.144-.534-.167-.812a3.25 3.25 0 0 1 .035-.818 3.36 3.36 0 0 1 .222-.791c.111-.254.25-.492.416-.714a3.16 3.16 0 0 1 .569-.596c.213-.176.444-.324.694-.444.25-.115.511-.201.785-.256.268-.061.539-.084.812-.07s.551.053.819.132a3.28 3.28 0 0 1 .757.319c.241.139.461.303.66.492s.379.407.528.638l.222.354z" fill-opacity=".1"/><path d="M131.686 67.272l-1.111-.437c-.736-.296-1.546.141-2.43 1.311s-1.361 2.275-1.43 3.315-.174 1.778-.313 2.212a4.25 4.25 0 0 1-.611 1.2 4.14 4.14 0 0 1-.965.943 4.05 4.05 0 0 1-1.215.59 4.06 4.06 0 0 1-1.333.166c-.458-.014-.9-.102-1.326-.264a4.17 4.17 0 0 1-1.166-.673 4.16 4.16 0 0 1-.896-1.012 4.14 4.14 0 0 1-.521-1.241c-.106-.444-.139-.892-.097-1.345s.155-.888.34-1.304.426-.793.736-1.13a4.01 4.01 0 0 1 1.056-.832c.402-.222.826-.374 1.27-.458a4.02 4.02 0 0 1 1.354-.021 4.21 4.21 0 0 1 1.285.402 4.23 4.23 0 0 1 1.09.797 4.25 4.25 0 0 1 .777 1.103c.199.407.326.841.382 1.29s.044.904-.049 1.352a4.16 4.16 0 0 1-.472 1.262 4.21 4.21 0 0 1-.861 1.04c-.342.3-.722.538-1.138.714a4.14 4.14 0 0 1-1.312.312c-.459.032-.908-.007-1.347-.118s-.852-.298-1.236-.548a4.15 4.15 0 0 1-.993-.908 4.1 4.1 0 0 1-.653-1.179 3.96 3.96 0 0 1-.243-1.324l-.014-.687c0 .005.088-.502.264-1.519s.708-2.434 1.597-4.265 1.856-3.31 2.902-4.438 2.213-1.937 3.499-2.413 2.62-.546 4-.194 2.423.705 3.131 1.061l1.444.77a3.56 3.56 0 0 1 .694.541 3.57 3.57 0 0 1 .542.693 3.68 3.68 0 0 1 .361.804c.088.282.141.571.16.867s.002.58-.049.867a3.94 3.94 0 0 1-.264.846 3.45 3.45 0 0 1-.458.749c-.181.236-.389.444-.625.624s-.481.337-.75.458a3.82 3.82 0 0 1-.847.264 3.64 3.64 0 0 1-.868.049 3.69 3.69 0 0 1-.868-.16l-.423-.132zM91.154 53.029l-2.132 2.628c-1.421 1.757-2.365 3.079-2.833 3.966l-1.25 2.399c-.366.712-.66 1.195-.882 1.449a2.98 2.98 0 0 1-.778.645c-.292.171-.606.291-.944.361a3.07 3.07 0 0 1-1.007.042 3.17 3.17 0 0 1-.965-.277c-.306-.148-.581-.34-.826-.575s-.447-.511-.604-.811-.255-.624-.306-.957-.046-.673.014-1.005.167-.656.333-.957a3.09 3.09 0 0 1 .618-.79c.25-.231.53-.416.84-.555s.637-.224.979-.257a3.03 3.03 0 0 1 1 .069 3.01 3.01 0 0 1 .937.381 3.22 3.22 0 0 1 .757.659 3.06 3.06 0 0 1 .507.874 3.02 3.02 0 0 1 .083 1.983 2.98 2.98 0 0 1-.43.908 2.97 2.97 0 0 1-.701.721 3.25 3.25 0 0 1-.903.465 3.15 3.15 0 0 1-.993.146c-.343-.005-.673-.062-.993-.173a2.97 2.97 0 0 1-.889-.485 3.03 3.03 0 0 1-.681-.735c-.186-.282-.326-.594-.41-.922a3.14 3.14 0 0 1-.097-.998 3.12 3.12 0 0 1 .229-.985l.194-.471.708-.957 1.708-2.372 2.853-4.237 2.118-3.093a2.7 2.7 0 0 1 .569-.478 3.17 3.17 0 0 1 .667-.326 2.92 2.92 0 0 1 .722-.16 3.02 3.02 0 0 1 .736.021 3.21 3.21 0 0 1 .715.194 3.07 3.07 0 0 1 .646.367 2.67 2.67 0 0 1 .541.506 2.86 2.86 0 0 1 .403.617 3.08 3.08 0 0 1 .25.7c.051.245.074.488.069.728a3.28 3.28 0 0 1-.111.735 2.87 2.87 0 0 1-.285.686l-.18.326z" fill-opacity=".1"/><path d="M85.186 48.759l-1.278 2.573-2.743 5.18c-.981 1.743-1.715 3.377-2.201 4.902l-.993 2.704c-.176.268-.389.504-.639.707a2.94 2.94 0 0 1-.833.465 2.93 2.93 0 0 1-.937.18c-.319.009-.634-.035-.944-.132a2.89 2.89 0 0 1-.854-.423c-.259-.19-.484-.414-.673-.673a3.1 3.1 0 0 1-.424-.86 2.94 2.94 0 0 1-.125-.943 2.97 2.97 0 0 1 .18-.936 2.87 2.87 0 0 1 .472-.825 3.1 3.1 0 0 1 .708-.638 3.04 3.04 0 0 1 .882-.374 3.12 3.12 0 0 1 .951-.076 2.92 2.92 0 0 1 .923.236 2.84 2.84 0 0 1 .805.513c.236.217.433.465.59.742s.273.58.333.895a2.89 2.89 0 0 1 .021.957c-.042.319-.137.622-.285.908a2.94 2.94 0 0 1-.555.77c-.227.227-.486.411-.778.555s-.59.236-.909.277a2.74 2.74 0 0 1-.951-.028 2.89 2.89 0 0 1-.896-.326c-.282-.162-.53-.363-.743-.603s-.384-.502-.514-.797-.201-.606-.229-.929.005-.636.083-.95l.118-.465.514-.922 1.243-2.261 1.916-3.904 2.229-5.242 1.215-2.982a2.94 2.94 0 0 1 .444-.569 2.65 2.65 0 0 1 .562-.451c.204-.125.421-.224.653-.298s.468-.12.708-.139.474-.002.715.035.465.113.687.215.428.217.618.361a2.8 2.8 0 0 1 .514.506c.153.19.28.395.382.617a3.14 3.14 0 0 1 .215.68 2.87 2.87 0 0 1 .049.714 2.64 2.64 0 0 1-.125.707l-.104.347z" fill-opacity=".1"/></g><path d="M91.817 1.985l6.36-.029 14.347-.137 16.376-.196 16.885-.206 17.032-.206 17.081-.206c5.704-.065 9.947.506 12.73 1.715 2.777 1.222 4.541 4.175 5.292 8.859.751 4.691 1.192 9.747 1.323 15.17l.216 16.552-.01 16.895-.069 16.993-.029 17.013.088 17.022.137 17.022.147 17.023.137 17.022.138 17.052c.045 5.69-.543 9.92-1.764 12.69-1.216 2.777-4.182 4.551-8.899 5.322-4.71.771-9.79 1.235-15.238 1.391l-16.621.294-16.973.069-17.072.01-17.1.059-17.101.166-17.101.226-17.11.225-17.101.225-17.12.226c-5.716.072-9.97-.5-12.759-1.715-2.783-1.215-4.547-4.172-5.292-8.869-.738-4.697-1.166-9.757-1.284-15.18l-.186-16.572.049-16.914.098-17.003.059-17.042-.049-17.042-.108-17.042-.118-17.042L1.1 38.783l-.098-17.061c-.039-5.697.549-9.934 1.764-12.71 1.222-2.77 4.188-4.541 8.898-5.312 4.704-.771 9.774-1.232 15.209-1.382l16.601-.265 16.944-.049 17.032.01 17.071-.039 17.061-.147 19.992-.225 11.662-.088c.137.026.264.069.382.127.124.065.235.147.333.245.092.098.167.206.226.323.058.124.094.255.107.392a1.1 1.1 0 0 1-.019.412 1.13 1.13 0 0 1-.147.372c-.072.118-.16.222-.265.314-.098.085-.212.154-.343.206a1.14 1.14 0 0 1-.392.088c-.137.013-.271 0-.402-.039-.137-.033-.261-.088-.372-.167a1.47 1.47 0 0 1-.294-.274c-.085-.111-.15-.232-.196-.363a1.2 1.2 0 0 1 0-.804c.039-.118.101-.232.186-.343a1.35 1.35 0 0 1 .294-.284c.111-.078.232-.134.363-.167a1.23 1.23 0 0 1 .402-.049c.137.007.271.036.401.088.125.046.239.114.343.206.111.085.2.186.265.304a1.19 1.19 0 0 1 .157.372 1.04 1.04 0 0 1 .019.402c-.013.137-.045.268-.098.392a1.17 1.17 0 0 1-.235.333 1.27 1.27 0 0 1-.313.245c-.125.065-.252.111-.383.137l-.205.029h-11.456c-7.638.007-14.302.003-19.992-.01a2478.11 2478.11 0 0 0-17.071.039L77.47 4.19l-17.032.225-16.905.284-16.395.49c-5.331.222-10.13.588-14.396 1.098-4.273.51-6.772 1.8-7.497 3.871s-1.107 5.939-1.147 11.603l-.118 17.022-.127 17.042-.118 17.042-.118 17.042-.069 17.042.059 17.032.127 17.003.186 16.875.402 16.376c.189 5.318.529 10.107 1.019 14.367.49 4.266 1.771 6.755 3.842 7.467s5.948 1.068 11.632 1.068h17.081 17.111l17.101.01 17.101.01 17.111-.059 17.091-.167 17.061-.245 16.934-.303 16.435-.51c5.337-.222 10.146-.591 14.425-1.107 4.273-.517 6.772-1.81 7.497-3.881.725-2.065 1.101-5.926 1.127-11.584l.088-17.002.088-17.023.089-17.032.088-17.022.029-17.022-.088-17.013-.157-16.983-.225-16.856-.431-16.346c-.196-5.312-.543-10.097-1.039-14.357s-1.78-6.746-3.852-7.458c-2.064-.719-5.935-1.078-11.612-1.078l-17.042-.029-17.023-.02-16.895-.029-16.375-.029c-5.325-.013-10.104-.007-14.337.02l-6.488.02a1.49 1.49 0 0 1-.245-.059 1.14 1.14 0 0 1-.216-.118.76.76 0 0 1-.186-.167c-.059-.059-.108-.124-.147-.196a1.15 1.15 0 0 1-.088-.235c-.02-.078-.029-.16-.029-.245s.01-.167.029-.245a.92.92 0 0 1 .088-.235c.039-.072.085-.14.137-.206a.76.76 0 0 1 .186-.167c.065-.039.137-.075.216-.108a1.49 1.49 0 0 1 .245-.059l.118-.02z" fill="#1d1d1d" stroke="#1d1d1d" stroke-width="1.725"/></svg>