<svg xmlns="http://www.w3.org/2000/svg" width="192" height="192" fill="#000" xmlns:v="https://vecta.io/nano"><path d="M56.716 84.608l-.022 2.062-.219 5.227-.291 7.229a58.57 58.57 0 0 0 .428 8.32c.347 2.833.985 5.65 1.914 8.451a38.95 38.95 0 0 0 3.708 8.008 34.69 34.69 0 0 0 5.578 6.954c2.172 2.099 4.517 3.878 7.037 5.336s5.101 2.627 7.733 3.494 5.461 1.569 8.484 2.106 5.963.667 8.819.4 5.462-1.135 7.82-2.594 4.35-3.148 5.962-5.067 2.903-3.96 3.872-6.121 1.762-4.466 2.38-6.916l1.777-7.497 1.317-7.251c.318-2.281.502-4.398.554-6.351l.049-4.739-.104-2.94-.165-2.007-.219-1.925-.165-1.826-.093-2.111-.027-1.525a1.29 1.29 0 0 1 .126-.378c.062-.117.141-.221.236-.313a1.27 1.27 0 0 1 .329-.225c.121-.059.248-.09.384-.104a1.19 1.19 0 0 1 .762.17 1.18 1.18 0 0 1 .302.252c.087.102.155.216.203.34a1.18 1.18 0 0 1 .087.389 1.14 1.14 0 0 1-.044.389 1.24 1.24 0 0 1-.164.362c-.077.11-.168.205-.274.285a1.15 1.15 0 0 1-.351.181c-.128.04-.254.066-.39.066a1.16 1.16 0 0 1-.389-.066 1.23 1.23 0 0 1-.351-.175 1.36 1.36 0 0 1-.274-.291 1.26 1.26 0 0 1-.165-.357 1.21 1.21 0 0 1-.044-.395 1.18 1.18 0 0 1 .088-.389c.047-.124.115-.238.203-.34a1.25 1.25 0 0 1 .301-.252 1.2 1.2 0 0 1 .763-.17 1.31 1.31 0 0 1 .384.104 1.26 1.26 0 0 1 .323.225 1.17 1.17 0 0 1 .242.313 1.29 1.29 0 0 1 .126.378l.033.197-.055 1.322-.082 2.101-.127 1.799-.12 1.887a22.24 22.24 0 0 0 .055 2.029l.098 3.011-.054 4.849c-.055 2.007-.245 4.17-.571 6.488l-1.338 7.327-1.815 7.64c-.648 2.527-1.49 4.925-2.529 7.196s-2.417 4.411-4.146 6.433-3.865 3.795-6.417 5.32a19.41 19.41 0 0 1-8.325 2.698c-3.001.27-6.051.13-9.148-.422s-6.002-1.28-8.726-2.183-5.395-2.126-8.013-3.658-5.049-3.387-7.305-5.578-4.176-4.608-5.77-7.245a40.77 40.77 0 0 1-3.834-8.303 45.88 45.88 0 0 1-1.974-8.704c-.358-2.907-.514-5.728-.466-8.463l.241-7.218.159-5.177-.006-2.161a.86.86 0 0 1 .044-.197.91.91 0 0 1 .099-.186c.04-.055.086-.106.137-.154a1.02 1.02 0 0 1 .164-.115.73.73 0 0 1 .192-.071 1.01 1.01 0 0 1 .203-.027.81.81 0 0 1 .203.027c.07.018.13.038.192.071a1.02 1.02 0 0 1 .165.115 1.05 1.05 0 0 1 .137.154.91.91 0 0 1 .099.186c.022.062.036.128.044.197l.017.099zm5.323 14.669l.274-.422c.183-.282.579-.821 1.19-1.618s1.183-1.448 1.717-1.953l1.47-1.294 1.399-1.108c.483-.369.929-.616 1.338-.74s.868-.212 1.388-.274 1.106-.09 1.76-.093l1.925-.017 1.656-.055 1.355-.066 1.837-.033 1.87.082a12.01 12.01 0 0 1 1.322.236l1.245.247 1.234.241c.421.106.901.419 1.442.938s.837.996.899 1.431.081 1.022.044 1.772-.141 1.327-.313 1.722-.468.845-.888 1.36-.964.989-1.629 1.421a13.39 13.39 0 0 1-1.865 1.02l-1.843.74c-.647.242-1.313.443-1.996.604l-2.018.395-1.985.279-1.881.187-1.662.104-1.519.033-1.437-.044-1.272-.115c-.402-.051-1.143-.28-2.221-.686l-1.81-.746a1.54 1.54 0 0 1-.346-.329 1.49 1.49 0 0 1-.296-.894 1.59 1.59 0 0 1 .082-.471 1.42 1.42 0 0 1 .225-.423 1.41 1.41 0 0 1 .351-.323c.132-.092.274-.157.428-.198a1.47 1.47 0 0 1 .477-.049c.161.011.316.046.466.104a1.45 1.45 0 0 1 .406.252 1.33 1.33 0 0 1 .307.362c.08.139.143.287.175.445a1.5 1.5 0 0 1 .022.477c-.018.161-.062.314-.132.461a1.54 1.54 0 0 1-.269.394 1.48 1.48 0 0 1-.384.286 1.35 1.35 0 0 1-.455.148c-.157.025-.316.025-.477 0a1.48 1.48 0 0 1-.45-.154 1.31 1.31 0 0 1-.373-.296 1.44 1.44 0 0 1-.263-.395 1.35 1.35 0 0 1-.126-.461c-.018-.16-.009-.32.027-.477s.097-.305.181-.444a1.46 1.46 0 0 1 .313-.362 1.32 1.32 0 0 1 .406-.241c.154-.058.305-.092.466-.099a1.47 1.47 0 0 1 .472.055l.236.066.943.444c.633.3 1.196.525 1.689.674s.945.247 1.355.291l1.283.104 1.377.022 1.508-.071a14.99 14.99 0 0 0 1.728-.241l1.81-.379 1.662-.449a10.29 10.29 0 0 0 1.623-.681l1.607-.905 1.558-.943c.523-.322.887-.66 1.091-1.015s.234-.742.088-1.163-.428-.686-.834-.795l-1.64-.406c-.68-.157-1.382-.258-2.106-.302l-1.7-.077-1.311-.006-1.645.093-1.837.143-1.777.132c-.6.044-1.093.179-1.481.406s-.764.47-1.13.74-.773.669-1.223 1.196l-1.174 1.382c-.329.395-.603.764-.823 1.108l-.647.9-.428.51a1.2 1.2 0 0 1-.247.208 1.43 1.43 0 0 1-.291.143c-.102.036-.207.06-.313.071a1.17 1.17 0 0 1-.318-.011 1.3 1.3 0 0 1-.307-.082 1.27 1.27 0 0 1-.285-.159 1.26 1.26 0 0 1-.236-.22c-.07-.084-.128-.17-.175-.268a1.3 1.3 0 0 1-.104-.302c-.022-.106-.037-.212-.033-.318a1.37 1.37 0 0 1 .049-.318 1.16 1.16 0 0 1 .121-.296l.077-.143zm39.556-4.318l-1.217-.153c-.816-.102-1.53-.155-2.145-.159s-1.139.088-1.574.285-.592.512-.483.954.36.909.751 1.41a5.55 5.55 0 0 0 1.426 1.289c.563.362 1.148.642 1.755.839l1.58.45 1.502.4 1.607.423 1.783.34 1.996.246c.669.059 1.221.042 1.656-.049l1.531-.389c.585-.172.974-.459 1.168-.861s.272-.841.236-1.327-.295-.929-.763-1.338l-1.146-1.075c-.296-.311-.731-.693-1.305-1.146s-1.134-.764-1.668-.943-1.168-.324-1.903-.433l-1.766-.197-1.25-.06a15.36 15.36 0 0 0-1.316.038c-.483.033-1.035.201-1.657.505s-1.307.697-2.067 1.168l-1.421.795a1.9 1.9 0 0 1-.57.077 1.88 1.88 0 0 1-.57-.11 1.75 1.75 0 0 1-.499-.291c-.15-.121-.278-.263-.384-.428a1.85 1.85 0 0 1-.225-.532 1.7 1.7 0 0 1-.044-.576 1.78 1.78 0 0 1 .143-.554 1.79 1.79 0 0 1 .313-.483 1.84 1.84 0 0 1 .45-.357 1.83 1.83 0 0 1 .543-.197 1.79 1.79 0 0 1 .576-.016 1.78 1.78 0 0 1 .548.175 1.63 1.63 0 0 1 .466.335c.139.139.251.296.335.472a1.68 1.68 0 0 1 .17.548 1.8 1.8 0 0 1-.016.576c-.036.194-.108.369-.203.538s-.219.318-.362.45a1.83 1.83 0 0 1-.488.307 1.75 1.75 0 0 1-.559.137c-.193.015-.386-.002-.576-.049a1.7 1.7 0 0 1-.527-.23 1.74 1.74 0 0 1-.428-.389 1.66 1.66 0 0 1-.285-.499 1.77 1.77 0 0 1-.104-.57 1.78 1.78 0 0 1 .082-.57 1.67 1.67 0 0 1 .258-.51 1.78 1.78 0 0 1 .406-.406l.241-.17.735-.411 1.272-.746 1.196-.664c.439-.223.916-.375 1.432-.455s1.08-.124 1.694-.132l1.558.005 1.404.038 1.481.099 1.371.192a10.69 10.69 0 0 1 1.278.307c.406.128.846.303 1.322.526a6.99 6.99 0 0 1 1.195.697c.321.238.805.642 1.448 1.212l1.662 1.563c.468.475.812.892 1.031 1.25a3.95 3.95 0 0 1 .472 1.113c.098.387.144.888.137 1.503s-.053 1.175-.137 1.673-.379 1.002-.872 1.514-.945.855-1.355 1.031-.949.32-1.618.422l-1.908.274c-.604.084-1.267.124-1.991.121l-2.227-.061c-.757-.036-1.439-.107-2.046-.213l-1.645-.351-1.602-.362c-.581-.117-1.245-.32-1.991-.609s-1.316-.554-1.722-.795-.832-.554-1.278-.938a8.11 8.11 0 0 1-1.207-1.267 6.69 6.69 0 0 1-.877-1.508c-.227-.541-.298-1.23-.214-2.068s.263-1.45.537-1.837.611-.675 1.009-.872.856-.342 1.371-.433a11.92 11.92 0 0 1 1.782-.154l2.232-.022 1.382.022a1.2 1.2 0 0 1 .307.093 1.68 1.68 0 0 1 .28.17 1.32 1.32 0 0 1 .225.225 1.7 1.7 0 0 1 .17.28 1.28 1.28 0 0 1 .093.307c.018.106.026.21.022.313a1.35 1.35 0 0 1-.06.318 1.53 1.53 0 0 1-.132.296 1.21 1.21 0 0 1-.198.252 1.24 1.24 0 0 1-.257.198 1.49 1.49 0 0 1-.291.132c-.102.033-.208.053-.318.06l-.154.005z"/><path d="M67.243 92.573l.439-.241c.285-.157.603-.459.954-.905l.998-1.36c.314-.461.565-.898.751-1.311a3.55 3.55 0 0 0 .313-1.294l.027-1.283c-.007-.402.007-.808.044-1.218l.099-.823c.029-.146.077-.285.143-.417s.146-.26.241-.373a1.91 1.91 0 0 1 .318-.302 2.19 2.19 0 0 1 .389-.214c.138-.059.276-.093.422-.115a2.02 2.02 0 0 1 .439-.017 1.74 1.74 0 0 1 .828.291 1.81 1.81 0 0 1 .34.285 1.87 1.87 0 0 1 .258.351c.073.128.13.269.17.411a1.75 1.75 0 0 1 .066.433l.005 1.026v1.766c-.004.636.047 1.172.154 1.607s.344.815.702 1.152.632.559.812.658a1.93 1.93 0 0 1 .483.378 1.82 1.82 0 0 1 .329.516c.084.186.135.384.154.592a1.9 1.9 0 0 1-.044.609c-.047.201-.126.388-.236.559s-.245.329-.406.461a1.78 1.78 0 0 1-.526.296 1.87 1.87 0 0 1-.598.121c-.208.007-.411-.018-.609-.077s-.38-.144-.549-.258a1.91 1.91 0 0 1-.433-.428 1.85 1.85 0 0 1-.28-.549c-.062-.197-.091-.398-.088-.603a1.91 1.91 0 0 1 .11-.603c.07-.194.168-.371.296-.532a1.88 1.88 0 0 1 .455-.411 1.83 1.83 0 0 1 .559-.247 1.86 1.86 0 0 1 1.201.088c.19.081.362.188.516.324s.282.298.384.477.179.366.219.57a1.89 1.89 0 0 1 .022.609c-.026.205-.084.4-.175.587a1.92 1.92 0 0 1-.351.499 1.79 1.79 0 0 1-.494.351 1.88 1.88 0 0 1-.581.187 1.89 1.89 0 0 1-.614-.011l-.302-.055-1.278-.905c-.852-.607-1.404-1.17-1.656-1.689s-.417-.989-.494-1.41l-.219-1.251c-.07-.417-.108-.949-.115-1.596l-.011-1.947.044-1.196c.029-.146.077-.285.143-.417s.146-.26.241-.373a1.91 1.91 0 0 1 .318-.302 2.19 2.19 0 0 1 .384-.214 1.95 1.95 0 0 1 .428-.115 2.02 2.02 0 0 1 .439-.017 1.74 1.74 0 0 1 .828.291 1.93 1.93 0 0 1 .34.28c.099.11.185.228.258.356s.13.269.17.411a1.75 1.75 0 0 1 .066.433c.004.15-.018.375-.066.675s-.079.678-.093 1.124l-.104 1.42a7.49 7.49 0 0 1-.329 1.514 6.73 6.73 0 0 1-.658 1.437 17.24 17.24 0 0 1-.982 1.442l-1.026 1.322c-.303.369-.675.689-1.113.96l-1.113.614-.614.263a1.43 1.43 0 0 1-.346.077c-.113.011-.228.009-.346-.005a1.58 1.58 0 0 1-.335-.093 1.4 1.4 0 0 1-.307-.17 1.31 1.31 0 0 1-.258-.236c-.077-.088-.141-.185-.192-.291a1.37 1.37 0 0 1-.121-.329c-.026-.117-.036-.232-.033-.346s.017-.232.049-.346a1.45 1.45 0 0 1 .126-.324 1.65 1.65 0 0 1 .208-.285 1.36 1.36 0 0 1 .263-.225l.148-.099zm3.222 10.816l.444.016c.296.011.708.072 1.234.181a6.52 6.52 0 0 1 1.497.505c.475.227 1.004.59 1.585 1.08s1.015.92 1.3 1.278.514.726.675 1.113a3.19 3.19 0 0 1 .258 1.185c.007.399-.007.406-.044.022s-.024-.514.049-.389a1.78 1.78 0 0 1 .175.4 1.77 1.77 0 0 1 .077.433 1.91 1.91 0 0 1-.027.434 1.92 1.92 0 0 1-.137.416 1.64 1.64 0 0 1-.225.368c-.091.117-.196.219-.313.307a1.76 1.76 0 0 1-.379.225 1.82 1.82 0 0 1-.417.126c-.143.026-.287.033-.433.022a1.88 1.88 0 0 1-.428-.082 1.76 1.76 0 0 1-.4-.181 1.72 1.72 0 0 1-.34-.275c-.102-.107-.221-.418-.357-.937s-.15-1.15-.055-1.893.225-1.325.389-1.738l.494-1.24c.165-.416.444-.866.839-1.349s.751-.848 1.081-1.097l.433-.329c-.04.022-.002-.014.115-.109a2.08 2.08 0 0 1 .384-.242 1.8 1.8 0 0 1 .433-.142 2.17 2.17 0 0 1 .455-.039c.153.003.298.033.444.077a1.93 1.93 0 0 1 .417.181c.132.077.258.163.367.269a1.82 1.82 0 0 1 .285.356c.08.131.144.265.192.412.048.142.079.29.093.444a1.73 1.73 0 0 1-.022.455 1.96 1.96 0 0 1-.126.433 1.9 1.9 0 0 1-.23.395c-.091.121-.448.267-1.07.439s-1.15.263-1.585.274-.945.081-1.541.209-.991.179-1.196.153a1.93 1.93 0 0 1-.592-.181c-.183-.091-.347-.21-.494-.356a1.72 1.72 0 0 1-.362-.494 1.95 1.95 0 0 1-.181-.587 2.03 2.03 0 0 1 .016-.614 1.88 1.88 0 0 1 .214-.576c.102-.183.23-.344.384-.483a1.83 1.83 0 0 1 .521-.329 1.99 1.99 0 0 1 .592-.148 1.81 1.81 0 0 1 .614.05c.201.051.389.131.565.241s.324.25.455.411a1.77 1.77 0 0 1 .302.538 1.79 1.79 0 0 1 .115.603 1.84 1.84 0 0 1-.082.609 1.89 1.89 0 0 1-.274.548 1.85 1.85 0 0 1-.433.428c-.168.121-.351.212-.548.274s-.404.086-.609.083a1.99 1.99 0 0 1-.603-.116 2.04 2.04 0 0 1-.537-.301 1.94 1.94 0 0 1-.406-.455 1.9 1.9 0 0 1-.247-.565 2.01 2.01 0 0 1-.049-.609 1.96 1.96 0 0 1 .148-.598 1.93 1.93 0 0 1 .334-.515 1.92 1.92 0 0 1 .477-.384c.179-.102.371-.174.576-.214l.307-.061 1.239-.186c.83-.124 1.474-.176 1.931-.154s.433.13-.082.324-.709.238-.592.143a1.86 1.86 0 0 1 .384-.242 1.8 1.8 0 0 1 .433-.142 2.17 2.17 0 0 1 .455-.039c.153.003.298.033.444.077a1.93 1.93 0 0 1 .417.181c.132.077.258.163.367.269a1.82 1.82 0 0 1 .285.356c.08.131.144.265.192.412.048.142.079.29.093.444a1.73 1.73 0 0 1-.022.455 1.96 1.96 0 0 1-.126.433 1.9 1.9 0 0 1-.23.395c-.091.121-.166.196-.225.225s-.303.212-.735.549-.718.685-.872 1.047-.373.762-.647 1.212-.38.742-.307.867a1.78 1.78 0 0 1 .175.4 1.88 1.88 0 0 1 .077.433 1.91 1.91 0 0 1-.027.434 1.92 1.92 0 0 1-.137.416 1.64 1.64 0 0 1-.225.368c-.091.117-.196.219-.313.307a1.76 1.76 0 0 1-.379.225 1.82 1.82 0 0 1-.417.126c-.143.026-.287.033-.433.022a1.88 1.88 0 0 1-.428-.082 1.76 1.76 0 0 1-.4-.181 1.72 1.72 0 0 1-.34-.275c-.102-.102-.214-.312-.335-.63l-.51-1.218c-.216-.497-.475-.879-.779-1.146s-.698-.527-1.174-.79-.861-.409-1.157-.45l-.609-.093a1.35 1.35 0 0 1-.329-.109 1.46 1.46 0 0 1-.291-.187 1.31 1.31 0 0 1-.241-.252 1.66 1.66 0 0 1-.175-.302c-.044-.106-.075-.217-.093-.334a1.54 1.54 0 0 1-.016-.34c.011-.117.035-.231.071-.341a1.41 1.41 0 0 1 .148-.318 1.6 1.6 0 0 1 .225-.268 1.43 1.43 0 0 1 .28-.209c.099-.058.205-.102.318-.131a1.36 1.36 0 0 1 .346-.055l.17-.011zm32.28-14.181l.586-.049c.395-.033.799-.179 1.213-.439a4.04 4.04 0 0 0 1.031-.91l.959-1.294c.366-.519.598-1.015.697-1.486s.296-.552.603-.241.817.382 1.541.203.991.059.812.702l-.422 1.552a4.86 4.86 0 0 0-.154 1.294c.003.468.042.806.126 1.015a4.02 4.02 0 0 0 .275.565 1.84 1.84 0 0 1 .219.532c.044.19.055.375.033.565a1.71 1.71 0 0 1-.148.554 1.73 1.73 0 0 1-.318.477 1.75 1.75 0 0 1-.45.351 1.81 1.81 0 0 1-.543.187 1.79 1.79 0 0 1-.576.005 1.78 1.78 0 0 1-.543-.175c-.172-.091-.325-.207-.461-.346a1.66 1.66 0 0 1-.323-.472 1.72 1.72 0 0 1-.159-.549c-.022-.194-.013-.386.027-.576a1.67 1.67 0 0 1 .209-.526 1.64 1.64 0 0 1 .367-.444 1.8 1.8 0 0 1 .488-.296 1.84 1.84 0 0 1 .56-.132 1.76 1.76 0 0 1 .57.06 1.81 1.81 0 0 1 .521.236 1.69 1.69 0 0 1 .417.389c.121.154.212.322.274.505s.099.366.099.559a1.88 1.88 0 0 1-.088.57 1.93 1.93 0 0 1-.263.51 1.78 1.78 0 0 1-.417.395 1.76 1.76 0 0 1-.516.247 1.87 1.87 0 0 1-.57.066 1.82 1.82 0 0 1-.559-.121c-.183-.069-.348-.166-.494-.291l-.225-.186-.532-1.333c-.351-.885-.534-1.534-.548-1.947a5.62 5.62 0 0 1 .115-1.267l.274-1.294c.103-.428.305-1.055.609-1.881s.866-1.314 1.678-1.464 1.366.082 1.651.697a2.87 2.87 0 0 1 .219 1.87c-.139.633-.396 1.274-.773 1.925s-.695 1.139-.954 1.464l-.955 1.113c-.38.413-.811.79-1.294 1.13a3.97 3.97 0 0 1-1.623.669c-.603.106-1.099.166-1.498.181l-.762.016a1.51 1.51 0 0 1-.34-.06 1.58 1.58 0 0 1-.318-.143 1.67 1.67 0 0 1-.274-.214 1.28 1.28 0 0 1-.214-.274 1.26 1.26 0 0 1-.143-.318 1.39 1.39 0 0 1-.066-.34 1.34 1.34 0 0 1 .022-.34c.022-.117.057-.228.105-.335a1.5 1.5 0 0 1 .175-.296 1.56 1.56 0 0 1 .247-.247c.092-.073.19-.133.296-.181a1.48 1.48 0 0 1 .335-.104l.17-.033zm-.722 12.239l.505.219c.332.143.667.353 1.003.631s.629.627.878 1.047a7.92 7.92 0 0 1 .598 1.212l.471 1.393c.161.549.274 1.039.34 1.47s-.168.602-.702.51-.936-.389-1.206-.883-.159-1.276.334-2.347.812-1.662.966-1.783.321-.208.504-.274a1.65 1.65 0 0 1 .565-.098c.197-.004.388.023.57.082a1.76 1.76 0 0 1 .516.258 1.74 1.74 0 0 1 .406.411 1.88 1.88 0 0 1 .252.515 1.8 1.8 0 0 1 .071.576c-.007.194-.045.382-.115.565s-.166.349-.29.499-.269.276-.434.379-.342.181-.532.225a1.8 1.8 0 0 1-.576.038 1.84 1.84 0 0 1-.559-.143c-.179-.08-.34-.186-.483-.318a1.84 1.84 0 0 1-.356-.449c-.095-.172-.159-.355-.192-.549s-.04-.382-.011-.576a1.79 1.79 0 0 1 .175-.548 1.84 1.84 0 0 1 .34-.466c.139-.136.297-.244.472-.324s.36-.139.554-.164a1.69 1.69 0 0 1 .576.021 1.97 1.97 0 0 1 .543.198c.168.099.316.221.444.367a1.85 1.85 0 0 1 .307.488 1.92 1.92 0 0 1 .132.565c.015.194-.004.384-.055.571a1.76 1.76 0 0 1-.23.532l-.159.241-.329.784c-.22.52-.401 1.11-.543 1.772s-.527 1.272-1.152 1.821-1.294.523-2.018-.077-1.085-1.134-1.081-1.602a6.41 6.41 0 0 0-.137-1.382 15.16 15.16 0 0 0-.406-1.486c-.172-.541-.409-.888-.713-1.042l-.614-.318a1.55 1.55 0 0 1-.274-.219 1.47 1.47 0 0 1-.209-.28 1.26 1.26 0 0 1-.142-.318 1.64 1.64 0 0 1-.061-.346 1.38 1.38 0 0 1 .022-.345 1.85 1.85 0 0 1 .11-.335 1.26 1.26 0 0 1 .186-.296 1.65 1.65 0 0 1 .247-.247 1.66 1.66 0 0 1 .302-.175 1.37 1.37 0 0 1 .334-.099 1.4 1.4 0 0 1 .346-.022c.117.011.232.033.345.066l.165.055zm4.192-5.473l.11.165c.076.106.135.221.175.345a1.14 1.14 0 0 1 .055.379 1.15 1.15 0 0 1-.077.384c-.048.124-.108.238-.192.34s-.175.188-.285.258a1.12 1.12 0 0 1-.362.153c-.124.033-.25.044-.378.033a1.26 1.26 0 0 1-.379-.093c-.121-.051-.23-.121-.329-.208s-.179-.19-.241-.307-.112-.234-.137-.362a1.24 1.24 0 0 1-.011-.384c.018-.132.056-.256.115-.373s.135-.221.23-.313a1.25 1.25 0 0 1 .313-.23 1.2 1.2 0 0 1 .373-.115 1.35 1.35 0 0 1 .384.011 1.18 1.18 0 0 1 .362.137c.117.062.219.143.307.241a1.18 1.18 0 0 1 .208.329 1.23 1.23 0 0 1 .093.378 1.12 1.12 0 0 1-.032.378 1.33 1.33 0 0 1-.154.362 1.05 1.05 0 0 1-.258.285 1.12 1.12 0 0 1-.34.192c-.124.047-.252.073-.384.077s-.254-.015-.378-.055a1.24 1.24 0 0 1-.346-.175l-.164-.11-.088-.121a1.2 1.2 0 0 1-.154-.247 1.05 1.05 0 0 1-.082-.28c-.018-.095-.025-.19-.022-.285a1.28 1.28 0 0 1 .055-.285c.029-.095.07-.185.121-.269a1.29 1.29 0 0 1 .181-.225c.069-.069.144-.13.225-.181a1.18 1.18 0 0 1 .268-.121c.092-.029.187-.047.286-.055a1.25 1.25 0 0 1 .285.022c.098.015.192.042.279.082s.17.091.247.154l.121.088zm-32.013 1.143l.11.165a1.23 1.23 0 0 1 .175.346c.04.128.058.254.055.378a1.16 1.16 0 0 1-.077.384 1.12 1.12 0 0 1-.192.34 1.13 1.13 0 0 1-.285.258c-.11.07-.234.124-.362.154a1.1 1.1 0 0 1-.378.033 1.22 1.22 0 0 1-.378-.093c-.121-.051-.23-.121-.329-.208s-.179-.19-.241-.307-.112-.234-.137-.362a1.36 1.36 0 0 1-.011-.384 1.2 1.2 0 0 1 .115-.373c.058-.117.135-.221.23-.313a1.25 1.25 0 0 1 .313-.23 1.2 1.2 0 0 1 .373-.115 1.35 1.35 0 0 1 .384.011c.128.026.249.071.362.137s.219.143.307.241.157.208.209.329.082.247.093.379a1.1 1.1 0 0 1-.033.378 1.3 1.3 0 0 1-.154.362 1.13 1.13 0 0 1-.258.285 1.12 1.12 0 0 1-.34.192 1.26 1.26 0 0 1-.384.077c-.132.004-.254-.015-.378-.055s-.24-.099-.346-.175l-.165-.11-.088-.121a1.2 1.2 0 0 1-.154-.247 1.03 1.03 0 0 1-.082-.28c-.018-.095-.026-.19-.022-.285s.026-.194.055-.285a1.27 1.27 0 0 1 .121-.269c.051-.084.112-.155.181-.225a1.25 1.25 0 0 1 .225-.181 1.18 1.18 0 0 1 .269-.121 1.23 1.23 0 0 1 .285-.055 1.26 1.26 0 0 1 .285.022c.099.015.192.042.28.082a1.12 1.12 0 0 1 .247.154l.121.088zm-3.821 14.199l.587.669 1.031 1.064 1.207.971c.508.384 1.064.685 1.667.905s1.256.375 1.947.466l1.755.296a11.29 11.29 0 0 0 1.36.22l1.739.142 1.689.154a13.19 13.19 0 0 1 1.24.241l1.93.51 2.029.51a11.21 11.21 0 0 0 1.382.209l1.272.131 1.404.236 1.41.274 1.366.22 1.547.175 1.92.165c.717.058 1.369.064 1.958.016l1.684-.225a12.22 12.22 0 0 0 1.574-.4l1.453-.51 1.355-.439 1.217-.373c.37-.124.823-.375 1.361-.751l1.793-1.179 1.547-.966 1.053-.718 1.113-.741c.406-.241 1.062-.345 1.969-.312s1.475.411 1.717 1.124.316 1.278.224 1.706-.228.837-.411 1.239l-.515 1.136-.522 1.173c-.182.428-.402.874-.658 1.339l-.685 1.272c-.205.384-.43.874-.675 1.47s-.499 1.088-.762 1.475-.719.854-1.377 1.41l-1.749 1.469-1.306 1.048a4.84 4.84 0 0 1-1.195.664 6.05 6.05 0 0 1-1.437.356l-1.58.115-1.59.033h-1.596a6.38 6.38 0 0 0-1.558.165c-.493.113-1.027.272-1.601.477l-1.514.581-1.761.658c-.735.249-1.344.399-1.826.45l-1.585.093c-.574.008-1.335-.071-2.282-.235l-2.611-.373-2.04-.313c-.567-.121-1.232-.322-1.996-.603s-1.579-.514-2.446-.708-1.662-.473-2.386-.839-1.384-.881-1.98-1.536l-1.497-1.678c-.402-.464-.779-.786-1.13-.965l-1.163-.609c-.417-.223-.905-.444-1.464-.664s-1.029-.466-1.398-.74l-1.245-1.02-1.272-1.091a6.25 6.25 0 0 1-1.031-1.141 9 9 0 0 1-.735-1.185c-.179-.351-.34-.795-.483-1.333a4.84 4.84 0 0 1-.17-1.535c.026-.483.258-1.041.697-1.673s.726-1.007.861-1.113.283-.189.444-.247.327-.095.499-.099.346.015.51.066.316.124.455.219c.143.103.263.223.362.362a1.61 1.61 0 0 1 .225.455 1.6 1.6 0 0 1 .071.51c-.004.172-.035.339-.093.5s-.143.314-.252.449a1.5 1.5 0 0 1-.373.34c-.146.095-.303.163-.472.203s-.334.059-.51.044a1.61 1.61 0 0 1-.494-.121c-.158-.066-.305-.16-.433-.274a1.54 1.54 0 0 1-.318-.4c-.084-.15-.148-.309-.181-.477a1.6 1.6 0 0 1-.017-.51 1.68 1.68 0 0 1 .154-.494 1.42 1.42 0 0 1 .296-.411c.121-.125.258-.223.411-.296a1.69 1.69 0 0 1 .488-.154c.172-.022.344-.016.516.016a1.43 1.43 0 0 1 .477.176 1.41 1.41 0 0 1 .395.313 1.47 1.47 0 0 1 .274.427c.069.161.112.328.126.499a1.63 1.63 0 0 1-.038.511 1.52 1.52 0 0 1-.203.466l-.137.219-.384.252c-.256.172-.377.454-.362.845s.13.839.346 1.344.492.914.817 1.217.746.642 1.25 1.026l1.355 1.075c.402.336.777.596 1.124.779a10.42 10.42 0 0 1 1.064.636c.358.241.784.59 1.278 1.047a9.69 9.69 0 0 1 1.245 1.382c.34.464.74.947 1.201 1.448a5.59 5.59 0 0 0 1.525 1.196c.556.289 1.307.51 2.254.664l2.545.526 1.755.499c.417.132 1.046.199 1.887.203l2.512.066h2.583c.892-.04 1.638-.132 2.238-.274s1.124-.298 1.574-.466l1.673-.686a13.8 13.8 0 0 1 2.052-.702c.699-.179 1.323-.274 1.864-.285l1.569-.033 1.974-.066c.819-.037 1.463-.15 1.931-.34s.929-.51 1.382-.96l1.316-1.382a14.46 14.46 0 0 0 1.092-1.382c.307-.446.539-.876.696-1.289a11.43 11.43 0 0 1 .543-1.228l.598-1.147a10.64 10.64 0 0 0 .554-1.256l.537-1.316c.18-.398.456-.821.829-1.267s.762-.577 1.168-.395.362.393-.132.631a9.13 9.13 0 0 0-1.311.762c-.384.271-.958.624-1.722 1.059l-2.018 1.174-1.607.921a6.22 6.22 0 0 1-1.377.565l-1.212.28c-.384.076-.81.184-1.278.323l-1.629.527c-.625.208-1.235.364-1.831.466l-1.925.291-2.161.181-2.106.032-1.733-.115-1.453-.219-1.355-.252-1.239-.214-1.333-.154-1.645-.203-1.7-.312-1.755-.445-1.931-.416-1.591-.192-1.448-.099c-.552-.044-1.205-.141-1.958-.291l-1.903-.34c-.516-.073-1.174-.28-1.974-.62s-1.355-.678-1.673-1.003a9.36 9.36 0 0 0-.954-.867 10.68 10.68 0 0 1-.982-.866l-1.119-1.136-.724-.778a1.3 1.3 0 0 1-.159-.297 1.28 1.28 0 0 1-.088-.329c-.015-.113-.016-.225-.006-.334s.037-.225.077-.335.088-.206.154-.301a1.32 1.32 0 0 1 .219-.258 1.45 1.45 0 0 1 .274-.198 1.46 1.46 0 0 1 .318-.126c.11-.029.221-.046.335-.049a1.55 1.55 0 0 1 .335.038 1.47 1.47 0 0 1 .318.115 1.52 1.52 0 0 1 .285.187l.126.115z"/><path d="M86.625 65.202l-1.782-.845c-1.185-.56-2.291-1.216-3.318-1.969s-2.123-1.654-3.274-2.704-2.461-2.079-3.927-3.099l-4.119-2.72-3.285-2.068-2.386-1.519c-.68-.428-1.357-.751-2.029-.971s-1.499-.373-2.468-.461l-2.303-.181a2.9 2.9 0 0 0-1.547.307c-.468.241-1.28.861-2.435 1.859s-2.552 2.479-4.19 4.442-3.463 4.514-5.474 7.662a76.34 76.34 0 0 0-5.282 9.735 88.15 88.15 0 0 0-3.85 10.179l-2.545 8.967-1.536 6.669a49.41 49.41 0 0 0-.828 5.841 133.52 133.52 0 0 0-.356 5.77l-.154 4.876-.071 3.685c-.015 1.068.091 2.07.318 3.006l.839 2.901c.333.998.775 2.095 1.327 3.28l1.706 3.236c.585.973 1.053 1.654 1.404 2.056l.565.691a1.14 1.14 0 0 1 .06.198.91.91 0 0 1 .011.203.77.77 0 0 1-.038.197c-.021.066-.046.128-.082.187a.89.89 0 0 1-.126.159.75.75 0 0 1-.159.12.85.85 0 0 1-.187.088.97.97 0 0 1-.197.033.91.91 0 0 1-.203-.011 1.27 1.27 0 0 1-.192-.06c-.062-.03-.121-.064-.176-.104s-.102-.094-.143-.149.197-.711.713-1.979a118.34 118.34 0 0 1 1.804-4.158l2.825-5.484 3.357-6.373 2.94-5.918 2.506-5.287 2.227-4.936 2.029-4.349 1.755-3.817 1.64-3.68a82.73 82.73 0 0 1 1.607-3.379l1.305-2.687.768-1.722a9.27 9.27 0 0 1 .554-1.124 10.54 10.54 0 0 1 .691-1.026c.263-.347.572-.658.927-.932s.857-.506 1.508-.697 1.378-.333 2.194-.417l2.101-.23 1.53-.17a39.06 39.06 0 0 1 1.289-.121l1.459-.06 1.569.016c.505.018 1.225.437 2.172 1.245l1.547 1.393c.084.121.146.245.186.384a1.25 1.25 0 0 1 .055.433 1.32 1.32 0 0 1-.082.422 1.28 1.28 0 0 1-.214.373 1.27 1.27 0 0 1-.324.285 1.25 1.25 0 0 1-.4.17 1.39 1.39 0 0 1-.428.033 1.41 1.41 0 0 1-.422-.11 1.37 1.37 0 0 1-.362-.236 1.34 1.34 0 0 1-.411-.74 1.44 1.44 0 0 1-.011-.433 1.32 1.32 0 0 1 .132-.411 1.34 1.34 0 0 1 .252-.351c.106-.102.225-.185.356-.247s.265-.108.411-.126a1.31 1.31 0 0 1 .433.017 1.2 1.2 0 0 1 .4.148 1.28 1.28 0 0 1 .335.274c.099.11.175.232.23.367a1.25 1.25 0 0 1 .104.417 1.33 1.33 0 0 1-.038.433 1.36 1.36 0 0 1-.175.395 1.26 1.26 0 0 1-.291.318 1.25 1.25 0 0 1-.373.208c-.139.051-.282.079-.428.082a1.3 1.3 0 0 1-.428-.06c-.139-.044-.267-.11-.384-.197l-.175-.126-1.201-.932c-.801-.621-1.466-.934-1.996-.938l-1.41-.022-1.218-.027a19.22 19.22 0 0 0-1.431.049 13.56 13.56 0 0 0-1.903.28l-2.09.505a4.01 4.01 0 0 0-1.739.982c-.49.472-.85.881-1.091 1.218s-.53.885-.877 1.634l-1.305 2.682a86.77 86.77 0 0 0-1.59 3.345l-1.645 3.697-1.761 3.823-2.024 4.333-2.238 4.958a135.46 135.46 0 0 1-2.512 5.315l-2.956 5.95-3.345 6.351-2.808 5.447-1.733 3.422c-.468.768-.687 1.177-.658 1.239a1.14 1.14 0 0 1 .06.198.91.91 0 0 1 .011.203.77.77 0 0 1-.038.197c-.021.066-.046.128-.082.187a.89.89 0 0 1-.126.159.75.75 0 0 1-.159.12.72.72 0 0 1-.187.083.77.77 0 0 1-.197.038.91.91 0 0 1-.203-.011 1.27 1.27 0 0 1-.192-.06c-.062-.03-.121-.064-.176-.104s-.102-.094-.143-.149-.201-.299-.483-.745l-1.333-2.189c-.611-1.013-1.201-2.139-1.771-3.378l-1.382-3.417a34.68 34.68 0 0 1-.878-3.132 13.62 13.62 0 0 1-.346-3.192l.06-3.707.143-4.92.351-5.89a51.29 51.29 0 0 1 .828-5.967l1.519-6.751 2.539-9.115c1.064-3.506 2.364-6.975 3.889-10.404s3.3-6.757 5.325-9.982 3.876-5.876 5.55-7.942 3.148-3.676 4.432-4.832 2.318-1.901 3.093-2.227 1.495-.47 2.161-.433a21.37 21.37 0 0 1 1.903.192c.603.088 1.327.278 2.183.57s1.457.554 1.804.784a57.43 57.43 0 0 0 1.558.982l2.397 1.492 3.329 2.057 4.267 2.759s2.865 2.062 3.987 3.049 2.155 1.812 3.099 2.474 2.022 1.251 3.225 1.766l1.909.834a.93.93 0 0 1 .34.34 1.01 1.01 0 0 1 .104.219 1.29 1.29 0 0 1 .044.236 1.08 1.08 0 0 1-.016.241 1.11 1.11 0 0 1-.071.23 1.01 1.01 0 0 1-.126.208c-.051.065-.108.119-.17.17a.94.94 0 0 1-.208.126 1.11 1.11 0 0 1-.23.071 1.07 1.07 0 0 1-.241.016 1.28 1.28 0 0 1-.236-.044l-.115-.038zm-.812-6.347l.247-1.788.367-3.68.198-3.335.055-2.32-.044-1.7c-.018-.545-.108-1.017-.269-1.415s-.484-.649-.971-.762-.954-.139-1.393-.077-.958.347-1.547.856-1.168 1.099-1.739 1.771l-1.283 1.651c-.285.431-.713.945-1.283 1.541l-1.015 1.009a1.31 1.31 0 0 1-.351.175 1.28 1.28 0 0 1-.389.049 1.27 1.27 0 0 1-.389-.071c-.124-.044-.238-.113-.34-.197a1.23 1.23 0 0 1-.263-.291 1.21 1.21 0 0 1-.154-.362 1.28 1.28 0 0 1-.033-.395c.011-.132.044-.258.099-.378a1.17 1.17 0 0 1 .208-.335 1.32 1.32 0 0 1 .307-.247c.117-.062.241-.106.373-.132a1.19 1.19 0 0 1 .395-.011 1.2 1.2 0 0 1 .373.115 1.23 1.23 0 0 1 .318.23 1.19 1.19 0 0 1 .23.324 1.2 1.2 0 0 1 .115.373 1.19 1.19 0 0 1-.011.395 1.17 1.17 0 0 1-.137.367c-.066.117-.148.219-.247.307a1.28 1.28 0 0 1-.335.214 1.24 1.24 0 0 1-.384.093 1.15 1.15 0 0 1-.389-.033 1.23 1.23 0 0 1-.362-.159 1.26 1.26 0 0 1-.291-.263 1.12 1.12 0 0 1-.192-.34 1.21 1.21 0 0 1-.077-.389 1.39 1.39 0 0 1 .055-.389 1.22 1.22 0 0 1 .176-.351l.121-.164.751-.697c.505-.464.92-.92 1.245-1.366l1.344-1.898a21.2 21.2 0 0 1 1.919-2.364c.702-.753 1.382-1.26 2.04-1.519s1.188-.347 1.59-.263.89.271 1.453.559l1.36.784c.347.234.656.625.927 1.174s.417 1.026.45 1.442.037.907.011 1.459l-.077 1.717-.044 2.342-.022 3.422-.137 3.762-.148 1.941a1.21 1.21 0 0 1-.099.28 1.35 1.35 0 0 1-.159.247 1.41 1.41 0 0 1-.219.197 1.19 1.19 0 0 1-.258.143 1.27 1.27 0 0 1-.285.077c-.099.015-.196.016-.291.005a1.27 1.27 0 0 1-.285-.06 1.11 1.11 0 0 1-.263-.132c-.084-.055-.159-.119-.225-.192s-.128-.154-.176-.241a1.19 1.19 0 0 1-.11-.274c-.026-.098-.038-.192-.038-.291l-.005-.143zm12.309-25.063l1.355.291c.9.194 1.79.558 2.671 1.091a11.82 11.82 0 0 1 2.447 2.013c.749.801 1.352 1.726 1.809 2.775s.874 2.432 1.24 4.146l1.223 5.616 1.135 4.947.664 3.115a15.65 15.65 0 0 1 .208 2.391l.066 2.177.038 1.13a.97.97 0 0 1-.093.263.84.84 0 0 1-.17.225c-.069.062-.146.113-.23.154s-.177.064-.269.071-.188.005-.28-.016a.8.8 0 0 1-.257-.104.83.83 0 0 1-.214-.181.74.74 0 0 1-.143-.236 1.04 1.04 0 0 1-.06-.274.88.88 0 0 1 .033-.28c.025-.091.066-.175.12-.252a.9.9 0 0 1 .192-.203c.076-.058.156-.099.247-.132a.78.78 0 0 1 .274-.044.99.99 0 0 1 .275.049.76.76 0 0 1 .246.132.84.84 0 0 1 .192.203.87.87 0 0 1 .116.252.91.91 0 0 1 .032.28.89.89 0 0 1-.065.274.75.75 0 0 1-.143.236.83.83 0 0 1-.214.181.92.92 0 0 1-.258.104.9.9 0 0 1-.279.011.85.85 0 0 1-.269-.077c-.084-.04-.165-.091-.23-.154a.82.82 0 0 1-.17-.225.84.84 0 0 1-.088-.263l-.022-.143.066-.987.087-2.057c.011-.709-.047-1.446-.175-2.21l-.669-3.077-1.152-4.963-1.196-5.479c-.347-1.623-.707-2.887-1.08-3.79s-.888-1.702-1.536-2.397-1.334-1.272-2.051-1.722-1.523-.762-2.418-.927l-1.437-.28c-.066-.022-.128-.051-.186-.088a.89.89 0 0 1-.159-.126c-.047-.051-.09-.108-.126-.17a.77.77 0 0 1-.082-.187c-.018-.066-.029-.139-.033-.208a.72.72 0 0 1 .016-.197.63.63 0 0 1 .066-.197c.029-.062.066-.121.11-.176a.8.8 0 0 1 .148-.143c.055-.041.113-.08.175-.11a.98.98 0 0 1 .203-.055.96.96 0 0 1 .203-.011l.099.011zm13.975 25.713l1.354-.971c.907-.643 2.17-1.382 3.79-2.216s3.75-1.603 6.39-2.32l7.524-1.706 5.167-.894 2.523-.411c.621-.099 1.393.126 2.314.675s2.018 1.497 3.291 2.835 2.603 3.174 3.992 5.506 2.792 5.163 4.218 8.501a137.66 137.66 0 0 1 3.949 10.366c1.203 3.576 2.269 7.115 3.197 10.618s1.657 6.779 2.172 9.839.889 5.964 1.108 8.71.285 5.252.198 7.519l-.275 6.17c-.098 1.85-.29 3.6-.576 5.249l-.784 4.585-.691 3.91c-.219 1.199-.433 2.159-.642 2.88s-.345 1.298-.411 1.744-.108.705-.137.778a1.01 1.01 0 0 1-.11.198.78.78 0 0 1-.153.17.73.73 0 0 1-.187.126c-.069.037-.141.064-.214.082s-.148.022-.225.022a.93.93 0 0 1-.224-.027.85.85 0 0 1-.214-.082 1.13 1.13 0 0 1-.187-.132.98.98 0 0 1-.148-.176.81.81 0 0 1-.104-.203c-.026-.069-.044-.142-.055-.219a.77.77 0 0 1 .006-.225c.011-.073-.074-.375-.253-.894s-.508-1.854-.998-4.014-1.163-4.648-2.018-7.459-1.843-5.424-2.973-7.849a139.28 139.28 0 0 0-3.477-6.981 187.15 187.15 0 0 0-3.62-6.472l-3.685-6.154-3.538-5.665c-1.119-1.755-2.241-3.388-3.367-4.898s-2.152-2.726-3.088-3.647-1.762-1.762-2.479-2.534l-2.232-2.353c-.775-.797-1.499-1.477-2.172-2.04l-1.673-1.36c-.442-.34-.87-.554-1.283-.642a12.45 12.45 0 0 1-1.245-.335 4.71 4.71 0 0 0-1.415-.219 65.79 65.79 0 0 0-2.013.011 21.97 21.97 0 0 0-2.583.208c-.903.124-1.43.183-1.591.175a1.48 1.48 0 0 1-.466-.093 1.49 1.49 0 0 1-.411-.241 1.46 1.46 0 0 1-.307-.362 1.41 1.41 0 0 1-.181-.439c-.037-.154-.048-.311-.033-.472a1.45 1.45 0 0 1 .126-.461 1.43 1.43 0 0 1 .263-.395 1.38 1.38 0 0 1 .373-.291 1.44 1.44 0 0 1 .45-.154 1.36 1.36 0 0 1 .471-.005 1.5 1.5 0 0 1 .45.148c.143.073.269.166.379.28s.199.249.268.395a1.37 1.37 0 0 1 .132.455 1.47 1.47 0 0 1-.022.472c-.033.157-.09.305-.17.444a1.36 1.36 0 0 1-.302.362 1.45 1.45 0 0 1-.405.252c-.149.062-.302.093-.456.104a1.45 1.45 0 0 1-.471-.044c-.158-.044-.302-.11-.434-.197a1.42 1.42 0 0 1-.351-.324c-.098-.124-.173-.263-.225-.417a1.56 1.56 0 0 1-.082-.466 1.57 1.57 0 0 1 .072-.472 1.6 1.6 0 0 1 .219-.422c.095-.128.208-.238.34-.329a1.43 1.43 0 0 1 .433-.203l.231-.066 1.53-.121c1.027-.081 1.773-.117 2.237-.11l1.3.044a8.78 8.78 0 0 1 1.256.165c.435.084.962.26 1.58.526s1.241.578 1.859.932 1.119.728 1.503 1.119.925.885 1.634 1.481a31.93 31.93 0 0 1 2.238 2.106l2.226 2.336a82.31 82.31 0 0 0 2.529 2.589c.987.976 2.055 2.232 3.203 3.768s2.287 3.188 3.417 4.947l3.565 5.682 3.724 6.181c1.239 2.095 2.468 4.267 3.685 6.516a143.33 143.33 0 0 1 3.582 7.107c1.166 2.487 2.193 5.15 3.082 7.991s1.588 5.324 2.1 7.448l1.097 4.448c.216.841.309 1.298.28 1.371a1.01 1.01 0 0 1-.11.198c-.044.062-.095.119-.153.17a.73.73 0 0 1-.187.126c-.069.037-.141.064-.214.082s-.148.022-.225.022a.93.93 0 0 1-.224-.027.85.85 0 0 1-.214-.082 1.13 1.13 0 0 1-.187-.132.98.98 0 0 1-.148-.176.81.81 0 0 1-.104-.203c-.026-.069-.044-.142-.055-.219a.77.77 0 0 1 .006-.225c.011-.073.113-.334.307-.773a19.22 19.22 0 0 0 .619-1.64c.22-.658.439-1.583.659-2.775l.685-3.9.774-4.502c.277-1.595.464-3.313.559-5.156l.274-6.077c.084-2.208.018-4.663-.197-7.365s-.583-5.565-1.092-8.578-1.23-6.254-2.155-9.724-1.991-6.973-3.187-10.508a138.27 138.27 0 0 0-3.899-10.212c-1.404-3.272-2.772-6.026-4.103-8.26s-2.588-3.967-3.773-5.21-2.102-2.095-2.742-2.556-1.216-.671-1.739-.62-1.307.172-2.364.351l-5.078.905a82.9 82.9 0 0 0-7.289 1.673c-2.526.695-4.563 1.444-6.099 2.249s-2.742 1.547-3.631 2.216l-1.426 1.053a.78.78 0 0 1-.197.082c-.069.018-.141.029-.214.033a.76.76 0 0 1-.208-.022.84.84 0 0 1-.203-.071.73.73 0 0 1-.181-.115.8.8 0 0 1-.143-.159.77.77 0 0 1-.109-.186.96.96 0 0 1-.055-.203.82.82 0 0 1-.006-.209c.007-.073.022-.144.044-.214a1.43 1.43 0 0 1 .093-.192 1.23 1.23 0 0 1 .137-.164l.083-.071z"/><path d="M157.393 139.128l-1.02.148c-.687.095-1.358.51-2.013 1.245s-1.153 1.675-1.497 2.819-.521 2.156-.521 3.044.453 1.814 1.36 2.775a19.86 19.86 0 0 0 2.891 2.529c1.02.727 1.83 1.239 2.429 1.535s1.152.335 1.646.105.912-.591 1.255-1.081.598-1.126.752-1.908-.017-1.936-.521-3.461l-1.783-4.64-1.64-3.625c-.405-.845-.784-1.441-1.135-1.788-.344-.348-.95-.622-1.821-.823s-1.597-.329-2.172-.373l-1.031-.115c-.113-.033-.217-.082-.312-.148s-.178-.152-.247-.247a1.08 1.08 0 0 1-.154-.307c-.037-.113-.049-.223-.049-.34s.026-.23.066-.34a1.16 1.16 0 0 1 .422-.538 1.15 1.15 0 0 1 .318-.137 1.01 1.01 0 0 1 .346-.027c.113.007.225.033.334.077s.203.109.291.186.161.167.219.269.099.21.121.323.026.229.011.346a1.02 1.02 0 0 1-.099.329c-.051.106-.117.201-.197.285s-.177.148-.28.203a1.18 1.18 0 0 1-.334.104 1.09 1.09 0 0 1-.346-.011 1.12 1.12 0 0 1-.324-.115 1.1 1.1 0 0 1-.268-.214c-.081-.087-.143-.184-.187-.29a1.04 1.04 0 0 1-.087-.335 1 1 0 0 1 .027-.345.99.99 0 0 1 .132-.318 1.03 1.03 0 0 1 .23-.258c.091-.073.192-.132.302-.176a1.09 1.09 0 0 1 .34-.066l.17-.005.877.164 2.013.384c.753.147 1.349.386 1.788.719.446.333.852.749 1.217 1.25s.756 1.183 1.18 2.046l1.705 3.724c.71 1.616 1.328 3.302 1.854 5.057s.678 3.139.444 4.162-.634 1.858-1.201 2.512a4.05 4.05 0 0 1-2.073 1.3c-.812.212-1.614.145-2.397-.203s-1.729-.919-2.841-1.716-2.175-1.801-3.192-3.011-1.537-2.386-1.563-3.516.181-2.377.62-3.729 1.119-2.496 2.029-3.417 1.743-1.448 2.496-1.591l1.234-.219c.069-.004.141.002.214.016a1.19 1.19 0 0 1 .208.066 1.01 1.01 0 0 1 .181.115c.059.048.11.101.154.159a.95.95 0 0 1 .109.187.86.86 0 0 1 .061.208c.011.073.014.145.011.214a1.1 1.1 0 0 1-.044.214c-.022.07-.053.135-.093.197s-.086.119-.138.171a.76.76 0 0 1-.175.131c-.062.037-.128.066-.198.088l-.104.027zm-121.641-7.806l-1.13.225c-.757.15-1.483.607-2.177 1.371s-1.214 1.698-1.568 2.791-.477 2.039-.357 2.836.506 1.55 1.157 2.248 1.298 1.194 1.942 1.487 1.15.214 1.508-.236.598-1.035.718-1.755.188-1.324.203-1.821-.311-1.181-.987-2.04l-1.097-1.454a.92.92 0 0 1-.104-.329 1.03 1.03 0 0 1 .006-.351 1.14 1.14 0 0 1 .115-.329 1.01 1.01 0 0 1 .219-.274c.088-.08.185-.144.291-.192a1.13 1.13 0 0 1 .34-.088c.117-.011.234-.003.351.022a.98.98 0 0 1 .318.137 1.04 1.04 0 0 1 .258.231 1 1 0 0 1 .175.301 1.05 1.05 0 0 1 .071.346 1.09 1.09 0 0 1-.044.345 1.07 1.07 0 0 1-.154.319 1.05 1.05 0 0 1-.247.246c-.095.069-.194.123-.307.159a1.03 1.03 0 0 1-.346.05 1.01 1.01 0 0 1-.346-.061 1.05 1.05 0 0 1-.302-.17.99.99 0 0 1-.236-.257c-.066-.099-.113-.207-.143-.324a1.09 1.09 0 0 1-.033-.345 1.02 1.02 0 0 1 .082-.341c.047-.11.106-.208.187-.296s.166-.162.269-.225a1.06 1.06 0 0 1 .329-.12.94.94 0 0 1 .351-.011c.117.014.229.047.335.099s.196.117.28.197l.126.126 1.048 2.029c.695 1.35.996 2.287.905 2.814l-.34 2.057c-.135.848-.36 1.638-.675 2.369s-.856 1.079-1.634 1.031-1.567-.271-2.364-.669-1.583-1.062-2.358-1.991-1.229-1.918-1.36-2.978.022-2.24.472-3.549 1.143-2.433 2.068-3.372 1.786-1.511 2.583-1.723l1.305-.329c.069-.007.141-.005.214.006a1.07 1.07 0 0 1 .214.055 1.4 1.4 0 0 1 .192.104c.059.044.111.093.159.148s.09.121.126.186a.7.7 0 0 1 .071.203c.014.069.026.145.022.214a.91.91 0 0 1-.027.22.9.9 0 0 1-.082.203.68.68 0 0 1-.126.175c-.051.055-.106.102-.165.143a.86.86 0 0 1-.197.104l-.104.033zm42.203-83.163l-.57 1.146c-.377.768-.669 1.605-.878 2.512s-.227 1.75-.044 2.517a3.76 3.76 0 0 0 1.102 1.92c.552.512 1.053.72 1.503.625s.594-.569.433-1.42a8.39 8.39 0 0 0-.784-2.32c-.362-.698-.733-1.157-1.102-1.388s-.921-.483-1.667-.757l-1.267-.494c-.095-.055-.181-.124-.258-.208s-.132-.175-.175-.274a1.08 1.08 0 0 1-.082-.324 1.07 1.07 0 0 1 .028-.324.95.95 0 0 1 .132-.307.98.98 0 0 1 .219-.241 1.03 1.03 0 0 1 .285-.165c.106-.041.21-.06.324-.06s.218.009.323.038a1.02 1.02 0 0 1 .296.148c.091.066.168.143.23.23s.115.19.148.296.048.214.044.324a.88.88 0 0 1-.06.324.98.98 0 0 1-.159.291 1.09 1.09 0 0 1-.247.219c-.091.059-.192.102-.302.132a1.07 1.07 0 0 1-.324.027 1.08 1.08 0 0 1-.324-.082.98.98 0 0 1-.482-.427 1.07 1.07 0 0 1-.115-.313 1 1 0 0 1-.011-.329.95.95 0 0 1 .099-.313.98.98 0 0 1 .192-.269 1.06 1.06 0 0 1 .263-.192 1 1 0 0 1 .318-.099c.11-.015.219-.011.329.011l.159.027 1.36.647c.903.428 1.587.865 2.051 1.311s.929 1.106 1.393 1.991.748 1.925.85 3.11-.113 2.042-.647 2.561-1.214.638-2.029.346-1.57-.803-2.265-1.53c-.702-.731-1.17-1.611-1.404-2.638a7.42 7.42 0 0 1-.027-3.148c.216-1.068.492-1.996.828-2.786l.565-1.283a1.07 1.07 0 0 1 .148-.187 1.28 1.28 0 0 1 .192-.148.98.98 0 0 1 .219-.093.87.87 0 0 1 .236-.044c.077-.004.155.002.236.017a1.22 1.22 0 0 1 .23.077c.073.033.141.075.203.126a.81.81 0 0 1 .165.17.86.86 0 0 1 .126.208.83.83 0 0 1 .066.23.94.94 0 0 1 .016.23 1.04 1.04 0 0 1-.049.236l-.038.115zM56.564 86.526l.806-.351 1.991-.916c.786-.373 1.462-.808 2.029-1.305s1.104-.823 1.613-.987l2.057-.614 2.331-.713c.68-.23 1.207-.464 1.58-.702l1.278-.779c.479-.289 1.044-.539 1.695-.751l1.684-.483c.468-.106 1.02-.15 1.656-.132l1.563.027c.406-.004.885.077 1.437.241s1.102.49 1.651.976l1.344 1.097a5.02 5.02 0 0 0 1.185.603 4.84 4.84 0 0 0 1.415.269c.501.022 1.091.018 1.782-.022l2.353-.143c.881-.055 1.6-.157 2.155-.307l1.437-.373c.402-.102.932-.165 1.591-.186s1.318.161 1.991.549 1.219.554 1.651.499.949-.216 1.563-.483 1.355-.656 2.232-1.168l2.501-1.294 1.986-.823c.533-.197 1.139-.313 1.815-.345s1.397.091 2.172.362l1.738.625c.384.146.898.391 1.542.735s1.272.541 1.886.592 1.311.04 2.101-.044 1.464-.091 2.024-.033 1.219.283 1.979.686l1.991 1.113a8.5 8.5 0 0 0 1.673.784l1.009.367a1.24 1.24 0 0 1 .34.241c.099.099.179.212.242.34a1.2 1.2 0 0 1 .126.4c.018.139.014.278-.011.417a1.28 1.28 0 0 1-.143.389 1.18 1.18 0 0 1-.263.324 1.26 1.26 0 0 1-.351.23c-.128.055-.263.088-.406.099a1.34 1.34 0 0 1-.417-.033 1.3 1.3 0 0 1-.384-.164 1.32 1.32 0 0 1-.307-.28 1.36 1.36 0 0 1-.208-.362 1.3 1.3 0 0 1-.077-.411 1.31 1.31 0 0 1 .055-.411c.04-.135.102-.26.186-.373a1.32 1.32 0 0 1 .291-.296 1.27 1.27 0 0 1 .373-.186 1.33 1.33 0 0 1 .417-.055c.139.004.276.029.411.077a1.26 1.26 0 0 1 .362.203 1.27 1.27 0 0 1 .28.313c.077.117.131.245.164.384a1.3 1.3 0 0 1 .033.411 1.29 1.29 0 0 1-.098.406 1.18 1.18 0 0 1-.225.351c-.095.106-.203.194-.324.263a1.39 1.39 0 0 1-.395.148 1.32 1.32 0 0 1-.417.011l-.208-.027-1.053-.428-1.892-.867-1.563-.801c-.483-.238-.924-.382-1.322-.433a8.57 8.57 0 0 0-1.185-.06l-1.365.06c-.516.029-1.037.011-1.563-.055a6.53 6.53 0 0 1-1.443-.346 6.2 6.2 0 0 1-1.234-.625l-1.25-.834c-.45-.3-.947-.552-1.492-.757s-1.05-.313-1.514-.335a4.78 4.78 0 0 0-1.366.132c-.449.11-1.016.351-1.7.724s-1.481.865-2.38 1.486L99.3 83.96c-.753.431-1.49.697-2.21.795s-1.274.053-1.662-.126-.843-.424-1.377-.735-1.07-.444-1.618-.4-1.154.155-1.815.335l-2.265.51-2.55.521c-.848.183-1.722.223-2.622.121s-1.605-.274-2.117-.526a6.86 6.86 0 0 1-1.475-.982l-1.486-1.278c-.516-.446-.978-.682-1.388-.708s-1.011-.031-1.815-.016-1.444.095-1.92.241a6.81 6.81 0 0 0-1.431.653l-1.431.823-1.837.976c-.75.38-1.581.704-2.496.971l-2.04.625c-.446.154-.912.422-1.399.806s-.951.665-1.393.845l-1.207.483-1.349.581-.949.411c-.099.029-.199.047-.302.055s-.197 0-.296-.022-.196-.047-.291-.088a1.44 1.44 0 0 1-.258-.159 1.35 1.35 0 0 1-.214-.219 1.44 1.44 0 0 1-.159-.258c-.04-.095-.069-.192-.088-.291a1.17 1.17 0 0 1-.016-.296 1.42 1.42 0 0 1 .055-.302 1.34 1.34 0 0 1 .126-.274 1.36 1.36 0 0 1 .192-.241 1.52 1.52 0 0 1 .241-.186l.126-.077zm18.377 60.005l-1.316-.883-2.512-1.75c-.797-.574-1.488-1.186-2.073-1.837l-1.695-1.92a21.2 21.2 0 0 1-1.574-2.089l-1.552-2.413-1.667-2.743-1.492-2.501-.954-1.722a15.12 15.12 0 0 1-.625-1.448l-.329-.954a1.44 1.44 0 0 1-.055-.345 1.34 1.34 0 0 1 .022-.269 1.02 1.02 0 0 1 .088-.252 1.07 1.07 0 0 1 .148-.231 1.04 1.04 0 0 1 .197-.181.96.96 0 0 1 .236-.131 1.05 1.05 0 0 1 .258-.077 1.35 1.35 0 0 1 .269-.006 1.18 1.18 0 0 1 .269.055 1.46 1.46 0 0 1 .241.121 1.17 1.17 0 0 1 .208.175 1.12 1.12 0 0 1 .159.214 1.09 1.09 0 0 1 .099.252c.026.088-.068.64-.28 1.657s-.578 2.322-1.097 3.916-1.154 3.184-1.914 4.771l-1.947 3.845-1.174 2.265a15.9 15.9 0 0 0-.658 1.634l-.576 1.805-.45 1.64-.214.894a2.85 2.85 0 0 1-.115.334c-.037.081-.082.156-.137.225a1.14 1.14 0 0 1-.187.187 1.1 1.1 0 0 1-.225.137 1.02 1.02 0 0 1-.252.082c-.088.015-.177.02-.269.016a.94.94 0 0 1-.263-.049 1.02 1.02 0 0 1-.241-.11.98.98 0 0 1-.208-.159 1.26 1.26 0 0 1-.164-.208 1 1 0 0 1-.11-.247 1.24 1.24 0 0 1-.049-.258 1.31 1.31 0 0 1 .017-.268c.018-.088.249-.247.691-.478s.982-.471 1.607-.713l1.667-.663a10.92 10.92 0 0 1 1.382-.488c.439-.125.647-.461.625-1.01s.024-1.012.137-1.393.218-.908.324-1.585l.28-1.612.302-1.404.252-.987a1.65 1.65 0 0 1 .461-.636 1.68 1.68 0 0 1 .329-.214 1.55 1.55 0 0 1 .373-.127 1.74 1.74 0 0 1 .395-.038 1.77 1.77 0 0 1 .389.055 1.71 1.71 0 0 1 .367.153c.113.066.219.143.318.231a1.47 1.47 0 0 1 .252.307 1.59 1.59 0 0 1 .175.351 1.53 1.53 0 0 1 .082.389c.011.135.007.262-.011.39s-.027-.05-.027-.543.303-.331.91.488l1.931 2.797a28.13 28.13 0 0 0 2.106 2.819l1.717 1.942c.431.453.91.788 1.437 1.003s1.011.324 1.453.313l1.563-.055a15.7 15.7 0 0 0 1.799-.17l1.141-.137a1.35 1.35 0 0 1 .477.088 1.52 1.52 0 0 1 .428.235c.128.103.238.223.329.362a1.46 1.46 0 0 1 .197.45 1.36 1.36 0 0 1 .044.488 1.48 1.48 0 0 1-.11.472 1.55 1.55 0 0 1-.263.417c-.11.124-.236.228-.378.312a1.47 1.47 0 0 1-.461.176 1.62 1.62 0 0 1-.483.016c-.165-.022-.322-.069-.472-.142a1.5 1.5 0 0 1-.4-.28c-.12-.117-.212-.249-.285-.395s-.126-.301-.148-.466a1.49 1.49 0 0 1 .005-.494c.029-.161.084-.314.165-.46s.181-.271.302-.384a1.5 1.5 0 0 1 .411-.269 1.56 1.56 0 0 1 .96-.088 1.52 1.52 0 0 1 .45.192 1.41 1.41 0 0 1 .367.324 1.61 1.61 0 0 1 .247.422 1.54 1.54 0 0 1 .099.483 1.65 1.65 0 0 1-.06.482 1.54 1.54 0 0 1-.214.445 1.51 1.51 0 0 1-.346.351c-.132.095-.278.168-.439.219l-.23.077-1.124.126a12.66 12.66 0 0 1-2.068.077l-1.717-.181c-.508-.084-1.033-.264-1.574-.538s-1.011-.559-1.42-.844a8.35 8.35 0 0 1-1.278-1.125l-1.931-1.969a35.94 35.94 0 0 1-2.419-2.703l-1.695-2.096-1.377-1.787c-.552-.754-.803-1.191-.751-1.311a1.38 1.38 0 0 1 .192-.346 1.65 1.65 0 0 1 .269-.29 1.68 1.68 0 0 1 .329-.214 1.55 1.55 0 0 1 .373-.127 1.74 1.74 0 0 1 .395-.038 1.77 1.77 0 0 1 .389.055 1.71 1.71 0 0 1 .367.153c.113.066.219.143.318.231a1.47 1.47 0 0 1 .252.307 1.59 1.59 0 0 1 .175.351 1.52 1.52 0 0 1 .082.384c.011.132.007.267-.011.395a4.55 4.55 0 0 1-.099.477l-.324 1.25-.362 1.553-.219 1.173a12.6 12.6 0 0 1-.307 1.229l-.422 1.349a13.2 13.2 0 0 1-.587 1.453c-.234.497-.634.852-1.201 1.064s-1.066.351-1.497.417-1.018.212-1.75.428-1.356.322-1.876.329-.58-.115-.192-.357.563-.327.526-.246a1.03 1.03 0 0 1-.137.23c-.055.07-.117.132-.187.187a1.1 1.1 0 0 1-.225.137 1.02 1.02 0 0 1-.252.082c-.088.015-.177.02-.269.016a.88.88 0 0 1-.258-.049c-.088-.026-.17-.062-.247-.11s-.146-.097-.208-.159a1.26 1.26 0 0 1-.164-.208 1 1 0 0 1-.11-.247 1.24 1.24 0 0 1-.049-.258 1.31 1.31 0 0 1 .017-.268c.018-.088.066-.196.143-.324s.203-.406.367-.834l.554-1.667.68-1.952a13.1 13.1 0 0 1 .823-1.684l1.201-2.21 1.794-3.735a34.22 34.22 0 0 0 1.728-4.585l.856-3.478.175-1.31c-.004-.092.004-.181.022-.269a1.02 1.02 0 0 1 .088-.252 1.07 1.07 0 0 1 .148-.231 1.04 1.04 0 0 1 .197-.181.96.96 0 0 1 .236-.131 1.05 1.05 0 0 1 .258-.077 1.35 1.35 0 0 1 .269-.006 1.18 1.18 0 0 1 .269.055 1.46 1.46 0 0 1 .241.121 1.17 1.17 0 0 1 .208.175 1.12 1.12 0 0 1 .159.214 1.09 1.09 0 0 1 .099.252c.026.088.035.203.027.346s0 .413.022.812a6.34 6.34 0 0 0 .209 1.228c.113.424.375.975.784 1.651l1.492 2.479 1.667 2.704 1.497 2.298c.479.706.993 1.364 1.541 1.974l1.585 1.755c.508.556 1.159 1.105 1.953 1.646l2.539 1.645 1.426.911a.81.81 0 0 1 .154.164c.044.059.08.123.11.192a.89.89 0 0 1 .06.214.88.88 0 0 1 .005.219c-.007.073-.022.147-.044.22s-.059.135-.099.197a.9.9 0 0 1-.143.17c-.055.051-.115.095-.181.132a1.14 1.14 0 0 1-.203.088c-.073.018-.146.029-.219.032a.74.74 0 0 1-.219-.022.8.8 0 0 1-.208-.071l-.104-.049z"/><path d="M61.816 124.848l1.086-.033 1.305.006a1.25 1.25 0 0 1 .406.137 1.4 1.4 0 0 1 .587.614 1.47 1.47 0 0 1 .115.412 1.31 1.31 0 0 1-.027.427c-.032.142-.082.271-.159.395a1.3 1.3 0 0 1-.274.329c-.113.095-.236.169-.367.22s-.276.086-.422.093a1.41 1.41 0 0 1-.428-.044c-.143-.037-.269-.1-.389-.181a1.48 1.48 0 0 1-.307-.296 1.41 1.41 0 0 1-.203-.378 1.3 1.3 0 0 1 0-.845 1.41 1.41 0 0 1 .203-.378 1.46 1.46 0 0 1 .307-.297c.121-.08.25-.14.389-.181s.285-.051.428-.043.287.038.422.093.258.128.367.219a1.32 1.32 0 0 1 .274.329 1.23 1.23 0 0 1 .159.401 1.26 1.26 0 0 1 .027.422 1.47 1.47 0 0 1-.115.411 1.32 1.32 0 0 1-.241.357 1.29 1.29 0 0 1-.346.257 1.23 1.23 0 0 1-.406.138l-.214.038-1.091-.033-1.234-.049a1.54 1.54 0 0 1-.302-.077 1.26 1.26 0 0 1-.269-.143 1.3 1.3 0 0 1-.23-.203 1.16 1.16 0 0 1-.175-.252c-.048-.091-.084-.186-.11-.285s-.033-.199-.033-.302a1.37 1.37 0 0 1 .033-.301 1.36 1.36 0 0 1 .11-.286 1.21 1.21 0 0 1 .175-.252c.069-.077.146-.144.23-.203s.174-.106.269-.142.199-.063.302-.077l.148-.017zm58.333-1.533l.702-.005 1.437-.039a10.97 10.97 0 0 1 1.53.022c.534.044.991.147 1.371.308s.927.561 1.651 1.201 1.018 1.351.883 2.133a8.92 8.92 0 0 1-.614 2.101l-.867 1.908-.817 1.975-.713 2.172c-.231.789-.567 1.74-1.009 2.852l-1.262 3.131-1.184 2.797-.982 2.49c-.263.768-.43 1.391-.499 1.87s-.11.905-.121 1.289l-.055.697a1.37 1.37 0 0 1-.098.241 1.15 1.15 0 0 1-.154.209c-.062.062-.13.117-.203.164a1.1 1.1 0 0 1-.23.115 1 1 0 0 1-.253.055c-.087.007-.175.006-.263-.005a1.22 1.22 0 0 1-.247-.072 1.2 1.2 0 0 1-.23-.126c-.069-.051-.132-.11-.186-.175s-.107-.143-.143-.22a1.36 1.36 0 0 1-.088-.247 1.05 1.05 0 0 1-.022-.257c.004-.088-.005-.346-.027-.774s.035-1.082.17-1.963.351-1.854.636-2.918l1.009-3.751c.388-1.43.803-2.651 1.245-3.664l1.179-2.545 1.048-1.963.855-1.64.702-1.426c.245-.479.664-1.102 1.256-1.87s1.258-1.172 2.008-1.201 1.318.267 1.694.888.615 1.631.724 3.028l.198 4.744.044 4.393-.006 2.956.05 2.046.038 1.656c-.007.552-.062 1.048-.165 1.486-.102.443-.254.9-.455 1.371a1.99 1.99 0 0 1-.992 1.043c-.458.223-1.03.396-1.717.521l-1.936.351c-.6.109-1.459.219-2.578.329l-1.892.148a1.33 1.33 0 0 1-.411-.11c-.128-.058-.245-.135-.351-.23a1.42 1.42 0 0 1-.258-.335c-.07-.124-.117-.258-.143-.4a1.25 1.25 0 0 1-.005-.423 1.21 1.21 0 0 1 .126-.405c.066-.128.15-.242.252-.34a1.34 1.34 0 0 1 .346-.242 1.29 1.29 0 0 1 .4-.12c.143-.019.285-.013.428.016a1.41 1.41 0 0 1 .395.148 1.33 1.33 0 0 1 .548.631 1.32 1.32 0 0 1 .099.411c.011.143-.002.284-.038.422s-.094.269-.17.39a1.31 1.31 0 0 1-.291.312c-.11.088-.232.156-.368.203a1.32 1.32 0 0 1-.416.077 1.36 1.36 0 0 1-.423-.066c-.131-.044-.256-.107-.373-.192a1.3 1.3 0 0 1-.296-.301 1.23 1.23 0 0 1-.181-.384 1.36 1.36 0 0 1-.055-.417c.008-.143.037-.282.088-.417a1.27 1.27 0 0 1 .214-.367 1.24 1.24 0 0 1 .318-.28c.117-.077.245-.132.384-.165l.208-.049 1.536-.082c1.02-.055 1.819-.141 2.397-.258s1.212-.188 1.914-.203 1.155-.263 1.349-.746a14.56 14.56 0 0 0 .494-1.437 6.95 6.95 0 0 0 .246-1.535l.011-2.035-.087-2.94-.159-4.327-.269-4.338-.329-2.397c-.106-.435-.342-.318-.708.351l-.976 1.656-.855 1.339-.955 1.552-1.009 1.864-1.075 2.403c-.391.939-.76 2.124-1.108 3.554l-.85 3.652a21.37 21.37 0 0 0-.422 2.682l-.104 2.002-.039.949a1.37 1.37 0 0 1-.098.241 1.15 1.15 0 0 1-.154.209c-.062.062-.13.117-.203.164a1.1 1.1 0 0 1-.23.115 1 1 0 0 1-.253.055c-.087.007-.175.006-.263-.005a1.22 1.22 0 0 1-.247-.072 1.2 1.2 0 0 1-.23-.126c-.069-.051-.132-.11-.186-.175s-.107-.143-.143-.22a1.36 1.36 0 0 1-.088-.247 1.05 1.05 0 0 1-.022-.257c.004-.088.066-.337.187-.746l.411-1.382.614-2.002.911-2.561 1.047-2.808 1.059-3.055c.354-1.05.61-2.002.768-2.858l.51-2.402.586-2.155c.209-.695.512-1.496.911-2.403s.715-1.162.949-.767.109.49-.384.296l-1.393-.527c-.432-.153-.889-.245-1.371-.274l-1.437-.038-.872-.022c-.117-.015-.231-.044-.34-.088a1.36 1.36 0 0 1-.308-.159 1.44 1.44 0 0 1-.257-.23 1.22 1.22 0 0 1-.198-.286 1.53 1.53 0 0 1-.126-.329 1.36 1.36 0 0 1-.044-.34c.004-.113.019-.226.044-.34a1.55 1.55 0 0 1 .126-.329c.051-.102.117-.197.198-.285s.162-.165.257-.23a1.36 1.36 0 0 1 .308-.159 1.33 1.33 0 0 1 .34-.088l.17-.017z"/><path d="M65.547 134.107l.614-.406a8.56 8.56 0 0 1 1.53-.784c.611-.249 1.232-.432 1.865-.549s1.232-.152 1.799-.104 1.157.172 1.772.373 1.095.512 1.431.932.579 1.156.74 2.205.373 2.055.636 3.006.512 1.696.746 2.248l.9 2.046.834 1.892a12.73 12.73 0 0 0 .658 1.36 9.9 9.9 0 0 1 .642 1.344l.499 1.256c.161.398.379.835.653 1.311s.441.373.499-.307l.236-1.832.241-1.722.209-1.832.23-1.646.307-1.601c.128-.585.554-1.086 1.278-1.503s1.446-.55 2.155-.411 1.241.442 1.596.91l.976 1.421c.296.482.591 1.115.883 1.897l.872 2.046.823 1.574c.256.468.545.901.867 1.3a13.86 13.86 0 0 0 .998 1.113c.347.348.768.066 1.261-.844l1.108-1.991.653-1.174c.19-.369.536-.83 1.036-1.382s1.044-.846 1.64-.883 1.157.143 1.683.527 1.064 1.076 1.624 2.067l1.42 2.457c.388.644.964.684 1.728.121s1.481-1.194 2.161-1.903 1.228-1.347 1.656-1.925l1.338-1.744 1.097-1.498.773-1.239c.253-.413.748-.667 1.487-.762s1.369.097 1.892.586.967 1.096 1.322 1.816l.927 1.793c.259.479.539.891.839 1.234s.173.596-.368.746-.629-.104-.263-.762l.702-1.174c.102-.124.223-.227.362-.307a1.45 1.45 0 0 1 .439-.181c.157-.033.316-.04.477-.022a1.32 1.32 0 0 1 .455.126 1.44 1.44 0 0 1 .395.264c.117.109.214.235.291.378s.128.292.153.45a1.47 1.47 0 0 1 0 .477c-.025.157-.077.307-.153.45s-.169.268-.286.378-.248.199-.394.269a1.47 1.47 0 0 1-.456.126c-.161.018-.32.011-.477-.022a1.54 1.54 0 0 1-.439-.176 1.47 1.47 0 0 1-.362-.307 1.43 1.43 0 0 1-.246-.406 1.36 1.36 0 0 1-.105-.466c-.011-.161.006-.318.05-.471a1.5 1.5 0 0 1 .197-.434c.092-.131.201-.246.329-.345a1.43 1.43 0 0 1 .417-.225 1.49 1.49 0 0 1 .472-.077 1.48 1.48 0 0 1 .471.077c.15.051.289.124.417.219s.238.214.329.346a1.5 1.5 0 0 1 .203.433 1.59 1.59 0 0 1 .05.472c-.008.161-.041.316-.099.466l-.093.225-.757 1.064c-.505.709-1.227.95-2.167.724s-1.537-.567-1.793-1.009l-.751-1.382c-.242-.476-.662-1.054-1.262-1.734s-1.06-.819-1.382-.427l-1.119 1.453-1.289 1.87c-.435.677-.959 1.397-1.574 2.161l-2.051 2.474c-.749.881-1.4 1.389-1.952 1.524s-1.059.094-1.509-.115-.8-.473-1.053-.795l-1.129-1.415-1.618-2.145c-.578-.808-.978-1.016-1.201-.625l-.691 1.168c-.234.384-.492.867-.773 1.448s-.647 1.214-1.086 1.898-1.035 1.066-1.777 1.146-1.364 0-1.865-.252-.927-.609-1.278-1.07l-1.146-1.469c-.413-.523-.739-1.015-.976-1.476l-.932-1.629-1.037-1.804c-.307-.578-.709-1.117-1.207-1.618s-.79-.536-.877-.104-.159.925-.214 1.492l-.11 1.864-.148 2.178c-.08.768-.216 1.438-.406 2.013s-.421 1.128-.702 1.65-.603.861-.965 1.004-.848.154-1.459.033-1.159-.475-1.656-1.064-.835-1.071-1.026-1.437-.402-.921-.625-1.667-.486-1.399-.801-1.958-.55-1.073-.718-1.541l-.477-1.372-.422-1.217-.576-1.464-.954-2.468c-.384-1.039-.673-2.021-.866-2.946s-.552-1.442-1.086-1.563-1.035-.144-1.492-.082a6.46 6.46 0 0 0-1.399.373 9.16 9.16 0 0 0-1.349.647l-.768.433a1.06 1.06 0 0 1-.269.088c-.095.018-.188.026-.28.022-.099-.004-.194-.02-.285-.049a1.18 1.18 0 0 1-.263-.11 1.4 1.4 0 0 1-.23-.175c-.066-.066-.124-.141-.175-.225s-.093-.167-.126-.258-.047-.185-.055-.28-.002-.184.016-.28.04-.188.077-.279a1.3 1.3 0 0 1 .148-.247c.058-.077.124-.144.197-.203l.115-.093z"/><path d="M68.208 141.395l.878.329c.589.216 1.194.627 1.815 1.234s1.128 1.302 1.53 2.084.739 1.611.998 2.485l.768 2.457.669 1.941a3.47 3.47 0 0 0 .96 1.399l1.201 1.168 1.08 1.053 1.179 1.015a3 3 0 0 0 1.453.658c.552.095 1.077.044 1.574-.154s.845-.473 1.042-.839l.795-1.459.757-1.519.68-1.497c.285-.6.772-.969 1.459-1.108s1.263-.051 1.728.252.934.753 1.409 1.36 1.113 1.057 1.903 1.361 1.486.398 2.09.285a3.92 3.92 0 0 0 1.711-.79c.538-.417 1.1-.735 1.689-.954s1.168-.293 1.739-.209 1.093.201 1.569.351.952.207 1.442.17l1.415-.159c.453-.073.984-.248 1.59-.526l2.013-.878 1.733-.647 1.328-.466a9.94 9.94 0 0 1 1.459-.461c.508-.124 1.129-.228 1.864-.312s1.329-.234 1.783-.461.905-.39 1.365-.488l1.503-.379 1.064-.257c.176-.019.347-.008.516.032a1.57 1.57 0 0 1 .477.198 1.49 1.49 0 0 1 .389.34c.114.132.201.28.263.444a1.57 1.57 0 0 1 .105.505c.007.175-.013.345-.061.51a1.66 1.66 0 0 1-.225.466c-.098.143-.217.267-.356.373s-.296.181-.461.236a1.71 1.71 0 0 1-.51.077 1.7 1.7 0 0 1-.504-.088 1.68 1.68 0 0 1-.456-.247c-.138-.11-.255-.236-.351-.378a1.62 1.62 0 0 1-.208-.472c-.048-.168-.064-.34-.049-.516s.049-.338.115-.499.155-.307.269-.438a1.64 1.64 0 0 1 .4-.33c.15-.091.309-.153.477-.186a1.52 1.52 0 0 1 .516-.022 1.47 1.47 0 0 1 .499.143 1.45 1.45 0 0 1 .422.296c.124.12.227.258.307.411a1.56 1.56 0 0 1 .159.494 1.62 1.62 0 0 1-.005.515 1.51 1.51 0 0 1-.17.483c-.084.153-.19.291-.318.411a1.56 1.56 0 0 1-.434.28l-.235.11-.905.225-1.668.378-2.106.472-2.226.427a6.54 6.54 0 0 0-1.717.483 13.1 13.1 0 0 1-1.563.587l-1.541.499-1.399.543c-.398.172-.843.329-1.333.472a10.56 10.56 0 0 1-1.524.318l-2.019.181a6.52 6.52 0 0 1-2.391-.291c-.771-.249-1.393-.261-1.865-.038l-1.437.702c-.49.248-1.176.473-2.057.674s-1.808.229-2.792.072-1.664-.412-2.04-.752-.896-.885-1.547-1.634-.737-1.132-.247-1.146.644.155.45.51l-.581 1.201c-.201.438-.517.998-.949 1.678l-1.366 2.007c-.472.662-1.016 1.134-1.634 1.415s-1.17.426-1.667.434a6.38 6.38 0 0 1-1.508-.154c-.512-.113-.98-.287-1.404-.521s-.863-.541-1.305-.921l-1.3-1.169a12.21 12.21 0 0 1-1.053-1.135l-.834-1.009a6.52 6.52 0 0 1-.773-1.13 6.36 6.36 0 0 1-.565-1.453 20.18 20.18 0 0 0-.636-1.953l-.828-2.276c-.26-.749-.559-1.42-.9-2.013-.344-.588-.711-1.086-1.102-1.491a3.6 3.6 0 0 0-1.426-.905l-.96-.368a.97.97 0 0 1-.23-.153.92.92 0 0 1-.186-.203c-.055-.077-.101-.158-.137-.242s-.055-.177-.066-.268a1 1 0 0 1-.005-.275c.011-.091.031-.181.06-.268a1.21 1.21 0 0 1 .126-.247 1.7 1.7 0 0 1 .181-.214 1.15 1.15 0 0 1 .23-.159 1.04 1.04 0 0 1 .258-.099c.088-.025.179-.038.274-.038a.96.96 0 0 1 .269.027l.137.033zm-34.441-10.156l.219-1.722.713-4.272 1.048-4.832.982-4.289.96-3.642 1.015-3.219 1.02-3.593 1.097-3.916 1.141-3.548 1.146-3.488 1.152-3.598 1.02-3.126.823-2.83.746-3.038a30.03 30.03 0 0 1 .856-3.049l.828-2.693.587-2.254a13.55 13.55 0 0 1 .614-1.909l.713-1.881.856-2.15.91-2.188c.267-.676.462-1.285.587-1.826a8.45 8.45 0 0 1 .477-1.475l.751-1.618c.307-.633.589-1.111.845-1.437s.603-.666 1.031-1.02.887-.579 1.366-.674 1.069-.135 1.771-.121 1.331.068 1.876.148a10.4 10.4 0 0 1 1.673.406c.567.183 1.296.497 2.188.943l2.803 1.366 2.808 1.344 2.644 1.272 2.309 1.075 1.953.998 2.139 1.091 2.265 1.146 2.271 1.322 2.654 1.486 2.413 1.113c.629.241 1.199.397 1.711.466a7.27 7.27 0 0 0 1.623.033l1.623-.148 2.282-.121 1.761-.006a1.49 1.49 0 0 1 .455.154 1.47 1.47 0 0 1 .378.291 1.39 1.39 0 0 1 .269.395 1.51 1.51 0 0 1 .132.466c.018.161.009.32-.027.477s-.091.311-.175.45a1.41 1.41 0 0 1-.313.362 1.54 1.54 0 0 1-.411.252 1.5 1.5 0 0 1-.472.099c-.165.008-.32-.006-.477-.049a1.51 1.51 0 0 1-.433-.203 1.5 1.5 0 0 1-.351-.329 1.41 1.41 0 0 1-.225-.428c-.051-.153-.077-.311-.077-.472a1.49 1.49 0 0 1 .077-.472 1.71 1.71 0 0 1 .225-.428c.099-.128.216-.238.351-.329a1.51 1.51 0 0 1 .433-.203c.157-.044.318-.06.483-.049a1.37 1.37 0 0 1 .466.104 1.43 1.43 0 0 1 .411.247 1.5 1.5 0 0 1 .313.367 1.41 1.41 0 0 1 .175.444c.037.157.046.316.027.477a1.48 1.48 0 0 1-.132.466c-.07.146-.155.278-.269.395a1.44 1.44 0 0 1-.384.291c-.143.077-.294.128-.455.153l-.236.038-1.179-.022-1.859-.071-1.431-.143-1.492-.225a7.46 7.46 0 0 1-1.602-.499l-1.848-.79-2.512-1.196-2.693-1.453-2.21-1.218-2.331-1.091c-.867-.369-1.583-.724-2.15-1.064a16.02 16.02 0 0 0-1.876-.943l-2.347-.993-2.693-1.119-2.89-1.141-2.808-1.059-2.512-.828c-.815-.234-1.72-.296-2.715-.187s-1.689.356-2.084.751-.794.899-1.207 1.514-.713 1.208-.91 1.782l-.697 1.887-.866 2.172-.839 2.194c-.252.702-.512 1.302-.779 1.799s-.501 1.075-.702 1.733l-.647 2.282-.823 2.665a27.33 27.33 0 0 0-.839 3l-.762 3.099-.834 2.874-1.015 3.121-1.152 3.609-1.141 3.483-1.113 3.493-1.092 3.927-1.02 3.631-.982 3.165c-.333 1.034-.638 2.23-.916 3.586l-.949 4.284-.987 4.744-.642 4.223-.208 1.821a.76.76 0 0 1-.071.192.84.84 0 0 1-.115.17.79.79 0 0 1-.154.137c-.055.036-.115.068-.181.093a.72.72 0 0 1-.197.05.73.73 0 0 1-.197.005 1.26 1.26 0 0 1-.203-.049c-.062-.026-.123-.057-.181-.094a1.08 1.08 0 0 1-.154-.137.66.66 0 0 1-.115-.17.78.78 0 0 1-.077-.192 1.21 1.21 0 0 1-.027-.203v-.093z"/><path d="M96.939 73.228l.022-1.393a16.87 16.87 0 0 1 .302-2.912 27.6 27.6 0 0 0 .4-3.291l.17-3.313.077-2.748.038-2.419.022-2.556.005-2.611a21.89 21.89 0 0 0-.181-2.786l-.335-2.353c-.095-.574-.247-1.159-.455-1.755a6.15 6.15 0 0 0-.899-1.667l-1.119-1.431c-.355-.431-.826-.792-1.415-1.08l-1.448-.768c-.373-.219-.821-.293-1.344-.219l-2.024.357-2.638.576-2.715.719a10.94 10.94 0 0 0-2.325.954 20.29 20.29 0 0 0-1.892 1.201l-1.037.702a1.08 1.08 0 0 1-.324.082.94.94 0 0 1-.335-.027.95.95 0 0 1-.307-.132c-.095-.059-.177-.132-.247-.219s-.13-.185-.17-.291a1.11 1.11 0 0 1-.06-.329 1.1 1.1 0 0 1 .038-.329 1.01 1.01 0 0 1 .148-.302 1.03 1.03 0 0 1 .236-.236 1.12 1.12 0 0 1 .302-.154 1.01 1.01 0 0 1 .329-.044.92.92 0 0 1 .329.06c.106.036.203.091.291.164a1.1 1.1 0 0 1 .225.247c.062.095.108.197.137.307a.99.99 0 0 1 .027.329c-.008.11-.038.223-.082.329a1.01 1.01 0 0 1-.175.28 1.2 1.2 0 0 1-.258.214 1.07 1.07 0 0 1-.318.115c-.11.022-.221.026-.335.011a.96.96 0 0 1-.318-.099.95.95 0 0 1-.274-.192.98.98 0 0 1-.192-.269 1.11 1.11 0 0 1-.104-.318c-.018-.11-.011-.225.011-.335a.97.97 0 0 1 .11-.318.95.95 0 0 1 .208-.258l.126-.115.965-.559 2.133-1.289a13.66 13.66 0 0 1 2.49-1.229l2.704-.982 2.616-.921c.826-.289 1.748-.45 2.764-.483s1.782.119 2.298.455l1.382.856c.402.234.803.512 1.201.834a8.4 8.4 0 0 1 1.179 1.185c.384.464.709.903.976 1.316a6.41 6.41 0 0 1 .642 1.272c.161.438.278 1.004.351 1.706l.137 1.903c.022.563.101 1.375.236 2.435s.199 2.022.203 2.885l-.005 2.611-.005 2.567-.016 2.441-.06 2.781-.148 3.433-.351 3.241c-.165.921-.241 1.846-.23 2.775l.005 1.486c-.007.069-.022.135-.044.197s-.058.128-.099.186a1.09 1.09 0 0 1-.137.154c-.051.044-.106.082-.165.115a.76.76 0 0 1-.192.071.81.81 0 0 1-.203.027c-.066 0-.134-.009-.203-.027a.76.76 0 0 1-.192-.071 1.03 1.03 0 0 1-.165-.115 1.1 1.1 0 0 1-.137-.154.95.95 0 0 1-.099-.186.86.86 0 0 1-.044-.197l-.016-.099zm2.399-.203l.998-.784 2.462-1.728 2.748-1.678c.859-.486 1.819-.929 2.879-1.327l3.105-1.163 3.115-1.02 3.06-.9c.969-.3 2.139-.583 3.51-.85l4.059-.636 3.087-.466 2.211-.439c.757-.139 1.404-.146 1.941-.022s.987.269 1.349.422.838.581 1.426 1.283l2.041 2.38 2.095 2.435 1.771 2.287 2.024 3.066 2.243 3.636 1.947 3.494 1.755 3.346 1.673 3.494 1.717 4.102 1.596 4.481 1.212 3.982.85 3.296.63 3.22.467 2.972.329 2.732.34 2.605.406 2.336.384 2.271.356 2.292.406 1.87c.142.487.194 1.287.153 2.403l-.153 1.815c-.066.095-.145.177-.236.247a1.05 1.05 0 0 1-.302.159.93.93 0 0 1-.334.049c-.113 0-.225-.018-.335-.055a1.01 1.01 0 0 1-.296-.159 1.08 1.08 0 0 1-.236-.246c-.062-.096-.108-.198-.137-.308s-.046-.226-.038-.34a1.02 1.02 0 0 1 .077-.329.93.93 0 0 1 .175-.29.99.99 0 0 1 .258-.22c.099-.058.205-.1.318-.126a1.02 1.02 0 0 1 .335-.016c.114.011.226.045.329.093a1.01 1.01 0 0 1 .279.192.91.91 0 0 1 .203.269c.055.102.092.21.11.323s.018.227 0 .34a1.16 1.16 0 0 1-.11.318c-.055.103-.124.194-.208.275a1.14 1.14 0 0 1-.28.186c-.106.048-.216.077-.329.088s-.227.009-.34-.017a1.07 1.07 0 0 1-.313-.126c-.098-.062-.184-.137-.257-.225a1.13 1.13 0 0 1-.176-.29 1.01 1.01 0 0 1-.071-.329c-.007-.113.005-.231.038-.341l.044-.164.181-1.053c.121-.702.152-1.313.093-1.832l-.296-1.93-.356-2.287-.368-2.26-.406-2.397-.345-2.616-.324-2.687-.46-2.913-.62-3.137-.839-3.236-1.196-3.905-1.58-4.404-1.694-4.02-1.673-3.439-1.761-3.296-1.952-3.406-2.254-3.549-2.013-2.912a26.52 26.52 0 0 0-1.788-2.133l-2.227-2.342-2.188-2.227c-.64-.629-1.141-1.018-1.503-1.168s-.846-.25-1.464-.291-1.307.017-2.068.17-1.793.307-3.098.461l-3.927.614-3.45.845-3.006.894-3.054 1.02-2.984 1.135a17.69 17.69 0 0 0-2.715 1.278l-2.616 1.651-2.364 1.733-1.069.856a.88.88 0 0 1-.187.088c-.066.022-.133.035-.203.038a.61.61 0 0 1-.197-.011 1 1 0 0 1-.198-.055 1.06 1.06 0 0 1-.175-.104.94.94 0 0 1-.148-.148.87.87 0 0 1-.104-.17c-.029-.066-.051-.132-.066-.197s-.015-.132-.011-.198.015-.137.033-.203a.71.71 0 0 1 .082-.186.82.82 0 0 1 .126-.165l.071-.071z"/><path d="M159.406 128.335l-.066 1.387-.082 2.452.028 2.062.016 1.196c-.018.121-.057.234-.115.34a1.17 1.17 0 0 1-.22.285 1.09 1.09 0 0 1-.296.203 1.15 1.15 0 0 1-.351.099c-.117.011-.234.003-.351-.022a1.08 1.08 0 0 1-.334-.132c-.106-.062-.198-.141-.275-.236s-.142-.193-.186-.307a.97.97 0 0 1-.077-.351 1.1 1.1 0 0 1 .039-.362c.033-.117.082-.225.148-.323a1.07 1.07 0 0 1 .252-.264 1.13 1.13 0 0 1 .318-.17c.113-.04.23-.06.351-.06a1.29 1.29 0 0 1 .351.06c.117.041.225.097.324.17a1.03 1.03 0 0 1 .246.264 1.12 1.12 0 0 1 .149.323 1.15 1.15 0 0 1 .038.362.97.97 0 0 1-.077.351c-.044.114-.106.216-.186.307a.99.99 0 0 1-.275.236 1.07 1.07 0 0 1-.334.132c-.117.025-.236.033-.357.022s-.235-.048-.345-.099a1.09 1.09 0 0 1-.296-.203c-.088-.084-.161-.179-.22-.285a1.02 1.02 0 0 1-.115-.34l-.027-.181.044-1.015.027-2.062-.082-2.452-.05-1.53c.015-.095.039-.188.072-.279a1.24 1.24 0 0 1 .131-.253 1.12 1.12 0 0 1 .192-.214c.073-.065.152-.12.236-.164a1.19 1.19 0 0 1 .269-.104 1.26 1.26 0 0 1 .285-.033 1.26 1.26 0 0 1 .285.033c.092.022.181.056.269.104s.163.099.236.164a1.12 1.12 0 0 1 .192.214 1.15 1.15 0 0 1 .131.253c.033.091.057.184.072.279l.016.143zm-73.874-5.249l-.082 1.267a5.31 5.31 0 0 0 .395 2.397c.314.749.636 1.336.965 1.76s.956.793 1.87 1.108l2.687.877a18.81 18.81 0 0 1 2.578 1.01l2.446 1.321c.79.476 1.523.971 2.199 1.487s1.252 1.062 1.728 1.64l1.234 1.382c.347.34.533.192.559-.445a5.26 5.26 0 0 1 .422-1.875l.625-1.64c.154-.479.218-.955.192-1.426s-.128-.931-.307-1.377-.396-.89-.652-1.333-.611-.903-1.064-1.382l-1.289-1.25a19.88 19.88 0 0 0-1.558-1.201l-1.152-.812a1.41 1.41 0 0 1-.34-.334c-.095-.128-.166-.269-.214-.423s-.071-.311-.071-.471a1.39 1.39 0 0 1 .088-.461 1.44 1.44 0 0 1 .23-.417 1.5 1.5 0 0 1 .356-.324 1.41 1.41 0 0 1 .433-.191 1.57 1.57 0 0 1 .472-.039c.161.011.316.048.466.11a1.41 1.41 0 0 1 .4.252c.12.106.221.23.302.373a1.39 1.39 0 0 1 .165.439 1.36 1.36 0 0 1 .016.471c-.018.161-.062.315-.132.461a1.38 1.38 0 0 1-.28.384c-.114.113-.238.21-.384.28s-.293.122-.45.148a1.39 1.39 0 0 1-.477-.011 1.43 1.43 0 0 1-.45-.165c-.139-.076-.263-.173-.373-.29a1.59 1.59 0 0 1-.258-.401 1.42 1.42 0 0 1-.121-.46c-.011-.161.002-.318.038-.472a1.44 1.44 0 0 1 .187-.439 1.45 1.45 0 0 1 .313-.356 1.56 1.56 0 0 1 .411-.236 1.54 1.54 0 0 1 .466-.093 1.56 1.56 0 0 1 .472.06l.23.071 1.234.883c.822.585 1.453 1.11 1.892 1.574l1.058 1.147c.267.307.534.656.801 1.047l.883 1.432a11.91 11.91 0 0 1 .85 1.837c.249.665.32 1.409.214 2.232s-.256 1.481-.45 1.964l-.658 1.787c-.248.717-.658 1.494-1.228 2.331s-1.176 1.22-1.827 1.147-1.131-.359-1.442-.856l-.982-1.492c-.351-.497-.845-.978-1.481-1.442a22.03 22.03 0 0 0-2.079-1.338c-.749-.432-1.508-.816-2.276-1.152a16.52 16.52 0 0 0-2.495-.856l-2.506-.685c-.775-.231-1.382-.521-1.821-.872s-.839-.812-1.201-1.382-.731-1.333-1.108-2.298c-.384-.966-.569-1.883-.554-2.754l.033-1.404a.89.89 0 0 1 .06-.219.81.81 0 0 1 .115-.192.84.84 0 0 1 .154-.165 1.04 1.04 0 0 1 .187-.12.88.88 0 0 1 .214-.071.9.9 0 0 1 .219-.017 1.1 1.1 0 0 1 .219.033c.073.022.143.051.208.088a1.12 1.12 0 0 1 .181.137.87.87 0 0 1 .143.175.82.82 0 0 1 .093.198.95.95 0 0 1 .049.225l.006.104z"/><path d="M92.419 124.417l1.415.648c.943.424 1.898.941 2.863 1.552s1.828 1.274 2.589 1.991l1.848 1.881 1.272 1.563.637.905a.9.9 0 0 1 .076.312.98.98 0 0 1-.021.324.88.88 0 0 1-.121.296c-.059.092-.13.172-.214.241a1.04 1.04 0 0 1-.274.165.97.97 0 0 1-.318.066 1.02 1.02 0 0 1-.318-.039c-.106-.033-.203-.08-.291-.142a.88.88 0 0 1-.23-.225.97.97 0 0 1-.149-.285c-.032-.106-.049-.212-.049-.318a1.05 1.05 0 0 1 .055-.318.97.97 0 0 1 .159-.286 1.03 1.03 0 0 1 .236-.219c.091-.059.19-.101.296-.126s.208-.04.318-.033a1 1 0 0 1 .313.071 1.08 1.08 0 0 1 .274.17c.084.073.153.157.208.252a.99.99 0 0 1 .115.302.92.92 0 0 1 .011.318 1 1 0 0 1-.093.313c-.044.099-.104.186-.181.263s-.164.141-.263.192a1.06 1.06 0 0 1-.302.099 1.06 1.06 0 0 1-.323-.006c-.11-.018-.212-.055-.307-.109a.95.95 0 0 1-.253-.198l-.109-.12-.412-.724c-.274-.483-.616-.973-1.025-1.47s-.96-1.048-1.651-1.662-1.483-1.185-2.386-1.7a18.37 18.37 0 0 0-2.803-1.317l-1.569-.614a1.13 1.13 0 0 1-.214-.159 1.09 1.09 0 0 1-.176-.208.93.93 0 0 1-.121-.242 1.09 1.09 0 0 1-.055-.263 1.06 1.06 0 0 1 .011-.263.93.93 0 0 1 .071-.263 1 1 0 0 1 .132-.236 1.04 1.04 0 0 1 .187-.192 1.08 1.08 0 0 1 .225-.148 1.02 1.02 0 0 1 .258-.088c.088-.018.175-.027.263-.027s.175.018.263.043l.132.033zm-14.59-79.109l.417-1.278.965-2.682 1.037-2.386.899-1.947a9.47 9.47 0 0 1 1.031-1.777 4.18 4.18 0 0 1 1.464-1.245l1.519-.718 1.431-.526c.519-.165 1.029-.293 1.53-.384s1.068-.155 1.689-.181l2.238-.104 2.007-.077a7.89 7.89 0 0 1 1.382.088l2.298.356 1.848.334a1.4 1.4 0 0 1 .411.236 1.52 1.52 0 0 1 .308.356 1.54 1.54 0 0 1 .181.439c.036.157.047.315.032.472a1.48 1.48 0 0 1-.126.461 1.35 1.35 0 0 1-.257.395 1.52 1.52 0 0 1-.373.291 1.43 1.43 0 0 1-.45.153 1.36 1.36 0 0 1-.472.006c-.157-.022-.307-.07-.45-.143s-.269-.172-.378-.285a1.47 1.47 0 0 1-.274-.389c-.069-.146-.11-.294-.132-.455a1.36 1.36 0 0 1 .022-.472 1.42 1.42 0 0 1 .17-.439 1.46 1.46 0 0 1 .302-.367 1.53 1.53 0 0 1 .406-.247 1.42 1.42 0 0 1 .461-.11 1.48 1.48 0 0 1 .472.049 1.41 1.41 0 0 1 .428.192c.135.088.252.196.351.324a1.38 1.38 0 0 1 .225.417 1.56 1.56 0 0 1 .082.466c0 .157-.024.313-.071.466a1.63 1.63 0 0 1-.22.422 1.45 1.45 0 0 1-.34.329 1.65 1.65 0 0 1-.428.203 1.44 1.44 0 0 1-.466.055l-.241-.011-1.086-.247-2.002-.466c-.611-.139-1.144-.212-1.601-.219l-1.947-.027a38.86 38.86 0 0 0-2.084.027l-1.409.082c-.391.033-.826.111-1.305.236l-1.898.499c-.79.205-1.34.477-1.651.817s-.612.845-.894 1.514l-.85 1.903c-.285.6-.578 1.349-.877 2.249l-.74 2.66-.346 1.442c-.037.088-.082.17-.137.247s-.124.146-.197.208a1.27 1.27 0 0 1-.236.159c-.088.04-.177.071-.269.093s-.188.031-.28.027a1.21 1.21 0 0 1-.28-.044 1.36 1.36 0 0 1-.263-.104 1.13 1.13 0 0 1-.23-.17 1.34 1.34 0 0 1-.186-.219 1.16 1.16 0 0 1-.126-.252c-.029-.091-.049-.185-.06-.28a1.25 1.25 0 0 1 .005-.28l.022-.143z"/><path d="M60.321 65.537l-.806 1.146c-.537.764-.985 1.505-1.344 2.221l-1.168 2.512-1.36 2.978-1.355 3.121-1.218 3.066-1.218 3.236-1.064 2.885-1.223 3.143-1.667 4.02-1.42 3.318-1.212 2.792-1.294 2.951-1.119 2.726-1.19 2.813c-.464 1.028-.909 2.177-1.333 3.45l-1.382 4.245-.987 3.515-.554 2.792a27.89 27.89 0 0 0-.422 3.187c-.077 1.049-.53 1.168-1.36.356s-1.462-1.594-1.898-2.347-.526-1.62-.263-2.6a15.84 15.84 0 0 1 1.015-2.759l1.256-2.396c.424-.735.83-1.54 1.218-2.414l1.152-2.599 1.388-3.154 1.508-3.302 1.267-2.55 1.481-2.775 1.799-3.378a30.74 30.74 0 0 0 1.503-3.455l1.218-3.274 1.07-2.622 1.064-2.265c.387-.793.848-1.876 1.382-3.247a35.62 35.62 0 0 0 1.305-3.998l.877-3.181.839-2.896.889-2.825.921-2.309c.336-.764.894-1.708 1.673-2.83s1.622-1.801 2.517-2.024a10.89 10.89 0 0 1 2.654-.324c.874.007 2.038.194 3.494.559l3.625.927 2.605.74 2.512.779 2.6.729 2.517.735 2.452.834 2.912 1.047 3.197 1.316 2.704 1.344a25.11 25.11 0 0 1 2.358 1.393c.738.494 1.614 1.258 2.627 2.303s1.514 2.121 1.514 3.225-.236 2-.707 2.676-1.168 1.327-2.09 1.953-1.775 1.049-2.561 1.261-1.863.36-3.241.444-2.581.088-3.62.011-2.073-.388-3.104-.932a23.3 23.3 0 0 0-2.819-1.278l-3.658-1.185-3.543-1.108c-.779-.256-1.649-.453-2.611-.592s-2.117-.23-3.466-.274l-3.411-.077c-.921-.004-2.093.115-3.516.356l-2.446.477a3.5 3.5 0 0 1-.729.143c-.27.026-.548.011-.823-.033s-.532-.113-.784-.219a3.45 3.45 0 0 1-.713-.406 3.46 3.46 0 0 1-.592-.565 3.31 3.31 0 0 1-.439-.686 3.25 3.25 0 0 1-.263-.779 3.18 3.18 0 0 1-.071-.812 3.62 3.62 0 0 1 .126-.812c.073-.267.183-.514.318-.751a3.42 3.42 0 0 1 .488-.658 3.35 3.35 0 0 1 .631-.521 3.59 3.59 0 0 1 .735-.356c.26-.088.042.07-.653.472s-.612.068.258-1.004 1.775-1.962 2.715-2.682c.947-.72 1.901-1.258 2.863-1.612s2.073-.612 3.346-.784 2.486-.218 3.642-.148a18.54 18.54 0 0 1 3.313.494l3.028.751c.965.238 2.079.591 3.34 1.058l3.39 1.333 3.488 1.382 2.452.976.784.406a3.29 3.29 0 0 1 .609.444 3.05 3.05 0 0 1 .488.576 2.98 2.98 0 0 1 .335.675 3.15 3.15 0 0 1 .165.735 3.05 3.05 0 0 1-.016.751c-.037.249-.102.492-.197.729a3.14 3.14 0 0 1-.362.658c-.146.205-.322.388-.516.548a3.21 3.21 0 0 1-.625.417c-.227.113-.464.197-.713.252s-.495.079-.751.071a3.22 3.22 0 0 1-.746-.104c-.245-.066.095-.157 1.009-.274s.956-.024.115.28-1.799.448-2.885.444l-3.9-.186-4.547-.285c-1.514-.07-2.797-.06-3.85.027l-2.885.236-3.373.356-4.305.559-2.715.258a3 3 0 0 1-.9-.252 2.92 2.92 0 0 1-.779-.532 2.94 2.94 0 0 1-.57-.751 2.9 2.9 0 0 1-.302-.888c-.052-.31-.051-.629 0-.943a2.87 2.87 0 0 1 .302-.894 2.94 2.94 0 0 1 .57-.751 2.8 2.8 0 0 1 .779-.526 2.81 2.81 0 0 1 .905-.252 3.02 3.02 0 0 1 .938.049 2.94 2.94 0 0 1 .877.351 3.01 3.01 0 0 1 .718.609 2.97 2.97 0 0 1 .483.806 2.94 2.94 0 0 1 .203.921 2.83 2.83 0 0 1-.104.938c-.087.307-.216.592-.395.856a2.95 2.95 0 0 1-.647.686c-.252.194-.53.336-.834.439a2.85 2.85 0 0 1-.927.154 2.88 2.88 0 0 1-.927-.154 2.94 2.94 0 0 1-.834-.444 2.86 2.86 0 0 1-.647-.68c-.175-.267-.307-.552-.395-.856s-.117-.62-.099-.938a2.94 2.94 0 0 1 .203-.921 2.86 2.86 0 0 1 .483-.806 3.01 3.01 0 0 1 .718-.609 2.94 2.94 0 0 1 .877-.351l.461-.099 1.261-.049 3.175-.165 3.099-.126 2.419-.011 2.934-.093 4.02-.313 4.558-.406c1.495-.128 2.631-.088 3.406.121s1.686.183 2.731-.077 1.68-.329 1.903-.208a3.29 3.29 0 0 1 .609.444 3.15 3.15 0 0 1 .488.57 3.14 3.14 0 0 1 .335.675 3.26 3.26 0 0 1 .165.74 3.05 3.05 0 0 1-.016.751 3.13 3.13 0 0 1-.197.724 3.16 3.16 0 0 1-.362.664c-.146.205-.322.388-.516.548s-.398.303-.625.417a3.04 3.04 0 0 1-.713.252c-.249.055-.495.079-.751.071a3.22 3.22 0 0 1-.746-.104c-.245-.066-.506-.196-.795-.389s-1.088-.574-2.408-1.152l-3.241-1.382c-.841-.347-1.817-.665-2.929-.954l-3.23-.735-3.587-.631c-1.353-.227-2.424-.269-3.214-.126a15.57 15.57 0 0 0-2.38.625c-.793.278-1.55.746-2.271 1.415l-2.435 2.249c-.9.83-1.485 1.258-1.755 1.283a3.4 3.4 0 0 1-.817-.033 3.25 3.25 0 0 1-.79-.219 3.45 3.45 0 0 1-.713-.406 3.46 3.46 0 0 1-.592-.565 3.31 3.31 0 0 1-.439-.686 3.25 3.25 0 0 1-.263-.779 3.18 3.18 0 0 1-.071-.812 3.62 3.62 0 0 1 .126-.812c.073-.267.183-.514.318-.751a3.42 3.42 0 0 1 .488-.658 3.35 3.35 0 0 1 .631-.521 3.59 3.59 0 0 1 .735-.356l.477-.154 1.42-.219 2.956-.521a24.91 24.91 0 0 1 3.17-.406l3.888-.055c1.572.026 3.059.159 4.459.4l3.28.697 2.369.653 3.565.96c1.58.428 2.839.941 3.779 1.541s1.914.901 2.912.916 1.929-.026 2.792-.11 1.391.283 1.585 1.092-.088.93-.845.367a14.57 14.57 0 0 0-2.221-1.382l-2.441-1.069-3-1.174-3.746-1.322-3.433-.971-2.857-.614-3.384-.828-3.455-.987c-1.071-.325-1.843-.826-2.314-1.503s-.92-.494-1.355.548l-1.251 3.34-1.152 3.647-.812 3.016-.598 2.369-.757 2.446-.856 2.38-.921 2.243-1.185 2.803-1.278 3.236-1.399 3.713c-.556 1.466-1.177 2.843-1.865 4.13l-1.717 3.324-1.508 2.967c-.548 1.045-1.086 2.236-1.612 3.57l-1.525 3.697a34.3 34.3 0 0 1-1.7 3.373l-1.667 2.83a10.5 10.5 0 0 0-1.08 2.435l-.686 2.435c-.205.768-.717 1.81-1.536 3.126s-1.775 2.161-2.868 2.523-2.186.152-3.28-.631-1.678-1.711-1.766-2.786-.009-2.214.236-3.406l.762-3.274.697-2.923c.205-.962.559-2.234 1.064-3.817l1.585-4.52 1.399-3.603 1.058-2.792 1.037-2.841 1.086-2.989 1.026-2.885.943-2.517.927-2.199 1.152-2.77 1.08-2.841 1.124-3.132 1.426-3.581 1.415-3.192 1.497-3.071 1.541-2.742 1.706-2.731 1.761-2.594 1.048-1.399a2.98 2.98 0 0 1 1.146-.768 2.88 2.88 0 0 1 .675-.159 2.92 2.92 0 0 1 .691.005 3 3 0 0 1 .675.175 3.19 3.19 0 0 1 .609.329c.19.131.366.292.516.472a2.8 2.8 0 0 1 .389.576c.106.209.186.426.241.653s.075.455.071.686a2.94 2.94 0 0 1-.093.691 3.1 3.1 0 0 1-.252.647l-.165.307zm57.563 6.063l1.695.675 2.929 1.102 2.468.828a22.6 22.6 0 0 1 2.578.987l2.61 1.283a13.6 13.6 0 0 1 2.485 1.744l2.21 1.958a13.7 13.7 0 0 1 1.777 1.947l1.793 2.26 2.134 2.792 2.106 2.912 2.046 2.879 2.265 3.68 2.292 4.163 2.018 3.937 1.679 3.478 1.623 3.422 1.399 3.038 1.135 2.929 1.075 3.104.795 2.786.653 3.203c.201 1.181-.05 2.821-.752 4.92s-1.237 3.216-1.607 3.34-.744.181-1.135.181a3.5 3.5 0 0 1-1.13-.186 3.47 3.47 0 0 1-1.014-.543 3.42 3.42 0 0 1-.79-.834c-.219-.322-.38-.669-.483-1.042a3.58 3.58 0 0 1-.12-1.146 3.41 3.41 0 0 1 .246-1.125c.143-.358.341-.685.593-.981a3.56 3.56 0 0 1 .877-.746 3.6 3.6 0 0 1 1.07-.423c.38-.084.764-.104 1.152-.06s.753.146 1.107.307a3.58 3.58 0 0 1 .949.647c.282.271.514.578.697.922s.3.705.362 1.086.062.768 0 1.151-.189.748-.368 1.092-.417.643-.702.91a3.62 3.62 0 0 1-.949.647 3.67 3.67 0 0 1-1.113.308c-.384.04-.766.018-1.146-.066s-.737-.227-1.07-.428-.619-.45-.872-.746a3.49 3.49 0 0 1-.592-.987c-.143-.362-.225-.737-.247-1.124s.024-.768.126-1.141a3.57 3.57 0 0 1 .488-1.048c.22-.318.483-.594.79-.828l.466-.356-.597 1.349c-.399.899-.712.755-.938-.434l-.68-3.553-.691-3.039-.889-2.863-.998-2.918-1.042-2.692c-.391-.915-1.09-2.256-2.095-4.026l-2.424-4.404-1.525-2.797-1.695-2.841-2.002-3.192-1.979-2.868-1.98-2.786-2.046-2.737-1.942-2.479a22.07 22.07 0 0 0-1.87-2.09l-1.991-1.815a17.67 17.67 0 0 0-2.051-1.448l-2.199-1.185-2.265-.998-2.913-1.042-2.034-.724a2.82 2.82 0 0 1-.571-.378 2.73 2.73 0 0 1-.46-.505c-.136-.186-.245-.388-.329-.603s-.147-.433-.176-.664-.037-.453-.011-.68a2.67 2.67 0 0 1 .154-.669 2.68 2.68 0 0 1 .307-.609c.128-.19.278-.367.449-.521a2.73 2.73 0 0 1 .554-.4 2.96 2.96 0 0 1 .637-.252c.223-.058.449-.09.68-.093.226-.004.453.02.68.071l.334.077z" fill-opacity=".1"/><path d="M56.781 86.777l1.722-.472 3.444-1.075 2.89-1.015 3.044-.976 3.417-.905 2.704-.532c.772-.124 1.717-.21 2.835-.258s2.324.095 3.614.417a18.04 18.04 0 0 1 3.636 1.322c1.133.56 2.278.848 3.433.867l3.757-.11c1.349-.095 2.461-.23 3.335-.406l3.159-.653 3.127-.664 2.857-.554 2.923-.455a32.95 32.95 0 0 1 3.099-.236c1.17-.044 2.464.097 3.883.422s2.545.687 3.378 1.086l2.436 1.146 1.98.828 1.244.422a3.69 3.69 0 0 1 .856.384 3.91 3.91 0 0 1 .735.576 3.77 3.77 0 0 1 .576.74 3.79 3.79 0 0 1 .384.856 3.75 3.75 0 0 1 .17.921c.018.315-.002.627-.061.938a3.73 3.73 0 0 1-.279.889 3.88 3.88 0 0 1-.483.801 3.92 3.92 0 0 1-.663.658 4.03 4.03 0 0 1-.807.488 3.78 3.78 0 0 1-.894.274 3.61 3.61 0 0 1-.932.055c-.315-.018-1.143-.303-2.485-.855l-3.049-1.415-2.161-1.102-2.397-1.097-2.862-1.168-2.468-.872-1.437-.521c-.377-.168-.717-.391-1.021-.669a3.71 3.71 0 0 1-.751-.965 3.74 3.74 0 0 1-.406-1.146 3.72 3.72 0 0 1-.016-1.223 3.78 3.78 0 0 1 .373-1.163c.187-.366.428-.693.724-.982a3.75 3.75 0 0 1 1.003-.702 3.62 3.62 0 0 1 1.169-.34c.409-.051.817-.035 1.223.049a3.69 3.69 0 0 1 1.14.433c.355.208.669.468.944.779s.484.656.641 1.037a3.77 3.77 0 0 1 .28 1.19c.029.409-.009.813-.115 1.212s-.272.771-.499 1.119a3.76 3.76 0 0 1-.823.894c-.325.256-.684.452-1.075.587a3.73 3.73 0 0 1-1.201.219c-.413.004-.815-.057-1.207-.181a3.82 3.82 0 0 1-1.085-.559 3.8 3.8 0 0 1-.856-.872 3.87 3.87 0 0 1-.527-1.102c-.117-.395-.166-.799-.148-1.212s.097-.812.247-1.196.351-.74.614-1.059.569-.581.916-.801a3.64 3.64 0 0 1 1.13-.466 3.69 3.69 0 0 1 1.218-.082l.614.055 1.289.417 3.022 1.042a39.89 39.89 0 0 1 3.62 1.503l3.23 1.497 2.748 1.305 1.842.834a3.69 3.69 0 0 1 .856.384 3.91 3.91 0 0 1 .735.576 3.77 3.77 0 0 1 .576.74 3.79 3.79 0 0 1 .384.856 3.75 3.75 0 0 1 .17.921c.018.315-.002.627-.061.938a3.73 3.73 0 0 1-.279.889 3.88 3.88 0 0 1-.483.801 3.92 3.92 0 0 1-.663.658 4.03 4.03 0 0 1-.807.488 3.78 3.78 0 0 1-.894.274 3.61 3.61 0 0 1-.932.055c-.315-.018-.713-.093-1.196-.225s-1.192-.409-2.139-.823l-2.687-1.333c-.841-.468-1.656-.865-2.446-1.19a6.18 6.18 0 0 0-2.545-.461l-2.676.181-2.589.351-2.512.45-3.164.675-3.834.773-3.488.455-3.06.34a15.86 15.86 0 0 1-2.825.176c-.893-.029-1.788-.303-2.687-.834l-2.534-1.481a9.2 9.2 0 0 0-2.512-.998c-.889-.208-1.819-.305-2.792-.291s-2 .102-3.082.263l-3.121.565-2.682.697-3.027.834-3.543 1.026-2.04.636c-.23.04-.459.053-.686.038a2.86 2.86 0 0 1-.675-.132c-.22-.07-.433-.165-.631-.285s-.377-.263-.538-.428a2.91 2.91 0 0 1-.422-.543 2.77 2.77 0 0 1-.28-.631 3.09 3.09 0 0 1-.121-.68 3.05 3.05 0 0 1 .044-.68 2.88 2.88 0 0 1 .208-.658 2.92 2.92 0 0 1 .362-.587c.143-.183.305-.345.488-.488s.38-.256.592-.351l.318-.143zm29.411-47.771l1.398.285c.929.19 1.83.485 2.704.883s1.612.916 2.227 1.563 1.124 1.506 1.519 2.589.697 2.095.916 3.049l.598 3.17c.183 1.159.271 2.263.263 3.313s-.104 2.148-.291 3.296l-.439 2.885c-.106.775-.505 1.616-1.196 2.523s-1.74 1.287-3.148 1.141-2.49-.675-3.236-1.596-1.245-2.124-1.486-3.609-.316-2.625-.214-3.422l.335-2.786.406-2.901.444-2.846c.15-1.02.464-2.084.943-3.192s1.128-1.876 1.936-2.303 1.618-.665 2.43-.713 1.874.303 3.186 1.064c1.309.753 2.183 1.75 2.622 2.989s.708 2.636.795 4.19l.055 3.784-.296 3.664-.247 3.483-.022 3.006.044 2.918c.015.793-.17 1.576-.554 2.347s-.881 1.419-1.481 1.941-1.591.735-2.962.636-2.435-.311-3.203-.636l-1.355-.548c-.139-.04-.349-.126-.631-.258a3.81 3.81 0 0 1-.79-.483 3.84 3.84 0 0 1-.647-.664 3.71 3.71 0 0 1-.472-.795c-.124-.285-.214-.579-.269-.883a3.75 3.75 0 0 1-.049-.927c.022-.311.081-.612.175-.905a3.89 3.89 0 0 1 .389-.845 3.77 3.77 0 0 1 .576-.724 3.93 3.93 0 0 1 .729-.565 3.91 3.91 0 0 1 .85-.373c.3-.091.6-.141.91-.159a3.69 3.69 0 0 1 .921.066c.303.059 1.011.373 2.111.943s1.94 1.199 2.506 1.887l1.892 2.15 1.322 1.464c.194.234.464.462.812.686a3.71 3.71 0 0 1 .911.812 3.69 3.69 0 0 1 .603 1.058 3.66 3.66 0 0 1 .236 1.201 3.69 3.69 0 0 1-.159 1.207 3.83 3.83 0 0 1-.538 1.097 3.79 3.79 0 0 1-.861.866 3.87 3.87 0 0 1-1.091.549 3.89 3.89 0 0 1-1.212.17c-.413-.011-.814-.088-1.201-.23a3.64 3.64 0 0 1-1.064-.598 3.71 3.71 0 0 1-.817-.905c-.223-.347-.386-.72-.488-1.119a3.89 3.89 0 0 1-.104-1.218c.033-.409.13-.804.291-1.185a3.81 3.81 0 0 1 .658-1.031c.274-.307.59-.563.949-.768s.739-.347 1.141-.428.814-.09 1.223-.038a3.73 3.73 0 0 1 1.168.356 3.81 3.81 0 0 1 .993.708 3.86 3.86 0 0 1 .719.993 3.85 3.85 0 0 1 .362 1.163 3.72 3.72 0 0 1-.028 1.223c-.076.406-.215.788-.416 1.146a3.8 3.8 0 0 1-.763.954 3.74 3.74 0 0 1-1.031.664 3.67 3.67 0 0 1-1.185.296c-.41.037-.815.005-1.218-.093l-.598-.148-2.183-1.909-3.51-3.192c-.888-.852-1.474-1.344-1.755-1.475a3.81 3.81 0 0 1-.79-.483 3.84 3.84 0 0 1-.647-.664 3.71 3.71 0 0 1-.472-.795 3.89 3.89 0 0 1-.269-.883 3.75 3.75 0 0 1-.049-.927c.022-.307.081-.609.175-.905s.225-.578.389-.845a3.77 3.77 0 0 1 .576-.724 3.93 3.93 0 0 1 .729-.565 3.74 3.74 0 0 1 .85-.367 3.85 3.85 0 0 1 .91-.164 3.69 3.69 0 0 1 .921.066c.303.059.494.111.559.159a46.9 46.9 0 0 1 1.026.795c.618.483.578 1.058-.121 1.728s-1.035.6-1.02-.208l.06-2.397.148-2.786.263-3.455.137-3.11c-.011-.841.186-1.857.592-3.049s.837-2.21 1.305-3.044.687-.848.669-.033-.133 1.87-.334 3.176l-.516 3.74-.351 3.11c-.088.885-.528 1.283-1.322 1.196s-1.532.088-2.227.527-.958.276-.801-.499l.526-2.885c.197-1.152.267-2.183.208-3.093s-.183-1.762-.362-2.567a16.89 16.89 0 0 0-.773-2.468c-.329-.845-.949-1.362-1.859-1.552l-1.689-.395a3.08 3.08 0 0 1-.625-.302 2.9 2.9 0 0 1-.532-.439 2.77 2.77 0 0 1-.417-.549 3.05 3.05 0 0 1-.269-.636 3.08 3.08 0 0 1-.11-.686 2.9 2.9 0 0 1 .06-.68 2.96 2.96 0 0 1 .219-.658c.098-.208.223-.402.373-.581s.313-.338.499-.477.386-.254.598-.346a2.93 2.93 0 0 1 .664-.186 2.55 2.55 0 0 1 .686-.027l.346.027zm-19.219 85.89l1.371.927 2.693 1.941 3.082 2.183 3.104 1.876 2.605 1.343c.841.413 1.755.794 2.742 1.141l2.962 1.004 2.709.822 2.402.576 3.581.549c1.602.208 3.037.274 4.305.197s2.377-.228 3.324-.455 1.698-.627 2.243-1.19l2.002-2.035 2.309-2.106a25.23 25.23 0 0 1 2.402-1.722c.852-.534 1.367-.978 1.546-1.333a3.75 3.75 0 0 1 .697-.943c.285-.271.607-.492.965-.664a3.54 3.54 0 0 1 1.125-.329c.394-.051.786-.036 1.173.044a3.6 3.6 0 0 1 1.097.422 3.51 3.51 0 0 1 .905.741 3.71 3.71 0 0 1 .62.998c.15.366.238.746.263 1.141a3.49 3.49 0 0 1-.11 1.168 3.51 3.51 0 0 1-.477 1.075 3.7 3.7 0 0 1-.795.861c-.311.245-.654.433-1.031.565s-.757.199-1.152.203a3.6 3.6 0 0 1-1.163-.17 3.75 3.75 0 0 1-1.042-.538 3.5 3.5 0 0 1-.822-.839 3.57 3.57 0 0 1-.505-1.058c-.113-.381-.161-.77-.142-1.169a3.52 3.52 0 0 1 .235-1.146c.143-.373.34-.711.593-1.014.252-.308.546-.564.883-.768s.698-.359 1.086-.45a3.5 3.5 0 0 1 1.168-.077 3.6 3.6 0 0 1 1.135.296 3.65 3.65 0 0 1 .982.642c.292.267.534.574.724.921s.32.717.389 1.108.075.783.017 1.174l-.088.587-2.068 2.133-3 2.874-2.303 1.892-2.391 2.03c-.681.577-1.542 1.177-2.584 1.799s-2.208 1.053-3.499 1.305l-3.164.504a23.34 23.34 0 0 1-2.726.116l-2.83-.165-2.644-.307-2.66-.411-2.934-.615a23.94 23.94 0 0 1-3.175-.97l-3.4-1.388c-1.203-.516-2.24-1.04-3.11-1.574l-2.66-1.706-3.159-2.292-2.983-2.276-2.567-1.772-1.662-1.102a2.89 2.89 0 0 1-.466-.505 2.83 2.83 0 0 1-.335-.603 2.75 2.75 0 0 1-.181-.658 2.88 2.88 0 0 1-.017-.686 2.78 2.78 0 0 1 .148-.669 2.69 2.69 0 0 1 .307-.614 2.67 2.67 0 0 1 .444-.527 2.91 2.91 0 0 1 .554-.406 3.04 3.04 0 0 1 .636-.257c.223-.062.45-.095.68-.099s.453.015.68.066a2.98 2.98 0 0 1 .647.23l.307.154z" fill-opacity=".1"/><path d="M122.099 134.795l-.862 1.185c-.574.793-1.338 1.7-2.292 2.72a11.51 11.51 0 0 1-3.296 2.452l-3.22 1.744c-.903.548-1.716 1.279-2.44 2.194a11.52 11.52 0 0 1-2.534 2.363c-.962.662-1.837 1.19-2.627 1.585s-1.742.651-2.858.768-2.241.037-3.378-.241-2.097-.262-2.879.049-1.896.525-3.34.642-2.622-.177-3.532-.872-1.868-1.267-2.863-1.717-1.903-.78-2.737-.982a16.22 16.22 0 0 0-2.687-.4c-.962-.066-2.018-.327-3.17-.784a7.82 7.82 0 0 1-2.973-2.062c-.826-.918-1.146-1.121-.96-.609s.179.651-.022.417-.371-.49-.51-.768-.243-.563-.313-.867-.097-.603-.093-.91a3.69 3.69 0 0 1 .126-.916 3.75 3.75 0 0 1 .34-.856c.146-.27.324-.519.532-.745a3.79 3.79 0 0 1 .702-.598 3.82 3.82 0 0 1 .817-.417 3.63 3.63 0 0 1 .9-.203 3.89 3.89 0 0 1 .921.011 3.96 3.96 0 0 1 .889.236c.289.113.558.259.806.439s.653.709 1.201 1.579a24.49 24.49 0 0 1 1.431 2.594c.402.863.837 1.534 1.305 2.013s.79.907.976 1.283.307.781.362 1.202a3.91 3.91 0 0 1-.038 1.255 3.79 3.79 0 0 1-.439 1.174c-.208.366-.47.689-.784.971a4.01 4.01 0 0 1-1.058.675c-.391.164-.797.263-1.218.296s-.841-.002-1.251-.105a4.02 4.02 0 0 1-1.152-.499 3.85 3.85 0 0 1-.927-.844c-.263-.329-.468-.693-.614-1.092a3.94 3.94 0 0 1-.23-1.234c-.011-.42.047-.833.175-1.239a3.83 3.83 0 0 1 .559-1.119c.249-.344.545-.638.888-.883s.719-.43 1.124-.554a3.97 3.97 0 0 1 1.245-.164 3.93 3.93 0 0 1 1.228.241 3.81 3.81 0 0 1 1.086.62c.329.267.607.579.834.937s.391.743.494 1.152.13.83.093 1.251-.135.824-.307 1.212a3.86 3.86 0 0 1-.675 1.058 3.96 3.96 0 0 1-.982.779 3.79 3.79 0 0 1-1.179.428 3.86 3.86 0 0 1-1.251.027c-.42-.058-.819-.183-1.196-.373a3.64 3.64 0 0 1-1.015-.735l-.45-.449-.905-1.201c-.607-.805-1.117-1.724-1.53-2.759s-.715-1.669-.916-1.903-.373-.49-.516-.768a3.78 3.78 0 0 1-.313-.861 4.09 4.09 0 0 1-.093-.916 3.69 3.69 0 0 1 .126-.916 3.62 3.62 0 0 1 .34-.85c.146-.274.324-.525.532-.751a3.79 3.79 0 0 1 .702-.598 3.82 3.82 0 0 1 .817-.417 3.63 3.63 0 0 1 .9-.203 3.89 3.89 0 0 1 .921.011 3.96 3.96 0 0 1 .889.236 3.78 3.78 0 0 1 .806.439c.252.182.468.553.647 1.113s.047.503-.384-.181-.241-.837.57-.472 1.879.646 3.192.839l3.225.62c.837.216 1.793.55 2.868 1.004s1.945.96 2.611 1.53 1.426.656 2.282.269 1.938-.523 3.247-.395l3.669.301c1.134.077 2.187-.208 3.159-.855s1.916-1.413 2.841-2.298 1.753-1.499 2.485-1.832l2.473-1.058c.914-.377 1.847-.883 2.797-1.52s1.71-1.349 2.276-2.139l1.097-1.453a2.87 2.87 0 0 1 .532-.455 2.97 2.97 0 0 1 .625-.313 3.03 3.03 0 0 1 .681-.153c.23-.022.462-.017.696.016a2.93 2.93 0 0 1 .675.181c.215.088.42.199.614.335s.36.298.51.477a2.92 2.92 0 0 1 .389.581c.103.212.181.432.236.658s.073.461.066.691a2.98 2.98 0 0 1-.093.691c-.062.227-.15.445-.263.653l-.17.307z" fill-opacity=".1"/><path d="M122.57 131.026l-.28 1.382-.499 2.863c-.142.987-.395 2.008-.757 3.061s-.97 2.031-1.826 2.923c-.863.896-1.66 1.508-2.391 1.837a10.33 10.33 0 0 1-2.282.724c-.793.154-1.791.479-2.994.976l-2.978 1.103-2.37.811-2.939 1.141c-1.159.454-2.165.706-3.017.757s-1.678.015-2.479-.121-1.782-.212-2.956-.23-2.486.139-3.949.472-2.744.512-3.845.537-2.24-.104-3.406-.389-2.175-.631-3.027-1.026-1.607-.848-2.265-1.36l-2.353-1.958c-.907-.797-1.686-1.557-2.336-2.281s-1.486-1.478-2.495-2.26-1.91-1.391-2.715-1.837-1.711-.836-2.731-1.18-1.953-.8-2.797-1.382-1.848-1.453-3-2.616-1.802-1.936-1.952-2.32-.239-.775-.258-1.184a3.68 3.68 0 0 1 .137-1.212 3.85 3.85 0 0 1 .515-1.103 3.81 3.81 0 0 1 .845-.883c.329-.245.689-.433 1.08-.565a3.69 3.69 0 0 1 1.201-.186 3.6 3.6 0 0 1 1.201.203c.391.131.75.323 1.075.576.325.248.603.544.834.888s.399.709.505 1.108.152.799.126 1.212-.115.803-.269 1.179a3.68 3.68 0 0 1-.631 1.042 3.75 3.75 0 0 1-.932.785c-.355.212-.733.36-1.135.444a3.66 3.66 0 0 1-1.218.06 3.64 3.64 0 0 1-1.174-.329c-.373-.175-.708-.406-1.004-.691s-.541-.609-.735-.971a3.7 3.7 0 0 1-.378-1.151 3.68 3.68 0 0 1 .006-1.218 3.64 3.64 0 0 1 .395-1.157c.194-.362.441-.684.74-.966s.638-.506 1.015-.674.764-.28 1.174-.324a3.89 3.89 0 0 1 1.218.072 3.8 3.8 0 0 1 1.13.46c.351.212.658.476.921.79l.4.472.746.707c.497.468 1.188.991 2.073 1.569.885.57 1.739 1.018 2.561 1.343s1.591.693 2.304 1.103l2.139 1.283c.709.443 1.592 1.229 2.649 2.359l2.397 2.643 1.761 1.914c.633.644 1.422 1.179 2.369 1.607s2.09.572 3.417.433 2.521-.374 3.581-.696 2.364-.503 3.921-.532 2.775.097 3.653.378 1.775.26 2.693-.076l3.767-1.454 3.703-1.519c.873-.373 1.912-.647 3.115-.823s2.161-.502 2.874-.992 1.199-1.275 1.469-2.353l.691-2.995.401-1.705a2.71 2.71 0 0 1 .301-.631c.125-.198.271-.377.439-.538s.355-.299.56-.416.415-.203.641-.269.452-.103.686-.11.459.007.685.055a2.7 2.7 0 0 1 .659.225 2.66 2.66 0 0 1 .586.373c.183.15.344.318.483.504s.254.388.346.604.155.435.192.669a2.92 2.92 0 0 1 .027.685l-.033.351z" fill-opacity=".1"/></svg>