<svg xmlns="http://www.w3.org/2000/svg" width="201" height="202" fill="none" xmlns:v="https://vecta.io/nano"><rect x="1" y="1" width="200" height="200" rx="16" fill="#fff"/><g fill="#000"><path d="M61.615 89.608l-.022 2.062-.219 5.227-.291 7.229a58.45 58.45 0 0 0 .428 8.32c.344 2.834.985 5.651 1.914 8.451s2.164 5.47 3.708 8.008a34.69 34.69 0 0 0 5.578 6.954c2.172 2.099 4.517 3.878 7.037 5.336s5.101 2.627 7.733 3.494 5.461 1.569 8.484 2.106 5.963.667 8.819.4 5.463-1.135 7.821-2.594 4.349-3.148 5.962-5.067 2.903-3.96 3.872-6.121 1.762-4.466 2.38-6.916l1.777-7.497 1.316-7.251c.318-2.281.503-4.398.554-6.351l.05-4.739-.105-2.939-.164-2.007-.22-1.925-.164-1.826-.093-2.111-.028-1.525a1.29 1.29 0 0 1 .126-.378 1.26 1.26 0 0 1 .236-.313 1.39 1.39 0 0 1 .329-.225 1.25 1.25 0 0 1 .384-.104 1.2 1.2 0 0 1 .763.17c.113.066.213.15.301.252s.156.216.203.34a1.18 1.18 0 0 1 .088.389 1.17 1.17 0 0 1-.044.389 1.24 1.24 0 0 1-.165.362 1.25 1.25 0 0 1-.274.285 1.15 1.15 0 0 1-.351.181 1.16 1.16 0 0 1-.389.066 1.17 1.17 0 0 1-.39-.066 1.23 1.23 0 0 1-.351-.175c-.106-.084-.197-.181-.274-.291a1.25 1.25 0 0 1-.164-.357c-.037-.132-.052-.263-.044-.395s.036-.265.088-.389a1.15 1.15 0 0 1 .202-.34 1.35 1.35 0 0 1 .302-.252 1.19 1.19 0 0 1 .762-.17 1.31 1.31 0 0 1 .384.104c.124.055.229.133.324.225s.179.196.241.313a1.29 1.29 0 0 1 .126.378l.033.197-.055 1.322-.082 2.101-.126 1.799-.121 1.887c-.014.574.004 1.251.055 2.029l.099 3.011-.055 4.849c-.055 2.007-.245 4.17-.57 6.488l-1.339 7.327-1.815 7.64c-.647 2.527-1.49 4.925-2.528 7.196s-2.417 4.411-4.147 6.433c-1.725 2.022-3.864 3.795-6.416 5.32a19.41 19.41 0 0 1-8.326 2.698c-3.002.27-6.051.13-9.148-.422s-6.002-1.28-8.726-2.183-5.395-2.126-8.013-3.658-5.049-3.387-7.305-5.578a36.12 36.12 0 0 1-5.77-7.245 40.63 40.63 0 0 1-3.834-8.303c-.954-2.896-1.613-5.797-1.974-8.704s-.514-5.728-.466-8.463l.241-7.217.159-5.177-.006-2.161c.007-.069.022-.135.044-.197a.91.91 0 0 1 .099-.186c.04-.055.086-.106.137-.154a1.02 1.02 0 0 1 .165-.115.73.73 0 0 1 .192-.071 1.01 1.01 0 0 1 .203-.027.81.81 0 0 1 .203.027c.07.018.13.038.192.071a1.02 1.02 0 0 1 .164.115 1.05 1.05 0 0 1 .137.154.91.91 0 0 1 .099.186.86.86 0 0 1 .044.197l.017.099zm5.323 14.669l.274-.422c.183-.282.579-.821 1.19-1.618s1.183-1.448 1.717-1.953l1.47-1.294 1.399-1.108c.483-.369.929-.616 1.338-.74s.868-.212 1.388-.274a15.66 15.66 0 0 1 1.761-.093l1.925-.017 1.656-.055 1.355-.066 1.837-.033 1.87.082a12.01 12.01 0 0 1 1.322.236l1.245.247 1.234.241c.421.106.901.419 1.442.938s.837.996.899 1.431.081 1.022.044 1.771-.141 1.327-.313 1.722-.468.845-.888 1.36-.964.989-1.629 1.421a13.39 13.39 0 0 1-1.865 1.02l-1.843.74c-.647.242-1.313.443-1.996.604l-2.018.395-1.985.279-1.881.187-1.662.104-1.519.033-1.437-.044-1.272-.115c-.402-.051-1.143-.28-2.221-.686l-1.81-.746c-.132-.091-.247-.201-.346-.329a1.49 1.49 0 0 1-.296-.894 1.59 1.59 0 0 1 .082-.471 1.41 1.41 0 0 1 .576-.746c.132-.092.274-.157.428-.198a1.47 1.47 0 0 1 .477-.049c.161.011.316.046.466.104a1.45 1.45 0 0 1 .406.252 1.33 1.33 0 0 1 .307.362c.08.139.143.287.175.445a1.5 1.5 0 0 1 .022.477c-.018.161-.062.314-.132.461a1.53 1.53 0 0 1-.269.394 1.48 1.48 0 0 1-.384.286 1.35 1.35 0 0 1-.455.148c-.157.025-.316.025-.477 0a1.48 1.48 0 0 1-.45-.154 1.31 1.31 0 0 1-.373-.296 1.44 1.44 0 0 1-.263-.395 1.35 1.35 0 0 1-.126-.461 1.39 1.39 0 0 1 .028-.477 1.53 1.53 0 0 1 .181-.444 1.46 1.46 0 0 1 .313-.362 1.32 1.32 0 0 1 .406-.241c.154-.058.305-.092.466-.099a1.47 1.47 0 0 1 .472.055l.236.066.943.444a12.37 12.37 0 0 0 1.689.674c.494.15.945.247 1.355.291l1.283.104 1.377.022 1.508-.071a14.99 14.99 0 0 0 1.728-.241l1.81-.379 1.662-.449a10.29 10.29 0 0 0 1.623-.681l1.607-.905 1.558-.943c.523-.322.887-.66 1.091-1.014s.234-.743.088-1.163-.428-.686-.834-.795l-1.64-.406c-.68-.157-1.382-.258-2.106-.302l-1.7-.077-1.311-.006-1.645.093-1.837.143-1.777.132c-.6.044-1.093.179-1.481.406s-.764.47-1.13.741-.773.669-1.223 1.195l-1.174 1.382c-.329.395-.603.764-.823 1.108l-.647.9-.428.51a1.22 1.22 0 0 1-.247.208 1.43 1.43 0 0 1-.291.143c-.102.036-.207.06-.313.071a1.17 1.17 0 0 1-.318-.011 1.3 1.3 0 0 1-.307-.082 1.27 1.27 0 0 1-.285-.159 1.25 1.25 0 0 1-.236-.22 1.18 1.18 0 0 1-.175-.268 1.24 1.24 0 0 1-.104-.302c-.026-.106-.037-.212-.033-.318a1.37 1.37 0 0 1 .049-.318 1.17 1.17 0 0 1 .121-.297l.077-.142zm39.556-4.318l-1.218-.153a18.51 18.51 0 0 0-2.144-.159c-.614-.004-1.139.088-1.574.285s-.592.512-.483.955.36.908.752 1.409a5.62 5.62 0 0 0 1.426 1.289 7.71 7.71 0 0 0 1.755.839l1.579.45 1.503.4 1.607.423 1.782.34 1.997.246c.669.059 1.221.042 1.656-.049l1.53-.389c.585-.172.975-.459 1.168-.861s.273-.841.236-1.328-.294-.928-.762-1.338l-1.146-1.075c-.297-.311-.732-.693-1.306-1.146s-1.133-.764-1.667-.944-1.168-.324-1.903-.433l-1.766-.197-1.251-.06a15.36 15.36 0 0 0-1.316.038c-.482.033-1.035.201-1.656.505a24.23 24.23 0 0 0-2.068 1.169l-1.42.795c-.187.055-.377.08-.571.077a1.77 1.77 0 0 1-.57-.11 1.66 1.66 0 0 1-.499-.291 1.77 1.77 0 0 1-.384-.428 1.84 1.84 0 0 1-.225-.531c-.048-.19-.062-.382-.044-.576a1.78 1.78 0 0 1 .143-.554 1.79 1.79 0 0 1 .313-.483c.132-.143.282-.262.45-.357a1.83 1.83 0 0 1 .543-.197 1.79 1.79 0 0 1 .576-.016 1.77 1.77 0 0 1 .548.175 1.63 1.63 0 0 1 .467.335 1.7 1.7 0 0 1 .334.472 1.66 1.66 0 0 1 .17.548 1.8 1.8 0 0 1-.016.576c-.04.19-.108.369-.203.537a1.89 1.89 0 0 1-.362.45c-.142.132-.309.23-.488.307s-.366.123-.56.137a1.81 1.81 0 0 1-.576-.049 1.71 1.71 0 0 1-.526-.231 1.72 1.72 0 0 1-.428-.389 1.65 1.65 0 0 1-.285-.499 1.77 1.77 0 0 1-.104-.57 1.78 1.78 0 0 1 .082-.57 1.67 1.67 0 0 1 .258-.51 1.84 1.84 0 0 1 .406-.406l.241-.17.735-.411 1.272-.746 1.196-.664a4.76 4.76 0 0 1 1.431-.455 11.97 11.97 0 0 1 1.695-.132l1.558.005 1.404.038 1.48.099 1.372.192a10.72 10.72 0 0 1 1.277.307 10.71 10.71 0 0 1 1.322.526 7.32 7.32 0 0 1 1.196.697c.322.238.804.642 1.448 1.212l1.662 1.563c.468.476.811.893 1.031 1.251a3.94 3.94 0 0 1 .471 1.113c.099.388.145.889.137 1.503a11 11 0 0 1-.137 1.673c-.084.497-.378 1.002-.872 1.514s-.945.855-1.354 1.031-.949.32-1.618.422l-1.909.274c-.603.084-1.267.124-1.991.121l-2.226-.061c-.757-.036-1.439-.107-2.046-.213l-1.646-.351-1.601-.362c-.581-.117-1.245-.32-1.991-.609s-1.316-.554-1.722-.795-.832-.554-1.278-.938-.852-.803-1.207-1.267a6.78 6.78 0 0 1-.877-1.508c-.226-.541-.298-1.231-.214-2.068s.263-1.45.538-1.837.611-.675 1.009-.872a5.06 5.06 0 0 1 1.371-.433c.515-.088 1.11-.139 1.782-.154l2.232-.022 1.383.022a1.21 1.21 0 0 1 .307.093 1.67 1.67 0 0 1 .279.17c.085.066.159.141.225.225s.123.181.17.28.075.201.094.307a1.51 1.51 0 0 1 .021.313c-.007.11-.027.216-.06.318a1.58 1.58 0 0 1-.131.296c-.055.091-.121.175-.198.252s-.163.143-.258.198a1.48 1.48 0 0 1-.29.132c-.102.033-.209.053-.318.06l-.154.005z"/><path d="M72.141 97.573l.439-.241c.285-.157.603-.459.954-.905l.998-1.36c.314-.461.565-.898.751-1.311a3.55 3.55 0 0 0 .313-1.294l.027-1.283c-.007-.402.007-.808.044-1.218l.099-.823c.029-.146.077-.285.143-.417s.146-.26.241-.373a1.91 1.91 0 0 1 .318-.302 2.19 2.19 0 0 1 .389-.214c.138-.059.276-.093.422-.115a2.02 2.02 0 0 1 .439-.017 1.74 1.74 0 0 1 .433.099 1.76 1.76 0 0 1 .395.192 1.81 1.81 0 0 1 .34.285 1.89 1.89 0 0 1 .258.351 1.93 1.93 0 0 1 .17.411c.04.142.062.287.066.433l.005 1.026v1.766c-.004.636.047 1.172.154 1.607s.344.815.702 1.152.633.559.812.658.344.228.483.378a1.82 1.82 0 0 1 .329.516c.084.186.135.384.154.592a1.9 1.9 0 0 1-.044.609c-.048.201-.126.388-.236.559s-.245.329-.406.461a1.78 1.78 0 0 1-.526.296 1.87 1.87 0 0 1-.598.121c-.208.007-.411-.018-.609-.077s-.38-.144-.548-.258a1.91 1.91 0 0 1-.433-.428 1.85 1.85 0 0 1-.28-.549c-.062-.197-.091-.398-.088-.603a1.91 1.91 0 0 1 .11-.603c.07-.194.168-.371.296-.532a1.88 1.88 0 0 1 .455-.411 1.83 1.83 0 0 1 .559-.247 1.86 1.86 0 0 1 1.201.088c.19.081.362.188.516.324a1.93 1.93 0 0 1 .384.477 1.74 1.74 0 0 1 .219.57 1.89 1.89 0 0 1 .022.609c-.026.205-.084.4-.175.587a1.92 1.92 0 0 1-.351.499 1.79 1.79 0 0 1-.494.351 1.88 1.88 0 0 1-.581.187 1.89 1.89 0 0 1-.614-.011l-.302-.055-1.278-.905c-.852-.607-1.404-1.17-1.656-1.689s-.417-.989-.494-1.41l-.219-1.251c-.07-.417-.108-.949-.115-1.596l-.011-1.947.044-1.196c.029-.146.077-.285.143-.417s.146-.26.241-.373a1.91 1.91 0 0 1 .318-.302c.121-.084.249-.155.384-.214s.282-.093.428-.115a2.02 2.02 0 0 1 .439-.017 1.74 1.74 0 0 1 .433.099 1.76 1.76 0 0 1 .395.192 1.93 1.93 0 0 1 .34.28 2.06 2.06 0 0 1 .258.356 1.93 1.93 0 0 1 .17.411c.04.142.062.287.066.433a4.05 4.05 0 0 1-.066.675c-.048.3-.079.678-.093 1.124l-.104 1.42a7.48 7.48 0 0 1-.329 1.514 6.78 6.78 0 0 1-.658 1.437 17.24 17.24 0 0 1-.982 1.442l-1.026 1.322c-.303.369-.675.689-1.113.96l-1.113.614-.614.263a1.44 1.44 0 0 1-.346.077 1.54 1.54 0 0 1-.346-.006 1.55 1.55 0 0 1-.335-.093c-.11-.044-.212-.1-.307-.17a1.44 1.44 0 0 1-.258-.236 1.29 1.29 0 0 1-.192-.291 1.37 1.37 0 0 1-.121-.329c-.026-.117-.036-.232-.033-.346s.017-.232.049-.346a1.45 1.45 0 0 1 .126-.324 1.65 1.65 0 0 1 .208-.285 1.36 1.36 0 0 1 .263-.225l.148-.099zm3.223 10.816l.444.016c.296.011.708.072 1.234.181a6.52 6.52 0 0 1 1.497.505c.475.227 1.004.59 1.585 1.08s1.015.92 1.3 1.278.514.726.675 1.113a3.19 3.19 0 0 1 .258 1.185c.007.399-.007.406-.044.022s-.024-.514.049-.389a1.78 1.78 0 0 1 .175.4 1.77 1.77 0 0 1 .077.433c.007.147-.002.291-.027.434a1.92 1.92 0 0 1-.137.416 1.64 1.64 0 0 1-.225.368c-.091.117-.196.219-.313.307a1.76 1.76 0 0 1-.379.225 1.82 1.82 0 0 1-.417.126c-.143.026-.287.033-.433.022a1.88 1.88 0 0 1-.428-.082 1.76 1.76 0 0 1-.4-.181 1.72 1.72 0 0 1-.34-.275c-.102-.107-.221-.418-.357-.937s-.15-1.15-.055-1.893.225-1.325.389-1.738l.494-1.24c.164-.416.444-.866.839-1.349s.751-.848 1.08-1.097l.433-.329c-.04.022-.002-.014.115-.109a2.08 2.08 0 0 1 .384-.242 1.8 1.8 0 0 1 .433-.142 2.17 2.17 0 0 1 .455-.039c.153.003.298.033.444.077a1.93 1.93 0 0 1 .417.181c.132.077.258.163.367.269a1.82 1.82 0 0 1 .285.356c.08.131.144.265.192.412a1.98 1.98 0 0 1 .093.444 1.89 1.89 0 0 1-.022.455 1.96 1.96 0 0 1-.126.433 1.9 1.9 0 0 1-.23.395c-.091.121-.448.267-1.07.439s-1.15.263-1.585.274-.945.081-1.541.209-.991.179-1.196.153a1.93 1.93 0 0 1-.592-.181c-.183-.091-.347-.21-.494-.356a1.72 1.72 0 0 1-.362-.494 1.95 1.95 0 0 1-.181-.587 2.03 2.03 0 0 1 .016-.614 1.88 1.88 0 0 1 .214-.576c.102-.183.23-.344.384-.483a1.83 1.83 0 0 1 .521-.329c.19-.08.388-.129.592-.148a1.81 1.81 0 0 1 .614.05c.201.051.389.131.565.241s.324.25.455.411a1.77 1.77 0 0 1 .302.538 1.79 1.79 0 0 1 .115.603 1.84 1.84 0 0 1-.082.609 1.93 1.93 0 0 1-.274.548c-.121.165-.265.307-.433.428s-.351.212-.548.274-.404.086-.609.083a1.99 1.99 0 0 1-.603-.116 2.04 2.04 0 0 1-.537-.301 1.95 1.95 0 0 1-.406-.455 1.91 1.91 0 0 1-.247-.565 2.01 2.01 0 0 1-.049-.609 1.96 1.96 0 0 1 .148-.598 1.91 1.91 0 0 1 .335-.515 1.94 1.94 0 0 1 .477-.384c.179-.102.371-.174.576-.214l.307-.061 1.239-.186c.83-.124 1.474-.176 1.931-.154s.433.13-.082.324-.709.238-.592.143a1.86 1.86 0 0 1 .384-.242 1.8 1.8 0 0 1 .433-.142 2.17 2.17 0 0 1 .455-.039c.153.003.298.033.444.077a1.93 1.93 0 0 1 .417.181c.132.077.258.163.367.269a1.82 1.82 0 0 1 .285.356c.08.131.144.265.192.412a1.98 1.98 0 0 1 .093.444 1.89 1.89 0 0 1-.022.455 1.96 1.96 0 0 1-.126.433 1.9 1.9 0 0 1-.23.395c-.091.121-.166.196-.225.225s-.303.212-.735.549-.718.685-.872 1.047-.373.762-.647 1.212-.38.742-.307.867a1.78 1.78 0 0 1 .175.4 1.88 1.88 0 0 1 .077.433c.007.15-.002.291-.027.434a1.92 1.92 0 0 1-.137.416 1.64 1.64 0 0 1-.225.368c-.091.117-.196.219-.313.307a1.76 1.76 0 0 1-.379.225 1.82 1.82 0 0 1-.417.126c-.143.026-.287.033-.433.022a1.88 1.88 0 0 1-.428-.082 1.76 1.76 0 0 1-.4-.181 1.72 1.72 0 0 1-.34-.275c-.102-.102-.214-.312-.335-.63l-.51-1.218c-.216-.497-.475-.879-.779-1.146s-.698-.527-1.174-.79-.861-.409-1.157-.45l-.609-.093a1.35 1.35 0 0 1-.329-.109 1.46 1.46 0 0 1-.291-.187 1.31 1.31 0 0 1-.241-.252 1.66 1.66 0 0 1-.175-.302c-.044-.106-.075-.217-.093-.334a1.54 1.54 0 0 1-.016-.34c.011-.117.035-.231.071-.341a1.46 1.46 0 0 1 .148-.318 1.41 1.41 0 0 1 .225-.268 1.45 1.45 0 0 1 .28-.209c.103-.059.205-.102.318-.131a1.56 1.56 0 0 1 .346-.055l.17-.011zm32.279-14.181l.587-.049c.395-.033.799-.179 1.212-.439s.757-.563 1.031-.91l.96-1.294c.366-.519.598-1.015.697-1.486s.296-.552.603-.241.817.382 1.541.203.991.059.812.702l-.423 1.552a4.82 4.82 0 0 0-.153 1.294c.004.468.042.806.126 1.015a4.02 4.02 0 0 0 .274.565 1.73 1.73 0 0 1 .22.532 1.65 1.65 0 0 1 .032.565c-.018.194-.067.378-.148.554a1.75 1.75 0 0 1-.318.477c-.132.139-.281.26-.449.351a1.81 1.81 0 0 1-.543.187 1.79 1.79 0 0 1-.576.005 1.78 1.78 0 0 1-.543-.175 1.84 1.84 0 0 1-.461-.346 1.68 1.68 0 0 1-.324-.472 1.72 1.72 0 0 1-.159-.549c-.022-.194-.012-.386.028-.576a1.69 1.69 0 0 1 .208-.526 1.64 1.64 0 0 1 .368-.444 1.8 1.8 0 0 1 .488-.296 1.83 1.83 0 0 1 .559-.132c.194-.011.384.009.571.06a1.82 1.82 0 0 1 .521.236 1.69 1.69 0 0 1 .416.389 1.77 1.77 0 0 1 .275.505 1.72 1.72 0 0 1 .098.559 1.91 1.91 0 0 1-.351 1.08c-.117.154-.256.285-.416.395a1.77 1.77 0 0 1-.516.247 1.89 1.89 0 0 1-.57.066c-.193-.007-.381-.051-.56-.121a1.66 1.66 0 0 1-.493-.291l-.225-.186-.532-1.333c-.351-.885-.534-1.534-.549-1.947a5.62 5.62 0 0 1 .116-1.267l.274-1.294c.102-.428.305-1.055.609-1.881s.866-1.314 1.678-1.464 1.365.082 1.651.697a2.87 2.87 0 0 1 .219 1.87c-.139.633-.397 1.274-.773 1.925s-.695 1.139-.955 1.464l-.954 1.113a8.08 8.08 0 0 1-1.294 1.13c-.479.34-1.02.563-1.624.669s-1.098.166-1.497.181l-.762.016a1.5 1.5 0 0 1-.34-.06 1.53 1.53 0 0 1-.318-.143 1.72 1.72 0 0 1-.275-.214 1.41 1.41 0 0 1-.214-.274 1.26 1.26 0 0 1-.142-.318c-.033-.113-.059-.223-.066-.34s0-.227.022-.34.057-.228.104-.335a1.42 1.42 0 0 1 .176-.296 1.58 1.58 0 0 1 .246-.247c.092-.073.191-.133.297-.181a1.47 1.47 0 0 1 .334-.104l.17-.033zm-.721 12.239l.504.219a4.19 4.19 0 0 1 1.004.631c.336.278.629.627.877 1.047s.452.825.598 1.212l.472 1.393c.161.549.274 1.039.34 1.47s-.168.602-.702.51a1.65 1.65 0 0 1-1.207-.883c-.27-.493-.159-1.276.335-2.347s.812-1.662.965-1.783.322-.208.505-.274a1.65 1.65 0 0 1 .565-.098 1.73 1.73 0 0 1 .57.082c.186.058.358.144.516.258a1.72 1.72 0 0 1 .405.411c.11.157.194.329.253.515a1.83 1.83 0 0 1 .071.576 1.77 1.77 0 0 1-.406 1.064 1.8 1.8 0 0 1-.433.379c-.165.106-.342.181-.532.225a1.8 1.8 0 0 1-.576.038c-.194-.018-.38-.066-.559-.143a1.76 1.76 0 0 1-.483-.318 1.82 1.82 0 0 1-.357-.449c-.095-.172-.159-.355-.192-.549s-.04-.382-.011-.576.088-.376.176-.548a1.84 1.84 0 0 1 .34-.466 1.64 1.64 0 0 1 .472-.324c.175-.084.36-.139.554-.164a1.69 1.69 0 0 1 .576.021c.193.041.374.106.542.198a1.79 1.79 0 0 1 .445.367 1.85 1.85 0 0 1 .307.488 1.89 1.89 0 0 1 .131.565c.015.194-.003.384-.054.571s-.125.367-.231.532l-.159.241-.329.784a10.02 10.02 0 0 0-.543 1.772c-.142.665-.526 1.272-1.152 1.821s-1.294.523-2.018-.077-1.084-1.134-1.08-1.602a6.43 6.43 0 0 0-.137-1.382c-.095-.45-.231-.941-.406-1.486s-.41-.888-.713-1.042l-.615-.318c-.098-.062-.19-.135-.274-.219a1.29 1.29 0 0 1-.208-.28 1.49 1.49 0 0 1-.143-.318 1.58 1.58 0 0 1-.06-.346c-.007-.113 0-.228.022-.345a1.8 1.8 0 0 1 .11-.335c.047-.106.109-.205.186-.296a1.56 1.56 0 0 1 .247-.247 1.65 1.65 0 0 1 .301-.175 1.38 1.38 0 0 1 .335-.099 1.4 1.4 0 0 1 .346-.022c.117.011.232.033.345.066l.165.055zm4.191-5.473l.11.165a1.25 1.25 0 0 1 .176.345 1.17 1.17 0 0 1 .055.379 1.19 1.19 0 0 1-.077.384c-.044.124-.108.237-.192.34a1.2 1.2 0 0 1-.285.258 1.13 1.13 0 0 1-.362.153 1.1 1.1 0 0 1-.379.033c-.128-.011-.258-.042-.378-.093a1.17 1.17 0 0 1-.329-.209c-.099-.087-.179-.19-.242-.307s-.111-.234-.137-.362a1.38 1.38 0 0 1-.011-.384c.019-.131.057-.256.115-.373a1.14 1.14 0 0 1 .543-.543c.117-.058.242-.096.373-.115s.256-.011.384.011.249.072.362.137a1.2 1.2 0 0 1 .307.242 1.17 1.17 0 0 1 .209.329c.051.12.082.247.093.378s0 .254-.033.379a1.34 1.34 0 0 1-.153.362c-.07.109-.156.204-.258.285a1.19 1.19 0 0 1-.724.269c-.128.003-.254-.015-.379-.055a1.25 1.25 0 0 1-.345-.176l-.165-.109-.087-.121a1.12 1.12 0 0 1-.154-.247c-.04-.088-.068-.181-.082-.28a1.19 1.19 0 0 1-.022-.285 1.17 1.17 0 0 1 .055-.285 1.18 1.18 0 0 1 .12-.269 1.43 1.43 0 0 1 .406-.406 1.18 1.18 0 0 1 .269-.12 1.17 1.17 0 0 1 .285-.055c.095-.004.19.004.285.022s.192.042.28.082a1.12 1.12 0 0 1 .247.154l.12.087zM79.1 102.117l.11.165a1.23 1.23 0 0 1 .175.345 1.15 1.15 0 0 1-.022.763 1.13 1.13 0 0 1-.477.598 1.12 1.12 0 0 1-.362.153 1.1 1.1 0 0 1-.379.033 1.23 1.23 0 0 1-.378-.093c-.121-.051-.23-.121-.329-.209a1.09 1.09 0 0 1-.241-.307 1.17 1.17 0 0 1-.137-.362 1.36 1.36 0 0 1-.011-.384 1.2 1.2 0 0 1 .115-.372 1.13 1.13 0 0 1 .23-.313 1.12 1.12 0 0 1 .313-.23 1.23 1.23 0 0 1 .373-.116c.128-.014.256-.011.384.011s.249.072.362.137.219.143.307.242a1.18 1.18 0 0 1 .208.329 1.22 1.22 0 0 1 .093.378 1.1 1.1 0 0 1-.033.379 1.35 1.35 0 0 1-.154.362 1.15 1.15 0 0 1-.258.285 1.12 1.12 0 0 1-.34.192 1.18 1.18 0 0 1-.384.077 1.14 1.14 0 0 1-.378-.055 1.24 1.24 0 0 1-.346-.176l-.165-.109-.088-.121a1.16 1.16 0 0 1-.153-.247 1.03 1.03 0 0 1-.082-.28c-.018-.095-.026-.19-.022-.285s.026-.194.055-.285a1.19 1.19 0 0 1 .121-.269 1.36 1.36 0 0 1 .181-.225 1.38 1.38 0 0 1 .225-.181 1.18 1.18 0 0 1 .269-.12 1.22 1.22 0 0 1 .285-.055 1.25 1.25 0 0 1 .285.022c.099.014.192.042.28.082a1.16 1.16 0 0 1 .247.154l.121.087zm-3.82 14.199l.587.669 1.031 1.064 1.207.971c.508.384 1.064.685 1.667.905a9.3 9.3 0 0 0 1.947.466l1.755.296a11.3 11.3 0 0 0 1.36.22l1.739.142 1.689.154a13.1 13.1 0 0 1 1.239.241l1.931.51 2.029.51a11.21 11.21 0 0 0 1.382.209l1.272.131 1.404.236 1.41.274 1.365.22 1.547.175 1.92.165c.716.058 1.369.064 1.958.016l1.683-.225c.534-.098 1.059-.232 1.574-.4l1.454-.51 1.354-.439 1.218-.373c.369-.124.823-.375 1.36-.751l1.794-1.179 1.546-.966 1.053-.718 1.114-.741c.405-.241 1.062-.345 1.968-.312s1.476.411 1.717 1.124.316 1.278.225 1.706-.229.837-.411 1.239l-.516 1.136-.521 1.173c-.183.428-.402.874-.658 1.339l-.686 1.272c-.204.384-.429.874-.674 1.47s-.499 1.088-.763 1.475-.718.854-1.376 1.41l-1.75 1.469-1.305 1.048a4.85 4.85 0 0 1-1.196.664c-.438.171-.917.29-1.437.356l-1.579.115-1.591.033h-1.596c-.544-.007-1.064.048-1.557.165a15.19 15.19 0 0 0-1.602.477l-1.513.581-1.761.658c-.735.249-1.344.399-1.826.45l-1.585.093c-.574.008-1.335-.071-2.282-.235l-2.611-.373-2.04-.313c-.567-.121-1.232-.322-1.996-.603s-1.579-.514-2.446-.708-1.662-.473-2.386-.839-1.384-.881-1.98-1.536l-1.497-1.678c-.402-.464-.779-.786-1.13-.965l-1.163-.609c-.417-.223-.905-.444-1.464-.664s-1.029-.466-1.398-.74l-1.245-1.02-1.272-1.091a6.25 6.25 0 0 1-1.031-1.141 8.99 8.99 0 0 1-.735-1.185c-.179-.351-.34-.795-.483-1.333a4.84 4.84 0 0 1-.17-1.535c.026-.483.258-1.041.697-1.673s.726-1.007.861-1.113.283-.189.444-.247a1.47 1.47 0 0 1 .499-.099c.175-.007.346.015.51.066s.316.124.455.219c.143.103.263.223.362.362a1.61 1.61 0 0 1 .225.455 1.6 1.6 0 0 1 .071.51c-.004.172-.035.339-.093.5s-.143.314-.252.449a1.5 1.5 0 0 1-.373.34c-.146.095-.303.163-.472.203s-.334.059-.51.044a1.61 1.61 0 0 1-.494-.121c-.158-.066-.305-.16-.433-.274a1.54 1.54 0 0 1-.318-.4c-.084-.15-.148-.309-.181-.477a1.6 1.6 0 0 1-.017-.51 1.68 1.68 0 0 1 .154-.494 1.42 1.42 0 0 1 .296-.411c.124-.12.258-.223.411-.296a1.69 1.69 0 0 1 .488-.154c.172-.022.344-.016.516.016a1.43 1.43 0 0 1 .477.176 1.41 1.41 0 0 1 .395.313 1.47 1.47 0 0 1 .274.427 1.6 1.6 0 0 1 .088 1.01 1.52 1.52 0 0 1-.203.466l-.137.219-.384.252c-.256.172-.377.454-.362.845s.13.839.346 1.344.492.914.817 1.217.746.642 1.25 1.026l1.355 1.075c.402.336.777.596 1.124.779a10.42 10.42 0 0 1 1.064.636c.358.241.784.59 1.278 1.047a9.69 9.69 0 0 1 1.245 1.382c.34.464.74.947 1.201 1.448a5.59 5.59 0 0 0 1.525 1.196c.556.289 1.307.51 2.254.664l2.545.526 1.755.499c.417.132 1.046.199 1.887.203l2.512.066h2.583c.892-.04 1.638-.132 2.238-.274a13.21 13.21 0 0 0 1.574-.466l1.673-.686c.669-.289 1.353-.523 2.051-.702s1.324-.274 1.865-.285l1.569-.033 1.974-.066c.819-.037 1.462-.15 1.931-.34s.928-.51 1.382-.96l1.316-1.382c.42-.475.784-.936 1.091-1.382s.54-.876.697-1.289a11.84 11.84 0 0 1 .543-1.228l.598-1.147c.19-.358.374-.777.554-1.256l.537-1.316c.179-.398.455-.821.828-1.267s.763-.577 1.168-.395.362.393-.131.631-.931.492-1.311.762-.958.624-1.722 1.059l-2.018 1.174-1.607.921a6.22 6.22 0 0 1-1.377.565l-1.212.28c-.384.076-.81.184-1.278.323l-1.629.527c-.625.208-1.236.364-1.832.466l-1.925.291-2.161.181-2.106.032-1.733-.115-1.453-.219-1.355-.252-1.239-.214-1.333-.154-1.645-.203-1.7-.312-1.755-.445-1.931-.416-1.591-.192-1.448-.099c-.552-.044-1.205-.141-1.958-.291l-1.903-.34c-.516-.073-1.174-.28-1.974-.62s-1.355-.678-1.673-1.003a9.36 9.36 0 0 0-.954-.867 10.68 10.68 0 0 1-.982-.866l-1.119-1.136-.724-.778a1.3 1.3 0 0 1-.159-.297 1.28 1.28 0 0 1-.088-.329 1.44 1.44 0 0 1-.005-.334c.011-.114.037-.225.077-.335s.088-.206.154-.301a1.32 1.32 0 0 1 .219-.258 1.45 1.45 0 0 1 .274-.198 1.46 1.46 0 0 1 .318-.126c.11-.029.221-.046.335-.049a1.55 1.55 0 0 1 .335.038 1.47 1.47 0 0 1 .318.115 1.52 1.52 0 0 1 .285.187l.126.115z"/><path d="M91.523 70.202l-1.782-.845c-1.185-.559-2.291-1.216-3.318-1.969s-2.123-1.654-3.274-2.704-2.461-2.079-3.927-3.099l-4.119-2.72-3.285-2.068-2.386-1.519c-.68-.428-1.356-.751-2.029-.971s-1.499-.373-2.468-.461l-2.303-.181a2.9 2.9 0 0 0-1.547.307c-.468.241-1.28.861-2.435 1.859s-2.552 2.479-4.19 4.442-3.463 4.514-5.474 7.662a76.35 76.35 0 0 0-5.282 9.735 88.15 88.15 0 0 0-3.85 10.179l-2.545 8.967a165.39 165.39 0 0 0-1.536 6.669 50.13 50.13 0 0 0-.828 5.841 133.52 133.52 0 0 0-.356 5.77l-.154 4.876-.071 3.685c-.015 1.068.091 2.07.318 3.006l.839 2.901a30.91 30.91 0 0 0 1.327 3.28 34.99 34.99 0 0 0 1.706 3.236c.585.969 1.053 1.654 1.404 2.056l.565.691a1.14 1.14 0 0 1 .06.198.91.91 0 0 1 .011.203.77.77 0 0 1-.038.197c-.021.066-.046.128-.082.187a.89.89 0 0 1-.126.159.75.75 0 0 1-.159.12c-.059.037-.121.066-.187.088a.97.97 0 0 1-.197.033.91.91 0 0 1-.203-.011 1.27 1.27 0 0 1-.192-.06 1.09 1.09 0 0 1-.175-.104c-.054-.04-.102-.094-.143-.149s.197-.711.713-1.979a118.34 118.34 0 0 1 1.804-4.158l2.825-5.484 3.357-6.373 2.94-5.918 2.506-5.287 2.227-4.936 2.029-4.349 1.755-3.818 1.64-3.68a82.73 82.73 0 0 1 1.607-3.379L63.8 87.64l.768-1.722c.172-.413.356-.788.554-1.124s.428-.678.691-1.026.572-.658.927-.932.857-.506 1.508-.697 1.379-.333 2.194-.417l2.101-.23 1.53-.17a39.06 39.06 0 0 1 1.289-.121l1.459-.06 1.569.016c.505.018 1.225.437 2.172 1.245l1.547 1.393a1.25 1.25 0 0 1 .241.817c-.004.142-.031.283-.082.422s-.123.26-.214.373a1.27 1.27 0 0 1-.324.285 1.25 1.25 0 0 1-.4.17 1.39 1.39 0 0 1-.428.033 1.41 1.41 0 0 1-.422-.11 1.37 1.37 0 0 1-.362-.236c-.106-.095-.196-.207-.269-.335a1.26 1.26 0 0 1-.143-.406 1.44 1.44 0 0 1-.011-.433 1.32 1.32 0 0 1 .132-.411 1.34 1.34 0 0 1 .252-.351c.106-.102.225-.185.356-.247s.265-.108.411-.126a1.31 1.31 0 0 1 .433.017 1.2 1.2 0 0 1 .4.148 1.28 1.28 0 0 1 .335.274c.099.11.175.232.23.367a1.25 1.25 0 0 1 .104.417c.011.146-.002.291-.038.433a1.36 1.36 0 0 1-.175.395 1.26 1.26 0 0 1-.291.318 1.25 1.25 0 0 1-.373.208c-.139.051-.282.079-.428.082a1.3 1.3 0 0 1-.428-.06c-.139-.044-.267-.11-.384-.197l-.176-.126-1.201-.932c-.801-.621-1.466-.934-1.996-.938l-1.41-.022-1.218-.027a19.22 19.22 0 0 0-1.431.049 13.56 13.56 0 0 0-1.903.28 31.8 31.8 0 0 0-2.09.505c-.669.183-1.249.51-1.739.982s-.85.881-1.091 1.218-.53.885-.877 1.634l-1.305 2.682-1.59 3.345-1.645 3.697-1.761 3.822-2.024 4.333-2.238 4.958a135.46 135.46 0 0 1-2.512 5.315l-2.956 5.95a151.16 151.16 0 0 1-3.346 6.351l-2.808 5.447-1.733 3.422c-.468.768-.687 1.177-.658 1.239a1.14 1.14 0 0 1 .06.198.91.91 0 0 1 .011.203.77.77 0 0 1-.038.197c-.021.066-.046.128-.082.187a.89.89 0 0 1-.126.159.75.75 0 0 1-.159.12.72.72 0 0 1-.187.083.77.77 0 0 1-.197.038.91.91 0 0 1-.203-.011 1.27 1.27 0 0 1-.192-.06 1.09 1.09 0 0 1-.175-.104c-.054-.04-.102-.094-.143-.149s-.201-.299-.483-.745l-1.333-2.189c-.611-1.013-1.201-2.139-1.772-3.378l-1.382-3.417a34.68 34.68 0 0 1-.878-3.132 13.62 13.62 0 0 1-.346-3.192l.06-3.707.143-4.92a136.08 136.08 0 0 1 .351-5.89c.165-2.044.441-4.033.828-5.967a158.3 158.3 0 0 1 1.519-6.752l2.539-9.115s2.364-6.975 3.889-10.404a79.36 79.36 0 0 1 5.325-9.982l5.55-7.941s3.148-3.676 4.432-4.832 2.318-1.901 3.093-2.227 1.495-.47 2.161-.433a21.37 21.37 0 0 1 1.903.192c.603.088 1.327.278 2.183.57s1.457.554 1.804.784a57.05 57.05 0 0 0 1.558.982l2.397 1.492 3.329 2.057a99.11 99.11 0 0 1 4.267 2.759c1.536 1.046 2.865 2.062 3.987 3.049s2.155 1.812 3.099 2.474 2.022 1.25 3.225 1.766l1.909.834a.93.93 0 0 1 .192.148c.059.058.108.123.148.192a1.01 1.01 0 0 1 .104.219 1.28 1.28 0 0 1 .044.236 1.07 1.07 0 0 1-.016.241 1.11 1.11 0 0 1-.071.23 1.01 1.01 0 0 1-.126.208c-.051.065-.108.119-.17.17a.94.94 0 0 1-.208.126 1.11 1.11 0 0 1-.23.071 1.07 1.07 0 0 1-.241.016 1.28 1.28 0 0 1-.236-.044l-.115-.038zm-.812-6.347l.247-1.788.367-3.68.197-3.335.055-2.32-.044-1.7c-.018-.545-.108-1.017-.269-1.415s-.484-.649-.971-.762-.954-.139-1.393-.077-.958.347-1.547.856-1.168 1.099-1.739 1.771l-1.283 1.651c-.285.431-.713.945-1.283 1.541l-1.015 1.009a1.31 1.31 0 0 1-.351.175 1.28 1.28 0 0 1-.389.049 1.27 1.27 0 0 1-.389-.071c-.124-.044-.238-.113-.34-.197a1.23 1.23 0 0 1-.263-.291 1.21 1.21 0 0 1-.154-.362 1.28 1.28 0 0 1-.033-.395c.011-.132.044-.258.099-.378a1.17 1.17 0 0 1 .208-.335 1.32 1.32 0 0 1 .307-.247c.117-.062.241-.106.373-.132a1.19 1.19 0 0 1 .395-.011 1.2 1.2 0 0 1 .373.115 1.23 1.23 0 0 1 .318.23 1.19 1.19 0 0 1 .23.324c.059.117.097.241.115.373a1.19 1.19 0 0 1-.011.395 1.17 1.17 0 0 1-.137.367 1.19 1.19 0 0 1-.247.307 1.28 1.28 0 0 1-.335.214 1.24 1.24 0 0 1-.384.093 1.15 1.15 0 0 1-.389-.033 1.23 1.23 0 0 1-.362-.159 1.26 1.26 0 0 1-.291-.263 1.12 1.12 0 0 1-.192-.34c-.048-.128-.073-.258-.077-.389s.018-.261.055-.389a1.22 1.22 0 0 1 .175-.351l.121-.164.751-.697a9.47 9.47 0 0 0 1.245-1.366l1.344-1.898a21.2 21.2 0 0 1 1.919-2.364c.702-.753 1.382-1.26 2.04-1.519s1.188-.347 1.59-.263.89.271 1.453.559l1.36.784c.347.234.656.625.927 1.174s.417 1.026.45 1.442.037.907.011 1.459l-.077 1.717-.044 2.342-.022 3.422-.137 3.762-.148 1.942a1.21 1.21 0 0 1-.099.28 1.37 1.37 0 0 1-.159.247 1.11 1.11 0 0 1-.219.197 1.19 1.19 0 0 1-.258.143 1.27 1.27 0 0 1-.285.077c-.099.015-.196.016-.291.005s-.194-.028-.285-.06a1.11 1.11 0 0 1-.263-.132c-.084-.055-.159-.119-.225-.192s-.128-.153-.175-.241-.084-.175-.11-.274a1.12 1.12 0 0 1-.038-.291l-.005-.143zm12.309-25.063l1.355.291c.899.194 1.79.558 2.671 1.091.881.541 1.697 1.212 2.446 2.013s1.353 1.726 1.81 2.775.874 2.432 1.239 4.146l1.223 5.616 1.136 4.947.663 3.115a15.53 15.53 0 0 1 .209 2.391l.066 2.177.038 1.13a.97.97 0 0 1-.093.263.86.86 0 0 1-.17.225.97.97 0 0 1-.231.154c-.087.04-.177.064-.268.071a.8.8 0 0 1-.28-.016.76.76 0 0 1-.258-.104.84.84 0 0 1-.214-.181.78.78 0 0 1-.142-.236 1.08 1.08 0 0 1-.061-.274c-.003-.095.008-.188.033-.28a.81.81 0 0 1 .121-.252.84.84 0 0 1 .192-.203.93.93 0 0 1 .247-.132.86.86 0 0 1 .274-.044.98.98 0 0 1 .274.049c.092.029.174.073.247.132s.141.126.192.203a.9.9 0 0 1 .115.252.88.88 0 0 1 .033.28c-.007.095-.029.186-.066.274a.83.83 0 0 1-.142.236c-.062.07-.134.134-.214.181a.95.95 0 0 1-.258.104.8.8 0 0 1-.28.011.85.85 0 0 1-.269-.077c-.087-.04-.164-.091-.23-.154a.86.86 0 0 1-.17-.225.87.87 0 0 1-.088-.263l-.022-.143.066-.987.088-2.057a12.23 12.23 0 0 0-.176-2.21l-.669-3.077-1.151-4.963-1.196-5.479c-.347-1.623-.708-2.887-1.08-3.79s-.889-1.702-1.536-2.397a10.33 10.33 0 0 0-2.051-1.722c-.717-.453-1.523-.762-2.419-.927l-1.437-.28c-.066-.022-.128-.051-.186-.088a.94.94 0 0 1-.159-.126.98.98 0 0 1-.127-.17c-.036-.059-.064-.121-.082-.187s-.029-.139-.033-.208a.68.68 0 0 1 .017-.197.63.63 0 0 1 .066-.197.87.87 0 0 1 .109-.176.78.78 0 0 1 .148-.143c.055-.044.114-.08.176-.11s.133-.044.203-.055a.96.96 0 0 1 .203-.011l.098.011zm13.975 25.713l1.355-.971c.907-.643 2.17-1.382 3.79-2.216s3.749-1.603 6.389-2.32l7.525-1.706 5.166-.894 2.523-.411c.622-.099 1.393.126 2.315.675s2.018 1.497 3.29 2.835 2.604 3.174 3.993 5.506 2.792 5.163 4.218 8.501 2.746 6.79 3.948 10.366a170.57 170.57 0 0 1 3.198 10.618c.929 3.503 1.656 6.779 2.172 9.839s.888 5.964 1.108 8.71.285 5.252.197 7.519l-.274 6.17c-.099 1.85-.291 3.6-.576 5.249l-.784 4.585-.691 3.91-.642 2.88s-.346 1.298-.411 1.744-.108.705-.137.778a.93.93 0 0 1-.11.198.76.76 0 0 1-.154.17c-.055.051-.117.093-.186.126s-.141.064-.214.082-.148.022-.225.022-.152-.009-.225-.027a.85.85 0 0 1-.214-.082c-.065-.037-.128-.081-.186-.132a.98.98 0 0 1-.148-.176.78.78 0 0 1-.104-.203c-.026-.069-.044-.142-.055-.219a.89.89 0 0 1 .005-.225c.011-.077-.073-.375-.252-.894s-.508-1.853-.998-4.014-1.163-4.648-2.019-7.459-1.842-5.424-2.972-7.849a139.28 139.28 0 0 0-3.477-6.981 188.83 188.83 0 0 0-3.62-6.472l-3.686-6.154-3.537-5.665-3.368-4.898s-2.151-2.726-3.087-3.647a75.92 75.92 0 0 1-2.479-2.534l-2.233-2.353-2.172-2.04-1.672-1.36c-.442-.343-.87-.554-1.284-.642a12.96 12.96 0 0 1-1.245-.335c-.42-.139-.892-.212-1.415-.219a65.73 65.73 0 0 0-2.012.011 21.84 21.84 0 0 0-2.584.208l-1.59.175s-.316-.035-.466-.093a1.51 1.51 0 0 1-.412-.241 1.48 1.48 0 0 1-.307-.362 1.46 1.46 0 0 1-.181-.439 1.49 1.49 0 0 1-.033-.472c.019-.161.061-.314.126-.461a1.4 1.4 0 0 1 .264-.395 1.38 1.38 0 0 1 .373-.291 1.42 1.42 0 0 1 .449-.154 1.36 1.36 0 0 1 .472-.005 1.52 1.52 0 0 1 .45.148 1.43 1.43 0 0 1 .378.28 1.5 1.5 0 0 1 .269.395 1.42 1.42 0 0 1 .132.455 1.47 1.47 0 0 1-.022.472c-.033.157-.09.305-.17.444a1.38 1.38 0 0 1-.302.362 1.46 1.46 0 0 1-.406.252 1.57 1.57 0 0 1-.455.104 1.46 1.46 0 0 1-.472-.044 1.51 1.51 0 0 1-.433-.197 1.42 1.42 0 0 1-.351-.324c-.099-.124-.174-.263-.225-.417a1.53 1.53 0 0 1-.082-.466c0-.161.024-.318.071-.472a1.6 1.6 0 0 1 .219-.422 1.47 1.47 0 0 1 .341-.329 1.42 1.42 0 0 1 .433-.203l.23-.066 1.53-.121 2.238-.11 1.3.044a8.78 8.78 0 0 1 1.256.165c.435.084.961.26 1.579.526a18.35 18.35 0 0 1 1.86.932c.618.354 1.118.728 1.502 1.119a23.85 23.85 0 0 0 1.635 1.481c.71.596 1.455 1.302 2.237 2.106l2.227 2.336 2.528 2.589s2.055 2.232 3.203 3.768 2.287 3.188 3.417 4.947l3.565 5.682 3.724 6.181 3.686 6.516 3.581 7.107c1.17 2.486 2.194 5.15 3.082 7.991s1.589 5.324 2.101 7.448l1.097 4.448c.216.841.309 1.298.28 1.371a.93.93 0 0 1-.11.198.95.95 0 0 1-.154.17c-.055.051-.117.093-.186.126s-.141.064-.214.082-.148.022-.225.022-.152-.009-.225-.027a.85.85 0 0 1-.214-.082c-.065-.037-.128-.081-.186-.132a.98.98 0 0 1-.148-.176.78.78 0 0 1-.104-.203c-.026-.069-.044-.142-.055-.219a.89.89 0 0 1 .005-.225c.011-.077.114-.334.307-.773a19.53 19.53 0 0 0 .62-1.64c.219-.655.439-1.583.658-2.775l.686-3.9.773-4.502c.278-1.595.464-3.313.56-5.156l.274-6.077c.084-2.208.018-4.663-.198-7.365s-.583-5.565-1.091-8.578-1.23-6.254-2.156-9.724-1.99-6.973-3.186-10.508-2.495-6.94-3.9-10.212-2.771-6.026-4.102-8.26-2.589-3.967-3.773-5.21-2.103-2.095-2.743-2.556-1.215-.671-1.738-.62-1.307.172-2.364.351l-5.079.905-7.288 1.673s-4.564 1.444-6.099 2.249-2.742 1.547-3.631 2.216l-1.426 1.053a.78.78 0 0 1-.197.082c-.07.018-.141.029-.214.033a.77.77 0 0 1-.209-.022c-.07-.015-.137-.038-.203-.071a.87.87 0 0 1-.181-.115c-.055-.047-.102-.1-.142-.159a.77.77 0 0 1-.11-.186 1.02 1.02 0 0 1-.055-.203.77.77 0 0 1-.005-.208c.007-.073.022-.144.044-.214s.056-.13.093-.192a1.16 1.16 0 0 1 .137-.165l.082-.071z"/><path d="M162.292 144.128l-1.02.148c-.688.095-1.359.51-2.013 1.245s-1.154 1.675-1.497 2.819-.521 2.156-.521 3.044.453 1.814 1.36 2.775 1.87 1.801 2.89 2.529 1.83 1.239 2.43 1.535 1.151.335 1.645.105.912-.591 1.256-1.081.598-1.126.751-1.908-.016-1.936-.521-3.461l-1.782-4.64-1.64-3.625c-.406-.845-.784-1.441-1.135-1.788-.344-.348-.951-.622-1.821-.823s-1.598-.329-2.172-.373l-1.031-.115a1.07 1.07 0 0 1-.313-.148 1.13 1.13 0 0 1-.246-.247c-.066-.091-.117-.194-.154-.307s-.049-.223-.049-.34a1.07 1.07 0 0 1 .065-.34c.041-.11.096-.21.165-.302a1.14 1.14 0 0 1 .576-.373 1 1 0 0 1 .345-.027c.114.007.225.033.335.077a1.01 1.01 0 0 1 .291.186c.088.077.16.167.219.269s.099.21.121.323.025.229.011.346a1.02 1.02 0 0 1-.099.329c-.051.106-.117.201-.198.285a1.26 1.26 0 0 1-.279.203c-.106.051-.218.086-.335.104a1 1 0 0 1-.345-.011 1.1 1.1 0 0 1-.324-.115c-.102-.058-.192-.13-.269-.214s-.142-.184-.186-.29a1.16 1.16 0 0 1-.088-.335c-.011-.117-.002-.232.028-.345s.069-.22.131-.318a1.03 1.03 0 0 1 .231-.258c.092-.073.191-.132.301-.176s.223-.062.34-.066l.17-.005.878.164 2.013.384c.753.147 1.349.386 1.788.719.446.333.851.749 1.217 1.25s.755 1.183 1.179 2.046l1.706 3.724a44.25 44.25 0 0 1 1.854 5.057c.53 1.751.678 3.139.444 4.162s-.634 1.858-1.201 2.512-1.262 1.088-2.073 1.3-1.615.145-2.397-.203-1.73-.919-2.841-1.716-2.176-1.801-3.192-3.011-1.537-2.386-1.563-3.516.181-2.377.62-3.729 1.118-2.496 2.029-3.417 1.742-1.448 2.495-1.591l1.234-.219a.87.87 0 0 1 .214.016 1.2 1.2 0 0 1 .209.066 1.01 1.01 0 0 1 .181.115c.058.048.109.101.153.159s.081.121.11.187.049.139.06.208a1.04 1.04 0 0 1 .011.214 1.03 1.03 0 0 1-.044.214c-.022.07-.053.135-.093.197a1.04 1.04 0 0 1-.137.171c-.051.051-.11.095-.175.131a.95.95 0 0 1-.198.088l-.104.027zm-121.641-7.806l-1.13.225c-.757.15-1.483.607-2.177 1.371s-1.214 1.698-1.569 2.791-.477 2.039-.356 2.836.506 1.55 1.157 2.248 1.298 1.194 1.942 1.487 1.15.214 1.508-.236.598-1.035.718-1.755.188-1.324.203-1.821-.311-1.181-.987-2.04l-1.097-1.454a.92.92 0 0 1-.104-.329 1.03 1.03 0 0 1 .006-.351 1.14 1.14 0 0 1 .115-.329 1.01 1.01 0 0 1 .219-.274c.088-.08.185-.144.291-.192a1.13 1.13 0 0 1 .34-.088c.117-.011.234-.003.351.022a.98.98 0 0 1 .318.137 1.04 1.04 0 0 1 .258.231.99.99 0 0 1 .175.301 1.05 1.05 0 0 1 .071.346 1.09 1.09 0 0 1-.044.345 1.07 1.07 0 0 1-.154.319 1.05 1.05 0 0 1-.247.246c-.095.069-.194.123-.307.159a1.03 1.03 0 0 1-.346.05 1.01 1.01 0 0 1-.346-.061 1.04 1.04 0 0 1-.302-.17.99.99 0 0 1-.236-.257 1.03 1.03 0 0 1-.143-.324 1.09 1.09 0 0 1-.033-.345 1.02 1.02 0 0 1 .082-.341c.047-.11.106-.208.187-.296s.166-.162.269-.225a1.06 1.06 0 0 1 .329-.12.94.94 0 0 1 .351-.011c.117.014.228.047.335.099a1.09 1.09 0 0 1 .28.197l.126.126 1.048 2.029c.695 1.35.996 2.287.905 2.814l-.34 2.057c-.135.848-.36 1.638-.675 2.369s-.856 1.079-1.634 1.031-1.567-.271-2.364-.669-1.583-1.062-2.358-1.991-1.228-1.918-1.36-2.978.022-2.24.472-3.549 1.143-2.433 2.068-3.372 1.786-1.511 2.583-1.723l1.305-.329c.069-.007.141-.005.214.006a1.07 1.07 0 0 1 .214.055 1.4 1.4 0 0 1 .192.104c.059.044.111.093.159.148s.09.121.126.186a.7.7 0 0 1 .071.203.73.73 0 0 1 .022.214c0 .073-.009.146-.027.22s-.046.137-.082.203a.68.68 0 0 1-.126.175c-.051.055-.106.102-.165.143a.86.86 0 0 1-.197.104l-.104.033zm42.203-83.163l-.57 1.146c-.377.768-.669 1.605-.878 2.512s-.227 1.75-.044 2.517.55 1.404 1.102 1.92 1.053.72 1.503.625.594-.569.433-1.42a8.39 8.39 0 0 0-.784-2.32c-.362-.698-.733-1.157-1.102-1.388s-.921-.483-1.667-.757L79.58 55.5c-.095-.055-.181-.124-.258-.208s-.132-.175-.175-.274a1.08 1.08 0 0 1-.082-.324 1.07 1.07 0 0 1 .028-.324.95.95 0 0 1 .132-.307.98.98 0 0 1 .219-.241 1.03 1.03 0 0 1 .285-.165c.106-.041.21-.06.323-.06s.218.009.324.038a1.02 1.02 0 0 1 .296.148c.091.066.168.143.23.23a1.02 1.02 0 0 1 .148.296c.033.106.048.214.044.324a.88.88 0 0 1-.06.324.98.98 0 0 1-.159.291c-.07.084-.152.157-.247.219a1.03 1.03 0 0 1-.302.132 1.07 1.07 0 0 1-.324.027 1.08 1.08 0 0 1-.324-.082.98.98 0 0 1-.482-.427 1.07 1.07 0 0 1-.115-.313c-.022-.11-.026-.219-.011-.329a.96.96 0 0 1 .099-.313.98.98 0 0 1 .192-.269 1.06 1.06 0 0 1 .263-.192 1 1 0 0 1 .318-.099c.11-.015.219-.011.329.011l.159.027 1.36.647c.903.428 1.587.865 2.051 1.311s.929 1.106 1.393 1.991.748 1.925.85 3.11-.113 2.042-.647 2.561-1.214.638-2.029.346-1.57-.803-2.265-1.53c-.702-.731-1.17-1.611-1.404-2.638a7.42 7.42 0 0 1-.027-3.148c.216-1.068.492-1.996.828-2.786l.565-1.283a1.1 1.1 0 0 1 .148-.187 1.28 1.28 0 0 1 .192-.148.98.98 0 0 1 .219-.093.87.87 0 0 1 .236-.044c.077-.004.155.002.236.017a1.22 1.22 0 0 1 .23.077c.073.033.141.075.203.126a.81.81 0 0 1 .165.17.86.86 0 0 1 .126.208.83.83 0 0 1 .066.23c.015.077.02.154.017.23a1.04 1.04 0 0 1-.049.236l-.038.115zM61.463 91.526l.806-.351 1.991-.916c.786-.373 1.463-.808 2.029-1.305s1.104-.823 1.612-.987l2.057-.614 2.331-.713c.68-.23 1.207-.464 1.58-.702l1.278-.779c.479-.289 1.044-.539 1.695-.751l1.684-.483c.468-.106 1.02-.15 1.656-.132l1.563.027c.406-.004.885.077 1.437.241s1.102.49 1.651.976l1.344 1.097a5 5 0 0 0 1.185.603 4.82 4.82 0 0 0 1.415.269c.501.022 1.091.018 1.782-.022l2.353-.143c.881-.055 1.6-.157 2.155-.307l1.437-.373c.402-.102.932-.165 1.591-.186s1.318.161 1.991.549 1.219.554 1.651.499.948-.216 1.563-.483c.61-.267 1.354-.656 2.232-1.168l2.501-1.294 1.985-.823c.534-.197 1.139-.313 1.816-.345s1.396.091 2.171.362l1.739.625c.384.146.898.391 1.541.735s1.273.541 1.887.592a11.18 11.18 0 0 0 2.1-.044c.789-.084 1.465-.091 2.024-.033s1.22.283 1.98.686l1.991 1.113a8.47 8.47 0 0 0 1.673.784l1.009.367c.128.062.241.143.34.241a1.24 1.24 0 0 1 .241.34c.066.124.108.258.126.4s.015.278-.011.417a1.28 1.28 0 0 1-.142.389 1.2 1.2 0 0 1-.264.324 1.26 1.26 0 0 1-.756.329 1.34 1.34 0 0 1-.417-.033 1.3 1.3 0 0 1-.384-.164 1.32 1.32 0 0 1-.307-.28 1.39 1.39 0 0 1-.209-.362 1.3 1.3 0 0 1-.076-.411 1.31 1.31 0 0 1 .054-.411 1.21 1.21 0 0 1 .187-.373c.08-.117.177-.216.291-.296a1.27 1.27 0 0 1 .373-.186 1.33 1.33 0 0 1 .416-.055 1.35 1.35 0 0 1 .412.077c.131.047.252.115.362.203a1.27 1.27 0 0 1 .279.313c.077.117.132.245.165.384a1.3 1.3 0 0 1 .033.411 1.29 1.29 0 0 1-.099.406 1.18 1.18 0 0 1-.225.351 1.32 1.32 0 0 1-.323.263 1.4 1.4 0 0 1-.395.148 1.32 1.32 0 0 1-.417.011l-.208-.027-1.054-.428-1.892-.867-1.563-.801c-.482-.238-.923-.382-1.322-.433a8.38 8.38 0 0 0-1.184-.06l-1.366.06c-.515.029-1.036.011-1.563-.055a6.75 6.75 0 0 1-1.442-.346 6.2 6.2 0 0 1-1.234-.625l-1.251-.834c-.45-.3-.947-.552-1.492-.757s-1.049-.313-1.513-.335a4.78 4.78 0 0 0-1.366.132c-.45.11-1.016.351-1.7.724s-1.481.865-2.38 1.486l-2.474 1.59c-.753.431-1.49.697-2.21.795s-1.274.053-1.662-.126-.843-.424-1.377-.735-1.069-.444-1.618-.4-1.154.155-1.815.335l-2.265.51-2.55.521c-.848.183-1.722.223-2.622.121s-1.605-.274-2.117-.526a6.96 6.96 0 0 1-1.475-.982l-1.486-1.278c-.516-.446-.978-.682-1.388-.708s-1.011-.031-1.815-.016-1.444.095-1.919.241-.953.368-1.431.653l-1.431.823-1.837.976c-.749.38-1.581.704-2.495.971l-2.04.625c-.446.154-.912.422-1.399.806s-.951.665-1.393.845l-1.206.483-1.349.581-.949.411c-.099.029-.199.047-.302.055s-.197 0-.296-.022a1.39 1.39 0 0 1-.291-.088 1.49 1.49 0 0 1-.258-.159 1.2 1.2 0 0 1-.214-.219 1.42 1.42 0 0 1-.159-.258c-.044-.092-.069-.192-.088-.291a1.17 1.17 0 0 1-.017-.296 1.41 1.41 0 0 1 .055-.302 1.34 1.34 0 0 1 .126-.274c.055-.088.119-.168.192-.241s.154-.132.241-.186l.126-.077zm18.376 60.005l-1.316-.883-2.512-1.75c-.797-.574-1.488-1.186-2.073-1.837l-1.695-1.92a21.2 21.2 0 0 1-1.574-2.089l-1.552-2.413-1.667-2.743-1.492-2.501-.954-1.722a15.12 15.12 0 0 1-.625-1.448l-.329-.954a1.44 1.44 0 0 1-.055-.345 1.34 1.34 0 0 1 .022-.269 1.02 1.02 0 0 1 .088-.252 1.07 1.07 0 0 1 .148-.231 1.04 1.04 0 0 1 .198-.181.96.96 0 0 1 .236-.131 1.05 1.05 0 0 1 .258-.077 1.35 1.35 0 0 1 .269-.006 1.18 1.18 0 0 1 .269.055 1.46 1.46 0 0 1 .241.121 1.17 1.17 0 0 1 .208.175 1.12 1.12 0 0 1 .159.214 1.09 1.09 0 0 1 .099.252c.026.088-.068.64-.28 1.657s-.578 2.322-1.097 3.916-1.154 3.184-1.914 4.771l-1.947 3.845-1.174 2.265a15.9 15.9 0 0 0-.658 1.634l-.576 1.805-.45 1.64-.214.894a2.91 2.91 0 0 1-.115.334c-.036.084-.082.156-.137.225a1.14 1.14 0 0 1-.187.187 1.1 1.1 0 0 1-.225.137 1.03 1.03 0 0 1-.252.082 1.26 1.26 0 0 1-.269.016.94.94 0 0 1-.263-.049c-.084-.026-.164-.062-.241-.11s-.146-.097-.208-.159a1.26 1.26 0 0 1-.164-.208.97.97 0 0 1-.11-.247 1.23 1.23 0 0 1-.049-.258 1.31 1.31 0 0 1 .017-.268c.018-.088.249-.247.691-.478s.982-.471 1.607-.713l1.667-.663a10.92 10.92 0 0 1 1.382-.488c.439-.125.647-.461.625-1.01s.024-1.012.137-1.393.218-.908.324-1.585l.28-1.612.302-1.404.252-.987a1.64 1.64 0 0 1 .192-.346c.077-.106.166-.203.269-.29s.212-.156.329-.214.245-.101.373-.127a1.74 1.74 0 0 1 .395-.038 1.77 1.77 0 0 1 .389.055 1.71 1.71 0 0 1 .368.153c.113.066.219.143.318.231a1.47 1.47 0 0 1 .252.307 1.59 1.59 0 0 1 .175.351 1.53 1.53 0 0 1 .082.389c.011.135.007.262-.011.39s-.027-.05-.027-.543.303-.331.91.488l1.931 2.797a28.13 28.13 0 0 0 2.106 2.819l1.717 1.942c.431.453.91.788 1.437 1.003s1.011.324 1.453.313l1.563-.055a15.7 15.7 0 0 0 1.799-.17l1.141-.137a1.35 1.35 0 0 1 .477.088 1.52 1.52 0 0 1 .428.235c.128.103.238.223.329.362a1.46 1.46 0 0 1 .197.45 1.36 1.36 0 0 1 .044.488 1.48 1.48 0 0 1-.11.472 1.55 1.55 0 0 1-.263.417 1.56 1.56 0 0 1-.378.312 1.47 1.47 0 0 1-.461.176 1.62 1.62 0 0 1-.483.016c-.165-.022-.322-.069-.472-.142a1.5 1.5 0 0 1-.4-.28c-.12-.117-.212-.249-.285-.395s-.126-.301-.148-.466-.024-.329.005-.494a1.45 1.45 0 0 1 .165-.46c.081-.146.181-.271.302-.384s.261-.203.411-.269a1.56 1.56 0 0 1 .96-.088 1.52 1.52 0 0 1 .45.192 1.42 1.42 0 0 1 .367.324 1.51 1.51 0 0 1 .247.422 1.54 1.54 0 0 1 .099.483 1.65 1.65 0 0 1-.06.482 1.52 1.52 0 0 1-.214.445 1.51 1.51 0 0 1-.346.351 1.54 1.54 0 0 1-.439.219l-.23.077-1.124.126a12.66 12.66 0 0 1-2.068.077l-1.717-.181c-.508-.084-1.033-.264-1.574-.538s-1.011-.559-1.42-.844-.835-.657-1.278-1.125l-1.931-1.969a35.85 35.85 0 0 1-2.419-2.703l-1.695-2.096-1.377-1.787c-.552-.754-.802-1.191-.751-1.311a1.41 1.41 0 0 1 .192-.346c.08-.106.166-.203.269-.29s.212-.156.329-.214.245-.101.373-.127a1.74 1.74 0 0 1 .395-.038 1.77 1.77 0 0 1 .389.055 1.71 1.71 0 0 1 .368.153c.113.066.219.143.318.231a1.47 1.47 0 0 1 .252.307 1.59 1.59 0 0 1 .175.351 1.52 1.52 0 0 1 .082.384c.011.132.007.267-.011.395a4.55 4.55 0 0 1-.099.477l-.324 1.25-.362 1.553-.219 1.173a12.6 12.6 0 0 1-.307 1.229l-.422 1.349a13.2 13.2 0 0 1-.587 1.453c-.234.497-.634.852-1.201 1.064s-1.066.351-1.497.417-1.018.212-1.75.428-1.356.322-1.876.329-.579-.115-.192-.357.563-.327.526-.246a1.03 1.03 0 0 1-.137.23c-.055.07-.117.132-.187.187a1.1 1.1 0 0 1-.225.137 1.03 1.03 0 0 1-.252.082 1.26 1.26 0 0 1-.269.016.88.88 0 0 1-.258-.049c-.088-.026-.17-.062-.247-.11s-.146-.097-.208-.159a1.26 1.26 0 0 1-.164-.208.97.97 0 0 1-.11-.247 1.23 1.23 0 0 1-.049-.258 1.31 1.31 0 0 1 .017-.268c.018-.088.066-.196.143-.324s.203-.406.367-.834a20.54 20.54 0 0 0 .554-1.667l.68-1.952c.252-.618.527-1.18.823-1.684l1.201-2.21 1.793-3.735a34.22 34.22 0 0 0 1.728-4.585l.856-3.478.175-1.31c-.004-.092.004-.181.022-.269a1.02 1.02 0 0 1 .088-.252 1.07 1.07 0 0 1 .148-.231 1.04 1.04 0 0 1 .198-.181.96.96 0 0 1 .236-.131 1.05 1.05 0 0 1 .258-.077 1.35 1.35 0 0 1 .269-.006 1.18 1.18 0 0 1 .269.055 1.46 1.46 0 0 1 .241.121 1.17 1.17 0 0 1 .208.175 1.12 1.12 0 0 1 .159.214 1.09 1.09 0 0 1 .099.252c.026.088.035.203.027.346s0 .413.022.812.095.804.208 1.228.375.975.784 1.651l1.492 2.479 1.667 2.704 1.497 2.298c.479.706.993 1.364 1.541 1.974l1.585 1.755c.508.556 1.159 1.105 1.953 1.646l2.539 1.645 1.426.911a.81.81 0 0 1 .154.164c.044.059.08.123.11.192a.89.89 0 0 1 .06.214.88.88 0 0 1 .005.219c-.007.073-.022.147-.044.22s-.058.135-.099.197a.9.9 0 0 1-.143.17c-.055.051-.115.095-.181.132s-.133.066-.203.088a1.11 1.11 0 0 1-.219.032.71.71 0 0 1-.219-.022.8.8 0 0 1-.208-.071l-.104-.049z"/><path d="M66.715 129.848l1.086-.033 1.305.006a1.25 1.25 0 0 1 .406.137 1.4 1.4 0 0 1 .587.614 1.47 1.47 0 0 1 .115.412 1.31 1.31 0 0 1-.027.427c-.032.142-.082.271-.159.395a1.3 1.3 0 0 1-.274.329c-.113.095-.236.169-.367.22s-.276.086-.422.093a1.41 1.41 0 0 1-.428-.044 1.38 1.38 0 0 1-.389-.181 1.48 1.48 0 0 1-.307-.296 1.41 1.41 0 0 1-.203-.378 1.3 1.3 0 0 1 0-.845c.047-.135.115-.261.203-.378a1.46 1.46 0 0 1 .307-.297 1.45 1.45 0 0 1 .389-.181 1.26 1.26 0 0 1 .428-.043c.143.008.287.038.422.093s.258.128.367.219a1.32 1.32 0 0 1 .274.329 1.23 1.23 0 0 1 .159.401 1.26 1.26 0 0 1 .027.422 1.47 1.47 0 0 1-.115.411 1.32 1.32 0 0 1-.241.357 1.29 1.29 0 0 1-.346.257 1.23 1.23 0 0 1-.406.138l-.214.038-1.091-.033-1.234-.049a1.54 1.54 0 0 1-.302-.077 1.26 1.26 0 0 1-.269-.143 1.3 1.3 0 0 1-.23-.203 1.16 1.16 0 0 1-.175-.252c-.048-.091-.084-.186-.11-.285s-.033-.199-.033-.302a1.37 1.37 0 0 1 .033-.301 1.36 1.36 0 0 1 .11-.286 1.21 1.21 0 0 1 .175-.252c.069-.077.146-.144.23-.203s.174-.106.269-.142.199-.063.302-.077l.148-.017zm58.332-1.533l.702-.005 1.437-.039c.483-.029.993-.021 1.53.022s.991.147 1.372.308.926.561 1.65 1.201 1.019 1.351.883 2.133-.34 1.483-.614 2.101l-.866 1.908-.818 1.975-.713 2.172c-.23.789-.566 1.74-1.009 2.852l-1.261 3.131-1.185 2.797-.982 2.49c-.263.768-.429 1.391-.499 1.87s-.109.905-.12 1.289l-.055.697a1.45 1.45 0 0 1-.099.241c-.044.077-.095.146-.153.209a1.27 1.27 0 0 1-.203.164c-.074.048-.15.086-.231.115a.99.99 0 0 1-.252.055c-.088.007-.176.006-.263-.005a.96.96 0 0 1-.247-.072 1.17 1.17 0 0 1-.23-.126 1.07 1.07 0 0 1-.187-.175c-.058-.07-.106-.143-.143-.22s-.065-.159-.087-.247a.96.96 0 0 1-.022-.257c.003-.088-.006-.346-.028-.774s.035-1.082.17-1.963a27.35 27.35 0 0 1 .637-2.918l1.009-3.751c.387-1.43.802-2.651 1.245-3.664l1.179-2.545 1.047-1.963.856-1.64.702-1.426c.245-.479.664-1.102 1.256-1.87s1.258-1.172 2.007-1.201 1.318.267 1.695.888.614 1.631.724 3.028l.197 4.744.044 4.393-.005 2.956.049 2.046.039 1.656a7.03 7.03 0 0 1-.165 1.486c-.102.443-.254.9-.455 1.371a1.99 1.99 0 0 1-.993 1.043c-.457.223-1.029.396-1.717.521l-1.936.351c-.599.109-1.458.219-2.577.329l-1.892.148c-.143-.015-.28-.051-.412-.11a1.33 1.33 0 0 1-.351-.23c-.106-.095-.188-.211-.258-.335a1.25 1.25 0 0 1-.148-.823c.019-.142.061-.277.127-.405s.149-.242.252-.34a1.36 1.36 0 0 1 .345-.242c.128-.062.262-.102.401-.12a1.28 1.28 0 0 1 .427.016c.139.029.271.079.395.148a1.25 1.25 0 0 1 .329.274 1.28 1.28 0 0 1 .22.357 1.32 1.32 0 0 1 .099.411 1.25 1.25 0 0 1-.039.422c-.036.139-.093.269-.17.39a1.27 1.27 0 0 1-.291.312 1.22 1.22 0 0 1-.367.203 1.32 1.32 0 0 1-.417.077c-.146 0-.287-.022-.422-.066a1.36 1.36 0 0 1-.373-.192c-.113-.084-.212-.184-.296-.301a1.3 1.3 0 0 1-.181-.384 1.33 1.33 0 0 1-.055-.417c.007-.143.036-.282.088-.417a1.25 1.25 0 0 1 .214-.367 1.21 1.21 0 0 1 .318-.28c.117-.077.245-.132.384-.165l.208-.049 1.536-.082c1.02-.055 1.819-.141 2.396-.258s1.212-.188 1.914-.203 1.156-.263 1.35-.746a14.38 14.38 0 0 0 .493-1.437 6.89 6.89 0 0 0 .247-1.535l.011-2.035-.088-2.94-.159-4.327-.268-4.338-.33-2.397c-.106-.435-.341-.318-.707.351l-.976 1.656-.856 1.339-.954 1.552-1.009 1.864-1.075 2.403c-.392.939-.761 2.124-1.108 3.554l-.85 3.652c-.216 1.002-.357 1.896-.423 2.682l-.104 2.002-.038.949a1.45 1.45 0 0 1-.099.241c-.044.077-.095.146-.153.209a1.27 1.27 0 0 1-.203.164c-.074.048-.15.086-.231.115a.99.99 0 0 1-.252.055c-.088.007-.176.006-.263-.005a.96.96 0 0 1-.247-.072 1.17 1.17 0 0 1-.23-.126 1.07 1.07 0 0 1-.187-.175c-.058-.07-.106-.143-.143-.22s-.065-.159-.087-.247a.96.96 0 0 1-.022-.257c.003-.088.066-.337.186-.746l.412-1.382.614-2.002.91-2.561 1.048-2.808 1.058-3.055c.355-1.05.611-2.002.768-2.858l.51-2.402.587-2.155c.208-.695.512-1.496.911-2.403s.714-1.162.948-.767.11.49-.384.296l-1.393-.527c-.431-.153-.888-.245-1.371-.274l-1.437-.038-.872-.022c-.117-.015-.23-.044-.34-.088s-.212-.093-.307-.159-.181-.143-.258-.23-.146-.183-.197-.286a1.53 1.53 0 0 1-.126-.329c-.03-.113-.044-.226-.044-.34a1.81 1.81 0 0 1 .044-.34 1.55 1.55 0 0 1 .126-.329c.051-.102.117-.197.197-.285a1.37 1.37 0 0 1 .258-.23c.095-.066.198-.119.307-.159a1.34 1.34 0 0 1 .34-.088l.17-.017z"/><path d="M70.445 139.107l.614-.406c.409-.274.92-.536 1.53-.784a9.51 9.51 0 0 1 1.865-.549 6.75 6.75 0 0 1 1.799-.104c.567.048 1.157.172 1.772.373s1.095.512 1.431.932.579 1.156.74 2.205.373 2.055.636 3.006.512 1.696.746 2.248l.899 2.046.834 1.892a12.73 12.73 0 0 0 .658 1.36c.26.457.474.905.642 1.344l.499 1.256c.161.398.379.835.653 1.311s.441.373.499-.307l.236-1.832.241-1.722.208-1.832.23-1.646.307-1.601c.128-.585.554-1.086 1.278-1.503s1.446-.55 2.155-.411 1.241.442 1.596.91l.976 1.421c.296.482.59 1.115.883 1.897l.872 2.046.823 1.574c.256.468.545.901.867 1.3a13.84 13.84 0 0 0 .998 1.113c.347.348.768.066 1.261-.844l1.108-1.991.653-1.174c.19-.369.535-.83 1.036-1.382s1.044-.846 1.64-.883 1.157.143 1.684.527 1.064 1.076 1.623 2.067l1.421 2.457c.387.644.963.684 1.727.121a16.67 16.67 0 0 0 2.161-1.903c.677-.706 1.229-1.347 1.657-1.925l1.338-1.744 1.097-1.498.773-1.239c.252-.413.748-.667 1.486-.762s1.37.097 1.892.586.968 1.096 1.322 1.816l.927 1.793c.26.479.539.891.839 1.234s.174.596-.367.746-.629-.104-.263-.762l.702-1.174c.102-.124.223-.227.362-.307s.281-.144.438-.181.317-.04.477-.022.313.057.456.126a1.44 1.44 0 0 1 .395.264c.117.109.213.235.29.378a1.43 1.43 0 0 1 .154.45c.025.157.025.316 0 .477a1.44 1.44 0 0 1-.154.45c-.073.142-.168.268-.285.378a1.55 1.55 0 0 1-.395.269c-.142.066-.294.108-.455.126s-.32.011-.477-.022a1.53 1.53 0 0 1-.439-.176 1.45 1.45 0 0 1-.362-.307c-.106-.124-.188-.259-.247-.406a1.36 1.36 0 0 1-.104-.466c-.011-.161.005-.318.049-.471a1.5 1.5 0 0 1 .198-.434 1.56 1.56 0 0 1 .329-.345 1.43 1.43 0 0 1 .417-.225 1.48 1.48 0 0 1 .471-.077 1.49 1.49 0 0 1 .472.077c.15.051.289.124.417.219s.238.214.329.346a1.53 1.53 0 0 1 .203.433 1.56 1.56 0 0 1 .049.472c-.007.161-.04.316-.099.466l-.093.225-.757 1.064c-.504.709-1.226.95-2.166.724s-1.537-.567-1.793-1.009l-.752-1.382c-.241-.476-.662-1.054-1.261-1.734s-1.061-.819-1.382-.427l-1.119 1.453-1.289 1.87c-.435.677-.96 1.397-1.574 2.161l-2.051 2.474c-.75.881-1.401 1.389-1.953 1.524s-1.058.094-1.508-.115-.801-.473-1.053-.795l-1.13-1.415-1.618-2.145c-.577-.808-.978-1.016-1.201-.625l-.691 1.168c-.234.384-.492.867-.773 1.448s-.647 1.214-1.086 1.898-1.035 1.066-1.777 1.146-1.364 0-1.865-.252a3.66 3.66 0 0 1-1.278-1.07l-1.146-1.469c-.413-.523-.739-1.015-.976-1.476l-.932-1.629-1.037-1.804c-.307-.578-.709-1.117-1.207-1.618s-.79-.536-.877-.104a14.4 14.4 0 0 0-.214 1.492l-.11 1.864-.148 2.178c-.08.768-.216 1.438-.406 2.013s-.42 1.128-.702 1.65-.603.861-.965 1.004-.848.154-1.459.033-1.159-.475-1.656-1.064-.835-1.071-1.026-1.437-.402-.921-.625-1.667-.486-1.399-.801-1.958-.55-1.073-.718-1.541l-.477-1.372-.422-1.217-.576-1.464-.954-2.468c-.384-1.039-.673-2.021-.867-2.946s-.552-1.442-1.086-1.563-1.035-.144-1.492-.082-.923.19-1.398.373-.925.398-1.349.647l-.768.433a1.06 1.06 0 0 1-.269.088c-.095.018-.188.026-.28.022-.099-.004-.194-.02-.285-.049a1.18 1.18 0 0 1-.263-.11 1.4 1.4 0 0 1-.23-.175c-.066-.066-.124-.141-.175-.225s-.093-.167-.126-.258-.047-.185-.055-.28-.002-.184.016-.28.04-.188.077-.279a1.3 1.3 0 0 1 .148-.247c.058-.077.124-.144.197-.203l.115-.093z"/><path d="M73.107 146.395l.877.329c.589.216 1.194.627 1.815 1.234s1.128 1.302 1.53 2.084.739 1.611.998 2.485l.768 2.457.669 1.941a3.47 3.47 0 0 0 .96 1.399l1.201 1.168 1.08 1.053 1.179 1.015a3 3 0 0 0 1.453.658c.552.095 1.077.044 1.574-.154s.845-.473 1.042-.839l.795-1.459.757-1.519.68-1.497c.285-.6.771-.969 1.459-1.108s1.263-.051 1.728.252.934.753 1.409 1.36 1.113 1.057 1.903 1.361 1.486.398 2.09.285 1.173-.373 1.711-.79a6.37 6.37 0 0 1 1.689-.954c.589-.223 1.168-.293 1.739-.209a10.11 10.11 0 0 1 1.568.351 3.78 3.78 0 0 0 1.443.17l1.415-.159c.453-.073.983-.248 1.59-.526l2.013-.878 1.733-.647 1.327-.466a9.98 9.98 0 0 1 1.459-.461c.508-.124 1.13-.228 1.865-.312s1.329-.234 1.782-.461a5.67 5.67 0 0 1 1.366-.488l1.503-.379 1.064-.257c.175-.019.347-.008.515.032a1.57 1.57 0 0 1 .477.198 1.51 1.51 0 0 1 .39.34c.113.132.201.28.263.444a1.57 1.57 0 0 1 .104.505c.008.175-.013.345-.06.51a1.66 1.66 0 0 1-.225.466c-.099.143-.217.267-.356.373a1.75 1.75 0 0 1-.461.236 1.72 1.72 0 0 1-.51.077 1.71 1.71 0 0 1-.505-.088 1.69 1.69 0 0 1-.455-.247 1.65 1.65 0 0 1-.351-.378c-.095-.147-.165-.304-.208-.472a1.57 1.57 0 0 1-.05-.516c.011-.171.05-.338.115-.499a1.59 1.59 0 0 1 .269-.438c.117-.132.251-.242.401-.33s.308-.153.477-.186a1.62 1.62 0 0 1 .515-.022 1.46 1.46 0 0 1 .499.143c.158.073.298.171.423.296a1.63 1.63 0 0 1 .307.411c.08.157.133.322.159.494a1.62 1.62 0 0 1-.006.515 1.49 1.49 0 0 1-.17.483c-.084.153-.19.291-.318.411a1.49 1.49 0 0 1-.433.28l-.236.11-.905.225-1.667.378-2.106.472-2.227.427a6.54 6.54 0 0 0-1.717.483 13.1 13.1 0 0 1-1.563.587l-1.541.499-1.398.543c-.399.172-.843.329-1.333.472a10.6 10.6 0 0 1-1.525.318l-2.018.181a6.52 6.52 0 0 1-2.391-.291c-.772-.249-1.393-.261-1.865-.038l-1.437.702c-.49.248-1.175.473-2.057.674s-1.808.229-2.792.072-1.664-.412-2.04-.752-.896-.885-1.547-1.634-.737-1.132-.247-1.146.644.155.45.51l-.581 1.201c-.201.438-.517.998-.949 1.678l-1.366 2.007c-.472.662-1.016 1.134-1.634 1.415s-1.17.426-1.667.434a6.38 6.38 0 0 1-1.508-.154c-.512-.113-.98-.287-1.404-.521s-.863-.541-1.305-.921l-1.3-1.169a12.21 12.21 0 0 1-1.053-1.135l-.834-1.009a6.52 6.52 0 0 1-.773-1.13 6.36 6.36 0 0 1-.565-1.453 20.18 20.18 0 0 0-.636-1.953l-.828-2.276c-.26-.749-.559-1.42-.899-2.013-.344-.588-.711-1.086-1.102-1.491a3.6 3.6 0 0 0-1.426-.905l-.96-.368a.97.97 0 0 1-.23-.153.92.92 0 0 1-.186-.203 1.34 1.34 0 0 1-.137-.242 1.14 1.14 0 0 1-.066-.268 1 1 0 0 1-.005-.275c.011-.091.031-.181.06-.268a1.21 1.21 0 0 1 .126-.247 1.7 1.7 0 0 1 .181-.214 1.15 1.15 0 0 1 .23-.159 1.09 1.09 0 0 1 .258-.099c.092-.022.179-.038.274-.038a.96.96 0 0 1 .269.027l.137.033zm-34.442-10.156l.219-1.722.713-4.272 1.048-4.832.982-4.289.96-3.642 1.015-3.219 1.02-3.593 1.097-3.916 1.141-3.548 1.146-3.488 1.152-3.598 1.02-3.126.823-2.83.746-3.038a30.03 30.03 0 0 1 .856-3.049l.828-2.693.587-2.254a13.55 13.55 0 0 1 .614-1.909l.713-1.881.856-2.15.91-2.188c.267-.676.463-1.285.587-1.826a8.52 8.52 0 0 1 .477-1.475l.751-1.618c.307-.633.589-1.112.845-1.437s.603-.665 1.031-1.02.887-.579 1.366-.674 1.069-.135 1.771-.121 1.331.068 1.876.148a10.4 10.4 0 0 1 1.673.406c.567.183 1.296.497 2.188.943l2.803 1.366 2.808 1.344 2.644 1.272 2.309 1.075 1.953.998 2.139 1.091 2.265 1.146 2.271 1.322 2.654 1.486 2.413 1.113c.629.241 1.199.397 1.711.466a7.27 7.27 0 0 0 1.623.033l1.623-.148 2.282-.121 1.76-.006a1.5 1.5 0 0 1 .456.154 1.49 1.49 0 0 1 .378.291c.11.117.203.249.269.395a1.51 1.51 0 0 1 .131.466c.019.161.01.32-.027.477a1.41 1.41 0 0 1-.175.45 1.44 1.44 0 0 1-.313.362 1.53 1.53 0 0 1-.411.252c-.15.058-.308.091-.472.099a1.5 1.5 0 0 1-.477-.049 1.47 1.47 0 0 1-.434-.203c-.136-.091-.252-.201-.351-.329a1.39 1.39 0 0 1-.224-.428 1.46 1.46 0 0 1-.077-.472 1.46 1.46 0 0 1 .077-.472 1.68 1.68 0 0 1 .224-.428c.099-.128.216-.238.351-.329a1.52 1.52 0 0 1 .434-.203c.154-.044.318-.06.482-.049s.317.042.467.104a1.51 1.51 0 0 1 .411.247 1.53 1.53 0 0 1 .313.367c.084.139.142.287.175.444a1.47 1.47 0 0 1 .027.477c-.019.161-.062.32-.131.466s-.156.278-.269.395a1.45 1.45 0 0 1-.384.291 1.4 1.4 0 0 1-.455.153l-.236.038-1.179-.022-1.859-.071-1.431-.143-1.492-.225a7.46 7.46 0 0 1-1.602-.499l-1.848-.79-2.512-1.196-2.693-1.453-2.21-1.218-2.331-1.091c-.867-.369-1.583-.724-2.15-1.064a16.02 16.02 0 0 0-1.876-.943l-2.347-.993-2.693-1.119-2.89-1.141-2.808-1.059-2.512-.828c-.815-.234-1.72-.296-2.715-.187s-1.689.357-2.084.751-.794.899-1.207 1.514-.713 1.208-.91 1.782l-.697 1.887-.867 2.172-.839 2.194c-.252.702-.512 1.302-.779 1.799s-.501 1.075-.702 1.733l-.647 2.282-.823 2.665a27.33 27.33 0 0 0-.839 3l-.762 3.099-.834 2.874-1.015 3.121-1.152 3.609-1.141 3.483-1.113 3.493-1.091 3.927-1.02 3.631-.982 3.165c-.333 1.034-.638 2.23-.916 3.586l-.949 4.284-.987 4.744-.642 4.223-.209 1.821a.77.77 0 0 1-.071.192.91.91 0 0 1-.115.17.79.79 0 0 1-.154.137c-.055.036-.115.068-.181.093a.72.72 0 0 1-.197.05.73.73 0 0 1-.197.005 1.26 1.26 0 0 1-.203-.049 1.21 1.21 0 0 1-.181-.094 1.09 1.09 0 0 1-.154-.137.67.67 0 0 1-.115-.17c-.029-.062-.059-.122-.077-.192a1.21 1.21 0 0 1-.027-.203v-.093z"/><path d="M101.837 78.228l.022-1.393c.011-.929.112-1.9.302-2.912s.323-2.113.4-3.291l.17-3.313.077-2.748.038-2.419.022-2.556.006-2.611c.004-.859-.057-1.788-.181-2.786l-.335-2.353c-.095-.574-.247-1.159-.455-1.755s-.508-1.148-.899-1.667l-1.119-1.431c-.355-.431-.826-.792-1.415-1.08l-1.448-.768c-.373-.219-.821-.293-1.344-.219l-2.024.357-2.638.576-2.715.719a10.94 10.94 0 0 0-2.325.954 20.29 20.29 0 0 0-1.892 1.201l-1.037.702a1.08 1.08 0 0 1-.324.082.94.94 0 0 1-.335-.027.95.95 0 0 1-.307-.132c-.095-.059-.177-.132-.247-.219s-.13-.185-.17-.291-.057-.216-.06-.329a1.1 1.1 0 0 1 .038-.329 1.01 1.01 0 0 1 .148-.302 1.03 1.03 0 0 1 .236-.236 1.12 1.12 0 0 1 .302-.154c.11-.037.216-.047.329-.044a.92.92 0 0 1 .329.06c.106.036.203.091.291.164a1.1 1.1 0 0 1 .225.247c.062.095.108.197.137.307a.99.99 0 0 1 .027.329c-.008.11-.038.223-.082.329a1.06 1.06 0 0 1-.175.28c-.077.084-.163.155-.258.214a1.07 1.07 0 0 1-.318.115c-.11.022-.221.026-.335.011a.96.96 0 0 1-.318-.099.95.95 0 0 1-.274-.192.98.98 0 0 1-.192-.269 1.12 1.12 0 0 1-.104-.318c-.015-.113-.011-.225.011-.335a1.09 1.09 0 0 1 .11-.318.95.95 0 0 1 .208-.258l.126-.115.965-.559 2.133-1.289a13.66 13.66 0 0 1 2.49-1.229l2.704-.982 2.616-.921c.826-.289 1.748-.45 2.764-.483s1.782.119 2.298.455l1.382.856a9.64 9.64 0 0 1 1.201.834 8.36 8.36 0 0 1 1.179 1.185c.384.465.709.903.976 1.316a6.3 6.3 0 0 1 .642 1.272c.161.435.278 1.004.351 1.706l.137 1.903c.022.563.1 1.375.236 2.435.131 1.06.199 2.022.203 2.885l-.006 2.611-.005 2.567-.017 2.441-.06 2.781-.148 3.433-.351 3.241c-.165.921-.241 1.846-.231 2.775l.006 1.486a.84.84 0 0 1-.044.197.85.85 0 0 1-.099.186 1.09 1.09 0 0 1-.137.154 1.03 1.03 0 0 1-.164.115.68.68 0 0 1-.192.071.8.8 0 0 1-.203.027.79.79 0 0 1-.203-.027.77.77 0 0 1-.192-.071c-.062-.033-.113-.071-.165-.115s-.096-.099-.137-.154a.89.89 0 0 1-.098-.186.84.84 0 0 1-.044-.197l-.017-.099zm2.399-.203l.998-.784 2.463-1.728 2.748-1.678c.859-.486 1.819-.929 2.879-1.327l3.104-1.163 3.115-1.02 3.061-.9c.969-.3 2.139-.583 3.51-.85l4.058-.636 3.088-.466 2.21-.439c.757-.139 1.404-.146 1.942-.022s.987.269 1.349.422.837.581 1.426 1.283l2.04 2.38 2.095 2.435 1.772 2.287 2.024 3.066 2.243 3.636 1.947 3.494 1.755 3.346 1.673 3.494 1.716 4.102 1.596 4.481 1.212 3.982.85 3.296.631 3.22.466 2.972.329 2.732.34 2.605.406 2.336.384 2.271.357 2.292.405 1.87c.143.487.194 1.287.154 2.403l-.154 1.815a1.08 1.08 0 0 1-.235.247c-.092.069-.192.122-.302.159s-.218.053-.335.049a1.04 1.04 0 0 1-.334-.055c-.106-.036-.205-.089-.296-.159a1.06 1.06 0 0 1-.236-.246c-.062-.096-.108-.198-.137-.308s-.046-.226-.039-.34.033-.223.077-.329a.93.93 0 0 1 .176-.29c.073-.088.159-.161.257-.22a1.12 1.12 0 0 1 .319-.126 1.13 1.13 0 0 1 .334-.016c.117.014.227.045.329.093a1 1 0 0 1 .28.192.91.91 0 0 1 .203.269 1.04 1.04 0 0 1 .11.323c.018.114.018.227 0 .34a1.16 1.16 0 0 1-.11.318 1.1 1.1 0 0 1-.209.275 1.13 1.13 0 0 1-.279.186c-.106.048-.216.077-.329.088s-.227.009-.34-.017a1.07 1.07 0 0 1-.571-.351 1.11 1.11 0 0 1-.175-.29c-.041-.106-.064-.216-.072-.329s.006-.231.039-.341l.044-.164.181-1.053c.12-.702.151-1.313.093-1.832l-.296-1.93-.357-2.287-.367-2.26-.406-2.397-.346-2.616-.323-2.687-.461-2.913-.62-3.137-.839-3.236-1.195-3.905-1.58-4.404-1.695-4.02-1.672-3.439-1.761-3.296-1.952-3.406-2.255-3.549-2.012-2.912a26.52 26.52 0 0 0-1.788-2.133l-2.227-2.342-2.188-2.227c-.64-.629-1.141-1.018-1.503-1.168s-.847-.251-1.464-.291-1.308.017-2.068.17-1.794.307-3.099.461l-3.927.614-3.45.845-3.005.894-3.055 1.02-2.983 1.135a17.69 17.69 0 0 0-2.715 1.278l-2.616 1.651-2.364 1.733-1.07.856a.85.85 0 0 1-.186.088.77.77 0 0 1-.203.038.61.61 0 0 1-.198-.011c-.065-.011-.131-.029-.197-.055s-.121-.064-.175-.104-.105-.093-.149-.148a.81.81 0 0 1-.104-.17 1.09 1.09 0 0 1-.066-.197.94.94 0 0 1-.011-.198.98.98 0 0 1 .033-.203.72.72 0 0 1 .083-.186.78.78 0 0 1 .126-.165l.071-.071z"/><path d="M164.305 133.335l-.066 1.387-.082 2.452.027 2.062.017 1.196c-.019.121-.057.234-.116.34a1.19 1.19 0 0 1-.219.285 1.09 1.09 0 0 1-.296.203 1.16 1.16 0 0 1-.351.099c-.117.011-.234.003-.351-.022a1.1 1.1 0 0 1-.335-.132 1 1 0 0 1-.274-.236c-.08-.091-.143-.193-.186-.307a.95.95 0 0 1-.077-.351c-.007-.124.005-.245.038-.362s.082-.225.148-.323.154-.19.253-.264a1.13 1.13 0 0 1 .318-.17c.113-.04.23-.06.351-.06a1.16 1.16 0 0 1 .351.06 1.2 1.2 0 0 1 .323.17 1.13 1.13 0 0 1 .247.264c.066.098.115.206.148.323a1.12 1.12 0 0 1 .039.362c-.004.121-.03.238-.077.351a1.07 1.07 0 0 1-.187.307c-.081.091-.168.174-.274.236a1.08 1.08 0 0 1-.334.132c-.117.025-.236.033-.357.022a1.14 1.14 0 0 1-.345-.099c-.11-.051-.209-.119-.297-.203a1.19 1.19 0 0 1-.219-.285c-.059-.11-.097-.223-.115-.34l-.028-.181.044-1.015.028-2.062-.083-2.452-.049-1.53c.015-.095.038-.188.071-.279a1.2 1.2 0 0 1 .132-.253 1.12 1.12 0 0 1 .192-.214c.073-.065.152-.12.236-.164a1.09 1.09 0 0 1 .268-.104c.096-.022.191-.033.286-.033a1.26 1.26 0 0 1 .285.033 1.1 1.1 0 0 1 .269.104 1.17 1.17 0 0 1 .235.164c.074.063.138.134.192.214a1.2 1.2 0 0 1 .132.253 1.43 1.43 0 0 1 .071.279l.017.143zm-73.874-5.249l-.082 1.267a5.31 5.31 0 0 0 .395 2.397c.314.749.636 1.336.965 1.76s.956.793 1.87 1.108l2.687.877a18.78 18.78 0 0 1 2.578 1.01l2.446 1.321c.79.476 1.523.971 2.199 1.487s1.253 1.062 1.728 1.64l1.234 1.382c.347.34.534.192.56-.445a5.32 5.32 0 0 1 .422-1.875l.625-1.64c.154-.479.218-.955.192-1.426a4.31 4.31 0 0 0-.307-1.377c-.179-.446-.397-.89-.653-1.333s-.61-.903-1.064-1.382l-1.289-1.25a19.81 19.81 0 0 0-1.557-1.201l-1.152-.812a1.4 1.4 0 0 1-.34-.334c-.095-.128-.166-.269-.214-.423a1.6 1.6 0 0 1-.071-.471 1.37 1.37 0 0 1 .088-.461c.054-.154.131-.293.23-.417a1.5 1.5 0 0 1 .356-.324 1.41 1.41 0 0 1 .434-.191c.157-.037.314-.05.471-.039a1.48 1.48 0 0 1 .467.11c.146.062.279.146.4.252a1.42 1.42 0 0 1 .302.373 1.39 1.39 0 0 1 .164.439 1.38 1.38 0 0 1 .017.471 1.48 1.48 0 0 1-.132.461 1.49 1.49 0 0 1-.28.384 1.26 1.26 0 0 1-.384.28 1.52 1.52 0 0 1-.449.148 1.5 1.5 0 0 1-.478-.011c-.157-.029-.307-.084-.449-.165s-.264-.173-.373-.29-.192-.254-.258-.401a1.43 1.43 0 0 1-.121-.46c-.011-.161.002-.318.039-.472a1.42 1.42 0 0 1 .186-.439c.084-.135.188-.254.313-.356a1.49 1.49 0 0 1 .411-.236 1.54 1.54 0 0 1 .466-.093c.161-.004.318.016.472.06l.23.071 1.234.883c.823.585 1.454 1.11 1.892 1.574l1.059 1.147c.267.307.534.656.801 1.047l.883 1.432c.321.559.605 1.171.85 1.837s.32 1.409.214 2.232-.256 1.481-.45 1.964l-.658 1.787c-.249.717-.658 1.494-1.229 2.331s-1.175 1.22-1.826 1.147-1.132-.359-1.442-.856l-.982-1.492c-.351-.497-.845-.978-1.481-1.442a21.96 21.96 0 0 0-2.079-1.338c-.749-.432-1.508-.816-2.276-1.152a16.52 16.52 0 0 0-2.495-.856l-2.506-.685c-.775-.231-1.382-.521-1.821-.872s-.839-.812-1.201-1.382-.731-1.333-1.108-2.298c-.384-.966-.569-1.883-.554-2.754l.033-1.404a.89.89 0 0 1 .06-.219.81.81 0 0 1 .115-.192.84.84 0 0 1 .154-.165 1.09 1.09 0 0 1 .186-.12.83.83 0 0 1 .214-.071.9.9 0 0 1 .219-.017 1.1 1.1 0 0 1 .219.033c.073.022.143.051.208.088a1.12 1.12 0 0 1 .181.137.87.87 0 0 1 .143.175.82.82 0 0 1 .093.198.95.95 0 0 1 .049.225l.005.104z"/><path d="M97.318 129.417l1.415.648c.943.424 1.897.941 2.863 1.552a16.97 16.97 0 0 1 2.588 1.991l1.849 1.881 1.272 1.563.636.905a.9.9 0 0 1 .077.312.95.95 0 0 1-.022.324.86.86 0 0 1-.121.296 1 1 0 0 1-.213.241c-.085.07-.176.125-.275.165a.96.96 0 0 1-.318.066 1.03 1.03 0 0 1-.318-.039c-.106-.033-.203-.08-.291-.142s-.168-.137-.23-.225a.97.97 0 0 1-.148-.285c-.033-.106-.049-.212-.049-.318s.022-.216.054-.318a1 1 0 0 1 .16-.286c.065-.084.144-.157.235-.219a.95.95 0 0 1 .297-.126c.102-.029.208-.04.318-.033a.99.99 0 0 1 .312.071c.103.044.194.101.274.17a.97.97 0 0 1 .209.252 1.02 1.02 0 0 1 .115.302.92.92 0 0 1 .011.318 1.06 1.06 0 0 1-.093.313c-.044.099-.104.186-.181.263s-.165.141-.263.192a1.07 1.07 0 0 1-.302.099c-.11.014-.218.013-.324-.006a.97.97 0 0 1-.307-.109.99.99 0 0 1-.252-.198l-.11-.12-.411-.724c-.274-.483-.616-.973-1.026-1.47s-.96-1.048-1.651-1.662-1.482-1.185-2.385-1.7a18.92 18.92 0 0 0-2.803-1.317l-1.569-.614a1.13 1.13 0 0 1-.214-.159 1.05 1.05 0 0 1-.175-.208.93.93 0 0 1-.121-.242c-.029-.084-.048-.171-.055-.263a1.06 1.06 0 0 1 .011-.263.93.93 0 0 1 .071-.263 1 1 0 0 1 .132-.236 1.04 1.04 0 0 1 .187-.192 1.08 1.08 0 0 1 .225-.148 1.02 1.02 0 0 1 .258-.088c.088-.018.175-.027.263-.027s.175.018.263.043l.132.033zm-14.59-79.109l.417-1.278.965-2.682 1.037-2.386.899-1.947a9.47 9.47 0 0 1 1.031-1.777 4.18 4.18 0 0 1 1.464-1.245l1.519-.718 1.431-.526c.519-.165 1.029-.293 1.53-.384s1.068-.155 1.689-.181l2.238-.104 2.007-.077a7.83 7.83 0 0 1 1.382.088l2.298.356 1.849.334a1.38 1.38 0 0 1 .411.236 1.5 1.5 0 0 1 .307.356 1.51 1.51 0 0 1 .181.439 1.47 1.47 0 0 1 .033.472 1.48 1.48 0 0 1-.126.461 1.33 1.33 0 0 1-.258.395 1.52 1.52 0 0 1-.373.291 1.42 1.42 0 0 1-.45.153 1.38 1.38 0 0 1-.471.006 1.41 1.41 0 0 1-.45-.143 1.53 1.53 0 0 1-.378-.285 1.39 1.39 0 0 1-.275-.389 1.62 1.62 0 0 1-.131-.455 1.47 1.47 0 0 1 .022-.472 1.41 1.41 0 0 1 .17-.439 1.46 1.46 0 0 1 .301-.367 1.53 1.53 0 0 1 .406-.247c.147-.062.3-.099.461-.11a1.6 1.6 0 0 1 .472.049c.153.04.296.104.427.192a1.39 1.39 0 0 1 .351.324c.098.128.174.263.225.417a1.56 1.56 0 0 1 .083.466 1.55 1.55 0 0 1-.072.466c-.048.153-.124.291-.219.422s-.209.238-.34.329-.274.155-.428.203-.309.062-.466.055l-.241-.011-1.086-.247-2.002-.466c-.611-.139-1.145-.212-1.602-.219l-1.947-.027a38.86 38.86 0 0 0-2.084.027l-1.409.082c-.391.033-.826.111-1.305.236l-1.898.499c-.79.205-1.34.477-1.651.817s-.612.845-.894 1.514l-.85 1.903c-.285.6-.578 1.349-.877 2.249l-.74 2.66-.346 1.442c-.037.088-.082.17-.137.247s-.124.146-.198.208a1.27 1.27 0 0 1-.236.159c-.088.04-.177.071-.269.093s-.188.031-.28.027a1.21 1.21 0 0 1-.28-.044 1.36 1.36 0 0 1-.263-.104 1.13 1.13 0 0 1-.23-.17 1.34 1.34 0 0 1-.186-.219 1.16 1.16 0 0 1-.126-.252c-.029-.091-.049-.185-.06-.28a1.25 1.25 0 0 1 .005-.28l.022-.143z"/><path d="M65.22 70.537l-.806 1.146c-.538.764-.985 1.505-1.344 2.221l-1.168 2.512-1.36 2.978-1.355 3.121-1.218 3.066-1.218 3.236-1.064 2.885-1.223 3.143-1.667 4.02-1.42 3.318-1.212 2.792-1.294 2.951-1.119 2.726-1.19 2.813c-.464 1.028-.909 2.177-1.333 3.45l-1.382 4.245-.987 3.515-.554 2.792a27.87 27.87 0 0 0-.422 3.187c-.077 1.049-.53 1.168-1.36.356s-1.462-1.594-1.898-2.347-.526-1.62-.263-2.6a15.84 15.84 0 0 1 1.015-2.759l1.256-2.396c.424-.735.83-1.54 1.218-2.414l1.152-2.599 1.388-3.154 1.508-3.302 1.267-2.55 1.481-2.775 1.799-3.378a30.74 30.74 0 0 0 1.503-3.456l1.218-3.274 1.069-2.622 1.064-2.265c.388-.793.848-1.876 1.382-3.247a35.62 35.62 0 0 0 1.305-3.998l.877-3.181.839-2.896.889-2.825.921-2.309c.336-.764.894-1.708 1.673-2.83s1.622-1.801 2.517-2.024a10.89 10.89 0 0 1 2.654-.324c.874.007 2.038.194 3.494.559l3.625.927 2.605.74 2.512.779 2.6.729 2.517.735 2.452.834 2.912 1.047 3.197 1.316 2.704 1.344a25.11 25.11 0 0 1 2.358 1.393c.738.494 1.614 1.258 2.627 2.303s1.514 2.121 1.514 3.225-.236 2-.708 2.676-1.168 1.327-2.089 1.953-1.775 1.049-2.561 1.261-1.863.36-3.241.444-2.581.088-3.62.011-2.073-.388-3.104-.932a23.3 23.3 0 0 0-2.819-1.278l-3.658-1.185-3.543-1.108c-.779-.256-1.649-.453-2.611-.592s-2.117-.23-3.466-.274l-3.411-.077c-.921-.004-2.093.115-3.516.356l-2.446.477a3.5 3.5 0 0 1-.729.143c-.27.026-.549.011-.823-.033s-.532-.113-.784-.219a3.43 3.43 0 0 1-.713-.406 3.46 3.46 0 0 1-.592-.565 3.31 3.31 0 0 1-.439-.686 3.25 3.25 0 0 1-.263-.779 3.18 3.18 0 0 1-.071-.812 3.62 3.62 0 0 1 .126-.812c.073-.267.183-.514.318-.751a3.42 3.42 0 0 1 .488-.658c.19-.201.397-.371.631-.521a3.59 3.59 0 0 1 .735-.356c.26-.088.042.07-.653.472s-.612.068.258-1.004 1.775-1.962 2.715-2.682c.947-.72 1.901-1.258 2.863-1.612s2.073-.612 3.346-.784 2.486-.218 3.642-.148a18.54 18.54 0 0 1 3.313.494l3.028.751c.965.238 2.079.591 3.34 1.058l3.389 1.333 3.488 1.382 2.452.976.784.406a3.29 3.29 0 0 1 .609.444 3.05 3.05 0 0 1 .488.576 2.98 2.98 0 0 1 .334.675 3.18 3.18 0 0 1 .165.735c.026.252.02.499-.016.751s-.102.492-.197.729a3.14 3.14 0 0 1-.362.658c-.146.205-.322.388-.516.548a3.21 3.21 0 0 1-.625.417c-.227.113-.464.197-.713.252s-.495.079-.751.071a3.22 3.22 0 0 1-.746-.104c-.245-.066.095-.157 1.009-.274s.956-.024.115.28-1.799.448-2.885.444l-3.9-.186-4.547-.285c-1.514-.07-2.797-.06-3.85.027l-2.885.236-3.373.356-4.305.559-2.715.258a3 3 0 0 1-.899-.252 2.92 2.92 0 0 1-.779-.532 2.94 2.94 0 0 1-.57-.751 2.9 2.9 0 0 1-.302-.888c-.052-.31-.051-.629 0-.943a2.87 2.87 0 0 1 .302-.894 2.93 2.93 0 0 1 .57-.751 2.8 2.8 0 0 1 .779-.526 2.81 2.81 0 0 1 .905-.252 3.02 3.02 0 0 1 .938.049 2.94 2.94 0 0 1 .878.351 3.01 3.01 0 0 1 .718.609 2.97 2.97 0 0 1 .483.806 2.94 2.94 0 0 1 .203.921 2.83 2.83 0 0 1-.104.938 2.85 2.85 0 0 1-.395.856 2.97 2.97 0 0 1-.647.686c-.252.194-.53.336-.834.439a2.85 2.85 0 0 1-.927.154 2.88 2.88 0 0 1-.927-.154 2.95 2.95 0 0 1-.834-.444 2.86 2.86 0 0 1-.647-.68c-.175-.267-.307-.552-.395-.856s-.117-.62-.099-.938a2.94 2.94 0 0 1 .203-.921c.117-.296.278-.565.483-.806a3.01 3.01 0 0 1 .718-.609 2.94 2.94 0 0 1 .877-.351l.461-.099 1.261-.049 3.175-.165 3.099-.126 2.419-.011 2.934-.093 4.02-.313 4.558-.406c1.495-.128 2.631-.088 3.406.121s1.686.183 2.731-.077 1.68-.329 1.903-.208a3.29 3.29 0 0 1 .609.444 3.15 3.15 0 0 1 .488.57 3.14 3.14 0 0 1 .334.675 3.23 3.23 0 0 1 .165.74 3.05 3.05 0 0 1-.016.751 3.13 3.13 0 0 1-.197.724 3.16 3.16 0 0 1-.362.664c-.146.205-.322.388-.516.548s-.398.303-.625.417a3.04 3.04 0 0 1-.713.252c-.249.055-.495.079-.751.071a3.22 3.22 0 0 1-.746-.104c-.245-.066-.506-.196-.795-.389s-1.088-.574-2.408-1.152l-3.241-1.382c-.841-.347-1.817-.665-2.929-.954l-3.23-.735-3.587-.631c-1.353-.227-2.424-.269-3.214-.126a15.06 15.06 0 0 0-2.38.625c-.793.274-1.55.746-2.271 1.415l-2.435 2.249c-.9.83-1.485 1.258-1.755 1.283a3.4 3.4 0 0 1-.817-.033 3.25 3.25 0 0 1-.79-.219 3.43 3.43 0 0 1-.713-.406 3.46 3.46 0 0 1-.592-.565 3.31 3.31 0 0 1-.439-.686 3.25 3.25 0 0 1-.263-.779 3.18 3.18 0 0 1-.071-.812 3.62 3.62 0 0 1 .126-.812c.073-.267.183-.514.318-.751a3.42 3.42 0 0 1 .488-.658c.19-.201.397-.371.631-.521a3.59 3.59 0 0 1 .735-.356l.477-.154 1.42-.219 2.956-.521a24.97 24.97 0 0 1 3.17-.406l3.888-.055c1.572.026 3.059.159 4.459.4l3.28.697 2.369.653 3.565.96c1.58.428 2.839.941 3.779 1.541s1.914.901 2.912.916 1.929-.026 2.792-.11 1.391.283 1.585 1.092-.088.93-.845.367a14.57 14.57 0 0 0-2.221-1.382l-2.441-1.069-3-1.174-3.746-1.322-3.433-.971-2.857-.614-3.384-.828-3.455-.987c-1.071-.325-1.843-.826-2.314-1.503s-.92-.494-1.355.548l-1.251 3.34-1.152 3.647-.812 3.016-.598 2.369-.757 2.446-.856 2.38-.921 2.243-1.185 2.803-1.278 3.236-1.399 3.713c-.556 1.466-1.177 2.843-1.865 4.13l-1.717 3.324-1.508 2.967c-.548 1.045-1.086 2.236-1.612 3.57l-1.525 3.697c-.494 1.133-1.06 2.258-1.7 3.373l-1.667 2.83c-.464.768-.825 1.579-1.08 2.435l-.686 2.435c-.205.768-.717 1.81-1.536 3.126s-1.775 2.161-2.868 2.523-2.187.152-3.28-.631-1.678-1.711-1.766-2.786-.009-2.214.236-3.406l.762-3.274.697-2.923c.205-.962.559-2.234 1.064-3.817l1.585-4.52 1.399-3.603 1.058-2.792 1.037-2.841 1.086-2.989 1.026-2.885.943-2.517.927-2.199 1.152-2.77 1.081-2.841 1.124-3.132 1.426-3.581 1.415-3.192 1.497-3.071 1.541-2.742 1.706-2.731 1.76-2.594 1.048-1.399c.157-.172.333-.324.527-.455a2.98 2.98 0 0 1 .62-.313 2.91 2.91 0 0 1 .675-.159 2.92 2.92 0 0 1 .691.005 3 3 0 0 1 .675.175 3.19 3.19 0 0 1 .609.329c.19.131.366.293.516.472a2.8 2.8 0 0 1 .389.576c.106.209.186.426.241.653s.075.455.071.686a2.94 2.94 0 0 1-.093.691 3.05 3.05 0 0 1-.252.647l-.165.307zm57.563 6.063l1.695.675 2.928 1.102 2.468.828c.827.256 1.686.585 2.578.987l2.611 1.283c.848.457 1.676 1.038 2.484 1.744l2.21 1.958a13.64 13.64 0 0 1 1.777 1.947l1.794 2.26 2.133 2.792 2.106 2.912 2.046 2.879 2.265 3.68 2.293 4.163 2.018 3.937 1.678 3.478 1.624 3.422 1.398 3.038 1.136 2.929 1.074 3.104.796 2.786.652 3.203c.202 1.181-.049 2.821-.751 4.92s-1.238 3.216-1.607 3.34a3.59 3.59 0 0 1-1.135.181c-.388 0-.764-.062-1.13-.186a3.49 3.49 0 0 1-1.015-.543 3.53 3.53 0 0 1-.789-.834 3.57 3.57 0 0 1-.604-2.188 3.52 3.52 0 0 1 .247-1.125 3.53 3.53 0 0 1 .592-.981 3.57 3.57 0 0 1 .878-.746c.333-.201.689-.339 1.069-.423s.765-.104 1.152-.06a3.68 3.68 0 0 1 1.108.307c.351.165.667.38.949.647a3.64 3.64 0 0 1 .696.922c.18.343.3.705.362 1.086a3.53 3.53 0 0 1 0 1.151c-.065.384-.188.748-.367 1.092s-.417.643-.702.91a3.57 3.57 0 0 1-.949.647 3.69 3.69 0 0 1-1.113.308 3.57 3.57 0 0 1-1.147-.066 3.53 3.53 0 0 1-1.069-.428c-.329-.201-.62-.45-.872-.746s-.45-.625-.592-.987-.225-.737-.247-1.124.024-.768.126-1.141a3.57 3.57 0 0 1 .488-1.048 3.61 3.61 0 0 1 .79-.828l.466-.356-.598 1.349c-.398.899-.711.755-.938-.434l-.68-3.553-.691-3.039-.888-2.863-.998-2.918-1.043-2.692c-.391-.915-1.089-2.256-2.095-4.026l-2.424-4.404-1.524-2.797-1.695-2.841-2.002-3.192-1.98-2.869-1.98-2.786-2.046-2.737-1.941-2.479a22.21 22.21 0 0 0-1.87-2.09l-1.991-1.815c-.633-.519-1.316-1.002-2.051-1.448l-2.2-1.185-2.265-.998-2.912-1.042-2.035-.724a2.81 2.81 0 0 1-.57-.378c-.176-.15-.329-.318-.461-.505a2.84 2.84 0 0 1-.329-.603c-.084-.215-.146-.433-.175-.664s-.037-.453-.011-.68a2.71 2.71 0 0 1 .153-.669 2.73 2.73 0 0 1 .307-.609 2.67 2.67 0 0 1 .45-.521 2.92 2.92 0 0 1 .554-.4c.201-.109.417-.194.636-.252s.45-.09.68-.093a2.89 2.89 0 0 1 .68.071l.335.077z" fill-opacity=".1"/><path d="M61.68 91.777l1.722-.472 3.444-1.075 2.89-1.015 3.044-.976 3.417-.905 2.704-.532c.772-.124 1.717-.21 2.835-.258s2.324.095 3.614.417a18.04 18.04 0 0 1 3.636 1.322c1.133.56 2.278.848 3.433.867l3.757-.11c1.349-.095 2.461-.23 3.334-.406l3.159-.653 3.126-.664 2.858-.554 2.923-.455a32.95 32.95 0 0 1 3.099-.236c1.17-.044 2.464.097 3.883.422s2.544.687 3.378 1.086l2.435 1.146 1.98.828 1.245.422a3.71 3.71 0 0 1 .856.384c.271.165.512.353.735.576a3.73 3.73 0 0 1 .575.74 3.7 3.7 0 0 1 .384.856 3.75 3.75 0 0 1 .17.921c.019.315-.001.627-.06.938a3.73 3.73 0 0 1-.28.889 3.92 3.92 0 0 1-.482.801 3.9 3.9 0 0 1-.664.658c-.249.194-.517.356-.806.488s-.583.219-.894.274a3.61 3.61 0 0 1-.932.055c-.315-.018-1.143-.303-2.485-.855l-3.049-1.415-2.161-1.102-2.397-1.097-2.863-1.168-2.468-.872-1.437-.521c-.376-.168-.716-.391-1.02-.669a3.77 3.77 0 0 1-.751-.965 3.71 3.71 0 0 1-.406-1.146 3.72 3.72 0 0 1-.017-1.223 3.83 3.83 0 0 1 .373-1.163c.187-.366.428-.693.724-.982a3.75 3.75 0 0 1 1.004-.702 3.61 3.61 0 0 1 1.168-.34c.41-.051.817-.035 1.223.049a3.76 3.76 0 0 1 1.141.433c.358.208.669.468.943.779s.485.656.642 1.037a3.83 3.83 0 0 1 .28 1.19 3.64 3.64 0 0 1-.115 1.212 3.86 3.86 0 0 1-.5 1.119c-.226.344-.501.642-.822.894s-.684.452-1.075.587a3.85 3.85 0 0 1-1.201.219 3.85 3.85 0 0 1-1.207-.181c-.391-.128-.753-.314-1.086-.559s-.618-.536-.855-.872-.41-.707-.527-1.102-.166-.799-.148-1.212.097-.812.247-1.196.351-.74.614-1.059.569-.581.916-.801a3.64 3.64 0 0 1 1.13-.466 3.67 3.67 0 0 1 1.217-.082l.615.055 1.288.417 3.022 1.042a39.77 39.77 0 0 1 3.62 1.503l3.231 1.497 2.747 1.305 1.843.834a3.71 3.71 0 0 1 .856.384c.271.165.512.353.735.576a3.73 3.73 0 0 1 .575.74 3.7 3.7 0 0 1 .384.856 3.75 3.75 0 0 1 .17.921c.019.315-.001.627-.06.938a3.73 3.73 0 0 1-.28.889 3.92 3.92 0 0 1-.482.801 3.9 3.9 0 0 1-.664.658c-.249.194-.517.356-.806.488s-.583.219-.894.274a3.61 3.61 0 0 1-.932.055c-.315-.018-.713-.093-1.196-.225s-1.192-.409-2.139-.823l-2.687-1.333a23.3 23.3 0 0 0-2.447-1.19c-.793-.329-1.641-.483-2.544-.461l-2.677.181-2.588.351-2.512.45-3.165.675-3.834.773-3.488.455-3.06.34a15.86 15.86 0 0 1-2.825.176c-.893-.029-1.788-.303-2.687-.834l-2.534-1.481a9.19 9.19 0 0 0-2.512-.998 11.43 11.43 0 0 0-2.792-.291 23.42 23.42 0 0 0-3.082.263l-3.121.565-2.682.697-3.027.834-3.543 1.026-2.04.636c-.23.04-.459.053-.686.038a2.86 2.86 0 0 1-.675-.132c-.22-.07-.433-.165-.631-.285s-.377-.263-.538-.428a2.91 2.91 0 0 1-.422-.543 2.85 2.85 0 0 1-.28-.631 3.09 3.09 0 0 1-.121-.68 3.05 3.05 0 0 1 .044-.68 2.88 2.88 0 0 1 .208-.658c.099-.212.219-.408.362-.587s.305-.345.488-.488.38-.256.592-.351l.318-.143zm29.411-47.771l1.398.285c.929.19 1.83.485 2.704.883s1.612.916 2.227 1.563 1.124 1.506 1.519 2.589.697 2.095.916 3.049l.598 3.17c.183 1.159.27 2.263.263 3.313a21.4 21.4 0 0 1-.291 3.296l-.438 2.885c-.106.775-.505 1.616-1.196 2.523s-1.74 1.287-3.148 1.141-2.49-.675-3.236-1.596-1.245-2.124-1.486-3.609-.316-2.625-.214-3.422l.335-2.786.406-2.901.444-2.846c.15-1.02.464-2.084.943-3.192s1.128-1.876 1.936-2.303 1.618-.665 2.43-.713 1.874.303 3.187 1.064c1.309.753 2.183 1.75 2.621 2.989s.708 2.636.796 4.19l.055 3.784-.297 3.664-.246 3.483-.022 3.005.044 2.918c.014.793-.17 1.576-.554 2.347s-.882 1.419-1.481 1.941-1.591.735-2.962.636-2.435-.311-3.203-.636l-1.355-.548c-.139-.04-.349-.126-.631-.258a3.81 3.81 0 0 1-.79-.483 3.84 3.84 0 0 1-.647-.664 3.71 3.71 0 0 1-.472-.795c-.124-.285-.214-.579-.269-.883a3.75 3.75 0 0 1-.049-.927c.022-.311.081-.612.175-.905a3.89 3.89 0 0 1 .389-.845 3.77 3.77 0 0 1 .576-.724 3.93 3.93 0 0 1 .729-.565 3.91 3.91 0 0 1 .85-.373c.3-.091.6-.141.91-.159a3.69 3.69 0 0 1 .921.066c.303.059 1.011.373 2.111.943s1.94 1.199 2.506 1.887l1.892 2.15 1.322 1.464c.194.234.464.462.812.686a3.77 3.77 0 0 1 .91.812c.259.322.461.671.604 1.058a3.66 3.66 0 0 1 .235 1.201 3.64 3.64 0 0 1-.159 1.207 3.8 3.8 0 0 1-.537 1.097c-.241.336-.528.625-.861.866a3.85 3.85 0 0 1-1.092.549 3.89 3.89 0 0 1-1.212.17 3.75 3.75 0 0 1-1.201-.23 3.64 3.64 0 0 1-1.064-.598c-.322-.26-.594-.558-.817-.905s-.386-.72-.488-1.119a3.89 3.89 0 0 1-.104-1.218c.033-.409.13-.804.291-1.185a3.81 3.81 0 0 1 .658-1.031c.274-.307.591-.563.949-.768a3.79 3.79 0 0 1 1.141-.428 3.89 3.89 0 0 1 1.223-.038 3.68 3.68 0 0 1 1.168.356c.369.182.701.419.993.708a3.85 3.85 0 0 1 .719.993c.182.369.303.757.361 1.163a3.69 3.69 0 0 1-.027 1.223 3.76 3.76 0 0 1-.417 1.146 3.81 3.81 0 0 1-.762.954 3.75 3.75 0 0 1-1.031.664 3.68 3.68 0 0 1-1.185.296 3.8 3.8 0 0 1-1.217-.093l-.598-.148-2.183-1.909-3.51-3.192c-.888-.852-1.474-1.344-1.755-1.475a3.81 3.81 0 0 1-.79-.483 3.84 3.84 0 0 1-.647-.664 3.71 3.71 0 0 1-.472-.795 3.89 3.89 0 0 1-.269-.883 3.75 3.75 0 0 1-.049-.927c.022-.307.081-.609.175-.905s.225-.578.389-.845a3.77 3.77 0 0 1 .576-.724 3.93 3.93 0 0 1 .729-.565 3.74 3.74 0 0 1 .85-.368 3.9 3.9 0 0 1 .91-.165c.31-.019.618.007.921.066s.494.111.559.159l1.026.795c.615.482.578 1.059-.121 1.728s-1.035.6-1.02-.208l.06-2.397.148-2.786.263-3.455.137-3.11c-.011-.841.186-1.857.592-3.049s.837-2.21 1.305-3.044.687-.848.669-.033-.133 1.87-.335 3.176l-.516 3.74-.351 3.11c-.088.885-.528 1.283-1.322 1.196s-1.532.088-2.227.527-.958.276-.801-.499l.526-2.885c.197-1.152.267-2.183.208-3.093s-.183-1.762-.362-2.567a16.89 16.89 0 0 0-.773-2.468c-.329-.845-.949-1.362-1.859-1.552l-1.689-.395a3.08 3.08 0 0 1-.625-.302c-.194-.124-.371-.27-.532-.439a2.79 2.79 0 0 1-.417-.549 3.05 3.05 0 0 1-.269-.636 3.08 3.08 0 0 1-.11-.686 2.9 2.9 0 0 1 .06-.68 2.96 2.96 0 0 1 .219-.658 2.71 2.71 0 0 1 .373-.581 2.81 2.81 0 0 1 .499-.477 2.96 2.96 0 0 1 .598-.346 2.93 2.93 0 0 1 .664-.186c.23-.04.459-.049.685-.027l.346.027zm-19.219 85.89l1.371.927 2.693 1.941 3.082 2.183 3.104 1.876 2.605 1.343c.841.413 1.755.794 2.742 1.141l2.962 1.004 2.709.822 2.402.576 3.581.549c1.602.208 3.037.274 4.306.197s2.376-.228 3.323-.455 1.699-.627 2.243-1.19l2.002-2.035 2.309-2.106a25.23 25.23 0 0 1 2.402-1.722c.852-.534 1.368-.978 1.547-1.333a3.75 3.75 0 0 1 .697-.943c.285-.271.607-.492.965-.664s.729-.281 1.124-.329a3.53 3.53 0 0 1 1.174.044 3.61 3.61 0 0 1 1.097.422 3.53 3.53 0 0 1 .905.741c.259.3.466.632.619.998s.238.746.264 1.141-.008.784-.11 1.168a3.56 3.56 0 0 1-.477 1.075 3.74 3.74 0 0 1-.795.861 3.56 3.56 0 0 1-1.031.565c-.373.131-.757.199-1.152.203a3.6 3.6 0 0 1-1.163-.17 3.72 3.72 0 0 1-1.042-.538c-.322-.234-.596-.513-.823-.839s-.395-.678-.504-1.058-.161-.77-.143-1.169.093-.777.236-1.146a3.63 3.63 0 0 1 .592-1.014 3.46 3.46 0 0 1 .883-.768 3.62 3.62 0 0 1 1.086-.45 3.5 3.5 0 0 1 1.168-.077c.395.037.774.135 1.136.296a3.63 3.63 0 0 1 .981.642 3.53 3.53 0 0 1 .724.921c.191.348.32.717.39 1.108s.075.783.016 1.174l-.087.587-2.068 2.133-3 2.874-2.304 1.892-2.391 2.03c-.68.577-1.541 1.177-2.583 1.799s-2.209 1.053-3.499 1.305l-3.165.504c-.822.088-1.731.127-2.726.116l-2.83-.165-2.644-.307-2.66-.411-2.934-.615a23.94 23.94 0 0 1-3.175-.97l-3.4-1.388c-1.203-.516-2.24-1.04-3.11-1.574l-2.66-1.706-3.159-2.292-2.983-2.276-2.567-1.772-1.662-1.102a2.89 2.89 0 0 1-.466-.505 2.83 2.83 0 0 1-.335-.603 2.75 2.75 0 0 1-.181-.658 2.88 2.88 0 0 1-.017-.686 2.78 2.78 0 0 1 .148-.669 2.69 2.69 0 0 1 .307-.614 2.67 2.67 0 0 1 .444-.527 2.91 2.91 0 0 1 .554-.406 3.04 3.04 0 0 1 .636-.257c.223-.062.45-.095.68-.099s.453.015.68.066a2.98 2.98 0 0 1 .647.23l.307.154z" fill-opacity=".1"/><path d="M126.997 139.795l-.861 1.185c-.574.793-1.338 1.7-2.292 2.72a11.5 11.5 0 0 1-3.297 2.452l-3.219 1.744c-.903.548-1.717 1.279-2.441 2.194s-1.568 1.702-2.534 2.363c-.961.662-1.837 1.19-2.627 1.585s-1.742.651-2.857.768-2.241.037-3.378-.241-2.097-.262-2.88.049-1.896.525-3.34.642-2.622-.177-3.532-.872-1.868-1.267-2.863-1.717-1.903-.78-2.737-.982a16.22 16.22 0 0 0-2.687-.4c-.962-.066-2.018-.327-3.17-.784a7.82 7.82 0 0 1-2.973-2.062c-.826-.918-1.146-1.121-.96-.609s.179.651-.022.417-.371-.49-.51-.768-.243-.563-.313-.867a4 4 0 0 1-.093-.91 3.69 3.69 0 0 1 .126-.916 3.75 3.75 0 0 1 .34-.856c.146-.27.324-.519.532-.745a3.79 3.79 0 0 1 .702-.598 3.82 3.82 0 0 1 .817-.417 3.63 3.63 0 0 1 .899-.203 3.89 3.89 0 0 1 .921.011 3.96 3.96 0 0 1 .888.236c.289.113.558.259.806.439s.653.709 1.201 1.579a24.49 24.49 0 0 1 1.431 2.594c.402.863.837 1.534 1.305 2.013s.79.907.976 1.283.307.781.362 1.202a3.91 3.91 0 0 1-.038 1.255 3.79 3.79 0 0 1-.439 1.174c-.208.366-.47.689-.784.971a4.01 4.01 0 0 1-1.058.675c-.391.164-.797.263-1.218.296s-.841-.002-1.251-.105a4.02 4.02 0 0 1-1.152-.499 3.85 3.85 0 0 1-.927-.844c-.263-.329-.468-.693-.614-1.092a3.94 3.94 0 0 1-.23-1.234c-.011-.42.047-.833.175-1.239a3.83 3.83 0 0 1 .559-1.119c.249-.344.545-.638.888-.883s.718-.43 1.124-.554a3.97 3.97 0 0 1 1.245-.164 3.93 3.93 0 0 1 1.228.241 3.81 3.81 0 0 1 1.086.62c.329.267.607.579.834.937s.391.743.494 1.152.13.83.093 1.251-.135.824-.307 1.212a3.86 3.86 0 0 1-.675 1.058 3.96 3.96 0 0 1-.982.779 3.79 3.79 0 0 1-1.179.428 3.86 3.86 0 0 1-1.251.027c-.42-.058-.819-.183-1.196-.373a3.64 3.64 0 0 1-1.015-.735l-.45-.449-.905-1.201c-.607-.805-1.117-1.724-1.53-2.759s-.715-1.669-.916-1.903-.373-.49-.516-.768a3.78 3.78 0 0 1-.313-.861 4.08 4.08 0 0 1-.093-.916 3.69 3.69 0 0 1 .126-.916 3.62 3.62 0 0 1 .34-.85c.146-.274.324-.525.532-.751a3.79 3.79 0 0 1 .702-.598 3.82 3.82 0 0 1 .817-.417 3.63 3.63 0 0 1 .899-.203 3.89 3.89 0 0 1 .921.011 3.96 3.96 0 0 1 .888.236 3.78 3.78 0 0 1 .806.439c.252.182.468.553.647 1.113s.048.503-.384-.181-.241-.837.57-.472 1.879.646 3.192.839l3.225.62c.837.216 1.793.55 2.868 1.004s1.945.96 2.611 1.53 1.426.656 2.282.269 1.938-.523 3.247-.395l3.669.301c1.133.077 2.186-.208 3.159-.855s1.916-1.413 2.841-2.298 1.753-1.499 2.484-1.832l2.474-1.058c.914-.377 1.846-.883 2.797-1.52s1.709-1.349 2.276-2.139l1.097-1.453c.157-.172.334-.324.532-.455a2.97 2.97 0 0 1 .625-.313c.219-.077.446-.128.68-.153a2.96 2.96 0 0 1 .697.016 2.91 2.91 0 0 1 .674.181c.216.088.421.199.615.335s.36.298.51.477.283.373.389.581.181.432.236.658.073.461.066.691-.035.465-.094.691-.15.445-.263.653l-.17.307z" fill-opacity=".1"/><path d="M127.469 136.026l-.28 1.382-.499 2.863c-.143.987-.395 2.008-.757 3.061s-.971 2.031-1.826 2.923c-.863.896-1.66 1.508-2.392 1.837a10.32 10.32 0 0 1-2.281.724c-.794.154-1.792.479-2.995.976l-2.978 1.103-2.369.811-2.94 1.141c-1.159.454-2.164.706-3.016.757a10.66 10.66 0 0 1-2.479-.121c-.797-.135-1.783-.212-2.956-.23s-2.486.139-3.949.472-2.744.512-3.845.537-2.24-.104-3.406-.389-2.175-.631-3.027-1.026-1.607-.848-2.265-1.36l-2.353-1.958c-.907-.797-1.686-1.557-2.336-2.281s-1.486-1.478-2.495-2.26-1.91-1.391-2.715-1.837-1.711-.836-2.731-1.18-1.953-.8-2.797-1.382-1.848-1.453-3-2.616-1.803-1.936-1.952-2.32-.239-.775-.258-1.184.024-.814.137-1.212.285-.763.515-1.103.516-.634.845-.883.689-.433 1.08-.565a3.69 3.69 0 0 1 1.201-.186 3.6 3.6 0 0 1 1.201.203c.391.131.75.323 1.075.576.325.248.603.544.834.888s.399.709.505 1.108.152.799.126 1.212-.115.803-.269 1.179a3.68 3.68 0 0 1-.631 1.042 3.75 3.75 0 0 1-.932.785c-.355.212-.733.36-1.135.444a3.66 3.66 0 0 1-1.218.06 3.64 3.64 0 0 1-1.174-.329c-.373-.175-.707-.406-1.004-.691a3.88 3.88 0 0 1-.735-.971 3.7 3.7 0 0 1-.378-1.151 3.68 3.68 0 0 1 .005-1.218c.066-.406.197-.792.395-1.157s.441-.684.74-.966.638-.506 1.015-.674.764-.28 1.174-.324a3.89 3.89 0 0 1 1.218.072 3.8 3.8 0 0 1 1.13.46c.351.212.658.476.921.79l.4.472.746.707c.497.468 1.188.991 2.073 1.569.885.57 1.739 1.018 2.561 1.343s1.591.693 2.303 1.103l2.139 1.283c.709.443 1.592 1.229 2.649 2.359l2.397 2.643 1.76 1.914c.633.644 1.422 1.179 2.369 1.607s2.09.572 3.417.433 2.521-.374 3.581-.696 2.364-.503 3.921-.532 2.775.097 3.652.378 1.775.26 2.693-.076l3.768-1.454 3.702-1.519c.874-.373 1.912-.647 3.115-.823s2.161-.502 2.874-.992 1.199-1.275 1.47-2.353l.691-2.995.4-1.705c.074-.224.174-.434.302-.631s.271-.377.439-.538a2.86 2.86 0 0 1 .559-.416c.201-.114.415-.203.642-.269s.452-.103.686-.11.458.007.685.055.45.122.658.225.408.223.587.373.344.318.483.504.254.388.345.604.156.435.192.669a2.87 2.87 0 0 1 .028.685l-.033.351z" fill-opacity=".1"/></g><path d="M91.817 1.985l6.36-.029 14.347-.137 16.376-.196 16.885-.206 17.032-.206 17.081-.206c5.704-.065 9.947.506 12.73 1.715 2.777 1.222 4.541 4.175 5.292 8.859.751 4.691 1.192 9.747 1.323 15.17l.216 16.552-.01 16.895-.069 16.993-.029 17.013.088 17.022.137 17.022.147 17.023.137 17.022.138 17.052c.045 5.69-.543 9.92-1.764 12.69-1.216 2.777-4.182 4.551-8.899 5.322-4.71.771-9.79 1.235-15.238 1.391l-16.621.294-16.973.069-17.072.01-17.1.059-17.101.166-17.101.226-17.11.225-17.101.225-17.12.226c-5.716.072-9.97-.5-12.759-1.715-2.783-1.215-4.547-4.172-5.292-8.869-.738-4.697-1.166-9.757-1.284-15.18l-.186-16.572.049-16.914.098-17.003.059-17.042-.049-17.042-.108-17.042-.118-17.042L1.1 38.783l-.098-17.061c-.039-5.697.549-9.934 1.764-12.71 1.222-2.77 4.188-4.541 8.898-5.312 4.704-.771 9.774-1.232 15.209-1.382l16.601-.265 16.944-.049 17.032.01 17.071-.039 17.061-.147 19.992-.225 11.662-.088c.137.026.264.069.382.127.124.065.235.147.333.245.092.098.167.206.226.323.058.124.094.255.107.392a1.1 1.1 0 0 1-.019.412 1.13 1.13 0 0 1-.147.372c-.072.118-.16.222-.265.314-.098.085-.212.154-.343.206a1.14 1.14 0 0 1-.392.088c-.137.013-.271 0-.402-.039-.137-.033-.261-.088-.372-.167a1.47 1.47 0 0 1-.294-.274c-.085-.111-.15-.232-.196-.363a1.2 1.2 0 0 1 0-.804c.039-.118.101-.232.186-.343a1.35 1.35 0 0 1 .294-.284c.111-.078.232-.134.363-.167a1.23 1.23 0 0 1 .402-.049c.137.007.271.036.401.088.125.046.239.114.343.206.111.085.2.186.265.304a1.19 1.19 0 0 1 .157.372 1.04 1.04 0 0 1 .019.402c-.013.137-.045.268-.098.392a1.17 1.17 0 0 1-.235.333 1.27 1.27 0 0 1-.313.245c-.125.065-.252.111-.383.137l-.205.029h-11.456c-7.638.007-14.302.003-19.992-.01a2478.11 2478.11 0 0 0-17.071.039L77.47 4.19l-17.032.225-16.905.284-16.395.49c-5.331.222-10.13.588-14.396 1.098-4.273.51-6.772 1.8-7.497 3.871s-1.107 5.939-1.147 11.603l-.118 17.022-.127 17.042-.118 17.042-.118 17.042-.069 17.042.059 17.032.127 17.003.186 16.875.402 16.376c.189 5.318.529 10.107 1.019 14.367.49 4.266 1.771 6.755 3.842 7.467s5.948 1.068 11.632 1.068h17.081 17.111l17.101.01 17.101.01 17.111-.059 17.091-.167 17.061-.245 16.934-.303 16.435-.51c5.337-.222 10.146-.591 14.425-1.107 4.273-.517 6.772-1.81 7.497-3.881.725-2.065 1.101-5.926 1.127-11.584l.088-17.002.088-17.023.089-17.032.088-17.022.029-17.022-.088-17.013-.157-16.983-.225-16.856-.431-16.346c-.196-5.312-.543-10.097-1.039-14.357s-1.78-6.746-3.852-7.458c-2.064-.719-5.935-1.078-11.612-1.078l-17.042-.029-17.023-.02-16.895-.029-16.375-.029c-5.325-.013-10.104-.007-14.337.02l-6.488.02a1.49 1.49 0 0 1-.245-.059 1.14 1.14 0 0 1-.216-.118.76.76 0 0 1-.186-.167c-.059-.059-.108-.124-.147-.196a1.15 1.15 0 0 1-.088-.235c-.02-.078-.029-.16-.029-.245s.01-.167.029-.245a.92.92 0 0 1 .088-.235c.039-.072.085-.14.137-.206a.76.76 0 0 1 .186-.167c.065-.039.137-.075.216-.108a1.49 1.49 0 0 1 .245-.059l.118-.02z" fill="#1d1d1d" stroke="#1d1d1d" stroke-width="1.725"/></svg>