<svg xmlns="http://www.w3.org/2000/svg" width="161" height="162" fill="none" xmlns:v="https://vecta.io/nano"><path d="M73.562 1.787l5.082-.023 11.463-.11 13.084-.157 13.491-.164 13.609-.164 13.648-.164c4.557-.052 7.947.405 10.171 1.37 2.218.976 3.628 3.336 4.228 7.078.6 3.748.953 7.788 1.057 12.121l.172 13.225-.008 13.499-.054 13.577-.024 13.593.071 13.601.109 13.601.118 13.601.109 13.601.11 13.624c.037 4.546-.433 7.926-1.409 10.14s-3.341 3.635-7.11 4.251-7.822.987-12.176 1.112l-13.28.235-13.561.055-13.64.008-13.663.047-13.663.133-13.663.18-13.671.18-13.663.18-13.679.18c-4.568.058-7.966-.399-10.195-1.37-2.224-.971-3.633-3.333-4.228-7.086-.59-3.753-.932-7.796-1.026-12.129l-.149-13.24.039-13.515.078-13.585.047-13.616-.039-13.616-.086-13.616-.094-13.616-.086-13.616-.078-13.632C.97 13.005 1.44 9.62 2.411 7.401c.976-2.213 3.346-3.628 7.11-4.244 3.758-.616 7.809-.984 12.152-1.104l13.264-.211 13.538-.039 13.609.008 13.64-.031 13.632-.117 15.973-.18 9.317-.07a1.17 1.17 0 0 1 .306.102c.099.052.188.117.266.196.073.078.133.164.18.258a.92.92 0 0 1 .086.313.87.87 0 0 1-.015.329.9.9 0 0 1-.118.298 1.08 1.08 0 0 1-.211.251.97.97 0 0 1-.274.164c-.099.042-.204.065-.313.07a.84.84 0 0 1-.322-.031.86.86 0 0 1-.297-.133 1.17 1.17 0 0 1-.235-.219 1.05 1.05 0 0 1-.157-.29.98.98 0 0 1 0-.642c.032-.094.081-.185.149-.274s.146-.164.235-.227a.86.86 0 0 1 .29-.133.98.98 0 0 1 .321-.039.99.99 0 0 1 .321.07.88.88 0 0 1 .274.164c.089.068.159.149.211.243a.93.93 0 0 1 .126.298c.026.104.031.211.015.321a1.04 1.04 0 0 1-.078.313c-.047.099-.11.188-.188.266a1.03 1.03 0 0 1-.25.196c-.1.052-.201.089-.306.11l-.164.023h-9.154c-6.102.005-11.426.003-15.973-.008a1980.1 1980.1 0 0 0-13.64.031l-13.632.117-13.609.18-13.507.227-13.1.391c-4.259.177-8.094.47-11.502.877-3.414.407-5.411 1.438-5.99 3.093s-.885 4.745-.916 9.271l-.094 13.601-.102 13.616-.094 13.616-.094 13.616-.055 13.616.047 13.609.102 13.585.149 13.483.321 13.084c.151 4.249.423 8.076.814 11.479.391 3.409 1.415 5.398 3.069 5.967s4.753.853 9.294.853h13.648 13.671l13.663.008 13.663.008 13.671-.047 13.655-.133 13.632-.196 13.531-.243 13.131-.407c4.264-.177 8.106-.472 11.525-.885 3.414-.412 5.411-1.446 5.99-3.1s.88-4.735.901-9.255l.07-13.586.071-13.6.07-13.609.071-13.601.023-13.601-.07-13.593-.126-13.569-.18-13.468-.344-13.061c-.157-4.244-.433-8.068-.83-11.471s-1.423-5.39-3.077-5.959c-1.65-.574-4.743-.861-9.279-.861l-13.616-.023-13.601-.016-13.499-.023L90.115 3.4c-4.254-.01-8.073-.005-11.455.016l-5.183.016a1.19 1.19 0 0 1-.196-.047.91.91 0 0 1-.172-.094c-.057-.037-.107-.081-.149-.133a.68.68 0 0 1-.117-.157.91.91 0 0 1-.07-.188.8.8 0 0 1-.023-.196.8.8 0 0 1 .023-.196.73.73 0 0 1 .07-.188 1.12 1.12 0 0 1 .11-.164c.042-.052.091-.097.149-.133a1.33 1.33 0 0 1 .172-.086 1.19 1.19 0 0 1 .196-.047l.094-.016z" fill="#000" stroke="#1d1d1d" stroke-width="1.725"/></svg>