<svg xmlns="http://www.w3.org/2000/svg" width="201" height="202" fill="none" xmlns:v="https://vecta.io/nano"><rect x="1" y="1" width="200" height="200" rx="16" fill="#fff"/><g fill="#000"><path d="M56.064 83.608l-.296 4.174-1.125 9.734a130.59 130.59 0 0 0-1.185 11.078c-.234 3.674-.034 7.096.599 10.266s1.446 6.03 2.437 8.567c1 2.537 2.3 4.926 3.901 7.169s3.462 4.156 5.583 5.729 4.208 2.731 6.272 3.485a56.33 56.33 0 0 0 6.363 1.888c2.169.512 4.631.875 7.385 1.088s5.673.234 8.77.049 5.889-.591 8.377-1.216 4.594-1.517 6.332-2.674 3.387-2.757 4.935-4.786a111.72 111.72 0 0 0 4.718-6.715c1.597-2.448 3.111-4.84 4.53-7.175l3.877-6.389c1.161-1.924 1.976-3.815 2.444-5.675a44.12 44.12 0 0 0 1.004-5.366c.201-1.714.346-3.17.435-4.368a82.01 82.01 0 0 0 .188-3.932l.078-4.308.037-4.199.012-3.594-.018-2.71c-.017-.766-.019-1.194-.007-1.282s.047-.18.091-.26.099-.153.164-.218.143-.111.223-.151a1.01 1.01 0 0 1 .266-.073.89.89 0 0 1 .273.018.87.87 0 0 1 .254.103c.081.048.145.103.205.175a.92.92 0 0 1 .139.23.87.87 0 0 1 .055.266c.004.089-.002.184-.03.272a.95.95 0 0 1-.115.248.71.71 0 0 1-.188.194c-.077.053-.151.099-.236.127s-.179.048-.272.048a.74.74 0 0 1-.266-.048.77.77 0 0 1-.242-.127c-.073-.056-.135-.123-.187-.2a.8.8 0 0 1-.115-.248.73.73 0 0 1-.025-.266.85.85 0 0 1 .055-.266.83.83 0 0 1 .145-.236.93.93 0 0 1 .206-.175c.077-.048.165-.081.254-.097s.179-.026.272-.018a.92.92 0 0 1 .26.073.8.8 0 0 1 .224.157.88.88 0 0 1 .169.218.95.95 0 0 1 .085.254l.018.139-.03 1.15-.037 2.71-.012 3.6-.036 4.217-.085 4.356a78.48 78.48 0 0 1-.193 4.011c-.089 1.218-.242 2.719-.46 4.501s-.583 3.675-1.107 5.675-1.367 3.959-2.528 5.887l-3.895 6.425c-1.431 2.351-2.958 4.767-4.578 7.248s-3.273 4.793-4.942 6.939-3.453 3.829-5.353 5.064-4.149 2.173-6.737 2.819-5.47 1.061-8.643 1.246-6.171.165-9.006-.06-5.363-.607-7.597-1.132a55.78 55.78 0 0 1-6.653-2.02c-2.198-.819-4.417-2.072-6.659-3.757s-4.193-3.711-5.867-6.074-3.026-4.861-4.058-7.49-1.875-5.606-2.528-8.918-.869-6.832-.647-10.563.605-7.423 1.137-11.089.879-6.887 1.052-9.674l.278-4.277a1.24 1.24 0 0 1 .066-.218.97.97 0 0 1 .121-.194.86.86 0 0 1 .163-.157.79.79 0 0 1 .194-.115c.069-.032.139-.054.212-.067a1.05 1.05 0 0 1 .224-.012c.077.004.151.018.224.042a.99.99 0 0 1 .206.091.86.86 0 0 1 .175.145.99.99 0 0 1 .139.175 1.18 1.18 0 0 1 .091.206 1.04 1.04 0 0 1 .036.224l.006.109zm20.479 5.85l-.72-.254a1.33 1.33 0 0 0-1.294.163 22.28 22.28 0 0 0-1.415 1.162 14.6 14.6 0 0 0-1.627 1.724 18.57 18.57 0 0 0-1.391 1.942c-.403.641-.722 1.269-.956 1.882s-.401 1.295-.514 2.045l-.224 2.166c-.036.69.067 1.305.308 1.845s.54.992.883 1.355.74.634 1.179.823 1.095.331 1.954.412l2.117.145 1.736.024c.605.008 1.212-.129 1.82-.411a4.33 4.33 0 0 0 1.554-1.198 7.51 7.51 0 0 0 1.016-1.597 16.32 16.32 0 0 0 .732-1.936c.238-.746.387-1.373.448-1.882s.091-1.168.091-1.978-.038-1.444-.115-1.888-.3-.889-.683-1.325l-1.089-1.349c-.339-.464-.708-.805-1.107-1.023s-.919-.859-1.548-1.912-.861-1.567-.695-1.555a1.58 1.58 0 0 1 .49.115 1.53 1.53 0 0 1 .429.266 1.56 1.56 0 0 1 .321.387 1.55 1.55 0 0 1 .175.472 1.47 1.47 0 0 1 .024.496 1.68 1.68 0 0 1-.145.484c-.073.153-.169.29-.29.411a1.48 1.48 0 0 1-.405.296 1.4 1.4 0 0 1-.478.157c-.17.024-.331.02-.496-.012s-.323-.083-.472-.163a1.57 1.57 0 0 1-.399-.314 1.47 1.47 0 0 1-.272-.418 1.6 1.6 0 0 1-.127-.49c-.016-.165-.006-.331.03-.496a1.44 1.44 0 0 1 .194-.46c.089-.141.204-.272.333-.381a1.58 1.58 0 0 1 .435-.254c.157-.061.323-.093.496-.097.165-.008.329.012.49.061a1.6 1.6 0 0 1 .454.218 1.47 1.47 0 0 1 .357.351 1.57 1.57 0 0 1 .23.448 1.46 1.46 0 0 1 .073.49c0 .173-.028.339-.085.496a1.52 1.52 0 0 1-.242.442 1.51 1.51 0 0 1-.375.339 1.39 1.39 0 0 1-.46.206l-.242.067 1.058-1.476c.706-.98 1.359-1.315 1.96-1.004s1.081.659 1.451 1.035a7.16 7.16 0 0 1 .968 1.21c.274.427.718 1.034 1.331 1.821s.974 1.514 1.07 2.196.125 1.269.085 1.748L84.8 96.87l-.296 1.506-.49 2.215a12.06 12.06 0 0 1-.804 2.444 13.09 13.09 0 0 1-1.306 2.172 6.86 6.86 0 0 1-1.851 1.766c-.706.448-1.317.672-1.833.672l-1.712-.024-1.857-.073a15.91 15.91 0 0 1-1.736-.182 11.59 11.59 0 0 1-1.712-.405c-.589-.185-1.2-.478-1.833-.877a5.82 5.82 0 0 1-1.591-1.482c-.427-.589-.778-1.293-1.052-2.112s-.375-1.607-.314-2.365l.266-2.523c.117-.924.331-1.736.641-2.438a17.2 17.2 0 0 1 1.107-2.118l1.5-2.22a16.8 16.8 0 0 1 1.893-2.184c.701-.682 1.468-1.17 2.298-1.476s1.559-.353 2.196-.151l1.064.357a1.12 1.12 0 0 1 .23.145 1.09 1.09 0 0 1 .188.2 1.13 1.13 0 0 1 .139.23 1.45 1.45 0 0 1 .073.266.95.95 0 0 1 .012.26c-.008.093-.026.181-.055.266a1.07 1.07 0 0 1-.115.248c-.048.077-.107.147-.175.212a1.41 1.41 0 0 1-.212.163 1.16 1.16 0 0 1-.254.103 1.15 1.15 0 0 1-.266.042 1.19 1.19 0 0 1-.266-.018l-.133-.03zm28.615 1.682l-.817.702c-.552.464-1.113 1.079-1.681 1.845a22.67 22.67 0 0 0-1.645 2.589c-.529.964-.898 1.813-1.107 2.547s-.359 1.359-.435 1.863a1.34 1.34 0 0 0 .454 1.277c.383.347.937.744 1.663 1.192s1.428.82 2.105 1.107a9.52 9.52 0 0 0 2.189.623l1.857.206 1.748.048c.71.024 1.343-.087 1.899-.333s1.133-.578 1.718-.998 1.075-.998 1.47-1.736.685-1.569.871-2.493.316-1.948.405-3.085.099-2.013.018-2.638-.262-1.157-.544-1.585-.672-.805-1.168-1.119-1.104-.589-1.814-.835-1.361-.416-1.942-.496l-1.772-.157c-.596-.024-1.284.236-2.062.78l-1.343.944a1.31 1.31 0 0 1-.792.235c-.145-.008-.284-.036-.417-.085a1.27 1.27 0 0 1-.363-.212 1.42 1.42 0 0 1-.279-.321 1.36 1.36 0 0 1-.157-.387 1.34 1.34 0 0 1-.03-.418 1.17 1.17 0 0 1 .109-.405 1.22 1.22 0 0 1 .23-.357 1.27 1.27 0 0 1 .332-.26 1.39 1.39 0 0 1 .399-.139c.141-.028.281-.026.418-.006a1.34 1.34 0 0 1 .399.133 1.36 1.36 0 0 1 .339.248 1.37 1.37 0 0 1 .242.345 1.33 1.33 0 0 1 .115.405 1.2 1.2 0 0 1-.013.418c-.032.141-.082.272-.151.393a1.24 1.24 0 0 1-.272.327c-.105.093-.224.167-.357.224a1.45 1.45 0 0 1-.411.097 1.31 1.31 0 0 1-.411-.042c-.137-.036-.271-.095-.387-.175a1.16 1.16 0 0 1-.309-.284 1.34 1.34 0 0 1-.206-.369 1.22 1.22 0 0 1-.072-.418 1.46 1.46 0 0 1 .06-.411c.045-.133.109-.258.194-.375l.127-.169.714-.696c.471-.46.919-.807 1.342-1.041s.912-.333 1.464-.308l1.833.151a17.04 17.04 0 0 1 2.002.339l2.352.684c.904.298 1.698.718 2.383 1.258s1.192 1.158 1.518 1.863.5 1.436.533 2.178.01 1.718-.067 2.928a28.14 28.14 0 0 1-.441 3.472 10.48 10.48 0 0 1-1.131 3.11c-.541.972-1.184 1.734-1.93 2.287a8.86 8.86 0 0 1-2.346 1.264c-.823.291-1.631.424-2.426.4s-1.423-.087-1.887-.188l-2.117-.357c-.939-.137-1.792-.369-2.558-.696s-1.621-.78-2.553-1.349-1.626-1.216-2.086-1.954-.639-1.468-.526-2.202a20.41 20.41 0 0 1 .544-2.39c.242-.863.635-1.823 1.179-2.88a25.79 25.79 0 0 1 1.785-2.977c.646-.924 1.254-1.621 1.814-2.081l.95-.762a1.19 1.19 0 0 1 .229-.109 1.06 1.06 0 0 1 .255-.055 1.03 1.03 0 0 1 .248.006.91.91 0 0 1 .247.073 1.12 1.12 0 0 1 .218.121 1.3 1.3 0 0 1 .188.175c.057.064.103.141.139.218s.064.157.084.242a1.26 1.26 0 0 1 .025.248 1.07 1.07 0 0 1-.043.254c-.02.081-.052.159-.096.236s-.091.141-.152.206l-.09.091zm3.659 5.009l.121.181a1.34 1.34 0 0 1 .193.381c.045.141.065.28.061.417a1.27 1.27 0 0 1-.085.424 1.24 1.24 0 0 1-.211.375 1.25 1.25 0 0 1-.315.284 1.24 1.24 0 0 1-.399.169c-.137.036-.276.048-.418.036a1.35 1.35 0 0 1-.417-.103 1.32 1.32 0 0 1-.363-.23 1.22 1.22 0 0 1-.266-.339c-.069-.129-.123-.258-.151-.399a1.51 1.51 0 0 1-.012-.424 1.3 1.3 0 0 1 .127-.411 1.24 1.24 0 0 1 .599-.599 1.33 1.33 0 0 1 .411-.127 1.49 1.49 0 0 1 .423.012c.141.028.274.079.399.151a1.21 1.21 0 0 1 .339.266c.097.109.174.23.23.363a1.36 1.36 0 0 1 .103.417 1.22 1.22 0 0 1-.036.417c-.036.137-.093.274-.17.399a1.23 1.23 0 0 1-.284.315c-.113.093-.238.163-.375.212s-.278.081-.423.085-.281-.016-.418-.061a1.36 1.36 0 0 1-.381-.194l-.181-.121-.097-.133c-.069-.085-.125-.175-.169-.272a1.11 1.11 0 0 1-.091-.308 1.39 1.39 0 0 1-.024-.315 1.37 1.37 0 0 1 .06-.315c.032-.101.077-.204.133-.297s.123-.171.2-.248a1.42 1.42 0 0 1 .248-.2 1.3 1.3 0 0 1 .296-.133c.101-.032.206-.053.315-.061a1.37 1.37 0 0 1 .314.024 1.14 1.14 0 0 1 .309.091 1.31 1.31 0 0 1 .272.169l.133.097zm-31.451.484l.121.181a1.36 1.36 0 0 1 .194.381 1.26 1.26 0 0 1-.025.84c-.053.137-.119.262-.212.375a1.32 1.32 0 0 1-.314.284 1.24 1.24 0 0 1-.399.169 1.22 1.22 0 0 1-.417.036c-.141-.012-.284-.046-.417-.103a1.32 1.32 0 0 1-.363-.23 1.21 1.21 0 0 1-.266-.339 1.28 1.28 0 0 1-.151-.399 1.5 1.5 0 0 1-.012-.424 1.32 1.32 0 0 1 .127-.411 1.25 1.25 0 0 1 .599-.599 1.3 1.3 0 0 1 .411-.127 1.49 1.49 0 0 1 .423.012c.141.028.274.079.399.151s.242.157.339.266a1.32 1.32 0 0 1 .23.363 1.35 1.35 0 0 1 .103.417 1.23 1.23 0 0 1-.036.418 1.5 1.5 0 0 1-.169.399 1.17 1.17 0 0 1-.284.315 1.23 1.23 0 0 1-.375.212c-.137.052-.278.081-.423.085a1.23 1.23 0 0 1-.417-.061 1.36 1.36 0 0 1-.381-.194l-.181-.121-.097-.133c-.069-.085-.125-.175-.169-.272s-.075-.2-.091-.308a1.38 1.38 0 0 1-.024-.315 1.37 1.37 0 0 1 .06-.315c.032-.101.077-.204.133-.296a1.32 1.32 0 0 1 .2-.248 1.47 1.47 0 0 1 .248-.2 1.3 1.3 0 0 1 .296-.133 1.43 1.43 0 0 1 .314-.061 1.38 1.38 0 0 1 .315.024c.109.016.212.046.308.091a1.28 1.28 0 0 1 .272.169l.133.097zm-13.421 11.973l.563.55 1.21 1.204a13.91 13.91 0 0 0 1.27 1.174c.419.339.956.712 1.609 1.131l1.53 1.005 1.536 1.076c.653.468 1.413.932 2.28 1.392s1.571.79 2.111.98a10.39 10.39 0 0 0 1.778.442l2.05.387a14.98 14.98 0 0 0 1.869.296c.528.045 1.2.067 2.014.067l2.643.097 3.012.169 2.819.115 1.887-.012 2.02-.127 2.522-.024c.782.028 1.498.002 2.147-.079l1.869-.212c.597-.056 1.093-.177 1.488-.363l1.343-.575c.495-.189.933-.498 1.312-.925a3.5 3.5 0 0 1 1.415-.944l2.045-.811c.794-.334 1.562-.552 2.304-.653l1.899-.303c.52-.1.978-.27 1.373-.508l1.234-.708 1.288-.756c.432-.262.746-.568.944-.919l.387-.726a1.92 1.92 0 0 1 .224-.357 1.82 1.82 0 0 1 .302-.285 1.83 1.83 0 0 1 .363-.211c.133-.057.268-.097.405-.121a1.63 1.63 0 0 1 .424-.019 1.84 1.84 0 0 1 .411.085c.133.045.26.103.381.176a1.58 1.58 0 0 1 .326.266c.096.101.182.207.254.333s.13.248.17.381.058.276.066.417-.002.282-.03.424c-.028.137-.32.748-.877 1.833l-1.234 2.51-.931 2.245c-.359.907-.69 1.611-.992 2.111a20.43 20.43 0 0 1-1.107 1.622c-.436.585-.925 1.131-1.458 1.639a5.67 5.67 0 0 1-1.893 1.186 8.58 8.58 0 0 1-2.292.538 20.45 20.45 0 0 0-2.353.363l-1.814.46c-.44.141-1.093.418-1.96.829s-1.693.728-2.467.95-1.849.435-3.224.629l-3.732.514-3.399.303c-1.153.052-2.224.173-3.212.363l-2.601.447c-.746.113-1.363.164-1.851.152a7.26 7.26 0 0 1-1.409-.182c-.448-.109-.915-.359-1.403-.75s-.996-.599-1.512-.635l-2.347-.103-2.431-.048c-.564-.004-1.337-.246-2.316-.726s-1.849-1.009-2.607-1.585-1.26-1.186-1.506-1.828-.635-1.072-1.167-1.282a7.19 7.19 0 0 1-1.47-.787 8.03 8.03 0 0 1-1.228-1.046 8.4 8.4 0 0 0-1.306-1.077 2.5 2.5 0 0 1-1.022-1.392l-.526-1.905c-.173-.686-.425-1.178-.756-1.476s-.645-1.243-.943-2.82l-.423-2.625a1.68 1.68 0 0 1 .127-.515c.069-.162.163-.314.284-.447a1.65 1.65 0 0 1 .907-.521 1.62 1.62 0 0 1 .52-.012 1.73 1.73 0 0 1 .508.152 1.77 1.77 0 0 1 .429.308 1.63 1.63 0 0 1 .309.43 1.53 1.53 0 0 1 .157.502 1.65 1.65 0 0 1-.012.526 1.59 1.59 0 0 1-.182.496 1.73 1.73 0 0 1-.333.412 1.46 1.46 0 0 1-.442.284c-.165.073-.337.117-.514.133a1.76 1.76 0 0 1-.52-.042 1.73 1.73 0 0 1-.484-.206 1.52 1.52 0 0 1-.393-.357 1.62 1.62 0 0 1-.266-.46 1.59 1.59 0 0 1-.097-.514c-.008-.177.014-.351.066-.52a1.61 1.61 0 0 1 .236-.472c.101-.145.224-.27.369-.375s.302-.184.472-.236a1.44 1.44 0 0 1 .52-.073 1.66 1.66 0 0 1 .52.097 1.72 1.72 0 0 1 .46.254c.141.113.26.244.357.393s.165.317.206.49l.067.254.163 1.356c.109.903.373 1.534.792 1.893s.75.894.98 1.603c.234.714.339 1.348.315 1.9s.286 1.079.944 1.579l1.669 1.192 1.3.859c.415.278.853.655 1.312 1.131a4.34 4.34 0 0 1 .974 1.513c.194.528.486.917.889 1.168s.817.548 1.252.895a2.38 2.38 0 0 0 1.482.532l1.839.006 1.76.061c.5.044 1.014.121 1.542.23s1.107.425 1.736.937 1.232.878 1.796 1.095 1.192.289 1.881.212 1.571-.24 2.643-.49a25.48 25.48 0 0 1 3.224-.538c1.077-.109 2.165-.275 3.254-.508l3.411-.732 3.381-.866c1.064-.318 1.909-.677 2.534-1.076s1.19-.666 1.682-.799 1.195-.262 2.098-.375l2.849-.406c.996-.157 1.677-.411 2.044-.762s.726-.798 1.089-1.355l1.258-2.027c.48-.798.794-1.413.944-1.845l.689-1.936c.311-.859.629-1.462.956-1.809s.479-.762.459-1.234 0-.772.061-.901a1.92 1.92 0 0 1 .224-.357 1.82 1.82 0 0 1 .302-.285 1.83 1.83 0 0 1 .363-.211c.129-.057.264-.097.405-.121a1.63 1.63 0 0 1 .424-.019 1.84 1.84 0 0 1 .411.085c.133.045.26.103.381.176a1.58 1.58 0 0 1 .326.266c.096.101.182.207.254.333s.13.248.17.381.058.276.066.417-.002.282-.03.424c-.028.137-.074.242-.139.314s-.24.402-.526.986-.619 1.017-.986 1.295l-1.264.877-1.313.781-1.608.931c-.678.4-1.275.654-1.791.763a7.38 7.38 0 0 1-1.633.157 12.41 12.41 0 0 0-1.566.079c-.472.056-.984.213-1.537.471l-1.427.612c-.403.149-.833.385-1.288.707a5.38 5.38 0 0 1-1.44.732l-1.736.575c-.649.214-1.252.333-1.808.357s-1.214.087-1.972.188a23.05 23.05 0 0 1-2.31.199c-.782.033-1.625.024-2.528-.024l-2.014-.127c-.44-.036-1.071-.042-1.893-.018l-2.818.103-3.042.157a20.64 20.64 0 0 1-2.776-.018l-2.244-.2-1.905-.266-2.25-.266a12.52 12.52 0 0 1-2.443-.454c-.786-.23-1.387-.468-1.815-.714l-1.427-.762c-.528-.254-1.109-.629-1.742-1.125l-1.869-1.464-1.542-1.156-1.385-1.041-1.421-1.252-1.21-1.21-.665-.708c-.077-.096-.141-.199-.194-.308a1.77 1.77 0 0 1-.109-.351 1.57 1.57 0 0 1-.018-.363 1.56 1.56 0 0 1 .066-.357 1.79 1.79 0 0 1 .145-.339c.064-.105.141-.199.23-.284a1.33 1.33 0 0 1 .29-.23 1.59 1.59 0 0 1 .333-.145 1.51 1.51 0 0 1 .357-.067 1.58 1.58 0 0 1 .363.018 1.85 1.85 0 0 1 .351.109 1.66 1.66 0 0 1 .309.194l.145.115z"/><path d="M77.589 119.26l.067.792c.044.537.185 1.347.423 2.432l.381 1.894a1.57 1.57 0 0 1-.024.514 1.61 1.61 0 0 1-.194.472c-.089.149-.2.28-.333.393a1.58 1.58 0 0 1-.441.266 1.52 1.52 0 0 1-.502.109c-.173.008-.343-.01-.508-.054a1.52 1.52 0 0 1-.46-.218c-.145-.097-.27-.216-.375-.357a1.47 1.47 0 0 1-.236-.454 1.56 1.56 0 0 1-.085-.508 1.51 1.51 0 0 1 .085-.502 1.59 1.59 0 0 1 .242-.454 1.56 1.56 0 0 1 .369-.357 1.49 1.49 0 0 1 .466-.211c.165-.049.335-.067.508-.055a1.66 1.66 0 0 1 .502.109 1.6 1.6 0 0 1 .442.266 1.61 1.61 0 0 1 .327.394 1.49 1.49 0 0 1 .194.477 1.59 1.59 0 0 1 .024.515 1.47 1.47 0 0 1-.139.49c-.077.158-.167.3-.284.429a1.63 1.63 0 0 1-.411.309 1.58 1.58 0 0 1-.49.163c-.169.028-.339.028-.508 0a1.58 1.58 0 0 1-.49-.163 1.69 1.69 0 0 1-.399-.315 1.6 1.6 0 0 1-.29-.423l-.109-.236-.327-1.954-.375-2.753-.042-.98a1.8 1.8 0 0 1 .06-.357c.032-.117.085-.222.145-.327a1.52 1.52 0 0 1 .218-.29 1.56 1.56 0 0 1 .284-.224 1.46 1.46 0 0 1 .327-.151c.113-.036.236-.061.357-.073a1.34 1.34 0 0 1 .357.018 1.42 1.42 0 0 1 .345.109 1.6 1.6 0 0 1 .309.182 1.39 1.39 0 0 1 .26.254c.077.097.139.193.188.302a1.58 1.58 0 0 1 .115.345l.03.182zm7.245 2.158l-.109 1.204-.109 2.287-.042 1.3a1.28 1.28 0 0 1-.157.406 1.33 1.33 0 0 1-.272.332 1.28 1.28 0 0 1-.369.23 1.21 1.21 0 0 1-.411.097 1.2 1.2 0 0 1-.429-.042c-.141-.037-.274-.095-.399-.176a1.18 1.18 0 0 1-.315-.29 1.43 1.43 0 0 1-.212-.375c-.048-.141-.073-.284-.073-.43s.016-.286.061-.423a1.32 1.32 0 0 1 .2-.387 1.3 1.3 0 0 1 .308-.303c.121-.085.25-.147.387-.187a1.39 1.39 0 0 1 .429-.055c.141.008.28.038.417.091s.262.125.375.218.208.199.284.32a1.32 1.32 0 0 1 .163.4 1.19 1.19 0 0 1 .03.429 1.41 1.41 0 0 1-.109.424c-.061.137-.135.252-.236.357a1.23 1.23 0 0 1-.339.266 1.26 1.26 0 0 1-.405.145 1.19 1.19 0 0 1-.429.006c-.145-.02-.282-.064-.411-.133a1.26 1.26 0 0 1-.345-.254 1.24 1.24 0 0 1-.248-.351 1.37 1.37 0 0 1-.127-.417l-.024-.218.085-1.095.091-2.299.03-1.361c.02-.109.052-.214.097-.315a1.5 1.5 0 0 1 .163-.284 1.39 1.39 0 0 1 .23-.236 1.71 1.71 0 0 1 .278-.176 1.78 1.78 0 0 1 .314-.103 1.46 1.46 0 0 1 .321-.024 1.42 1.42 0 0 1 .327.061 1.19 1.19 0 0 1 .302.127 1.54 1.54 0 0 1 .26.199c.077.077.145.162.206.254a1.72 1.72 0 0 1 .139.303 1.46 1.46 0 0 1 .061.321l.012.157zm5.983.278l-.012 1.258.073 3.11.054 2.057c-.02.141-.061.276-.121.405a1.36 1.36 0 0 1-.248.339 1.34 1.34 0 0 1-.345.242c-.129.06-.264.101-.405.121s-.28.016-.417-.012a1.31 1.31 0 0 1-.393-.151 1.29 1.29 0 0 1-.327-.267c-.093-.104-.167-.223-.224-.357a1.28 1.28 0 0 1-.097-.405 1.24 1.24 0 0 1 .036-.423 1.29 1.29 0 0 1 .169-.382 1.25 1.25 0 0 1 .284-.314 1.34 1.34 0 0 1 .369-.206c.133-.048.268-.072.405-.072a1.24 1.24 0 0 1 .417.06 1.16 1.16 0 0 1 .375.188 1.26 1.26 0 0 1 .296.296 1.44 1.44 0 0 1 .188.381 1.12 1.12 0 0 1 .048.418 1.4 1.4 0 0 1-.079.411 1.36 1.36 0 0 1-.212.369c-.089.113-.194.202-.314.278a1.27 1.27 0 0 1-.387.164 1.36 1.36 0 0 1-.423.03 1.25 1.25 0 0 1-.399-.103 1.45 1.45 0 0 1-.351-.23 1.41 1.41 0 0 1-.266-.333 1.27 1.27 0 0 1-.139-.393l-.036-.211v-1.815l-.127-3.074-.115-1.415a1.27 1.27 0 0 1 .067-.327c.032-.105.079-.204.139-.297s.125-.177.206-.254a1.36 1.36 0 0 1 .26-.199 1.6 1.6 0 0 1 .302-.127 1.21 1.21 0 0 1 .321-.055c.109-.004.216.004.32.024a1.3 1.3 0 0 1 .315.103 1.11 1.11 0 0 1 .278.176 1.51 1.51 0 0 1 .23.23c.064.088.119.183.163.284a1.23 1.23 0 0 1 .091.314l.03.164zm5.856.459l-.061 1.543-.067 2.698-.042 1.319a.98.98 0 0 1-.109.333 1.12 1.12 0 0 1-.218.284c-.085.081-.181.145-.29.194s-.222.085-.339.097a1.09 1.09 0 0 1-.345-.019 1.14 1.14 0 0 1-.327-.133c-.105-.06-.196-.137-.272-.229s-.137-.19-.181-.303a1.01 1.01 0 0 1-.073-.339c-.004-.117.004-.238.036-.351a1.09 1.09 0 0 1 .145-.32 1.13 1.13 0 0 1 .242-.26 1.05 1.05 0 0 1 .314-.164 1.13 1.13 0 0 1 .689 0 1.05 1.05 0 0 1 .315.164 1.13 1.13 0 0 1 .242.26 1.07 1.07 0 0 1 .145.32 1.02 1.02 0 0 1 .036.351 1.02 1.02 0 0 1-.073.345 1.07 1.07 0 0 1-.181.297 1 1 0 0 1-.272.229 1.14 1.14 0 0 1-.327.133 1.09 1.09 0 0 1-.345.019c-.117-.012-.23-.045-.339-.097s-.206-.113-.29-.194a1.12 1.12 0 0 1-.218-.284.98.98 0 0 1-.109-.333l-.03-.175-.012-1.144-.066-2.698-.042-1.688a1.13 1.13 0 0 1 .073-.29 1.04 1.04 0 0 1 .133-.26 1.31 1.31 0 0 1 .2-.224 1.14 1.14 0 0 1 .248-.17c.089-.048.181-.084.278-.109a1.16 1.16 0 0 1 .29-.036 1.2 1.2 0 0 1 .29.036 1.18 1.18 0 0 1 .278.109c.088.048.171.101.248.17a1.31 1.31 0 0 1 .2.224 1.04 1.04 0 0 1 .133.26c.036.092.061.189.073.29l.018.145zm5.451-1.795l.013 2.093-.019 2.305c-.024.145-.07.28-.139.405-.064.13-.149.242-.254.339a1.26 1.26 0 0 1-.357.242c-.129.061-.266.099-.411.115a1.23 1.23 0 0 1-.417-.024c-.141-.028-.274-.081-.399-.157a1.21 1.21 0 0 1-.327-.279c-.093-.108-.165-.229-.218-.363a1.28 1.28 0 0 1-.097-.417 1.55 1.55 0 0 1 .048-.43c.04-.137.101-.266.181-.387a1.27 1.27 0 0 1 .291-.308 1.25 1.25 0 0 1 .381-.2c.137-.044.276-.066.417-.066s.28.022.417.066.264.111.381.2.21.191.291.308a1.33 1.33 0 0 1 .181.393 1.26 1.26 0 0 1 .049.424 1.27 1.27 0 0 1-.097.417c-.053.134-.125.255-.218.363a1.31 1.31 0 0 1-.327.279c-.125.073-.258.129-.399.157a1.23 1.23 0 0 1-.417.024c-.145-.016-.282-.054-.411-.115a1.34 1.34 0 0 1-.357-.242 1.16 1.16 0 0 1-.254-.339 1.27 1.27 0 0 1-.139-.405l-.036-.212.018-2.093.03-2.244a1.2 1.2 0 0 1 .079-.309 1.31 1.31 0 0 1 .145-.278c.056-.085.125-.162.206-.23a1.5 1.5 0 0 1 .26-.182 1.28 1.28 0 0 1 .291-.109 1.27 1.27 0 0 1 .308-.036c.105 0 .208.012.308.036s.198.061.291.109a1.27 1.27 0 0 1 .26.182 1.09 1.09 0 0 1 .205.23 1.32 1.32 0 0 1 .146.278 1.21 1.21 0 0 1 .078.309l.018.151zm5.826-.653l-.018 1.373.079 2.499.06 1.325c-.016.141-.054.274-.115.399s-.141.242-.242.339a1.25 1.25 0 0 1-.332.248 1.26 1.26 0 0 1-.399.127c-.138.02-.273.018-.406-.006a1.21 1.21 0 0 1-.393-.139 1.2 1.2 0 0 1-.326-.26c-.097-.101-.174-.216-.23-.345a1.26 1.26 0 0 1-.103-.406 1.3 1.3 0 0 1 .03-.411 1.36 1.36 0 0 1 .157-.387c.077-.117.17-.22.279-.309s.227-.159.356-.211a1.27 1.27 0 0 1 .4-.079 1.23 1.23 0 0 1 .417.048c.133.041.258.101.375.182s.212.177.296.29.143.236.188.369.06.271.06.412a1.43 1.43 0 0 1-.072.411c-.049.133-.117.254-.206.363a1.18 1.18 0 0 1-.302.284c-.117.077-.244.131-.381.164a1.34 1.34 0 0 1-.418.042c-.133-.012-.264-.044-.393-.097a1.29 1.29 0 0 1-.357-.224c-.105-.092-.191-.199-.26-.32a1.24 1.24 0 0 1-.151-.387l-.042-.206.006-1.119c.004-.742-.039-1.571-.127-2.487l-.115-1.53c.008-.109.03-.216.066-.321a1.27 1.27 0 0 1 .139-.29 1.37 1.37 0 0 1 .2-.255 1.75 1.75 0 0 1 .26-.193c.093-.053.192-.095.296-.127a1.74 1.74 0 0 1 .321-.055 1.22 1.22 0 0 1 .321.031 1.28 1.28 0 0 1 .308.102c.097.045.188.101.272.17s.16.147.224.236a1.3 1.3 0 0 1 .163.278c.041.101.071.206.091.315l.024.157zm5.615-1.342l-.055 1.204-.018 2.892.006 1.899c-.024.146-.071.283-.139.412a1.35 1.35 0 0 1-.26.345 1.28 1.28 0 0 1-.357.242c-.133.06-.272.099-.417.115a1.24 1.24 0 0 1-.424-.025 1.4 1.4 0 0 1-.399-.157c-.125-.076-.234-.171-.327-.284a1.2 1.2 0 0 1-.223-.369 1.22 1.22 0 0 1-.097-.418c-.004-.145.012-.288.048-.429a1.28 1.28 0 0 1 .182-.393c.081-.121.179-.226.296-.315a1.29 1.29 0 0 1 .381-.2 1.27 1.27 0 0 1 .847 0 1.29 1.29 0 0 1 .381.2c.117.089.216.194.296.315s.141.252.182.393a1.41 1.41 0 0 1 .042.429 1.13 1.13 0 0 1-.091.418 1.2 1.2 0 0 1-.223.369c-.093.113-.202.208-.327.284a1.4 1.4 0 0 1-.399.157c-.141.033-.282.041-.424.025a1.4 1.4 0 0 1-.417-.115 1.37 1.37 0 0 1-.357-.242c-.105-.101-.191-.216-.26-.345a1.32 1.32 0 0 1-.139-.412l-.036-.211.042-1.688-.018-2.892-.036-1.367c.012-.109.038-.216.078-.321a1.25 1.25 0 0 1 .158-.29 1.14 1.14 0 0 1 .217-.248c.085-.077.176-.142.272-.194s.2-.087.309-.115a1.31 1.31 0 0 1 .327-.042 1.31 1.31 0 0 1 .326.042c.109.028.212.067.309.115s.187.117.272.194a1.14 1.14 0 0 1 .217.248 1.25 1.25 0 0 1 .158.29c.04.105.066.212.078.321l.019.163zm-41.597-.085l.036 1.392.018 1.585a.99.99 0 0 1-.091.357 1 1 0 0 1-.2.302c-.081.093-.175.17-.284.23a1.18 1.18 0 0 1-.345.121 1.14 1.14 0 0 1-.369.006 1.25 1.25 0 0 1-.339-.109 1.2 1.2 0 0 1-.296-.217 1.24 1.24 0 0 1-.212-.303 1.14 1.14 0 0 1-.103-.351 1.1 1.1 0 0 1 .012-.363 1.03 1.03 0 0 1 .133-.339 1.07 1.07 0 0 1 .23-.284c.093-.081.195-.145.308-.194a1.07 1.07 0 0 1 .351-.084c.125-.008.246.002.363.03a1.17 1.17 0 0 1 .339.151c.101.069.189.152.266.248s.135.204.175.321a.97.97 0 0 1 .066.357c.004.125-.014.246-.054.363a1.25 1.25 0 0 1-.163.327 1.1 1.1 0 0 1-.26.254 1 1 0 0 1-.333.157 1.22 1.22 0 0 1-.357.048 1.11 1.11 0 0 1-.357-.072 1.15 1.15 0 0 1-.315-.188 1.03 1.03 0 0 1-.242-.272 1.12 1.12 0 0 1-.139-.339l-.042-.175-.163-1.392-.157-1.542a1.08 1.08 0 0 1 .054-.297c.032-.097.069-.196.121-.284a1.43 1.43 0 0 1 .181-.236 1.12 1.12 0 0 1 .242-.194 1.3 1.3 0 0 1 .272-.127c.097-.032.198-.052.302-.06.097-.004.196.002.296.018s.198.044.29.085.179.092.26.157a.97.97 0 0 1 .218.212 1.31 1.31 0 0 1 .163.26c.044.092.075.189.091.29l.03.151z"/><path d="M71.701 120.921l1.603.06c1.072.041 2.101.174 3.085.4l2.625.587c.766.157 1.434.252 2.002.284l1.742.175 1.681.212 1.79.248 2.026.248 2.111.121 2.31.049a17.96 17.96 0 0 0 2.401-.146l1.875-.296 1.524-.339 2.377-.647 2.643-.678 2.002-.46c.613-.169 1.26-.401 1.941-.695s1.444-.529 2.299-.714l2.225-.442 1.712-.345c.508-.121 1.188-.326 2.038-.617l1.524-.484a1.51 1.51 0 0 1 .502-.024c.17.016.331.061.484.133a1.5 1.5 0 0 1 .418.285 1.53 1.53 0 0 1 .308.405 1.6 1.6 0 0 1 .157.478 1.46 1.46 0 0 1 0 .502 1.51 1.51 0 0 1-.163.478 1.53 1.53 0 0 1-.308.405c-.125.117-.264.21-.418.279s-.314.117-.484.133-.342.012-.508-.025a1.71 1.71 0 0 1-.465-.187c-.145-.089-.275-.2-.387-.333a1.62 1.62 0 0 1-.261-.429c-.06-.162-.094-.327-.102-.496a1.65 1.65 0 0 1 .054-.503c.044-.166.115-.316.212-.453s.214-.265.351-.369a1.68 1.68 0 0 1 .447-.236 1.58 1.58 0 0 1 .496-.079 1.48 1.48 0 0 1 .496.085c.161.052.311.131.448.236s.252.228.344.369.168.294.212.459a1.62 1.62 0 0 1 .055.503 1.75 1.75 0 0 1-.109.49c-.065.157-.154.302-.266.435s-.236.236-.382.321l-.223.133-1.5.448-2.341.635-1.76.387-1.687.321-1.549.254a10.34 10.34 0 0 0-1.482.333l-1.693.49-2.008.52-1.948.502-1.723.46a7.43 7.43 0 0 1-1.652.212l-1.554.036c-.456.016-1.113.099-1.972.248l-2.595.327-2.425.072-2.292-.078a17.71 17.71 0 0 1-2.135-.23l-1.796-.333-1.621-.351-1.724-.345-2.093-.381-2.425-.46c-.843-.157-1.798-.215-2.867-.175l-1.748.042c-.097-.012-.191-.036-.284-.072a1.41 1.41 0 0 1-.266-.14 1.25 1.25 0 0 1-.218-.193 1.01 1.01 0 0 1-.169-.242 1.38 1.38 0 0 1-.103-.278 1.2 1.2 0 0 1-.036-.291 1.19 1.19 0 0 1 .036-.29c.024-.097.059-.19.103-.279a1.03 1.03 0 0 1 .169-.242 1.25 1.25 0 0 1 .218-.193 1.35 1.35 0 0 1 .266-.139 1.14 1.14 0 0 1 .284-.073l.145-.018zm-2.162-14.555l-.357.859c-.238.569-.564.702-.98.4s-.099-.759.95-1.356l1.857-.937c.181-.033.363-.035.544-.006s.359.084.52.169a1.84 1.84 0 0 1 .442.321 1.73 1.73 0 0 1 .314.447c.077.17.127.345.151.527s.012.367-.024.544a1.73 1.73 0 0 1-.2.514 1.6 1.6 0 0 1-.351.418 1.62 1.62 0 0 1-.466.29 1.69 1.69 0 0 1-.532.121c-.181.012-.363-.004-.544-.048a1.62 1.62 0 0 1-.901-.599 1.64 1.64 0 0 1-.26-.484 1.74 1.74 0 0 1-.097-.538 1.77 1.77 0 0 1 .085-.539 1.55 1.55 0 0 1 .254-.484 1.67 1.67 0 0 1 .393-.375 1.48 1.48 0 0 1 .49-.236 1.64 1.64 0 0 1 .544-.066c.186.008.365.044.538.108a1.75 1.75 0 0 1 .472.279c.141.117.26.254.357.411a1.65 1.65 0 0 1 .206.502c.044.182.056.365.036.551a1.6 1.6 0 0 1-.139.526c-.077.169-.177.321-.302.454a1.67 1.67 0 0 1-.429.339l-.248.133-1.137.447c-.758.299-1.641.513-2.649.642s-1.603-.297-1.784-1.277-.161-1.758.061-2.335l.417-1.022c.061-.109.133-.21.218-.303a1.58 1.58 0 0 1 .278-.242 1.47 1.47 0 0 1 .333-.163 1.59 1.59 0 0 1 .363-.079 1.23 1.23 0 0 1 .363.006 1.56 1.56 0 0 1 .357.091c.113.048.22.109.32.181s.191.156.272.248a1.46 1.46 0 0 1 .206.309 1.51 1.51 0 0 1 .127.345c.028.121.036.242.036.363a1.63 1.63 0 0 1-.054.369l-.048.175zm8.35-20.034l.798-.569 1.706-1.295 1.694-1.422 1.349-1.198.774-.678.357-.254a1.17 1.17 0 0 1 .296-.139 1.49 1.49 0 0 1 .327-.073c.113-.012.218-.004.327.012a1.66 1.66 0 0 1 .315.091 1.46 1.46 0 0 1 .29.163 1.43 1.43 0 0 1 .236.23 1.27 1.27 0 0 1 .181.278 1.74 1.74 0 0 1 .103.309c.024.109.034.22.03.333s-.022.216-.055.321a1.21 1.21 0 0 1-.127.308 1.41 1.41 0 0 1-.194.26c-.077.081-.202.496-.375 1.246s-.391 1.464-.665 2.142a12.95 12.95 0 0 1-1.089 2.063l-.841 1.192a1.38 1.38 0 0 1-.369.218 1.33 1.33 0 0 1-.417.091 1.3 1.3 0 0 1-.429-.048c-.141-.04-.27-.095-.387-.175a1.42 1.42 0 0 1-.314-.296 1.36 1.36 0 0 1-.2-.381c-.049-.137-.067-.278-.067-.424a1.34 1.34 0 0 1 .067-.423c.045-.137.117-.264.206-.381s.188-.21.308-.29a1.5 1.5 0 0 1 .393-.175 1.24 1.24 0 0 1 .423-.048 1.22 1.22 0 0 1 .417.097 1.16 1.16 0 0 1 .369.212 1.47 1.47 0 0 1 .278.333 1.32 1.32 0 0 1 .157.393 1.29 1.29 0 0 1 .024.429 1.36 1.36 0 0 1-.115.418 1.3 1.3 0 0 1-.242.351 1.36 1.36 0 0 1-.345.26 1.27 1.27 0 0 1-.405.139 1.54 1.54 0 0 1-.429 0c-.145-.02-.276-.071-.405-.139s-.242-.155-.339-.26a1.27 1.27 0 0 1-.242-.357 1.36 1.36 0 0 1-.115-.411 1.28 1.28 0 0 1 .024-.429 1.43 1.43 0 0 1 .157-.399l.115-.187.496-.635c.331-.427.617-.978.859-1.652l.683-1.93.629-1.73c.21-.54.361-.841.454-.901a1.17 1.17 0 0 1 .296-.139 1.49 1.49 0 0 1 .327-.073c.113-.012.218-.004.327.012a1.66 1.66 0 0 1 .315.091 1.46 1.46 0 0 1 .29.163 1.43 1.43 0 0 1 .236.23 1.27 1.27 0 0 1 .181.278 1.74 1.74 0 0 1 .103.309c.024.109.034.22.03.333s-.022.216-.055.321a1.21 1.21 0 0 1-.127.308 1.41 1.41 0 0 1-.194.26c-.077.081-.204.159-.381.236s-.452.256-.835.538a20.1 20.1 0 0 0-1.361 1.119l-1.712 1.597a16.29 16.29 0 0 1-1.736 1.476l-.944.659a1.39 1.39 0 0 1-.302.121 1.31 1.31 0 0 1-.327.042c-.109 0-.212-.006-.321-.03a1.78 1.78 0 0 1-.308-.115 1.34 1.34 0 0 1-.272-.181c-.085-.072-.157-.153-.218-.242s-.117-.183-.157-.284a1.46 1.46 0 0 1-.085-.321c-.016-.109-.018-.216-.006-.321a1.47 1.47 0 0 1 .073-.321 1.21 1.21 0 0 1 .145-.29 1.42 1.42 0 0 1 .218-.248l.121-.115zm7.307-12.149l-3.677 2.148c-2.46 1.432-5.22 3.521-8.28 6.268s-5.587 5.433-7.566 8.058-3.389 4.582-4.24 5.856-1.419 2.184-1.706 2.741-.536 1.412-.75 2.577-.694 3.231-1.427 6.195a205.79 205.79 0 0 1-2.552 9.317c-.968 3.247-1.714 6.082-2.238 8.506l-1.125 5.518c-.226 1.254-.361 2.135-.405 2.643s-.085.807-.109.884a1.08 1.08 0 0 1-.097.218c-.04.068-.089.131-.145.187a1.1 1.1 0 0 1-.187.151 1.06 1.06 0 0 1-.212.097 1.25 1.25 0 0 1-.236.049c-.081.004-.159 0-.236-.013a1.1 1.1 0 0 1-.23-.072 1.07 1.07 0 0 1-.206-.121.8.8 0 0 1-.296-.369 1.09 1.09 0 0 1-.073-.23c-.016-.077-.022-.155-.018-.236s.002-.476-.006-1.186.29-3.416.895-8.119 1.516-10.097 2.734-16.183S55.3 98.05 56.63 94.287l2.903-8.131 1.566-4.332.726-1.954c.044-.077.099-.145.163-.206a.87.87 0 0 1 .218-.139.82.82 0 0 1 .254-.067.69.69 0 0 1 .26.024.91.91 0 0 1 .236.097.75.75 0 0 1 .194.175.92.92 0 0 1 .133.224c.032.081.044.165.048.254s-.006.175-.03.26-.066.161-.115.23a.89.89 0 0 1-.181.188.76.76 0 0 1-.236.115c-.085.024-.169.04-.254.036a.85.85 0 0 1-.26-.048.86.86 0 0 1-.224-.121c-.069-.052-.127-.121-.175-.194s-.083-.157-.103-.242-.032-.169-.024-.254a.94.94 0 0 1 .06-.254.87.87 0 0 1 .139-.218c.06-.069.127-.125.2-.169a1.01 1.01 0 0 1 .248-.091.8.8 0 0 1 .26-.006.92.92 0 0 1 .248.073.97.97 0 0 1 .212.151.81.81 0 0 1 .151.212c.04.077.066.159.079.248s.01.171-.006.26l-.024.127-.659 1.845-1.548 4.326-2.843 8.028c-1.302 3.686-2.552 8.554-3.75 14.604s-2.093 11.376-2.673 15.978-.843 7.328-.774 8.179.097 1.321.073 1.398a1.08 1.08 0 0 1-.097.218c-.04.068-.089.131-.145.187a1.1 1.1 0 0 1-.187.151 1.06 1.06 0 0 1-.212.097 1.25 1.25 0 0 1-.236.049c-.081.004-.159 0-.236-.013a1.1 1.1 0 0 1-.23-.072 1.07 1.07 0 0 1-.206-.121.8.8 0 0 1-.296-.369 1.09 1.09 0 0 1-.073-.23c-.016-.077-.022-.155-.018-.236s.077-.367.218-.859.319-1.38.532-2.662.577-3.154 1.089-5.626 1.24-5.32 2.171-8.543 1.738-6.294 2.419-9.202l1.518-6.467c.331-1.4.677-2.372 1.04-2.916l1.826-2.783c.855-1.311 2.3-3.331 4.337-6.062s4.627-5.519 7.772-8.367 5.935-5.007 8.371-6.479l3.768-2.257a1.28 1.28 0 0 1 .242-.073c.085-.017.161-.02.242-.012a.87.87 0 0 1 .248.048.98.98 0 0 1 .23.103 1.19 1.19 0 0 1 .194.157.9.9 0 0 1 .151.2c.044.073.079.149.103.23a1.02 1.02 0 0 1 .042.242 1.04 1.04 0 0 1-.018.248c-.012.081-.036.159-.073.236s-.081.149-.133.218a1.2 1.2 0 0 1-.175.175l-.103.079z"/><path d="M62.159 80.995l-1.911 2.91-4.972 7.478c-2.04 3.041-3.768 6.215-5.183 9.523s-2.433 5.795-3.042 7.465-.895 2.587-.859 2.753.032.28 0 .345a1.02 1.02 0 0 1-.127.187.93.93 0 0 1-.163.151c-.06.045-.127.081-.2.109a.75.75 0 0 1-.212.055c-.077.012-.151.014-.224.006s-.149-.024-.218-.049-.139-.058-.2-.102a.87.87 0 0 1-.175-.146c-.048-.056-.091-.117-.127-.181s-.065-.133-.085-.206a.83.83 0 0 1-.03-.224c0-.076.008-.151.024-.223l.29-1.307c.177-.799.514-2.027 1.01-3.685s1.288-4.503 2.377-8.548a131.32 131.32 0 0 1 3.829-11.961c1.464-3.924 2.7-6.992 3.708-9.202l2.625-5.747 1.185-2.541c.048-.073.107-.135.175-.187s.143-.093.224-.121a.8.8 0 0 1 .254-.042.8.8 0 0 1 .254.042c.081.028.155.069.224.121s.129.109.181.181.085.149.109.23a.94.94 0 0 1 .024.26c-.004.085-.02.167-.048.248s-.077.153-.133.218a.77.77 0 0 1-.194.169c-.077.044-.157.077-.242.097a.67.67 0 0 1-.254.012c-.085-.008-.167-.03-.248-.067a.92.92 0 0 1-.212-.139c-.065-.061-.117-.129-.157-.206a.74.74 0 0 1-.079-.242c-.016-.085-.018-.169-.006-.254a.86.86 0 0 1 .085-.248c.04-.077.091-.143.151-.2s.135-.109.212-.145a.92.92 0 0 1 .248-.073c.085-.008.169-.004.254.012s.165.052.242.097.137.099.194.163.101.137.133.218.05.163.055.248 0 .175-.024.26l-.036.121-1.107 2.432-2.595 5.699c-.992 2.178-2.212 5.205-3.659 9.081s-2.71 7.851-3.798 11.912l-2.341 8.488c-.476 1.597-.782 2.851-.919 3.763s-.222 1.399-.254 1.464a1.02 1.02 0 0 1-.127.187.93.93 0 0 1-.163.151c-.06.045-.127.081-.2.109a.75.75 0 0 1-.212.055c-.077.012-.151.014-.224.006s-.149-.024-.218-.049-.139-.058-.2-.102a.87.87 0 0 1-.175-.146c-.048-.056-.091-.117-.127-.181s-.065-.133-.085-.206a.83.83 0 0 1-.03-.224c0-.076.008-.151.024-.223a3.53 3.53 0 0 0 .048-.303c.02-.125.335-1.051.943-2.777s1.645-4.287 3.097-7.695 3.183-6.643 5.195-9.692l4.893-7.514 1.948-3.025a.72.72 0 0 1 .169-.163.86.86 0 0 1 .206-.115c.077-.032.153-.055.23-.067s.157-.014.23-.006c.081.008.157.024.23.048s.149.063.218.103a1.29 1.29 0 0 1 .181.151c.052.061.099.125.139.194s.071.141.091.218.032.155.036.236c0 .073-.008.149-.024.23s-.042.151-.079.224l-.048.103z"/><path d="M62.794 66.62l-.441 1.307c-.294.871-.933 2.426-1.917 4.664l-3.369 8.234a203.64 203.64 0 0 0-3.429 9.577l-2.274 6.933c-.484 1.488-1.103 2.803-1.857 3.945l-1.24 1.821a1.08 1.08 0 0 1-.26.182c-.097.048-.198.078-.302.09s-.216.014-.32-.006-.204-.058-.296-.115-.175-.119-.248-.199a.94.94 0 0 1-.169-.267.98.98 0 0 1-.073-.308 1.04 1.04 0 0 1 .151-.605c.06-.089.131-.167.212-.236a.89.89 0 0 1 .278-.157.93.93 0 0 1 .315-.055 1.01 1.01 0 0 1 .314.043.98.98 0 0 1 .278.139c.089.064.163.141.224.23s.111.179.139.284a1.05 1.05 0 0 1 .042.315.83.83 0 0 1-.06.308.94.94 0 0 1-.157.278.98.98 0 0 1-.236.212c-.089.057-.185.097-.29.121a1.05 1.05 0 0 1-.315.024.9.9 0 0 1-.308-.078.84.84 0 0 1-.266-.17c-.081-.072-.147-.155-.2-.248a.97.97 0 0 1-.109-.296c-.02-.109-.022-.216-.006-.321a1.01 1.01 0 0 1 .097-.302l.066-.146 1.125-1.397c.746-.932 1.351-2.144 1.815-3.636l2.232-6.988c1.02-3.166 2.149-6.395 3.387-9.686s2.316-6.022 3.236-8.204 1.504-3.717 1.742-4.604l.417-1.452c.036-.081.083-.157.139-.23a1.03 1.03 0 0 1 .188-.187 1 1 0 0 1 .224-.139 1.09 1.09 0 0 1 .254-.079.82.82 0 0 1 .26-.018 1.15 1.15 0 0 1 .266.042 1.3 1.3 0 0 1 .242.109c.077.044.147.099.212.163a1.22 1.22 0 0 1 .169.212c.044.077.081.157.109.242a.96.96 0 0 1 .048.26c.004.089.004.171-.012.26l-.024.133zM50.313 77.113l1.361-1.313 1.585-1.416a1.46 1.46 0 0 1 .448-.157 1.58 1.58 0 0 1 .478 0 1.39 1.39 0 0 1 .448.151 1.49 1.49 0 0 1 .381.284 1.52 1.52 0 0 1 .266.393 1.4 1.4 0 0 1 .127.46 1.32 1.32 0 0 1-.024.472 1.52 1.52 0 0 1-.169.448c-.08.141-.187.258-.308.363a1.52 1.52 0 0 1-.405.242 1.42 1.42 0 0 1-.466.103 1.33 1.33 0 0 1-.472-.048 1.51 1.51 0 0 1-.435-.2 1.41 1.41 0 0 1-.345-.327 1.5 1.5 0 0 1-.224-.417 1.45 1.45 0 0 1-.079-.472 1.43 1.43 0 0 1 .079-.466 1.34 1.34 0 0 1 .224-.424c.101-.13.21-.234.339-.327s.278-.155.435-.2a1.43 1.43 0 0 1 .472-.054 1.42 1.42 0 0 1 .466.103c.149.06.284.141.405.242a1.57 1.57 0 0 1 .309.363 1.33 1.33 0 0 1 .175.442 1.6 1.6 0 0 1 .03.478 1.62 1.62 0 0 1-.127.454 1.54 1.54 0 0 1-.266.393l-.163.175-1.228 1.089-1.355 1.192a1.4 1.4 0 0 1-.284.188 1.28 1.28 0 0 1-.315.115 1.6 1.6 0 0 1-.333.036c-.117-.004-.23-.02-.339-.048a1.2 1.2 0 0 1-.315-.127c-.101-.052-.194-.117-.278-.194s-.159-.167-.224-.26-.115-.198-.151-.302a1.38 1.38 0 0 1-.079-.333c-.012-.113-.01-.226.006-.339a1.28 1.28 0 0 1 .091-.327 1.25 1.25 0 0 1 .163-.296l.097-.139z"/><path d="M57.19 70.592l-.218-.793c-.149-.528-.839-1.303-2.068-2.323l-3.393-2.68-1.99-1.585-.532-.526c-.069-.065-.129-.135-.181-.212s-.095-.157-.127-.242-.048-.179-.061-.272a1.29 1.29 0 0 1 .006-.278c.012-.089.034-.177.067-.266a1.02 1.02 0 0 1 .133-.242 1.11 1.11 0 0 1 .181-.206c.073-.06.149-.113.23-.157a1.25 1.25 0 0 1 .26-.091c.093-.02.185-.03.278-.03a1.03 1.03 0 0 1 .272.036c.089.024.173.056.254.097s.585-.024 1.5-.206 2.147-.359 3.695-.532 2.895-.415 4.052-.726l1.917-.472a1.15 1.15 0 0 1 .333.036.94.94 0 0 1 .302.139c.093.061.173.137.242.23s.127.186.163.29.054.22.054.333a.99.99 0 0 1-.054.327.9.9 0 0 1-.151.296c-.069.093-.149.171-.242.236s-.194.111-.303.139a1.03 1.03 0 0 1-.333.042c-.113-.008-.222-.032-.327-.073a1.05 1.05 0 0 1-.29-.169 1.1 1.1 0 0 1-.218-.254c-.056-.097-.099-.2-.127-.308s-.03-.224-.018-.333a1.04 1.04 0 0 1 .091-.327 1.03 1.03 0 0 1 .181-.278c.077-.081.165-.149.266-.206s.206-.089.314-.109.226-.016.339 0 .214.05.315.103.189.121.266.206a.99.99 0 0 1 .194.272c.048.105.079.212.091.321s.006.226-.018.339a1.07 1.07 0 0 1-.121.309.99.99 0 0 1-.212.254.98.98 0 0 1-.29.175l-.157.066-1.857.357-4.149.659-4.476.563-2.286.163c-.069-.065-.129-.135-.181-.212s-.095-.157-.127-.242-.048-.179-.061-.272a1.29 1.29 0 0 1 .006-.278c.012-.089.034-.177.067-.266a1.02 1.02 0 0 1 .133-.242 1.11 1.11 0 0 1 .181-.206 1.19 1.19 0 0 1 .23-.151 1.07 1.07 0 0 1 .26-.097c.093-.02.185-.03.278-.03a1.03 1.03 0 0 1 .272.036c.089.024.173.056.254.097s.25.246.496.605.927.916 2.044 1.67 2.425 1.789 3.925 3.092 2.322 2.261 2.48 2.874l.26 1.065c.016.097.018.189.006.278a1.07 1.07 0 0 1-.061.278c-.032.093-.075.179-.127.26s-.115.149-.187.218a1.03 1.03 0 0 1-.23.163 1.53 1.53 0 0 1-.266.109 1.12 1.12 0 0 1-.284.036c-.093.004-.186-.006-.278-.03s-.182-.052-.266-.097-.163-.093-.236-.157-.141-.129-.194-.206-.103-.165-.139-.254l-.054-.133z"/><path d="M62.08 59.661l3.254 1.119 8.909 2.765 8.522 2.632c1.907.662 3.028.591 3.363-.212s-.097-2.148-1.294-4.035l-3.157-5.536-1.942-4.229c-.387-1.016-.774-1.869-1.161-2.559l-.623-1.186c-.028-.101-.04-.204-.036-.308a.92.92 0 0 1 .067-.309c.036-.097.089-.186.157-.266a.94.94 0 0 1 .23-.206 1.01 1.01 0 0 1 .29-.121.88.88 0 0 1 .309-.018c.105.008.206.034.302.079s.183.101.26.169a1.05 1.05 0 0 1 .194.248c.048.093.083.19.103.29a1.03 1.03 0 0 1 0 .315c-.012.105-.042.204-.091.296s-.111.175-.187.248-.161.133-.254.181-.198.073-.303.085-.208.008-.308-.012-.202-.056-.29-.109-.173-.123-.242-.2a1.01 1.01 0 0 1-.163-.266c-.04-.097-.065-.198-.073-.302s.006-.208.03-.309.071-.2.127-.284a1.05 1.05 0 0 1 .212-.23c.085-.065.177-.115.278-.151s.198-.054.302-.054a1.01 1.01 0 0 1 .308.048 1 1 0 0 1 .278.139 1.04 1.04 0 0 1 .218.224l.091.133.466 1.155 1.034 2.595c.375.964 1.012 2.327 1.911 4.09l3.2 5.941c1.238 2.194 1.651 3.828 1.24 4.901s-1.881 1.446-4.421 1.119-5.718-1.02-9.532-2.081l-9-2.632-3.399-1.107c-.081-.04-.155-.089-.224-.145a1.37 1.37 0 0 1-.187-.188c-.052-.072-.097-.151-.133-.236a.92.92 0 0 1-.073-.254.95.95 0 0 1-.012-.26 1.15 1.15 0 0 1 .055-.26c.028-.085.066-.165.115-.242s.105-.145.169-.206.135-.119.212-.163.159-.079.248-.103a.82.82 0 0 1 .26-.042c.085-.004.171.002.26.018l.133.03z"/><path d="M80.996 51.314l1.476 1.73c.98 1.158 2.411 3.045 4.294 5.663l4.857 6.419 2.909 3.334.938.92a1.06 1.06 0 0 1 .091.194.68.68 0 0 1 .042.2 1.24 1.24 0 0 1-.006.212.69.69 0 0 1-.061.2 1 1 0 0 1-.103.181 1.04 1.04 0 0 1-.145.151 1.18 1.18 0 0 1-.175.115 1.15 1.15 0 0 1-.2.067 1.23 1.23 0 0 1-.212.018.72.72 0 0 1-.206-.036c-.069-.02-.133-.046-.194-.079a.84.84 0 0 1-.163-.127c-.053-.048.042-.714.284-1.996s.421-3.089.538-5.421.581-4.509 1.391-6.534 2.274-3.473 4.391-4.344 5.268-1.049 9.441-.544a286.04 286.04 0 0 1 11.843 1.658l8.207 1.458s2.653.653 2.698.847.103.296.175.321.147.05.212.091.125.087.181.139.099.111.139.175a.85.85 0 0 1 .133.436.67.67 0 0 1-.012.224.81.81 0 0 1-.066.218.8.8 0 0 1-.115.194.86.86 0 0 1-.157.163.98.98 0 0 1-.194.121.86.86 0 0 1-.218.067 1.09 1.09 0 0 1-.229.018c-.076-.004-.313.099-.708.309s-.641.321-.738.345a.81.81 0 0 1-.296.018.91.91 0 0 1-.291-.073.99.99 0 0 1-.248-.169.95.95 0 0 1-.181-.236.82.82 0 0 1-.097-.278.82.82 0 0 1-.006-.296.99.99 0 0 1 .091-.284 1.06 1.06 0 0 1 .181-.242c.073-.069.153-.125.242-.169a1.04 1.04 0 0 1 .29-.079.93.93 0 0 1 .297.012 1.01 1.01 0 0 1 .278.103 1.05 1.05 0 0 1 .23.194c.064.077.117.161.157.254s.059.19.067.29a1.02 1.02 0 0 1-.031.297 1.07 1.07 0 0 1-.121.272.87.87 0 0 1-.205.218 1.1 1.1 0 0 1-.26.145.94.94 0 0 1-.297.048c-.101 0-.197-.014-.29-.042a.89.89 0 0 1-.266-.139c-.081-.06-.149-.133-.206-.218a.85.85 0 0 1-.133-.266c-.028-.097-.038-.196-.03-.296a.87.87 0 0 1 .061-.29.97.97 0 0 1 .151-.26c.064-.077.139-.141.224-.194l.127-.079 1.112-.387c.742-.258 1.15-.375 1.222-.351a.97.97 0 0 1 .212.091 1 1 0 0 1 .175.139c.052.052.105.111.145.175a.85.85 0 0 1 .133.436.67.67 0 0 1-.012.224.81.81 0 0 1-.066.218.8.8 0 0 1-.115.194.86.86 0 0 1-.157.163.98.98 0 0 1-.194.121.86.86 0 0 1-.218.067 1.09 1.09 0 0 1-.229.018c-.076-.004-.222-.228-.436-.672s-1.099-.768-2.655-.986l-7.893-1.222-11.474-1.688c-3.943-.528-6.852-.462-8.727.2s-3.145 1.874-3.811 3.636-1.067 3.864-1.192 6.304-.357 4.043-.683 4.81-.478 1.178-.442 1.234a1.06 1.06 0 0 1 .091.194 1.09 1.09 0 0 1 .042.2 1.24 1.24 0 0 1-.006.212.69.69 0 0 1-.061.2 1 1 0 0 1-.103.181 1.04 1.04 0 0 1-.145.151 1.18 1.18 0 0 1-.175.115 1.15 1.15 0 0 1-.2.067 1.23 1.23 0 0 1-.212.018.72.72 0 0 1-.206-.036c-.069-.02-.133-.046-.194-.079a.84.84 0 0 1-.163-.127 121.45 121.45 0 0 1-.944-.919c-.577-.561-1.558-1.684-2.945-3.37l-4.881-6.371-4.312-5.548-1.561-1.803c-.044-.065-.081-.133-.109-.206a.82.82 0 0 1-.048-.218 1.05 1.05 0 0 1 0-.224c.008-.077.032-.151.06-.224a.97.97 0 0 1 .109-.2 1.2 1.2 0 0 1 .151-.169 1 1 0 0 1 .188-.127.83.83 0 0 1 .218-.079 1 1 0 0 1 .218-.024.9.9 0 0 1 .23.03 1.05 1.05 0 0 1 .212.085c.069.036.131.079.188.127l.085.079zm44.896 7.92l-2.867 1.065-6.967 2.602-7.784 2.855c-2.46.879-2.073 1.321 1.161 1.325s6.949-.569 11.147-1.718c4.189-1.145 7.391-2.075 9.604-2.789s3.736-1.166 4.567-1.355l1.349-.303a.71.71 0 0 1 .205-.018.83.83 0 0 1 .2.036 1.08 1.08 0 0 1 .187.079 1.18 1.18 0 0 1 .158.121.64.64 0 0 1 .127.163c.036.056.066.117.09.181s.033.131.037.2a1.1 1.1 0 0 1-.006.2.94.94 0 0 1-.061.2 1.04 1.04 0 0 1-.103.175c-.04.053-.086.101-.139.145s-.115.075-.175.103-.563.405-1.506 1.119-2.545 1.577-4.791 2.577-4.072 1.742-5.479 2.238c-1.416.496-2.555.946-3.418 1.349s-1.346.617-1.451.641-.204.03-.309.018a1 1 0 0 1-.302-.085.88.88 0 0 1-.254-.169 1.06 1.06 0 0 1-.194-.248.95.95 0 0 1-.096-.296c-.02-.101-.022-.204-.006-.308a.87.87 0 0 1 .102-.297c.049-.093.109-.175.182-.248a.88.88 0 0 1 .26-.175c.097-.044.192-.073.296-.085a.93.93 0 0 1 .315.018.9.9 0 0 1 .284.109.96.96 0 0 1 .242.206.98.98 0 0 1 .163.26c.04.097.059.204.067.309a1.14 1.14 0 0 1-.03.309c-.029.101-.073.194-.133.278a.89.89 0 0 1-.212.23.94.94 0 0 1-.272.145c-.097.032-.204.054-.309.054a1 1 0 0 1-.308-.048.92.92 0 0 1-.272-.145 1.03 1.03 0 0 1-.218-.224 1.19 1.19 0 0 1-.133-.284.89.89 0 0 1-.03-.309.97.97 0 0 1 .06-.302 1.01 1.01 0 0 1 .163-.266.92.92 0 0 1 .236-.206l.133-.079 1.391-.478 3.442-1.21c1.363-.484 3.115-1.2 5.256-2.148s3.758-1.817 4.863-2.62 1.683-1.204 1.748-1.216.137-.022.205-.018a.83.83 0 0 1 .2.036 1.08 1.08 0 0 1 .187.079 1.18 1.18 0 0 1 .158.121.64.64 0 0 1 .127.163c.036.056.066.117.09.181s.033.131.037.2a1.1 1.1 0 0 1-.006.2.94.94 0 0 1-.061.2 1.04 1.04 0 0 1-.103.175c-.04.053-.086.101-.139.145a.83.83 0 0 1-.175.103c-.061.032-.506.147-1.337.345s-2.357.667-4.591 1.41-5.499 1.702-9.786 2.892c-4.294 1.19-8.141 1.932-11.54 2.226s-5.308.028-5.715-.787.774-1.995 3.532-3.527 5.502-2.817 8.219-3.866l6.938-2.68 2.976-1.137a.9.9 0 0 1 .459 0 1.02 1.02 0 0 1 .218.085c.073.036.137.081.193.133s.113.111.158.175a.99.99 0 0 1 .109.206 1.08 1.08 0 0 1 .06.23c.012.077.008.153 0 .23a1.22 1.22 0 0 1-.06.23 1.07 1.07 0 0 1-.109.206c-.044.065-.097.123-.158.175s-.118.097-.187.133l-.109.055z"/><path d="M125.469 68.1l3.321 1.113c2.209.75 5.491 1.999 9.846 3.745s8.135 3.376 11.328 4.888 5.434 2.654 6.708 3.412l1.996 1.198a.85.85 0 0 1 .163.127c.048.048.089.109.121.169a.87.87 0 0 1 .085.188.93.93 0 0 1 .036.206 1.19 1.19 0 0 1-.018.206 1.09 1.09 0 0 1-.067.2.9.9 0 0 1-.108.175.83.83 0 0 1-.152.139.69.69 0 0 1-.175.109 1.13 1.13 0 0 1-.2.054.87.87 0 0 1-.205.012 1.09 1.09 0 0 1-.206-.042c-.064-.02-.274.19-.629.629s-2.149.524-5.395.242-6.903-.768-10.984-1.446l-9.568-1.627-3.55-.641c-.065-.02-.127-.046-.188-.079a1.01 1.01 0 0 1-.163-.121.95.95 0 0 1-.127-.157.79.79 0 0 1-.085-.187c-.02-.064-.038-.131-.042-.2a1.1 1.1 0 0 1 .006-.2c.012-.069.032-.135.06-.2a.75.75 0 0 1 .103-.175.99.99 0 0 1 .139-.145.72.72 0 0 1 .176-.109c.065-.028.123-.05.187-.067a.67.67 0 0 1 .206-.012c.069.004.397.171.986.514s2.385 1.258 5.377 2.759a114.49 114.49 0 0 1 8.987 5.04c3 1.86 5.303 3.662 6.908 5.421s2.423 3.36 2.443 4.791-.446 2.478-1.409 3.14-2.145.946-3.532.853-3.01-.494-4.869-1.216a29.43 29.43 0 0 1-5.268-2.656c-1.653-1.053-2.66-1.755-3.018-2.105l-.629-.605a.79.79 0 0 1-.158-.169.83.83 0 0 1-.115-.194 1.09 1.09 0 0 1-.06-.224 1.11 1.11 0 0 1-.012-.23c.008-.077.024-.151.048-.224a.97.97 0 0 1 .097-.206.87.87 0 0 1 .151-.175.91.91 0 0 1 .182-.139c.064-.036.135-.065.211-.085a.71.71 0 0 1 .224-.036c.077-.004.153.002.23.018a.95.95 0 0 1 .218.073c.069.033.939.315 2.613.847s3.542 1.037 5.618 1.525l4.555 1.04 1.542.345a1.06 1.06 0 0 1 .169.085.87.87 0 0 1 .146.127 1.09 1.09 0 0 1 .108.157.7.7 0 0 1 .073.175.8.8 0 0 1 .024.194.73.73 0 0 1-.024.188.56.56 0 0 1-.067.181.81.81 0 0 1-.102.157c-.045.048-.093.093-.146.133a.69.69 0 0 1-.169.091.67.67 0 0 1-.181.048c-.064.008-.129.008-.194 0s-.512-.294-1.343-.859-3.03-1.791-6.598-3.678l-12.012-6.401c-4.431-2.376-8.216-4.334-11.353-5.874l-6.967-3.412c-1.504-.73-2.29-1.127-2.359-1.192a.96.96 0 0 1-.181-.224.8.8 0 0 1-.097-.266.75.75 0 0 1-.006-.284.89.89 0 0 1 .078-.272.95.95 0 0 1 .17-.23.93.93 0 0 1 .23-.169 1.01 1.01 0 0 1 .272-.085.84.84 0 0 1 .284.012.8.8 0 0 1 .266.097.79.79 0 0 1 .224.175c.064.073.115.153.151.242a.84.84 0 0 1 .073.278.8.8 0 0 1-.025.278c-.024.097-.062.185-.114.266a.95.95 0 0 1-.188.212.89.89 0 0 1-.248.139.92.92 0 0 1-.278.054.85.85 0 0 1-.284-.036.84.84 0 0 1-.254-.127c-.081-.056-.148-.125-.2-.206a.84.84 0 0 1-.127-.254.96.96 0 0 1-.042-.278c.004-.097.022-.192.054-.284s.079-.171.139-.248a.95.95 0 0 1 .212-.188.88.88 0 0 1 .26-.115c.093-.024.191-.028.284-.024a.83.83 0 0 1 .278.073l.133.054 2.129 1.131c1.42.758 3.706 1.912 6.859 3.46s6.946 3.511 11.377 5.887l12.096 6.449c3.629 1.924 5.766 3.126 6.412 3.606s.998.736 1.058.756a.64.64 0 0 1 .169.085.87.87 0 0 1 .146.127 1.09 1.09 0 0 1 .108.157.7.7 0 0 1 .073.175.8.8 0 0 1 .024.194.73.73 0 0 1-.024.188.56.56 0 0 1-.067.181.81.81 0 0 1-.102.157c-.045.048-.093.093-.146.133a.69.69 0 0 1-.169.091.67.67 0 0 1-.181.048c-.064.008-.129.008-.194 0s-.578-.115-1.542-.321l-4.603-1.047a167.24 167.24 0 0 1-5.951-1.5c-1.863-.508-2.825-.787-2.885-.835a.79.79 0 0 1-.158-.169.83.83 0 0 1-.115-.194 1.09 1.09 0 0 1-.06-.224 1.11 1.11 0 0 1-.012-.23c.008-.077.024-.151.048-.224a.97.97 0 0 1 .097-.206.87.87 0 0 1 .151-.175.91.91 0 0 1 .182-.139c.064-.036.135-.065.211-.085a.71.71 0 0 1 .224-.036c.077-.004.153.002.23.018a.95.95 0 0 1 .218.073c.069.033.26.27.574.714s1.244 1.157 2.801 2.154 3.189 1.833 4.911 2.511 3.129 1.095 4.234 1.24 2.036.016 2.794-.387 1.109-1.053 1.052-1.948-.816-2.115-2.28-3.672-3.669-3.231-6.629-5.034a221.32 221.32 0 0 0-9.532-5.469l-5.189-2.801c-.065-.02-.127-.046-.188-.079a1.01 1.01 0 0 1-.163-.121.95.95 0 0 1-.127-.157.79.79 0 0 1-.085-.187c-.02-.064-.038-.131-.042-.2a1.1 1.1 0 0 1 .006-.2c.012-.069.032-.135.06-.2a.75.75 0 0 1 .103-.175.99.99 0 0 1 .139-.145.72.72 0 0 1 .176-.109c.065-.028.123-.05.187-.067a.67.67 0 0 1 .206-.012c.069.004 1.254.198 3.556.593l9.52 1.567c4.049.657 7.534 1.158 10.458 1.5s4.818.3 5.673-.127 1.312-.617 1.373-.581a.82.82 0 0 1 .163.127c.048.048.089.109.121.169a.87.87 0 0 1 .085.188.93.93 0 0 1 .036.206 1.19 1.19 0 0 1-.018.206 1.09 1.09 0 0 1-.067.2.9.9 0 0 1-.108.175.83.83 0 0 1-.152.139.69.69 0 0 1-.175.109 1.13 1.13 0 0 1-.2.054.87.87 0 0 1-.205.012 1.09 1.09 0 0 1-.206-.042c-.064-.02-.738-.403-2.02-1.15s-3.508-1.851-6.677-3.327c-3.174-1.48-6.926-3.071-11.256-4.773s-7.609-2.9-9.835-3.606l-3.441-1.113a.88.88 0 0 1-.218-.133 1 1 0 0 1-.296-.393c-.036-.077-.061-.157-.073-.242s-.02-.165-.012-.242c.004-.085.02-.167.049-.248a1.27 1.27 0 0 1 .108-.23 1.01 1.01 0 0 1 .158-.194 1.24 1.24 0 0 1 .199-.151.84.84 0 0 1 .23-.097 1.03 1.03 0 0 1 .248-.042c.077-.004.157.002.242.018l.121.024zm-42.231-7.917l-2.105-.901-5.468-2.396a69.81 69.81 0 0 0-7.137-2.686c-2.52-.799-4.534-1.198-6.042-1.198s-2.619.244-3.333.732-1.403 1.101-2.081 1.827l-1.155 1.192a1.08 1.08 0 0 1-.29.139c-.105.032-.212.04-.321.036a.92.92 0 0 1-.315-.067c-.101-.041-.198-.095-.278-.163a.9.9 0 0 1-.212-.248.93.93 0 0 1-.127-.296.95.95 0 0 1-.018-.321 1.05 1.05 0 0 1 .085-.315 1.02 1.02 0 0 1 .175-.272 1.12 1.12 0 0 1 .26-.194.97.97 0 0 1 .302-.109 1.07 1.07 0 0 1 .321 0 1.02 1.02 0 0 1 .308.097 1.12 1.12 0 0 1 .26.194 1.1 1.1 0 0 1 .188.266 1.07 1.07 0 0 1 .085.315.87.87 0 0 1-.012.321 1.2 1.2 0 0 1-.115.303 1.03 1.03 0 0 1-.212.248.91.91 0 0 1-.272.169 1.05 1.05 0 0 1-.315.073c-.109.008-.216-.002-.321-.03a.94.94 0 0 1-.296-.133.89.89 0 0 1-.236-.224.92.92 0 0 1-.157-.284.94.94 0 0 1-.054-.321c0-.109.016-.214.048-.315s.087-.202.151-.29l.097-.133a114.91 114.91 0 0 0 1.252-1.095 18.45 18.45 0 0 1 2.71-1.972c.976-.584 2.327-.885 4.064-.901s3.907.377 6.508 1.168l7.27 2.607 5.51 2.232 2.256.883a1.1 1.1 0 0 1 .224.163 1.11 1.11 0 0 1 .181.206 1.57 1.57 0 0 1 .121.248c.032.089.052.179.061.272a1.24 1.24 0 0 1-.006.272 1.09 1.09 0 0 1-.073.266 1.42 1.42 0 0 1-.133.242 1.47 1.47 0 0 1-.187.2 1.19 1.19 0 0 1-.23.151c-.085.04-.171.071-.26.091s-.184.03-.272.03a1.24 1.24 0 0 1-.272-.042l-.133-.036zm-25.375-2.16l1.796 1.258 2.958 2.105 1.936 1.41c.524.375 1.103.879 1.736 1.512l1.058 1.119a1.13 1.13 0 0 1 .157.363 1.29 1.29 0 0 1 .036.393 1.18 1.18 0 0 1-.091.387 1.23 1.23 0 0 1-.212.339 1.25 1.25 0 0 1-.309.254 1.35 1.35 0 0 1-.375.139 1.28 1.28 0 0 1-.393.012 1.25 1.25 0 0 1-.381-.109 1.34 1.34 0 0 1-.327-.23 1.29 1.29 0 0 1-.236-.321c-.061-.121-.101-.248-.121-.381a1.21 1.21 0 0 1 .006-.399c.024-.133.069-.258.133-.375a1.32 1.32 0 0 1 .248-.315 1.26 1.26 0 0 1 .333-.212 1.2 1.2 0 0 1 .387-.103c.133-.012.266-.002.399.03s.25.083.363.151a1.35 1.35 0 0 1 .302.266c.085.105.149.22.194.345a1.16 1.16 0 0 1 .079.387 1.11 1.11 0 0 1-.048.399c-.036.125-.095.244-.175.357a1.24 1.24 0 0 1-.278.284 1.3 1.3 0 0 1-.351.175 1.31 1.31 0 0 1-.393.061 1.28 1.28 0 0 1-.393-.073 1.14 1.14 0 0 1-.351-.194l-.157-.121-.732-.895c-.488-.593-.958-1.081-1.409-1.464s-1.085-.821-1.887-1.325l-3.073-1.894-1.99-1.252a1.26 1.26 0 0 1-.212-.23 1.38 1.38 0 0 1-.151-.272 1.4 1.4 0 0 1-.085-.309 1.52 1.52 0 0 1-.006-.303 1.45 1.45 0 0 1 .067-.309 1.43 1.43 0 0 1 .139-.284 1.29 1.29 0 0 1 .46-.424 1.14 1.14 0 0 1 .29-.115 1.33 1.33 0 0 1 .308-.048 1.13 1.13 0 0 1 .309.03c.105.024.204.058.296.103l.145.073zm30.185.049l.321-1.192c.214-.794 1.081-1.877 2.601-3.249s3.871-2.783 7.04-4.223 6.268-2.656 9.296-3.636l6.581-2.093 3.532-1.065 1.633-.472a.84.84 0 0 1 .266.006.83.83 0 0 1 .46.26c.061.068.113.139.145.224a.86.86 0 0 1 .066.26.84.84 0 0 1-.018.266.89.89 0 0 1-.109.248.84.84 0 0 1-.175.2c-.069.057-.151.105-.236.133s-.173.05-.266.054-.177-.012-.266-.036a.87.87 0 0 1-.236-.121c-.077-.052-.141-.115-.194-.187s-.092-.153-.12-.242-.037-.173-.037-.266a.87.87 0 0 1 .055-.266.7.7 0 0 1 .127-.23.76.76 0 0 1 .199-.181.92.92 0 0 1 .248-.109.75.75 0 0 1 .266-.018.97.97 0 0 1 .266.06c.081.036.156.085.224.145a.79.79 0 0 1 .17.212.77.77 0 0 1 .09.254.85.85 0 0 1 .006.266c-.012.089-.038.173-.078.254a.76.76 0 0 1-.151.218c-.064.061-.138.117-.218.157l-.127.061-1.488.472-3.508 1.107-6.454 2.099c-2.959.98-5.941 2.158-8.945 3.533s-5.169 2.614-6.484 3.727-2.054 2.037-2.22 2.771l-.296 1.216a.95.95 0 0 1-.115.218c-.048.069-.105.131-.169.188a1.08 1.08 0 0 1-.206.139.94.94 0 0 1-.23.091 1.23 1.23 0 0 1-.242.024c-.085 0-.167-.01-.248-.03s-.157-.048-.23-.085a.94.94 0 0 1-.206-.145.89.89 0 0 1-.163-.187.95.95 0 0 1-.115-.218 1.02 1.02 0 0 1-.06-.242.85.85 0 0 1 0-.248l.018-.121z"/><path d="M108.228 47.258l-.363 1.144c-.238.766-.758 1.787-1.56 3.061s-1.821 2.634-3.055 4.09l-3.375 4.053-2.637 3.249-1.228 1.482a.87.87 0 0 1-.236.151.86.86 0 0 1-.266.067c-.093.008-.186 0-.278-.024a.78.78 0 0 1-.254-.109c-.077-.048-.145-.109-.206-.181a.88.88 0 0 1-.133-.242.86.86 0 0 1-.055-.272.78.78 0 0 1 .036-.272.94.94 0 0 1 .121-.248c.056-.077.123-.141.2-.194a.77.77 0 0 1 .242-.127 1.05 1.05 0 0 1 .278-.036c.093.004.181.022.266.054s.169.077.242.133a1.01 1.01 0 0 1 .188.206c.048.077.085.161.109.254a.77.77 0 0 1 .024.272c-.008.093-.03.183-.067.272s-.087.161-.151.23-.131.127-.212.175-.167.077-.26.097a.92.92 0 0 1-.278.006.81.81 0 0 1-.26-.079c-.085-.04-.159-.095-.224-.163s-.123-.139-.163-.224-.069-.167-.085-.26a.92.92 0 0 1 .006-.278.96.96 0 0 1 .097-.26l.067-.121 1.107-1.404 2.607-3.309 3.236-4.011c1.157-1.4 2.081-2.668 2.77-3.805.694-1.133 1.149-2.083 1.367-2.849l.381-1.258a.95.95 0 0 1 .127-.224c.052-.069.113-.131.181-.187s.142-.097.218-.133a1.13 1.13 0 0 1 .248-.079 1.05 1.05 0 0 1 .248-.018c.089.004.174.018.254.042a.95.95 0 0 1 .236.103 1 1 0 0 1 .206.157.96.96 0 0 1 .163.2c.044.077.081.155.109.236a1.42 1.42 0 0 1 .048.254c.004.081 0 .165-.012.254l-.024.127z"/><path d="M87.58 82.981l-2.788 2.716-5.661 5.197-4.458 3.896-2.189 1.827a6.21 6.21 0 0 1-1.3.647c-.456.161-.927.266-1.415.315a5.98 5.98 0 0 1-1.446-.03c-.484-.069-.95-.196-1.397-.381s-.875-.415-1.27-.702a5.84 5.84 0 0 1-1.065-.98c-.314-.371-.581-.774-.798-1.21a6.01 6.01 0 0 1-.484-1.367 6.22 6.22 0 0 1-.145-1.446c.012-.484.081-.962.206-1.434a6.25 6.25 0 0 1 .544-1.343 5.98 5.98 0 0 1 .853-1.174c.331-.359 1.653-1.646 3.968-3.86a39.02 39.02 0 0 1 7.657-5.693l6.919-4.114 3.569-2.371c.552-.423 1.054-.738 1.506-.944a6 6 0 0 1 1.403-.454c.488-.093.978-.125 1.47-.097a5.89 5.89 0 0 1 1.452.254 6.2 6.2 0 0 1 1.349.593 6.05 6.05 0 0 1 1.167.901 6.16 6.16 0 0 1 .919 1.155c.258.424.464.871.617 1.343s.24.954.272 1.446a6.03 6.03 0 0 1-.073 1.476 6.46 6.46 0 0 1-.429 1.41 6.24 6.24 0 0 1-.756 1.258c-.302.395-.647.746-1.034 1.053l-6.157 4.495-9.085 6.619-5.099 4.078s-1.772 1.605-2.171 1.851a5.9 5.9 0 0 1-1.264.587c-.448.145-.903.234-1.367.266s-.933.014-1.397-.067-.905-.214-1.337-.399a5.61 5.61 0 0 1-1.198-.708 5.71 5.71 0 0 1-.998-.974c-.294-.367-.54-.762-.738-1.186s-.341-.865-.429-1.325a5.75 5.75 0 0 1-.097-1.392 5.48 5.48 0 0 1 .236-1.373c.133-.452.319-.879.556-1.283s.52-.772.847-1.107 1.694-1.087 4.101-2.257l8.462-4.096a315.42 315.42 0 0 1 9.387-4.35l6.907-3.188s2.542-1.244 2.897-1.373.74-.25 1.155-.363a5.19 5.19 0 0 1 1.264-.194 5.21 5.21 0 0 1 1.276.121 5.38 5.38 0 0 1 1.21.424 5.26 5.26 0 0 1 1.071.696 5.21 5.21 0 0 1 .877.932c.254.347.461.72.623 1.119s.28.807.344 1.234a5.57 5.57 0 0 1 .037 1.27c-.041.428-.131.845-.273 1.252s-.33.79-.568 1.149a5.42 5.42 0 0 1-.817.98c-.314.294-.659.546-1.034.756s-2.111 1.458-5.207 3.745-5.883 4.183-8.371 5.687-4.24 2.67-5.256 3.497-1.722 1.341-2.117 1.531-.814.327-1.246.411-.873.125-1.312.109-.871-.093-1.294-.218-.825-.292-1.204-.514-.734-.484-1.052-.786a5.32 5.32 0 0 1-.829-1.022c-.234-.371-.421-.766-.562-1.186s-.224-.849-.26-1.289a5.72 5.72 0 0 1 .054-1.313 5.56 5.56 0 0 1 .369-1.258c.173-.403.393-.782.659-1.137a5.29 5.29 0 0 1 .907-.944c.343-.278 2.472-1.087 6.387-2.426s7.687-2.545 11.316-3.63 6.508-2.087 8.649-3.007 3.409-1.412 3.817-1.488a5.26 5.26 0 0 1 1.233-.097c.416.02.823.089 1.222.206a5.16 5.16 0 0 1 1.131.496c.359.21.688.458.986.744a5.05 5.05 0 0 1 .774.962 4.97 4.97 0 0 1 .526 1.119 4.94 4.94 0 0 1 .236 1.216 5.04 5.04 0 0 1-.054 1.234c-.069.411-.186.807-.351 1.186s-.375.74-.629 1.071-.536.621-.859.883-.677.48-1.052.653l-5.607 2.698-9.326 4.646-4.796 2.402a4.74 4.74 0 0 1-1.077.248c-.367.036-.732.028-1.095-.024s-.722-.141-1.065-.278a4.54 4.54 0 0 1-.962-.526c-.302-.218-.573-.466-.811-.744a4.32 4.32 0 0 1-.605-.92c-.165-.327-.288-.672-.369-1.035a4.72 4.72 0 0 1-.115-1.089 4.7 4.7 0 0 1 .151-1.089 4.6 4.6 0 0 1 .411-1.022c.173-.323.383-.621.629-.895a4.7 4.7 0 0 1 .835-.714c.311-.202 2.232-.829 5.764-1.882s7.145-2.021 10.826-2.892 6.339-1.607 7.972-2.208 2.645-.93 3.024-.986.758-.067 1.137-.03a4.82 4.82 0 0 1 1.113.242 4.7 4.7 0 0 1 1.022.502c.319.21.609.454.871.732a4.54 4.54 0 0 1 .671.92 4.98 4.98 0 0 1 .436 1.053 4.64 4.64 0 0 1 .163 1.125c.012.383-.022.762-.103 1.137s-.209.728-.375 1.071a4.57 4.57 0 0 1-.623.956 4.72 4.72 0 0 1-.828.78c-.311.226-.643.411-.998.557s-2.089 1.032-5.214 2.662-6.038 3.065-8.739 4.308-4.401 2.15-5.111 2.71-1.242.905-1.609 1.022-.74.188-1.119.212a4.52 4.52 0 0 1-1.143-.061c-.379-.064-.744-.173-1.095-.326s-.677-.353-.98-.587-.579-.5-.816-.799-.437-.623-.599-.974-.278-.71-.351-1.089-.099-.754-.079-1.137.087-.758.2-1.125.262-.716.46-1.047.425-.633.696-.907.569-.512.895-.714 1.988-.68 4.984-1.434l11.794-2.783 11.238-2.577 4.464-.992c.346-.04.693-.04 1.04 0a4.34 4.34 0 0 1 1.004.242c.327.121.633.28.919.478a4.17 4.17 0 0 1 .781.684c.229.258.427.541.592.847s.285.629.369.968a4.21 4.21 0 0 1 .127 1.029 4.02 4.02 0 0 1-.121 1.028 4.06 4.06 0 0 1-.363.968c-.157.311-.35.597-.58.859a4.52 4.52 0 0 1-.774.69c-.287.198-.591.359-.914.484s-2.26 1.162-5.8 3.11-6.597 3.495-9.169 4.653-4.05 1.968-4.421 2.432-.732.746-1.083.847a4.32 4.32 0 0 1-1.065.181 4.4 4.4 0 0 1-1.082-.085c-.359-.068-.702-.181-1.028-.338a4.38 4.38 0 0 1-.92-.575c-.286-.226-.538-.484-.756-.774s-.405-.603-.55-.938-.242-.682-.302-1.041-.077-.72-.048-1.083.093-.718.206-1.065a4.94 4.94 0 0 1 .46-.98c.194-.306.421-.587.683-.841a4.57 4.57 0 0 1 .865-.659c.314-.181 1.709-.547 4.185-1.095l7.5-1.531 5.171-.968 2.008-.284a4.84 4.84 0 0 1 1.228.097 5.02 5.02 0 0 1 1.167.387 5.15 5.15 0 0 1 1.047.659c.318.262.603.559.853.889a5 5 0 0 1 .616 1.065 5.26 5.26 0 0 1 .345 1.186 4.85 4.85 0 0 1 .049 1.234 5.14 5.14 0 0 1-.242 1.204 5.34 5.34 0 0 1-.527 1.119 5.04 5.04 0 0 1-.78.956c-.298.286-.627.532-.986.738s-.736.371-1.131.484-1.365.812-2.897 2.087-2.449 2.103-2.764 2.486-.681.67-1.101.847a5.83 5.83 0 0 1-1.306.382 5.74 5.74 0 0 1-1.361.054c-.456-.04-.899-.133-1.331-.278s-.844-.335-1.227-.581a5.88 5.88 0 0 1-1.059-.859c-.314-.331-.586-.694-.816-1.089s-.403-.813-.533-1.252c-.125-.44-.197-.888-.217-1.344s.02-.907.109-1.355a5.69 5.69 0 0 1 .435-1.294c.194-.411.436-.795.726-1.15s.617-.669.98-.944 1.506-.647 3.417-1.119a110.98 110.98 0 0 1 5.341-1.204l3.217-.569a5.97 5.97 0 0 1 1.47.024 5.98 5.98 0 0 1 1.427.369c.456.185.885.421 1.289.708s.766.615 1.088.986.595.785.817 1.228.393.899.502 1.379.165.972.157 1.464-.07.982-.199 1.458a6.08 6.08 0 0 1-.539 1.368 5.98 5.98 0 0 1-.853 1.203 6.25 6.25 0 0 1-1.112.956c-.412.279-.849.5-1.313.666s-2.274.562-5.419 1.18-6.099.889-8.849.816a263.5 263.5 0 0 1-9.018-.405l-9.199-.399s-5.224-.059-7.058.03l-7.034.278-7.445.285-6.568.078-4.252-.121a9.77 9.77 0 0 1-1.681-.248c-.564-.133-1.103-.331-1.615-.593a7.17 7.17 0 0 1-1.427-.968 7.04 7.04 0 0 1-1.149-1.276c-.335-.476-.607-.982-.817-1.519s-.353-1.097-.429-1.67-.077-1.147-.012-1.724a7.1 7.1 0 0 1 .399-1.675 6.96 6.96 0 0 1 .786-1.531 7.07 7.07 0 0 1 1.125-1.301c.431-.387.901-.718 1.409-.992a7.43 7.43 0 0 1 1.609-.623c.556-.141 1.125-.216 1.706-.224s1.992-.803 4.246-2.396 4.232-2.864 5.946-3.823 3.454-2.178 5.22-3.666a99.05 99.05 0 0 1 4.978-3.951l4.409-3.358s2.899-2.063 4.524-2.898 3.274-1.416 4.96-1.742 3.591-.365 5.716-.115 4.026.581 5.716.992 3.504.899 5.443 1.464 4.014 1.252 6.224 2.063 4.155 1.799 5.848 2.952 3.327 2.468 4.899 3.932 3.01 3.186 4.313 5.155 2.238 4.088 2.806 6.37.615 4.342.127 6.177-1.197 3.541-2.129 5.106c-.927 1.569-2.209 2.674-3.846 3.315s-3.476 1.136-5.528 1.483-4.537.631-7.452.853-5.772.342-8.57.363l-7.772.018c-2.387-.012-4.653-.004-6.798.024l-6.405.067-6.701.066c-2.339.028-4.431-.01-6.278-.115a54.56 54.56 0 0 1-5.528-.587c-1.839-.29-3.708-1.103-5.607-2.438s-3.26-2.892-4.095-4.658c-.831-1.771-1.024-3.664-.581-5.681s1.375-4.245 2.794-6.685 2.74-4.437 3.95-5.977 2.663-2.981 4.361-4.308l5.395-4.186c1.895-1.472 3.847-2.755 5.855-3.848s4.081-1.964 6.23-2.602 4.316-.996 6.502-1.077 4.24-.012 6.163.206 3.816.597 5.691 1.125 3.835 1.123 5.891 1.785 3.964 1.305 5.722 1.942 3.643 2.257 5.643 4.858 3.032 4.394 3.097 5.366a8.9 8.9 0 0 1-.279 2.88 8.94 8.94 0 0 1-1.179 2.632c-.54.815-1.194 1.52-1.96 2.118a8.87 8.87 0 0 1-2.534 1.385c-.923.323-1.873.49-2.849.502a8.99 8.99 0 0 1-2.848-.436 8.88 8.88 0 0 1-2.571-1.325c-.782-.581-1.451-1.272-2.008-2.075s-.97-1.666-1.24-2.602-.391-1.896-.351-2.868a8.98 8.98 0 0 1 .593-2.831 8.92 8.92 0 0 1 1.458-2.486c.621-.75 1.346-1.381 2.177-1.894a8.81 8.81 0 0 1 2.673-1.095 8.86 8.86 0 0 1 2.879-.194 8.96 8.96 0 0 1 2.789.744c.891.399 1.693.928 2.407 1.585a8.7 8.7 0 0 1 1.772 2.281c.468.855.786 1.763.956 2.722a8.9 8.9 0 0 1 .036 2.886c-.149.968-.448 1.883-.895 2.747a8.82 8.82 0 0 1-1.718 2.323 8.93 8.93 0 0 1-2.371 1.645c-.879.419-1.802.688-2.77.805a8.88 8.88 0 0 1-2.885-.121c-.956-.202-1.855-.549-2.697-1.041s-1.579-1.107-2.22-1.845a8.78 8.78 0 0 1-1.518-2.456l-.557-1.349 2.601 2.408c1.734 1.605 1.532 2.043-.605 1.313a185.22 185.22 0 0 0-6.211-2.009c-2.008-.613-3.944-1.053-5.807-1.319s-3.806-.196-5.831.212-3.752 1.129-5.183 2.178l-4.857 3.642c-1.81 1.383-3.369 2.773-4.675 4.168s-2.568 1.025-3.786-1.113-.966-3.136.768-2.983a68.65 68.65 0 0 0 5.268.26l5.564.061 6.091.067 5.879.03 6.429-.097a146.72 146.72 0 0 0 7.506-.375l7.331-.496c2.375-.145 2.792.305 1.252 1.349s-3.065.847-4.573-.605-3.119-2.426-4.832-2.934-3.476-1.069-5.298-1.682-3.581-1.17-5.275-1.658-3.417-.095-5.171 1.192a126.3 126.3 0 0 1-5.582 3.872l-5.365 3.799s-3.52 2.418-5.71 3.527l-7.131 3.509c-2.56 1.226-5.068 2.162-7.524 2.807s-3.96.895-4.524.762a7.26 7.26 0 0 1-1.615-.593 7.17 7.17 0 0 1-1.427-.968 7.04 7.04 0 0 1-1.149-1.276c-.335-.476-.607-.982-.817-1.519s-.353-1.097-.429-1.67-.077-1.147-.012-1.724a7.29 7.29 0 0 1 .393-1.675 7.16 7.16 0 0 1 .792-1.531 7.07 7.07 0 0 1 1.125-1.301c.431-.387.901-.718 1.409-.992a7.46 7.46 0 0 1 1.603-.623c.56-.141 1.131-.216 1.712-.224s1.079.056 1.506.181 1.615.355 3.55.69 4.036.597 6.302.787l7.343.647 6.683.496s4.179.089 7.046.012 5.917-.224 9.151-.442l8.8-.514 7.518-.587 4.306-.478a5.97 5.97 0 0 1 1.47.024c.488.064.962.188 1.421.369s.891.417 1.295.708.766.615 1.088.986.595.785.817 1.228.393.899.502 1.379.165.972.157 1.464-.068.982-.193 1.458a5.91 5.91 0 0 1-.545 1.368 5.98 5.98 0 0 1-.853 1.203 6.25 6.25 0 0 1-1.112.956 6.19 6.19 0 0 1-1.313.666c-.468.169-.962.167-1.482-.006s-1.82-.129-3.889.133-3.318.488-3.738.665-.854.303-1.306.375-.905.097-1.361.061a5.95 5.95 0 0 1-1.331-.272 5.45 5.45 0 0 1-1.227-.587 5.88 5.88 0 0 1-1.059-.859c-.314-.331-.586-.694-.816-1.089s-.403-.813-.533-1.252c-.125-.44-.197-.888-.217-1.344s.02-.907.109-1.355a5.69 5.69 0 0 1 .435-1.294c.194-.411.436-.795.726-1.15s.617-.669.98-.944 1.344-.831 2.933-1.67a131.37 131.37 0 0 0 4.772-2.65c1.597-.924 2.601-1.393 3.012-1.41a4.87 4.87 0 0 1 1.234.097 5.02 5.02 0 0 1 1.167.387 5.15 5.15 0 0 1 1.047.659c.318.262.603.559.853.889a5 5 0 0 1 .616 1.065 5.26 5.26 0 0 1 .345 1.186 4.85 4.85 0 0 1 .049 1.234 5.14 5.14 0 0 1-.242 1.204 5.34 5.34 0 0 1-.527 1.119c-.221.347-.481.665-.78.956-.298.286-.627.532-.986.738s-.736.371-1.131.484-1.08.147-2.044.09-2.671.087-5.123.43l-6.478.944-3.32.593a4.32 4.32 0 0 1-1.065.181 4.4 4.4 0 0 1-1.082-.085c-.359-.068-.702-.181-1.028-.338a4.38 4.38 0 0 1-.92-.575c-.286-.226-.538-.484-.756-.774s-.405-.603-.55-.938-.242-.682-.302-1.041-.077-.72-.048-1.083.093-.718.206-1.065a4.94 4.94 0 0 1 .46-.98c.194-.306.421-.587.683-.841a4.57 4.57 0 0 1 .865-.659 17.24 17.24 0 0 0 1.058-.672c.391-.262 1.905-.944 4.542-2.045s5.934-2.761 9.889-4.991 6.099-3.368 6.442-3.412.693-.04 1.04 0a4.34 4.34 0 0 1 1.004.242c.327.121.633.28.919.478a4.17 4.17 0 0 1 .781.684c.229.258.427.541.592.847s.285.629.369.968a4.21 4.21 0 0 1 .127 1.029 4.02 4.02 0 0 1-.121 1.028 4.06 4.06 0 0 1-.363.968c-.157.311-.35.597-.58.859a4.52 4.52 0 0 1-.774.69c-.287.198-.591.359-.914.484s-1.822.43-4.487.913-6.361 1.379-11.087 2.686l-10.796 3.122-4.258 1.343c-.363.117-.736.188-1.119.212a4.52 4.52 0 0 1-1.143-.061c-.379-.064-.744-.173-1.095-.326s-.677-.353-.98-.587-.579-.5-.816-.799-.437-.623-.599-.974-.278-.71-.351-1.089-.099-.754-.079-1.137.087-.758.2-1.125.262-.716.46-1.047.425-.633.696-.907.569-.512.895-.714.893-.47 1.7-.805 2.55-1.115 5.22-2.341 5.776-2.864 9.32-4.9 5.5-3.089 5.879-3.146.758-.067 1.137-.03a4.82 4.82 0 0 1 1.113.242 4.7 4.7 0 0 1 1.022.502c.319.21.609.454.871.732a4.54 4.54 0 0 1 .671.92 4.98 4.98 0 0 1 .436 1.053c.101.367.155.742.163 1.125s-.022.762-.103 1.137-.209.728-.375 1.071a4.79 4.79 0 0 1-.623.956 4.72 4.72 0 0 1-.828.78c-.311.226-.643.411-.998.557s-1.385.375-3.103.69-4.31 1.018-7.79 2.124-6.786 2.045-9.907 2.831l-5.202 1.367a4.64 4.64 0 0 1-1.071.248 4.57 4.57 0 0 1-1.101-.024c-.367-.048-.722-.141-1.065-.278a4.54 4.54 0 0 1-.962-.526c-.302-.218-.573-.466-.811-.744s-.444-.587-.605-.914-.288-.676-.369-1.035-.119-.728-.115-1.095a4.7 4.7 0 0 1 .151-1.089 4.6 4.6 0 0 1 .411-1.022 4.27 4.27 0 0 1 .629-.895 4.7 4.7 0 0 1 .835-.714l4.615-2.771s6.026-3.471 9.78-5.463 5.834-3.021 6.242-3.097a5.26 5.26 0 0 1 1.233-.097c.416.02.823.089 1.222.206a5.33 5.33 0 0 1 1.131.496c.359.21.688.458.986.744a5.05 5.05 0 0 1 .774.962 4.97 4.97 0 0 1 .526 1.119 4.94 4.94 0 0 1 .236 1.216 5.06 5.06 0 0 1-.054 1.234c-.069.411-.186.807-.351 1.186a4.86 4.86 0 0 1-.629 1.065c-.25.331-.536.627-.859.889s-.673.48-1.052.653-1.684.496-3.925.956-5.049 1.351-8.42 2.674-6.651 2.668-9.84 4.047l-5.377 2.347c-.399.189-.814.327-1.246.411a5.5 5.5 0 0 1-1.312.109c-.44-.02-.871-.093-1.294-.218s-.825-.292-1.204-.514-.734-.484-1.052-.786a5.32 5.32 0 0 1-.829-1.022c-.234-.371-.421-.766-.562-1.186s-.224-.849-.26-1.289-.014-.875.054-1.307a5.55 5.55 0 0 1 .369-1.264c.173-.403.393-.782.659-1.137a5.29 5.29 0 0 1 .907-.944c.343-.278 1.083-.734 2.22-1.367s2.913-1.746 5.316-3.328l6.798-4.501 5.48-3.902s2.482-1.841 2.897-1.954a5.19 5.19 0 0 1 1.264-.194 5.21 5.21 0 0 1 1.276.121 5.38 5.38 0 0 1 1.21.424c.383.186.74.418 1.071.696a5.21 5.21 0 0 1 .877.932c.254.347.461.72.623 1.119s.28.807.344 1.234a5.57 5.57 0 0 1 .037 1.27c-.041.428-.131.845-.273 1.252s-.328.79-.562 1.149a5.62 5.62 0 0 1-.823.98c-.314.294-.659.546-1.034.756s-1.512.565-3.411 1.065-4.212 1.466-6.949 2.91-5.585 3.132-8.54 5.064-5.401 3.325-7.336 4.168-3.097 1.394-3.496 1.64a5.9 5.9 0 0 1-1.264.587c-.448.145-.903.234-1.367.266s-.933.014-1.397-.067-.905-.214-1.337-.399a5.61 5.61 0 0 1-1.198-.708 5.7 5.7 0 0 1-.998-.974c-.294-.367-.54-.762-.738-1.186s-.341-.865-.429-1.325a5.75 5.75 0 0 1-.097-1.392 5.48 5.48 0 0 1 .236-1.373c.133-.452.319-.879.556-1.283s.52-.772.847-1.107 1.075-.922 2.244-1.76 2.923-2.273 5.262-4.302a220.78 220.78 0 0 1 6.962-5.82l5.825-4.501s2.597-1.833 3.048-2.039.915-.361 1.403-.454.978-.125 1.47-.097a5.89 5.89 0 0 1 1.452.254 6.2 6.2 0 0 1 1.349.593 6.05 6.05 0 0 1 1.167.901 5.91 5.91 0 0 1 .919 1.155c.258.424.464.871.617 1.343s.24.954.272 1.446a5.97 5.97 0 0 1-.073 1.47c-.089.488-.232.96-.429 1.416a6.24 6.24 0 0 1-.756 1.258c-.302.391-.647.742-1.034 1.053s-.893.613-1.518.92-1.855 1.008-3.689 2.105-3.875 2.42-6.121 3.981-4.532 3.342-6.847 5.342-3.675 3.13-4.083 3.4a6.21 6.21 0 0 1-1.3.647 5.99 5.99 0 0 1-1.409.315c-.488.048-.972.038-1.452-.03s-.945-.196-1.397-.381-.875-.415-1.27-.702a5.84 5.84 0 0 1-1.065-.98c-.314-.371-.581-.774-.798-1.21s-.379-.891-.484-1.367a6.22 6.22 0 0 1-.145-1.446c.012-.484.081-.962.206-1.434a6.25 6.25 0 0 1 .544-1.343 5.98 5.98 0 0 1 .853-1.174c.331-.359 1.087-.928 2.268-1.706s2.625-1.887 4.331-3.327 3.464-3.081 5.274-4.937 2.899-2.934 3.266-3.225a6.09 6.09 0 0 1 1.191-.72 5.91 5.91 0 0 1 1.331-.411c.46-.085.921-.113 1.385-.085a5.88 5.88 0 0 1 1.373.248 5.82 5.82 0 0 1 1.27.575c.399.242.764.528 1.095.859a5.78 5.78 0 0 1 .859 1.095 6 6 0 0 1 .575 1.27 5.88 5.88 0 0 1 .248 1.373c.028.464 0 .926-.085 1.385a5.92 5.92 0 0 1-.411 1.331 6.09 6.09 0 0 1-.72 1.192l-.435.551z" fill-opacity=".1"/><path d="M57.435 101.333l2.317-2.505 4.427-5.306c1.415-1.863 2.964-3.63 4.645-5.3l5.323-5.203 5.093-4.719c1.532-1.347 3.288-2.615 5.268-3.805s4.167-2.166 6.562-2.94 4.47-1.198 6.224-1.271 3.633.222 5.637.883 3.818 1.551 5.443 2.668l4.712 3.412c1.512 1.157 3.036 2.186 4.573 3.085l4.79 3.031c1.657 1.125 3.278 2.495 4.863 4.108s2.917 3.241 3.997 4.894 1.728 3.731 1.942 6.243-.758 4.939-2.915 7.278-4.48 3.75-6.98 4.222-5.085.821-7.754 1.035l-6.774.508-5.722.303-5.776.133-6.853.096-7.185.279-6.199.272-5.631.212-2.692.145c-.069.008-.452-.022-1.149-.091s-1.377-.22-2.038-.454a8.68 8.68 0 0 1-1.869-.925c-.585-.387-1.113-.837-1.585-1.349a8.56 8.56 0 0 1-1.222-1.688c-.343-.613-.605-1.259-.786-1.936a8.65 8.65 0 0 1-.296-2.057 8.77 8.77 0 0 1 .2-2.075 8.63 8.63 0 0 1 .696-1.966 8.35 8.35 0 0 1 1.149-1.743 8.46 8.46 0 0 1 1.518-1.422 8.59 8.59 0 0 1 1.826-1.01 8.7 8.7 0 0 1 2.014-.544c.694-.101 1.692-.823 2.994-2.166s2.734-2.39 4.294-3.14 3.169-1.391 4.814-1.924 3.827-1.085 6.544-1.658l7.82-1.476c2.5-.415 4.762-.669 6.786-.762s4.172.103 6.442.575l5.77 1.367c1.581.44 2.78.873 3.599 1.301s1.546.974 2.183 1.64a8.36 8.36 0 0 1 1.542 2.251 8.41 8.41 0 0 1 .744 2.626 8.37 8.37 0 0 1-.133 2.728 8.31 8.31 0 0 1-.998 2.541 8.23 8.23 0 0 1-1.754 2.093c-.697.601-1.473 1.073-2.328 1.416s-1.742.548-2.662.605-1.824-.043-2.715-.285-1.714-.615-2.48-1.131-1.431-1.133-1.996-1.863a8.36 8.36 0 0 1-1.288-2.408 8.45 8.45 0 0 1-.46-2.686 8.38 8.38 0 0 1 .43-2.698c.29-.875.711-1.682 1.264-2.42s1.209-1.367 1.971-1.888a8.44 8.44 0 0 1 2.468-1.162c.887-.25 1.792-.353 2.716-.308a8.31 8.31 0 0 1 2.667.575c.859.335 1.641.799 2.347 1.391a8.37 8.37 0 0 1 1.778 2.075 8.32 8.32 0 0 1 1.022 2.529 8.45 8.45 0 0 1 .163 2.723c-.096.92-.336 1.799-.719 2.638a8.35 8.35 0 0 1-1.518 2.263 8.31 8.31 0 0 1-2.166 1.664 8.46 8.46 0 0 1-2.576.889 8.38 8.38 0 0 1-2.728.012l-1.367-.218-1.869-.575c-1.25-.383-2.935-.728-5.056-1.034-2.121-.311-4.266-.276-6.436.103l-6.387 1.246c-2.089.452-4.062 1.059-5.921 1.821-1.859.754-3.81 1.825-5.855 3.213s-4.145 2.532-6.29 3.436-3.566 1.321-4.264 1.252-1.377-.22-2.038-.454a8.68 8.68 0 0 1-1.869-.925 8.31 8.31 0 0 1-1.585-1.349 8.56 8.56 0 0 1-1.222-1.688c-.343-.613-.605-1.257-.786-1.93a8.73 8.73 0 0 1-.296-2.063 8.77 8.77 0 0 1 .2-2.075c.153-.682.385-1.337.696-1.966s.692-1.21 1.143-1.743a8.63 8.63 0 0 1 1.524-1.422 8.59 8.59 0 0 1 1.826-1.01 8.7 8.7 0 0 1 2.014-.544c.69-.101 1.51-.155 2.462-.163l4.058-.091 5.589-.248 6.139-.339 6.078-.236 5.577-.085 6.411-.236 6.98-.466 6.326-.538c2.044-.194 2.224.768.538 2.886s-3.237 2.628-4.669 1.519a52.35 52.35 0 0 0-4.355-3.049c-1.471-.928-3.06-2.067-4.766-3.418a32.26 32.26 0 0 0-5.274-3.424c-1.806-.928-3.704-.913-5.691.042s-3.74 1.966-5.256 3.019l-4.482 3.364-4.264 3.34c-1.371 1.036-2.923 2.476-4.657 4.32l-4.875 5.293-2.855 3.043a6.52 6.52 0 0 1-1.264.847 6.11 6.11 0 0 1-1.421.515 6.32 6.32 0 0 1-1.506.169 6.36 6.36 0 0 1-1.506-.206c-.492-.129-.962-.314-1.409-.556a6.37 6.37 0 0 1-1.24-.877c-.375-.343-.706-.726-.992-1.15s-.512-.875-.69-1.355-.288-.972-.345-1.476a6.33 6.33 0 0 1 .024-1.513 6.31 6.31 0 0 1 .381-1.47c.185-.476.425-.921.72-1.337l.447-.623h-.006z" fill-opacity=".1"/><path d="M124.266 100.549l-4.911-.55-8.68-.647-6.495-.024-6.587.309-7.73.526-8.244.69-7.5.756-4.76.563c-1.077.133-1.909.171-2.498.115a7.28 7.28 0 0 1-1.724-.369c-.556-.194-1.083-.452-1.579-.775a7.03 7.03 0 0 1-1.349-1.125c-.407-.432-.756-.905-1.046-1.422a7.48 7.48 0 0 1-.671-1.627c-.157-.569-.244-1.147-.26-1.736a7.49 7.49 0 0 1 .157-1.748 7.21 7.21 0 0 1 .581-1.664c.258-.532.577-1.025.956-1.476s.806-.853 1.282-1.204.986-.639 1.53-.865 1.115-.383 1.7-.472 1.625-1.117 3.121-3.085 3.214-3.662 5.141-5.082 4.087-2.704 6.478-3.866 4.901-2.107 7.542-2.825a31.45 31.45 0 0 1 8.062-1.107c2.742-.02 4.959.296 6.653.95l6.417 2.868 6.284 3.122c1.601.823 3.256 1.563 4.966 2.22l5.522 2.378 3.121 1.531c.104.101.437.341.998.72a8.39 8.39 0 0 1 1.524 1.325 8.06 8.06 0 0 1 1.161 1.652c.323.597.567 1.222.732 1.875s.258 1.325.266 2.003-.073 1.345-.23 2.002a8.23 8.23 0 0 1-.695 1.894 8.55 8.55 0 0 1-1.131 1.67c-.444.512-.942.964-1.494 1.355a8.56 8.56 0 0 1-1.779.95 8.06 8.06 0 0 1-1.959.502c-.669.089-1.341.095-2.014.018s-1.323-.226-1.96-.46-2.441-.151-5.413.248-5.621.476-7.935.23l-6.472-.677-6.847-.357c-2.56-.032-4.966.028-7.216.181l-7.167.49-7.246.611-5.262.393c-1.198.025-2.232-.03-3.103-.163s-1.689-.395-2.468-.799a7.95 7.95 0 0 1-2.087-1.548c-.613-.629-1.109-1.341-1.488-2.136s-.615-1.625-.72-2.492-.069-1.736.109-2.595a7.87 7.87 0 0 1 .938-2.426 8 8 0 0 1 1.657-2.003 8.01 8.01 0 0 1 2.214-1.361c.811-.335 1.653-.53 2.528-.587a7.9 7.9 0 0 1 2.589.248c.847.226 1.637.581 2.371 1.065s1.365 1.073 1.905 1.767.956 1.454 1.246 2.281.439 1.686.447 2.565c.008.871-.123 1.724-.393 2.559s-.667 1.605-1.192 2.311-1.141 1.309-1.863 1.809a8.06 8.06 0 0 1-2.347 1.119c-.843.246-1.704.349-2.583.309s-1.722-.212-2.54-.527a7.99 7.99 0 0 1-2.244-1.318 7.92 7.92 0 0 1-1.706-1.96 7.97 7.97 0 0 1-.986-2.402 7.87 7.87 0 0 1-.175-2.589c.089-.875.313-1.712.671-2.511a7.97 7.97 0 0 1 1.433-2.172 8.14 8.14 0 0 1 2.05-1.597c.77-.419 1.589-.704 2.456-.853l1.294-.23 1.657-.006 4.857-.163 6.901-.357 7.578-.375 8.341-.097 7.482.2 8.431.097 8.062-.073c1.766-.04 3.702.038 5.807.236s3.443.492 4.004.871a8.39 8.39 0 0 1 1.524 1.325 8.46 8.46 0 0 1 1.161 1.646 8.43 8.43 0 0 1 .732 1.881c.169.657.258 1.325.266 2.003a8.58 8.58 0 0 1-.224 2.002c-.157.657-.391 1.289-.701 1.894a8.55 8.55 0 0 1-1.131 1.67c-.444.512-.942.964-1.494 1.355a8.56 8.56 0 0 1-1.779.95c-.633.25-1.284.417-1.953.502s-1.347.095-2.02.018-1.323-.226-1.96-.46-1.54-.681-2.722-1.343l-4.342-2.202-4.948-2.42-5.141-2.62-6.254-2.94c-2.331-1.008-4.403-1.313-6.218-.914s-3.532.944-5.165 1.633-3.198 1.533-4.706 2.529-3.218 2.283-5.129 3.86c-1.911 1.585-4.189 3.043-6.835 4.374s-4.256 1.974-4.845 1.918a7.19 7.19 0 0 1-1.718-.369 7.22 7.22 0 0 1-1.585-.775 7.03 7.03 0 0 1-1.349-1.125c-.407-.432-.754-.903-1.04-1.416s-.516-1.059-.677-1.627-.244-1.153-.26-1.742a7.49 7.49 0 0 1 .157-1.748 7.21 7.21 0 0 1 .581-1.664c.258-.528.577-1.02.956-1.476s.806-.853 1.282-1.204.986-.639 1.53-.865 1.115-.383 1.7-.472 1.276-.119 2.075-.091l4.476-.067 7.79-.248 8.758-.061 8.165.357 6.701.442 6.672.26h8.818l5.667.03a5.89 5.89 0 0 1 1.409.417c.452.198.873.446 1.265.744s.741.639 1.052 1.022.569.799.774 1.246a5.99 5.99 0 0 1 .46 1.391c.097.484.133.97.109 1.458a6.2 6.2 0 0 1-.248 1.452 5.83 5.83 0 0 1-.581 1.343c-.25.427-.546.817-.889 1.168s-.724.663-1.143.926a6.26 6.26 0 0 1-1.331.617c-.467.153-.947.248-1.439.284l-.732.054z" fill-opacity=".1"/><path d="M43.103 154.157l.544-.908 1.137-1.785 1.046-1.7.786-1.609.738-1.585.702-1.464.605-1.343c.19-.444.371-.936.544-1.476l.49-1.827c.157-.674.399-1.384.726-2.13s.55-1.188.671-1.325a1.68 1.68 0 0 1 .423-.345 1.63 1.63 0 0 1 .508-.193 1.61 1.61 0 0 1 .544-.018 1.67 1.67 0 0 1 .52.157 1.64 1.64 0 0 1 .441.314c.133.13.242.275.327.436a1.65 1.65 0 0 1 .163.52c.028.181.02.363-.012.545a1.58 1.58 0 0 1-.187.514 1.71 1.71 0 0 1-.333.424 1.64 1.64 0 0 1-.46.296 1.55 1.55 0 0 1-.526.139 1.67 1.67 0 0 1-.544-.042 1.79 1.79 0 0 1-.502-.212c-.157-.097-.288-.216-.405-.357a1.72 1.72 0 0 1-.272-.472 1.62 1.62 0 0 1-.103-.538 1.64 1.64 0 0 1 .067-.539 1.68 1.68 0 0 1 .236-.49 1.77 1.77 0 0 1 .387-.387c.145-.109.306-.189.484-.242a1.6 1.6 0 0 1 .538-.078 1.73 1.73 0 0 1 .532.096c.173.06.333.15.478.266a1.73 1.73 0 0 1 .369.4 1.79 1.79 0 0 1 .218.502 1.73 1.73 0 0 1 .048.538 1.82 1.82 0 0 1-.127.533l-.109.254-.296.556c-.194.372-.403.918-.629 1.64s-.482 1.422-.78 2.099l-.798 1.718-.702 1.356-.738 1.373-.786 1.585-.889 1.809-1.022 1.754-1.01 1.743-.593 1.071c-.073.092-.153.177-.242.254a1.41 1.41 0 0 1-.296.193c-.105.052-.216.091-.333.115a1.37 1.37 0 0 1-.345.03 1.44 1.44 0 0 1-.345-.054 1.18 1.18 0 0 1-.321-.133 1.32 1.32 0 0 1-.284-.206 1.19 1.19 0 0 1-.224-.272 1.44 1.44 0 0 1-.157-.315 1.59 1.59 0 0 1-.073-.338 1.23 1.23 0 0 1 .012-.345 1.37 1.37 0 0 1 .091-.339l.067-.163zm7.905-21.169l.242-1.652.375-3.134.375-2.904.375-2.535.278-1.936c.097-.56.256-1.032.478-1.415s.651-.672 1.276-.853 1.157-.164 1.597.066.794.593 1.052 1.101a8.08 8.08 0 0 1 .617 1.628l.381 1.712c.109.564.218 1.377.327 2.438l.133 1.851a1.52 1.52 0 0 1-.145.496c-.077.153-.177.293-.302.418a1.61 1.61 0 0 1-.417.302 1.56 1.56 0 0 1-.49.151 1.53 1.53 0 0 1-.514-.012 1.52 1.52 0 0 1-.484-.181 1.48 1.48 0 0 1-.399-.321 1.57 1.57 0 0 1-.278-.429 1.66 1.66 0 0 1-.127-.503c-.016-.174-.002-.344.042-.514s.107-.322.2-.472a1.55 1.55 0 0 1 .345-.381c.133-.109.282-.193.448-.254a1.53 1.53 0 0 1 .502-.097 1.48 1.48 0 0 1 .514.067 1.44 1.44 0 0 1 .46.23c.141.105.262.222.363.363a1.63 1.63 0 0 1 .23.46 1.55 1.55 0 0 1 .073.508 1.52 1.52 0 0 1-.097.502 1.64 1.64 0 0 1-.254.454 1.71 1.71 0 0 1-.381.344 1.44 1.44 0 0 1-.472.2c-.17.04-.341.059-.514.042s-.341-.052-.502-.121a1.52 1.52 0 0 1-.429-.278 1.58 1.58 0 0 1-.327-.399 1.55 1.55 0 0 1-.175-.484l-.048-.254-.042-1.38-.163-2.129c-.081-.5-.125-1.142-.133-1.924s-.081-.954-.218-.502-.262 1.046-.363 1.785l-.314 2.456a27.46 27.46 0 0 0-.175 2.886l-.115 3.212-.139 1.827a1.34 1.34 0 0 1-.29.581 1.36 1.36 0 0 1-.236.218c-.089.064-.185.117-.29.157a1.47 1.47 0 0 1-.315.085c-.109.016-.216.018-.321.006a1.33 1.33 0 0 1-.315-.073c-.105-.036-.202-.084-.29-.145s-.175-.131-.248-.212a1.62 1.62 0 0 1-.194-.266 1.2 1.2 0 0 1-.121-.302c-.028-.104-.038-.214-.042-.327v-.157z"/><path d="M56.205 127.009l.248-1.657.423-3.261.308-2.765.266-2.202.333-2.578.242-1.718a1.13 1.13 0 0 1 .175-.332 1.05 1.05 0 0 1 .266-.267 1.2 1.2 0 0 1 .339-.163 1.07 1.07 0 0 1 .375-.042c.125.004.248.028.369.072s.224.107.321.188a1.03 1.03 0 0 1 .248.284c.069.109.117.224.145.345a1.18 1.18 0 0 1 .024.375 1.2 1.2 0 0 1-.091.363 1.18 1.18 0 0 1-.206.315 1.43 1.43 0 0 1-.296.236c-.113.06-.232.1-.357.121s-.25.026-.375.006-.244-.055-.357-.115-.214-.131-.302-.224-.161-.19-.218-.303-.087-.238-.103-.363-.012-.25.012-.375.073-.242.133-.351a1.21 1.21 0 0 1 .242-.29c.093-.085.2-.151.321-.2a1.14 1.14 0 0 1 .363-.084c.125-.008.25.004.375.036s.236.083.345.151a1.09 1.09 0 0 1 .454.581c.044.121.067.244.067.369l.006.194-.254 1.542-.429 2.511-.284 2.111-.181 2.783-.175 3.31-.133 1.821a1.33 1.33 0 0 1-.109.308c-.048.093-.109.182-.181.266s-.147.154-.236.218a1.43 1.43 0 0 1-.284.151 1.36 1.36 0 0 1-.309.085 1.19 1.19 0 0 1-.315.006c-.109-.012-.214-.036-.314-.072a1.41 1.41 0 0 1-.29-.146c-.089-.06-.169-.129-.242-.205a1.41 1.41 0 0 1-.187-.266 1.28 1.28 0 0 1-.121-.297 1.23 1.23 0 0 1-.042-.321l-.006-.151z"/><path d="M60.812 112.429l.272 1.034c.177.69.292 1.626.345 2.807l.194 3.255.212 2.487.175 1.839.091 1.887.006 1.779-.006.901a1.73 1.73 0 0 1-.03.327 1.74 1.74 0 0 1-.103.309 1.31 1.31 0 0 1-.169.272 1.73 1.73 0 0 1-.23.224 1.37 1.37 0 0 1-.278.157 1.24 1.24 0 0 1-.309.091c-.105.016-.216.024-.321.012s-.214-.028-.314-.061a1.05 1.05 0 0 1-.29-.139 1.36 1.36 0 0 1-.254-.199 1.55 1.55 0 0 1-.194-.254 2.09 2.09 0 0 1-.121-.297 1.45 1.45 0 0 1-.048-.321c-.008-.104.018-.494.079-1.167l.315-2.698.538-3.195.429-2.389c.085-.585.486-1.255 1.204-2.009s1.367-.637 1.935.351.837 2.004.816 3.061l-.194 3.303-.248 3.17c-.056.96-.028 1.684.085 2.172s.161.787.145.884a1.11 1.11 0 0 1-.079.278 1.15 1.15 0 0 1-.139.248 1.06 1.06 0 0 1-.194.212 1.56 1.56 0 0 1-.242.157c-.089.044-.179.077-.272.097a1.12 1.12 0 0 1-.284.024.98.98 0 0 1-.55-.151 1.07 1.07 0 0 1-.236-.17c-.073-.069-.131-.137-.187-.217a1.21 1.21 0 0 1-.127-.261 1.53 1.53 0 0 1-.061-.278c-.008-.097.163-.569.514-1.415l1.04-2.487a8.3 8.3 0 0 1 1.421-2.257c.604-.69 1.163-.619 1.675.2s.75 1.627.702 2.426-.181 1.648-.399 2.535l-.448 2.063-.169.932a2.52 2.52 0 0 1-.097.332 1.03 1.03 0 0 1-.139.273c-.056.084-.123.163-.2.236s-.159.127-.248.175-.189.085-.29.109-.198.042-.302.042a1.3 1.3 0 0 1-.302-.036 1.47 1.47 0 0 1-.29-.103c-.093-.044-.177-.107-.254-.175a1.33 1.33 0 0 1-.206-.224 1.2 1.2 0 0 1-.145-.272 1.28 1.28 0 0 1-.073-.297c-.016-.101-.018-.204-.006-.308s.242-.46.689-1.077 1.123-1.263 2.014-1.936 1.827-1.18 2.806-1.507 1.615-.326 1.905 0 .409.906.357 1.749a10.9 10.9 0 0 1-.43 2.444l-.653 2.105c-.198.617-.524 1.426-.98 2.426a14.82 14.82 0 0 1-1.657 2.807l-1.802 2.42-1.312 1.809-.95 1.482-1.058 1.797-.859 1.604c-.173.391-.312.851-.417 1.379l-.472 2.148-.623 2.48-.556 2.36-.315 1.445a1.51 1.51 0 0 1-.187.4 1.24 1.24 0 0 1-.308.314 1.35 1.35 0 0 1-.393.2c-.141.044-.286.067-.435.067a1.5 1.5 0 0 1-.435-.079c-.137-.053-.264-.123-.381-.212a1.46 1.46 0 0 1-.302-.327c-.081-.125-.139-.26-.175-.405a1.45 1.45 0 0 1-.042-.435 1.42 1.42 0 0 1 .103-.43 1.38 1.38 0 0 1 .23-.375 1.33 1.33 0 0 1 .345-.278 1.29 1.29 0 0 1 .411-.158 1.48 1.48 0 0 1 .441-.018 1.4 1.4 0 0 1 .417.127 1.29 1.29 0 0 1 .363.254 1.27 1.27 0 0 1 .254.351c.064.133.113.274.133.424a1.32 1.32 0 0 1-.006.435c-.028.145-.071.289-.139.418a1.31 1.31 0 0 1-.272.345 1.34 1.34 0 0 1-.369.242 1.45 1.45 0 0 1-.429.114 1.43 1.43 0 0 1-.436-.03c-.146-.032-.28-.093-.405-.169a1.34 1.34 0 0 1-.333-.291 1.33 1.33 0 0 1-.224-.387 1.29 1.29 0 0 1-.085-.429l-.012-.224.333-1.367.544-2.408a18.61 18.61 0 0 0 .309-2.354 12.92 12.92 0 0 1 .478-2.601c.25-.859.5-1.509.738-1.96.23-.452.595-1.015 1.095-1.688l1.403-1.761 1.179-1.349c.347-.403.764-.99 1.252-1.76l1.542-2.493 1.464-2.535c.431-.806.75-1.49.956-2.051l.738-2.069c.29-.815-.059-.776-1.046.115l-1.542 1.482a1.03 1.03 0 0 1-.139.273c-.056.084-.123.163-.2.236s-.159.127-.248.175-.189.085-.29.109-.198.042-.302.042a1.3 1.3 0 0 1-.302-.036 1.47 1.47 0 0 1-.29-.103c-.093-.044-.177-.107-.254-.175a1.33 1.33 0 0 1-.206-.224 1.63 1.63 0 0 1-.145-.272 1.28 1.28 0 0 1-.073-.297c-.016-.101-.018-.204-.006-.308s.05-.212.115-.333.173-.403.314-.859.268-1.071.393-1.858l.351-2.68c.113-.996.317-1.312.611-.949s.294.974 0 1.833l-.811 2.153-.387 1.005c-.012.092-.038.185-.079.278a1.15 1.15 0 0 1-.139.248 1.06 1.06 0 0 1-.194.212 1.56 1.56 0 0 1-.242.157c-.089.044-.179.077-.272.097a1.12 1.12 0 0 1-.284.024.98.98 0 0 1-.55-.151 1.07 1.07 0 0 1-.236-.17c-.073-.069-.131-.137-.187-.217a1.21 1.21 0 0 1-.127-.261 1.53 1.53 0 0 1-.061-.278c-.008-.097.014-.068.067.085s.048-.097-.012-.738-.093-1.454-.097-2.438l.03-3.098-.091-3.073c-.081-.968.097-1.551.532-1.749s.589-.022.46.539c-.129.556-.254 1.317-.375 2.281l-.266 3.206-.206 2.686-.145 1.083a1.74 1.74 0 0 1-.103.309 1.31 1.31 0 0 1-.169.272 1.73 1.73 0 0 1-.23.224 1.37 1.37 0 0 1-.278.157 1.24 1.24 0 0 1-.309.091c-.105.016-.216.024-.321.012s-.214-.028-.314-.061a1.05 1.05 0 0 1-.29-.139 1.36 1.36 0 0 1-.254-.199 1.55 1.55 0 0 1-.194-.254 2.09 2.09 0 0 1-.121-.297 1.45 1.45 0 0 1-.048-.321c-.008-.104.034-.417.127-.937s.137-1.122.133-1.803v-1.821l-.03-1.767c-.028-.641-.113-1.468-.254-2.48l-.381-3.031c-.109-1.013-.266-1.859-.472-2.541l-.327-1.186a1.13 1.13 0 0 1-.006-.308c.008-.109.03-.214.066-.315a1.08 1.08 0 0 1 .139-.284 1.25 1.25 0 0 1 .2-.242 1.48 1.48 0 0 1 .26-.188 1.31 1.31 0 0 1 .29-.121 1.43 1.43 0 0 1 .315-.048 1.14 1.14 0 0 1 .309.03 1.14 1.14 0 0 1 .302.103 1.15 1.15 0 0 1 .266.169 1.36 1.36 0 0 1 .218.236c.065.085.117.176.157.272l.06.152zm-8.763 24.42l1.137.291 2.087.568 1.687.424c.488.093 1.244.312 2.268.659l1.748.666a1.6 1.6 0 0 1 .351.332c.101.134.177.277.23.43a1.52 1.52 0 0 1 .079.484 1.47 1.47 0 0 1-.079.478 1.5 1.5 0 0 1-.224.429c-.101.134-.22.247-.357.339s-.28.162-.442.206a1.53 1.53 0 0 1-.484.054c-.165-.008-.319-.048-.472-.108s-.292-.144-.417-.249a1.53 1.53 0 0 1-.321-.369 1.4 1.4 0 0 1-.175-.453c-.032-.161-.046-.323-.03-.484a1.37 1.37 0 0 1 .133-.472c.069-.149.159-.285.272-.406s.242-.213.387-.29a1.34 1.34 0 0 1 .46-.157c.161-.028.323-.028.484 0a1.61 1.61 0 0 1 .466.151 1.46 1.46 0 0 1 .387.296c.113.117.204.251.272.4s.113.306.133.472a1.51 1.51 0 0 1-.03.484 1.41 1.41 0 0 1-.175.453c-.085.142-.19.265-.315.369s-.264.194-.417.255a1.5 1.5 0 0 1-.478.102c-.165.012-.327-.004-.484-.048l-.236-.067-1.21-.526c-.802-.347-1.48-.589-2.032-.726l-1.651-.46c-.548-.169-1.21-.312-1.984-.429l-1.319-.224c-.117-.04-.226-.091-.327-.151s-.194-.141-.278-.23a1.54 1.54 0 0 1-.218-.285 1.41 1.41 0 0 1-.139-.326 1.75 1.75 0 0 1-.06-.357c-.004-.113.006-.23.03-.351s.06-.23.109-.339.117-.21.194-.302a1.32 1.32 0 0 1 .254-.248 1.55 1.55 0 0 1 .654-.285 1.3 1.3 0 0 1 .351-.012l.181.012zm78.634-17.613l-.72-1.198c-.483-.798-.899-1.367-1.246-1.706s-.782-.31-1.306.085-1.062.696-1.603.901l-1.185.412-.575.151c-.133.024-.266.034-.399.03a1.89 1.89 0 0 1-.399-.066 1.79 1.79 0 0 1-.369-.164 1.69 1.69 0 0 1-.744-.919 1.66 1.66 0 0 1-.073-.393c-.012-.138-.006-.273.019-.406s.058-.26.114-.381a1.97 1.97 0 0 1 .2-.351 1.86 1.86 0 0 1 .284-.284 1.83 1.83 0 0 1 .339-.218c.121-.056.488.071 1.101.381s1.177.43 1.693.369 1.26 0 2.232.182l2.238.338c.516.045 1.012.19 1.488.436.468.242.837.601 1.107 1.077s.379.97.326 1.482-.211.936-.49 1.271a3.38 3.38 0 0 1-1.034.828c-.411.217-.986.357-1.724.406s-1.354-.024-1.85-.218a7 7 0 0 0-1.549-.405 3.85 3.85 0 0 0-1.603.096l-1.542.491c-.492.185-.709.064-.653-.363s.647-.365 1.784.187 1.75.901 1.839 1.059a1.8 1.8 0 0 1 .181.496 1.64 1.64 0 0 1 .012.532c-.024.178-.076.347-.157.508s-.183.301-.308.43a1.76 1.76 0 0 1-.436.309c-.161.08-.33.131-.508.151a1.78 1.78 0 0 1-.526-.012 1.65 1.65 0 0 1-.496-.188 1.5 1.5 0 0 1-.417-.333c-.117-.133-.212-.282-.285-.447s-.11-.333-.127-.515a1.64 1.64 0 0 1 .049-.526c.04-.173.109-.337.205-.49s.216-.28.357-.393.297-.196.466-.26.339-.093.52-.097.353.02.526.073.327.131.472.235a1.65 1.65 0 0 1 .375.376c.105.145.184.304.236.477a1.53 1.53 0 0 1 .066.527 1.66 1.66 0 0 1-.096.52 1.63 1.63 0 0 1-.266.46c-.113.141-.244.258-.394.351a1.71 1.71 0 0 1-.489.212 1.56 1.56 0 0 1-.527.042 1.77 1.77 0 0 1-.514-.127c-.165-.073-.314-.17-.447-.291l-.2-.181-.816-.666c-.545-.447-1.137-.994-1.779-1.639s-.713-1.309-.205-1.978c.504-.674 1.044-1.118 1.621-1.331l2.207-.69c.891-.254 1.764-.345 2.619-.272s1.613.294 2.286.677c.678.375.779.535.303.478l-2.22-.157-2.716-.2c-.81-.076-1.393-.242-1.747-.496s-.271-.335.254-.23.719.172.586.2a1.68 1.68 0 0 1-.399.03 1.89 1.89 0 0 1-.399-.066 1.79 1.79 0 0 1-.369-.164 1.69 1.69 0 0 1-.569-.556 1.5 1.5 0 0 1-.169-.363 1.49 1.49 0 0 1-.079-.393c-.012-.138-.006-.273.019-.406s.058-.26.114-.381a1.97 1.97 0 0 1 .2-.351 1.86 1.86 0 0 1 .284-.284 1.83 1.83 0 0 1 .339-.218c.121-.056.313-.107.575-.151s.703-.194 1.324-.448l1.657-.792c.488-.271 1.014-.38 1.579-.327s1.036.216 1.427.49.801.649 1.216 1.113l1.494 1.785.968 1.258c.056.109.101.222.133.339s.042.242.042.363a1.58 1.58 0 0 1-.042.357 1.51 1.51 0 0 1-.127.339 1.72 1.72 0 0 1-.2.302 1.36 1.36 0 0 1-.272.242c-.101.069-.208.125-.321.17a1.59 1.59 0 0 1-.356.09c-.121.016-.24.018-.357.006a1.85 1.85 0 0 1-.357-.084c-.113-.045-.22-.101-.321-.17a1.42 1.42 0 0 1-.272-.242l-.127-.133z"/><path d="M124.557 125.91l-1.736.442c-1.162.29-2.095.593-2.801.907s-1.173.567-1.403.757-.391.302-.484.338-.195.055-.296.067a1.47 1.47 0 0 1-.296-.006 1.36 1.36 0 0 1-.291-.079c-.092-.04-.179-.088-.26-.145a1.33 1.33 0 0 1-.218-.206c-.064-.076-.12-.159-.169-.248a1.16 1.16 0 0 1-.097-.284c-.02-.097-.03-.196-.03-.296s.018-.2.042-.297.067-.189.115-.278.107-.166.176-.242.143-.137.224-.194.366-.024.846.085 1.206.135 2.19.079 2.24.314 3.768 1.113 2.292 1.268 2.304 1.421a1.4 1.4 0 0 1-.048.448 1.25 1.25 0 0 1-.182.412c-.084.129-.187.24-.308.332s-.252.166-.393.218a1.52 1.52 0 0 1-.448.079c-.153 0-.302-.024-.447-.073-.141-.044-.273-.113-.393-.206a1.34 1.34 0 0 1-.315-.326 1.3 1.3 0 0 1-.194-.406c-.044-.145-.062-.294-.054-.447a1.46 1.46 0 0 1 .091-.442 1.43 1.43 0 0 1 .23-.387 1.24 1.24 0 0 1 .338-.297c.129-.08.266-.139.412-.175s.3-.042.453-.03a1.39 1.39 0 0 1 .436.121c.137.06.262.143.375.248a1.28 1.28 0 0 1 .278.357c.072.133.123.274.151.423a1.44 1.44 0 0 1 0 .454c-.02.149-.066.292-.139.43a1.46 1.46 0 0 1-.266.363c-.109.104-.232.189-.369.254a1.58 1.58 0 0 1-.436.127 1.56 1.56 0 0 1-.453-.018 1.32 1.32 0 0 1-.411-.164c-.134-.076-.25-.173-.351-.29a1.46 1.46 0 0 1-.236-.381l-.085-.212-.937-.23c-.629-.153-1.274-.238-1.936-.254s-1.199-.099-1.615-.248c-.411-.149-.663-.206-.756-.17s-.195.055-.296.067a1.47 1.47 0 0 1-.296-.006 1.36 1.36 0 0 1-.291-.079c-.092-.04-.179-.088-.26-.145a1.33 1.33 0 0 1-.218-.206c-.064-.076-.12-.159-.169-.248a1.16 1.16 0 0 1-.097-.284c-.02-.097-.03-.196-.03-.296s.018-.2.042-.297.067-.189.115-.278.107-.166.176-.242.139-.137.224-.194.256-.143.514-.272l1.596-.847c.803-.432 1.771-.847 2.904-1.246l1.868-.623c.113-.021.224-.027.333-.019s.226.031.339.067a1.62 1.62 0 0 1 .308.139 1.35 1.35 0 0 1 .266.218 1.22 1.22 0 0 1 .206.272c.061.097.107.2.139.309s.051.222.055.339a1.14 1.14 0 0 1-.025.332 1.35 1.35 0 0 1-.102.327c-.049.105-.109.202-.182.29a1.42 1.42 0 0 1-.242.236c-.093.073-.191.131-.296.176l-.157.066z"/><path d="M122.563 118.625l-.672 1.362c-.443.903-1.312 2.26-2.606 4.071l-3.194 4.931-2.189 3.884-1.029 1.785a.88.88 0 0 1-.211.193.8.8 0 0 1-.254.115.82.82 0 0 1-.278.024c-.097-.008-.19-.03-.279-.066a.8.8 0 0 1-.236-.151c-.072-.061-.133-.134-.181-.218a.79.79 0 0 1-.097-.26.85.85 0 0 1-.012-.285.86.86 0 0 1 .079-.266c.04-.089.094-.165.163-.23a.95.95 0 0 1 .23-.169c.085-.045.173-.073.266-.085s.185-.01.278.006a.84.84 0 0 1 .266.091.97.97 0 0 1 .224.175.82.82 0 0 1 .151.236c.036.084.065.18.073.272a.97.97 0 0 1-.018.285c-.024.093-.061.179-.109.26s-.115.151-.188.212a.8.8 0 0 1-.242.139.92.92 0 0 1-.278.054c-.097.004-.189-.008-.278-.036s-.177-.065-.254-.121-.143-.123-.2-.2a.87.87 0 0 1-.127-.248c-.032-.092-.046-.185-.042-.278a.81.81 0 0 1 .048-.278l.049-.133.913-1.688 2.177-4.017c.843-1.553 1.865-3.193 3.067-4.919s2-3.047 2.395-3.975l.659-1.5a1.04 1.04 0 0 1 .164-.212c.064-.06.135-.113.211-.157a.92.92 0 0 1 .242-.109.97.97 0 0 1 .26-.048c.085-.004.17.002.254.018s.174.044.254.084a1.16 1.16 0 0 1 .224.133.96.96 0 0 1 .188.194.88.88 0 0 1 .133.224 1.1 1.1 0 0 1 .096.514c-.008.089-.026.176-.054.26l-.036.127zm-5.554 14.52l-.907 1.404-1.645 2.62-1.246 2.135-.611 1.059c-.073.089-.157.163-.254.224a1.11 1.11 0 0 1-.309.133.97.97 0 0 1-.338.024.92.92 0 0 1-.327-.085c-.105-.044-.2-.105-.284-.181a.98.98 0 0 1-.206-.26 1.03 1.03 0 0 1-.115-.321 1.07 1.07 0 0 1-.006-.339 1.06 1.06 0 0 1 .097-.32 1.11 1.11 0 0 1 .199-.273c.081-.08.172-.145.273-.193a.93.93 0 0 1 .326-.097.93.93 0 0 1 .333.012c.113.02.22.059.32.115a1.08 1.08 0 0 1 .261.212c.076.084.137.179.181.284a1.03 1.03 0 0 1 .079.327c.008.117-.002.23-.031.339a1.09 1.09 0 0 1-.133.308 1.01 1.01 0 0 1-.23.248c-.088.073-.185.129-.29.17a1.19 1.19 0 0 1-.333.06c-.112 0-.223-.016-.332-.048a1.05 1.05 0 0 1-.303-.152 1.02 1.02 0 0 1-.235-.242c-.069-.092-.119-.193-.152-.302s-.046-.22-.042-.333.026-.224.067-.333l.06-.157.538-.907 1.222-2.178 1.494-2.729.901-1.573a1.25 1.25 0 0 1 .206-.205c.076-.061.159-.111.248-.152a1.11 1.11 0 0 1 .272-.084c.097-.021.191-.027.284-.019s.192.021.284.049a1 1 0 0 1 .261.121c.084.048.161.107.229.175s.129.143.182.224a1.33 1.33 0 0 1 .115.266 1 1 0 0 1 .054.285.98.98 0 0 1-.018.284 1.07 1.07 0 0 1-.085.272l-.054.133z"/><path d="M111.467 133.23l-.943 1.119c-.638.747-1.549 1.674-2.734 2.783l-2.909 2.783-1.966 1.985-.95.943c-.08.061-.169.105-.266.134a.83.83 0 0 1-.296.042.89.89 0 0 1-.291-.048c-.096-.037-.183-.085-.26-.146a.88.88 0 0 1-.205-.217c-.053-.085-.093-.176-.121-.273s-.032-.199-.024-.296a1.06 1.06 0 0 1 .066-.291.93.93 0 0 1 .157-.254c.069-.076.146-.139.23-.187a.9.9 0 0 1 .278-.109c.101-.02.202-.024.303-.012a.9.9 0 0 1 .284.085c.089.044.169.1.242.169a.91.91 0 0 1 .175.242.77.77 0 0 1 .091.284c.016.101.016.2 0 .297s-.054.195-.103.284-.109.165-.181.23-.161.123-.254.163a.76.76 0 0 1-.284.079c-.101.008-.2 0-.297-.024a.89.89 0 0 1-.278-.115c-.085-.056-.159-.117-.224-.194s-.115-.163-.151-.26a1.01 1.01 0 0 1-.054-.29.93.93 0 0 1 .036-.297.88.88 0 0 1 .127-.266l.085-.127.84-.847 1.96-2.033 2.758-2.789c1.093-1.073 1.933-2 2.522-2.783l.98-1.264c.064-.065.135-.119.212-.163s.163-.085.248-.109.177-.041.266-.049.177.004.266.024a1.17 1.17 0 0 1 .254.079 1.15 1.15 0 0 1 .23.145c.072.057.137.121.193.194a1.23 1.23 0 0 1 .133.23c.037.084.063.171.079.26a.99.99 0 0 1 .012.266c-.004.089-.02.176-.048.26a1.1 1.1 0 0 1-.115.248l-.073.115zm11.646-1.892l-1.198 1.035-1.802 1.597c-.399.375-.643.66-.732.853s-.169.333-.254.405a1.46 1.46 0 0 1-.278.188c-.101.052-.206.091-.315.115a1.55 1.55 0 0 1-.333.042 1.85 1.85 0 0 1-.332-.042 1.38 1.38 0 0 1-.309-.121c-.1-.052-.193-.117-.278-.194a1.28 1.28 0 0 1-.218-.254c-.064-.092-.117-.191-.157-.296a1.77 1.77 0 0 1-.078-.327c-.013-.113-.011-.224.006-.333s.038-.221.078-.326a1.71 1.71 0 0 1 .163-.297c.065-.092.365-.197.902-.314l2.268-.515c.968-.221 2.068-.322 3.302-.302l2.081.079c.153.032.296.086.429.163a1.54 1.54 0 0 1 .351.29 1.28 1.28 0 0 1 .242.394 1.41 1.41 0 0 1 .109.447 1.31 1.31 0 0 1-.043.454c-.04.149-.102.29-.187.424s-.188.239-.309.332a1.36 1.36 0 0 1-.405.224 1.29 1.29 0 0 1-.447.079 1.3 1.3 0 0 1-.454-.067 1.32 1.32 0 0 1-.411-.205c-.125-.093-.232-.202-.321-.327a1.45 1.45 0 0 1-.199-.418c-.045-.149-.063-.3-.055-.453s.034-.303.091-.448.133-.278.23-.399a1.31 1.31 0 0 1 .344-.303 1.49 1.49 0 0 1 .424-.175 1.35 1.35 0 0 1 .46-.031 1.33 1.33 0 0 1 .441.115 1.44 1.44 0 0 1 .387.248 1.35 1.35 0 0 1 .278.363c.077.138.129.283.158.436a1.33 1.33 0 0 1 .006.454c-.025.153-.071.3-.139.441a1.51 1.51 0 0 1-.273.369c-.113.109-.238.196-.375.261a1.44 1.44 0 0 1-.441.133l-.23.024-1.579-.097c-1.052-.068-2.058-.075-3.018-.018s-1.481.115-1.566.187a1.46 1.46 0 0 1-.278.188c-.101.052-.206.091-.315.115a1.55 1.55 0 0 1-.333.042 1.85 1.85 0 0 1-.332-.042 1.38 1.38 0 0 1-.309-.121c-.1-.052-.193-.117-.278-.194a1.28 1.28 0 0 1-.218-.254c-.064-.092-.117-.191-.157-.296a1.77 1.77 0 0 1-.078-.327c-.013-.113-.011-.224.006-.333s.038-.221.078-.326a1.71 1.71 0 0 1 .163-.297c.061-.092.2-.252.418-.478a9.2 9.2 0 0 1 .919-.81c.399-.314.968-.861 1.694-1.628l1.227-1.24a1.67 1.67 0 0 1 .291-.163 1.28 1.28 0 0 1 .32-.091 1.51 1.51 0 0 1 .327-.012c.113.008.222.03.327.066a1.45 1.45 0 0 1 .302.146 1.33 1.33 0 0 1 .254.211 1.42 1.42 0 0 1 .2.267 1.38 1.38 0 0 1 .127.308c.032.109.05.22.054.333.004.105-.006.212-.03.32a1.54 1.54 0 0 1-.109.321 1.66 1.66 0 0 1-.175.278l-.109.127z"/><path d="M126.104 135.267l-.853 2.68c-.568 1.787-1.352 3.677-2.352 5.669l-2.728 4.943-2.044 3.503-.926 1.681c-.072.093-.157.17-.254.23a1.15 1.15 0 0 1-.32.133 1.08 1.08 0 0 1-.345.031c-.113-.012-.224-.041-.333-.085a1.21 1.21 0 0 1-.29-.188 1.14 1.14 0 0 1-.212-.272 1.15 1.15 0 0 1-.121-.326c-.02-.113-.022-.228-.006-.345a1.04 1.04 0 0 1 .103-.327.97.97 0 0 1 .206-.278 1.03 1.03 0 0 1 .278-.2c.105-.052.216-.087.333-.103s.227-.008.344.012.22.065.321.121.189.133.266.218a1.02 1.02 0 0 1 .187.29c.045.109.071.222.079.339s-.002.226-.03.339-.073.22-.133.321-.143.181-.236.254a1.05 1.05 0 0 1-.296.169c-.113.041-.228.061-.345.061a.97.97 0 0 1-.339-.049.93.93 0 0 1-.308-.151c-.093-.069-.174-.151-.242-.248a1.01 1.01 0 0 1-.151-.309 1.08 1.08 0 0 1-.043-.344 1.06 1.06 0 0 1 .067-.339l.06-.164.932-1.506 2.068-3.412c.754-1.271 1.585-2.858 2.492-4.761s1.611-3.765 2.111-5.572l.81-2.838c.037-.088.085-.171.145-.248a1.14 1.14 0 0 1 .2-.205 1.26 1.26 0 0 1 .248-.152.99.99 0 0 1 .272-.09 1.11 1.11 0 0 1 .284-.025 1.15 1.15 0 0 1 .285.049c.092.028.181.066.266.115a1.45 1.45 0 0 1 .23.175c.068.069.129.145.181.23s.093.167.121.26a1 1 0 0 1 .055.285c.008.092.004.187-.013.284l-.024.145zm8.388-17.144l.291 1.67c.193 1.117.572 2.785 1.137 5.003a54.06 54.06 0 0 1 1.27 6.764c.282 2.295.379 4.384.302 6.267l-.242 4.193c-.076.912-.282 1.769-.616 2.571l-.599 1.319c-.069.081-.147.147-.236.2a.92.92 0 0 1-.284.109c-.105.02-.208.024-.309.012a1 1 0 0 1-.296-.085c-.093-.044-.176-.103-.248-.175a.87.87 0 0 1-.188-.242 1.07 1.07 0 0 1-.09-.291c-.017-.101-.017-.203 0-.308a.96.96 0 0 1 .102-.291c.048-.093.111-.169.188-.242s.157-.125.254-.169.191-.067.296-.079a.96.96 0 0 1 .587.139c.089.053.165.119.23.2a.82.82 0 0 1 .157.26c.036.097.057.198.061.303a.84.84 0 0 1-.031.302c-.032.101-.076.194-.133.278a.97.97 0 0 1-.211.218.82.82 0 0 1-.273.139c-.096.033-.197.049-.302.049s-.206-.016-.302-.049-.186-.084-.267-.145-.155-.139-.211-.224a1.02 1.02 0 0 1-.127-.284 1.08 1.08 0 0 1-.031-.302 1.07 1.07 0 0 1 .067-.297l.06-.145.448-.781c.294-.516.47-1.216.526-2.099l.17-3.993c.052-1.782-.071-3.775-.369-5.977s-.766-4.425-1.391-6.667l-1.331-5.015-.405-1.797a1.08 1.08 0 0 1 .012-.278c.012-.097.038-.19.078-.279a1.31 1.31 0 0 1 .14-.248 1.44 1.44 0 0 1 .199-.206c.073-.06.153-.112.242-.157a1.26 1.26 0 0 1 .272-.091c.093-.02.186-.028.278-.024.097.004.192.02.285.049s.179.06.26.109.161.106.23.175a1.19 1.19 0 0 1 .181.218 1.14 1.14 0 0 1 .127.26l.042.133z"/><path d="M136.154 142.799l-.732 1.41c-.483.944-1.016 1.843-1.596 2.698l-2.026 3.261-2.105 3.836-1.797 3.599-.949 1.864c-.065.088-.143.163-.236.224a1.1 1.1 0 0 1-.296.139c-.105.028-.212.04-.321.036a.96.96 0 0 1-.321-.073c-.101-.041-.193-.096-.278-.169s-.155-.151-.211-.248-.097-.194-.121-.303a.97.97 0 0 1-.019-.326c.013-.109.043-.214.091-.315a.99.99 0 0 1 .182-.266 1.03 1.03 0 0 1 .26-.2.95.95 0 0 1 .308-.103 1.12 1.12 0 0 1 .327 0c.109.017.211.051.308.103a1.03 1.03 0 0 1 .26.2c.073.081.133.169.182.266a1.08 1.08 0 0 1 .084.315c.012.109.006.218-.018.326s-.064.21-.121.303a1.05 1.05 0 0 1-.205.248c-.085.073-.18.129-.285.169a1.02 1.02 0 0 1-.314.073 1.11 1.11 0 0 1-.327-.036 1.21 1.21 0 0 1-.296-.139c-.089-.061-.167-.136-.236-.224a1.12 1.12 0 0 1-.151-.291c-.036-.101-.055-.207-.055-.32s.019-.216.055-.321l.054-.157.95-1.658 1.887-3.575 2.08-3.975 1.888-3.261c.495-.799.959-1.682 1.391-2.65l.719-1.567c.049-.076.105-.147.17-.212a1.08 1.08 0 0 1 .224-.163 1 1 0 0 1 .254-.109c.088-.024.179-.038.272-.042s.177.004.266.024.175.048.26.085a.88.88 0 0 1 .23.151.99.99 0 0 1 .193.2 1.16 1.16 0 0 1 .133.236c.037.084.063.173.079.266a1.24 1.24 0 0 1 .006.272.9.9 0 0 1-.054.266l-.043.133zm-66.356 2.684l-2.214 2.426-4.155 4.496-2.667 3.012-1.258 1.713-.641.883a.96.96 0 0 1-.599.284 1.06 1.06 0 0 1-.339-.018 1.07 1.07 0 0 1-.315-.121c-.097-.056-.183-.129-.26-.218s-.131-.179-.175-.284a1.2 1.2 0 0 1-.072-.333.93.93 0 0 1 .036-.333.93.93 0 0 1 .139-.308.89.89 0 0 1 .23-.248c.093-.068.188-.121.296-.158a1.19 1.19 0 0 1 .333-.06c.113 0 .224.018.333.054a1.09 1.09 0 0 1 .302.158 1.08 1.08 0 0 1 .23.242 1.06 1.06 0 0 1 .145.308.94.94 0 0 1 .036.333.97.97 0 0 1-.073.333 1.05 1.05 0 0 1-.169.29 1.09 1.09 0 0 1-.254.218 1.06 1.06 0 0 1-.315.127c-.113.024-.226.03-.339.018s-.222-.04-.327-.085a1.14 1.14 0 0 1-.278-.187 1.05 1.05 0 0 1-.206-.272c-.052-.101-.089-.206-.109-.315s-.02-.226 0-.339a1.07 1.07 0 0 1 .103-.32l.079-.152.593-.714 1.355-1.754c.512-.698 1.389-1.748 2.631-3.152l4.01-4.598 2.244-2.589c.073-.065.151-.119.236-.164a1.26 1.26 0 0 1 .544-.133.91.91 0 0 1 .278.031 1.26 1.26 0 0 1 .266.102 1.35 1.35 0 0 1 .236.158 1.37 1.37 0 0 1 .188.218 1.31 1.31 0 0 1 .133.248c.036.089.055.181.067.278a1.07 1.07 0 0 1 0 .278 1.26 1.26 0 0 1-.067.272.94.94 0 0 1-.133.254l-.079.121zm39.101.289l.913 1.525c.613 1.02 1.19 2.136 1.73 3.345l1.179 2.959.684 2.402.32 1.446c0 .125-.02.246-.06.363a1.17 1.17 0 0 1-.169.332 1.13 1.13 0 0 1-.267.254c-.1.073-.211.125-.332.158a1.21 1.21 0 0 1-.363.048 1.22 1.22 0 0 1-.363-.079 1.1 1.1 0 0 1-.321-.187c-.096-.081-.177-.174-.242-.278a1.17 1.17 0 0 1-.139-.339c-.028-.125-.036-.248-.024-.369a1.1 1.1 0 0 1 .097-.357c.048-.117.115-.22.2-.309a1.2 1.2 0 0 1 .296-.23 1.1 1.1 0 0 1 .345-.121 1.27 1.27 0 0 1 .369-.006 1.26 1.26 0 0 1 .356.115c.109.061.208.135.297.224a1.02 1.02 0 0 1 .205.303c.057.113.091.232.103.357a1.27 1.27 0 0 1-.012.369c-.024.125-.072.236-.133.344s-.143.2-.236.285-.201.145-.314.193a1.22 1.22 0 0 1-.363.079c-.125.008-.248-.004-.369-.036s-.232-.083-.333-.151-.195-.152-.272-.249a1.13 1.13 0 0 1-.175-.326l-.067-.176-.193-1.131c-.133-.754-.307-1.468-.521-2.142s-.594-1.554-1.143-2.643a24.25 24.25 0 0 0-1.85-3.08l-1.101-1.597a1.22 1.22 0 0 1-.109-.296 1.65 1.65 0 0 1-.03-.309c.004-.105.02-.208.048-.309s.069-.203.121-.296a1.13 1.13 0 0 1 .181-.254 1.32 1.32 0 0 1 .242-.2c.089-.06.184-.107.285-.139a1.64 1.64 0 0 1 .308-.072 1.24 1.24 0 0 1 .309.012 1.13 1.13 0 0 1 .302.078 1.17 1.17 0 0 1 .278.158c.085.06.161.131.23.211l.103.121z"/></g><path d="M91.817 1.985l6.36-.029 14.347-.137 16.376-.196 16.885-.206 17.032-.206 17.081-.206c5.704-.065 9.947.506 12.73 1.715 2.777 1.222 4.541 4.175 5.292 8.859.751 4.691 1.192 9.747 1.323 15.17l.216 16.552-.01 16.895-.069 16.993-.029 17.013.088 17.022.137 17.022.147 17.023.137 17.022.138 17.052c.045 5.69-.543 9.92-1.764 12.69-1.216 2.777-4.182 4.551-8.899 5.322-4.71.771-9.79 1.235-15.238 1.391l-16.621.294-16.973.069-17.072.01-17.1.059-17.101.166-17.101.226-17.11.225-17.101.225-17.12.226c-5.716.072-9.97-.5-12.759-1.715-2.783-1.215-4.547-4.172-5.292-8.869-.738-4.697-1.166-9.757-1.284-15.18l-.186-16.572.049-16.914.098-17.003.059-17.042-.049-17.042-.108-17.042-.118-17.042L1.1 38.783l-.098-17.061c-.039-5.697.549-9.934 1.764-12.71 1.222-2.77 4.188-4.541 8.898-5.312 4.704-.771 9.774-1.232 15.209-1.382l16.601-.265 16.944-.049 17.032.01 17.071-.039 17.061-.147 19.992-.225 11.662-.088c.137.026.264.069.382.127.124.065.235.147.333.245.092.098.167.206.226.323.058.124.094.255.107.392a1.1 1.1 0 0 1-.019.412 1.13 1.13 0 0 1-.147.372c-.072.118-.16.222-.265.314-.098.085-.212.154-.343.206a1.14 1.14 0 0 1-.392.088c-.137.013-.271 0-.402-.039-.137-.033-.261-.088-.372-.167a1.47 1.47 0 0 1-.294-.274c-.085-.111-.15-.232-.196-.363a1.2 1.2 0 0 1 0-.804c.039-.118.101-.232.186-.343a1.35 1.35 0 0 1 .294-.284c.111-.078.232-.134.363-.167a1.23 1.23 0 0 1 .402-.049c.137.007.271.036.401.088.125.046.239.114.343.206.111.085.2.186.265.304a1.19 1.19 0 0 1 .157.372 1.04 1.04 0 0 1 .019.402c-.013.137-.045.268-.098.392a1.17 1.17 0 0 1-.235.333 1.27 1.27 0 0 1-.313.245c-.125.065-.252.111-.383.137l-.205.029h-11.456c-7.638.007-14.302.003-19.992-.01a2478.11 2478.11 0 0 0-17.071.039L77.47 4.19l-17.032.225-16.905.284-16.395.49c-5.331.222-10.13.588-14.396 1.098-4.273.51-6.772 1.8-7.497 3.871s-1.107 5.939-1.147 11.603l-.118 17.022-.127 17.042-.118 17.042-.118 17.042-.069 17.042.059 17.032.127 17.003.186 16.875.402 16.376c.189 5.318.529 10.107 1.019 14.367.49 4.266 1.771 6.755 3.842 7.467s5.948 1.068 11.632 1.068h17.081 17.111l17.101.01 17.101.01 17.111-.059 17.091-.167 17.061-.245 16.934-.303 16.435-.51c5.337-.222 10.146-.591 14.425-1.107 4.273-.517 6.772-1.81 7.497-3.881.725-2.065 1.101-5.926 1.127-11.584l.088-17.002.088-17.023.089-17.032.088-17.022.029-17.022-.088-17.013-.157-16.983-.225-16.856-.431-16.346c-.196-5.312-.543-10.097-1.039-14.357s-1.78-6.746-3.852-7.458c-2.064-.719-5.935-1.078-11.612-1.078l-17.042-.029-17.023-.02-16.895-.029-16.375-.029c-5.325-.013-10.104-.007-14.337.02l-6.488.02a1.49 1.49 0 0 1-.245-.059 1.14 1.14 0 0 1-.216-.118.76.76 0 0 1-.186-.167c-.059-.059-.108-.124-.147-.196a1.15 1.15 0 0 1-.088-.235c-.02-.078-.029-.16-.029-.245s.01-.167.029-.245a.92.92 0 0 1 .088-.235c.039-.072.085-.14.137-.206a.76.76 0 0 1 .186-.167c.065-.039.137-.075.216-.108a1.49 1.49 0 0 1 .245-.059l.118-.02z" fill="#1d1d1d" stroke="#1d1d1d" stroke-width="1.725"/></svg>