<svg xmlns="http://www.w3.org/2000/svg" width="201" height="202" fill="none" xmlns:v="https://vecta.io/nano"><rect y="1" width="200" height="200" rx="16" fill="#fff"/><g fill="#000"><path d="M72.958 74.25l-.583 4.053-.828 7.59-.359 6.143-.17 4.636c-.032 1.353.068 2.847.299 4.482a37.8 37.8 0 0 0 1.031 4.951 44.6 44.6 0 0 0 1.723 5.005l2.205 4.857c.787 1.567 1.71 3.099 2.768 4.596s2.25 2.99 3.561 4.481l3.555 3.926c1.058 1.126 2.101 2.033 3.127 2.72l2.449 1.635c.61.402 1.235.654 1.872.757l2.456.288 3.276.201c1.18.045 2.43-.04 3.751-.254l4.172-.65c1.465-.215 2.736-.485 3.812-.811s1.999-.721 2.782-1.199l2.299-1.293a12.61 12.61 0 0 0 2.056-1.307l1.892-1.587 1.717-1.628a16.79 16.79 0 0 0 1.383-1.588c.421-.554.774-1.204 1.059-1.95l1.051-2.432 1.465-2.967 1.364-3.042c.353-.924.665-1.941.936-3.048s.599-2.169.984-3.182.633-1.892.746-2.633a23.23 23.23 0 0 0 .244-2.298c.045-.791.145-1.624.299-2.499.149-.88.262-1.845.339-2.894l.176-3.001.075-2.76-.021-2.465-.006-2.707.006-2.814-.156-2.599-.237-3.155-.054-2.023c.027-.161.079-.315.156-.462s.181-.277.298-.389c.122-.116.26-.208.414-.275s.314-.116.482-.134a1.55 1.55 0 0 1 .495.027 1.57 1.57 0 0 1 .461.181c.14.085.265.19.373.315a1.61 1.61 0 0 1 .258.422 1.53 1.53 0 0 1 .109.482 1.45 1.45 0 0 1-.055.482c-.045.161-.115.31-.21.449s-.208.252-.339.355a1.66 1.66 0 0 1-.441.228 1.51 1.51 0 0 1-.977 0 1.66 1.66 0 0 1-.441-.228c-.131-.103-.244-.221-.339-.355s-.165-.288-.21-.449a1.42 1.42 0 0 1-.055-.482c.009-.165.046-.326.109-.482a1.61 1.61 0 0 1 .258-.422c.108-.125.233-.23.373-.315a1.56 1.56 0 0 1 .461-.181c.167-.036.332-.045.495-.027s.328.063.482.134.292.159.414.275.217.241.298.389.129.301.156.462l.041.248-.102 1.775-.231 3.155-.162 2.606v2.814l-.027 2.72-.075 2.486-.048 2.807-.101 3.162c-.05 1.139-.152 2.113-.306 2.92l-.359 2.506a18.9 18.9 0 0 1-.427 2.532c-.195.827-.466 1.713-.815 2.66s-.66 2.012-.936 3.196-.592 2.273-.949 3.269-.79 2.044-1.31 3.142l-1.316 2.921-1.092 2.727c-.366.974-.814 1.764-1.343 2.372s-1.074 1.156-1.635 1.634l-1.872 1.628-2.157 1.715c-.756.536-1.493.956-2.212 1.26-.714.299-1.531.723-2.449 1.273-.913.545-1.951.996-3.113 1.353s-2.476.65-3.928.878l-4.348.71c-1.443.25-2.773.364-3.989.341l-3.514-.134c-1.126-.067-2.117-.232-2.971-.495s-1.553-.628-2.11-1.092-1.395-1.081-2.517-1.849-2.225-1.724-3.297-2.868l-3.636-4.02c-1.357-1.536-2.589-3.092-3.697-4.669s-2.064-3.16-2.869-4.763l-2.279-5.018c-.71-1.738-1.307-3.475-1.791-5.212a39.71 39.71 0 0 1-1.099-5.206c-.244-1.733-.355-3.283-.332-4.649l.129-4.683.312-6.244.76-7.664.57-4.18a1.16 1.16 0 0 1 .095-.234c.041-.072.09-.139.149-.201s.122-.116.19-.161a.92.92 0 0 1 .231-.114c.077-.031.158-.051.244-.06s.163-.007.244.007.17.029.251.06.149.072.217.121.136.105.19.168a1.54 1.54 0 0 1 .142.208 1.39 1.39 0 0 1 .088.241c.018.08.027.161.027.241l-.007.127z"/><path d="M51.235 69.205l-1.662.241-3.114.462c-.963.152-1.015.404-.156.757l2.863 1.206c1.049.456 2.096.775 3.141.958l3.202.57 2.897.402a10.14 10.14 0 0 1 2.293.429c.683.214 1.348.351 1.994.409l2.293.181 2.795.161 2.856.094 2.876.06 3.175.054 3.31.034 3.215.027 2.578-.06 2.144-.1 2.422-.04 2.985.027 3.534.067 3.357.194 3.535.248 3.71.114 3.243.06c.999.009 1.949.109 2.849.302a23.73 23.73 0 0 0 2.714.415l2.991.194 3.087.094 2.822.027 2.856.013 3.025.02 2.937.007 2.761-.02 2.225-.094 2.151-.08 2.727.027a21.18 21.18 0 0 0 2.754-.107l2.367-.255 1.968-.208 1.899-.261c.665-.116 1.128-.375 1.391-.777s.323-.822.169-1.273-.495-.739-1.024-.864-1.013-.29-1.452-.496-.947-.389-1.512-.549-1.219-.246-1.947-.241-1.416-.138-2.063-.429-1.243-.447-1.79-.469-1.378-.123-2.504-.301l-2.042-.362a2.42 2.42 0 0 1-.671-.288 2.26 2.26 0 0 1-.543-.489 2.07 2.07 0 0 1-.353-.63c-.085-.228-.131-.464-.135-.71a2.08 2.08 0 0 1 .108-.703 2.17 2.17 0 0 1 .326-.643 2.32 2.32 0 0 1 .516-.509 2.39 2.39 0 0 1 .658-.315 2.2 2.2 0 0 1 .725-.094c.245.009.482.056.713.141s.447.205.637.362a2.19 2.19 0 0 1 .482.536c.131.205.226.427.285.663s.077.476.054.717-.081.473-.176.697a2.18 2.18 0 0 1-.4.603c-.168.179-.358.328-.57.449a2.25 2.25 0 0 1-.692.248 2.47 2.47 0 0 1-.726.013 2.4 2.4 0 0 1-.699-.214 2.39 2.39 0 0 1-.59-.429 2.28 2.28 0 0 1-.421-.59c-.108-.219-.178-.449-.21-.69s-.022-.473.027-.71a2.13 2.13 0 0 1 .251-.677c.127-.21.281-.395.462-.556a2.17 2.17 0 0 1 .617-.388 2.33 2.33 0 0 1 .712-.168l.366-.027 1.615.281 2.646.402a5.48 5.48 0 0 1 1.858.536c.548.281 1.074.427 1.581.436s1.14.094 1.899.255l1.825.456a4.58 4.58 0 0 1 1.336.69 7.51 7.51 0 0 0 1.479.831c.561.237 1.011.534 1.35.891a4.34 4.34 0 0 1 .814 1.239c.208.465.348 1.123.421 1.976s-.147 1.641-.658 2.365-.968 1.271-1.37 1.641-1.113.605-2.144.703l-2.422.127-1.886-.027c-.674.004-1.488.06-2.442.167l-2.869.194-2.727.027-2.151-.087-2.225-.094-2.761-.02c-.936-.004-1.917-.004-2.944 0l-3.025.007c-.995.004-1.952 0-2.87-.013l-2.849-.034-3.161-.067-3.195-.174c-1.004-.085-1.881-.232-2.632-.442s-1.633-.324-2.632-.328-2.087-.007-3.263-.02l-3.792-.067-3.507-.174c-.977-.085-2.062-.118-3.256-.1l-3.534.067-2.985.027-2.422-.04-2.144-.1c-.656-.049-1.515-.069-2.578-.06l-3.215.02-3.31.034-3.188.034-2.89.027-2.903.02c-1.004.013-1.983.009-2.937-.013a19.43 19.43 0 0 1-2.7-.241c-.841-.134-1.488-.324-1.94-.57s-1.122-.4-2.008-.476l-2.964-.335-3.494-.456c-1.235-.161-2.365-.413-3.392-.757l-2.951-.971c-.941-.304-1.714-.851-2.32-1.641s-.798-1.461-.59-2.01.613-.992 1.214-1.327 1.393-.608 2.374-.817l3.114-.683 1.811-.368a1.46 1.46 0 0 1 .312.02c.104.022.206.054.305.094s.19.1.271.167a1.3 1.3 0 0 1 .224.221c.068.085.124.176.17.275a1.57 1.57 0 0 1 .095.302c.018.103.023.206.013.308a1.23 1.23 0 0 1-.054.308c-.032.103-.075.199-.129.288s-.127.172-.203.248-.156.141-.251.194a1.31 1.31 0 0 1-.292.127l-.149.047z"/><path d="M44.948 68.906l.597-.322c.393-.21.902-.411 1.526-.603s1.14-.44 1.547-.744.965-.511 1.689-.636l1.927-.228 2.137-.161 2.198-.174 2.422-.074c1-.009 1.881-.154 2.646-.436a9.53 9.53 0 0 1 2.354-.543l1.947-.134 1.703-.034 1.784-.054 2.205-.047 1.737.04c.235.036.457.109.665.221s.4.252.563.422a2.11 2.11 0 0 1 .393.576c.1.214.163.438.19.67s.014.464-.041.697a2.09 2.09 0 0 1-.258.643 2.13 2.13 0 0 1-.454.529 2.23 2.23 0 0 1-.604.362 2.28 2.28 0 0 1-.692.147 2.18 2.18 0 0 1-.699-.074 2.07 2.07 0 0 1-.638-.295c-.199-.129-.371-.288-.516-.476a2.24 2.24 0 0 1-.326-.616c-.077-.223-.115-.451-.115-.683s.038-.467.115-.69a2.24 2.24 0 0 1 .326-.616c.145-.188.317-.346.516-.476a2.07 2.07 0 0 1 .638-.295 2.18 2.18 0 0 1 .699-.074c.24.013.47.063.692.147s.423.21.604.362a2.13 2.13 0 0 1 .454.529c.122.201.208.418.258.65a1.97 1.97 0 0 1 .041.69 2.12 2.12 0 0 1-.19.67 2.11 2.11 0 0 1-.393.576 2.18 2.18 0 0 1-.563.422c-.208.112-.43.185-.665.221l-.353.06-1.384-.02-2.198-.04-1.75-.04c-.629-.013-1.35-.013-2.164 0l-1.974.107c-.502.058-1.108.214-1.818.469s-1.382.398-2.015.429l-2.137.127c-.791.054-1.533.143-2.225.268a10.07 10.07 0 0 1-1.947.174l-1.926-.034c-.674-.009-1.459.161-2.354.509l-1.947.811-.814.348c-.14.049-.283.08-.427.094s-.283.016-.427-.007a1.61 1.61 0 0 1-.414-.107c-.136-.054-.262-.123-.38-.208s-.228-.183-.319-.295-.176-.226-.244-.355-.111-.263-.142-.402-.047-.284-.047-.422a1.9 1.9 0 0 1 .061-.422 2.02 2.02 0 0 1 .163-.395 1.81 1.81 0 0 1 .583-.63l.183-.121v.007z"/><path d="M74.551 65.841l-.027-1.192c-.018-.795.14-1.943.475-3.444s.932-3.095 1.804-4.77l2.639-4.602 2.008-3.377a13.1 13.1 0 0 1 1.648-2.398c.642-.741 1.425-1.427 2.347-2.057s2.071-1.137 3.433-1.521l3.873-1.226 3.405-1.085 2.727-.69 2.265-.389c.747-.089 1.735-.134 2.965-.134s2.435.105 3.615.315l2.904.389c.76.054 1.678.21 2.754.469 1.081.259 2.139.715 3.175 1.367s1.897 1.128 2.584 1.44 1.411.762 2.171 1.347l2.476 1.996 2.225 1.675c.593.371 1.119.82 1.581 1.346l1.384 1.675 1.187 1.561 1.343 1.675c.561.661.983 1.541 1.268 2.64s.597 1.896.937 2.392.646 1.195.909 2.084.544 1.639.847 2.251l.774 1.702.57 1.514c.167.491.429 1.025.787 1.601l.685 1.159c.104.201.174.411.21.63a1.96 1.96 0 0 1-.007.67c-.041.219-.115.427-.224.623s-.244.377-.407.529a2.14 2.14 0 0 1-.563.368 2.07 2.07 0 0 1-.651.174c-.226.018-.45.002-.672-.047s-.429-.134-.624-.254-.364-.261-.508-.436a1.87 1.87 0 0 1-.346-.57c-.082-.21-.127-.426-.136-.65a2.05 2.05 0 0 1 .081-.663 2.21 2.21 0 0 1 .285-.603 2.13 2.13 0 0 1 .468-.476c.186-.134.387-.237.604-.308a1.95 1.95 0 0 1 .665-.1 2 2 0 0 1 .665.114c.212.076.409.181.59.315a1.95 1.95 0 0 1 .454.489 1.99 1.99 0 0 1 .278.61c.059.214.082.436.068.663a2.01 2.01 0 0 1-.149.65 2.02 2.02 0 0 1-.353.563c-.149.17-.323.313-.522.429s-.402.19-.624.234a2.04 2.04 0 0 1-.678.033 2.02 2.02 0 0 1-.645-.187c-.208-.094-.393-.219-.556-.375l-.244-.234-.78-1.36c-.521-.907-.862-1.737-1.025-2.492-.158-.75-.4-1.367-.726-1.849a5.42 5.42 0 0 1-.692-1.42c-.135-.469-.214-.951-.237-1.447s-.118-1.034-.271-1.601-.371-1.137-.652-1.722-.441-1.126-.468-1.621-.11-1.009-.251-1.541-.393-.998-.759-1.387-.674-.808-.923-1.259-.592-.974-1.031-1.581l-1.018-1.534c-.23-.415-.635-.846-1.214-1.293l-2.225-1.735-2.32-1.836c-.642-.509-1.323-.958-2.042-1.347l-2.34-1.4a8.15 8.15 0 0 0-2.754-1.119l-2.673-.469-2.775-.415c-1.053-.17-2.173-.232-3.357-.188l-2.809.087-2.103.141c-.715.076-1.576.257-2.585.543l-3.405 1.112-3.663 1.152c-1.176.308-2.159.73-2.951 1.266s-1.461 1.112-2.021 1.715-1.074 1.362-1.54 2.264l-1.947 3.397-2.428 4.314c-.787 1.523-1.316 2.961-1.587 4.315s-.409 2.432-.427 3.222l-.041 1.313a.95.95 0 0 1-.061.248 1.11 1.11 0 0 1-.122.228 1.03 1.03 0 0 1-.176.194c-.063.058-.133.107-.21.147a1.15 1.15 0 0 1-.244.094 1.27 1.27 0 0 1-.258.027 1.27 1.27 0 0 1-.258-.027 1.15 1.15 0 0 1-.244-.094.99.99 0 0 1-.21-.147 1.03 1.03 0 0 1-.176-.194 1.1 1.1 0 0 1-.122-.228.95.95 0 0 1-.061-.248l-.014-.127z"/><path d="M139.335 69.716l-.767-.422a5.06 5.06 0 0 0-1.662-.576c-.592-.098-.949-.181-1.071-.248a1.8 1.8 0 0 1-.34-.234 1.71 1.71 0 0 1-.264-.308 1.53 1.53 0 0 1-.183-.369 1.76 1.76 0 0 1-.089-.395 1.55 1.55 0 0 1 .014-.409 1.44 1.44 0 0 1 .109-.395c.049-.125.115-.243.196-.355a1.66 1.66 0 0 1 .285-.302 1.81 1.81 0 0 1 .346-.221c.122-.063.251-.107.387-.134a1.6 1.6 0 0 1 .414-.04c.14.004.275.024.407.06s.764.335 1.885.898l1.873.965a1.53 1.53 0 0 1 .352.302c.1.121.177.255.231.402a1.36 1.36 0 0 1 .088.449 1.48 1.48 0 0 1-.054.449 1.38 1.38 0 0 1-.203.415 1.35 1.35 0 0 1-.333.328c-.126.089-.264.159-.414.208s-.3.065-.454.06a1.34 1.34 0 0 1-.455-.08 1.49 1.49 0 0 1-.719-.563 1.43 1.43 0 0 1-.19-.422c-.036-.147-.049-.297-.04-.449a1.41 1.41 0 0 1 .108-.449c.059-.143.147-.272.251-.389a1.39 1.39 0 0 1 .36-.288c.135-.076.28-.13.434-.161a1.42 1.42 0 0 1 .454-.02 1.52 1.52 0 0 1 .448.134c.14.067.267.156.38.268a1.46 1.46 0 0 1 .278.369c.072.139.113.284.136.435a1.42 1.42 0 0 1-.007.456c-.027.152-.079.295-.156.429a1.34 1.34 0 0 1-.292.362 1.4 1.4 0 0 1-.386.248 1.59 1.59 0 0 1-.455.121 1.33 1.33 0 0 1-.454-.04l-.231-.054-1.771-.59-1.946-.69a1.44 1.44 0 0 1-.333-.234 1.76 1.76 0 0 1-.271-.308 2.06 2.06 0 0 1-.183-.369c-.046-.129-.075-.261-.089-.395a1.55 1.55 0 0 1 .014-.409 1.44 1.44 0 0 1 .109-.395c.049-.125.115-.243.196-.355a1.66 1.66 0 0 1 .285-.302 1.81 1.81 0 0 1 .346-.221c.122-.063.251-.107.387-.134a1.6 1.6 0 0 1 .414-.04c.14.004.275.024.407.06s.554.183 1.255.442c.696.264 1.291.552 1.784.864l.882.583a1.4 1.4 0 0 1 .264.248 1.76 1.76 0 0 1 .183.308 1.36 1.36 0 0 1 .116.348c.022.116.029.232.02.348a1.85 1.85 0 0 1-.061.355 1.43 1.43 0 0 1-.149.328c-.063.102-.138.199-.224.288a1.42 1.42 0 0 1-.292.221c-.104.063-.212.112-.326.147a1.63 1.63 0 0 1-.359.067 1.4 1.4 0 0 1-.36-.02 1.48 1.48 0 0 1-.346-.107l-.169-.074zM77.746 90.138l.407-1.126c.271-.75.59-1.451.957-2.104s.841-1.186 1.438-1.601 1.171-.703 1.723-.864a8.99 8.99 0 0 1 1.73-.322c.606-.054 1.253.063 1.94.335s1.278.607 1.77.992 1.174 1.208 2.042 2.472 1.302 2.001 1.302 2.211a1.71 1.71 0 0 1-.088.59c-.063.196-.156.377-.278.543a1.9 1.9 0 0 1-.441.429 1.98 1.98 0 0 1-.556.261 2.06 2.06 0 0 1-.617.08 1.87 1.87 0 0 1-.604-.127 1.82 1.82 0 0 1-.529-.301 1.9 1.9 0 0 1-.407-.462c-.109-.174-.192-.36-.237-.556s-.063-.398-.041-.603a1.78 1.78 0 0 1 .156-.59c.081-.188.192-.357.332-.509a1.97 1.97 0 0 1 .489-.375 1.78 1.78 0 0 1 .583-.208c.204-.036.409-.038.617-.007a1.88 1.88 0 0 1 .583.188 1.86 1.86 0 0 1 .495.362 1.71 1.71 0 0 1 .36.496 1.82 1.82 0 0 1 .17.583 1.84 1.84 0 0 1-.02.61 2.01 2.01 0 0 1-.224.563c-.104.179-.235.335-.394.469s-.328.246-.522.322a1.82 1.82 0 0 1-.597.141c-.208.013-.414-.005-.617-.054s-.387-.136-.563-.248a2.1 2.1 0 0 1-.454-.415 1.97 1.97 0 0 1-.299-.529l-.102-.288-.597-.804a16.59 16.59 0 0 0-1.201-1.474 1.74 1.74 0 0 0-1.513-.583 2.67 2.67 0 0 0-1.574.657c-.452.389-.782.965-.99 1.728l-.393 1.326a1.92 1.92 0 0 1-.217.355 1.65 1.65 0 0 1-.299.288 1.77 1.77 0 0 1-.353.214 1.54 1.54 0 0 1-.4.121 1.55 1.55 0 0 1-.407.027 1.94 1.94 0 0 1-.414-.074c-.136-.04-.258-.103-.38-.174a1.95 1.95 0 0 1-.326-.248 1.66 1.66 0 0 1-.258-.328 1.57 1.57 0 0 1-.17-.375 1.71 1.71 0 0 1-.075-.402 1.57 1.57 0 0 1 .027-.409l.034-.201zm28.268.007l.428-1.166c.285-.777.678-1.445 1.18-2.003a4.02 4.02 0 0 1 1.906-1.179c.768-.223 1.411-.36 1.927-.422a8.24 8.24 0 0 1 1.519-.034c.498.031 1.099.272 1.805.724a13.21 13.21 0 0 1 1.804 1.373c.498.465 1.113 1.324 1.845 2.579s1.095 1.979 1.086 2.184-.05.395-.122.583a1.83 1.83 0 0 1-.305.516c-.132.156-.283.288-.455.395a1.86 1.86 0 0 1-.563.228c-.199.045-.4.058-.604.04a1.76 1.76 0 0 1-.583-.154 1.86 1.86 0 0 1-.509-.328 1.8 1.8 0 0 1-.373-.469 1.85 1.85 0 0 1-.197-.563c-.036-.201-.04-.4-.013-.596s.095-.391.19-.57a1.77 1.77 0 0 1 .359-.482 1.81 1.81 0 0 1 .495-.335 1.79 1.79 0 0 1 .584-.168 1.83 1.83 0 0 1 .603.02c.199.045.387.116.564.214a1.78 1.78 0 0 1 .468.375 1.74 1.74 0 0 1 .318.509 1.84 1.84 0 0 1 .136.583 1.87 1.87 0 0 1-.054.596 2.03 2.03 0 0 1-.244.543 1.84 1.84 0 0 1-.414.442c-.158.125-.335.221-.529.288a1.82 1.82 0 0 1-.597.101 1.8 1.8 0 0 1-.597-.087c-.195-.062-.376-.154-.543-.275a1.75 1.75 0 0 1-.421-.429c-.118-.17-.203-.344-.257-.536l-.088-.288-.448-.797c-.299-.532-.841-1.128-1.628-1.789s-1.622-.963-2.503-.904-1.418.449-1.608 1.186l-.373 1.286a1.74 1.74 0 0 1-.217.348c-.082.107-.179.203-.292.288a2.11 2.11 0 0 1-.346.208 2.02 2.02 0 0 1-.393.121 2.09 2.09 0 0 1-.407.027c-.136-.009-.272-.034-.407-.074a2.15 2.15 0 0 1-.374-.168 1.77 1.77 0 0 1-.325-.255 1.61 1.61 0 0 1-.251-.322 1.59 1.59 0 0 1-.17-.368 1.74 1.74 0 0 1-.074-.402 1.9 1.9 0 0 1 .027-.395l.04-.201zm-8.309 18.005l-.644.83c-.434.554-.733 1.112-.895 1.675s.097 1.128.794 1.695 1.332.925 1.893 1.072 1.038-.272 1.431-1.26.242-1.82-.454-2.498-1.336-.963-1.933-.865l-1.194.208a1.83 1.83 0 0 1-.604-.007 1.84 1.84 0 0 1-.57-.187 2.04 2.04 0 0 1-.482-.362 1.86 1.86 0 0 1-.339-.496c-.086-.183-.14-.375-.163-.576a1.82 1.82 0 0 1 .034-.589c.041-.196.122-.382.231-.557a1.79 1.79 0 0 1 .394-.455 1.97 1.97 0 0 1 .516-.308 1.93 1.93 0 0 1 .59-.128c.203-.014.398.014.597.067a1.87 1.87 0 0 1 .549.255 1.79 1.79 0 0 1 .434.409 1.71 1.71 0 0 1 .285.529 1.85 1.85 0 0 1 .095.583 1.87 1.87 0 0 1-.095.589 1.95 1.95 0 0 1-.285.53 1.8 1.8 0 0 1-.441.408c-.167.111-.355.195-.55.248a1.95 1.95 0 0 1-.597.067c-.199-.009-.4-.058-.59-.134a1.89 1.89 0 0 1-.516-.308 1.73 1.73 0 0 1-.394-.456 1.91 1.91 0 0 1-.224-.556 1.84 1.84 0 0 1-.027-.589c.023-.201.077-.393.163-.576a1.86 1.86 0 0 1 .339-.496 1.89 1.89 0 0 1 .482-.355l.271-.141 1.852-.308c1.235-.206 2.162-.109 2.781.288s1.122.791 1.52 1.166l1.126 1.045c.352.326.646.735.882 1.226s.339 1.056.298 1.695-.138 1.288-.292 1.936-.407 1.409-.759 2.284-.919 1.474-1.696 1.796-1.425.44-1.94.342l-1.811-.456c-.701-.205-1.474-.5-2.32-.884-.855-.384-1.519-.905-1.994-1.561a3.22 3.22 0 0 1-.617-2.204c.059-.818.237-1.66.536-2.526s.656-1.588 1.085-2.164l.78-1.012c.09-.093.19-.176.298-.248a1.77 1.77 0 0 1 .353-.16c.127-.045.255-.072.387-.081a1.86 1.86 0 0 1 .387.014 1.85 1.85 0 0 1 .373.107c.122.053.235.118.339.194a1.6 1.6 0 0 1 .285.268 1.64 1.64 0 0 1 .21.328 1.73 1.73 0 0 1 .122.362c.027.13.038.257.034.382s-.027.257-.068.382-.086.243-.149.355l-.102.168zm-33.792-8.423l-1.289-.06-2.347-.067a225.02 225.02 0 0 1-2.34-.013c-.859-.004-1.626-.13-2.3-.375s-.737-.797-.19-1.641c.547-.853 1.015-1.083 1.404-.69s.884.811 1.486 1.253l1.757 1.213c.565.362 1.04.391 1.425.087s.475-.366.271-.187-.265.181-.183.02a2.54 2.54 0 0 1 .305-.449c.122-.139.258-.259.407-.362a2.43 2.43 0 0 1 .475-.255 2.19 2.19 0 0 1 .529-.134 2.5 2.5 0 0 1 .55-.007 2.18 2.18 0 0 1 .522.12c.171.062.335.143.489.241a2.36 2.36 0 0 1 .407.355 2.03 2.03 0 0 1 .319.442 2.14 2.14 0 0 1 .197.496 1.99 1.99 0 0 1 .075.536c0 .178-.02.357-.061.536s-.086.793-.136 1.855l-.346 3.571-.407 3.256-.108 1.91-.014.824a1.61 1.61 0 0 1-.115.375 1.76 1.76 0 0 1-.204.341c-.081.103-.174.197-.278.282s-.222.147-.339.201a1.53 1.53 0 0 1-.38.12 1.45 1.45 0 0 1-.393.027 1.44 1.44 0 0 1-.393-.067 1.45 1.45 0 0 1-.366-.154c-.118-.071-.224-.152-.319-.241a1.86 1.86 0 0 1-.251-.308 1.85 1.85 0 0 1-.163-.362c-.041-.125-.066-.255-.075-.389s.194-.629.611-1.5.837-1.494 1.262-1.869a7.17 7.17 0 0 1 1.296-.932c.443-.245.925-.433 1.445-.562s1.171-.094 1.967.093a4.89 4.89 0 0 1 2.062 1.039c.579.496 1.004.965 1.275 1.407a4.88 4.88 0 0 1 .59 1.474c.122.531.113 1.098-.027 1.701s-.633 1.22-1.479 1.863-1.884.868-3.114.676l-2.157-.442c-.208-.094-.393-.221-.556-.382s-.303-.335-.407-.536-.174-.413-.21-.636a1.96 1.96 0 0 1 .007-.67 1.94 1.94 0 0 1 .217-.63 1.98 1.98 0 0 1 .414-.529 2.04 2.04 0 0 1 .57-.375c.208-.094.425-.152.651-.174s.457-.007.678.047a2.18 2.18 0 0 1 .631.247 2.08 2.08 0 0 1 .509.443c.149.174.265.366.346.576s.129.429.142.656a2.07 2.07 0 0 1-.081.664c-.063.218-.16.419-.292.602s-.283.349-.468.483a2.08 2.08 0 0 1-.604.308 2.25 2.25 0 0 1-.665.107 2.15 2.15 0 0 1-.672-.114 2.05 2.05 0 0 1-.597-.321 2.06 2.06 0 0 1-.461-.489 2.02 2.02 0 0 1-.278-.61 2.06 2.06 0 0 1-.068-.663c.014-.228.063-.447.149-.657a2.01 2.01 0 0 1 .353-.569 2.09 2.09 0 0 1 .522-.429 2.06 2.06 0 0 1 .631-.241c.226-.049.452-.06.678-.034l.339.041.577-.027c.384-.014.31-.043-.224-.087s-1.049.116-1.533.482-.73.61-.753.744a1.54 1.54 0 0 1-.115.375 1.76 1.76 0 0 1-.204.341c-.081.103-.174.197-.278.282s-.222.147-.339.201a1.53 1.53 0 0 1-.38.12 1.45 1.45 0 0 1-.393.027 1.44 1.44 0 0 1-.393-.067 1.45 1.45 0 0 1-.366-.154 1.52 1.52 0 0 1-.319-.241 1.86 1.86 0 0 1-.251-.308 1.85 1.85 0 0 1-.163-.362c-.041-.125-.066-.255-.075-.389s.018-.397.081-.803c.063-.411.09-1.061.081-1.95v-3.182c.005-1.229-.05-2.332-.163-3.31-.108-.973-.142-1.764-.102-2.371s.095-.985.176-1.146a2.54 2.54 0 0 1 .305-.449c.122-.139.258-.259.407-.362a2.43 2.43 0 0 1 .475-.255 2.19 2.19 0 0 1 .529-.134 2.5 2.5 0 0 1 .55-.007 2.18 2.18 0 0 1 .522.12c.171.062.335.143.489.241a2.36 2.36 0 0 1 .407.355c.127.134.233.279.319.436a2.24 2.24 0 0 1 .197.502 2.36 2.36 0 0 1 .075.536c0 .178-.02.357-.061.536s-.226.433-.556.777l-1.221 1.333c-.475.545-1.038.911-1.689 1.099s-1.244.21-1.777.053c-.529-.151-1.115-.397-1.757-.737s-1.18-.667-1.628-.984l-1.628-1.233c-.642-.509-1.165-.983-1.567-1.42a4.28 4.28 0 0 1-.902-1.541c-.203-.594.056-1.26.767-2.01s1.438-.918 2.184-.502 1.463.668 2.15.757 1.382.127 2.083.127l2.347-.067 1.486-.033a1.56 1.56 0 0 1 .4.094c.131.049.246.112.359.188s.215.165.305.268.167.208.231.328a1.58 1.58 0 0 1 .142.375c.031.129.047.261.047.395s-.016.266-.047.395-.079.255-.142.375-.14.23-.231.328-.192.192-.305.268-.233.139-.359.188-.265.08-.4.094l-.197.027z"/><path d="M95.433 116.282l-1.146.482c-.769.322-1.782.833-3.039 1.535s-2.77 1.666-4.552 2.894a50 50 0 0 0-4.993 3.932c-1.556 1.394-2.826 2.66-3.812 3.799s-1.7 2.061-2.144 2.767-.814 1.373-1.112 2.003l-.563 1.092a1.22 1.22 0 0 1-.278.248 1.06 1.06 0 0 1-.339.154 1.2 1.2 0 0 1-.373.034 1.07 1.07 0 0 1-.36-.088c-.118-.049-.224-.113-.319-.194s-.174-.181-.237-.288a1.04 1.04 0 0 1-.129-.342c-.027-.12-.032-.243-.014-.368s.047-.243.102-.355a1.33 1.33 0 0 1 .217-.302 1.43 1.43 0 0 1 .299-.214 1.13 1.13 0 0 1 .359-.114 1.14 1.14 0 0 1 .373.007 1.08 1.08 0 0 1 .346.127 1.05 1.05 0 0 1 .298.228 1.22 1.22 0 0 1 .204.308c.05.112.079.23.088.355s.004.248-.027.369a1.01 1.01 0 0 1-.142.335c-.068.107-.149.201-.244.281s-.208.136-.326.181-.24.069-.366.074-.244-.012-.366-.047-.233-.09-.332-.161-.194-.156-.271-.255a1.32 1.32 0 0 1-.17-.328 1.13 1.13 0 0 1-.047-.368c0-.126.02-.246.061-.362l.068-.174.604-.932 1.364-2.09c.507-.768 1.271-1.762 2.293-2.981s2.338-2.571 3.935-4.053 3.297-2.872 5.101-4.181l4.674-3.175 3.114-1.722 1.302-.549c.1-.032.204-.05.312-.054a1.38 1.38 0 0 1 .305.02c.109.022.21.054.305.094s.186.1.271.167.154.141.217.221.122.177.163.275.077.194.095.302c.018.102.023.203.014.301a1.38 1.38 0 0 1-.061.308c-.032.103-.077.199-.136.288a1.1 1.1 0 0 1-.197.241c-.077.076-.161.141-.251.195l-.136.08z"/><path d="M72.887 134.806l-1.838 1.729-3.039 3.048c-.796.88-1.436 1.351-1.92 1.413s-.004-.388 1.438-1.353l3.602-2.378c.954-.621 1.707-1.405 2.259-2.352l.95-1.581a1.26 1.26 0 0 1 .305-.294c.113-.085.24-.148.38-.188s.276-.058.421-.054a1.37 1.37 0 0 1 .42.081 1.36 1.36 0 0 1 .366.207 1.32 1.32 0 0 1 .285.309 1.22 1.22 0 0 1 .163.388 1.16 1.16 0 0 1 .034.416 1.14 1.14 0 0 1-.102.401c-.054.134-.131.253-.231.356s-.206.194-.332.261-.255.12-.4.147-.28.029-.421.007-.28-.058-.407-.121-.247-.145-.346-.248a1.18 1.18 0 0 1-.251-.341c-.063-.125-.104-.259-.122-.402s-.014-.277.014-.416a1.19 1.19 0 0 1 .149-.388 1.15 1.15 0 0 1 .265-.328 1.43 1.43 0 0 1 .359-.228c.131-.054.269-.087.414-.101a1.53 1.53 0 0 1 .427.034c.136.036.264.091.387.167a1.27 1.27 0 0 1 .319.282 1.17 1.17 0 0 1 .204.368c.05.13.077.266.081.409a1.2 1.2 0 0 1-.061.415l-.061.201-1.309 1.802c-.868 1.206-1.784 2.169-2.747 2.888l-3.127 2.211c-1.121.746-2.067 1.255-2.835 1.527s-1.368.279-1.811.02-.669-.694-.678-1.306a2.78 2.78 0 0 1 .468-1.648c.326-.487.886-1.217 1.682-2.191l2.944-3.283 1.879-1.916a1.5 1.5 0 0 1 .285-.167c.104-.045.21-.078.319-.101a1.62 1.62 0 0 1 .326-.02c.108.009.217.029.326.06s.204.076.299.134.183.125.264.201a1.65 1.65 0 0 1 .204.262c.059.093.104.192.136.294a1.63 1.63 0 0 1 .061.322c.004.107-.002.214-.02.322a1.61 1.61 0 0 1-.102.315 1.5 1.5 0 0 1-.17.281l-.102.127z"/><path d="M74.991 137.536l.163 1.628.115 1.896a1.68 1.68 0 0 1-.183.489c-.091.156-.201.293-.332.409s-.287.214-.455.281-.335.114-.516.127-.351-.002-.522-.046a1.59 1.59 0 0 1-.488-.208c-.149-.094-.28-.21-.394-.348s-.194-.291-.258-.456a1.59 1.59 0 0 1-.102-.516c-.005-.179.02-.353.075-.522a1.64 1.64 0 0 1 .237-.469c.104-.143.231-.266.38-.369s.303-.181.475-.234.339-.076.516-.067.355.038.522.1.326.143.461.255a1.66 1.66 0 0 1 .359.395 1.52 1.52 0 0 1 .204.482 1.56 1.56 0 0 1 .047.523 1.7 1.7 0 0 1-.136.509 1.54 1.54 0 0 1-.285.442c-.118.13-.255.239-.414.329a1.72 1.72 0 0 1-.502.174 1.52 1.52 0 0 1-.529.013 1.59 1.59 0 0 1-.502-.154c-.158-.08-.301-.183-.427-.308s-.231-.266-.312-.422a1.81 1.81 0 0 1-.156-.503l-.034-.268-.081-1.326-.095-1.514a1.74 1.74 0 0 1 .027-.375 1.75 1.75 0 0 1 .122-.356c.054-.116.122-.223.203-.321a1.74 1.74 0 0 1 .278-.268 1.41 1.41 0 0 1 .332-.188 1.71 1.71 0 0 1 .366-.107 1.52 1.52 0 0 1 .373-.02 1.78 1.78 0 0 1 .38.08c.122.036.238.09.346.161s.208.145.299.235.167.194.231.301.12.228.156.349l.054.187z"/><path d="M72.099 139.076l.02.355c.014.237-.029.462-.129.677a1.45 1.45 0 0 1-.434.542c-.185.148-.398.244-.638.288-.231.04-.461.025-.692-.047s-.425-.185-.597-.355a1.38 1.38 0 0 1-.359-.589 1.41 1.41 0 0 1-.047-.684c.045-.236.142-.446.292-.629a1.46 1.46 0 0 1 1.235-.556 1.5 1.5 0 0 1 .665.207 1.43 1.43 0 0 1 .495.489l.19.302zm-1.916-2.573l-1.146.201c-.769.134-1.809.455-3.12.964l-2.212.811a1.44 1.44 0 0 1-.482.013 1.36 1.36 0 0 1-.455-.134c-.145-.072-.276-.163-.393-.274a1.46 1.46 0 0 1-.278-.382 1.45 1.45 0 0 1-.142-.449 1.53 1.53 0 0 1 .007-.476 1.54 1.54 0 0 1 .163-.442 1.58 1.58 0 0 1 .298-.368c.122-.108.255-.195.4-.262a1.56 1.56 0 0 1 .468-.114c.158-.013.317-.002.475.034s.305.103.441.188a1.48 1.48 0 0 1 .36.314 1.62 1.62 0 0 1 .237.409 1.44 1.44 0 0 1 .088.462c.004.16-.011.317-.061.469a1.36 1.36 0 0 1-.21.422 1.34 1.34 0 0 1-.332.342 1.41 1.41 0 0 1-.427.208c-.153.045-.312.071-.475.067a1.53 1.53 0 0 1-.468-.087 1.49 1.49 0 0 1-.421-.228 1.38 1.38 0 0 1-.319-.349c-.09-.134-.156-.279-.197-.435s-.05-.313-.041-.469a1.47 1.47 0 0 1 .115-.462c.063-.148.149-.279.258-.396a1.4 1.4 0 0 1 .366-.301l.21-.121 2.225-.777 3.378-1.011 1.33-.235a1.31 1.31 0 0 1 .346.02 1.8 1.8 0 0 1 .332.101 1.58 1.58 0 0 1 .305.181 1.28 1.28 0 0 1 .251.248 1.4 1.4 0 0 1 .183.294c.05.108.086.219.109.335a1.23 1.23 0 0 1 .02.342 1.48 1.48 0 0 1-.061.342 1.56 1.56 0 0 1-.142.315 1.71 1.71 0 0 1-.217.281 1.41 1.41 0 0 1-.278.214 1.59 1.59 0 0 1-.319.141l-.17.054zm54.106-10.163l1.499 1.152c.995.768 2.065 1.84 3.209 3.216s2.293 2.925 3.446 4.649c1.148 1.729 2.139 3.422 2.971 5.079l1.92 3.959a15.61 15.61 0 0 1 .99 2.901c.217.947.342 2.061.373 3.343l-.081 4.026-.333 3.846-.257 3.517-.102 1.929a1 1 0 0 1-.136.315 1.04 1.04 0 0 1-.23.255c-.091.071-.19.127-.299.167a1.12 1.12 0 0 1-.346.067.97.97 0 0 1-.339-.047c-.113-.035-.217-.087-.312-.154s-.176-.147-.244-.241a1.09 1.09 0 0 1-.156-.308c-.032-.107-.048-.219-.048-.335s.027-.228.068-.335a1.09 1.09 0 0 1 .17-.301 1.02 1.02 0 0 1 .257-.228 1.05 1.05 0 0 1 .319-.134c.113-.027.229-.036.346-.027a1.06 1.06 0 0 1 .333.08c.104.044.205.108.291.188a.91.91 0 0 1 .217.261 1.08 1.08 0 0 1 .123.322c.022.116.024.23.006.342a.92.92 0 0 1-.101.328c-.05.103-.116.196-.197.281a1.12 1.12 0 0 1-.285.195.96.96 0 0 1-.332.1c-.114.018-.229.016-.346-.007a1 1 0 0 1-.319-.12.9.9 0 0 1-.272-.215.97.97 0 0 1-.19-.288 1 1 0 0 1-.081-.328l-.014-.174.231-1.776.421-3.483.305-3.725.075-3.779c-.032-1.174-.129-2.173-.292-2.994-.163-.827-.464-1.72-.902-2.68l-1.873-3.805c-.805-1.586-1.77-3.21-2.896-4.871l-3.263-4.375c-1.054-1.255-2.087-2.255-3.1-3.001l-1.608-1.199a.98.98 0 0 1-.156-.201.77.77 0 0 1-.109-.228 1.17 1.17 0 0 1-.054-.248c-.004-.08 0-.163.014-.248s.038-.161.074-.241a.89.89 0 0 1 .129-.214.88.88 0 0 1 .177-.188 1.68 1.68 0 0 1 .217-.134c.081-.036.163-.06.244-.074a.98.98 0 0 1 .251-.02 1.24 1.24 0 0 1 .251.04 1.64 1.64 0 0 1 .237.101l.109.067zm-39.779 5.453l-1.723.348c-1.153.232-2.16.623-3.019 1.172s-1.556 1.106-2.103 1.655-1.027 1.208-1.452 1.976l-.753 1.32a1.21 1.21 0 0 1-.292.295c-.113.08-.235.141-.366.181a1.17 1.17 0 0 1-.414.06 1.17 1.17 0 0 1-.407-.074c-.131-.044-.251-.109-.36-.194a1.27 1.27 0 0 1-.278-.301c-.077-.116-.133-.241-.17-.375s-.043-.271-.034-.409a1.21 1.21 0 0 1 .095-.395 1.3 1.3 0 0 1 .217-.342 1.26 1.26 0 0 1 .319-.261c.122-.072.251-.121.387-.148a1.28 1.28 0 0 1 .414-.013c.136.018.274.056.4.114a1.35 1.35 0 0 1 .339.234c.099.099.181.21.244.335a1.15 1.15 0 0 1 .122.389 1.37 1.37 0 0 1-.007.408c-.027.134-.075.262-.142.382a1.15 1.15 0 0 1-.251.322 1.23 1.23 0 0 1-.346.221c-.127.058-.26.092-.4.1a1.28 1.28 0 0 1-.414-.026 1.31 1.31 0 0 1-.38-.154 1.39 1.39 0 0 1-.312-.275 1.16 1.16 0 0 1-.204-.348c-.046-.125-.079-.264-.088-.402s.014-.275.054-.409l.061-.194.95-1.421c.633-.951 1.28-1.753 1.94-2.405s1.535-1.351 2.612-2.083 2.189-1.26 3.338-1.595l1.893-.529a1.54 1.54 0 0 1 .346 0c.118.013.231.042.339.087a1.28 1.28 0 0 1 .312.161c.1.062.188.138.264.228a1.19 1.19 0 0 1 .204.288 1.64 1.64 0 0 1 .129.321 1.53 1.53 0 0 1 .041.349 1.43 1.43 0 0 1-.041.335 1.44 1.44 0 0 1-.122.328 1.38 1.38 0 0 1-.203.288 1.58 1.58 0 0 1-.258.234c-.095.067-.204.121-.312.161l-.17.061zm-12.418 14.07l-.359 2.264-.753 4.784-.57 4.133-.231 3.182-.088 1.756a1.14 1.14 0 0 1-.142.361 1.06 1.06 0 0 1-.258.289 1.24 1.24 0 0 1-.332.201 1.13 1.13 0 0 1-.38.08c-.131.005-.26-.005-.387-.04a1.28 1.28 0 0 1-.353-.161 1.24 1.24 0 0 1-.285-.261 1.48 1.48 0 0 1-.183-.342c-.041-.125-.061-.252-.061-.382a1.12 1.12 0 0 1 .068-.382c.041-.12.099-.232.176-.335s.176-.192.285-.268a1.25 1.25 0 0 1 .353-.16c.127-.032.255-.045.387-.041a1.36 1.36 0 0 1 .38.081c.122.049.235.116.339.201s.183.183.251.294a1.15 1.15 0 0 1 .142.356c.027.129.034.259.02.388a1.22 1.22 0 0 1-.102.369c-.059.116-.133.221-.224.314s-.192.172-.305.235a1.12 1.12 0 0 1-.373.121 1.14 1.14 0 0 1-.387 0 1.12 1.12 0 0 1-.373-.121 1.29 1.29 0 0 1-.305-.235 1.14 1.14 0 0 1-.217-.314 1.12 1.12 0 0 1-.109-.376l-.02-.194.163-1.594.271-3.27.387-4.2.502-4.811.258-2.438c.027-.112.068-.217.122-.315.054-.103.12-.197.197-.281a1.56 1.56 0 0 1 .258-.228 1.47 1.47 0 0 1 .305-.154c.108-.04.222-.067.339-.081a1.48 1.48 0 0 1 .339 0c.113.014.224.041.332.081a1.32 1.32 0 0 1 .305.161 1.55 1.55 0 0 1 .258.227 1.37 1.37 0 0 1 .197.282 1.38 1.38 0 0 1 .122.321 1.4 1.4 0 0 1 .041.329v.174zm44.405-12.196l.224 2.131c.154 1.424.208 2.941.163 4.549l-.251 4.421-.489 3.424a23.45 23.45 0 0 0-.434 2.746l-.183 1.528a1.22 1.22 0 0 1-.176.335 1.14 1.14 0 0 1-.272.261 1.08 1.08 0 0 1-.346.168c-.126.035-.253.051-.38.047s-.257-.036-.379-.081a1.28 1.28 0 0 1-.333-.187c-.099-.085-.183-.181-.251-.288s-.115-.224-.142-.349-.041-.252-.027-.382a1.08 1.08 0 0 1 .094-.368 1.27 1.27 0 0 1 .211-.315 1.29 1.29 0 0 1 .305-.235 1.18 1.18 0 0 1 .36-.127c.131-.022.26-.022.386 0a1.21 1.21 0 0 1 .367.114 1.05 1.05 0 0 1 .298.228 1.19 1.19 0 0 1 .224.308 1.29 1.29 0 0 1 .108.369c.014.125.007.25-.02.375a1.04 1.04 0 0 1-.136.355 1.09 1.09 0 0 1-.244.295c-.095.084-.201.151-.319.201a1.11 1.11 0 0 1-.373.08 1.22 1.22 0 0 1-.386-.034c-.122-.031-.238-.082-.346-.154a1.18 1.18 0 0 1-.285-.261 1 1 0 0 1-.183-.328c-.046-.121-.068-.246-.068-.375v-.195l.285-1.373.542-2.653c.177-.849.303-1.921.38-3.216l.095-4.187a27.97 27.97 0 0 0-.373-4.355l-.353-2.284c0-.103.014-.208.041-.315a1.16 1.16 0 0 1 .109-.302 1.2 1.2 0 0 1 .183-.268 1.31 1.31 0 0 1 .244-.221 1.51 1.51 0 0 1 .285-.154 1.32 1.32 0 0 1 .319-.08 1.31 1.31 0 0 1 .319 0c.108.009.214.033.318.074a1.31 1.31 0 0 1 .292.14c.091.063.174.134.251.215a1.53 1.53 0 0 1 .19.261c.05.098.088.199.115.301l.041.161zm5.323-3.242l.142 1.42.184 3.45.047 4-.163 3.584-.251 2.767-.074 1.99.04 1.661c.018.559-.208 1.363-.678 2.412s-.769 1.608-.909 1.662a1.47 1.47 0 0 1-.434.093c-.154.009-.303-.006-.448-.047a1.39 1.39 0 0 1-.407-.187 1.45 1.45 0 0 1-.319-.302c-.09-.12-.16-.252-.21-.395s-.072-.283-.068-.435.023-.293.068-.436a1.49 1.49 0 0 1 .21-.388c.091-.116.199-.217.326-.302a1.27 1.27 0 0 1 .407-.181c.145-.04.292-.056.441-.047a1.25 1.25 0 0 1 .441.094c.14.054.264.13.373.228s.21.21.291.335.132.266.163.409.039.294.021.442-.055.29-.122.429c-.064.134-.147.254-.251.361a1.53 1.53 0 0 1-.346.268c-.136.067-.279.114-.428.141a1.21 1.21 0 0 1-.441-.007 1.34 1.34 0 0 1-.427-.14c-.131-.067-.249-.157-.353-.268a1.39 1.39 0 0 1-.251-.362c-.063-.139-.102-.282-.115-.429a1.44 1.44 0 0 1 .02-.435 1.51 1.51 0 0 1 .17-.416 1.4 1.4 0 0 1 .291-.335l.17-.14.075-.429c.054-.286.106-.722.156-1.307l.19-1.741.285-2.004.251-2.626c.063-.996.07-2.141.02-3.437l-.217-3.832c-.095-1.259-.238-2.358-.428-3.296l-.291-1.581c-.005-.107.004-.217.027-.328a1.39 1.39 0 0 1 .115-.322c.05-.103.113-.199.19-.288a1.27 1.27 0 0 1 .251-.234c.091-.067.19-.123.299-.168.108-.04.219-.069.332-.087s.231-.022.339-.013a1.7 1.7 0 0 1 .339.073c.109.041.211.092.306.154s.187.134.264.215a1.5 1.5 0 0 1 .211.275c.054.102.097.207.128.314l.048.168zm-33.219 1.774l.359 1.507c.235 1.014.4 2.271.495 3.772l.183 4.107.109 2.914.203 2.974.088 2.131a1.3 1.3 0 0 1-.142.429 1.23 1.23 0 0 1-.271.355c-.113.103-.233.192-.373.254a1.39 1.39 0 0 1-.441.128 1.44 1.44 0 0 1-.455-.02 1.57 1.57 0 0 1-.421-.168c-.136-.076-.253-.172-.353-.288s-.179-.243-.238-.382a1.33 1.33 0 0 1-.095-.442c-.009-.152 0-.302.041-.449a1.42 1.42 0 0 1 .19-.409 1.35 1.35 0 0 1 .312-.328c.122-.094.256-.158.4-.208a1.51 1.51 0 0 1 .448-.08 1.45 1.45 0 0 1 .454.074 1.26 1.26 0 0 1 .4.207 1.46 1.46 0 0 1 .319.322 1.35 1.35 0 0 1 .19.409 1.51 1.51 0 0 1 .054.449c-.009.151-.041.297-.095.435a1.41 1.41 0 0 1-.237.389 1.33 1.33 0 0 1-.339.294 1.29 1.29 0 0 1-.427.168 1.31 1.31 0 0 1-.454.027c-.149-.014-.294-.052-.434-.114a1.56 1.56 0 0 1-.38-.255 1.33 1.33 0 0 1-.278-.355 1.43 1.43 0 0 1-.149-.422l-.041-.228.081-1.882.088-2.928-.108-2.854-.339-3.792c-.145-1.331-.387-2.485-.726-3.464l-.543-1.641a1.5 1.5 0 0 1-.014-.348c.014-.121.038-.237.075-.349a1.51 1.51 0 0 1 .156-.321c.068-.103.145-.194.231-.275s.183-.156.292-.214a1.26 1.26 0 0 1 .332-.141 1.65 1.65 0 0 1 .353-.054c.118-.005.235.005.353.027a1.76 1.76 0 0 1 .346.114 1.69 1.69 0 0 1 .305.194 1.49 1.49 0 0 1 .251.255 1.43 1.43 0 0 1 .176.315l.068.161zm5.585 2.455l.366 1.058c.244.715.407 1.699.489 2.955l.142 3.718.014 3.39.081 3.443.061 2.077a1.07 1.07 0 0 1-.122.368c-.063.116-.136.215-.231.309a1.19 1.19 0 0 1-.319.214 1.08 1.08 0 0 1-.373.107 1.16 1.16 0 0 1-.394-.013 1.13 1.13 0 0 1-.359-.141 1.21 1.21 0 0 1-.299-.248 1.23 1.23 0 0 1-.204-.321 1.2 1.2 0 0 1-.088-.375c-.009-.13.002-.257.034-.382s.091-.244.163-.355a1.21 1.21 0 0 1 .265-.282c.104-.08.217-.14.339-.181a1.17 1.17 0 0 1 .387-.067 1.25 1.25 0 0 1 .387.061c.127.041.237.098.346.174a1.1 1.1 0 0 1 .264.274 1.15 1.15 0 0 1 .17.349 1.21 1.21 0 0 1 .047.382c-.005.129-.032.254-.081.375a1.16 1.16 0 0 1-.197.335c-.086.098-.183.181-.292.248a1.27 1.27 0 0 1-.359.147 1.19 1.19 0 0 1-.394.027c-.131-.013-.255-.047-.373-.101a1.22 1.22 0 0 1-.326-.214 1.28 1.28 0 0 1-.237-.301c-.063-.117-.106-.237-.129-.362l-.034-.194.047-1.876-.007-3.417-.17-3.303-.292-3.336c-.127-1.05-.308-1.93-.543-2.64l-.38-1.219a1.22 1.22 0 0 1-.027-.315 1.25 1.25 0 0 1 .054-.315 1.2 1.2 0 0 1 .122-.295 1.22 1.22 0 0 1 .197-.254c.077-.081.16-.15.251-.208s.194-.098.298-.134a1.3 1.3 0 0 1 .319-.067c.104-.009.208-.004.312.013a1.41 1.41 0 0 1 .319.094 1.15 1.15 0 0 1 .278.161 1.39 1.39 0 0 1 .237.221 1.44 1.44 0 0 1 .17.268l.068.148z"/><path d="M93.782 149.538l1.791-.054 3.609-.04 2.999-.02c.796-.022 1.499-.005 2.109.053a15.38 15.38 0 0 0 1.723.074c.539-.009 1.348.103 2.429.335l1.872.456a1.62 1.62 0 0 1 .462.288 1.83 1.83 0 0 1 .339.422c.086.152.147.317.183.496a1.75 1.75 0 0 1 .013.536c-.027.183-.081.355-.162.515s-.188.306-.319.436-.278.228-.441.308-.342.132-.522.154a1.6 1.6 0 0 1-.543-.013 1.71 1.71 0 0 1-.509-.188 1.68 1.68 0 0 1-.42-.335c-.123-.138-.22-.29-.292-.455a1.59 1.59 0 0 1-.129-.523c-.014-.179.002-.357.047-.536a1.47 1.47 0 0 1 .211-.482 1.7 1.7 0 0 1 .366-.402c.145-.112.303-.199.475-.262a1.54 1.54 0 0 1 .536-.093 1.69 1.69 0 0 1 .536.073 1.65 1.65 0 0 1 .488.242 1.49 1.49 0 0 1 .38.375c.109.147.19.306.244.475a1.76 1.76 0 0 1 .068.536c-.004.179-.038.353-.102.523a1.76 1.76 0 0 1-.271.469c-.118.138-.253.257-.407.355a1.66 1.66 0 0 1-.502.214 1.82 1.82 0 0 1-.543.041l-.271-.027-1.648-.489-2.904-.771a10.09 10.09 0 0 0-2.428-.268l-2.904.148-3.528.361-1.974.228a1.5 1.5 0 0 1-.38-.06c-.127-.036-.244-.087-.353-.154a1.58 1.58 0 0 1-.312-.228 1.92 1.92 0 0 1-.244-.295c-.068-.107-.122-.221-.163-.341a1.5 1.5 0 0 1-.075-.376 1.27 1.27 0 0 1 .014-.368 1.66 1.66 0 0 1 .109-.369 1.6 1.6 0 0 1 .19-.328c.077-.103.167-.194.271-.274a1.47 1.47 0 0 1 .326-.201 1.31 1.31 0 0 1 .366-.121l.19-.04zm-6.876.139l-1.648-.054-3.989-.02-4.335.1c-1.334.05-2.77.199-4.308.449l-2.49.369a1.29 1.29 0 0 1-.366-.067 1.3 1.3 0 0 1-.326-.181 1.11 1.11 0 0 1-.244-.275c-.068-.102-.118-.214-.149-.335s-.041-.243-.027-.368a1.1 1.1 0 0 1 .088-.355 1.21 1.21 0 0 1 .197-.308 1.09 1.09 0 0 1 .292-.228 1.2 1.2 0 0 1 .346-.121 1.29 1.29 0 0 1 .373-.013 1.23 1.23 0 0 1 .353.107 1.09 1.09 0 0 1 .299.208 1.13 1.13 0 0 1 .217.294c.059.112.097.23.115.356a1.21 1.21 0 0 1-.014.361 1.07 1.07 0 0 1-.129.349 1.16 1.16 0 0 1-.231.288c-.09.08-.195.145-.312.194s-.233.078-.36.087-.249.005-.366-.027a1.34 1.34 0 0 1-.346-.147 1.1 1.1 0 0 1-.278-.241 1.28 1.28 0 0 1-.183-.322 1.2 1.2 0 0 1-.068-.355c-.004-.125.011-.248.047-.368a1.09 1.09 0 0 1 .17-.329 1.15 1.15 0 0 1 .258-.254 1.2 1.2 0 0 1 .332-.161l.183-.054 2.408-.268 4.43-.402 4.389-.241 4.023-.161 1.798-.04a1.47 1.47 0 0 1 .305.074 1.58 1.58 0 0 1 .271.147 1.23 1.23 0 0 1 .231.201 1.05 1.05 0 0 1 .176.248 1.28 1.28 0 0 1 .108.288 1.18 1.18 0 0 1 .041.302 1.12 1.12 0 0 1-.041.301c-.023.099-.059.195-.108.288s-.104.172-.176.248a1.23 1.23 0 0 1-.231.201c-.086.058-.176.107-.271.148-.099.035-.201.06-.305.073l-.149.014zm32.989 1.882l1.072.007 2.375.114 2.401.281c.746.112 1.553.306 2.422.583s1.671.485 2.408.623l2.286.335 1.411.181c.154.04.296.105.427.194s.247.19.346.315a1.4 1.4 0 0 1 .217.409c.055.147.082.301.082.462s-.025.308-.075.455-.122.284-.217.409a1.58 1.58 0 0 1-.346.322 1.38 1.38 0 0 1-.889.248 1.5 1.5 0 0 1-.461-.101c-.149-.053-.285-.132-.407-.234a1.68 1.68 0 0 1-.305-.355 1.37 1.37 0 0 1-.17-.429 1.33 1.33 0 0 1-.027-.462c.014-.157.054-.306.122-.449s.156-.273.265-.389.233-.205.373-.281a1.54 1.54 0 0 1 .441-.148c.158-.026.316-.026.475 0 .153.023.3.072.441.148a1.45 1.45 0 0 1 .38.281 1.43 1.43 0 0 1 .264.382c.068.143.109.29.122.442a1.48 1.48 0 0 1-.02.469c-.036.152-.095.295-.177.429s-.18.252-.298.355a1.43 1.43 0 0 1-.407.241c-.145.058-.296.092-.455.101l-.237.013-1.296-.208-2.53-.442-2.388-.529-2.109-.476c-.634-.111-1.353-.178-2.158-.201l-2.286-.033c-.714.004-1.133 0-1.255-.014a2.02 2.02 0 0 1-.359-.087 1.51 1.51 0 0 1-.333-.174c-.104-.071-.196-.152-.278-.241a1.31 1.31 0 0 1-.21-.308 1.5 1.5 0 0 1-.136-.342c-.027-.121-.04-.241-.04-.362a1.66 1.66 0 0 1 .04-.362 1.51 1.51 0 0 1 .136-.341c.054-.112.124-.215.21-.308a1.62 1.62 0 0 1 .278-.242 1.6 1.6 0 0 1 .333-.174c.117-.044.237-.073.359-.087l.183-.02z"/><path d="M111.398 150.305l1.499-.033h1.757c.177.031.344.087.502.167a1.71 1.71 0 0 1 .421.315 1.68 1.68 0 0 1 .298.435c.073.157.12.324.143.503.018.17.007.339-.034.509a1.5 1.5 0 0 1-.19.482 1.73 1.73 0 0 1-.346.402 1.74 1.74 0 0 1-.448.268c-.167.063-.339.101-.515.114a1.62 1.62 0 0 1-.529-.06 1.44 1.44 0 0 1-.475-.221c-.149-.098-.278-.217-.387-.355a1.48 1.48 0 0 1-.244-.463c-.059-.165-.088-.334-.088-.509a1.5 1.5 0 0 1 .088-.509c.054-.17.136-.324.244-.462a1.62 1.62 0 0 1 .387-.355 1.42 1.42 0 0 1 .475-.221c.172-.049.348-.067.529-.054s.348.045.515.107a1.77 1.77 0 0 1 .448.268 1.73 1.73 0 0 1 .346.402c.09.148.154.308.19.483.041.169.052.341.034.516a1.68 1.68 0 0 1-.143.495c-.076.161-.176.306-.298.436a1.71 1.71 0 0 1-.421.315c-.158.08-.325.136-.502.167l-.257.04-1.5-.04-1.682-.06c-.127-.014-.249-.043-.366-.087s-.231-.103-.339-.174a1.54 1.54 0 0 1-.279-.248 1.61 1.61 0 0 1-.217-.302c-.058-.111-.101-.228-.129-.348a1.53 1.53 0 0 1-.047-.369 1.47 1.47 0 0 1 .047-.368 1.48 1.48 0 0 1 .129-.349 1.36 1.36 0 0 1 .217-.301 1.5 1.5 0 0 1 .279-.248c.108-.071.221-.129.339-.174s.239-.074.366-.087l.183-.027zm-15.995 6.753l2.293.047 5.183-.134 4.796-.449 3.364-.483 1.615-.201c.104 0 .206.016.305.047s.197.087.278.154a.87.87 0 0 1 .217.228.89.89 0 0 1 .129.281.8.8 0 0 1 .034.309.88.88 0 0 1-.068.308c-.04.094-.095.181-.162.261a1.07 1.07 0 0 1-.245.201.94.94 0 0 1-.291.114c-.109.022-.215.027-.319.013s-.206-.035-.305-.08a.88.88 0 0 1-.258-.181 1.01 1.01 0 0 1-.19-.248c-.05-.094-.084-.192-.102-.295a.92.92 0 0 1 .007-.314c.018-.102.052-.201.102-.295s.113-.177.19-.248a1.08 1.08 0 0 1 .264-.174 1.23 1.23 0 0 1 .305-.081c.109-.009.215-.002.319.02a.9.9 0 0 1 .292.121c.09.054.17.121.237.201a1.02 1.02 0 0 1 .163.268 1 1 0 0 1 .061.308 1.01 1.01 0 0 1-.034.308 1.02 1.02 0 0 1-.135.282 1.06 1.06 0 0 1-.217.227.94.94 0 0 1-.279.141l-.156.047-1.445.248-3.439.569-4.959.577-5.257.294-2.435.034a1.35 1.35 0 0 1-.292-.074 1.6 1.6 0 0 1-.264-.134c-.085-.054-.154-.123-.217-.194s-.124-.156-.17-.241a1.46 1.46 0 0 1-.109-.275 1.23 1.23 0 0 1 0-.576 1.5 1.5 0 0 1 .109-.275c.046-.089.102-.165.17-.241s.136-.136.217-.194.174-.099.264-.134.192-.061.292-.074l.142-.013z"/><path d="M96.016 157.559l.95 1.179c.629.791 1.23 1.449 1.805 1.976s1.131.889 1.669 1.086 1.196.357 1.974.469l2.395.261c.818.058 1.505-.02 2.062-.235s1.126-.632 1.709-1.252 1.108-1.24 1.574-1.856l.848-1.112a1.48 1.48 0 0 1 .366-.308c.14-.085.29-.146.448-.181s.319-.045.482-.027.318.058.468.12c.144.067.278.157.4.268s.215.237.292.376a1.38 1.38 0 0 1 .156.442c.027.161.027.319 0 .475a1.36 1.36 0 0 1-.15.456c-.076.143-.174.27-.291.382s-.249.201-.394.268-.303.109-.461.127a1.59 1.59 0 0 1-.482-.02 1.62 1.62 0 0 1-.454-.174c-.136-.081-.258-.183-.366-.308a1.55 1.55 0 0 1-.251-.402c-.059-.152-.095-.308-.109-.469a1.37 1.37 0 0 1 .054-.469c.041-.152.107-.295.197-.429s.201-.25.332-.348.267-.172.421-.221c.154-.054.312-.081.475-.081a1.37 1.37 0 0 1 .481.074 1.36 1.36 0 0 1 .421.221 1.45 1.45 0 0 1 .339.342 1.55 1.55 0 0 1 .204.422 1.42 1.42 0 0 1 .054.475 1.46 1.46 0 0 1-.102.463l-.088.227-.834 1.052-1.574 1.869c-.498.545-1.047.965-1.649 1.26s-1.331.558-2.177.777c-.846.214-1.719.299-2.619.255l-2.883-.255c-1.017-.129-1.904-.38-2.659-.75s-1.468-.851-2.137-1.441l-2.055-1.969-1.167-1.233a1.38 1.38 0 0 1-.163-.315c-.041-.107-.068-.221-.081-.342a1.44 1.44 0 0 1 0-.341 1.32 1.32 0 0 1 .088-.342 1.44 1.44 0 0 1 .163-.308c.068-.098.147-.185.237-.261a1.73 1.73 0 0 1 .299-.201c.104-.054.215-.094.332-.121s.228-.04.346-.04.235.015.353.047.224.069.332.127a1.44 1.44 0 0 1 .292.201l.129.114z"/></g><path d="M74.408 63.445l.122-1.722.387-3.718c.172-1.331.572-2.771 1.201-4.321s1.28-2.798 1.954-3.745l2.483-3.169c.977-1.166 1.911-2.148 2.802-2.948s2.015-1.59 3.385-2.372l3.751-1.929c1.131-.505 2.257-.938 3.378-1.3s2.367-.63 3.738-.817 2.68-.297 3.942-.328l3.452-.074c1.045-.018 2.363.06 3.955.235s3.073.491 4.457.938l3.48 1.313c.936.424 2.132 1.161 3.589 2.211l3.269 2.539 2.395 2.285 2.557 2.706c.828.925 1.61 1.988 2.347 3.189s1.348 2.494 1.832 3.879l1.364 4.187c.42 1.402.667 2.588.739 3.557s.032 2.088-.122 3.343-.631 2.36-1.431 3.33-1.886 1.659-3.27 2.084-3.078.728-5.095.911l-4.972.275a198.41 198.41 0 0 1-3.731-.033l-3.65-.08-4.07-.268-4.484-.456-4.538-.502-3.914-.389-3.195-.362-3.88-.737c-1.565-.335-3.172-.837-4.823-1.507s-3.161-1.597-4.531-2.78-2.214-2.354-2.544-3.524-.303-2.43.095-3.765a8.7 8.7 0 0 1 2.028-3.537l2.883-2.767 2.985-2.385c1.036-.768 2.178-1.458 3.426-2.07a19.26 19.26 0 0 1 3.887-1.414c1.348-.33 2.754-.547 4.219-.65s3.087-.045 4.864.161l4.796.77 4.722 1.192c1.727.496 3.156 1.059 4.287 1.688 1.126.63 2.275 1.429 3.446 2.398s2.297 2.104 3.392 3.403 2.014 2.738 2.761 4.315 1.056 3.312.929 5.192-.692 3.263-1.682 4.134-2.682 1.313-5.061 1.313-4.823-.288-7.333-.851l-7.326-1.708-6.486-1.588-4.538-.945c-1.081-.143-1.843-.31-2.286-.502l-.984-.402a2.77 2.77 0 0 1-.604-.288 2.75 2.75 0 0 1-.516-.422 2.87 2.87 0 0 1-.4-.529 2.53 2.53 0 0 1-.258-.603 2.92 2.92 0 0 1-.102-.657c-.009-.223.011-.442.061-.657a2.6 2.6 0 0 1 .217-.63c.095-.201.215-.386.36-.556s.308-.322.488-.456a3.09 3.09 0 0 1 .583-.328c.208-.085.423-.143.644-.174a2.81 2.81 0 0 1 .672-.027c.222.022 1.651-.695 4.287-2.151s5.059-2.396 7.279-2.807 4.113-.59 5.692-.536c1.573.049 3.057.849 4.45 2.398s1.827 2.745 1.302 3.598c-.52.849-2.046 1.422-4.579 1.722s-5.655.382-9.382.235l-9.341-.342-4.762-.208-1.309-.114a2.34 2.34 0 0 1-.577-.154c-.19-.072-.366-.165-.529-.281a2.21 2.21 0 0 1-.448-.395 2.45 2.45 0 0 1-.332-.496 2.34 2.34 0 0 1-.204-.556c-.05-.192-.072-.389-.068-.59s.032-.391.081-.583.122-.377.217-.556.21-.335.346-.482a2.31 2.31 0 0 1 .455-.382c.167-.112.346-.203.536-.275s.384-.112.583-.134l3.005-.415 7.964-.744c3.505-.237 6.386-.277 8.642-.121l3.209.328c-.113.067-.084.109.088.127a2.06 2.06 0 0 1 .496.114c.162.058.316.136.461.234a2.09 2.09 0 0 1 .393.328 2.36 2.36 0 0 1 .292.415 1.88 1.88 0 0 1 .19.476c.045.165.068.333.068.502a1.96 1.96 0 0 1-.055.509c-.04.165-.099.324-.176.476a2.05 2.05 0 0 1-.285.422c-.113.13-.242.244-.387.342s-.289.179-.447.241a2.18 2.18 0 0 1-.502.127c-.172.022-1.058.192-2.659.509s-4.03.574-7.286.77l-7.265.623-2.646.322c-.167-.009-.332-.038-.495-.087s-.317-.116-.461-.201-.276-.188-.393-.308-.226-.246-.312-.389-.16-.293-.21-.449a1.84 1.84 0 0 1-.095-.489 2.28 2.28 0 0 1 .027-.496 2.16 2.16 0 0 1 .149-.476c.068-.152.154-.295.258-.429a2.15 2.15 0 0 1 .353-.348c.131-.103.274-.19.427-.261s.314-.116.482-.147 2.196.018 6.085.147l11.864.368 8.968.382 3.175.248a1.96 1.96 0 0 1 .448.121 1.53 1.53 0 0 1 .4.221c.127.089.24.192.339.308a1.68 1.68 0 0 1 .258.382 2.1 2.1 0 0 1 .156.429 1.95 1.95 0 0 1 .041.456 1.71 1.71 0 0 1-.061.449c-.041.152-.1.295-.177.429a2 2 0 0 1-.271.368 1.87 1.87 0 0 1-.353.295 1.86 1.86 0 0 1-.414.201c-.144.053-.296.087-.454.1s-1.748.391-4.783 1.132-6.275 1.012-9.707.811c-3.437-.201-5.771-.487-7.001-.858s-1.942-.572-2.123-.603a2.34 2.34 0 0 1-.522-.154c-.167-.071-.323-.163-.468-.275s-.274-.232-.387-.375a2.4 2.4 0 0 1-.285-.456 2.3 2.3 0 0 1-.17-.516 2.37 2.37 0 0 1-.034-.536c.009-.179.041-.355.095-.529s.127-.339.217-.496.206-.293.332-.422.274-.241.427-.335.323-.17.495-.228.355-.087.536-.1 1.047-.261 2.598-.744 3.984-.907 7.313-1.273 5.764-.476 7.32-.342l2.584.208c.168 0 .333.022.496.067s.318.098.468.174a2.02 2.02 0 0 1 .407.288 2.05 2.05 0 0 1 .332.375c.095.139.17.286.224.442s.097.31.115.476a2.28 2.28 0 0 1 0 .496c-.022.165-.065.326-.129.482a1.94 1.94 0 0 1-.237.435c-.095.134-.206.257-.332.368s-.267.199-.421.275-.305.132-.468.167a1287.1 1287.1 0 0 0-4.654 1.219c-2.935.768-5.68.621-8.235-.442s-3.747-2.456-3.575-4.18 1.578-2.981 4.233-3.785 5.248-1.186 7.794-1.146 4.003.239 4.369.583.644.525.834.543a2.64 2.64 0 0 1 .55.127c.181.067.35.152.509.255s.3.23.427.368a2.34 2.34 0 0 1 .326.456 2.42 2.42 0 0 1 .21.523c.045.183.07.368.075.556s-.021.373-.062.556a2.47 2.47 0 0 1-.196.529 2.46 2.46 0 0 1-.312.462c-.127.143-.267.268-.421.375a2.24 2.24 0 0 1-.502.268 2.53 2.53 0 0 1-.549.141l-3.026.59s-4.31.529-7.448.489-5.35-.288-6.635-.73-2.013-.674-2.184-.697-.339-.067-.502-.134a2.05 2.05 0 0 1-.461-.241c-.145-.103-.274-.219-.387-.348a2.48 2.48 0 0 1-.292-.429 2.38 2.38 0 0 1-.176-.482c-.041-.17-.061-.342-.061-.516a2.13 2.13 0 0 1 .075-.509c.045-.17.108-.331.19-.482a1.97 1.97 0 0 1 .305-.422c.118-.125.249-.237.393-.335a2.48 2.48 0 0 1 .461-.234c.167-.058.337-.096.509-.114s1.3-.686 3.371-2.003 3.403-2.095 3.982-2.331c.574-.237.965-.375 1.173-.415a2.43 2.43 0 0 1 .624-.054 2.92 2.92 0 0 1 .618.094 2.63 2.63 0 0 1 .576.241 2.65 2.65 0 0 1 .502.369c.154.143.287.301.401.476s.203.366.271.563.111.398.129.603c.013.205.004.411-.027.616s-.089.404-.17.596a2.42 2.42 0 0 1-.312.536c-.127.165-.269.315-.427.449s-.34.239-.529.328-.957.105-2.3.033l-4.348-.188c-1.551-.063-1.755.027-.611.268s2.372.623 3.684 1.159 2.697.938 4.158 1.206a37.82 37.82 0 0 0 4.464.543c1.506.089 2.865.266 4.077.529s2.159 1.081 2.855 2.452.801 2.637.326 3.799c-.475 1.17-1.174 2.117-2.096 2.841l-1.791 1.474s-.531.447-.794.576-.536.226-.82.288c-.29.063-.579.089-.869.08a3.57 3.57 0 0 1-.868-.121 3.59 3.59 0 0 1-.807-.328 3.42 3.42 0 0 1-.706-.502 3.81 3.81 0 0 1-.57-.663 3.72 3.72 0 0 1-.386-.77c-.095-.273-.159-.554-.19-.844a3.68 3.68 0 0 1 .02-.864 3.74 3.74 0 0 1 .231-.831 3.25 3.25 0 0 1 .427-.75 3.76 3.76 0 0 1 .59-.63c.226-.188.918-.532 2.076-1.032s2.426-.833 3.806-.998 2.195-.167 2.449-.02a1.64 1.64 0 0 0 .841.221 3.86 3.86 0 0 1 .902.107c.294.072.577.179.848.322s.52.308.746.509a3.69 3.69 0 0 1 .604.67c.176.25.319.516.427.797s.181.565.217.864.036.599 0 .898a3.59 3.59 0 0 1-.217.871c-.108.281-.251.547-.427.797s-.371.473-.597.67-.482.371-.753.509a3.67 3.67 0 0 1-.848.322c-.299.072-.4-.46-.305-1.594s.861-1.548 2.299-1.253 2.678.587 3.731.878c1.059.29 2.072.489 3.039.596l3.921.362 4.355.281a42.71 42.71 0 0 0 3.406.047c1.008-.031 2.164-.125 3.466-.281s2.377-.156 3.222 0 1.42.306 1.723.449a3.99 3.99 0 0 1 .848.529 4.34 4.34 0 0 1 .699.717c.199.268.366.556.502.864a3.91 3.91 0 0 1 .271.951 4.07 4.07 0 0 1 .041.998c-.027.331-.095.654-.203.971a4.24 4.24 0 0 1-.434.891c-.181.281-.394.538-.638.77s-.513.424-.807.59a3.81 3.81 0 0 1-.923.389c-.326.094-.656.147-.99.161a4.44 4.44 0 0 1-1.004-.087c-.33-.067.029-.147 1.078-.241s1.034-.047-.061.154-2.465.243-4.111.127l-5.372-.295-5.427-.067s-3.718.051-6.119.033-4.649-.098-6.743-.228-3.801-.199-5.122-.208a88.07 88.07 0 0 0-3.554.04l-4.593.188-4.85.161-3.907.013-4.118-.007a48.17 48.17 0 0 1-4.287-.214l-4.029-.322-4.111-.208-4.355-.228a71.6 71.6 0 0 1-3.996-.375 138.17 138.17 0 0 0-4.355-.442l-5.02-.295a147.36 147.36 0 0 0-4.85-.087c-1.479-.005-2.892.004-4.24.027l-3.066.08c-.692.022-1.21.013-1.553-.027s-.678-.123-1.004-.248a4.14 4.14 0 0 1-.916-.476 4.1 4.1 0 0 1-.773-.677 4.35 4.35 0 0 1-.583-.838c-.163-.304-.285-.623-.366-.958s-.122-.668-.122-1.012.043-.681.129-1.012.204-.648.366-.951.36-.585.59-.844.488-.478.773-.67a4.14 4.14 0 0 1 .916-.476 4.22 4.22 0 0 1 1.004-.241c.344-.04 1.015.13 2.015.509s2.404.795 4.199 1.246 3.652.813 5.556 1.085a119.05 119.05 0 0 0 5.603.657l4.884.288s2.725.02 3.887-.007l3.324-.087 3.548-.06h3.962l3.623-.04 3.968-.167 4.138-.114s2.53.04 3.982.121l4.511.281 4.389.228 3.894.06 4.043.047 4.301.06 4.09.013 3.935-.013 3.873-.141s2.449-.103 3.494-.04l3.222.201 3.127.08s2.255-.065 3.819-.141l3.006-.007s.845.203 1.234.409a4.14 4.14 0 0 1 1.031.777 4 4 0 0 1 .733 1.065c.181.393.296.806.346 1.239s.02.855-.075 1.28-.251.822-.481 1.192-.507.697-.841.978a4.01 4.01 0 0 1-1.113.663 3.98 3.98 0 0 1-1.269.275c-.438.022-.87-.025-1.295-.141s-.819-.295-1.181-.536a4.1 4.1 0 0 1-.942-.884c-.267-.348-.471-.728-.611-1.139a3.9 3.9 0 0 1 0-2.532 3.87 3.87 0 0 1 .611-1.132 3.91 3.91 0 0 1 .942-.884 4.02 4.02 0 0 1 1.188-.543 3.91 3.91 0 0 1 1.288-.134 3.98 3.98 0 0 1 1.269.275 3.96 3.96 0 0 1 1.119.663c.335.281.615.608.841.978a3.99 3.99 0 0 1 .482 1.192c.091.424.113.853.068 1.286a4 4 0 0 1-.353 1.239c-.181.393-.423.746-.726 1.058s-.649.576-1.038.777-.8.342-1.234.409l-.651.107c.004 0-.828-.049-2.497-.147s-3.028-.197-4.077-.308l-4.545-.462-4.891-.429-3.873-.141-3.941-.02c-1.33-.004-2.696-.002-4.098.007l-4.328.04h-4.097l-3.996-.054-4.429-.027-4.383-.027-3.873-.007c-1.198 0-2.578-.04-4.138-.121l-3.968-.168-3.629-.04a1156.71 1156.71 0 0 1-3.968-.007l-3.568-.074-3.351-.127-3.948-.087c-1.452-.022-3.127.004-5.027.08l-6.166.194c-2.207.049-4.5-.208-6.879-.77l-4.077-.904c-.344-.04-.678-.123-1.004-.248a4.31 4.31 0 0 1-.916-.469c-.285-.197-.543-.424-.773-.683a4.35 4.35 0 0 1-.583-.838c-.163-.304-.285-.623-.366-.958s-.122-.668-.122-1.012a4.06 4.06 0 0 1 .129-1.012c.081-.331.204-.648.366-.951a4.19 4.19 0 0 1 .59-.838 3.84 3.84 0 0 1 .773-.677 4.14 4.14 0 0 1 .916-.476 4.22 4.22 0 0 1 1.004-.241c.344-.04.861-.047 1.553-.02s1.734.063 3.114.094l4.477.147 5.047.228 5.318.462s3.288.456 4.532.724 2.584.518 4.023.764l4.185.697a57.85 57.85 0 0 0 3.846.509l3.758.355a45.07 45.07 0 0 0 4.002.174l4.118-.007 3.921.02 3.44.107 3.073.181 3.106.241 3.542.308c1.275.116 2.903.152 4.884.107s4.14-.163 6.465-.368l6.078-.616 5.65-.697c2.031-.259 3.788-.353 5.271-.281s2.782.045 3.881-.08 1.799-.116 2.102.027a3.99 3.99 0 0 1 .848.529 4.34 4.34 0 0 1 .699.717c.199.268.366.556.502.864a3.91 3.91 0 0 1 .271.951c.055.331.068.661.041.992s-.095.661-.203.978a4.24 4.24 0 0 1-.434.891c-.181.281-.394.538-.638.77s-.513.424-.807.59a3.81 3.81 0 0 1-.923.389c-.326.094-.656.147-.99.161a4.44 4.44 0 0 1-1.004-.087c-.33-.067-.462-.138-.394-.214s-.518-.094-1.757-.067l-3.554.094-3.718.087c-1.343.022-2.964-.056-4.864-.234l-4.708-.656a107.45 107.45 0 0 1-3.819-.871 43.59 43.59 0 0 1-3.88-1.139c-1.284-.442-2.3-.987-3.046-1.635s-1.158-1.963-1.234-3.946.47-3.479 1.641-4.475c1.167-1.005 1.904-1.507 2.212-1.507a3.86 3.86 0 0 1 .902.107c.294.072.577.179.848.322s.52.308.746.509a3.69 3.69 0 0 1 .604.67c.176.25.319.516.427.797s.181.565.217.864.036.599 0 .898a3.59 3.59 0 0 1-.217.871c-.108.281-.251.547-.427.797a3.85 3.85 0 0 1-.597.67c-.231.201-.482.371-.753.509s-.55.25-.848.322-.708-.022-1.228-.281c-.525-.259-1.406-.237-2.646.067s-1.989.514-2.252.643-.536.221-.82.288-.575.089-.869.08a3.57 3.57 0 0 1-.868-.121 3.59 3.59 0 0 1-.807-.328 3.42 3.42 0 0 1-.706-.502 3.51 3.51 0 0 1-.57-.663 3.72 3.72 0 0 1-.386-.77c-.095-.273-.159-.554-.19-.844a3.68 3.68 0 0 1 .02-.864 3.74 3.74 0 0 1 .231-.831c.108-.268.248-.516.42-.744.177-.237.376-.449.597-.636s.848-.194 1.866-.02.665.243-1.072.208c-1.732-.036-3.55-.168-5.454-.395s-3.831-.668-5.78-1.306-3.641-1.501-5.074-2.586-2.426-2.343-2.978-3.758-.588-2.774-.109-4.073 1.667-2.193 3.548-2.68 3.385-.659 4.498-.516a12.53 12.53 0 0 1 3.29.918c1.081.465 1.725.677 1.933.636a2.43 2.43 0 0 1 .624-.054 2.92 2.92 0 0 1 .618.094 2.63 2.63 0 0 1 .576.241 2.65 2.65 0 0 1 .502.369c.154.143.287.301.401.476s.203.366.271.563.111.398.129.603c.013.205.004.411-.027.616s-.089.404-.17.596a2.42 2.42 0 0 1-.312.536c-.127.165-.269.315-.427.449s-.34.239-.529.328-.602.181-1.235.261-1.542.275-2.741.569-2.498.927-3.9 1.909-2.189 1.463-2.361 1.44-.339-.067-.502-.134a2.26 2.26 0 0 1-.461-.241c-.145-.103-.274-.219-.387-.348a2.48 2.48 0 0 1-.292-.429 2.38 2.38 0 0 1-.176-.482c-.041-.17-.061-.342-.061-.516a2.13 2.13 0 0 1 .075-.509c.045-.17.108-.331.19-.482a1.97 1.97 0 0 1 .305-.422c.118-.125.249-.237.393-.335a2.48 2.48 0 0 1 .461-.234c.167-.058.337-.096.509-.114s.92.277 2.232.884 3.358.936 6.126.971 5.21-.268 7.34-.925 3.296-.969 3.486-.951a2.64 2.64 0 0 1 .55.127c.181.067.35.152.509.255a2.8 2.8 0 0 1 .427.368 2.34 2.34 0 0 1 .326.456 2.42 2.42 0 0 1 .21.523c.045.183.07.368.075.556s-.021.373-.062.556a2.47 2.47 0 0 1-.196.529 2.46 2.46 0 0 1-.312.462c-.127.143-.267.268-.421.375a2.24 2.24 0 0 1-.502.268 2.53 2.53 0 0 1-.549.141c-.186.027-.611-.288-1.276-.945-.66-.652-1.94-.929-3.839-.831s-3.917.516-6.051 1.253-2.506 1.146-1.126 1.226 3.032.038 4.972-.127 3.39-.545 4.348-1.139c.964-.594 1.529-.891 1.696-.891s.333.022.496.067.318.098.468.174a2.02 2.02 0 0 1 .407.288 2.05 2.05 0 0 1 .332.375c.095.139.17.286.224.442s.097.31.115.476a2.28 2.28 0 0 1 0 .496c-.022.165-.065.326-.129.482a1.94 1.94 0 0 1-.237.435c-.095.134-.206.257-.332.368s-.267.199-.421.275-.305.132-.468.167-1.034-.065-2.612-.315-3.878-.208-6.912.127-5.579.88-7.632 1.635-3.17 1.11-3.351 1.079a2.34 2.34 0 0 1-.522-.154c-.167-.071-.323-.163-.468-.275s-.274-.232-.387-.375a2.4 2.4 0 0 1-.285-.456 2.3 2.3 0 0 1-.17-.516 2.37 2.37 0 0 1-.034-.536c.009-.179.041-.355.095-.529s.127-.339.217-.496.206-.293.332-.422.274-.241.427-.335.323-.17.495-.228.355-.087.536-.1.893.252 2.137.797 3.464.882 6.662 1.025 6.408-.101 9.619-.73 4.893-.934 5.047-.911a1.96 1.96 0 0 1 .448.121 1.53 1.53 0 0 1 .4.221c.127.089.24.192.339.308a1.68 1.68 0 0 1 .258.382 2.1 2.1 0 0 1 .156.429 1.95 1.95 0 0 1 .041.456 1.71 1.71 0 0 1-.061.449c-.041.152-.1.295-.177.429a2 2 0 0 1-.271.368 1.87 1.87 0 0 1-.353.295 1.86 1.86 0 0 1-.414.201c-.144.053-.296.087-.454.1s-1.212-.031-3.175-.134-4.934-.185-8.927-.248l-11.688-.261-5.943-.181c-.167-.009-.332-.038-.495-.087s-.317-.116-.461-.201-.276-.188-.393-.308-.226-.246-.312-.389-.16-.293-.21-.449a1.84 1.84 0 0 1-.095-.489 2.28 2.28 0 0 1 .027-.496 2.16 2.16 0 0 1 .149-.476c.068-.152.154-.295.258-.429a2.15 2.15 0 0 1 .353-.348c.131-.103.274-.19.427-.261s.314-.116.482-.147 1.051-.107 2.652-.228l6.98-.496c3.049-.21 5.508-.536 7.38-.978s2.894-.648 3.066-.63a2.06 2.06 0 0 1 .496.114c.162.058.316.136.461.234a1.93 1.93 0 0 1 .386.328c.118.13.218.268.299.415a1.88 1.88 0 0 1 .19.476c.045.165.068.333.068.502a1.96 1.96 0 0 1-.055.509c-.04.165-.099.324-.176.476a2.05 2.05 0 0 1-.285.422c-.113.13-.242.244-.387.342s-.289.179-.447.241a2.18 2.18 0 0 1-.502.127c-.172.022-.486-.221-.943-.73s-1.49-.668-3.087-.462-4.056.438-7.38.71-6.04.681-8.147 1.226-3.261.8-3.46.777a2.34 2.34 0 0 1-.577-.154c-.19-.072-.366-.165-.529-.281a2.21 2.21 0 0 1-.448-.395 2.45 2.45 0 0 1-.332-.496 2.34 2.34 0 0 1-.204-.556c-.05-.192-.072-.389-.068-.59s.032-.391.081-.583a2.4 2.4 0 0 1 .217-.549c.095-.179.21-.342.346-.489a2.31 2.31 0 0 1 .455-.382c.167-.112.346-.203.536-.275s.384-.112.583-.134.638.083 1.316.315 2.27.331 4.776.308l9.138-.047c3.587 0 6.144.326 7.673.978s1.784.898.753.724-2.495-.034-4.389.422-3.856 1.121-5.895 1.996-3.867 1.731-5.481 2.566c-1.61.844-2.521 1.228-2.734 1.152a2.77 2.77 0 0 1-.604-.288c-.19-.116-.362-.257-.516-.422a2.87 2.87 0 0 1-.4-.529 2.53 2.53 0 0 1-.258-.603 2.92 2.92 0 0 1-.102-.657c-.009-.223.011-.442.061-.657a2.6 2.6 0 0 1 .217-.63c.095-.201.215-.386.36-.556s.308-.322.488-.456a3.09 3.09 0 0 1 .583-.328c.208-.085.423-.143.644-.174a2.81 2.81 0 0 1 .672-.027c.222.022.556.201 1.004.536s1.174.643 2.191.938 2.508.616 4.47.965l6.513 1.099 6.817.998 5.393.831s1.904-.094 1.466-1.085c-.444-.987-1.108-1.95-1.995-2.887s-2.166-1.99-3.826-3.155-3.141-1.996-4.43-2.492-2.496-.858-3.622-1.085-2.376-.371-3.751-.415-2.605-.013-3.691.094-2.395.411-3.941.911-2.743 1.083-3.575 1.749-2.028 1.474-3.602 2.412-1.913 1.691-1.017 2.258 1.924 1.074 3.087 1.521 2.492.857 4.002 1.246 2.818.628 3.907.73 2.361.183 3.799.241 2.932.091 4.484.087l4.266.02a64.92 64.92 0 0 0 3.759-.054l3.507-.161 3.364-.221c1.117-.094 2.415.007 3.894.302s2.139-.107 1.981-1.206c-.158-1.09-.4-2.153-.726-3.189s-.737-2.092-1.248-3.169-1.21-2.144-2.11-3.216-1.877-2.052-2.917-2.941-1.953-1.641-2.74-2.258-1.701-1.244-2.727-1.883-2.031-1.005-3.026-1.112a83.66 83.66 0 0 0-3.12-.275l-3.256-.127-3.399-.007c-1.176.005-2.478.21-3.907.616s-2.632.815-3.609 1.239-1.972.956-2.985 1.594-1.954 1.418-2.808 2.325-1.768 2.081-2.727 3.537-1.569 2.689-1.832 3.698a18.7 18.7 0 0 0-.529 3.236l-.217 2.137a3.41 3.41 0 0 1-.265.811 3.63 3.63 0 0 1-.454.717c-.181.223-.387.42-.617.59s-.477.317-.739.429-.543.197-.828.241a3.38 3.38 0 0 1-.848.04c-.289-.018-.572-.071-.848-.161s-.529-.21-.773-.362a3.46 3.46 0 0 1-.672-.529c-.199-.205-.373-.431-.522-.677a3.5 3.5 0 0 1-.339-.777 3.49 3.49 0 0 1-.142-.837l-.02-.422z" fill="#e67700" fill-opacity=".1"/><g fill="#000"><path d="M77.99 78.24l-.047 2.13-.095 4.335-.041 4.12c.005 1.286.147 2.648.427 4.087s.66 2.892 1.14 4.361 1.02 2.859 1.621 4.167l1.737 4.067 1.567 3.45 1.927 3.477c.796 1.411 1.762 2.718 2.897 3.919l3.365 3.303 2.964 2.573c.864.71 1.653 1.518 2.368 2.425s1.002 2.597.861 5.085-.721 4.006-1.757 4.555-2.313.724-3.833.523-2.881-.657-4.084-1.38c-1.198-.728-2.234-1.671-3.107-2.827l-2.198-2.928-2.008-2.452-2.32-2.613-2.157-2.458c-.638-.728-1.316-1.747-2.035-3.055l-1.933-3.37-1.872-3.377c-.674-1.313-1.16-2.443-1.458-3.39s-.522-1.925-.685-2.934-.262-2.166-.312-3.47l-.068-3.672c.005-1.134.086-2.345.244-3.631l.38-3.866.298-3.578c.109-1.085.387-2.474.834-4.167s1.061-2.981 1.838-3.866 1.847-1.554 3.195-1.996 2.621-.681 3.819-.717l3.358-.054 3.1.007 3.399.02 3.785.027 3.887.034 4.633.074 4.904.08 4.498.034 4.721.194 4.518.268 3.853.094 3.297-.034 2.605-.054c.728-.004 1.341.034 1.838.114s.968.237 1.411.469.839.529 1.188.891a4.68 4.68 0 0 1 .834 1.213c.213.451.346.925.4 1.42s.027.98-.081 1.467-.292.942-.55 1.367a4.59 4.59 0 0 1-.97 1.119c-.384.322-.809.574-1.275.757s-.95.295-1.452.322-1.001-.027-1.485-.161a4.67 4.67 0 0 1-1.35-.616c-.416-.281-.778-.621-1.086-1.018-.303-.393-.533-.826-.692-1.3a4.4 4.4 0 0 1-.244-1.447c0-.5.082-.985.244-1.454s.392-.9.699-1.293.663-.735 1.079-1.012a4.43 4.43 0 0 1 1.356-.616 4.59 4.59 0 0 1 1.479-.161 4.69 4.69 0 0 1 1.459.315c.466.188.891.442 1.275.764s.701.694.963 1.119.441.873.55 1.36.135.976.081 1.467-.187.969-.4 1.42a4.64 4.64 0 0 1-.834 1.219c-.349.362-.744.659-1.188.891s-.92.389-1.417.469l-.74.121-1.675-.027-3.46-.074-3.839-.101-3.535-.107-3.392-.181-4.185-.107-4.498.027-4.904.08-4.633.08-3.887.027-3.785.027-3.941.02-3.975.121c-1.266.076-1.954.71-2.062 1.903l-.264 3.658-.292 4.087-.19 4.268.197 3.617c.122 1.054.45 2.173.984 3.357s1.117 2.291 1.764 3.323l2.225 3.557c.837 1.344 1.614 2.445 2.334 3.303l2.435 2.854 2.571 3.249a19.89 19.89 0 0 1 2.008 3.524c.534 1.228.45 2.519-.251 3.872s-1.359 1.573-1.988.657-1.373-1.813-2.245-2.707l-2.557-2.432-2.286-2.177-2.34-2.593c-.873-1.004-1.716-2.26-2.53-3.765l-2.096-4.24-1.438-3.772-1.526-4.355a41.6 41.6 0 0 1-1.526-4.964l-.807-3.859a19.29 19.29 0 0 1-.265-2.914l-.014-3.376-.041-4.12-.095-4.335.007-2.539c.032-.272.097-.536.197-.79a3.43 3.43 0 0 1 .387-.73 3.53 3.53 0 0 1 .549-.61 3.44 3.44 0 0 1 .685-.469c.244-.125.502-.221.773-.288s.545-.1.821-.1.549.034.821.1.529.163.773.288.477.286.685.469.391.386.55.61a3.43 3.43 0 0 1 .387.73 3.17 3.17 0 0 1 .197.79l.054.409z" fill-opacity=".1"/><path d="M87.308 135.451l-1.452.704c-.959.464-1.942 1.172-2.951 2.124s-1.676 1.884-2.001 2.8l-.855 2.82-1.018 4.188-1.099 4.816c-.294 1.39-.477 2.56-.549 3.511-.072.956-.165 1.644-.278 2.063-.118.425-.299.818-.543 1.18a4.1 4.1 0 0 1-.895.951 4.07 4.07 0 0 1-1.16.616 4.05 4.05 0 0 1-1.289.221 4.31 4.31 0 0 1-1.302-.201 4.01 4.01 0 0 1-1.16-.603 3.8 3.8 0 0 1-.909-.931 3.96 3.96 0 0 1-.563-1.172c-.122-.42-.172-.849-.149-1.287s.108-.862.271-1.272a4 4 0 0 1 .671-1.113c.285-.335.615-.616.99-.844s.785-.395 1.214-.489a4.07 4.07 0 0 1 1.316-.08 4.12 4.12 0 0 1 1.262.335c.407.183.771.424 1.092.723a3.79 3.79 0 0 1 .8 1.025c.213.384.357.793.434 1.226s.075.86.007 1.293a3.95 3.95 0 0 1-.407 1.233 4.13 4.13 0 0 1-.787 1.039 3.96 3.96 0 0 1-1.085.73 4.12 4.12 0 0 1-1.262.362 4.06 4.06 0 0 1-1.309-.067 4 4 0 0 1-1.221-.469 4.04 4.04 0 0 1-1.011-.831 3.95 3.95 0 0 1-.685-1.106 3.94 3.94 0 0 1-.292-1.266l-.041-.656c0 .004.072-.563.217-1.702l.502-3.155c.194-.965.538-2.18 1.031-3.645l1.031-3.598.733-3.202c.294-1.206.651-2.318 1.072-3.336s.923-1.91 1.492-2.687a15.46 15.46 0 0 1 1.947-2.157c.728-.665 1.608-1.349 2.639-2.05a20.66 20.66 0 0 1 3.032-1.722l1.886-.804c.271-.089.549-.145.834-.167a3.54 3.54 0 0 1 .841.033c.285.045.559.123.821.235s.509.252.739.422.43.364.611.583a3.45 3.45 0 0 1 .454.71c.122.259.213.527.271.804s.081.554.068.83a3.25 3.25 0 0 1-.136.831 3.56 3.56 0 0 1-.332.771c-.145.245-.316.471-.515.676a3.75 3.75 0 0 1-.658.53l-.366.227z" fill-opacity=".1"/><path d="M89.322 132.573l1.275.395c.85.263 1.868.668 3.053 1.213s2.302.893 3.365 1.031 2.2.137 3.426-.006l4.111-.637 4.674-1.032 4.375-1.199c1.321-.397 2.422-.942 3.304-1.634l2.089-1.655c.511-.416.972-.744 1.384-.985s.859-.404 1.33-.503c.465-.093.938-.111 1.417-.053a4.22 4.22 0 0 1 1.357.388 4.4 4.4 0 0 1 1.167.804c.344.326.624.702.841 1.126s.369.864.441 1.333.061.931-.02 1.4a4.19 4.19 0 0 1-.469 1.32 4.33 4.33 0 0 1-.875 1.106 4.36 4.36 0 0 1-1.18.77 4.53 4.53 0 0 1-1.377.348 4.19 4.19 0 0 1-1.411-.093 4.31 4.31 0 0 1-1.316-.523c-.407-.25-.762-.558-1.065-.925-.308-.361-.547-.763-.719-1.205a4.21 4.21 0 0 1-.285-1.374c-.023-.473.034-.938.17-1.393a4.4 4.4 0 0 1 .61-1.26 4.41 4.41 0 0 1 .99-1.005c.385-.281.805-.496 1.262-.643a4.29 4.29 0 0 1 1.404-.208 4.37 4.37 0 0 1 1.398.242 4.22 4.22 0 0 1 1.241.676c.38.291.701.632.964 1.025s.454.824.576 1.28.172.924.136 1.393-.138.929-.319 1.367-.434.835-.746 1.193l-.475.535-1.425 1.086c-.954.728-2.127 1.494-3.52 2.298s-2.886 1.436-4.464 1.882l-4.83 1.273-5.379 1.139c-1.94.357-3.582.558-4.925.603-1.343.04-2.542-.025-3.596-.194s-2.209-.454-3.466-.838-2.309-.844-3.141-1.38a13.55 13.55 0 0 0-2.49-1.266l-1.621-.65c-.262-.129-.504-.286-.726-.469a3.74 3.74 0 0 1-.597-.623 3.47 3.47 0 0 1-.421-.743c-.113-.268-.19-.543-.231-.825a3.35 3.35 0 0 1-.027-.85c.027-.286.088-.565.183-.838a3.5 3.5 0 0 1 .38-.77 3.55 3.55 0 0 1 .556-.657c.212-.196.445-.364.699-.502a3.42 3.42 0 0 1 .8-.328c.28-.076.565-.119.855-.128a3.44 3.44 0 0 1 .855.081l.427.087z" fill-opacity=".1"/></g><path d="M91.817 1.96l6.36-.029 14.347-.137 16.376-.196 16.885-.206 17.032-.206L179.898.98c5.704-.065 9.947.506 12.73 1.715 2.777 1.222 4.541 4.175 5.292 8.859.751 4.691 1.192 9.748 1.323 15.17l.216 16.552-.01 16.895-.069 16.993-.029 17.012.088 17.023.137 17.022.147 17.022.137 17.023.138 17.051c.045 5.691-.543 9.921-1.764 12.691-1.216 2.777-4.182 4.55-8.899 5.321-4.71.771-9.79 1.235-15.238 1.392l-16.621.294-16.973.069-17.072.009-17.1.059-17.101.167-17.101.225-17.11.226-17.101.225-17.12.225c-5.716.072-9.97-.499-12.759-1.715-2.783-1.215-4.547-4.171-5.292-8.868-.738-4.698-1.166-9.758-1.284-15.18l-.186-16.572.049-16.915.098-17.002.059-17.042-.049-17.042-.108-17.042L1.208 55.8 1.1 38.758l-.098-17.062C.963 16 1.551 11.763 2.766 8.986c1.222-2.77 4.188-4.541 8.898-5.312 4.704-.771 9.774-1.232 15.209-1.382l16.601-.265 16.944-.049 17.032.01 17.071-.039 17.061-.147 19.992-.225 11.662-.088c.137.026.264.069.382.127.124.065.235.147.333.245.092.098.167.206.226.323.058.124.094.255.107.392a1.1 1.1 0 0 1-.019.412 1.13 1.13 0 0 1-.147.372c-.072.118-.16.222-.265.314-.098.085-.212.154-.343.206a1.14 1.14 0 0 1-.392.088c-.137.013-.271 0-.402-.039-.137-.033-.261-.088-.372-.167a1.47 1.47 0 0 1-.294-.274c-.085-.111-.15-.232-.196-.363a1.2 1.2 0 0 1 0-.804c.039-.118.101-.232.186-.343a1.35 1.35 0 0 1 .294-.284c.111-.078.232-.134.363-.167a1.23 1.23 0 0 1 .402-.049c.137.007.271.036.401.088.125.046.239.114.343.206.111.085.2.186.265.304a1.19 1.19 0 0 1 .157.372 1.04 1.04 0 0 1 .019.402c-.013.137-.045.268-.098.392a1.17 1.17 0 0 1-.235.333 1.27 1.27 0 0 1-.313.245c-.125.065-.252.111-.383.137l-.205.029h-11.456c-7.638.007-14.302.003-19.992-.01a2478.11 2478.11 0 0 0-17.071.039l-17.062.147-17.032.225-16.905.284-16.395.49c-5.331.222-10.13.588-14.396 1.098-4.273.51-6.772 1.8-7.497 3.871s-1.107 5.939-1.147 11.603l-.118 17.022L3.854 55.8l-.118 17.042-.118 17.042-.069 17.042.059 17.032.127 17.003.186 16.875.402 16.376c.189 5.318.529 10.106 1.019 14.366.49 4.266 1.771 6.755 3.842 7.468s5.948 1.068 11.632 1.068h17.081 17.111l17.101.01 17.101.009 17.111-.058 17.091-.167 17.061-.245 16.934-.304 16.435-.509c5.337-.223 10.146-.592 14.425-1.108 4.273-.516 6.772-1.809 7.497-3.88.725-2.065 1.101-5.926 1.127-11.584l.088-17.003.088-17.022.089-17.032.088-17.022.029-17.023-.088-17.012-.157-16.983-.225-16.856-.431-16.346c-.196-5.311-.543-10.097-1.039-14.357s-1.78-6.746-3.852-7.458c-2.064-.719-5.935-1.078-11.612-1.078l-17.042-.029-17.023-.02-16.895-.029-16.375-.029c-5.325-.013-10.104-.007-14.337.02l-6.488.02a1.49 1.49 0 0 1-.245-.059 1.14 1.14 0 0 1-.216-.118.76.76 0 0 1-.186-.167c-.059-.059-.108-.124-.147-.196a1.15 1.15 0 0 1-.088-.235c-.02-.078-.029-.16-.029-.245s.01-.167.029-.245a.92.92 0 0 1 .088-.235c.039-.072.085-.14.137-.206a.76.76 0 0 1 .186-.167 1.66 1.66 0 0 1 .216-.108 1.49 1.49 0 0 1 .245-.059l.118-.02z" fill="#1d1d1d" stroke="#1d1d1d" stroke-width="1.725"/></svg>