<svg xmlns="http://www.w3.org/2000/svg" width="360" height="450" fill="none" xmlns:v="https://vecta.io/nano"><rect width="360" height="450" rx="16" fill="#fff"/><path d="M108.005 105h-9.126l-12.69-35.64h9.099l8.154 25.353 8.154-25.353h9.099L108.005 105zm16.972 0V82.833h8.208V105h-8.208zm4.212-26.73a4.48 4.48 0 0 1-3.294-1.35c-.9-.918-1.35-2.007-1.35-3.267s.45-2.349 1.35-3.267c.918-.936 2.016-1.404 3.294-1.404.846 0 1.62.216 2.322.648.702.414 1.269.972 1.701 1.674s.648 1.485.648 2.349c0 1.26-.459 2.349-1.377 3.267-.918.9-2.016 1.35-3.294 1.35zM147.048 105h-8.235V67.848h8.235V105zm13.5 0h-8.235V67.848h8.235V105zm22.491 0v-3.591c-.162.36-.576.882-1.242 1.566-.648.684-1.512 1.305-2.592 1.863-1.08.54-2.34.81-3.78.81-2.16 0-4.05-.522-5.67-1.566a10.89 10.89 0 0 1-3.78-4.239c-.9-1.782-1.35-3.753-1.35-5.913s.45-4.122 1.35-5.886c.9-1.782 2.16-3.204 3.78-4.266s3.51-1.593 5.67-1.593c1.386 0 2.601.225 3.645.675 1.044.432 1.89.954 2.538 1.566.648.594 1.098 1.143 1.35 1.647v-3.24h8.154V105h-8.073zm-10.368-11.07c0 1.008.234 1.917.702 2.727.468.792 1.089 1.413 1.863 1.863.792.45 1.665.675 2.619.675.99 0 1.863-.225 2.619-.675s1.35-1.071 1.782-1.863c.45-.81.675-1.719.675-2.727s-.225-1.908-.675-2.7c-.432-.81-1.026-1.44-1.782-1.89-.756-.468-1.629-.702-2.619-.702-.954 0-1.827.234-2.619.702-.774.45-1.395 1.08-1.863 1.89-.468.792-.702 1.692-.702 2.7zm35.287 22.923c-1.548 0-3.087-.135-4.617-.405-1.512-.27-2.925-.729-4.239-1.377a9.61 9.61 0 0 1-3.321-2.673l4.806-4.995c.414.486.918.963 1.512 1.431.612.468 1.359.855 2.241 1.161.9.306 1.989.459 3.267.459 1.188 0 2.223-.207 3.105-.621s1.566-1.017 2.052-1.809c.504-.792.756-1.755.756-2.889v-.54h8.073v1.026c0 2.448-.612 4.509-1.836 6.183-1.206 1.674-2.835 2.934-4.887 3.78s-4.356 1.269-6.912 1.269zM213.52 105v-3.591c-.162.36-.576.882-1.242 1.566-.648.684-1.512 1.305-2.592 1.863-1.08.54-2.34.81-3.78.81-2.16 0-4.05-.522-5.67-1.566a10.89 10.89 0 0 1-3.78-4.239c-.9-1.782-1.35-3.753-1.35-5.913s.45-4.122 1.35-5.886c.9-1.782 2.16-3.204 3.78-4.266s3.51-1.593 5.67-1.593c1.386 0 2.601.225 3.645.675 1.044.432 1.89.954 2.538 1.566.648.594 1.098 1.143 1.35 1.647v-3.24h8.154V105h-8.073zm-10.368-11.07c0 1.008.234 1.917.702 2.727.468.792 1.089 1.413 1.863 1.863.792.45 1.665.675 2.619.675.99 0 1.863-.225 2.619-.675s1.35-1.071 1.782-1.863c.45-.81.675-1.719.675-2.727s-.225-1.908-.675-2.7c-.432-.81-1.026-1.44-1.782-1.89-.756-.468-1.629-.702-2.619-.702-.954 0-1.827.234-2.619.702-.774.45-1.395 1.08-1.863 1.89-.468.792-.702 1.692-.702 2.7zm30.236 1.728a3.93 3.93 0 0 0 .756 2.106c.45.612 1.071 1.098 1.863 1.458.81.342 1.764.513 2.862.513 1.044 0 1.98-.108 2.808-.324.846-.216 1.575-.486 2.187-.81.63-.324 1.116-.657 1.458-.999l3.186 5.076c-.45.486-1.089.963-1.917 1.431-.81.45-1.881.819-3.213 1.107s-3.015.432-5.049.432c-2.448 0-4.626-.459-6.534-1.377a10.56 10.56 0 0 1-4.509-4.05c-1.098-1.782-1.647-3.96-1.647-6.534 0-2.16.468-4.104 1.404-5.832.954-1.746 2.331-3.123 4.131-4.131 1.8-1.026 3.969-1.539 6.507-1.539 2.412 0 4.5.441 6.264 1.323a9.24 9.24 0 0 1 4.104 3.942c.972 1.728 1.458 3.888 1.458 6.48l-.027.864c0 .432-.018.72-.054.864h-16.038zm8.397-4.293c-.018-.576-.171-1.143-.459-1.701-.288-.576-.72-1.044-1.296-1.404-.576-.378-1.314-.567-2.214-.567s-1.665.18-2.295.54c-.612.342-1.08.792-1.404 1.35s-.504 1.152-.54 1.782h8.208zM261.254 105h-8.208V82.833h8.208v3.429h-.135c.144-.414.495-.936 1.053-1.566.558-.648 1.341-1.224 2.349-1.728 1.008-.522 2.241-.783 3.699-.783 1.026 0 1.971.162 2.835.486.864.306 1.494.603 1.89.891l-3.186 6.669c-.252-.306-.702-.621-1.35-.945-.63-.342-1.422-.513-2.376-.513-1.098 0-2.007.279-2.727.837-.702.558-1.224 1.233-1.566 2.025-.324.792-.486 1.539-.486 2.241V105z" fill="#1a8000"/><g fill="#000"><path d="M105.793 134.08c-.313 0-.574-.035-.784-.105s-.364-.138-.462-.203l.455-.931c.06.051.133.093.217.126s.198.056.357.056c.205 0 .361-.063.469-.189s.189-.303.231-.532a4.39 4.39 0 0 0 .063-.798v-6.251h1.218v6.545c0 .453-.059.849-.175 1.19s-.297.614-.553.805-.602.287-1.036.287zm1.19-10.794a.77.77 0 0 1-.567-.231c-.154-.159-.231-.348-.231-.567 0-.145.035-.278.105-.399a.88.88 0 0 1 .294-.294.74.74 0 0 1 .399-.112.76.76 0 0 1 .406.112c.121.075.217.173.287.294s.105.254.105.399c0 .219-.077.408-.231.567a.77.77 0 0 1-.567.231zm3.545 4.865c0 .602.129 1.083.385 1.442.262.355.661.532 1.197.532.542 0 .941-.177 1.197-.532s.385-.84.385-1.442v-2.898h1.204v3.066c0 .56-.109 1.055-.329 1.484a2.37 2.37 0 0 1-.945 1.008c-.41.238-.914.357-1.512.357-.592 0-1.096-.119-1.512-.357-.41-.243-.725-.579-.945-1.008-.214-.429-.322-.924-.322-1.484v-3.066h1.197v2.898zm8.138-3.066c.299 0 .577.03.833.091.262.061.486.133.672.217.192.084.327.159.406.224l-.483.77c-.093-.084-.261-.177-.504-.28s-.513-.161-.812-.161c-.326 0-.604.065-.833.196s-.343.31-.343.553.117.436.35.581.556.257.952.35a4.74 4.74 0 0 1 .889.301c.28.126.507.301.679.525s.259.513.259.882c0 .336-.07.623-.21.861s-.329.422-.567.567a2.72 2.72 0 0 1-.798.308c-.294.065-.592.098-.896.098-.354 0-.674-.037-.959-.112s-.525-.154-.721-.252c-.191-.103-.331-.191-.42-.266l.483-.868c.122.117.32.24.595.371s.598.196.952.196c.392 0 .71-.082.952-.245s.364-.385.364-.651c0-.201-.058-.362-.175-.483s-.273-.219-.469-.294-.41-.14-.644-.196a4.63 4.63 0 0 1-.658-.203 2.61 2.61 0 0 1-.581-.322c-.172-.135-.31-.299-.413-.49s-.154-.425-.154-.686a1.22 1.22 0 0 1 .315-.847c.21-.238.486-.42.826-.546s.712-.189 1.113-.189zm2.892.168h1.127v-2.359h1.211v2.359h1.477v1.043h-1.477v2.842c0 .336.058.583.175.742s.282.238.483.238c.177 0 .315-.033.413-.098s.156-.11.175-.133l.483.896c-.028.023-.103.068-.224.133s-.278.124-.469.175-.416.077-.672.077c-.448 0-.824-.135-1.127-.406s-.448-.709-.448-1.302v-3.164h-1.127v-1.043zm11.355 8.82c-.453 0-.864-.047-1.232-.14s-.684-.226-.959-.399a2.22 2.22 0 0 1-.651-.595l.798-.763a2.55 2.55 0 0 0 .357.385c.154.14.361.259.623.357s.602.147 1.022.147c.41 0 .758-.089 1.043-.266a1.71 1.71 0 0 0 .651-.707 2.23 2.23 0 0 0 .224-1.008v-.189h1.19v.266c0 .635-.138 1.167-.413 1.596s-.637.761-1.099.98c-.462.224-.98.336-1.554.336zm1.876-3.073v-1.12c-.038.117-.147.278-.329.483s-.423.392-.735.56-.672.245-1.092.245c-.532 0-1.015-.126-1.449-.378s-.773-.604-1.029-1.057-.378-.992-.378-1.603.126-1.143.378-1.596a2.78 2.78 0 0 1 1.029-1.064 2.79 2.79 0 0 1 1.449-.385c.415 0 .774.075 1.078.224s.553.322.735.518.296.364.329.504v-1.078h1.204V131h-1.19zm-3.808-2.87c0 .415.091.775.273 1.078a1.97 1.97 0 0 0 .707.707c.294.163.606.245.938.245.354 0 .672-.084.952-.252s.501-.404.665-.707.245-.665.245-1.071-.082-.761-.245-1.064c-.164-.308-.385-.546-.665-.714-.28-.173-.598-.259-.952-.259a1.86 1.86 0 0 0-.938.252 1.97 1.97 0 0 0-.707.707c-.182.303-.273.663-.273 1.078zm9.34 3.038c-.593 0-1.12-.133-1.582-.399s-.817-.625-1.078-1.078-.392-.973-.392-1.547.13-1.092.392-1.554a2.93 2.93 0 0 1 1.078-1.099c.462-.271.989-.406 1.582-.406a2.98 2.98 0 0 1 1.561.406 2.89 2.89 0 0 1 1.071 1.099c.256.462.385.98.385 1.554s-.129 1.09-.385 1.547-.614.812-1.071 1.078-.973.399-1.561.399zm0-1.043c.373 0 .697-.086.973-.259s.497-.408.651-.707.231-.644.231-1.022-.077-.719-.231-1.022a1.8 1.8 0 0 0-.651-.721c-.276-.177-.6-.266-.973-.266s-.707.089-.987.266-.5.418-.658.721-.231.644-.231 1.022.077.719.231 1.022a1.81 1.81 0 0 0 .658.707c.28.173.609.259.987.259zm4.5.875v-5.747h1.218V131h-1.218zm.623-7.714c-.219 0-.408-.077-.567-.231-.154-.159-.231-.348-.231-.567s.077-.408.231-.567.348-.238.567-.238a.74.74 0 0 1 .399.112c.126.075.226.173.301.294s.112.25.112.399c0 .219-.079.408-.238.567-.159.154-.35.231-.574.231zm5.67 1.799a2.66 2.66 0 0 1 1.099.238c.359.159.653.411.882.756s.35.786.35 1.337V131h-1.232v-3.346c0-.569-.133-.982-.399-1.239s-.609-.392-1.029-.392c-.275 0-.541.079-.798.238-.252.154-.46.369-.623.644s-.245.579-.245.924V131h-1.218v-5.747h1.218v1.022c.042-.159.156-.331.343-.518s.425-.345.714-.476.602-.196.938-.196zm6.668 8.988c-.453 0-.864-.047-1.232-.14s-.684-.226-.959-.399a2.22 2.22 0 0 1-.651-.595l.798-.763a2.55 2.55 0 0 0 .357.385c.154.14.361.259.623.357s.602.147 1.022.147c.41 0 .758-.089 1.043-.266a1.71 1.71 0 0 0 .651-.707 2.23 2.23 0 0 0 .224-1.008v-.189h1.19v.266c0 .635-.138 1.167-.413 1.596s-.637.761-1.099.98c-.462.224-.98.336-1.554.336zm1.876-3.073v-1.12c-.038.117-.147.278-.329.483s-.423.392-.735.56-.672.245-1.092.245c-.532 0-1.015-.126-1.449-.378s-.773-.604-1.029-1.057-.378-.992-.378-1.603.126-1.143.378-1.596a2.78 2.78 0 0 1 1.029-1.064 2.79 2.79 0 0 1 1.449-.385c.415 0 .774.075 1.078.224s.553.322.735.518.296.364.329.504v-1.078h1.204V131h-1.19zm-3.808-2.87c0 .415.091.775.273 1.078a1.97 1.97 0 0 0 .707.707c.294.163.606.245.938.245.354 0 .672-.084.952-.252s.501-.404.665-.707.245-.665.245-1.071-.082-.761-.245-1.064c-.164-.308-.385-.546-.665-.714-.28-.173-.598-.259-.952-.259a1.86 1.86 0 0 0-.938.252 1.97 1.97 0 0 0-.707.707c-.182.303-.273.663-.273 1.078zm14.786 2.87v-1.12c-.037.117-.147.278-.329.483-.177.205-.422.392-.735.56s-.672.245-1.092.245c-.532 0-1.015-.126-1.449-.378s-.772-.604-1.029-1.057-.378-.992-.378-1.603.126-1.143.378-1.596.6-.812 1.029-1.064a2.79 2.79 0 0 1 1.449-.385c.416 0 .775.075 1.078.224.308.149.553.322.735.518s.297.364.329.504v-1.078h1.204V131h-1.19zm-3.808-2.87c0 .415.091.775.273 1.078a1.98 1.98 0 0 0 .707.707c.294.163.607.245.938.245.355 0 .672-.084.952-.252a1.8 1.8 0 0 0 .665-.707c.164-.308.245-.665.245-1.071s-.081-.761-.245-1.064c-.163-.308-.385-.546-.665-.714-.28-.173-.597-.259-.952-.259a1.86 1.86 0 0 0-.938.252 1.98 1.98 0 0 0-.707.707c-.182.303-.273.663-.273 1.078zm6.598 2.87v-9.632h1.232v4.963c.028-.145.137-.315.329-.511s.448-.366.77-.511.693-.224 1.113-.224a2.66 2.66 0 0 1 1.428.385c.415.252.742.607.98 1.064s.364.985.364 1.596-.122 1.146-.364 1.603-.565.805-.98 1.057-.892.378-1.428.378c-.397 0-.756-.075-1.078-.224s-.577-.324-.777-.525-.327-.38-.378-.539V131h-1.211zm5.005-2.87c0-.415-.084-.775-.252-1.078s-.392-.539-.672-.707-.579-.252-.91-.252c-.36 0-.686.086-.98.259-.294.168-.528.406-.7.714-.173.303-.259.658-.259 1.064a2.15 2.15 0 0 0 .259 1.071 1.85 1.85 0 0 0 .7.707c.294.168.62.252.98.252.331 0 .634-.082.91-.245s.504-.404.672-.707.252-.663.252-1.078zm5.025 3.038c-.593 0-1.12-.133-1.582-.399s-.817-.625-1.078-1.078-.392-.973-.392-1.547.13-1.092.392-1.554a2.93 2.93 0 0 1 1.078-1.099c.462-.271.989-.406 1.582-.406a2.98 2.98 0 0 1 1.561.406 2.89 2.89 0 0 1 1.071 1.099c.256.462.385.98.385 1.554s-.129 1.09-.385 1.547-.614.812-1.071 1.078-.973.399-1.561.399zm0-1.043c.373 0 .697-.086.973-.259s.497-.408.651-.707.231-.644.231-1.022-.077-.719-.231-1.022a1.8 1.8 0 0 0-.651-.721c-.276-.177-.6-.266-.973-.266s-.707.089-.987.266-.5.418-.658.721-.231.644-.231 1.022.077.719.231 1.022a1.81 1.81 0 0 0 .658.707c.28.173.609.259.987.259zm5.508-1.974c0 .602.128 1.083.385 1.442s.66.532 1.197.532.94-.177 1.197-.532.385-.84.385-1.442v-2.898h1.204v3.066c0 .56-.11 1.055-.329 1.484a2.38 2.38 0 0 1-.945 1.008c-.411.238-.915.357-1.512.357s-1.097-.119-1.512-.357a2.43 2.43 0 0 1-.945-1.008c-.215-.429-.322-.924-.322-1.484v-3.066h1.197v2.898zm5.478-2.898h1.127v-2.359h1.211v2.359h1.477v1.043h-1.477v2.842c0 .336.059.583.175.742a.58.58 0 0 0 .483.238c.178 0 .315-.033.413-.098a.98.98 0 0 0 .175-.133l.483.896c-.028.023-.102.068-.224.133a2.19 2.19 0 0 1-.469.175 2.62 2.62 0 0 1-.672.077c-.448 0-.823-.135-1.127-.406-.298-.275-.448-.709-.448-1.302v-3.164h-1.127v-1.043zm8.121 0h1.127v-2.359h1.211v2.359h1.477v1.043h-1.477v2.842c0 .336.059.583.175.742a.58.58 0 0 0 .483.238c.178 0 .315-.033.413-.098a.98.98 0 0 0 .175-.133l.483.896c-.028.023-.102.068-.224.133a2.19 2.19 0 0 1-.469.175 2.62 2.62 0 0 1-.672.077c-.448 0-.823-.135-1.127-.406-.298-.275-.448-.709-.448-1.302v-3.164h-1.127v-1.043zm8.38-.168a2.66 2.66 0 0 1 1.099.238c.359.159.653.411.882.756s.35.786.35 1.337V131h-1.232v-3.346c0-.569-.131-.982-.392-1.239s-.595-.392-1.015-.392c-.28 0-.548.079-.805.238a1.87 1.87 0 0 0-.637.644c-.163.271-.245.579-.245.924V131h-1.232v-9.632h1.232v4.907c.042-.159.154-.331.336-.518.187-.187.425-.345.714-.476a2.26 2.26 0 0 1 .945-.196zm4.741 3.29a2.11 2.11 0 0 0 .224.945 1.63 1.63 0 0 0 .644.679c.289.168.644.252 1.064.252.354 0 .655-.051.903-.154s.457-.233.616-.378.273-.282.343-.399l.595.735a2.51 2.51 0 0 1-.567.588c-.22.168-.488.296-.805.385s-.705.14-1.162.14c-.616 0-1.151-.131-1.603-.392-.448-.266-.794-.632-1.036-1.099s-.364-1.01-.364-1.617c0-.56.114-1.064.343-1.512a2.58 2.58 0 0 1 .994-1.071c.438-.261.966-.392 1.582-.392.564 0 1.054.119 1.47.357a2.41 2.41 0 0 1 .973.994c.233.429.35.943.35 1.54l-.007.203-.014.196h-4.543zm3.402-.917c-.005-.191-.061-.401-.168-.63s-.271-.425-.504-.588-.549-.245-.945-.245c-.411 0-.742.079-.994.238s-.43.352-.546.581-.185.439-.203.644h3.36zm2.639 3.542v-5.747h1.218V131h-1.218zm.623-7.714c-.219 0-.408-.077-.567-.231-.154-.159-.231-.348-.231-.567s.077-.408.231-.567.348-.238.567-.238a.74.74 0 0 1 .399.112c.126.075.227.173.301.294s.112.25.112.399c0 .219-.079.408-.238.567-.158.154-.35.231-.574.231zm3.654 7.714h-1.211v-5.747h1.211v.994h-.035c.024-.121.11-.273.259-.455s.355-.345.616-.49.574-.217.938-.217c.266 0 .5.037.7.112.206.07.35.14.434.21l-.497 1.008c-.065-.065-.179-.131-.343-.196s-.366-.105-.609-.105c-.308 0-.571.096-.791.287s-.387.422-.504.693c-.112.266-.168.513-.168.742V131zm9.718.168c-.527 0-1.001-.126-1.421-.378a2.7 2.7 0 0 1-.987-1.057c-.238-.457-.357-.992-.357-1.603s.119-1.143.357-1.596.572-.812.987-1.064c.42-.257.894-.385 1.421-.385a2.64 2.64 0 0 1 1.12.224c.322.145.579.315.77.511s.301.366.329.511v-4.963h1.225V131h-1.204v-1.12c-.051.159-.179.338-.385.539-.2.201-.459.376-.777.525s-.676.224-1.078.224zm.28-1.008c.355 0 .679-.084.973-.252a1.85 1.85 0 0 0 .7-.707c.178-.308.266-.665.266-1.071s-.088-.761-.266-1.064c-.172-.308-.406-.546-.7-.714a1.88 1.88 0 0 0-.973-.259 1.74 1.74 0 0 0-.91.252c-.28.168-.506.404-.679.707s-.252.663-.252 1.078.084.775.252 1.078.399.539.679.707a1.78 1.78 0 0 0 .91.245zm9.148.84v-1.12c-.037.117-.147.278-.329.483-.177.205-.422.392-.735.56s-.672.245-1.092.245c-.532 0-1.015-.126-1.449-.378s-.772-.604-1.029-1.057-.378-.992-.378-1.603.126-1.143.378-1.596.6-.812 1.029-1.064a2.79 2.79 0 0 1 1.449-.385c.415 0 .775.075 1.078.224s.553.322.735.518.296.364.329.504v-1.078h1.204V131h-1.19zm-3.808-2.87c0 .415.091.775.273 1.078a1.98 1.98 0 0 0 .707.707c.294.163.607.245.938.245.355 0 .672-.084.952-.252a1.8 1.8 0 0 0 .665-.707c.163-.308.245-.665.245-1.071s-.082-.761-.245-1.064c-.163-.308-.385-.546-.665-.714-.28-.173-.597-.259-.952-.259a1.86 1.86 0 0 0-.938.252 1.98 1.98 0 0 0-.707.707c-.182.303-.273.663-.273 1.078zm9.012 1.757l1.939-4.634h1.218l-3.878 8.659h-1.232l1.302-2.912-2.366-5.747h1.239l1.778 4.634z"/><path d="M172.562 158.787l5.082-.023 11.463-.11 13.084-.157 13.491-.164 13.609-.165 13.648-.164c4.557-.052 7.947.405 10.171 1.37 2.218.976 3.628 3.336 4.228 7.079s.953 7.788 1.057 12.12l.172 13.225-.008 13.499-.054 13.578-.024 13.593.071 13.6.109 13.601.118 13.601.109 13.601.11 13.624c.037 4.546-.433 7.926-1.409 10.14s-3.341 3.635-7.11 4.251-7.822.987-12.176 1.112l-13.28.235-13.561.055-13.64.008-13.663.047-13.664.133-13.663.18-13.671.18-13.664.18-13.679.18c-4.567.058-7.966-.399-10.195-1.37-2.223-.971-3.633-3.333-4.228-7.086-.59-3.753-.932-7.796-1.026-12.129l-.148-13.24.039-13.515.078-13.585.047-13.617-.039-13.616-.086-13.616-.094-13.617-.086-13.616-.079-13.632c-.031-4.552.439-7.937 1.41-10.156.976-2.213 3.346-3.628 7.11-4.244 3.758-.616 7.809-.984 12.152-1.104l13.264-.211 13.538-.039 13.608.008 13.64-.032 13.632-.117 15.974-.18 9.317-.071a1.17 1.17 0 0 1 .306.102 1.07 1.07 0 0 1 .266.196 1.09 1.09 0 0 1 .18.258c.047.099.076.204.086.313a.87.87 0 0 1-.015.329.9.9 0 0 1-.118.298c-.057.094-.128.177-.211.25-.079.068-.17.123-.274.165s-.204.065-.313.07c-.11.011-.217 0-.322-.031a.87.87 0 0 1-.297-.133c-.089-.063-.167-.136-.235-.219a1.06 1.06 0 0 1-.157-.29c-.036-.105-.054-.212-.054-.321s.018-.217.054-.321c.032-.094.081-.186.149-.274s.146-.165.235-.227a.87.87 0 0 1 .29-.134c.109-.031.216-.044.321-.039s.216.029.321.071a.87.87 0 0 1 .274.164c.089.068.159.149.211.243.058.089.1.188.126.298.026.104.031.211.015.321-.01.109-.036.214-.078.313a.95.95 0 0 1-.188.266 1.02 1.02 0 0 1-.251.196c-.099.052-.2.088-.305.109l-.164.024h-9.154a5361.13 5361.13 0 0 1-15.973-.008 2000.7 2000.7 0 0 0-13.64.031l-13.632.118-13.608.18-13.507.227-13.1.391c-4.259.178-8.093.47-11.502.877-3.414.408-5.411 1.439-5.99 3.093s-.885 4.745-.916 9.271l-.094 13.601-.102 13.616-.094 13.617-.094 13.616-.055 13.616.047 13.609.102 13.585.149 13.483.321 13.084c.151 4.249.423 8.076.814 11.479.392 3.409 1.415 5.398 3.07 5.967s4.752.853 9.294.853h13.648 13.671l13.663.008 13.664.008 13.671-.047 13.655-.133 13.632-.196 13.531-.243 13.131-.407c4.264-.177 8.106-.472 11.525-.885 3.414-.412 5.411-1.446 5.99-3.1s.88-4.735.901-9.255l.07-13.586.071-13.6.07-13.609.071-13.601.023-13.6-.07-13.593-.126-13.57-.18-13.467-.344-13.061c-.157-4.244-.433-8.067-.83-11.471s-1.423-5.39-3.077-5.959c-1.65-.574-4.743-.861-9.279-.861l-13.616-.023-13.601-.016-13.499-.024-13.084-.023a1353.18 1353.18 0 0 0-11.455.016l-5.184.015c-.068-.01-.133-.026-.196-.047a.89.89 0 0 1-.172-.094.61.61 0 0 1-.149-.133.68.68 0 0 1-.117-.156c-.031-.063-.055-.126-.071-.188a.84.84 0 0 1 0-.392.77.77 0 0 1 .071-.188c.031-.057.068-.112.11-.164a.59.59 0 0 1 .148-.133c.053-.032.11-.06.173-.086a1.11 1.11 0 0 1 .195-.047l.094-.016z" stroke="#1d1d1d" stroke-width="1.725"/><path d="M150.397 210.287l-.617 4.275-.876 8.006-.38 6.479-.179 4.89c-.034 1.427.071 3.003.315 4.727.24 1.729.603 3.469 1.091 5.221a46.81 46.81 0 0 0 1.823 5.279l2.332 5.122c.832 1.654 1.808 3.27 2.927 4.848s2.38 3.153 3.767 4.727l3.76 4.14c1.119 1.187 2.222 2.144 3.308 2.869l2.59 1.724c.646.424 1.306.69 1.98.798l2.598.304 3.465.212c1.249.047 2.572-.042 3.968-.268l4.413-.686c1.55-.226 2.894-.511 4.033-.855 1.133-.339 2.114-.76 2.942-1.264l2.432-1.364c.794-.405 1.519-.864 2.174-1.378l2.002-1.675 1.815-1.717a17.86 17.86 0 0 0 1.464-1.674c.445-.584.818-1.27 1.119-2.056l1.113-2.565 1.55-3.13 1.442-3.208c.373-.975.703-2.047.99-3.215s.634-2.287 1.04-3.356.67-1.995.79-2.777a24.44 24.44 0 0 0 .258-2.424c.048-.834.153-1.712.316-2.636.158-.928.277-1.945.358-3.052l.187-3.165.079-2.912-.022-2.6-.007-2.854.007-2.968-.165-2.742-.251-3.328-.057-2.134a1.65 1.65 0 0 1 .165-.487 1.66 1.66 0 0 1 .316-.41 1.52 1.52 0 0 1 .437-.29 1.63 1.63 0 0 1 .51-.141c.172-.019.346-.009.523.028a1.68 1.68 0 0 1 .488.191c.149.09.28.2.395.332.115.137.206.285.273.445s.105.335.115.509a1.53 1.53 0 0 1-.058.509 1.61 1.61 0 0 1-.222.473c-.101.142-.22.266-.359.375a1.79 1.79 0 0 1-.466.24c-.168.056-.34.085-.517.085s-.349-.029-.517-.085-.323-.137-.466-.24c-.139-.109-.258-.233-.359-.375a1.61 1.61 0 0 1-.222-.473 1.53 1.53 0 0 1-.058-.509c.01-.174.048-.344.115-.509s.158-.308.273-.445a1.67 1.67 0 0 1 .394-.332 1.69 1.69 0 0 1 .488-.191 1.66 1.66 0 0 1 .524-.028 1.63 1.63 0 0 1 .51.141 1.52 1.52 0 0 1 .437.29 1.66 1.66 0 0 1 .316.41 1.65 1.65 0 0 1 .165.487l.043.262-.108 1.872-.244 3.328-.172 2.749v2.968l-.028 2.868-.079 2.622-.051 2.96-.107 3.335c-.053 1.202-.16 2.229-.323 3.081l-.38 2.643a19.83 19.83 0 0 1-.452 2.671 24.44 24.44 0 0 1-.861 2.805c-.369.998-.699 2.122-.991 3.37a30.88 30.88 0 0 1-1.004 3.448c-.373 1.051-.835 2.155-1.385 3.314l-1.392 3.081-1.155 2.876c-.388 1.027-.861 1.86-1.421 2.501a16.15 16.15 0 0 1-1.729 1.724l-1.981 1.717-2.281 1.809c-.799.565-1.579 1.008-2.339 1.328s-1.62.764-2.591 1.343-2.064 1.05-3.293 1.427c-1.234.377-2.619.686-4.155.926l-4.599.749c-1.526.264-2.932.384-4.219.36l-3.717-.141c-1.191-.071-2.239-.245-3.143-.523s-1.643-.662-2.231-1.152-1.476-1.14-2.662-1.95-2.354-1.818-3.487-3.024l-3.846-4.24c-1.435-1.62-2.739-3.262-3.911-4.925s-2.184-3.332-3.035-5.023l-2.411-5.293c-.751-1.832-1.382-3.664-1.894-5.497s-.904-3.662-1.163-5.49-.375-3.462-.351-4.904l.136-4.939.33-6.585.804-8.084.603-4.409c.023-.084.057-.167.1-.247s.096-.146.158-.212a1.1 1.1 0 0 1 .201-.169.99.99 0 0 1 .244-.121.92.92 0 0 1 .258-.063.93.93 0 0 1 .258.007c.091.009.18.031.266.063s.158.076.229.128c.077.051.144.11.201.176s.108.144.151.219c.038.08.069.165.093.255s.029.169.029.254l-.007.134z"/><path d="M127.42 204.966l-1.758.254-3.294.488c-1.018.16-1.073.426-.165.798l3.028 1.272a14.77 14.77 0 0 0 3.323 1.011l3.386.6 3.064.424c.895.071 1.703.221 2.425.452a10.07 10.07 0 0 0 2.11.431l2.425.191 2.956.17 3.021.099 3.043.063 3.358.057 3.501.035 3.401.028 2.727-.063 2.267-.106 2.562-.043 3.157.029 3.738.07 3.552.205 3.738.262 3.925.12 3.43.063c1.057.01 2.062.116 3.014.318a24.92 24.92 0 0 0 2.87.438l3.164.205 3.265.099 2.985.028 3.02.015 3.201.021 3.107.007 2.92-.021 2.353-.099 2.275-.085 2.884.028c1.019.024 1.99-.014 2.914-.113l2.504-.268 2.081-.219 2.009-.276c.703-.122 1.193-.396 1.471-.82.282-.419.342-.866.179-1.342s-.524-.78-1.083-.912-1.072-.306-1.536-.523c-.469-.216-1.002-.409-1.6-.579s-1.289-.259-2.059-.254-1.498-.146-2.182-.452-1.315-.472-1.894-.495-1.457-.13-2.648-.318l-2.159-.382c-.254-.066-.491-.167-.711-.303-.22-.142-.411-.314-.574-.516s-.287-.42-.373-.664a2.2 2.2 0 0 1-.143-.749c-.005-.25.033-.497.114-.742s.192-.471.345-.679.335-.386.545-.537a2.56 2.56 0 0 1 .696-.332c.249-.075.505-.108.768-.099.258.01.509.059.753.149s.474.216.675.381a2.29 2.29 0 0 1 .509.566c.139.216.239.449.302.699s.081.502.057.756a2.44 2.44 0 0 1-.187.735c-.105.235-.246.447-.423.636s-.378.346-.603.473-.473.215-.732.262c-.253.042-.509.047-.767.014s-.505-.113-.739-.226a2.56 2.56 0 0 1-.625-.452c-.181-.184-.33-.391-.444-.622a2.31 2.31 0 0 1-.223-.728c-.033-.25-.024-.499.029-.749s.136-.492.265-.714a2.53 2.53 0 0 1 .488-.586 2.31 2.31 0 0 1 .653-.41c.244-.099.495-.158.754-.177l.387-.028 1.708.297 2.798.424c.732.085 1.387.273 1.966.565.579.297 1.136.45 1.672.459s1.205.099 2.009.269l1.93.48c.493.156.964.398 1.414.728s.971.622 1.564.876 1.069.563 1.428.94a4.58 4.58 0 0 1 .861 1.307c.22.49.368 1.185.445 2.085s-.156 1.731-.696 2.494-1.024 1.34-1.45 1.731-1.176.638-2.267.742l-2.562.134-1.994-.028c-.713.005-1.574.064-2.583.177l-3.036.205-2.884.028-2.275-.092-2.353-.099-2.92-.021c-.991-.005-2.029-.005-3.115 0l-3.2.007c-1.052.005-2.064 0-3.035-.014l-3.013-.036-3.344-.07-3.38-.184c-1.062-.089-1.99-.245-2.784-.466s-1.727-.342-2.784-.347-2.207-.007-3.451-.021l-4.011-.07-3.71-.184c-1.033-.09-2.181-.125-3.444-.106l-3.738.071-3.157.028-2.562-.043-2.267-.106-2.727-.063-3.401.021-3.501.035-3.373.036-3.057.028-3.071.021c-1.061.014-2.097.01-3.106-.014-1.015-.024-1.966-.108-2.856-.254s-1.574-.342-2.052-.601-1.187-.422-2.124-.502l-3.136-.353-3.695-.48c-1.306-.17-2.502-.436-3.588-.799l-3.121-1.024a4.94 4.94 0 0 1-2.454-1.732c-.636-.833-.844-1.54-.624-2.119s.648-1.046 1.284-1.399 1.474-.641 2.512-.862l3.293-.721 1.916-.389c.11-.004.22.003.33.022a1.94 1.94 0 0 1 .323.098 1.29 1.29 0 0 1 .287.177 1.38 1.38 0 0 1 .237.233c.071.09.131.186.179.29.043.099.076.205.1.318s.024.217.015.325a1.28 1.28 0 0 1-.058.325c-.033.108-.079.21-.136.304a1.62 1.62 0 0 1-.215.261c-.077.08-.165.149-.266.205a1.35 1.35 0 0 1-.308.134l-.158.05z"/><path d="M120.77 204.651l.631-.339c.417-.222.955-.434 1.615-.636s1.205-.464 1.636-.785c.426-.315 1.021-.539 1.786-.671l2.038-.24 2.26-.17 2.325-.183 2.562-.078c1.057-.01 1.99-.163 2.798-.459s1.639-.488 2.49-.573l2.059-.141 1.801-.035 1.887-.057 2.332-.049 1.837.042c.249.038.483.115.703.233s.424.266.596.445.311.382.416.608.172.462.201.707.014.489-.043.734a2.21 2.21 0 0 1-.273.679c-.129.212-.289.398-.48.558s-.405.287-.639.381-.478.142-.732.156c-.249.014-.495-.012-.739-.078a2.17 2.17 0 0 1-.674-.311 2.19 2.19 0 0 1-.546-.501 2.37 2.37 0 0 1-.344-.65 2.18 2.18 0 0 1-.122-.721 2.2 2.2 0 0 1 .122-.728 2.37 2.37 0 0 1 .344-.65c.153-.198.335-.365.546-.502a2.19 2.19 0 0 1 .674-.311c.244-.066.49-.091.739-.077a2.42 2.42 0 0 1 .732.155c.234.094.447.222.639.382s.351.346.48.558.22.44.273.685.072.483.043.728-.096.485-.201.707a2.22 2.22 0 0 1-.416.607 2.28 2.28 0 0 1-.596.445c-.22.118-.454.196-.703.234l-.373.063-1.464-.021-2.324-.042-1.852-.043c-.665-.014-1.428-.014-2.289 0l-2.088.113c-.531.062-1.172.226-1.923.495s-1.461.419-2.131.452l-2.26.134c-.837.057-1.621.151-2.353.283s-1.414.193-2.06.184l-2.037-.036c-.713-.009-1.543.17-2.49.537l-2.06.855-.861.368c-.148.052-.299.085-.452.099s-.299.016-.452-.007-.299-.057-.437-.113a1.86 1.86 0 0 1-.402-.219 1.64 1.64 0 0 1-.337-.311c-.101-.113-.187-.238-.259-.375a1.91 1.91 0 0 1-.15-.424 2.02 2.02 0 0 1-.051-.445c.005-.151.027-.299.065-.445s.1-.285.172-.417.165-.259.266-.367a1.92 1.92 0 0 1 .351-.297l.194-.127v.007z"/><path d="M152.081 201.418l-.028-1.258c-.019-.838.148-2.049.502-3.632.349-1.587.985-3.264 1.909-5.03l2.791-4.855 2.124-3.561a13.83 13.83 0 0 1 1.743-2.529c.68-.782 1.507-1.505 2.483-2.17.981-.664 2.191-1.199 3.631-1.604l4.097-1.293 3.602-1.144 2.884-.728 2.397-.41c.789-.094 1.834-.141 3.135-.141s2.576.11 3.825.332l3.071.41c.803.056 1.774.221 2.913.494s2.263.754 3.358 1.442c1.095.683 2.007 1.189 2.734 1.519s1.492.803 2.296 1.42l2.619 2.106 2.353 1.766a7.5 7.5 0 0 1 1.672 1.42l1.464 1.767 1.256 1.646 1.42 1.767c.593.697 1.041 1.625 1.342 2.784s.632 1.999.99 2.522c.364.528.684 1.26.962 2.198s.576 1.728.897 2.374l.818 1.794.602 1.597c.177.519.455 1.081.833 1.689l.724 1.223c.11.211.185.433.223.664s.036.471-.007.706-.122.45-.237.657a2.17 2.17 0 0 1-.431.559 2.27 2.27 0 0 1-.595.388c-.22.099-.45.16-.689.184-.239.019-.476.002-.71-.05s-.455-.141-.66-.268-.386-.276-.539-.459-.279-.379-.366-.601-.133-.45-.143-.685c-.01-.241.019-.474.086-.7a2.29 2.29 0 0 1 .301-.636c.139-.193.304-.36.496-.501a2.29 2.29 0 0 1 .638-.325c.225-.076.459-.111.703-.106a2.12 2.12 0 0 1 .703.12 2.39 2.39 0 0 1 .625.332c.191.146.351.318.48.516.134.197.232.412.295.643s.086.459.071.699-.067.464-.157.686a2.16 2.16 0 0 1-.374.593 2.2 2.2 0 0 1-.552.452c-.206.118-.426.2-.66.248a2.2 2.2 0 0 1-.718.035 2.12 2.12 0 0 1-.681-.198c-.22-.099-.417-.231-.589-.396l-.258-.247-.825-1.434c-.55-.957-.911-1.833-1.084-2.629-.167-.791-.423-1.441-.767-1.95s-.584-1.008-.732-1.498-.228-1.003-.251-1.526c-.029-.528-.125-1.091-.287-1.689a10.87 10.87 0 0 0-.689-1.816c-.302-.617-.467-1.187-.495-1.71s-.118-1.064-.266-1.625-.416-1.053-.804-1.463-.712-.852-.975-1.328a17.35 17.35 0 0 0-1.091-1.667l-1.076-1.619c-.244-.438-.672-.892-1.285-1.363l-2.353-1.83-2.454-1.936a14.77 14.77 0 0 0-2.16-1.421l-2.475-1.476c-.895-.57-1.866-.964-2.914-1.18l-2.827-.495-2.934-.438c-1.115-.179-2.299-.245-3.552-.198l-2.971.092-2.224.148c-.756.08-1.667.271-2.734.573l-3.602 1.173-3.874 1.215c-1.244.325-2.285.77-3.122 1.335-.832.57-1.545 1.173-2.138 1.809s-1.136 1.437-1.629 2.388l-2.059 3.583-2.569 4.55c-.832 1.607-1.392 3.123-1.679 4.551s-.433 2.565-.452 3.398l-.043 1.385c-.009.09-.031.177-.064.262a1.16 1.16 0 0 1-.13.24 1.06 1.06 0 0 1-.186.205 1.02 1.02 0 0 1-.223.155 1.15 1.15 0 0 1-.258.099c-.091.019-.182.029-.273.029a1.33 1.33 0 0 1-.272-.029 1.15 1.15 0 0 1-.258-.099 1.02 1.02 0 0 1-.223-.155 1.06 1.06 0 0 1-.186-.205 1.16 1.16 0 0 1-.13-.24c-.033-.085-.055-.172-.064-.262l-.015-.134z"/><path d="M220.606 205.505l-.811-.445a5.35 5.35 0 0 0-1.758-.608c-.626-.103-1.004-.191-1.134-.261a1.8 1.8 0 0 1-.358-.248 1.79 1.79 0 0 1-.28-.325 1.76 1.76 0 0 1-.194-.388c-.048-.137-.079-.276-.093-.417a1.63 1.63 0 0 1 .014-.431c.019-.146.058-.285.115-.417s.122-.257.208-.375a1.77 1.77 0 0 1 .301-.317c.11-.09.232-.168.366-.234a1.56 1.56 0 0 1 .409-.141c.144-.033.29-.047.438-.042a1.87 1.87 0 0 1 .431.063c.143.038.808.354 1.994.947l1.981 1.018c.143.089.268.195.373.317a1.48 1.48 0 0 1 .244.424 1.46 1.46 0 0 1 .093.474c.005.16-.014.318-.057.473a1.54 1.54 0 0 1-.216.438c-.095.132-.212.248-.351.347-.134.094-.28.167-.438.219a1.51 1.51 0 0 1-.481.063 1.4 1.4 0 0 1-.48-.085 1.56 1.56 0 0 1-.431-.233 1.59 1.59 0 0 1-.33-.36c-.091-.137-.158-.285-.201-.445a1.61 1.61 0 0 1-.043-.474 1.59 1.59 0 0 1 .115-.473 1.56 1.56 0 0 1 .265-.41c.11-.122.237-.224.381-.304s.296-.136.459-.169.323-.04.481-.022a1.62 1.62 0 0 1 .473.142c.148.07.282.165.402.282a1.45 1.45 0 0 1 .294.389 1.55 1.55 0 0 1 .144.459c.024.16.021.321-.007.481a1.38 1.38 0 0 1-.165.452 1.45 1.45 0 0 1-.309.382c-.12.108-.256.195-.409.261s-.313.108-.481.127c-.158.014-.318 0-.481-.042l-.243-.057-1.873-.622-2.06-.727c-.129-.066-.246-.149-.351-.248s-.206-.207-.287-.325a1.9 1.9 0 0 1-.194-.388 1.56 1.56 0 0 1-.093-.417 1.63 1.63 0 0 1 .014-.431c.019-.146.058-.285.115-.417s.122-.257.208-.375a1.77 1.77 0 0 1 .301-.317c.11-.09.232-.168.366-.234a1.56 1.56 0 0 1 .409-.141c.144-.033.29-.047.438-.042a1.87 1.87 0 0 1 .431.063c.143.038.586.193 1.327.467s1.366.581 1.887.911l.933.615c.105.075.198.162.28.261a1.89 1.89 0 0 1 .193.325c.058.118.099.24.122.368.024.122.032.245.022.367a1.99 1.99 0 0 1-.065.375 1.52 1.52 0 0 1-.157.346c-.067.108-.146.209-.237.304-.091.089-.194.167-.309.233a1.58 1.58 0 0 1-.344.155 1.71 1.71 0 0 1-.38.071c-.125.009-.252.002-.381-.021a1.64 1.64 0 0 1-.366-.113l-.179-.078zm-65.145 21.539l.431-1.187a14.69 14.69 0 0 1 1.012-2.218c.382-.688.889-1.251 1.521-1.689s1.239-.742 1.822-.912a9.53 9.53 0 0 1 1.83-.339c.641-.052 1.325.066 2.052.353s1.352.641 1.873 1.046 1.241 1.274 2.16 2.607 1.377 2.111 1.377 2.332-.026.424-.093.622c-.067.207-.165.398-.294.572a2.02 2.02 0 0 1-.466.453 2.1 2.1 0 0 1-.589.275 2.2 2.2 0 0 1-.653.085 1.99 1.99 0 0 1-.638-.134 1.95 1.95 0 0 1-.56-.318c-.172-.142-.316-.304-.431-.488a1.93 1.93 0 0 1-.251-.586 1.79 1.79 0 0 1-.043-.636 1.87 1.87 0 0 1 .165-.622c.086-.198.204-.377.352-.537a2.1 2.1 0 0 1 .516-.396c.192-.108.398-.181.618-.219a2.01 2.01 0 0 1 .652-.007 2.06 2.06 0 0 1 .618.198 1.97 1.97 0 0 1 .523.382c.158.15.285.325.381.522a1.91 1.91 0 0 1 .179.615c.029.217.022.431-.021.643-.048.207-.127.405-.237.594a1.88 1.88 0 0 1-.416.494 1.95 1.95 0 0 1-.553.339 1.92 1.92 0 0 1-.631.149c-.22.014-.438-.005-.653-.057s-.409-.143-.596-.261a2.25 2.25 0 0 1-.481-.438 2.08 2.08 0 0 1-.315-.558l-.108-.304-.631-.848c-.417-.57-.84-1.088-1.27-1.555s-.964-.671-1.6-.614a2.82 2.82 0 0 0-1.665.692c-.479.41-.828 1.018-1.048 1.823l-.416 1.399a2.02 2.02 0 0 1-.23.375 1.71 1.71 0 0 1-.315.303c-.115.09-.239.165-.373.227a1.65 1.65 0 0 1-.424.127c-.143.028-.287.037-.43.028s-.294-.035-.438-.078a2.2 2.2 0 0 1-.402-.183c-.124-.076-.239-.163-.344-.262-.105-.104-.196-.219-.273-.346a1.67 1.67 0 0 1-.179-.396c-.043-.136-.07-.278-.079-.424a1.62 1.62 0 0 1 .029-.431l.035-.212zm29.901.007l.452-1.229c.301-.82.717-1.524 1.248-2.113s1.203-1.008 2.017-1.243 1.492-.38 2.037-.446a8.75 8.75 0 0 1 1.608-.035c.526.033 1.162.288 1.908.763.746.481 1.383.964 1.909 1.449s1.177 1.396 1.952 2.72c.774 1.319 1.157 2.087 1.148 2.304a1.93 1.93 0 0 1-.13.614 1.9 1.9 0 0 1-.322.544c-.139.165-.299.304-.481.417a2 2 0 0 1-.596.241 2.07 2.07 0 0 1-.638.042c-.216-.019-.421-.073-.617-.163a1.95 1.95 0 0 1-.539-.346c-.157-.141-.289-.306-.394-.494a1.87 1.87 0 0 1-.208-.594c-.038-.212-.043-.422-.015-.629.034-.212.101-.412.201-.6s.223-.358.381-.509.327-.264.523-.353a1.86 1.86 0 0 1 .617-.177c.211-.028.424-.021.639.021s.409.123.596.226a1.89 1.89 0 0 1 .495.396c.144.16.256.339.337.537s.129.403.143.615-.004.421-.057.628a2.11 2.11 0 0 1-.258.573 1.96 1.96 0 0 1-.438.466c-.167.132-.354.233-.56.304a1.92 1.92 0 0 1-.631.106c-.215 0-.426-.026-.632-.092a2.04 2.04 0 0 1-.574-.29c-.172-.122-.32-.273-.444-.452a1.8 1.8 0 0 1-.273-.565l-.093-.304-.474-.841c-.316-.56-.89-1.189-1.722-1.886s-1.715-1.015-2.648-.954-1.499.473-1.7 1.25l-.395 1.357a1.89 1.89 0 0 1-.229.368 1.56 1.56 0 0 1-.309.303 2.19 2.19 0 0 1-.366.219c-.134.057-.273.099-.416.128a2.23 2.23 0 0 1-.431.028c-.143-.01-.287-.035-.43-.078s-.27-.106-.395-.177a1.84 1.84 0 0 1-.344-.268 1.72 1.72 0 0 1-.266-.339c-.076-.123-.136-.252-.179-.389s-.069-.278-.079-.424c-.005-.136.005-.275.029-.417l.043-.212zm-8.789 18.989l-.682.876c-.459.585-.775 1.173-.947 1.767s.103 1.189.84 1.788 1.408.975 2.001 1.13 1.098-.287 1.514-1.328.256-1.92-.48-2.636-1.414-1.015-2.045-.911l-1.263.219a1.96 1.96 0 0 1-.639-.007c-.21-.033-.411-.099-.602-.198s-.362-.231-.51-.382-.268-.329-.359-.523a1.92 1.92 0 0 1-.172-.607 2.1 2.1 0 0 1 .036-.622 1.92 1.92 0 0 1 .244-.587 1.85 1.85 0 0 1 .416-.48 1.99 1.99 0 0 1 .545-.325 2.18 2.18 0 0 1 .625-.134 2.06 2.06 0 0 1 .631.07c.206.057.4.146.581.269.177.118.33.261.46.431a1.83 1.83 0 0 1 .301.558 1.95 1.95 0 0 1 .1.615 1.97 1.97 0 0 1-.1.622 2.06 2.06 0 0 1-.301.558c-.134.169-.29.313-.467.431a2.05 2.05 0 0 1-.581.261c-.211.057-.421.08-.631.071-.216-.014-.424-.061-.625-.141a2 2 0 0 1-.545-.325 1.84 1.84 0 0 1-.416-.481c-.11-.184-.189-.379-.237-.586s-.053-.415-.029-.622a1.95 1.95 0 0 1 .172-.608c.091-.193.211-.367.359-.523.149-.15.318-.275.51-.374l.287-.149 1.959-.325c1.305-.216 2.286-.115 2.941.304s1.187.834 1.608 1.23l1.191 1.102c.373.344.684.775.933 1.293s.358 1.114.315 1.788a12.18 12.18 0 0 1-.308 2.042c-.163.683-.431 1.486-.804 2.409s-.971 1.555-1.794 1.894-1.507.464-2.052.36l-1.916-.48c-.741-.217-1.559-.528-2.454-.933-.904-.405-1.607-.954-2.109-1.646a3.39 3.39 0 0 1-.653-2.325c.067-.857.251-1.75.567-2.664s.693-1.674 1.148-2.282l.825-1.067c.096-.099.201-.186.316-.261a1.84 1.84 0 0 1 .373-.17 1.57 1.57 0 0 1 .409-.085 2.01 2.01 0 0 1 .409.014c.134.024.265.062.394.113a1.91 1.91 0 0 1 .359.205c.11.08.211.175.302.283a1.63 1.63 0 0 1 .222.346 1.85 1.85 0 0 1 .129.382 1.63 1.63 0 0 1 .036.402c-.005.137-.029.271-.072.403a1.72 1.72 0 0 1-.158.375l-.107.176zm-35.744-8.882l-1.363-.064-2.482-.071c-.742 0-1.567-.004-2.476-.014-.909-.005-1.72-.136-2.432-.396s-.78-.84-.201-1.731c.579-.899 1.074-1.142 1.485-.727s.935.855 1.571 1.321l1.859 1.279c.598.381 1.1.412 1.507.092s.502-.387.287-.198-.28.191-.194.021.198-.327.323-.473a2.32 2.32 0 0 1 .43-.382c.158-.108.326-.198.503-.268a2.32 2.32 0 0 1 .559-.142c.192-.023.385-.026.581-.007.187.019.371.061.553.127s.354.151.517.255a2.51 2.51 0 0 1 .43.374c.134.142.246.297.337.467.091.164.161.339.208.522.053.189.079.377.079.566a2.53 2.53 0 0 1-.064.565c-.043.184-.091.836-.144 1.957l-.366 3.766-.43 3.434-.115 2.014-.014.869c-.024.137-.065.269-.122.396a1.89 1.89 0 0 1-.216.36 1.92 1.92 0 0 1-.294.297 1.99 1.99 0 0 1-.359.212 1.52 1.52 0 0 1-.401.127c-.139.028-.278.038-.417.028a1.53 1.53 0 0 1-.416-.07c-.138-.038-.268-.092-.387-.163a1.97 1.97 0 0 1-.337-.254c-.101-.099-.189-.207-.266-.325a1.6 1.6 0 0 1-.172-.382 1.7 1.7 0 0 1-.079-.41c-.01-.136.206-.664.646-1.582s.885-1.576 1.334-1.972a7.63 7.63 0 0 1 1.371-.982c.469-.259.978-.457 1.528-.593s1.239-.099 2.081.099 1.564.567 2.181 1.095 1.062 1.017 1.349 1.484a5.18 5.18 0 0 1 .624 1.554c.13.561.12 1.159-.028 1.795s-.67 1.286-1.564 1.964-1.993.916-3.294.714l-2.282-.467a1.99 1.99 0 0 1-.588-.402 2.1 2.1 0 0 1-.431-.566 2.21 2.21 0 0 1-.222-.671c-.038-.235-.036-.471.007-.706a2.03 2.03 0 0 1 .23-.665 2.09 2.09 0 0 1 .438-.558c.177-.165.377-.297.602-.395a2.18 2.18 0 0 1 .689-.184 2.16 2.16 0 0 1 .718.049 2.31 2.31 0 0 1 .667.262c.206.127.385.282.538.466a2.08 2.08 0 0 1 .366.608 2.29 2.29 0 0 1 .151.692c.009.236-.019.469-.086.7s-.17.442-.309.636c-.134.197-.299.367-.495.508a2.19 2.19 0 0 1-.639.325 2.22 2.22 0 0 1-.703.113c-.244-.004-.481-.044-.71-.12a2.18 2.18 0 0 1-.632-.339c-.192-.146-.354-.318-.488-.516a2.12 2.12 0 0 1-.294-.643 2.15 2.15 0 0 1-.071-.699c.014-.24.066-.471.157-.693a2.14 2.14 0 0 1 .373-.6 2.22 2.22 0 0 1 .553-.452 2.15 2.15 0 0 1 .667-.255 2.17 2.17 0 0 1 .718-.035l.359.042.609-.028c.407-.014.328-.045-.236-.092-.57-.047-1.11.123-1.622.509s-.772.643-.796.784a1.61 1.61 0 0 1-.122.396 1.89 1.89 0 0 1-.216.36 1.92 1.92 0 0 1-.294.297 1.99 1.99 0 0 1-.359.212 1.52 1.52 0 0 1-.401.127c-.139.028-.278.038-.417.028a1.53 1.53 0 0 1-.416-.07c-.138-.038-.268-.092-.387-.163a1.56 1.56 0 0 1-.337-.254c-.101-.099-.189-.207-.266-.325a1.6 1.6 0 0 1-.172-.382 1.7 1.7 0 0 1-.079-.41c-.01-.136.019-.419.086-.847.067-.434.096-1.119.086-2.057v-3.356c.005-1.295-.052-2.459-.172-3.49s-.151-1.861-.108-2.502c.039-.636.101-1.038.187-1.208s.198-.327.323-.473a2.32 2.32 0 0 1 .43-.382c.158-.108.326-.198.503-.268a2.32 2.32 0 0 1 .559-.142c.192-.023.385-.026.581-.007.187.019.371.061.553.127s.354.151.517.255a2.51 2.51 0 0 1 .43.374c.134.142.246.295.337.459.091.17.161.347.208.53s.075.373.079.566a2.53 2.53 0 0 1-.064.565c-.043.184-.239.457-.589.82l-1.291 1.406c-.502.574-1.098.961-1.787 1.159s-1.315.221-1.88.056c-.559-.16-1.179-.419-1.858-.777s-1.249-.704-1.722-1.039l-1.722-1.3c-.68-.537-1.232-1.036-1.658-1.498s-.739-.999-.954-1.625.06-1.328.811-2.12 1.521-.968 2.31-.53 1.548.704 2.275.799a18.11 18.11 0 0 0 2.203.134l2.482-.071 1.572-.035c.143.014.284.047.423.099.134.052.261.118.38.198a1.67 1.67 0 0 1 .323.282c.096.104.177.219.244.347a1.76 1.76 0 0 1 .151.395c.033.137.05.276.05.417s-.017.28-.05.417a1.72 1.72 0 0 1-.151.396 1.6 1.6 0 0 1-.244.346 1.71 1.71 0 0 1-.323.283c-.119.08-.246.146-.38.197-.139.052-.28.085-.423.099l-.209.029z"/><path d="M174.169 254.618l-1.213.508c-.813.34-1.885.879-3.214 1.619s-2.93 1.757-4.815 3.052c-1.88 1.295-3.64 2.678-5.281 4.148s-2.99 2.805-4.033 4.006-1.798 2.174-2.267 2.918a20.56 20.56 0 0 0-1.177 2.113l-.595 1.152a1.3 1.3 0 0 1-.294.261c-.11.075-.23.13-.359.163a1.25 1.25 0 0 1-.395.035c-.134-.01-.26-.04-.38-.092s-.237-.12-.337-.205-.184-.191-.251-.304-.113-.233-.137-.36a1.08 1.08 0 0 1-.014-.389c.014-.132.05-.256.107-.374.063-.118.139-.224.23-.318a1.46 1.46 0 0 1 .316-.226 1.17 1.17 0 0 1 .38-.12 1.22 1.22 0 0 1 .395.007 1.13 1.13 0 0 1 .366.134c.119.061.225.141.315.24s.158.203.216.325c.052.118.083.243.093.375s.005.261-.029.388c-.028.128-.079.245-.15.354a1.27 1.27 0 0 1-.259.296c-.105.08-.22.144-.344.191s-.254.073-.388.078a1.2 1.2 0 0 1-.387-.05 1.16 1.16 0 0 1-.352-.169 1.31 1.31 0 0 1-.287-.269c-.076-.108-.136-.223-.179-.346-.038-.127-.055-.257-.05-.389a1.14 1.14 0 0 1 .064-.381l.072-.184.639-.982 1.442-2.204c.536-.811 1.344-1.859 2.425-3.145s2.473-2.711 4.162-4.275 3.487-3.029 5.396-4.409l4.943-3.349 3.294-1.816 1.377-.579c.106-.033.216-.052.331-.057a1.54 1.54 0 0 1 .322.021c.115.024.223.057.323.099a1.48 1.48 0 0 1 .287.177c.086.071.163.148.23.233s.129.186.172.29c.048.099.081.205.101.318a1.18 1.18 0 0 1 .014.318 1.45 1.45 0 0 1-.065.325 1.19 1.19 0 0 1-.143.304 1.21 1.21 0 0 1-.208.254 1.41 1.41 0 0 1-.266.205l-.143.085z"/><path d="M150.322 274.155l-1.944 1.823-3.215 3.215c-.842.928-1.519 1.425-2.031 1.491s-.004-.41 1.522-1.428l3.81-2.508c1.009-.655 1.805-1.481 2.389-2.48l1.005-1.668c.09-.122.198-.226.322-.31a1.22 1.22 0 0 1 .402-.198c.144-.043.292-.062.445-.057s.302.033.445.085a1.45 1.45 0 0 1 .388.219c.119.094.22.203.301.325s.139.264.172.41c.038.141.05.287.036.438a1.2 1.2 0 0 1-.108.424c-.057.141-.138.266-.244.374a1.24 1.24 0 0 1-.351.276 1.3 1.3 0 0 1-.424.155 1.25 1.25 0 0 1-.444.007 1.31 1.31 0 0 1-.431-.127 1.26 1.26 0 0 1-.366-.261c-.11-.104-.198-.224-.265-.361a1.3 1.3 0 0 1-.13-.423 1.35 1.35 0 0 1 .015-.439 1.25 1.25 0 0 1 .158-.409c.071-.132.165-.248.28-.347a1.49 1.49 0 0 1 .38-.24c.139-.056.284-.092.438-.106a1.63 1.63 0 0 1 .452.036 1.49 1.49 0 0 1 .409.176c.129.08.241.179.337.297a1.26 1.26 0 0 1 .215.389c.053.136.081.28.086.431a1.28 1.28 0 0 1-.064.438l-.065.212-1.385 1.9c-.918 1.272-1.887 2.287-2.906 3.046l-3.308 2.331c-1.186.787-2.186 1.324-2.999 1.611s-1.447.295-1.916.022-.708-.733-.717-1.378c-.015-.646.15-1.225.495-1.738s.937-1.284 1.779-2.311l3.114-3.462 1.988-2.021c.096-.071.196-.13.301-.177a1.79 1.79 0 0 1 .338-.106c.114-.018.229-.026.344-.021.115.01.23.031.344.064a1.35 1.35 0 0 1 .316.141c.101.061.194.132.28.212s.153.177.215.276a1.33 1.33 0 0 1 .144.311c.033.113.055.226.064.339a1.61 1.61 0 0 1-.021.339 1.67 1.67 0 0 1-.108.332 1.65 1.65 0 0 1-.179.297l-.108.134z"/><path d="M152.547 277.034l.172 1.717.122 2a1.76 1.76 0 0 1-.194.515c-.096.165-.213.309-.351.431a1.61 1.61 0 0 1-.481.297c-.172.076-.354.12-.546.134a1.66 1.66 0 0 1-.552-.049 1.64 1.64 0 0 1-.517-.219 1.73 1.73 0 0 1-.416-.367 1.86 1.86 0 0 1-.272-.481 1.67 1.67 0 0 1-.108-.544c-.005-.188.021-.372.079-.551s.141-.344.251-.495a1.63 1.63 0 0 1 .402-.388 1.77 1.77 0 0 1 .502-.248c.177-.056.359-.08.545-.07a1.67 1.67 0 0 1 .553.106c.182.061.344.15.488.268s.275.257.38.417c.101.155.172.325.215.509a1.64 1.64 0 0 1 .051.551 1.8 1.8 0 0 1-.144.537 1.64 1.64 0 0 1-.301.466 1.75 1.75 0 0 1-.438.346c-.167.09-.344.151-.531.184s-.373.043-.56.014a1.68 1.68 0 0 1-.531-.162 1.81 1.81 0 0 1-.452-.325c-.134-.132-.244-.281-.33-.445a1.93 1.93 0 0 1-.165-.53l-.036-.283-.086-1.399-.1-1.597a1.82 1.82 0 0 1 .029-.396c.028-.127.071-.252.129-.374s.129-.236.215-.339.184-.198.294-.283a1.51 1.51 0 0 1 .352-.198 1.83 1.83 0 0 1 .387-.113 1.65 1.65 0 0 1 .395-.021c.139.014.272.042.402.085a1.38 1.38 0 0 1 .366.169 1.8 1.8 0 0 1 .315.248c.096.099.177.205.244.318s.127.24.165.367l.058.198z"/><path d="M149.488 278.658l.022.375c.014.25-.031.487-.137.714s-.258.416-.459.572a1.52 1.52 0 0 1-.674.304c-.244.042-.488.026-.732-.05-.239-.07-.45-.195-.632-.374a1.47 1.47 0 0 1-.38-.622 1.49 1.49 0 0 1-.05-.721 1.48 1.48 0 0 1 .308-.664 1.54 1.54 0 0 1 .582-.452c.234-.104.476-.149.724-.134a1.57 1.57 0 0 1 .703.219c.221.132.395.303.524.515l.201.318zm-2.027-2.714l-1.213.212c-.813.141-1.913.48-3.3 1.017l-2.339.855c-.168.033-.338.038-.51.015a1.45 1.45 0 0 1-.481-.142c-.153-.075-.291-.172-.416-.289-.119-.118-.217-.252-.294-.403s-.127-.309-.151-.474a1.59 1.59 0 0 1 .008-.501 1.58 1.58 0 0 1 .172-.467c.086-.146.191-.275.315-.388.13-.113.271-.205.424-.276.158-.066.323-.106.495-.12a1.67 1.67 0 0 1 .969.233 1.6 1.6 0 0 1 .38.332 1.71 1.71 0 0 1 .251.431c.057.156.089.318.093.488a1.33 1.33 0 0 1-.064.494c-.048.161-.122.309-.223.446-.095.141-.213.261-.351.36a1.49 1.49 0 0 1-.452.219c-.163.052-.33.075-.503.071a1.58 1.58 0 0 1-.495-.092c-.158-.056-.311-.137-.445-.24s-.246-.227-.337-.368a1.49 1.49 0 0 1-.208-.459 1.73 1.73 0 0 1-.043-.495c.014-.169.055-.332.122-.487a1.42 1.42 0 0 1 .273-.417 1.49 1.49 0 0 1 .387-.318l.223-.127 2.353-.82 3.573-1.067 1.407-.247a1.34 1.34 0 0 1 .366.021 1.94 1.94 0 0 1 .351.106c.115.052.223.115.323.191a1.37 1.37 0 0 1 .266.261c.076.094.141.198.193.311a1.52 1.52 0 0 1 .115.353 1.32 1.32 0 0 1 .022.361 1.35 1.35 0 0 1-.065.36c-.038.118-.088.229-.151.332-.067.109-.143.207-.229.297s-.189.16-.294.226a1.65 1.65 0 0 1-.338.148l-.179.057zm57.23-10.718l1.586 1.215c1.052.81 2.184 1.941 3.394 3.392s2.425 3.085 3.645 4.903 2.263 3.609 3.143 5.356l2.03 4.176c.469 1.041.818 2.061 1.048 3.06s.361 2.174.395 3.525l-.087 4.247-.351 4.056-.273 3.709-.107 2.035c-.029.118-.077.229-.144.332a1.08 1.08 0 0 1-.244.269 1.18 1.18 0 0 1-.316.177 1.21 1.21 0 0 1-.366.07c-.119.005-.239-.012-.358-.049a1.18 1.18 0 0 1-.33-.163c-.101-.07-.187-.155-.259-.254a1.2 1.2 0 0 1-.165-.325c-.033-.113-.05-.231-.05-.353a1 1 0 0 1 .072-.354 1.13 1.13 0 0 1 .179-.318 1.12 1.12 0 0 1 .273-.24c.105-.066.217-.113.337-.141s.242-.038.366-.028a1.12 1.12 0 0 1 .352.084c.11.047.217.113.308.198s.172.172.23.276a1.13 1.13 0 0 1 .129.339c.024.122.026.242.007.36a.95.95 0 0 1-.108.346 1.12 1.12 0 0 1-.208.297 1.17 1.17 0 0 1-.301.205 1 1 0 0 1-.352.106 1.05 1.05 0 0 1-.366-.007c-.119-.023-.232-.066-.337-.127s-.205-.132-.287-.226-.153-.191-.201-.304a1.06 1.06 0 0 1-.086-.346l-.014-.184.244-1.872.445-3.675.323-3.928.079-3.985c-.034-1.239-.137-2.292-.309-3.159s-.49-1.813-.954-2.826l-1.981-4.014c-.851-1.672-1.872-3.384-3.064-5.137l-3.451-4.614c-1.114-1.323-2.207-2.378-3.279-3.165l-1.701-1.265c-.062-.061-.117-.132-.165-.212a.8.8 0 0 1-.114-.24 1.23 1.23 0 0 1-.058-.261 1.17 1.17 0 0 1 .015-.262.99.99 0 0 1 .079-.254c.033-.08.078-.156.136-.226a.9.9 0 0 1 .186-.198 1.97 1.97 0 0 1 .23-.142 1.1 1.1 0 0 1 .258-.077c.091-.019.18-.026.266-.021a1.17 1.17 0 0 1 .265.042 1.67 1.67 0 0 1 .251.106l.115.071zm-42.076 5.75l-1.822.368c-1.22.245-2.284.657-3.193 1.236-.904.585-1.646 1.166-2.225 1.746s-1.086 1.274-1.535 2.084l-.797 1.392a1.28 1.28 0 0 1-.308.311 1.36 1.36 0 0 1-.388.191c-.143.047-.289.068-.437.063a1.28 1.28 0 0 1-.431-.077c-.139-.047-.265-.116-.38-.205a1.35 1.35 0 0 1-.294-.318 1.36 1.36 0 0 1-.18-.396c-.033-.141-.045-.285-.036-.431a1.3 1.3 0 0 1 .101-.417 1.36 1.36 0 0 1 .229-.36 1.34 1.34 0 0 1 .338-.276c.129-.075.265-.127.409-.155a1.37 1.37 0 0 1 .437-.014c.149.019.29.059.424.12s.249.148.359.247c.105.104.191.222.258.353s.11.264.129.41a1.45 1.45 0 0 1-.007.431c-.029.142-.079.276-.151.403s-.155.24-.265.339-.232.177-.366.233c-.134.062-.275.097-.424.106a1.36 1.36 0 0 1-.437-.028c-.144-.033-.278-.087-.402-.162-.125-.081-.235-.177-.33-.29s-.168-.236-.215-.368c-.053-.136-.084-.278-.094-.424a1.32 1.32 0 0 1 .058-.431l.064-.204 1.005-1.498c.669-1.004 1.354-1.849 2.052-2.537s1.624-1.425 2.762-2.198c1.139-.767 2.316-1.328 3.531-1.681l2.002-.558c.124-.015.246-.015.365 0 .125.014.244.044.359.091s.23.099.33.17c.106.066.199.146.28.24.086.09.158.191.215.304a1.72 1.72 0 0 1 .137.339 1.65 1.65 0 0 1 .043.368 1.53 1.53 0 0 1-.043.353c-.029.122-.072.238-.129.346s-.13.21-.216.304a1.48 1.48 0 0 1-.272.247c-.106.071-.216.128-.33.17l-.18.063zm-13.134 14.84l-.38 2.389-.797 5.045-.602 4.359-.244 3.357-.094 1.851a1.2 1.2 0 0 1-.15.381c-.072.118-.163.219-.273.304s-.222.16-.352.212a1.18 1.18 0 0 1-.401.085c-.139.009-.275-.005-.409-.042s-.259-.095-.373-.17a1.26 1.26 0 0 1-.302-.276 1.57 1.57 0 0 1-.194-.36 1.29 1.29 0 0 1-.064-.403c0-.136.024-.271.072-.402a1.36 1.36 0 0 1 .186-.354 1.42 1.42 0 0 1 .302-.282c.114-.076.239-.132.373-.17a1.48 1.48 0 0 1 .409-.042 1.44 1.44 0 0 1 .401.084c.13.052.249.123.359.212a1.32 1.32 0 0 1 .266.311c.071.118.122.243.15.375a1.34 1.34 0 0 1 .022.41 1.25 1.25 0 0 1-.108.388 1.34 1.34 0 0 1-.237.332 1.36 1.36 0 0 1-.322.248 1.18 1.18 0 0 1-.395.127 1.22 1.22 0 0 1-.409 0 1.18 1.18 0 0 1-.395-.127c-.119-.066-.227-.149-.323-.248s-.172-.209-.229-.332a1.17 1.17 0 0 1-.115-.395l-.022-.205.173-1.682.287-3.448.409-4.43.531-5.074.272-2.572a1.38 1.38 0 0 1 .129-.332 1.47 1.47 0 0 1 .209-.297c.081-.089.172-.169.272-.24a1.34 1.34 0 0 1 .323-.162c.115-.042.235-.071.359-.085a1.54 1.54 0 0 1 .359 0 1.5 1.5 0 0 1 .351.085 1.4 1.4 0 0 1 .323.169c.101.071.191.151.273.24a1.51 1.51 0 0 1 .208.297c.057.109.1.222.129.339a1.45 1.45 0 0 1 .043.347v.183zm46.969-12.862l.236 2.247c.163 1.502.22 3.102.173 4.797l-.266 4.664-.517 3.61a24.66 24.66 0 0 0-.459 2.897l-.194 1.612a1.27 1.27 0 0 1-.186.353 1.21 1.21 0 0 1-.287.275 1.15 1.15 0 0 1-.366.177 1.29 1.29 0 0 1-.402.049 1.44 1.44 0 0 1-.402-.084 1.36 1.36 0 0 1-.351-.198c-.106-.09-.194-.191-.266-.304a1.11 1.11 0 0 1-.15-.367 1.14 1.14 0 0 1-.029-.403c.009-.132.043-.262.1-.389s.132-.233.223-.332a1.34 1.34 0 0 1 .323-.247c.119-.066.246-.111.38-.134a1.17 1.17 0 0 1 .409 0c.134.018.263.058.387.12a1.07 1.07 0 0 1 .316.24 1.22 1.22 0 0 1 .237.325c.057.122.096.252.115.389.014.131.007.263-.022.395s-.072.257-.143.375a1.15 1.15 0 0 1-.259.311c-.1.089-.213.16-.337.212a1.12 1.12 0 0 1-.395.084 1.31 1.31 0 0 1-.409-.035c-.129-.033-.251-.087-.365-.162a1.3 1.3 0 0 1-.302-.276c-.086-.104-.151-.219-.194-.346a1.13 1.13 0 0 1-.071-.396v-.205l.301-1.448.574-2.798c.187-.895.321-2.026.402-3.392l.1-4.416c-.014-1.574-.146-3.104-.394-4.593l-.373-2.409a1.34 1.34 0 0 1 .043-.333 1.23 1.23 0 0 1 .114-.318c.053-.103.118-.197.194-.282s.163-.167.258-.233.197-.12.302-.163c.11-.042.222-.07.337-.085a1.31 1.31 0 0 1 .337 0 1.25 1.25 0 0 1 .338.078 1.46 1.46 0 0 1 .308.148c.096.066.184.142.266.227a1.6 1.6 0 0 1 .2.275c.053.104.094.21.122.318l.044.17zm5.63-3.42l.15 1.498.194 3.639.05 4.218-.172 3.781-.265 2.918-.079 2.098.043 1.753c.019.588-.22 1.436-.718 2.543-.492 1.112-.813 1.696-.961 1.753s-.302.089-.459.099c-.163.009-.321-.007-.474-.05a1.49 1.49 0 0 1-.431-.198 1.52 1.52 0 0 1-.559-.735 1.22 1.22 0 0 1-.072-.459c0-.155.024-.308.072-.459s.127-.283.222-.41a1.5 1.5 0 0 1 .345-.318 1.37 1.37 0 0 1 .43-.191c.153-.042.309-.059.467-.049a1.32 1.32 0 0 1 .466.099c.148.056.28.136.395.24a1.7 1.7 0 0 1 .308.353 1.46 1.46 0 0 1 .172.431c.034.156.041.311.022.467s-.058.306-.129.452-.156.268-.266.381-.232.208-.366.283c-.143.071-.294.12-.452.148a1.38 1.38 0 0 1-.466-.007c-.158-.023-.309-.073-.452-.148a1.34 1.34 0 0 1-.373-.283c-.11-.113-.199-.24-.266-.381a1.4 1.4 0 0 1-.122-.452 1.34 1.34 0 0 1 .022-.46 1.61 1.61 0 0 1 .179-.438c.081-.132.184-.249.309-.353l.179-.148.079-.453c.057-.301.112-.76.165-1.377l.201-1.838.301-2.112.266-2.77c.067-1.051.074-2.259.021-3.625l-.229-4.042c-.101-1.328-.251-2.487-.452-3.476l-.309-1.667a1.42 1.42 0 0 1 .029-.347c.029-.117.069-.231.122-.339a1.38 1.38 0 0 1 .201-.304c.076-.094.165-.176.265-.247a1.45 1.45 0 0 1 .316-.177 1.89 1.89 0 0 1 .351-.092 1.62 1.62 0 0 1 .359-.014c.125.014.244.04.359.078a1.58 1.58 0 0 1 .323.163 1.48 1.48 0 0 1 .28.226 1.61 1.61 0 0 1 .222.289 1.8 1.8 0 0 1 .137.333l.05.176zm-35.137 1.871l.38 1.589c.249 1.07.423 2.396.524 3.979l.193 4.331.115 3.074.215 3.137.094 2.247c-.024.16-.074.311-.151.452s-.167.266-.287.374c-.115.114-.246.203-.395.269a1.46 1.46 0 0 1-.466.134 1.49 1.49 0 0 1-.481-.021 1.67 1.67 0 0 1-.445-.177c-.143-.08-.267-.181-.373-.303a1.51 1.51 0 0 1-.251-.403 1.56 1.56 0 0 1-.1-.467c-.015-.16 0-.318.043-.473s.11-.294.201-.431a1.43 1.43 0 0 1 .33-.346c.129-.099.27-.167.423-.219a1.62 1.62 0 0 1 .474-.085 1.52 1.52 0 0 1 .48.078c.153.047.295.12.424.219a1.64 1.64 0 0 1 .337.339c.096.132.158.275.201.431a1.58 1.58 0 0 1 .057.473 1.49 1.49 0 0 1-.1.46c-.062.15-.146.287-.251.409s-.22.227-.359.311-.289.144-.452.177a1.5 1.5 0 0 1-.481.028 1.43 1.43 0 0 1-.459-.12 1.69 1.69 0 0 1-.402-.268c-.119-.109-.218-.234-.294-.375a1.5 1.5 0 0 1-.158-.445l-.043-.24.086-1.986.093-3.088-.114-3.01-.359-3.999c-.153-1.404-.409-2.621-.768-3.653l-.574-1.731a1.56 1.56 0 0 1-.014-.367c.014-.128.04-.25.079-.368a1.52 1.52 0 0 1 .165-.339 1.57 1.57 0 0 1 .244-.29 1.33 1.33 0 0 1 .308-.226 1.35 1.35 0 0 1 .352-.148 1.72 1.72 0 0 1 .373-.057c.124-.005.249.005.373.028.129.029.251.069.366.121s.222.124.323.204a1.53 1.53 0 0 1 .265.269 1.51 1.51 0 0 1 .187.332l.072.17zm5.907 2.589l.388 1.116c.258.754.43 1.793.516 3.116l.151 3.922.014 3.575.087 3.632.064 2.19a1.13 1.13 0 0 1-.129.389c-.062.118-.144.226-.244.325a1.23 1.23 0 0 1-.337.226c-.125.061-.256.099-.395.113a1.24 1.24 0 0 1-.416-.014 1.25 1.25 0 0 1-.38-.148c-.12-.071-.225-.158-.316-.262a1.24 1.24 0 0 1-.215-.339 1.26 1.26 0 0 1-.094-.396 1.29 1.29 0 0 1 .036-.402c.039-.132.096-.257.173-.375s.169-.212.279-.297a1.18 1.18 0 0 1 .359-.19 1.2 1.2 0 0 1 .409-.071 1.33 1.33 0 0 1 .409.064c.129.042.251.103.366.183a1.17 1.17 0 0 1 .28.29 1.19 1.19 0 0 1 .179.367 1.28 1.28 0 0 1 .051.403c-.005.137-.034.269-.087.396-.047.127-.117.245-.208.353s-.193.191-.308.262a1.34 1.34 0 0 1-.381.155c-.134.033-.277.042-.416.028a1.23 1.23 0 0 1-.394-.106 1.21 1.21 0 0 1-.345-.226 1.35 1.35 0 0 1-.251-.318 1.25 1.25 0 0 1-.136-.381l-.036-.205.05-1.979-.007-3.603-.179-3.484-.309-3.519c-.134-1.107-.325-2.035-.574-2.784l-.402-1.286c-.024-.108-.033-.219-.028-.332a1.3 1.3 0 0 1 .057-.332 1.51 1.51 0 0 1 .129-.311 1.26 1.26 0 0 1 .208-.268c.081-.085.17-.158.266-.219a1.78 1.78 0 0 1 .315-.141c.11-.038.223-.062.338-.071a1.26 1.26 0 0 1 .33.014c.114.019.227.052.337.099s.203.099.294.17c.091.065.175.143.251.233a1.46 1.46 0 0 1 .18.282l.071.156z"/><path d="M172.423 289.692l1.894-.056 3.817-.043 3.172-.021a18.39 18.39 0 0 1 2.231.057 16.48 16.48 0 0 0 1.823.077c.569-.009 1.425.109 2.568.354l1.981.48c.182.075.344.177.488.304s.263.28.358.445a1.7 1.7 0 0 1 .194.523 1.88 1.88 0 0 1 .015.565c-.029.193-.087.375-.173.544a1.77 1.77 0 0 1-.337.46 1.91 1.91 0 0 1-.466.325c-.177.084-.361.139-.553.162a1.68 1.68 0 0 1-.574-.014 1.81 1.81 0 0 1-.538-.198 1.79 1.79 0 0 1-.445-.353c-.129-.146-.232-.306-.308-.481a1.67 1.67 0 0 1-.137-.551 1.75 1.75 0 0 1 .051-.565c.043-.184.117-.353.222-.509a1.83 1.83 0 0 1 .387-.424c.154-.117.321-.209.503-.275a1.64 1.64 0 0 1 .567-.099 1.79 1.79 0 0 1 .566.077 1.77 1.77 0 0 1 .517.255c.158.108.292.24.402.396.115.155.201.322.258.501.053.184.077.372.072.566a1.69 1.69 0 0 1-.108.551 1.92 1.92 0 0 1-.287.494c-.124.146-.268.271-.43.375a1.79 1.79 0 0 1-.531.226c-.187.042-.378.056-.574.042l-.287-.028-1.744-.516-3.071-.812c-.885-.203-1.741-.297-2.569-.283l-3.071.155-3.731.382-2.088.24a1.68 1.68 0 0 1-.402-.063c-.134-.038-.258-.092-.373-.163-.119-.066-.229-.146-.33-.24a2.04 2.04 0 0 1-.258-.311c-.072-.113-.129-.233-.172-.36s-.07-.259-.079-.396a1.31 1.31 0 0 1 .014-.389c.024-.136.062-.266.115-.388a1.72 1.72 0 0 1 .201-.347 1.51 1.51 0 0 1 .287-.289c.105-.085.22-.156.344-.212s.254-.104.388-.127l.201-.043zm-7.273.147l-1.744-.057-4.219-.021-4.585.106c-1.411.052-2.93.21-4.556.473l-2.633.389a1.33 1.33 0 0 1-.388-.071 1.36 1.36 0 0 1-.344-.19c-.101-.08-.187-.177-.259-.29a1.21 1.21 0 0 1-.158-.353 1.06 1.06 0 0 1-.028-.389c.009-.127.04-.252.093-.374a1.25 1.25 0 0 1 .208-.326 1.17 1.17 0 0 1 .309-.24 1.25 1.25 0 0 1 .366-.127 1.4 1.4 0 0 1 .394-.014c.129.019.254.056.373.113a1.16 1.16 0 0 1 .316.219 1.2 1.2 0 0 1 .23.311c.062.118.103.243.122.374a1.29 1.29 0 0 1-.015.382c-.024.132-.069.254-.136.367a1.25 1.25 0 0 1-.244.304 1.15 1.15 0 0 1-.33.205 1.14 1.14 0 0 1-.38.092 1.07 1.07 0 0 1-.388-.028 1.31 1.31 0 0 1-.366-.156 1.14 1.14 0 0 1-.294-.254 1.36 1.36 0 0 1-.194-.339 1.25 1.25 0 0 1-.071-.375c-.005-.132.012-.261.05-.388s.098-.238.179-.347a1.24 1.24 0 0 1 .273-.268c.11-.075.227-.132.351-.17l.194-.056 2.547-.283 4.686-.424 4.642-.254 4.255-.17 1.902-.042a1.52 1.52 0 0 1 .323.078c.1.042.196.094.287.155s.172.132.244.212.138.167.186.261a1.24 1.24 0 0 1 .115.304c.029.109.043.215.043.318 0 .109-.014.215-.043.318a1.48 1.48 0 0 1-.115.304c-.053.099-.11.181-.186.261a1.3 1.3 0 0 1-.244.212 1.63 1.63 0 0 1-.287.156c-.106.038-.213.063-.323.078l-.158.014zm34.894 1.985l1.134.007 2.511.12 2.54.297c.79.118 1.643.323 2.562.615s1.767.511 2.547.657l2.418.353 1.493.191c.162.042.313.111.452.205s.26.2.366.332c.1.132.177.276.229.431.058.156.086.318.086.488a1.45 1.45 0 0 1-.079.48 1.49 1.49 0 0 1-.229.431c-.105.132-.227.245-.366.339a1.46 1.46 0 0 1-.445.205c-.163.047-.328.066-.495.057a1.61 1.61 0 0 1-.488-.106c-.158-.057-.301-.139-.431-.248-.124-.108-.232-.233-.322-.374s-.146-.292-.18-.452-.048-.323-.029-.488a1.38 1.38 0 0 1 .13-.473 1.59 1.59 0 0 1 .279-.41 1.63 1.63 0 0 1 .395-.297c.148-.075.304-.127.467-.155a1.51 1.51 0 0 1 .502 0c.162.023.318.075.466.155a1.66 1.66 0 0 1 .402.297c.12.122.208.252.28.403a1.34 1.34 0 0 1 .129.466c.019.165.012.33-.022.495a1.55 1.55 0 0 1-.186.452c-.086.141-.191.266-.316.374s-.272.194-.43.255a1.54 1.54 0 0 1-.481.106l-.251.014-1.371-.219-2.676-.467-2.526-.558-2.231-.501c-.67-.118-1.431-.189-2.282-.212l-2.418-.036c-.756.005-1.198 0-1.328-.014a1.74 1.74 0 0 1-.38-.092c-.125-.043-.241-.108-.351-.183a1.73 1.73 0 0 1-.295-.255c-.087-.094-.165-.207-.222-.325a1.61 1.61 0 0 1-.144-.36c-.028-.127-.043-.255-.043-.382s.015-.254.043-.381a1.62 1.62 0 0 1 .144-.361c.057-.117.132-.226.222-.325s.185-.179.295-.254a1.68 1.68 0 0 1 .351-.184c.125-.047.251-.077.38-.092l.194-.021z"/><path d="M191.056 290.501l1.586-.035h1.858c.187.033.364.092.531.177a1.79 1.79 0 0 1 .445.332 1.77 1.77 0 0 1 .316.459 1.78 1.78 0 0 1 .151.53 1.57 1.57 0 0 1-.036.537c-.038.184-.105.353-.201.509a1.88 1.88 0 0 1-.366.424c-.144.117-.301.212-.474.282a1.97 1.97 0 0 1-.545.12 1.7 1.7 0 0 1-.56-.063c-.181-.047-.349-.125-.502-.233a1.72 1.72 0 0 1-.409-.375 1.53 1.53 0 0 1-.258-.487c-.062-.175-.093-.354-.093-.537a1.59 1.59 0 0 1 .093-.537c.057-.179.143-.342.258-.488s.251-.271.409-.374c.153-.109.321-.186.502-.234a1.62 1.62 0 0 1 .56-.056c.187.009.368.047.545.113a1.85 1.85 0 0 1 .474.283c.143.122.265.263.366.424a1.56 1.56 0 0 1 .201.508c.043.179.055.361.036.544a1.77 1.77 0 0 1-.467.982c-.129.132-.277.243-.445.333-.167.084-.344.143-.531.176l-.272.043-1.586-.043-1.779-.063c-.134-.014-.264-.045-.388-.092s-.244-.109-.359-.184a1.39 1.39 0 0 1-.294-.261 1.62 1.62 0 0 1-.229-.318c-.063-.118-.108-.241-.137-.368a1.78 1.78 0 0 1-.05-.388c0-.132.017-.262.05-.389s.074-.25.137-.367a1.37 1.37 0 0 1 .229-.318c.086-.099.184-.186.294-.262a1.74 1.74 0 0 1 .359-.184c.124-.048.254-.077.388-.091l.193-.029zm-16.918 7.122l2.425.049 5.482-.141 5.073-.473 3.559-.509 1.708-.212c.11 0 .217.017.322.05a.92.92 0 0 1 .295.162c.091.066.167.146.229.24a.96.96 0 0 1 .137.297.84.84 0 0 1 .035.325.93.93 0 0 1-.071.325c-.043.099-.101.191-.172.276a1.14 1.14 0 0 1-.259.212 1.04 1.04 0 0 1-.308.12c-.115.023-.228.028-.338.014a1.12 1.12 0 0 1-.322-.085.97.97 0 0 1-.273-.191.99.99 0 0 1-.201-.261c-.053-.099-.089-.203-.108-.311a.95.95 0 0 1 .008-.332c.02-.108.055-.212.107-.311a.99.99 0 0 1 .201-.261 1.16 1.16 0 0 1 .28-.184c.105-.043.213-.071.323-.085s.227-.002.337.021a.95.95 0 0 1 .309.127 1.02 1.02 0 0 1 .251.212 1.09 1.09 0 0 1 .172.283 1.05 1.05 0 0 1 .064.325 1.09 1.09 0 0 1-.035.325c-.034.108-.082.207-.144.297a1.11 1.11 0 0 1-.23.24.97.97 0 0 1-.294.148l-.165.05-1.528.261-3.638.601-5.245.608-5.561.311-2.576.035a1.38 1.38 0 0 1-.308-.078 1.79 1.79 0 0 1-.28-.141c-.086-.061-.163-.13-.23-.205a1.3 1.3 0 0 1-.179-.254 1.7 1.7 0 0 1-.115-.29c-.024-.099-.036-.2-.036-.304s.012-.205.036-.304a1.7 1.7 0 0 1 .115-.29 1.3 1.3 0 0 1 .179-.254c.067-.075.144-.144.23-.205a1.79 1.79 0 0 1 .28-.141 1.38 1.38 0 0 1 .308-.078l.151-.014z"/><path d="M174.786 298.152l1.004 1.243c.665.834 1.302 1.529 1.909 2.085s1.196.937 1.765 1.144 1.265.377 2.088.495l2.533.276c.866.061 1.593-.022 2.181-.248s1.191-.666 1.808-1.321 1.172-1.307 1.665-1.957l.897-1.173c.115-.132.244-.24.388-.325a1.58 1.58 0 0 1 .473-.191 1.53 1.53 0 0 1 .51-.028c.172.019.337.061.495.127.153.071.294.165.423.283.124.117.227.249.309.395s.136.302.165.467.028.336 0 .501-.077.33-.158.481-.184.285-.309.403-.263.212-.416.282-.321.116-.488.134a1.67 1.67 0 0 1-.509-.021 1.68 1.68 0 0 1-.481-.183c-.144-.085-.273-.194-.388-.325a1.65 1.65 0 0 1-.265-.424c-.062-.161-.101-.325-.115-.495s.01-.335.058-.495a1.48 1.48 0 0 1 .208-.452 1.49 1.49 0 0 1 .351-.367c.134-.104.282-.182.445-.233a1.51 1.51 0 0 1 .502-.085c.173-.005.342.021.51.077a1.44 1.44 0 0 1 .445.234 1.53 1.53 0 0 1 .358.36c.096.141.168.29.216.445.048.165.067.332.057.502a1.5 1.5 0 0 1-.108.487l-.093.241-.882 1.109-1.665 1.971c-.526.575-1.107 1.018-1.744 1.329s-1.408.589-2.303.819a9.36 9.36 0 0 1-2.77.269l-3.049-.269c-1.076-.136-2.014-.4-2.813-.791s-1.552-.897-2.26-1.519l-2.174-2.078-1.234-1.3c-.072-.103-.129-.214-.172-.332a1.46 1.46 0 0 1-.087-.36c-.014-.118-.014-.238 0-.361s.046-.242.094-.36.1-.221.172-.325a1.37 1.37 0 0 1 .251-.275 1.78 1.78 0 0 1 .316-.212 1.5 1.5 0 0 1 .351-.128c.12-.028.242-.042.366-.042a1.44 1.44 0 0 1 .373.049 1.46 1.46 0 0 1 .352.135c.11.056.213.127.309.212l.136.12z"/></g><path d="M151.931 198.892l.129-1.816.409-3.922c.182-1.404.605-2.923 1.27-4.557s1.354-2.952 2.066-3.95l2.627-3.342c1.033-1.23 2.021-2.266 2.963-3.109.937-.844 2.131-1.677 3.58-2.502l3.968-2.035c1.196-.532 2.387-.989 3.574-1.37s2.504-.665 3.953-.862 2.834-.314 4.169-.347l3.652-.077c1.105-.019 2.5.063 4.183.247s3.251.518 4.715.989l3.681 1.385c.99.448 2.255 1.225 3.795 2.332l3.459 2.678 2.533 2.409 2.705 2.855c.875.975 1.703 2.096 2.482 3.363s1.426 2.631 1.938 4.091l1.442 4.416c.445 1.48.705 2.73.782 3.752s.034 2.203-.129 3.526-.667 2.49-1.514 3.512-1.995 1.75-3.459 2.198-3.255.767-5.388.96l-5.26.29a216.01 216.01 0 0 1-3.946-.035l-3.86-.085-4.306-.283-4.742-.48-4.801-.53-4.14-.41-3.379-.381-4.105-.778c-1.655-.353-3.355-.883-5.101-1.589s-3.344-1.684-4.793-2.933c-1.445-1.243-2.342-2.482-2.691-3.716s-.321-2.563.1-3.971a9.17 9.17 0 0 1 2.146-3.731l3.049-2.918 3.157-2.516c1.096-.81 2.304-1.538 3.624-2.183s2.691-1.143 4.111-1.491c1.426-.349 2.913-.577 4.463-.685s3.265-.048 5.145.169l5.073.813 4.994 1.257c1.827.523 3.339 1.117 4.535 1.781s2.406 1.507 3.645 2.53 2.43 2.218 3.587 3.589a20.96 20.96 0 0 1 2.921 4.55c.789 1.668 1.117 3.493.983 5.476-.139 1.988-.732 3.442-1.78 4.36s-2.836 1.385-5.352 1.385-5.102-.304-7.757-.897l-7.749-1.802-6.86-1.675-4.8-.996c-1.143-.151-1.949-.327-2.418-.53l-1.041-.424a2.94 2.94 0 0 1-.638-.304c-.201-.127-.383-.275-.546-.445a3.07 3.07 0 0 1-.423-.558c-.119-.203-.21-.415-.273-.636a3.05 3.05 0 0 1-.107-.692 2.59 2.59 0 0 1 .064-.693 2.75 2.75 0 0 1 .23-.664c.1-.212.227-.408.38-.587a3.1 3.1 0 0 1 .517-.48c.191-.137.397-.252.617-.346s.447-.151.682-.184c.234-.038.471-.047.71-.028s1.746-.733 4.535-2.268c2.784-1.541 5.35-2.528 7.699-2.961 2.344-.433 4.35-.622 6.02-.565 1.665.052 3.234.895 4.707 2.529s1.932 2.895 1.378 3.795-2.165 1.5-4.844 1.816-5.982.402-9.923.247l-9.881-.36-5.037-.22-1.384-.12c-.211-.028-.414-.082-.61-.162a2.44 2.44 0 0 1-.56-.297c-.177-.118-.335-.257-.474-.417a2.6 2.6 0 0 1-.351-.523c-.096-.183-.168-.379-.215-.586a2.24 2.24 0 0 1-.072-.622 2.68 2.68 0 0 1 .086-.615 2.66 2.66 0 0 1 .23-.586c.1-.184.222-.353.366-.509s.303-.29.48-.403.366-.214.567-.289.407-.118.617-.142l3.179-.438 8.424-.784c3.707-.25 6.754-.292 9.141-.127l3.394.346c-.12.071-.089.115.093.134s.356.059.524.12a2.18 2.18 0 0 1 .488.248 2.23 2.23 0 0 1 .416.346 2.57 2.57 0 0 1 .309.438c.09.16.157.327.2.502s.072.351.072.53-.014.358-.057.537a2.31 2.31 0 0 1-.187.501 2.15 2.15 0 0 1-.301.445 2.14 2.14 0 0 1-.409.361 2.3 2.3 0 0 1-.474.254c-.172.066-.349.111-.531.134s-1.119.203-2.812.537-4.262.606-7.707.813l-7.684.657-2.799.339a2.2 2.2 0 0 1-.524-.092 2.18 2.18 0 0 1-.487-.212c-.154-.089-.292-.197-.417-.325a1.96 1.96 0 0 1-.33-.409c-.095-.151-.169-.309-.222-.474a1.96 1.96 0 0 1-.101-.516 2.41 2.41 0 0 1 .029-.522c.034-.175.086-.342.158-.502s.163-.311.273-.452a2.28 2.28 0 0 1 .373-.368 2.3 2.3 0 0 1 .452-.275c.162-.071.332-.123.509-.156s2.323.019 6.437.156l12.549.388 9.486.403 3.358.261a2.06 2.06 0 0 1 .473.128c.153.056.295.134.424.233a1.95 1.95 0 0 1 .359.325c.11.122.2.257.272.403a2.19 2.19 0 0 1 .165.452 2 2 0 0 1 .043.48c0 .16-.021.318-.064.474a1.89 1.89 0 0 1-.187.452c-.081.141-.177.271-.287.389s-.234.221-.373.31-.285.161-.438.212a1.8 1.8 0 0 1-.48.106c-.163.015-1.849.413-5.059 1.195s-6.637 1.066-10.268.854-6.104-.513-7.405-.904-2.054-.603-2.246-.636a2.5 2.5 0 0 1-.552-.162c-.177-.076-.342-.172-.495-.29a2.13 2.13 0 0 1-.409-.396c-.12-.151-.22-.311-.302-.48-.081-.175-.141-.356-.179-.544-.033-.189-.045-.377-.036-.566s.043-.374.101-.558a2.57 2.57 0 0 1 .229-.523 2.68 2.68 0 0 1 .352-.445c.139-.136.289-.254.452-.353a2.72 2.72 0 0 1 .524-.24c.186-.057.375-.092.567-.106s1.107-.276 2.748-.785c1.636-.508 4.214-.956 7.735-1.342s6.096-.502 7.742-.361l2.734.22c.177 0 .351.023.523.07s.338.104.495.184a2.13 2.13 0 0 1 .783.699c.1.146.179.302.236.467.063.16.103.327.122.501s.019.349 0 .523c-.024.175-.069.344-.136.509a2.06 2.06 0 0 1-.251.459 2.27 2.27 0 0 1-.352.389 2.17 2.17 0 0 1-.445.29 2.03 2.03 0 0 1-.495.176l-4.922 1.286c-3.104.81-6.008.655-8.711-.466s-3.963-2.591-3.781-4.409 1.669-3.144 4.477-3.992 5.552-1.251 8.245-1.209c2.693.047 4.233.252 4.621.615s.681.554.882.572a2.83 2.83 0 0 1 .581.135c.192.07.371.16.538.268s.319.243.452.389.249.306.345.48.17.358.222.551a2.72 2.72 0 0 1 .079.587c0 .198-.021.393-.064.586a2.69 2.69 0 0 1-.208.559 2.61 2.61 0 0 1-.33.487c-.134.151-.283.283-.445.396a2.38 2.38 0 0 1-.531.282c-.187.071-.381.121-.582.149s-1.262.235-3.2.622c-1.932.386-4.558.558-7.878.515s-5.659-.303-7.018-.77-2.128-.711-2.31-.735-.359-.07-.531-.141a2.19 2.19 0 0 1-.488-.254 2.36 2.36 0 0 1-.409-.368c-.119-.141-.222-.292-.308-.452s-.144-.334-.187-.509a2.32 2.32 0 0 1-.065-.544c.005-.183.032-.362.079-.537s.115-.348.201-.509.194-.308.323-.445a2.52 2.52 0 0 1 .416-.353 2.63 2.63 0 0 1 .488-.247 2.37 2.37 0 0 1 .538-.12c.187-.019 1.376-.723 3.566-2.113l4.212-2.459s1.022-.396 1.242-.438.435-.066.66-.057.438.043.653.099a2.8 2.8 0 0 1 .61.255 2.87 2.87 0 0 1 .531.388 2.7 2.7 0 0 1 .423.502c.12.188.215.386.287.594s.117.419.136.635a2.96 2.96 0 0 1-.028.651 2.65 2.65 0 0 1-.18.628c-.086.203-.196.391-.33.566a3.02 3.02 0 0 1-.452.473c-.172.137-.359.252-.56.346s-1.011.111-2.432.036l-4.599-.198c-1.641-.066-1.856.028-.646.282s2.509.658 3.896 1.223a22.24 22.24 0 0 0 4.399 1.272c1.549.282 3.123.473 4.721.572s3.03.28 4.312.558c1.277.278 2.284 1.14 3.021 2.586s.847 2.782.344 4.007c-.502 1.234-1.241 2.232-2.217 2.996s-1.612 1.286-1.894 1.554a3.45 3.45 0 0 1-.839.608 3.83 3.83 0 0 1-.869.304c-.306.065-.612.094-.918.084-.311-.004-.617-.047-.919-.127a3.79 3.79 0 0 1-.853-.346 3.62 3.62 0 0 1-.747-.53 4 4 0 0 1-.602-.7 3.89 3.89 0 0 1-.409-.812 3.95 3.95 0 0 1-.201-.89 3.87 3.87 0 0 1 .021-.912c.048-.301.129-.593.244-.876a3.45 3.45 0 0 1 .452-.791 3.97 3.97 0 0 1 .624-.665c.24-.197.972-.56 2.196-1.088s2.566-.878 4.025-1.053c1.459-.169 2.323-.176 2.591-.021s.564.233.889.233a4.12 4.12 0 0 1 .955.113c.311.076.61.189.897.34a3.74 3.74 0 0 1 .789.537c.244.212.457.447.639.706a3.9 3.9 0 0 1 .452.841 3.72 3.72 0 0 1 .229.912 3.94 3.94 0 0 1 0 .946 3.83 3.83 0 0 1-.229.919 3.9 3.9 0 0 1-.452.841c-.182.264-.393.499-.632.706-.244.212-.509.391-.796.537-.287.151-.586.264-.897.339-.316.076-.424-.485-.323-1.681s.911-1.632 2.432-1.321a62.06 62.06 0 0 1 3.947.925c1.119.306 2.191.516 3.214.629l4.148.382 4.606.296 3.602.05s2.289-.132 3.667-.297 2.513-.165 3.408 0 1.502.323 1.822.473a4.21 4.21 0 0 1 .897.559 4.59 4.59 0 0 1 .739.756c.211.282.388.586.531.911s.235.66.287 1.004c.058.348.072.699.043 1.052a4.17 4.17 0 0 1-.215 1.025 4.42 4.42 0 0 1-.459.94c-.191.296-.416.567-.675.812a4.41 4.41 0 0 1-.853.622 4.03 4.03 0 0 1-.976.41c-.345.099-.694.155-1.048.169s-.713-.021-1.062-.091.031-.156 1.141-.255 1.093-.049-.064.163-2.607.256-4.349.134l-5.682-.311-5.741-.071a209.08 209.08 0 0 1-6.472.036l-7.132-.241s-4.021-.209-5.417-.219-2.65.005-3.76.043l-4.858.198-5.13.169-4.133.014-4.356-.007-4.534-.226-4.263-.339-4.348-.219-4.606-.24-4.227-.396-4.606-.466a99.33 99.33 0 0 0-5.31-.311 157.11 157.11 0 0 0-5.13-.092c-1.564-.005-3.059.005-4.485.028l-3.243.085c-.732.024-1.279.014-1.643-.028a4.39 4.39 0 0 1-1.062-.262c-.344-.127-.667-.294-.969-.501s-.574-.441-.818-.714c-.239-.268-.444-.563-.617-.883a4.26 4.26 0 0 1-.387-1.011c-.086-.348-.129-.704-.129-1.067s.045-.718.136-1.067.215-.683.387-1.003a4.65 4.65 0 0 1 .625-.89 4.45 4.45 0 0 1 .818-.707 4.38 4.38 0 0 1 .968-.501c.34-.128.694-.212 1.062-.255s1.074.137 2.131.537 2.543.839 4.442 1.314c1.904.476 3.863.858 5.876 1.145s3.99.514 5.927.693 3.655.28 5.166.303 2.883.022 4.112-.007l3.516-.092 3.752-.063h4.191l3.831-.043 4.198-.176 4.377-.12s2.676.042 4.212.127l4.771.297 4.643.24 4.118.064 4.277.049 4.549.064 4.327.014 4.161-.014a69.62 69.62 0 0 0 4.097-.149c1.359-.094 2.591-.108 3.696-.042l3.408.212 3.308.085s2.384-.069 4.039-.149 2.72-.082 3.179-.007a4.13 4.13 0 0 1 1.306.431 4.4 4.4 0 0 1 1.091.82 4.26 4.26 0 0 1 .775 1.123c.191.415.313.85.366 1.307.047.453.021.902-.079 1.35a3.91 3.91 0 0 1-.51 1.258c-.239.391-.536.735-.89 1.031s-.746.53-1.176.7-.878.266-1.342.29a4.35 4.35 0 0 1-1.371-.149 4.27 4.27 0 0 1-1.248-.565c-.383-.259-.715-.57-.997-.933s-.498-.768-.646-1.201a4.08 4.08 0 0 1 0-2.671 4.07 4.07 0 0 1 .646-1.194 4.15 4.15 0 0 1 .997-.933 4.24 4.24 0 0 1 1.256-.572c.444-.123.899-.17 1.363-.141.464.023.911.12 1.342.289s.83.403 1.184.7.65.641.889 1.031a4.22 4.22 0 0 1 .51 1.258c.095.448.119.9.072 1.357-.053.452-.177.888-.374 1.307a3.97 3.97 0 0 1-.767 1.116c-.321.335-.687.608-1.098.82a4.14 4.14 0 0 1-1.306.431l-.689.113c.005 0-.875-.052-2.64-.155s-3.203-.208-4.313-.325l-4.807-.488-5.174-.452-4.097-.148-4.168-.022a486.14 486.14 0 0 0-4.334.007l-4.578.043a135.87 135.87 0 0 1-4.334 0l-4.226-.057-4.686-.028-4.635-.028-4.097-.007c-1.268 0-2.727-.043-4.377-.128l-4.198-.176-3.838-.043c-1.411 0-2.811-.002-4.198-.007l-3.774-.077-3.545-.135-4.176-.091c-1.535-.024-3.308.004-5.317.084l-6.522.205c-2.334.052-4.76-.219-7.276-.812s-3.948-.912-4.312-.954a4.39 4.39 0 0 1-1.062-.262c-.344-.127-.667-.292-.969-.494a4.6 4.6 0 0 1-.818-.721c-.239-.268-.444-.563-.617-.883a4.26 4.26 0 0 1-.387-1.011c-.086-.348-.129-.704-.129-1.067 0-.358.045-.713.136-1.067.086-.348.215-.683.387-1.003a4.45 4.45 0 0 1 .625-.883 4.08 4.08 0 0 1 .818-.714 4.38 4.38 0 0 1 .968-.501c.34-.128.694-.212 1.062-.255s.912-.049 1.643-.021l3.294.099 4.736.155 5.338.241 5.625.487s3.478.481 4.794.763 2.733.547 4.254.806l4.428.735 4.068.537 3.975.374a47.61 47.61 0 0 0 4.234.184l4.355-.007 4.147.021 3.638.113 3.251.191 3.286.254 3.745.325c1.349.123 3.071.16 5.167.113s4.379-.172 6.838-.388l6.429-.65 5.977-.735c2.147-.273 4.006-.372 5.575-.297s2.942.047 4.104-.085 1.904-.122 2.224.028a4.21 4.21 0 0 1 .897.559 4.59 4.59 0 0 1 .739.756c.211.282.388.586.531.911s.235.66.287 1.004a4.21 4.21 0 0 1 .043 1.045c-.028.354-.1.697-.215 1.032a4.42 4.42 0 0 1-.459.94c-.191.296-.416.567-.675.812a4.41 4.41 0 0 1-.853.622 4.03 4.03 0 0 1-.976.41c-.345.099-.694.155-1.048.169s-.713-.021-1.062-.091-.488-.146-.416-.227c.072-.075-.548-.098-1.858-.07l-3.76.099-3.932.092c-1.421.023-3.136-.059-5.145-.248l-4.98-.692a113.02 113.02 0 0 1-4.039-.919l-4.104-1.201s-2.433-1.041-3.222-1.724-1.225-2.07-1.306-4.162.497-3.669 1.736-4.72c1.234-1.06 2.014-1.59 2.339-1.59a4.12 4.12 0 0 1 .955.113c.311.076.61.189.897.34a3.74 3.74 0 0 1 .789.537c.244.212.457.447.639.706a3.9 3.9 0 0 1 .452.841 3.72 3.72 0 0 1 .229.912 3.94 3.94 0 0 1 0 .946 3.83 3.83 0 0 1-.229.919 3.9 3.9 0 0 1-.452.841 4.07 4.07 0 0 1-.632.706c-.244.212-.509.391-.796.537a3.72 3.72 0 0 1-.897.339c-.316.076-.749-.023-1.299-.296-.555-.273-1.488-.25-2.798.07s-2.105.542-2.382.679-.567.233-.869.304a3.76 3.76 0 0 1-.918.084c-.311-.004-.617-.047-.919-.127a3.79 3.79 0 0 1-.853-.346 3.62 3.62 0 0 1-.747-.53 3.67 3.67 0 0 1-.602-.7 3.89 3.89 0 0 1-.409-.812 3.95 3.95 0 0 1-.201-.89 3.87 3.87 0 0 1 .021-.912c.048-.301.129-.593.244-.876s.263-.544.445-.784a4.07 4.07 0 0 1 .631-.672c.24-.197.897-.205 1.974-.021s.703.257-1.134.219-3.755-.176-5.769-.417-4.052-.704-6.113-1.378-3.851-1.582-5.367-2.727-2.567-2.471-3.15-3.964-.622-2.925-.115-4.296 1.763-2.313 3.753-2.826 3.58-.695 4.757-.544 2.332.478 3.48.968c1.143.49 1.825.713 2.045.671s.435-.066.66-.057.438.043.653.099a2.8 2.8 0 0 1 .61.255 2.87 2.87 0 0 1 .531.388 2.7 2.7 0 0 1 .423.502c.12.188.215.386.287.594s.117.419.136.635a2.96 2.96 0 0 1-.028.651 2.65 2.65 0 0 1-.18.628c-.086.203-.196.391-.33.566a3.02 3.02 0 0 1-.452.473c-.172.137-.359.252-.56.346s-.636.191-1.305.276-1.632.29-2.899.6-2.643.978-4.126 2.014-2.315 1.543-2.497 1.519-.359-.07-.531-.141-.335-.151-.488-.254a2.36 2.36 0 0 1-.409-.368c-.119-.141-.222-.292-.308-.452s-.144-.334-.187-.509a2.32 2.32 0 0 1-.065-.544c.005-.183.032-.362.079-.537s.115-.348.201-.509.194-.308.323-.445a2.52 2.52 0 0 1 .416-.353 2.63 2.63 0 0 1 .488-.247 2.37 2.37 0 0 1 .538-.12c.187-.019.974.292 2.361.932 1.392.646 3.552.987 6.479 1.025s5.511-.283 7.764-.975 3.487-1.022 3.688-1.004a2.83 2.83 0 0 1 .581.135c.192.07.371.16.538.268s.314.243.452.389.249.306.345.48.17.358.222.551a2.72 2.72 0 0 1 .079.587c0 .198-.021.393-.064.586a2.69 2.69 0 0 1-.208.559 2.61 2.61 0 0 1-.33.487c-.134.151-.283.283-.445.396a2.38 2.38 0 0 1-.531.282c-.187.071-.381.121-.582.149s-.645-.304-1.348-.996-2.053-.98-4.062-.877-4.142.544-6.4 1.322-2.65 1.208-1.191 1.293 3.207.04 5.259-.135 3.586-.574 4.6-1.201 1.617-.939 1.794-.939.351.023.523.07.338.104.495.184a2.13 2.13 0 0 1 .783.699c.1.146.179.302.236.467.063.16.103.327.122.501s.019.349 0 .523c-.024.175-.069.344-.136.509a2.06 2.06 0 0 1-.251.459 2.27 2.27 0 0 1-.352.389 2.17 2.17 0 0 1-.445.29 2.03 2.03 0 0 1-.495.176c-.172.043-1.093-.068-2.762-.332s-4.102-.219-7.312.134-5.9.928-8.072 1.725l-3.545 1.137a2.5 2.5 0 0 1-.552-.162c-.177-.076-.342-.172-.495-.29a2.13 2.13 0 0 1-.409-.396c-.12-.151-.22-.311-.302-.48-.081-.175-.141-.356-.179-.544-.033-.189-.045-.377-.036-.566s.043-.374.101-.558a2.57 2.57 0 0 1 .229-.523 2.68 2.68 0 0 1 .352-.445c.139-.136.289-.254.452-.353a2.72 2.72 0 0 1 .524-.24c.186-.057.375-.092.567-.106s.944.266 2.26.84 3.664.931 7.046 1.082 6.778-.106 10.174-.771 5.176-.984 5.339-.961a2.06 2.06 0 0 1 .473.128c.153.056.295.134.424.233a1.95 1.95 0 0 1 .359.325c.11.122.2.257.272.403a2.19 2.19 0 0 1 .165.452 2 2 0 0 1 .043.48c0 .16-.021.318-.064.474a1.89 1.89 0 0 1-.187.452c-.081.141-.177.271-.287.389s-.234.221-.373.31-.285.161-.438.212a1.8 1.8 0 0 1-.48.106c-.163.015-1.282-.033-3.358-.141s-5.219-.195-9.443-.261l-12.363-.276-6.286-.191a2.2 2.2 0 0 1-.524-.092 2.18 2.18 0 0 1-.487-.212c-.154-.089-.292-.197-.417-.325a1.96 1.96 0 0 1-.33-.409c-.095-.151-.169-.309-.222-.474a1.96 1.96 0 0 1-.101-.516 2.41 2.41 0 0 1 .029-.522c.034-.175.086-.342.158-.502s.163-.311.273-.452a2.28 2.28 0 0 1 .373-.368 2.3 2.3 0 0 1 .452-.275c.162-.071.332-.123.509-.156s1.112-.113 2.806-.24l7.383-.523c3.224-.221 5.827-.565 7.807-1.032l3.243-.664s.356.059.524.12a2.18 2.18 0 0 1 .488.248c.153.099.289.214.409.346s.229.283.316.438.157.327.2.502.072.351.072.53-.014.358-.057.537a2.31 2.31 0 0 1-.187.501 2.15 2.15 0 0 1-.301.445 2.14 2.14 0 0 1-.409.361 2.3 2.3 0 0 1-.474.254c-.172.066-.349.111-.531.134s-.514-.233-.997-.77-1.576-.704-3.265-.487l-7.806.749s-6.389.718-8.618 1.293l-3.659.819s-.414-.082-.61-.162a2.44 2.44 0 0 1-.56-.297c-.177-.118-.335-.257-.474-.417a2.6 2.6 0 0 1-.351-.523c-.096-.183-.168-.379-.215-.586a2.24 2.24 0 0 1-.072-.622 2.68 2.68 0 0 1 .086-.615c.053-.202.129-.395.23-.579a2.46 2.46 0 0 1 .366-.516c.143-.155.303-.29.48-.403s.366-.214.567-.289.407-.118.617-.142.675.088 1.392.332 2.402.349 5.052.325l9.665-.049c3.793 0 6.498.344 8.115 1.032 1.622.692 1.887.946.796.763s-2.638-.036-4.642.445-4.078 1.182-6.235 2.106-4.09 1.825-5.798 2.706c-1.703.89-2.667 1.295-2.892 1.215a2.94 2.94 0 0 1-.638-.304c-.201-.122-.383-.271-.546-.445a3.07 3.07 0 0 1-.423-.558c-.119-.203-.21-.415-.273-.636a3.05 3.05 0 0 1-.107-.692 2.59 2.59 0 0 1 .064-.693 2.75 2.75 0 0 1 .23-.664c.1-.212.227-.408.38-.587a3.1 3.1 0 0 1 .517-.48c.191-.137.397-.252.617-.346s.447-.151.682-.184c.234-.038.471-.047.71-.028s.588.212 1.062.565c.469.349 1.241.678 2.318.989s2.652.65 4.728 1.018l6.888 1.158 7.212 1.053 5.704.876c1.497.283 2.014-.098 1.55-1.144s-1.172-2.056-2.11-3.046-2.291-2.098-4.047-3.328-3.322-2.105-4.685-2.628-2.641-.905-3.832-1.145-2.513-.391-3.968-.438-2.755-.014-3.903.099-2.533.433-4.169.961-2.901 1.142-3.781 1.844-2.146 1.555-3.81 2.544-2.024 1.783-1.077 2.381 2.036 1.133 3.265 1.604 2.636.904 4.234 1.314c1.602.405 2.98.662 4.133.77s2.497.194 4.018.255l4.743.092 4.513.021 3.975-.057 3.71-.169 3.558-.233c1.182-.099 2.555.007 4.119.318s2.263-.113 2.095-1.272c-.167-1.15-.423-2.271-.767-3.364s-.78-2.207-1.321-3.342c-.535-1.13-1.279-2.261-2.231-3.391s-1.985-2.165-3.086-3.102-2.066-1.731-2.898-2.381c-.838-.651-1.799-1.312-2.885-1.986-1.081-.669-2.148-1.06-3.2-1.173a88.65 88.65 0 0 0-3.301-.29 49.93 49.93 0 0 0-3.444-.134l-3.595-.007c-1.243.005-2.621.221-4.133.65s-2.784.86-3.817 1.307-2.085 1.008-3.157 1.682a15.36 15.36 0 0 0-2.971 2.452c-.908.951-1.87 2.195-2.884 3.731s-1.66 2.835-1.937 3.9-.464 2.202-.56 3.413-.172 1.962-.23 2.254-.15.582-.279.855a3.91 3.91 0 0 1-.481.756 3.56 3.56 0 0 1-.653.622 3.75 3.75 0 0 1-.782.452 3.59 3.59 0 0 1-.876.254 3.61 3.61 0 0 1-.897.043 3.64 3.64 0 0 1-.896-.17c-.287-.094-.56-.221-.818-.382a3.6 3.6 0 0 1-.711-.558 4.03 4.03 0 0 1-.552-.713 3.69 3.69 0 0 1-.359-.82 3.71 3.71 0 0 1-.151-.883l-.021-.445z" fill="#e67700" fill-opacity=".1"/><g fill="#000"><path d="M155.719 214.495l-.05 2.247-.101 4.572-.043 4.345c.005 1.357.156 2.793.452 4.31s.699 3.05 1.206 4.6 1.078 3.015 1.715 4.395l1.836 4.289 1.658 3.639 2.038 3.667a21.09 21.09 0 0 0 3.064 4.134l3.558 3.483 3.136 2.713a16.62 16.62 0 0 1 2.504 2.558c.756.952 1.06 2.739.911 5.363-.143 2.624-.762 4.226-1.858 4.805s-2.447.763-4.054.551-3.047-.692-4.319-1.455c-1.268-.768-2.364-1.762-3.287-2.982l-2.325-3.088-2.123-2.586-2.454-2.756-2.282-2.593c-.675-.768-1.392-1.842-2.153-3.222l-2.045-3.554-1.98-3.561c-.713-1.385-1.227-2.577-1.543-3.576s-.552-2.03-.724-3.094-.278-2.285-.33-3.661l-.072-3.872a32.53 32.53 0 0 1 .258-3.829l.402-4.077.316-3.774c.114-1.144.409-2.609.882-4.394s1.122-3.145 1.945-4.077c.827-.938 1.954-1.64 3.379-2.106s2.772-.718 4.04-.756l3.552-.057 3.279.007 3.595.022 4.003.028 4.112.035 4.901.078 5.187.085 4.758.035 4.994.205 4.778.283 4.076.098 3.487-.035 2.755-.056c.77-.005 1.419.035 1.945.12a4.88 4.88 0 0 1 1.492.494c.469.245.888.559 1.256.94a4.91 4.91 0 0 1 .883 1.279c.224.476.365.975.423 1.498s.029 1.034-.086 1.547-.309.994-.581 1.442a4.88 4.88 0 0 1-1.027 1.18 4.86 4.86 0 0 1-1.348.798c-.493.198-1.005.311-1.536.339a4.88 4.88 0 0 1-1.571-.169c-.512-.141-.988-.358-1.428-.65-.44-.297-.823-.655-1.148-1.074s-.565-.872-.732-1.371-.258-1.003-.258-1.526a4.63 4.63 0 0 1 .258-1.533c.167-.495.414-.95.739-1.364a4.69 4.69 0 0 1 1.141-1.067 4.67 4.67 0 0 1 1.435-.65c.512-.142 1.033-.198 1.564-.17s1.045.139 1.543.332a5.03 5.03 0 0 1 1.349.806 4.96 4.96 0 0 1 1.019 1.18c.272.443.466.921.581 1.434a4.69 4.69 0 0 1 .086 1.548 4.72 4.72 0 0 1-.423 1.498 4.88 4.88 0 0 1-.883 1.286 4.87 4.87 0 0 1-1.256.939 4.96 4.96 0 0 1-1.499.495l-.782.127-1.773-.028-3.659-.078-4.061-.106-3.739-.113-3.587-.191-4.427-.113-4.758.029-5.187.084-4.901.085-4.112.028-4.003.029-4.169.021-4.205.127c-1.339.08-2.066.749-2.181 2.007l-.28 3.858-.309 4.31-.201 4.501.209 3.815c.129 1.112.476 2.292 1.04 3.54a28.42 28.42 0 0 0 1.866 3.505l2.353 3.752c.885 1.418 1.708 2.579 2.468 3.483l2.576 3.01 2.72 3.427a21.03 21.03 0 0 1 2.124 3.717c.564 1.295.476 2.657-.266 4.084s-1.437 1.658-2.102.693-1.452-1.913-2.375-2.855l-2.705-2.565-2.418-2.296-2.476-2.735c-.923-1.06-1.815-2.383-2.676-3.971l-2.217-4.473-1.522-3.978-1.614-4.592c-.675-1.8-1.213-3.545-1.614-5.236l-.854-4.07c-.173-1.027-.266-2.052-.28-3.074l-.015-3.561-.043-4.345-.1-4.572.007-2.678c.034-.287.103-.565.208-.834a3.62 3.62 0 0 1 .409-.77c.168-.236.361-.45.581-.643s.462-.358.725-.495c.258-.131.531-.233.818-.303s.577-.106.868-.106.581.035.869.106.559.172.817.303a3.63 3.63 0 0 1 .725.495c.22.193.414.407.581.643s.304.497.409.77a3.29 3.29 0 0 1 .208.834l.058.431z" fill-opacity=".1"/><path d="M165.575 274.836l-1.536.741c-1.014.49-2.054 1.237-3.121 2.24s-1.772 1.988-2.117 2.954l-.904 2.975-1.076 4.416-1.163 5.08c-.31 1.465-.504 2.699-.581 3.703s-.174 1.733-.294 2.176a4.21 4.21 0 0 1-.574 1.243c-.263.387-.579.721-.947 1.004a4.33 4.33 0 0 1-1.227.65c-.44.151-.895.228-1.363.233a4.58 4.58 0 0 1-1.378-.212c-.445-.146-.854-.358-1.227-.636a4 4 0 0 1-.961-.982 4.17 4.17 0 0 1-.596-1.237 4.06 4.06 0 0 1-.158-1.356c.019-.462.115-.909.287-1.343.172-.428.409-.819.71-1.173s.651-.65 1.048-.89a4.15 4.15 0 0 1 1.284-.516c.46-.103.924-.132 1.392-.084a4.35 4.35 0 0 1 1.335.353c.431.193.816.447 1.155.763a3.97 3.97 0 0 1 .847 1.081c.225.405.378.836.459 1.293a4.19 4.19 0 0 1 .007 1.364c-.071.457-.215.89-.43 1.3a4.37 4.37 0 0 1-.832 1.095c-.34.32-.723.577-1.149.77-.42.198-.865.325-1.334.382a4.27 4.27 0 0 1-1.385-.071c-.459-.094-.89-.259-1.292-.494a4.27 4.27 0 0 1-1.069-.877 4.16 4.16 0 0 1-1.033-2.501l-.043-.692c0 .004.077-.594.23-1.795l.531-3.328c.205-1.018.569-2.299 1.09-3.844l1.091-3.794.775-3.378c.311-1.272.689-2.445 1.134-3.519s.975-2.013 1.578-2.833a16.36 16.36 0 0 1 2.059-2.275c.771-.702 1.701-1.423 2.792-2.162s2.164-1.345 3.207-1.816l1.995-.848a3.79 3.79 0 0 1 .882-.177c.297-.023.593-.012.89.035a3.69 3.69 0 0 1 .868.248c.278.118.538.266.782.445s.455.384.646.615a3.62 3.62 0 0 1 .481.749c.129.273.225.555.287.848s.086.584.072.876a3.45 3.45 0 0 1-.144.876 3.74 3.74 0 0 1-.351.812c-.154.26-.335.497-.546.714a3.91 3.91 0 0 1-.696.558l-.387.241z" fill-opacity=".1"/><path d="M167.705 271.8l1.349.416c.899.278 1.976.705 3.229 1.279 1.248.58 2.435.942 3.559 1.089 1.119.146 2.327.143 3.623-.008l4.349-.671 4.943-1.088 4.628-1.265c1.397-.419 2.562-.994 3.495-1.724l2.21-1.745a12.08 12.08 0 0 1 1.463-1.039c.441-.249.909-.426 1.407-.53.493-.099.992-.117 1.499-.056.503.056.981.193 1.436.41s.87.499 1.234.847a4.36 4.36 0 0 1 .889 1.188 4.42 4.42 0 0 1 .467 1.406 4.63 4.63 0 0 1-.022 1.476c-.086.49-.251.954-.495 1.392a4.57 4.57 0 0 1-.925 1.166c-.374.339-.79.61-1.249.813-.464.198-.949.32-1.457.367a4.41 4.41 0 0 1-1.492-.099c-.497-.108-.961-.292-1.392-.551s-.806-.589-1.126-.975a4.4 4.4 0 0 1-.761-1.272c-.182-.466-.282-.949-.301-1.448s.035-.989.179-1.47a4.62 4.62 0 0 1 .646-1.328 4.64 4.64 0 0 1 1.047-1.06 4.7 4.7 0 0 1 1.335-.679 4.56 4.56 0 0 1 1.485-.219 4.64 4.64 0 0 1 1.478.255 4.5 4.5 0 0 1 1.313.713c.402.307.742.667 1.019 1.082a4.57 4.57 0 0 1 .61 1.349c.134.485.182.975.144 1.47s-.146.98-.338 1.441a4.66 4.66 0 0 1-.789 1.258l-.502.565-1.507 1.145c-1.009.768-2.251 1.576-3.724 2.423-1.478.853-3.052 1.515-4.721 1.986l-5.109 1.343-5.69 1.201c-2.052.377-3.789.589-5.209.636s-2.689-.026-3.803-.205c-1.115-.184-2.337-.478-3.667-.884s-2.442-.89-3.322-1.455a14.29 14.29 0 0 0-2.633-1.336l-1.715-.685a3.89 3.89 0 0 1-.768-.495 3.93 3.93 0 0 1-.631-.657c-.182-.245-.33-.506-.445-.784a3.5 3.5 0 0 1-.244-.869 3.51 3.51 0 0 1-.029-.897c.029-.302.093-.596.194-.884s.234-.558.402-.812.363-.485.588-.693a3.71 3.71 0 0 1 .739-.53c.268-.15.55-.266.847-.346s.598-.125.904-.134.603.019.904.085l.452.092z" fill-opacity=".1"/></g><rect x="33" y="341.201" width="293" height="41" rx="16" fill="#f7f7f7"/><path d="M95.288 361.44l-1.782 4.761h-2.169l-2.277-7.389h2.43l1.242 4.932 1.755-4.788h1.611l1.737 4.788 1.251-4.932h2.43l-2.268 7.389h-2.169l-1.791-4.761zm7.427 4.761v-7.389h2.277v7.389h-2.277zm1.17-9.297a1.31 1.31 0 0 1-.963-.396c-.258-.264-.387-.579-.387-.945a1.32 1.32 0 0 1 .396-.954c.264-.27.582-.405.954-.405a1.26 1.26 0 0 1 .675.189 1.42 1.42 0 0 1 .495.486c.126.204.189.432.189.684 0 .366-.135.681-.405.945a1.3 1.3 0 0 1-.954.396zm7.902 1.692c.504 0 .996.105 1.476.315.48.204.873.531 1.179.981.312.45.468 1.038.468 1.764v4.545h-2.295v-4.149c0-.606-.144-1.056-.432-1.35-.282-.294-.654-.441-1.116-.441-.3 0-.588.084-.864.252-.27.162-.492.39-.666.684-.168.288-.252.618-.252.99v4.014h-2.286v-7.389h2.286v1.179c.066-.204.216-.414.45-.63s.531-.396.891-.54c.36-.15.747-.225 1.161-.225zm14.931 2.844l-1.782 4.761h-2.169l-2.277-7.389h2.43l1.242 4.932 1.755-4.788h1.611l1.737 4.788 1.251-4.932h2.43l-2.268 7.389h-2.169l-1.791-4.761zm7.426 4.761v-7.389h2.277v7.389h-2.277zm1.17-9.297a1.31 1.31 0 0 1-.963-.396c-.258-.264-.387-.579-.387-.945a1.32 1.32 0 0 1 .396-.954c.264-.27.582-.405.954-.405a1.26 1.26 0 0 1 .675.189 1.42 1.42 0 0 1 .495.486c.126.204.189.432.189.684 0 .366-.135.681-.405.945a1.3 1.3 0 0 1-.954.396zm2.557 1.908h1.332v-3.033h2.268v3.033h1.746v1.899h-1.746v2.673c0 .354.057.63.171.828.114.192.294.288.54.288.186 0 .339-.036.459-.108.12-.078.192-.132.216-.162l.81 1.638c-.036.036-.153.099-.351.189-.192.09-.441.171-.747.243a4.05 4.05 0 0 1-1.017.117c-.678 0-1.239-.195-1.683-.585-.444-.396-.666-1.008-.666-1.836v-3.285h-1.332v-1.899zm11.719-.216c.504 0 .996.105 1.476.315.48.204.873.531 1.179.981.312.45.468 1.038.468 1.764v4.545h-2.295v-4.149c0-.606-.138-1.056-.414-1.35-.27-.294-.633-.441-1.089-.441a1.7 1.7 0 0 0-.882.252c-.276.162-.504.39-.684.684-.174.288-.261.618-.261.99v4.014h-2.295v-12.384h2.295v6.174c.06-.204.207-.414.441-.63s.531-.396.891-.54a3.01 3.01 0 0 1 1.17-.225zm8.953.216h1.332v-3.033h2.268v3.033h1.746v1.899h-1.746v2.673c0 .354.057.63.171.828.114.192.294.288.54.288.186 0 .339-.036.459-.108.12-.078.192-.132.216-.162l.81 1.638c-.036.036-.153.099-.351.189-.192.09-.441.171-.747.243a4.05 4.05 0 0 1-1.017.117c-.678 0-1.239-.195-1.683-.585-.444-.396-.666-1.008-.666-1.836v-3.285h-1.332v-1.899zm11.719-.216c.504 0 .996.105 1.476.315.48.204.873.531 1.179.981.312.45.468 1.038.468 1.764v4.545h-2.295v-4.149c0-.606-.138-1.056-.414-1.35-.27-.294-.633-.441-1.089-.441a1.7 1.7 0 0 0-.882.252c-.276.162-.504.39-.684.684-.174.288-.261.618-.261.99v4.014h-2.295v-12.384h2.295v6.174c.06-.204.207-.414.441-.63s.531-.396.891-.54a3.01 3.01 0 0 1 1.17-.225zm6.625 4.419c.018.336.108.636.27.9s.396.471.702.621c.312.15.684.225 1.116.225.39 0 .732-.048 1.026-.144.3-.096.552-.213.756-.351.21-.144.366-.282.468-.414l.945 1.404c-.168.21-.393.405-.675.585-.276.174-.63.312-1.062.414-.426.108-.96.162-1.602.162-.81 0-1.521-.159-2.133-.477a3.44 3.44 0 0 1-1.431-1.377c-.342-.6-.513-1.314-.513-2.142 0-.72.153-1.368.459-1.944a3.38 3.38 0 0 1 1.332-1.377c.588-.336 1.293-.504 2.115-.504.774 0 1.443.15 2.007.45.57.294 1.011.726 1.323 1.296s.468 1.266.468 2.088l-.009.297c0 .144-.006.24-.018.288h-5.544zm3.429-1.413c-.006-.192-.066-.399-.18-.621a1.44 1.44 0 0 0-.513-.567c-.234-.156-.546-.234-.936-.234s-.711.075-.963.225c-.246.15-.432.336-.558.558-.126.216-.198.429-.216.639h3.366zm12.079 8.55c-.54 0-1.059-.051-1.557-.153a4.93 4.93 0 0 1-1.341-.477 3.14 3.14 0 0 1-1.008-.846l1.386-1.404c.126.162.288.324.486.486.204.168.462.306.774.414.312.114.702.171 1.17.171.444 0 .825-.087 1.143-.261.324-.168.573-.408.747-.72a2.14 2.14 0 0 0 .27-1.089v-.207h2.241v.342c0 .816-.192 1.503-.576 2.061s-.9.978-1.548 1.26-1.377.423-2.187.423zm2.07-3.951v-1.287c-.054.132-.192.318-.414.558s-.522.459-.9.657c-.372.192-.81.288-1.314.288-.708 0-1.335-.168-1.881-.504-.546-.342-.975-.807-1.287-1.395-.306-.594-.459-1.263-.459-2.007s.153-1.41.459-1.998a3.59 3.59 0 0 1 1.287-1.404c.546-.342 1.173-.513 1.881-.513.492 0 .918.084 1.278.252.366.162.66.354.882.576.228.216.375.411.441.585v-1.197h2.268v7.389h-2.241zm-4.014-3.69c0 .414.093.78.279 1.098a2 2 0 0 0 .738.729c.306.174.639.261.999.261a1.94 1.94 0 0 0 1.008-.261 1.91 1.91 0 0 0 .693-.738c.174-.318.261-.681.261-1.089a2.18 2.18 0 0 0-.261-1.08c-.168-.318-.399-.567-.693-.747a1.89 1.89 0 0 0-1.008-.27c-.36 0-.693.09-.999.27a1.98 1.98 0 0 0-.738.738c-.186.312-.279.675-.279 1.089zm11.794 3.906c-.786 0-1.488-.168-2.106-.504a3.74 3.74 0 0 1-1.44-1.377c-.348-.588-.522-1.257-.522-2.007s.174-1.419.522-2.007c.348-.594.828-1.062 1.44-1.404.618-.348 1.32-.522 2.106-.522.792 0 1.491.174 2.097.522.606.342 1.08.81 1.422 1.404.342.588.513 1.257.513 2.007s-.171 1.419-.513 2.007a3.69 3.69 0 0 1-1.422 1.377c-.606.336-1.305.504-2.097.504zm0-1.899a1.85 1.85 0 0 0 .981-.252c.282-.174.498-.411.648-.711.156-.306.234-.651.234-1.035s-.078-.729-.234-1.035c-.15-.306-.366-.546-.648-.72-.276-.18-.603-.27-.981-.27a1.8 1.8 0 0 0-.99.27c-.276.174-.492.414-.648.72s-.234.651-.234 1.035.078.729.234 1.035a1.81 1.81 0 0 0 .648.711c.282.168.612.252.99.252zm9.193 1.899c-.786 0-1.488-.168-2.106-.504a3.74 3.74 0 0 1-1.44-1.377c-.348-.588-.522-1.257-.522-2.007s.174-1.419.522-2.007c.348-.594.828-1.062 1.44-1.404.618-.348 1.32-.522 2.106-.522.792 0 1.491.174 2.097.522.606.342 1.08.81 1.422 1.404.342.588.513 1.257.513 2.007s-.171 1.419-.513 2.007a3.69 3.69 0 0 1-1.422 1.377c-.606.336-1.305.504-2.097.504zm0-1.899a1.85 1.85 0 0 0 .981-.252c.282-.174.498-.411.648-.711.156-.306.234-.651.234-1.035s-.078-.729-.234-1.035c-.15-.306-.366-.546-.648-.72-.276-.18-.603-.27-.981-.27a1.8 1.8 0 0 0-.99.27c-.276.174-.492.414-.648.72s-.234.651-.234 1.035.078.729.234 1.035a1.81 1.81 0 0 0 .648.711c.282.168.612.252.99.252zm8.771 1.899c-.702 0-1.32-.168-1.854-.504-.528-.342-.942-.807-1.242-1.395-.294-.594-.441-1.263-.441-2.007s.147-1.41.441-1.998a3.53 3.53 0 0 1 1.242-1.404c.534-.342 1.152-.513 1.854-.513.498 0 .939.081 1.323.243.39.162.702.354.936.576s.372.42.414.594v-6.192h2.295v12.384h-2.268v-1.287c-.096.21-.273.432-.531.666s-.573.432-.945.594-.78.243-1.224.243zm.648-1.818c.384 0 .729-.087 1.035-.261.306-.18.546-.426.72-.738.18-.318.27-.681.27-1.089s-.09-.768-.27-1.08c-.174-.318-.414-.567-.72-.747s-.651-.27-1.035-.27c-.354 0-.678.09-.972.27-.294.174-.531.42-.711.738-.174.312-.261.675-.261 1.089a2.25 2.25 0 0 0 .261 1.098c.18.312.417.555.711.729s.618.261.972.261zm9.985-5.787h1.332v-3.033h2.268v3.033h1.746v1.899h-1.746v2.673c0 .354.057.63.171.828.114.192.294.288.54.288.186 0 .339-.036.459-.108.12-.078.192-.132.216-.162l.81 1.638c-.036.036-.153.099-.351.189-.192.09-.441.171-.747.243a4.05 4.05 0 0 1-1.017.117c-.678 0-1.239-.195-1.683-.585-.444-.396-.666-1.008-.666-1.836v-3.285h-1.332v-1.899zm8.641 4.203c.018.336.108.636.27.9s.396.471.702.621c.312.15.684.225 1.116.225.39 0 .732-.048 1.026-.144.3-.096.552-.213.756-.351.21-.144.366-.282.468-.414l.945 1.404c-.168.21-.393.405-.675.585-.276.174-.63.312-1.062.414-.426.108-.96.162-1.602.162-.81 0-1.521-.159-2.133-.477a3.44 3.44 0 0 1-1.431-1.377c-.342-.6-.513-1.314-.513-2.142 0-.72.153-1.368.459-1.944a3.38 3.38 0 0 1 1.332-1.377c.588-.336 1.293-.504 2.115-.504.774 0 1.443.15 2.007.45.57.294 1.011.726 1.323 1.296s.468 1.266.468 2.088l-.009.297c0 .144-.006.24-.018.288h-5.544zm3.429-1.413c-.006-.192-.066-.399-.18-.621a1.44 1.44 0 0 0-.513-.567c-.234-.156-.546-.234-.936-.234s-.711.075-.963.225c-.246.15-.432.336-.558.558-.126.216-.198.429-.216.639h3.366zm9.491 4.599v-1.287c-.054.132-.192.318-.414.558s-.522.459-.9.657c-.372.192-.81.288-1.314.288-.708 0-1.335-.168-1.881-.504-.546-.342-.975-.807-1.287-1.395-.306-.594-.459-1.263-.459-2.007s.153-1.41.459-1.998a3.59 3.59 0 0 1 1.287-1.404c.546-.342 1.173-.513 1.881-.513.492 0 .918.084 1.278.252.366.162.66.354.882.576.228.216.375.411.441.585v-1.197h2.268v7.389h-2.241zm-4.014-3.69c0 .414.093.78.279 1.098a2 2 0 0 0 .738.729c.306.174.639.261.999.261a1.94 1.94 0 0 0 1.008-.261 1.91 1.91 0 0 0 .693-.738c.174-.318.261-.681.261-1.089a2.18 2.18 0 0 0-.261-1.08c-.168-.318-.399-.567-.693-.747a1.89 1.89 0 0 0-1.008-.27c-.36 0-.693.09-.999.27a1.98 1.98 0 0 0-.738.738c-.186.312-.279.675-.279 1.089zm17.797-3.915c.552 0 1.032.117 1.44.351.414.234.735.594.963 1.08.234.48.351 1.098.351 1.854v4.32h-2.25v-3.951c0-.624-.093-1.11-.279-1.458-.18-.348-.525-.522-1.035-.522-.288 0-.552.078-.792.234-.24.15-.432.372-.576.666-.138.294-.207.654-.207 1.08v3.951h-2.106v-3.951c0-.624-.105-1.11-.315-1.458s-.543-.522-.999-.522a1.48 1.48 0 0 0-.801.225c-.234.15-.42.372-.558.666-.132.288-.198.651-.198 1.089v3.951h-2.268v-7.389h2.268v1.08c.066-.186.216-.378.45-.576.24-.198.537-.366.891-.504.354-.144.735-.216 1.143-.216.444 0 .813.075 1.107.225a2.06 2.06 0 0 1 .711.576c.186.228.327.468.423.72.084-.234.249-.468.495-.702s.555-.429.927-.585a3.11 3.11 0 0 1 1.215-.234z" fill="#1a8000"/></svg>