<svg xmlns="http://www.w3.org/2000/svg" width="201" height="202" fill="none" xmlns:v="https://vecta.io/nano"><rect x="1" y="1" width="200" height="200" rx="16" fill="#fff"/><g fill="#000"><path d="M54.214 85.144l-.295-2.026-.494-4.358a16.94 16.94 0 0 1 .25-4.702c.299-1.58.757-3.029 1.372-4.346l1.802-3.846.994-2.007a1.03 1.03 0 0 1 .25-.238.94.94 0 0 1 .308-.144c.111-.033.224-.048.34-.044a1.1 1.1 0 0 1 .333.063c.107.038.212.098.301.169a.97.97 0 0 1 .224.25.95.95 0 0 1 .135.306.89.89 0 0 1 .026.338.89.89 0 0 1-.083.319c-.047.1-.109.198-.186.281a.94.94 0 0 1-.269.213 1.1 1.1 0 0 1-.32.112 1.07 1.07 0 0 1-.346.006 1.1 1.1 0 0 1-.327-.1.99.99 0 0 1-.276-.2.87.87 0 0 1-.199-.269 1.11 1.11 0 0 1-.103-.325c-.013-.108-.009-.219.013-.331a.9.9 0 0 1 .122-.313.93.93 0 0 1 .218-.263.97.97 0 0 1 .288-.175 1.03 1.03 0 0 1 .333-.081 1.05 1.05 0 0 1 .34.031.91.91 0 0 1 .314.131 1.09 1.09 0 0 1 .256.225.95.95 0 0 1 .167.294 1.07 1.07 0 0 1 .064.331.97.97 0 0 1-.051.331l-.051.163-.987 1.776-1.808 3.552a16.52 16.52 0 0 0-1.206 3.877c-.252 1.401-.293 2.849-.122 4.346l.66 4.258.404 2.151a1 1 0 0 1-.026.275c-.017.096-.047.186-.09.269a1.15 1.15 0 0 1-.154.238 1.14 1.14 0 0 1-.205.2 1.63 1.63 0 0 1-.25.138c-.09.038-.184.065-.282.081a1.12 1.12 0 0 1-.282.013 1.34 1.34 0 0 1-.282-.056 1.15 1.15 0 0 1-.263-.119 1.29 1.29 0 0 1-.224-.175 1.23 1.23 0 0 1-.173-.225 1.03 1.03 0 0 1-.115-.263l-.045-.138v.006zm10.642-26.811l2.526-1.251c1.689-.834 5.285-1.298 10.791-1.394s10.781.761 15.837 2.57c5.057 1.801 8.981 4.713 11.773 8.735s4.001 8.923 3.616 14.7L108.2 99.139c-.415 5.852.564 11.024 2.937 15.513s6.018 8.283 10.926 11.393a283.69 283.69 0 0 0 15.356 9.048c5.326 2.923 9.376 5.469 12.151 7.641s4.706 4.051 5.809 5.64 2.013 2.995 2.744 4.22l1.148 1.995a.89.89 0 0 1 .051.3c0 .104-.017.206-.051.306s-.083.192-.148.276a.93.93 0 0 1-.23.212c-.086.059-.18.102-.282.131a1.01 1.01 0 0 1-.321.038 1.07 1.07 0 0 1-.308-.069.94.94 0 0 1-.269-.156c-.086-.067-.156-.146-.212-.238a.85.85 0 0 1-.115-.287c-.022-.1-.028-.203-.019-.307a.93.93 0 0 1 .083-.3c.043-.096.107-.181.179-.256a1.01 1.01 0 0 1 .251-.188c.094-.05.194-.083.301-.1s.212-.017.314 0 .207.05.301.1a.86.86 0 0 1 .257.181c.073.08.132.165.179.257a1.05 1.05 0 0 1 .084.3.92.92 0 0 1-.013.306.96.96 0 0 1-.122.288c-.051.092-.117.171-.199.238a1.06 1.06 0 0 1-.275.162c-.099.038-.201.061-.308.069s-.212-.008-.314-.038a1.06 1.06 0 0 1-.289-.125c-.09-.059-.167-.129-.231-.212l-.096-.125-.923-1.839c-.62-1.225-1.424-2.574-2.411-4.045s-2.834-3.258-5.527-5.371-6.713-4.646-12.074-7.585a246.26 246.26 0 0 1-15.664-9.348c-5.083-3.293-8.853-7.322-11.311-12.087s-3.481-10.096-3.084-15.995L107.758 82c.453-5.494-.592-10.119-3.136-13.875s-6.219-6.499-11.016-8.216c-4.8-1.709-9.817-2.537-15.049-2.482s-8.673.513-10.323 1.363l-2.578 1.313a1.51 1.51 0 0 1-.237.056c-.073.008-.15.006-.231-.006s-.158-.027-.231-.056a1.1 1.1 0 0 1-.212-.106.97.97 0 0 1-.18-.156.98.98 0 0 1-.135-.194c-.035-.067-.066-.144-.083-.219a1.06 1.06 0 0 1-.032-.225 1.51 1.51 0 0 1 .032-.238.71.71 0 0 1 .09-.213.76.76 0 0 1 .135-.194 1.25 1.25 0 0 1 .179-.156l.103-.063z"/><path d="M77.837 52.442l1.904-.738c1.274-.492 3.92-.963 7.938-1.413s9.122-.173 15.311.832 11.817 3.06 16.883 6.165c5.061 3.114 9.03 7.022 11.907 11.724s4.866 9.673 5.969 14.913 1.994 9.965 2.674 14.175 1.883 7.426 3.61 9.661a16.6 16.6 0 0 0 6.444 5.077c2.569 1.151 4.659 2.524 6.271 4.121s2.78 3.443 3.494 5.54 1.065 4.425 1.065 6.984-.229 5.057-.699 7.503-1.011 4.59-1.622 6.428l-1.578 4.759-.731 2.119c-.038.08-.092.151-.16.213a.88.88 0 0 1-.218.144c-.081.042-.167.067-.257.075a.73.73 0 0 1-.269-.013.82.82 0 0 1-.256-.093.72.72 0 0 1-.206-.169c-.059-.067-.106-.14-.141-.219s-.053-.169-.057-.256c-.009-.088 0-.175.025-.263a.69.69 0 0 1 .109-.238c.052-.075.112-.139.18-.193a.87.87 0 0 1 .237-.126c.086-.029.175-.043.269-.043a.71.71 0 0 1 .263.037c.086.025.167.065.244.119a.85.85 0 0 1 .186.188c.051.075.09.154.115.237s.037.175.032.263-.023.173-.057.256-.075.159-.135.225a.79.79 0 0 1-.205.175.84.84 0 0 1-.25.1c-.086.021-.173.028-.263.019s-.182-.035-.263-.069a.96.96 0 0 1-.224-.143.81.81 0 0 1-.167-.213c-.043-.075-.073-.156-.09-.244s-.013-.175 0-.262l.019-.132.667-2.001 1.552-4.658c.59-1.772 1.116-3.833 1.577-6.184a39.27 39.27 0 0 0 .725-7.11c.021-2.396-.263-4.541-.853-6.434s-1.616-3.576-3.065-5.04-3.546-2.842-6.29-4.139-5.046-3.172-6.893-5.64-3.122-5.809-3.815-10.023c-.688-4.21-1.554-8.852-2.597-13.925s-2.919-9.867-5.629-14.381-6.487-8.281-11.33-11.286-10.264-4.99-16.274-5.965-10.938-1.255-14.785-.825-6.393.9-7.649 1.413l-2.007.807c-.077.021-.154.033-.231.038s-.156-.008-.237-.025a1.09 1.09 0 0 1-.224-.075c-.073-.038-.139-.081-.199-.131s-.12-.106-.167-.169a.89.89 0 0 1-.115-.206.98.98 0 0 1-.064-.225.8.8 0 0 1-.006-.225 1.07 1.07 0 0 1 .051-.231.74.74 0 0 1 .109-.206.9.9 0 0 1 .154-.181c.056-.054.12-.1.192-.138l.102-.056z"/><path d="M106.009 50.406l2.097-.907c1.402-.609 3.77-.877 7.105-.807s6.706 1.361 10.105 3.871 6.228 6.138 8.489 10.874 3.584 10.267 3.956 16.595.351 12.124-.077 17.389-.504 9.054-.218 11.368 1.345 3.983 3.187 5.008c1.842 1.03 3.958 2.36 6.348 3.989s4.392 3.781 5.995 6.453 2.851 5.434 3.757 8.273 1.627 5.334 2.174 7.485.885 3.835 1 5.039-.075 2.301-.57 3.302l-.853 1.626s-.154.145-.244.2-.194.093-.301.118-.214.032-.321.019a1.09 1.09 0 0 1-.314-.081c-.098-.046-.186-.106-.263-.181a.9.9 0 0 1-.199-.251.89.89 0 0 1-.102-.293c-.017-.105-.017-.209 0-.313s.051-.208.102-.3a1 1 0 0 1 .193-.25 1.09 1.09 0 0 1 .269-.182c.098-.041.201-.068.308-.081a.91.91 0 0 1 .32.019.98.98 0 0 1 .302.112.88.88 0 0 1 .243.207c.073.079.129.169.167.269a.83.83 0 0 1 .071.306.88.88 0 0 1-.032.313 1.01 1.01 0 0 1-.135.281c-.06.088-.133.165-.218.231a1.07 1.07 0 0 1-.289.144c-.102.038-.207.056-.314.056s-.218-.016-.32-.05a1.02 1.02 0 0 1-.289-.15.91.91 0 0 1-.218-.225.9.9 0 0 1-.135-.287.99.99 0 0 1-.038-.313c.004-.104.028-.206.07-.306l.058-.15.795-1.007c.53-.675.738-1.545.622-2.608s-.451-2.649-.994-4.771-1.241-4.547-2.096-7.278-2.007-5.35-3.456-7.86a18.47 18.47 0 0 0-5.701-6.152l-6.54-4.309c-2.013-1.275-3.214-3.203-3.603-5.783s-.378-6.462.045-11.656.464-10.851.134-16.983-1.556-11.459-3.667-15.982-4.711-7.972-7.81-10.348c-3.095-2.368-6.149-3.591-9.163-3.67s-5.2.2-6.559.825l-2.154.969a.91.91 0 0 1-.238.044 1.06 1.06 0 0 1-.23-.012c-.082-.013-.159-.035-.231-.069s-.141-.069-.205-.119a.9.9 0 0 1-.174-.163.83.83 0 0 1-.121-.2.96.96 0 0 1-.077-.225 1 1 0 0 1-.013-.225 1.05 1.05 0 0 1 .038-.231c.021-.075.058-.146.096-.213a1.02 1.02 0 0 1 .148-.181.93.93 0 0 1 .186-.15l.102-.062zM89.65 57.213l-1.879-1.119-5.309-2.858c-2.283-1.155-4.909-1.888-7.88-2.201s-5.867.338-8.688 1.938-5.112 4.004-6.861 7.222-2.629 6.153-2.642 8.791.306 4.69.955 6.153l1.93 3.877 1 1.832c.034.1.049.204.045.313s-.023.213-.058.313a.97.97 0 0 1-.16.281.98.98 0 0 1-.244.213c-.094.058-.194.102-.301.131a1.04 1.04 0 0 1-.321.025c-.111-.008-.218-.033-.321-.075s-.194-.098-.276-.169-.15-.154-.205-.25a.92.92 0 0 1-.115-.294 1 1 0 0 1-.013-.319 1.07 1.07 0 0 1 .096-.306 1.02 1.02 0 0 1 .186-.263 1.19 1.19 0 0 1 .269-.188 1.14 1.14 0 0 1 .308-.094c.111-.017.22-.015.327.006s.214.056.308.106a1 1 0 0 1 .257.2.86.86 0 0 1 .179.269.98.98 0 0 1 .077.306.89.89 0 0 1-.019.319.95.95 0 0 1-.128.294.99.99 0 0 1-.218.238 1.03 1.03 0 0 1-.282.156.84.84 0 0 1-.321.063 1.08 1.08 0 0 1-.327-.037 1.07 1.07 0 0 1-.295-.144c-.09-.062-.167-.136-.231-.219l-.096-.131-.846-1.801-1.892-4.308c-.697-1.672-1.015-3.956-.955-6.853s1.069-6.069 3.014-9.529 4.497-6.046 7.656-7.76 6.369-2.411 9.631-2.082 6.066 1.073 8.425 2.22 4.172 2.074 5.45 2.782l2.02 1.144a1.12 1.12 0 0 1 .192.181.9.9 0 0 1 .141.225c.034.079.066.163.083.25a1.05 1.05 0 0 1 .019.256 1.05 1.05 0 0 1-.045.263 1.12 1.12 0 0 1-.109.244c-.047.075-.1.144-.16.206a1.04 1.04 0 0 1-.212.163 1.17 1.17 0 0 1-.25.113c-.085.026-.173.046-.263.05a.94.94 0 0 1-.263-.013 1.45 1.45 0 0 1-.263-.075l-.122-.056z"/><path d="M70.39 68.071l-.455-1.126c-.303-.75-.695-1.267-1.173-1.551s-1.513.162-3.116 1.351-3.106 3.852-4.52 8.004-1.919 8.395-1.513 12.743.972 7.687 1.699 10.029 1.257 4.55 1.577 6.622c.321 2.067.492 4.449.513 7.147l.038 8.603c.009 3.039-.19 5.734-.596 8.085s-.876 4.1-1.411 5.259-.863 2.032-.975 2.632.16 1.566.814 2.883 1.396 2.637 2.238 3.958 1.639 2.462 2.404 3.42 1.18 1.482 1.231 1.582a.92.92 0 0 1 .096.313.92.92 0 0 1-.006.325c-.021.108-.06.213-.115.313s-.126.179-.212.25a1.12 1.12 0 0 1-.282.181 1.05 1.05 0 0 1-.327.075.9.9 0 0 1-.334-.025c-.111-.025-.214-.069-.308-.131a.94.94 0 0 1-.25-.213.97.97 0 0 1-.167-.287 1.04 1.04 0 0 1-.064-.319.92.92 0 0 1 .045-.325.99.99 0 0 1 .147-.294c.068-.092.147-.169.237-.232s.195-.116.301-.15.222-.048.333-.043.227.025.334.062a1.05 1.05 0 0 1 .288.163.88.88 0 0 1 .224.243c.06.092.105.192.135.301s.034.216.026.325a1 1 0 0 1-.077.319c-.047.1-.109.191-.186.275a.94.94 0 0 1-.257.206 1.14 1.14 0 0 1-.32.113c-.111.021-.222.023-.334.006a.99.99 0 0 1-.321-.094c-.103-.05-.195-.112-.276-.187l-.115-.119-1.064-1.57-2.398-3.645c-.889-1.384-1.686-2.889-2.392-4.515-.705-1.621-.953-2.82-.744-3.595s.562-1.67 1.058-2.695.934-2.657 1.327-4.908c.393-2.256.584-4.901.571-7.935l-.038-8.473c-.021-2.618-.186-4.923-.494-6.916s-.849-4.21-1.609-6.665-1.332-5.967-1.725-10.536.209-9.062 1.795-13.481c1.582-4.41 3.343-7.26 5.283-8.548s3.445-1.678 4.527-1.182 1.815 1.149 2.199 1.97l.616 1.344a1.05 1.05 0 0 1 .038.231.8.8 0 0 1-.019.225c-.017.079-.043.154-.077.225s-.077.138-.128.2-.109.117-.173.163a.81.81 0 0 1-.212.119.87.87 0 0 1-.231.069c-.081.013-.16.017-.237.013a1.14 1.14 0 0 1-.237-.05c-.077-.025-.15-.058-.218-.1a.91.91 0 0 1-.186-.15c-.055-.058-.105-.121-.147-.188l-.058-.1z"/><path d="M67.741 149.845l-1.975-1.363c-1.317-.909-3.144-2.677-5.482-5.303s-4.578-5.802-6.733-9.529-3.772-7.335-4.867-10.824-1.329-6.778-.693-9.867a59.91 59.91 0 0 1 2.674-9.191c1.146-3.035 2.041-6.289 2.687-9.761s1.101-6.23 1.379-8.273.534-3.677.769-4.902.643-2.674 1.212-4.346l1.379-4.215.917-2.97c.261-.846.412-1.309.455-1.388a.85.85 0 0 1 .154-.219c.064-.063.137-.113.218-.15a.8.8 0 0 1 .257-.081.87.87 0 0 1 .276.006.84.84 0 0 1 .25.088.83.83 0 0 1 .212.169c.064.063.113.136.148.219s.062.169.07.256.002.175-.019.263-.062.169-.109.244a.71.71 0 0 1-.18.194.78.78 0 0 1-.237.131c-.086.033-.173.052-.263.056s-.179-.013-.269-.038a.92.92 0 0 1-.244-.112c-.073-.054-.137-.117-.192-.188a.9.9 0 0 1-.122-.238c-.026-.083-.038-.171-.038-.263s.021-.173.051-.256a.75.75 0 0 1 .135-.231c.056-.071.122-.129.199-.175s.16-.086.25-.106a.72.72 0 0 1 .269-.025c.09.008.177.029.263.063s.156.081.224.144a.87.87 0 0 1 .173.2.78.78 0 0 1 .096.25c.017.088.019.175.006.263l-.019.131-.391 1.269-.923 2.995c-.355 1.155-.806 2.532-1.353 4.133s-.94 2.997-1.167 4.189-.485 2.83-.763 4.902-.75 4.883-1.417 8.448-1.554 6.832-2.674 9.792-1.998 5.859-2.635 8.697-.43 5.928.622 9.267 2.631 6.811 4.726 10.43 4.255 6.682 6.495 9.191 4.025 4.213 5.354 5.096l2.077 1.407c.06.05.111.109.154.175s.085.132.115.207a1.44 1.44 0 0 1 .058.225.84.84 0 0 1-.006.231.87.87 0 0 1-.058.225.75.75 0 0 1-.109.207.93.93 0 0 1-.16.175c-.06.05-.126.094-.199.131a.86.86 0 0 1-.224.081c-.077.021-.154.032-.231.032s-.16-.011-.237-.032a1.49 1.49 0 0 1-.225-.081l-.109-.056z"/><path d="M58.45 59.061l-1.917 3.771c-1.278 2.514-2.498 6.372-3.661 11.574s-1.844 10.25-2.058 15.132.004 9.042.654 12.481 1.304 6.448 1.975 9.041 1.158 5.021 1.449 7.285l.757 5.877.314 2.608c-.004.092-.021.179-.051.262a.83.83 0 0 1-.141.238.9.9 0 0 1-.205.175.8.8 0 0 1-.256.106.85.85 0 0 1-.276.019.83.83 0 0 1-.269-.069.82.82 0 0 1-.231-.15.71.71 0 0 1-.167-.206.78.78 0 0 1-.096-.256.81.81 0 0 1-.006-.269c.013-.092.041-.177.083-.257s.098-.156.167-.218a.98.98 0 0 1 .224-.157 1.03 1.03 0 0 1 .263-.075.77.77 0 0 1 .276.013c.094.016.182.048.263.094s.152.102.212.168a1.01 1.01 0 0 1 .147.232.91.91 0 0 1 .064.262c.004.088-.004.178-.026.269s-.062.169-.109.244-.115.142-.192.2a1 1 0 0 1-.237.131c-.09.03-.182.044-.276.044a.76.76 0 0 1-.269-.037 1.05 1.05 0 0 1-.25-.119.93.93 0 0 1-.192-.194 1 1 0 0 1-.122-.244l-.038-.131-.327-2.47-.757-5.771c-.286-2.193-.776-4.604-1.468-7.235s-1.374-5.721-2.045-9.285-.898-7.841-.692-12.831.9-10.163 2.084-15.519 2.394-9.302 3.642-11.837l1.943-3.896c.047-.071.103-.136.167-.194a1.14 1.14 0 0 1 .199-.144 1.04 1.04 0 0 1 .237-.094 1.3 1.3 0 0 1 .25-.038c.085-.005.162.008.244.025a1 1 0 0 1 .237.081.86.86 0 0 1 .212.131c.065.054.126.115.173.181a1.09 1.09 0 0 1 .128.213c.03.079.051.158.064.238a.93.93 0 0 1 .006.244 1.18 1.18 0 0 1-.051.238l-.045.119zm2.721 85.323l.564.87c.372.579.549 1.482.532 2.707s-.353 2.374-1.007 3.458-1.244 1.903-1.77 2.457a2.97 2.97 0 0 1-2.007.907c-.804.054-1.712-.775-2.738-2.489s-2.622-4.641-4.79-8.785-4.063-8.977-5.687-14.5-2.693-10.674-3.206-15.463-.494-8.984.045-12.581 1.34-6.851 2.392-9.748l2.494-7.072 1.302-4.271s.295-2.393.115-4.102-.588-3.558-1.225-5.559l-1.372-4.521c-.278-1.021-.293-2.065-.045-3.133s.391-1.655.442-1.751a.92.92 0 0 1 .186-.256 1.19 1.19 0 0 1 .269-.188 1 1 0 0 1 .308-.087 1.23 1.23 0 0 1 .327.006c.107.016.207.058.301.113a1 1 0 0 1 .256.2.94.94 0 0 1 .173.269.98.98 0 0 1 .077.306c.008.108-.002.215-.032.319a.88.88 0 0 1-.128.288.99.99 0 0 1-.218.238.9.9 0 0 1-.282.15 1.04 1.04 0 0 1-.321.063 1.18 1.18 0 0 1-.321-.044.98.98 0 0 1-.288-.144.97.97 0 0 1-.231-.225.9.9 0 0 1-.141-.288.98.98 0 0 1-.045-.313c.004-.109.026-.213.064-.313s.092-.192.16-.275a.88.88 0 0 1 .244-.206 1 1 0 0 1 .301-.125c.107-.025.214-.033.321-.025s.216.035.314.081.194.098.276.169a.88.88 0 0 1 .199.25c.056.092.094.19.115.294a1.14 1.14 0 0 1 .006.319l-.026.156-.519 1.169c-.346.775-.38 1.638-.103 2.589l1.411 4.583c.663 2.109 1.081 4.106 1.257 5.99s.13 3.368-.135 4.452-.695 2.545-1.302 4.383-1.415 4.146-2.424 6.934-1.772 5.913-2.289 9.36-.517 7.514 0 12.187 1.582 9.698 3.193 15.088 3.518 10.128 5.719 14.225l4.334 8.354c.693 1.476 1.25 2.032 1.673 1.67s.9-.936 1.417-1.732.799-1.605.834-2.426-.107-1.507-.423-2.045l-.532-.932a1.14 1.14 0 0 1-.083-.256 1.28 1.28 0 0 1-.013-.257.87.87 0 0 1 .051-.256 1.03 1.03 0 0 1 .109-.238 1.02 1.02 0 0 1 .167-.212 1.17 1.17 0 0 1 .218-.156 1.27 1.27 0 0 1 .244-.113 1.12 1.12 0 0 1 .269-.044 1.13 1.13 0 0 1 .263.019 1.55 1.55 0 0 1 .256.075c.081.038.158.083.231.138a1.1 1.1 0 0 1 .186.187l.083.106z"/><path d="M53.636 58.083l1.923-.869c1.282-.584 2.958-1.517 5.027-2.801s4.416-2.439 7.04-3.464l6.636-2.651 2.86-1.194c.107-.05.222-.083.346-.1a1.04 1.04 0 0 1 .359.013 1.08 1.08 0 0 1 .333.119c.106.059.201.138.282.225a1.03 1.03 0 0 1 .192.294c.047.108.075.223.083.344a1.04 1.04 0 0 1-.032.344c-.03.113-.077.225-.141.325a.93.93 0 0 1-.244.256 1.1 1.1 0 0 1-.314.175 1.24 1.24 0 0 1-.353.063 1 1 0 0 1-.353-.05 1.04 1.04 0 0 1-.321-.156 1.22 1.22 0 0 1-.257-.25 1.07 1.07 0 0 1-.154-.313.95.95 0 0 1-.051-.344 1.03 1.03 0 0 1 .071-.344c.043-.113.103-.215.18-.306a1.1 1.1 0 0 1 .269-.231 1.08 1.08 0 0 1 .327-.138 1.27 1.27 0 0 1 .359-.031 1.24 1.24 0 0 1 .346.088 1.16 1.16 0 0 1 .308.188.98.98 0 0 1 .218.275 1.14 1.14 0 0 1 .128.331 1.07 1.07 0 0 1 .006.35.99.99 0 0 1-.109.331 1.1 1.1 0 0 1-.212.288l-.128.125-2.969 1.132-6.707 2.639c-2.488 1-4.787 2.186-6.899 3.558l-5.04 3.026-2.02 1.032a1.25 1.25 0 0 1-.301.063 1.05 1.05 0 0 1-.295-.006 1.18 1.18 0 0 1-.295-.075 1.42 1.42 0 0 1-.269-.144 1.44 1.44 0 0 1-.224-.2 1.2 1.2 0 0 1-.167-.25 1.18 1.18 0 0 1-.103-.281c-.026-.096-.036-.192-.032-.288a1.04 1.04 0 0 1 .045-.3 1.27 1.27 0 0 1 .109-.275c.051-.088.111-.167.179-.238s.145-.14.231-.194l.128-.087zm12.368-11.002l2.193-2.351c1.471-1.563 4.095-3.104 7.874-4.621s7.329-2.495 10.637-2.932 5.835-.056 7.579 1.157 3.217 2.956 4.418 5.227a203.89 203.89 0 0 1 3.302 6.472c.996 2.051 2.056 3.706 3.181 4.965s2.079 2.132 2.866 2.633 1.575.625 2.379.375 1.267-.381 1.378-.381a1.03 1.03 0 0 1 .321.044c.107.034.203.081.288.144a1.08 1.08 0 0 1 .231.231.91.91 0 0 1 .141.288c.034.1.049.204.045.313s-.026.213-.064.313c-.043.1-.098.192-.167.275s-.149.154-.243.213-.195.1-.302.125-.216.027-.327.019a.89.89 0 0 1-.314-.081.91.91 0 0 1-.276-.175c-.081-.071-.149-.154-.205-.25a.95.95 0 0 1-.109-.3c-.017-.104-.019-.211-.006-.319s.051-.204.102-.3a1.06 1.06 0 0 1 .193-.256c.081-.075.171-.136.269-.181a.91.91 0 0 1 .314-.094 1.08 1.08 0 0 1 .327.012.96.96 0 0 1 .302.113 1.01 1.01 0 0 1 .256.2 1.03 1.03 0 0 1 .173.275c.043.1.066.198.071.306s0 .215-.026.319a.99.99 0 0 1-.135.288.95.95 0 0 1-.218.238 1.13 1.13 0 0 1-.288.156l-.154.05-1.693.138c-1.124.092-2.195-.173-3.212-.794s-2.135-1.622-3.354-3.001-2.327-3.089-3.327-5.127l-3.085-6.172c-1.056-2.08-2.289-3.668-3.7-4.765s-3.621-1.415-6.643-.957-6.303 1.382-9.842 2.77-6.012 2.87-7.419 4.446l-2.212 2.445a1.5 1.5 0 0 1-.218.144 1.18 1.18 0 0 1-.244.088 1.05 1.05 0 0 1-.25.031 1.03 1.03 0 0 1-.257-.031c-.086-.021-.167-.052-.244-.094s-.15-.086-.218-.144a.87.87 0 0 1-.167-.188c-.047-.071-.092-.146-.122-.225s-.051-.167-.064-.25-.009-.16 0-.244.034-.171.064-.25a1.44 1.44 0 0 1 .122-.225l.077-.106v.006z"/><path d="M98.04 51.565l-1.257-.857c-.834-.567-2.46-.982-4.879-1.244s-5.273-.321-8.547-.175l-7.521.006-2.283-.225c.214-.008.28-.015.199-.019a1.02 1.02 0 0 1-.244-.05 1.19 1.19 0 0 1-.224-.1 1.08 1.08 0 0 1-.192-.15 1.09 1.09 0 0 1-.147-.194.9.9 0 0 1-.096-.219c-.026-.079-.041-.16-.045-.244a.89.89 0 0 1 .019-.238 1.14 1.14 0 0 1 .077-.231c.034-.075.079-.138.135-.2a1.09 1.09 0 0 1 .173-.169 1.13 1.13 0 0 1 .218-.125c.073-.029.152-.052.237-.069l3.155-.438c2.022-.279 4.783-.123 8.284.469s7.188 1.872 11.073 3.827c3.877 1.963 6.978 3.643 9.304 5.04s3.982 2.584 4.969 3.577 1.597 1.968 1.827 2.926a35.88 35.88 0 0 1 .609 3.276l.257 2.007a1 1 0 0 1-.077.313.94.94 0 0 1-.173.269c-.073.083-.156.152-.25.206a.99.99 0 0 1-.308.112.86.86 0 0 1-.327.013 1 1 0 0 1-.314-.088c-.103-.046-.192-.106-.269-.181a.95.95 0 0 1-.199-.256.97.97 0 0 1-.103-.306c-.017-.108-.015-.215.007-.319a.87.87 0 0 1 .109-.306 1 1 0 0 1 .198-.25c.081-.075.174-.133.276-.175s.21-.073.321-.081a.97.97 0 0 1 .327.019c.107.025.207.067.301.125s.177.123.25.206.124.175.167.275a1.04 1.04 0 0 1 .064.319.99.99 0 0 1-.039.313.97.97 0 0 1-.141.294c-.065.092-.141.162-.23.225s-.188.117-.295.15-.21.05-.321.05a1.25 1.25 0 0 1-.327-.056 1.15 1.15 0 0 1-.288-.156.95.95 0 0 1-.218-.238.8.8 0 0 1-.135-.288l-.045-.156-.096-1.782c-.064-1.188-.143-2.145-.237-2.87s-.569-1.511-1.424-2.37-2.432-1.972-4.719-3.339-5.296-3.008-9.015-4.909c-3.728-1.901-7.243-3.143-10.548-3.727s-5.995-.684-8.073-.3l-3.238.569a1.26 1.26 0 0 1-.244-.05 1.19 1.19 0 0 1-.224-.1 1.08 1.08 0 0 1-.192-.15 1.09 1.09 0 0 1-.147-.194.9.9 0 0 1-.096-.219.93.93 0 0 1-.045-.238c-.004-.083.002-.165.019-.244a1.14 1.14 0 0 1 .077-.231c.034-.075.079-.138.135-.2a1.09 1.09 0 0 1 .173-.169 1.13 1.13 0 0 1 .218-.125c.073-.029.152-.052.237-.069s.28.229.596.725 1.077.613 2.283.338 3.499-.496 6.88-.663 6.414-.079 9.099.25 4.471.763 5.36 1.313l1.424.907c.064.054.122.115.173.181a1.59 1.59 0 0 1 .122.219c.03.075.051.154.064.238s.009.165 0 .244a.96.96 0 0 1-.058.238.81.81 0 0 1-.109.219.91.91 0 0 1-.167.188 1.1 1.1 0 0 1-.205.144 1.16 1.16 0 0 1-.237.094 1 1 0 0 1-.25.031c-.081 0-.162-.008-.244-.025a1 1 0 0 1-.237-.081l-.115-.056zm8.325 40.719l-1.699 1.188c-1.137.788-1.903 1.597-2.296 2.426s-.515 1.549-.365 2.157.372 1.096.654 1.463l.564.675a1.07 1.07 0 0 1 .231.288 1.04 1.04 0 0 1 .134.344 1.13 1.13 0 0 1 .007.362 1.09 1.09 0 0 1-.109.35 1.1 1.1 0 0 1-.218.301 1.15 1.15 0 0 1-.302.212c-.115.054-.235.09-.359.106-.128.021-.254.019-.378-.006s-.241-.066-.353-.125a1.12 1.12 0 0 1-.295-.231c-.086-.092-.151-.194-.198-.307s-.084-.231-.096-.356.002-.242.032-.363a1.09 1.09 0 0 1 .147-.337c.068-.105.152-.196.25-.275s.207-.14.327-.182a1.25 1.25 0 0 1 .372-.069c.124-.004.248.013.372.05a1.21 1.21 0 0 1 .333.162c.103.071.193.156.27.256a1.16 1.16 0 0 1 .166.332 1.03 1.03 0 0 1 .052.362 1.17 1.17 0 0 1-.071.357c-.043.117-.105.223-.186.319a1.29 1.29 0 0 1-.276.25 1.04 1.04 0 0 1-.346.144c-.124.029-.248.039-.372.031-.128-.013-.25-.042-.365-.088l-.18-.075-.897-1.338c-.599-.888-.956-1.815-1.071-2.782s.107-2.047.667-3.251 1.387-2.251 2.494-3.151l1.802-1.432a1.13 1.13 0 0 1 .301-.131 1.27 1.27 0 0 1 .333-.056 1.24 1.24 0 0 1 .327.019 1.46 1.46 0 0 1 .315.1 1.55 1.55 0 0 1 .288.169 1.33 1.33 0 0 1 .231.231 1.49 1.49 0 0 1 .173.281 1.15 1.15 0 0 1 .096.313 1.15 1.15 0 0 1 .02.319 1.2 1.2 0 0 1-.058.319c-.034.104-.081.202-.141.294a1.37 1.37 0 0 1-.205.256l-.122.119zm-31.641 3.292l-1.084.163-1.93.344-1.007.175a1.33 1.33 0 0 1-.34-.044c-.111-.029-.218-.069-.321-.119s-.197-.119-.282-.194-.16-.16-.224-.256a1.52 1.52 0 0 1-.16-.294 1.5 1.5 0 0 1-.077-.325c-.013-.112-.011-.225.006-.338s.041-.221.083-.325a1.6 1.6 0 0 1 .16-.288 1.62 1.62 0 0 1 .231-.25 1.27 1.27 0 0 1 .282-.188 1.69 1.69 0 0 1 .327-.119l1.032-.206c.577-.113 1.513-.177 2.808-.194s2.646.156 4.052.507 2.629.809 3.655 1.376 1.896 1.117 2.61 1.638l2.052 1.482 1.116.832a1.19 1.19 0 0 1 .224.281 1.13 1.13 0 0 1 .115.331 1.11 1.11 0 0 1 .006.356.99.99 0 0 1-.115.337 1.01 1.01 0 0 1-.212.282 1.24 1.24 0 0 1-.301.206 1.28 1.28 0 0 1-.346.1c-.124.013-.246.006-.365-.019a1.21 1.21 0 0 1-.34-.125 1.13 1.13 0 0 1-.282-.231 1.1 1.1 0 0 1-.186-.3c-.047-.109-.075-.223-.083-.344a1.12 1.12 0 0 1 .032-.356 1.16 1.16 0 0 1 .154-.319c.068-.1.15-.188.244-.263a1.12 1.12 0 0 1 .321-.169c.116-.042.235-.058.359-.063s.244.019.359.056.222.092.321.163a1.14 1.14 0 0 1 .257.256 1.06 1.06 0 0 1 .154.319 1.1 1.1 0 0 1 .045.35c-.004.121-.03.237-.077.35a.97.97 0 0 1-.186.306c-.077.092-.167.169-.269.232a1.14 1.14 0 0 1-.34.131 1.04 1.04 0 0 1-.359.025 1.12 1.12 0 0 1-.353-.094l-.167-.069-.975-.812-1.943-1.501c-.646-.463-1.402-.921-2.27-1.376s-1.892-.805-3.084-1.063-2.357-.34-3.494-.244l-2.687.356-1.167.213a1.33 1.33 0 0 1-.34-.044c-.111-.029-.218-.069-.321-.119s-.197-.119-.282-.194-.16-.16-.224-.256a1.52 1.52 0 0 1-.16-.294 1.5 1.5 0 0 1-.077-.325c-.013-.112-.011-.225.006-.338s.041-.221.083-.325a1.6 1.6 0 0 1 .16-.288 1.62 1.62 0 0 1 .231-.25 1.27 1.27 0 0 1 .282-.188 1.69 1.69 0 0 1 .327-.119c.111-.025.434-.044.968-.056s1.161-.079 1.891-.188l1.244-.169a1.25 1.25 0 0 1 .301.025 1.23 1.23 0 0 1 .288.1 1.02 1.02 0 0 1 .257.163 1.04 1.04 0 0 1 .212.219c.064.079.115.165.154.256a1.31 1.31 0 0 1 .083.288c.013.1.015.198.007.294a1.17 1.17 0 0 1-.064.294 1.19 1.19 0 0 1-.135.269 1.43 1.43 0 0 1-.192.231c-.077.067-.16.125-.25.175s-.184.09-.282.119l-.147.038zm-2.253 1.968l.494 1.632c.325 1.092.791 1.993 1.398 2.701s1.255 1.155 1.943 1.351 1.481.146 2.366-.138l3.264-1.038 2.116-.625a1.09 1.09 0 0 1 .346.019c.115.021.222.06.321.119a1.11 1.11 0 0 1 .269.219c.077.088.132.183.18.287s.068.215.077.332a1.12 1.12 0 0 1-.038.331 1.04 1.04 0 0 1-.141.313c-.064.096-.147.173-.237.244s-.197.122-.308.156-.224.058-.34.062a1.04 1.04 0 0 1-.34-.056.96.96 0 0 1-.308-.156.93.93 0 0 1-.237-.244 1.03 1.03 0 0 1-.147-.306.99.99 0 0 1-.039-.332c.008-.113.028-.227.071-.331a1.12 1.12 0 0 1 .173-.288 1.25 1.25 0 0 1 .263-.225 1.18 1.18 0 0 1 .321-.125 1.09 1.09 0 0 1 .346-.019 1.17 1.17 0 0 1 .333.088 1.01 1.01 0 0 1 .288.187 1.12 1.12 0 0 1 .212.269c.056.1.092.207.109.319s.023.225.006.338a.93.93 0 0 1-.109.319 1.07 1.07 0 0 1-.212.268 1 1 0 0 1-.282.194l-.16.069-1.968.482-3.764.937c-1.197.309-2.313.294-3.347-.043s-1.971-.974-2.796-1.907a9.42 9.42 0 0 1-1.827-3.039l-.635-1.776c-.017-.096-.023-.19-.019-.281s.021-.188.051-.275a1.03 1.03 0 0 1 .115-.263 1.02 1.02 0 0 1 .173-.225 1.07 1.07 0 0 1 .231-.181 1.15 1.15 0 0 1 .263-.119c.094-.029.19-.048.288-.056a1.32 1.32 0 0 1 .282.012 1.29 1.29 0 0 1 .282.081 1.36 1.36 0 0 1 .25.15 1.17 1.17 0 0 1 .212.194 1.09 1.09 0 0 1 .154.244l.058.131z"/></g><path d="M79.558 101.876l-1.629.038c-1.09.021-2.312-.33-3.668-1.051s-2.129-1.715-2.321-2.995.12-2.678.923-4.196l1.885-3.939c.453-1.109.554-2.047.301-2.814s-.737-1.644-1.468-2.645l-1.154-1.651a1.13 1.13 0 0 1-.083-.313.89.89 0 0 1 .032-.319.95.95 0 0 1 .128-.294 1.02 1.02 0 0 1 .225-.244 1.03 1.03 0 0 1 .282-.156 1.11 1.11 0 0 1 .327-.062c.111 0 .22.015.327.044a1.07 1.07 0 0 1 .295.144 1.03 1.03 0 0 1 .237.231 1.02 1.02 0 0 1 .147.288 1.15 1.15 0 0 1 .045.319 1.04 1.04 0 0 1-.064.319 1 1 0 0 1-.167.281.98.98 0 0 1-.244.213 1 1 0 0 1-.301.125c-.111.029-.222.038-.333.025a1.06 1.06 0 0 1-.321-.075c-.103-.042-.194-.1-.276-.175a.94.94 0 0 1-.205-.25 1.12 1.12 0 0 1-.115-.3 1.04 1.04 0 0 1-.013-.325.86.86 0 0 1 .103-.306.84.84 0 0 1 .192-.263.86.86 0 0 1 .269-.188.92.92 0 0 1 .314-.094c.111-.013.22-.015.327.006s.216.058.314.112a1 1 0 0 1 .256.2l.109.125 1.077 1.807c.714 1.205 1.195 2.339 1.443 3.402s.139 2.222-.34 3.477-1.073 2.501-1.795 3.727-1.067 2.314-1.032 3.252.504 1.59 1.398 1.97 1.859.525 2.898.438l1.693-.119a1.01 1.01 0 0 1 .269.05 1.23 1.23 0 0 1 .25.113.95.95 0 0 1 .218.169c.064.063.12.134.167.213a1.32 1.32 0 0 1 .115.25 1.06 1.06 0 0 1 .045.263 1.1 1.1 0 0 1-.019.262c-.017.087-.045.173-.083.257a1.03 1.03 0 0 1-.147.231 1.07 1.07 0 0 1-.192.188c-.072.055-.152.1-.237.137s-.175.065-.269.081l-.135.019zm24.235-3.7l-2.828-1.15c-1.885-.767-3.559-2.074-5.02-3.921s-1.597-4.125-.404-6.834 1.466-4.66.821-5.84-1.582-1.978-2.821-2.407l-3.36-1.238-1.629-.669a.77.77 0 0 1-.212-.175.84.84 0 0 1-.141-.238.7.7 0 0 1-.064-.263.84.84 0 0 1 .032-.275.95.95 0 0 1 .115-.25c.056-.075.122-.14.199-.194a.76.76 0 0 1 .244-.131c.09-.029.182-.044.276-.044s.192.015.282.044a.97.97 0 0 1 .244.131c.077.054.141.121.192.2a.76.76 0 0 1 .122.25.97.97 0 0 1 .026.269c-.004.092-.023.181-.058.269a.79.79 0 0 1-.148.231.77.77 0 0 1-.212.175c-.081.05-.169.086-.263.106a1.07 1.07 0 0 1-.282.013c-.094-.013-.184-.038-.269-.075a.79.79 0 0 1-.231-.156c-.069-.066-.124-.133-.167-.213a.74.74 0 0 1-.09-.263.75.75 0 0 1 0-.275.79.79 0 0 1 .09-.256.77.77 0 0 1 .167-.219c.073-.062.152-.112.237-.15s.175-.067.269-.075a1.07 1.07 0 0 1 .282.013l.135.031 1.513.581 3.725 1.532c1.483.634 2.599 1.738 3.347 3.314s.513 3.668-.692 6.278-1.214 4.56-.013 5.853 2.729 2.293 4.597 3.001l2.911 1.119a1.07 1.07 0 0 1 .212.15 1.02 1.02 0 0 1 .166.194 1.13 1.13 0 0 1 .116.225.99.99 0 0 1 .058.25c.008.079.006.16-.007.244a.82.82 0 0 1-.064.25 1.04 1.04 0 0 1-.128.219 1.08 1.08 0 0 1-.173.188 1.25 1.25 0 0 1-.218.138.96.96 0 0 1-.25.088.87.87 0 0 1-.251.025.91.91 0 0 1-.256-.038l-.128-.031z" fill="#78b964"/><path d="M77.767 99.879l-.596-.181a6.32 6.32 0 0 0-1.097-.25c-.334-.042-.573-.09-.705-.144a1.89 1.89 0 0 1-.385-.206 1.85 1.85 0 0 1-.314-.288 1.62 1.62 0 0 1-.244-.35 1.81 1.81 0 0 1-.147-.394 1.72 1.72 0 0 1-.038-.419 1.53 1.53 0 0 1 .058-.419c.039-.138.092-.269.16-.394a1.87 1.87 0 0 1 .256-.344c.098-.104.207-.196.327-.275a1.77 1.77 0 0 1 .391-.188 1.66 1.66 0 0 1 .423-.094 1.87 1.87 0 0 1 .436.006c.145.021.498.025 1.071.013l1.904.063c.701.054 1.316.148 1.847.281s1.111.383 1.731.75 1.114.98 1.468 1.851.543 1.415.552 1.632a1.93 1.93 0 0 1-.077.625 1.81 1.81 0 0 1-.282.576 2 2 0 0 1-.449.456 2.08 2.08 0 0 1-.577.288 1.97 1.97 0 0 1-.641.093c-.222 0-.436-.035-.641-.106a1.99 1.99 0 0 1-.571-.306 1.98 1.98 0 0 1-.442-.463 1.87 1.87 0 0 1-.269-.575 1.98 1.98 0 0 1-.064-.632 2 2 0 0 1 .148-.619 1.96 1.96 0 0 1 .34-.538c.145-.163.312-.298.5-.406a2.09 2.09 0 0 1 .609-.231 2.11 2.11 0 0 1 .648-.025c.218.025.427.083.628.175a1.99 1.99 0 0 1 .532.363 1.89 1.89 0 0 1 .385.513 1.86 1.86 0 0 1 .205.6 2.09 2.09 0 0 1-.006.632 1.87 1.87 0 0 1-.218.6c-.103.188-.235.355-.397.501s-.344.262-.545.35a2.01 2.01 0 0 1-.628.162 1.99 1.99 0 0 1-.648-.044 1.96 1.96 0 0 1-.603-.237c-.184-.113-.346-.252-.487-.419a1.83 1.83 0 0 1-.327-.544l-.122-.3.115-.382c.073-.25-.154-.46-.68-.631a9.63 9.63 0 0 0-1.481-.357 26.29 26.29 0 0 0-1.968-.181l-1.481-.163a1.89 1.89 0 0 1-.385-.206 1.85 1.85 0 0 1-.314-.288 1.62 1.62 0 0 1-.244-.35 1.81 1.81 0 0 1-.147-.394 1.72 1.72 0 0 1-.038-.419 1.53 1.53 0 0 1 .058-.419c.039-.138.092-.269.16-.394a1.87 1.87 0 0 1 .256-.344c.098-.104.207-.196.327-.275a1.77 1.77 0 0 1 .391-.188 1.66 1.66 0 0 1 .423-.094 1.87 1.87 0 0 1 .436.006c.145.021.419.092.834.213l1.193.413.757.313c.124.058.237.131.34.219a1.62 1.62 0 0 1 .276.288 1.82 1.82 0 0 1 .192.344 1.53 1.53 0 0 1 .103.381 1.31 1.31 0 0 1 .006.388 1.42 1.42 0 0 1-.09.381 1.47 1.47 0 0 1-.18.356 1.59 1.59 0 0 1-.263.3c-.098.088-.207.163-.327.225a1.44 1.44 0 0 1-.372.15 1.87 1.87 0 0 1-.397.056 1.64 1.64 0 0 1-.398-.044l-.199-.044zm24.776-1.647l.942-.707a14.02 14.02 0 0 0 1.834-1.663l1.084-1.088a1.57 1.57 0 0 1 .416-.213c.154-.046.31-.067.469-.062a1.34 1.34 0 0 1 .461.081 1.38 1.38 0 0 1 .411.219c.124.096.23.209.32.338s.15.269.193.419a1.38 1.38 0 0 1 .038.457c-.013.155-.045.308-.109.45a1.52 1.52 0 0 1-.244.388c-.103.117-.228.215-.365.294a1.47 1.47 0 0 1-.443.162c-.153.029-.309.035-.468.019a1.5 1.5 0 0 1-.448-.131 1.45 1.45 0 0 1-.392-.263 1.42 1.42 0 0 1-.275-.375 1.3 1.3 0 0 1-.141-.431c-.026-.154-.024-.308.006-.463a1.51 1.51 0 0 1 .154-.431 1.49 1.49 0 0 1 .295-.363 1.41 1.41 0 0 1 .391-.25c.145-.062.297-.1.455-.112a1.36 1.36 0 0 1 .468.031 1.32 1.32 0 0 1 .436.175 1.36 1.36 0 0 1 .353.306c.103.117.182.248.237.394a1.46 1.46 0 0 1 .096.45c.005.154-.015.306-.057.457s-.116.283-.206.413l-.141.188-1.058.994-1.968 1.751-1.045.863c-.098.063-.205.111-.321.144a1.37 1.37 0 0 1-.34.069c-.111.008-.226.004-.346-.013a1.33 1.33 0 0 1-.333-.093 1.68 1.68 0 0 1-.302-.169 1.7 1.7 0 0 1-.256-.238 1.4 1.4 0 0 1-.186-.287 1.27 1.27 0 0 1-.109-.325 1.26 1.26 0 0 1-.032-.331 1.23 1.23 0 0 1 .058-.338 1.65 1.65 0 0 1 .134-.319 1.6 1.6 0 0 1 .212-.269l.122-.125z" fill="#68d44a"/><g fill="#000"><path d="M107.094 116.525l-.737.356a11.4 11.4 0 0 1-1.731.644 16.74 16.74 0 0 1-2.02.463c-.688.117-1.4.198-2.135.244l-2.245.075c-.765.004-1.567-.025-2.404-.088L93.405 118l-2.334-.306-2.11-.288-1.744-.2-1.494-.194c-.462-.062-1.114-.2-1.956-.412l-2.296-.607-1.821-.55-.904-.294c-.081-.021-.173-.083-.276-.188-.103-.1-.192-.212-.269-.337a1.93 1.93 0 0 1-.173-.394 1.78 1.78 0 0 1-.077-.425 1.59 1.59 0 0 1 .032-.426c.026-.141.071-.279.135-.412s.137-.25.231-.363a1.97 1.97 0 0 1 .314-.3c.12-.088.246-.161.378-.219a1.91 1.91 0 0 1 .423-.125c.145-.025.293-.031.442-.019s.288.036.43.082.276.1.404.175.308.346.551.8.573.898.975 1.332l1.289 1.257c.457.408.904.758 1.34 1.05l1.327.826 1.385.706 1.539.694c.551.25 1.175.432 1.872.544l2.276.313 2.456.206 2.379.069 2.161-.025c.671-.017 1.248-.065 1.731-.144l1.488-.275 1.417-.35 1.552-.525c.594-.225.961-.332 1.102-.319s.272-.077.404-.269.295-.359.488-.5a2.16 2.16 0 0 1 .622-.326 2.15 2.15 0 0 1 .692-.112 2.31 2.31 0 0 1 .693.106c.226.075.436.182.628.319s.348.309.481.5a2.03 2.03 0 0 1 .301.619c.064.225.09.453.077.682a2.17 2.17 0 0 1-.147.675c-.086.217-.205.413-.359.588s-.334.329-.539.45a2.36 2.36 0 0 1-.654.257 2.19 2.19 0 0 1-.699.037c-.239-.025-.466-.085-.68-.181a2.08 2.08 0 0 1-.583-.382 2.02 2.02 0 0 1-.43-.55c-.111-.204-.188-.421-.23-.65a2 2 0 0 1 0-.682c.038-.229.113-.448.224-.656a2.09 2.09 0 0 1 .423-.544 2.04 2.04 0 0 1 .577-.388c.218-.1.445-.163.68-.188a2.22 2.22 0 0 1 .705.038c.231.046.449.129.654.25a2.04 2.04 0 0 1 .539.444 2.08 2.08 0 0 1 .365.588 1.98 1.98 0 0 1 .154.669 2.18 2.18 0 0 1-.07.681l-.097.338-1.59 1.151c-1.064.771-1.938 1.258-2.622 1.463l-1.738.487-1.449.301-1.821.262a21.22 21.22 0 0 1-2.199.163l-2.302.006-1.885-.012-1.424-.038-2.052-.15-2.404-.313a10.41 10.41 0 0 1-2.045-.569l-1.77-.769-1.674-.888-1.597-1-1.597-1.226c-.59-.483-1.148-1.019-1.674-1.607s-.878-1.125-1.058-1.6-.327-.763-.43-.863a1.97 1.97 0 0 1-.269-.344 1.93 1.93 0 0 1-.173-.394 1.78 1.78 0 0 1-.077-.425 1.59 1.59 0 0 1 .032-.426c.026-.141.071-.279.135-.412s.137-.25.231-.363a1.97 1.97 0 0 1 .314-.3c.12-.088.246-.161.378-.219a1.91 1.91 0 0 1 .423-.125c.145-.025.293-.031.442-.019s.288.036.43.082a1.66 1.66 0 0 1 .398.175c.128.079.199.112.212.1s.265.081.757.281l1.827.713 2.225.763 1.879.5 1.699.313 2.058.3 2.206.237 2.264.119 2.231-.019 2.045-.112 1.834-.188 1.674-.331c.53-.129 1.051-.294 1.564-.494l.923-.35c.107-.034.216-.054.327-.063a1.39 1.39 0 0 1 .321.025 1.14 1.14 0 0 1 .314.094c.103.046.197.102.282.169s.169.142.237.225a1.29 1.29 0 0 1 .167.275c.047.1.081.202.103.306a1.65 1.65 0 0 1 .019.319 1.3 1.3 0 0 1-.064.313 1.4 1.4 0 0 1-.135.294c-.055.092-.124.177-.205.256a1.28 1.28 0 0 1-.256.194l-.148.088z"/><path d="M106.722 114.239l.436-.213c.287-.142.511-.229.674-.262s.327-.046.493-.025a1.51 1.51 0 0 1 .475.125 1.38 1.38 0 0 1 .41.269c.12.112.22.239.302.381a1.46 1.46 0 0 1 .153.456 1.3 1.3 0 0 1 0 .482c-.025.158-.076.308-.153.45a1.37 1.37 0 0 1-.302.381 1.54 1.54 0 0 1-.404.276 1.55 1.55 0 0 1-.474.125c-.167.021-.331.012-.494-.025a1.59 1.59 0 0 1-.462-.175 1.55 1.55 0 0 1-.365-.313c-.107-.125-.192-.263-.257-.413a1.56 1.56 0 0 1-.109-.462 1.39 1.39 0 0 1 .058-.476 1.38 1.38 0 0 1 .205-.437c.094-.134.208-.25.34-.351a1.36 1.36 0 0 1 .43-.225c.158-.054.32-.081.487-.081a1.46 1.46 0 0 1 .481.081c.158.054.303.125.436.225a1.46 1.46 0 0 1 .34.344 1.61 1.61 0 0 1 .211.438 1.54 1.54 0 0 1 .052.482 1.41 1.41 0 0 1-.103.462 1.59 1.59 0 0 1-.256.413 1.68 1.68 0 0 1-.372.313l-.218.125-.468.137-.635.188a1.42 1.42 0 0 1-.346.044c-.116.004-.231-.007-.347-.032s-.224-.064-.327-.119c-.106-.05-.205-.112-.295-.187a1.51 1.51 0 0 1-.237-.25c-.068-.096-.124-.196-.166-.3s-.073-.219-.09-.332a1.31 1.31 0 0 1-.007-.337 1.54 1.54 0 0 1 .077-.332c.039-.108.09-.21.154-.306s.145-.184.231-.263.18-.142.282-.2l.16-.081zm-42.206-.519l.942 1.276 2.757 3.639c1.206 1.58 2.806 3.156 4.803 4.727l4.854 3.652 3.244 2.244 1.494 1.063c.068.067.126.144.173.232a.82.82 0 0 1 .083.262.78.78 0 0 1 0 .282.84.84 0 0 1-.096.262c-.047.084-.107.159-.18.226s-.154.112-.244.15-.177.06-.276.068a.84.84 0 0 1-.288-.018.85.85 0 0 1-.263-.107.99.99 0 0 1-.218-.181.92.92 0 0 1-.141-.244.85.85 0 0 1-.058-.275c-.004-.096.006-.19.032-.281a.98.98 0 0 1 .128-.25.82.82 0 0 1 .199-.201c.077-.058.162-.1.256-.125s.188-.043.282-.043a.84.84 0 0 1 .288.05.97.97 0 0 1 .25.137.81.81 0 0 1 .192.207.71.71 0 0 1 .115.256c.021.092.034.183.026.275a.76.76 0 0 1-.064.275.87.87 0 0 1-.372.413.82.82 0 0 1-.269.1.82.82 0 0 1-.289.012c-.094-.012-.186-.039-.276-.081l-.128-.062-1.404-.945-3.328-2.244-5.104-3.79c-2.124-1.663-3.806-3.274-5.046-4.833l-2.866-3.57-1.071-1.351c-.047-.075-.083-.154-.109-.238a1.06 1.06 0 0 1-.026-.519 1.16 1.16 0 0 1 .083-.25.97.97 0 0 1 .148-.219 1.03 1.03 0 0 1 .192-.187c.073-.05.15-.094.231-.131a1.35 1.35 0 0 1 .263-.075 1.38 1.38 0 0 1 .263-.013 1.13 1.13 0 0 1 .263.056.92.92 0 0 1 .244.113 1.16 1.16 0 0 1 .212.162l.096.094z"/><path d="M83.554 128.227l1.565.957c1.047.634 2.394 1.236 4.04 1.807a34.98 34.98 0 0 0 5.001 1.319l4.341.626 3.424.206 1.783.075c.115.029.224.073.327.131.098.063.186.14.263.232.077.087.136.187.179.3s.066.221.071.338a1.05 1.05 0 0 1-.045.343c-.034.109-.086.211-.154.307a1.1 1.1 0 0 1-.25.25 1.14 1.14 0 0 1-.314.156c-.112.034-.227.05-.347.05a1.29 1.29 0 0 1-.352-.062 1.02 1.02 0 0 1-.545-.419c-.069-.1-.118-.206-.148-.319a1.05 1.05 0 0 1 .052-.682c.047-.104.109-.2.185-.287a1.16 1.16 0 0 1 .276-.219 1.17 1.17 0 0 1 .327-.125 1.06 1.06 0 0 1 .359-.013 1.13 1.13 0 0 1 .34.094c.107.054.203.121.289.2.085.084.154.177.205.282s.092.212.109.325.015.233-.007.35c-.021.112-.059.221-.115.325a1.23 1.23 0 0 1-.218.269 1.11 1.11 0 0 1-.295.188 1 1 0 0 1-.346.087l-.18.019-1.609-.181-3.52-.319c-1.274-.088-2.808-.28-4.604-.576a37.61 37.61 0 0 1-5.399-1.313c-1.804-.579-3.249-1.157-4.335-1.732l-1.744-.95a1.47 1.47 0 0 1-.218-.207c-.064-.079-.118-.162-.16-.25a1.35 1.35 0 0 1-.096-.281c-.017-.1-.023-.196-.019-.288a1.15 1.15 0 0 1 .051-.294 1.01 1.01 0 0 1 .115-.268c.051-.088.113-.167.186-.238a1.19 1.19 0 0 1 .237-.188c.086-.05.175-.091.269-.125s.199-.048.301-.056c.094-.008.192-.004.295.013s.194.045.288.087l.141.056z"/><path d="M116.107 123.466l-.859 1.832c-.569 1.226-1.212 2.447-1.93 3.664s-1.43 2.199-2.135 2.958a13.8 13.8 0 0 1-2.174 1.92c-.744.525-1.643 1.094-2.699 1.707l-1.757.963a1.06 1.06 0 0 1-.359.05 1.21 1.21 0 0 1-.359-.069 1.01 1.01 0 0 1-.314-.182 1.17 1.17 0 0 1-.244-.262 1.2 1.2 0 0 1-.141-.332c-.03-.116-.039-.233-.026-.35a1.18 1.18 0 0 1 .09-.344 1.11 1.11 0 0 1 .199-.3c.081-.087.177-.16.288-.219s.22-.098.34-.118a1 1 0 0 1 .366-.007 1.14 1.14 0 0 1 .641.313c.085.088.156.183.211.288a1.16 1.16 0 0 1 .103.344c.017.116.013.235-.013.356a1.16 1.16 0 0 1-.128.331c-.06.105-.137.196-.231.275s-.192.142-.308.188-.233.073-.352.081c-.124.009-.246-.002-.366-.031a1.05 1.05 0 0 1-.333-.144c-.103-.062-.193-.141-.27-.237a.96.96 0 0 1-.173-.307 1.14 1.14 0 0 1-.07-.35 1.26 1.26 0 0 1 .051-.356c.038-.113.094-.217.167-.313a1.12 1.12 0 0 1 .263-.25l.147-.106 1.488-.732c.987-.492 1.795-.95 2.423-1.376s1.231-.967 1.809-1.625c.572-.659 1.171-1.572 1.795-2.739a33.6 33.6 0 0 0 1.673-3.639l.815-2.014c.055-.091.119-.175.192-.25s.154-.141.244-.2.186-.1.288-.137.208-.055.314-.063a1.27 1.27 0 0 1 .308.013 1.44 1.44 0 0 1 .584.237 1.41 1.41 0 0 1 .23.213 1.22 1.22 0 0 1 .174.262 1.25 1.25 0 0 1 .102.294c.022.105.03.207.026.307a1.06 1.06 0 0 1-.045.306l-.045.15z"/><path d="M90.089 130.848l.552 1.669c.368 1.113.876 1.93 1.526 2.451s1.485.813 2.507.876a7.21 7.21 0 0 0 3.039-.494c1.004-.388 2.043-.919 3.116-1.595l1.77-1.075c.111-.042.224-.065.34-.069a1.17 1.17 0 0 1 .346.038c.111.033.216.081.314.143s.177.146.25.238a1.14 1.14 0 0 1 .16.3 1.07 1.07 0 0 1 .052.332c0 .112-.02.223-.058.331a1.03 1.03 0 0 1-.167.3 1.05 1.05 0 0 1-.25.231c-.098.063-.205.109-.32.138a1.15 1.15 0 0 1-.34.037 1.13 1.13 0 0 1-.34-.075c-.107-.045-.205-.106-.295-.181a1.07 1.07 0 0 1-.225-.256 1.13 1.13 0 0 1-.128-.319 1.15 1.15 0 0 1-.013-.338c.013-.112.045-.221.097-.325s.117-.192.198-.275a1 1 0 0 1 .276-.2 1.09 1.09 0 0 1 .327-.106.96.96 0 0 1 .346 0 1.09 1.09 0 0 1 .327.112c.103.054.195.123.276.206a.98.98 0 0 1 .192.282c.047.104.077.212.09.325a.99.99 0 0 1-.019.338.94.94 0 0 1-.135.312 1.07 1.07 0 0 1-.224.257l-.135.112-1.821.963c-1.218.646-2.456 1.192-3.712 1.638s-2.571.601-3.943.451-2.531-.611-3.475-1.395a7.14 7.14 0 0 1-2.103-2.876l-.725-1.838a1.32 1.32 0 0 1-.032-.282 1.08 1.08 0 0 1 .038-.281c.025-.091.062-.182.109-.269s.105-.161.173-.231a.94.94 0 0 1 .224-.182 1.22 1.22 0 0 1 .257-.131 1.2 1.2 0 0 1 .288-.063 1.33 1.33 0 0 1 .288.007c.098.013.192.037.282.075s.175.077.257.131a1.35 1.35 0 0 1 .218.194c.064.075.118.154.16.237l.064.132zm-13.476-1.009l.385.907.763 1.594.859 1.407 1.058 1.451 1.173 1.413 1.186 1.257 1.59 1.432 1.859 1.594 1.853 1.557c.663.559 1.199.961 1.609 1.207l1.488.932 1.564.937c.466.255 1.02.511 1.661.77l2.552.894 1.866.6a1.92 1.92 0 0 1 .513.281c.154.125.282.269.385.432a1.8 1.8 0 0 1 .231.525 1.75 1.75 0 0 1 .045.575 1.81 1.81 0 0 1-.141.557 1.89 1.89 0 0 1-.321.481c-.133.146-.286.261-.462.357s-.359.156-.551.194a1.77 1.77 0 0 1-.59.012 1.93 1.93 0 0 1-.558-.169 1.84 1.84 0 0 1-.481-.337 1.88 1.88 0 0 1-.34-.469 1.79 1.79 0 0 1-.167-.551c-.026-.191-.019-.383.019-.575s.107-.365.205-.531a1.75 1.75 0 0 1 .372-.451 1.9 1.9 0 0 1 .494-.306 1.79 1.79 0 0 1 .571-.131c.201-.017.398 0 .59.05s.372.121.539.225a1.81 1.81 0 0 1 .436.387 1.61 1.61 0 0 1 .282.501c.064.184.105.371.109.562a1.7 1.7 0 0 1-.083.569 1.82 1.82 0 0 1-.263.513 1.6 1.6 0 0 1-.417.4 1.92 1.92 0 0 1-.526.257 2 2 0 0 1-.584.075l-.301-.013-1.366-.444-2.103-.731a17.39 17.39 0 0 1-1.654-.763l-1.674-.888-1.661-.913-1.706-.975a14.59 14.59 0 0 1-1.52-1.038c-.479-.375-.972-.838-1.481-1.388l-1.571-1.664-1.372-1.344-1.218-1.157-1.295-1.394-1.314-1.557-1.237-1.67a16.11 16.11 0 0 1-.962-1.638l-.821-1.701-.468-1.081c-.034-.121-.056-.242-.064-.363a1.49 1.49 0 0 1 .154-.713 1.36 1.36 0 0 1 .199-.313 1.76 1.76 0 0 1 .269-.256 1.9 1.9 0 0 1 .327-.181 1.67 1.67 0 0 1 .365-.107 1.93 1.93 0 0 1 .372-.012c.124.008.246.033.365.075a1.44 1.44 0 0 1 .346.156 1.54 1.54 0 0 1 .289.232c.09.087.167.185.231.294l.096.162zm43.433-3.562l-.141 1.6c-.098 1.072-.295 2.249-.59 3.533s-.665 2.451-1.109 3.489-.956 1.959-1.533 2.751l-1.654 2.139-1.475 1.701-1.404 1.469-1.526 1.463-1.584 1.426-1.474 1.269-1.315 1.101-1.244.963-1.333 1.031c-.488.396-.875.665-1.161.807s-.496.229-.628.263a2 2 0 0 1-.411.056 1.99 1.99 0 0 1-.416-.044 1.64 1.64 0 0 1-.385-.137c-.128-.059-.244-.132-.346-.219s-.201-.188-.283-.3a1.58 1.58 0 0 1-.198-.357c-.051-.129-.088-.254-.109-.387a1.85 1.85 0 0 1-.006-.407c.013-.133.043-.265.09-.394a1.66 1.66 0 0 1 .186-.356c.077-.113.167-.215.269-.307s.216-.171.34-.237.498-.307 1.135-.719 1.109-.794 1.43-1.132l1.167-1.257 1.468-1.613 1.417-1.607 1.251-1.376 1.378-1.557a19.09 19.09 0 0 0 1.456-2.013l1.038-1.67.738-1.188.763-1.244.968-1.526a7.69 7.69 0 0 0 .942-1.969l.802-2.501c.308-.955.524-1.518.648-1.689s.265-.312.436-.437a1.91 1.91 0 0 1 .557-.282c.206-.066.413-.098.622-.094a1.96 1.96 0 0 1 .616.1 2.16 2.16 0 0 1 .558.294c.166.13.31.28.429.451a1.97 1.97 0 0 1 .257.562 1.84 1.84 0 0 1 .064.607c-.013.208-.06.408-.141.6s-.192.367-.334.525c-.136.155-.297.284-.48.388a1.99 1.99 0 0 1-.59.225c-.209.042-.417.05-.622.025a2.01 2.01 0 0 1-.609-.169c-.193-.087-.366-.204-.52-.35s-.278-.31-.372-.494-.164-.377-.198-.581a1.97 1.97 0 0 1 .006-.613 2.02 2.02 0 0 1 .205-.582 1.95 1.95 0 0 1 .391-.481 1.93 1.93 0 0 1 .526-.344c.192-.083.395-.135.609-.156.205-.021.413-.009.622.037a2.13 2.13 0 0 1 .584.238c.179.108.337.242.474.4s.244.336.321.531a1.81 1.81 0 0 1 .128.601 1.95 1.95 0 0 1-.071.606l-.089.3-.263.738-.577 1.695c-.205.638-.494 1.323-.866 2.057s-.724 1.323-1.071 1.757a11.51 11.51 0 0 0-.923 1.319l-.795 1.276-1.212 1.744-1.661 2.258-1.365 1.632-1.052 1.025a14.09 14.09 0 0 0-1.148 1.238l-1.301 1.689-1.385 1.85-1.347 1.582c-.44.467-.844.838-1.212 1.113s-.848.546-1.442.813l-1.09.457a2 2 0 0 1-.411.056 1.99 1.99 0 0 1-.416-.044 1.64 1.64 0 0 1-.385-.137c-.128-.059-.244-.132-.346-.219s-.201-.188-.283-.3a1.62 1.62 0 0 1-.198-.351 1.86 1.86 0 0 1-.109-.393 1.85 1.85 0 0 1-.006-.407c.013-.133.043-.265.09-.394a1.66 1.66 0 0 1 .186-.356c.077-.113.167-.215.269-.307s.216-.171.34-.237l.898-.438 1.558-.75c.564-.271 1.066-.557 1.507-.857l1.359-.957 1.481-1.119 1.59-1.332 1.558-1.35 1.45-1.27c.465-.421.955-.917 1.468-1.488s1.011-1.202 1.494-1.882.908-1.494 1.276-2.432.673-1.995.904-3.183a20.15 20.15 0 0 0 .378-3.383l.058-1.744a1.13 1.13 0 0 1 .09-.282 1.06 1.06 0 0 1 .154-.25 1.29 1.29 0 0 1 .205-.206c.081-.063.166-.113.256-.15s.184-.071.282-.088a1.18 1.18 0 0 1 .295-.025 1.45 1.45 0 0 1 .295.057c.094.025.184.062.27.112s.168.111.237.181a1.3 1.3 0 0 1 .186.226 1.2 1.2 0 0 1 .128.268 1.06 1.06 0 0 1 .051.288l.013.138z"/></g><g fill="#2b8a3e"><path d="M100.388 147.307l-.936-.094c-.62-.067-.699.004-.237.212s.607.086.449-.356-.526-.532-1.103-.269-.97.336-1.18.231-.301-.273-.263-.506.122-.454.237-.663.261-.387.436-.55a2.08 2.08 0 0 1 .596-.388 2.13 2.13 0 0 1 .693-.181c.239-.025.479-.013.718.037s.456.142.661.263a2.21 2.21 0 0 1 .538.457 1.99 1.99 0 0 1 .366.594 2.11 2.11 0 0 1 .154.687 1.98 1.98 0 0 1-.084.694 2 2 0 0 1-.301.632c-.141.196-.308.365-.5.506a2.13 2.13 0 0 1-.628.326c-.231.075-.469.11-.712.106a2.27 2.27 0 0 1-.705-.113c-.231-.079-.442-.189-.635-.331s-.35-.317-.487-.513a1.97 1.97 0 0 1-.295-.638c-.064-.229-.09-.46-.077-.694a2.18 2.18 0 0 1 .16-.681c.09-.221.214-.419.372-.594s.342-.33.551-.45a2.27 2.27 0 0 1 .667-.257c.239-.05.479-.06.718-.031a2.16 2.16 0 0 1 .693.194 2.26 2.26 0 0 1 .583.394c.175.162.319.346.43.55a2.21 2.21 0 0 1 .224.669l.058.35-.314 1.738c-.21 1.159-.528 1.908-.956 2.245s-.979.561-1.641.669-1.321.079-1.975-.1a3.4 3.4 0 0 1-1.641-.975c-.432-.475-.722-.984-.872-1.526a4 4 0 0 1-.135-1.557c.064-.504.182-1.023.353-1.557a5.19 5.19 0 0 1 .75-1.463 2.83 2.83 0 0 1 1.218-.963c.492-.2 1.049-.292 1.674-.275s1.195.056 1.725.131 1.137.265 1.834.582 1.208.913 1.52 1.776c.316.854.455 1.611.416 2.269a9.94 9.94 0 0 1-.269 1.801 2.8 2.8 0 0 1-.84 1.388c-.414.384-.936.615-1.564.694s-1.259-.056-1.905-.406-1.137-.688-1.462-1.013-.618-.767-.878-1.326a15.31 15.31 0 0 1-.699-1.763c-.205-.613-.237-1.142-.096-1.588s.688-.855 1.629-1.226 1.727-.529 2.347-.475l1.129.113a1.71 1.71 0 0 1 .378.131c.124.058.237.129.34.213a1.97 1.97 0 0 1 .276.287c.077.109.141.223.192.344s.088.246.109.375.019.263.006.388a1.55 1.55 0 0 1-.083.381 1.53 1.53 0 0 1-.179.357c-.073.108-.159.208-.257.3-.098.087-.207.165-.327.231-.115.063-.239.111-.372.144-.128.038-.261.058-.397.063h-.193z"/><path d="M101.823 150.291l.109 1.219.211 2.033.218 1.75c.077.63.201 1.155.372 1.576s.27.7.282.838a1.55 1.55 0 0 1-.006.419 1.59 1.59 0 0 1-.103.4c-.055.129-.124.25-.205.363a1.86 1.86 0 0 1-.288.312 2.05 2.05 0 0 1-.353.232 1.72 1.72 0 0 1-.404.137 1.57 1.57 0 0 1-.423.044c-.141 0-.28-.019-.417-.056a1.66 1.66 0 0 1-.397-.15 1.74 1.74 0 0 1-.34-.238 1.82 1.82 0 0 1-.282-.319c-.081-.117-.145-.24-.192-.369s-.13-.417-.25-.85c-.115-.438-.192-.944-.231-1.52l-.167-1.544c-.073-.45.083-1.036.468-1.757s.793-1.14 1.237-1.269l1.321-.394c.44-.13 1.058-.257 1.853-.382l2.154-.306 1.302-.213c.227-.054.415-.083.564-.087a1.99 1.99 0 0 1 .443.037c.145.029.286.075.423.138s.263.137.378.225a1.79 1.79 0 0 1 .308.313 1.64 1.64 0 0 1 .218.375c.06.133.103.273.128.419a2.09 2.09 0 0 1 .02.431 1.91 1.91 0 0 1-.09.432 2.12 2.12 0 0 1-.193.387 1.8 1.8 0 0 1-.282.338c-.111.1-.231.187-.359.262a1.92 1.92 0 0 1-.41.169c-.141.042-.496.055-1.065.038s-1.19.062-1.865.25c-.68.188-1.321.469-1.924.844s-1.205.684-1.795.926-1.191.375-1.802.4l-1.834.018c-.607-.012-1.223-.008-1.847.013l-2.449.044c-1.009.008-1.62-.004-1.834-.038a2.2 2.2 0 0 1-.603-.2c-.192-.1-.361-.225-.507-.375a1.89 1.89 0 0 1-.359-.519 1.71 1.71 0 0 1-.173-.594 1.8 1.8 0 0 1 .032-.625c.047-.205.126-.396.237-.576s.248-.341.41-.475.348-.246.545-.325.41-.123.628-.131.425.008.635.062.397.146.577.263a1.85 1.85 0 0 1 .462.425c.133.167.233.35.301.55s.103.405.103.613a1.9 1.9 0 0 1-.398 1.169c-.132.167-.286.309-.462.426s-.374.208-.584.262a1.9 1.9 0 0 1-.635.069 2.14 2.14 0 0 1-.622-.131 2.05 2.05 0 0 1-.545-.319c-.167-.138-.306-.296-.417-.475s-.19-.374-.237-.582a1.77 1.77 0 0 1-.032-.619 1.85 1.85 0 0 1 .167-.6 1.8 1.8 0 0 1 .359-.513 2.03 2.03 0 0 1 .507-.381 2.23 2.23 0 0 1 .609-.201l.314-.05 1.507.013 2.43.025 1.789-.025 1.648-.088c.517-.029.981-.173 1.392-.431s.899-.504 1.468-.738a14.54 14.54 0 0 1 1.571-.544c.483-.129 1.184-.223 2.103-.281l1.609-.1a1.99 1.99 0 0 1 .443.037c.145.029.286.075.423.138s.263.137.378.225a1.79 1.79 0 0 1 .308.313 1.64 1.64 0 0 1 .218.375c.06.133.103.273.128.419a2.09 2.09 0 0 1 .02.431 1.91 1.91 0 0 1-.09.432 2.12 2.12 0 0 1-.193.387 1.8 1.8 0 0 1-.282.338c-.111.1-.231.187-.359.262a1.92 1.92 0 0 1-.41.169 3.25 3.25 0 0 1-.558.1l-1.193.2c-.564.105-1.344.198-2.34.282s-1.477.371-1.455.875l.064 1.557.057 1.007a1.55 1.55 0 0 1-.006.419 1.59 1.59 0 0 1-.103.4c-.055.129-.124.25-.205.363a1.68 1.68 0 0 1-.288.306 1.63 1.63 0 0 1-.353.231c-.128.067-.263.115-.404.144a1.57 1.57 0 0 1-.423.044c-.141 0-.28-.019-.417-.056a1.66 1.66 0 0 1-.397-.15 1.74 1.74 0 0 1-.34-.238 1.82 1.82 0 0 1-.282-.319c-.081-.117-.145-.24-.192-.369l-.096-.306-.173-.957c-.098-.558-.141-1.13-.128-1.713l-.026-1.62c-.03-.5-.128-1.15-.295-1.95l-.25-1.395a1.77 1.77 0 0 1 .038-.369 1.68 1.68 0 0 1 .128-.356c.06-.113.13-.217.212-.313s.182-.181.288-.256.214-.131.334-.182c.12-.045.244-.077.372-.093a1.46 1.46 0 0 1 .378-.013c.129.013.255.042.379.088s.239.096.346.162.205.152.295.244c.085.092.16.194.224.307a1.73 1.73 0 0 1 .141.35l.052.181z"/><path d="M102.151 158.915l-.121.788-.263 1.513c-.09.488-.263.924-.52 1.307-.252.384-.418.719-.5 1.007s-.166.494-.243.619c-.086.125-.184.24-.295.344-.116.104-.24.194-.372.269a2.25 2.25 0 0 1-.43.169c-.15.041-.301.064-.455.068a1.83 1.83 0 0 1-.455-.043c-.154-.034-.299-.084-.436-.15s-.269-.144-.385-.244-.227-.205-.321-.325a1.91 1.91 0 0 1-.224-.394c-.06-.138-.1-.282-.122-.432a1.99 1.99 0 0 1-.013-.45 1.71 1.71 0 0 1 .096-.438l.308-.975c.15-.509.453-1.122.91-1.839s.947-1.367 1.456-1.95 1.001-.945 1.462-1.07c.466-.129 1.02-.104 1.661.075s1.225.521 1.75 1.026l1.648 1.632 1.077 1.157c.141.183.248.383.321.6s.107.44.103.669a1.85 1.85 0 0 1-.122.663c-.077.217-.186.415-.327.594a2.09 2.09 0 0 1-.513.462 2.11 2.11 0 0 1-.629.276c-.226.058-.457.081-.692.068a2.13 2.13 0 0 1-.673-.156c-.218-.083-.415-.2-.59-.35-.18-.15-.327-.325-.443-.525s-.203-.405-.25-.626a2.13 2.13 0 0 1-.032-.675c.03-.229.094-.446.193-.65a2.08 2.08 0 0 1 .397-.557 2.07 2.07 0 0 1 .558-.406 2.12 2.12 0 0 1 .66-.207 2.27 2.27 0 0 1 .693.007c.231.041.449.116.654.225a2.08 2.08 0 0 1 .545.413 2.15 2.15 0 0 1 .385.562c.094.209.154.428.179.657s.004.45-.051.675-.139.43-.263.625a1.99 1.99 0 0 1-.455.507 2.19 2.19 0 0 1-.597.344c-.218.083-.444.129-.679.137a2 2 0 0 1-.686-.081c-.227-.062-.436-.158-.629-.288l-.288-.193-.847-1.32c-.568-.875-1.043-1.084-1.423-.625s-.682 1.005-.904 1.626l-.455 1.119c-.086.125-.184.24-.295.344-.116.104-.24.194-.372.269a2.25 2.25 0 0 1-.43.169c-.15.041-.301.064-.455.068a1.83 1.83 0 0 1-.455-.043c-.154-.034-.299-.084-.436-.15s-.269-.144-.385-.244-.227-.205-.321-.325a1.91 1.91 0 0 1-.224-.394c-.06-.138-.1-.282-.122-.432a1.99 1.99 0 0 1-.013-.45 1.71 1.71 0 0 1 .096-.438c.051-.141.156-.329.314-.563l.737-1.175c.333-.554.549-1.092.648-1.613l.199-.957a1.4 1.4 0 0 1 .154-.35 1.38 1.38 0 0 1 .237-.307 1.53 1.53 0 0 1 .301-.237 1.79 1.79 0 0 1 .353-.163c.124-.041.252-.066.384-.075s.257-.002.385.019.254.056.378.106.231.115.334.194.201.163.282.263a1.46 1.46 0 0 1 .211.325c.056.117.097.238.122.363s.034.25.026.375l-.007.187z"/></g><g fill="#000"><path d="M58.238 86.095l.763-2.163c.509-1.447 1.421-2.847 2.738-4.202s2.571-2.434 3.751-3.239l3.02-1.838c.829-.421 1.842-.765 3.039-1.032s2.646-.415 4.347-.444l4.456.019c1.27.042 2.695.273 4.277.694l4.097 1.144c1.146.342 2.261.742 3.347 1.201s2.107.973 3.065 1.544l3.289 2.101c1.235.821 2.255 1.592 3.059 2.314l2.475 2.357 2.353 2.582c.718.875 1.316 1.863 1.795 2.964s.774 2.495.885 4.183l.199 4.633.032 4.489.192 3.952c.128 1.047.417 2.16.866 3.339s1.03 2.272 1.744 3.289 1.348 2.157 1.904 3.433.862 2.439.917 3.489c.06 1.055-.008 2.33-.205 3.827s-.47 2.668-.834 3.501l-1.365 2.977-1.058 2.176-.507.9c-.179.3-.391.573-.635.819s-.521.461-.82.644a4.41 4.41 0 0 1-1.982.638 4.63 4.63 0 0 1-1.051-.044 4.45 4.45 0 0 1-1.007-.294 4.22 4.22 0 0 1-.91-.512c-.283-.209-.535-.446-.757-.713s-.408-.557-.558-.869a4.23 4.23 0 0 1-.327-.976 4.14 4.14 0 0 1-.077-1.025c.013-.342.071-.678.173-1.007s.099-1.027 0-2.082-.136-2.074-.115-3.058-.079-2.315-.301-3.995l-.744-5.078c-.274-1.709-.415-3.138-.423-4.289v-3.402l.025-3.176c.005-1.005-.1-2.161-.314-3.47l-.404-3.308-.154-3.47-.128-3.658c-.034-1.013.002-1.97.109-2.87l.513-3.527.641-4.433c.197-1.497.22-2.901.071-4.214s-.417-2.468-.789-3.464l-1.205-2.858c-.432-.917-.972-1.693-1.622-2.326s-1.438-1.169-2.379-1.619l-2.661-1.188c-.838-.346-2.184-.792-4.039-1.338s-3.903-.915-6.143-1.094-4.148-.233-5.726-.15-2.932.248-4.078.494-2.176.909-3.103 1.988-1.532 2.418-1.802 4.014l-.641 4.058-.308 3.045-.045 3.333.026 2.088c.004.092-.015.275-.058.55a3.1 3.1 0 0 1-.224.8c-.107.258-.246.5-.417.725a3.3 3.3 0 0 1-.583.606c-.218.179-.455.329-.712.45a3.41 3.41 0 0 1-.808.275 3.6 3.6 0 0 1-.846.075 3.43 3.43 0 0 1-.846-.119c-.274-.075-.537-.181-.789-.319a3.76 3.76 0 0 1-.686-.488c-.205-.192-.385-.404-.539-.638s-.284-.484-.378-.75a3.29 3.29 0 0 1-.18-.807c-.026-.279.111-1.109.41-2.489s.759-2.849 1.379-4.421l1.77-4.114c.56-1.175 1.165-2.249 1.815-3.22s1.515-1.87 2.597-2.708 2.154-1.542 3.232-2.113 2.071-1.021 2.994-1.338 2.4-.373 4.443-.156l5.123.675c1.368.229 2.672.552 3.911.969s2.439.888 3.584 1.426l4.322 2.27 3.789 2.307c.795.559 2.011 1.655 3.648 3.289s2.684 2.897 3.142 3.789.844 1.924 1.148 3.083l.487 2.17c.021.288.008.575-.039.863s-.136.559-.256.825a3.57 3.57 0 0 1-.449.744c-.18.229-.385.436-.616.619s-.48.331-.75.457-.549.208-.84.263-.59.081-.885.069-.589-.067-.872-.15-.557-.194-.814-.344-.489-.319-.699-.519-.399-.429-.558-.675a3.35 3.35 0 0 1-.371-.782c-.095-.275.143.031.711.919s.366 1.1-.609.65-2.071-1.246-3.302-2.388-2.618-2.272-4.161-3.377l-3.969-2.739c-1.107-.717-2.133-1.217-3.078-1.501s-1.992-.494-3.129-.632l-3.924-.369c-1.479-.117-2.757-.092-3.834.075a10.43 10.43 0 0 0-3.071.957c-.962.475-1.81 1.011-2.545 1.607s-1.34 1.232-1.802 1.92-.797 1.117-.994 1.288a3.33 3.33 0 0 1-.641.438 3.21 3.21 0 0 1-.731.275c-.252.063-.511.094-.776.094s-.519-.029-.776-.088-.5-.152-.731-.269-.451-.261-.648-.431a3.03 3.03 0 0 1-.519-.569c-.15-.208-.271-.431-.365-.669s-.158-.49-.192-.744-.03-.509 0-.763a3.11 3.11 0 0 1 .179-.738 3.05 3.05 0 0 1 .366-.675c.145-.213.951-.742 2.417-1.588s3.099-1.426 4.912-1.738l5.322-.657 6.175-.375 5.899-.394 3.828-.381c.996-.125 2.349.042 4.059.5s3.595 1.365 5.655 2.733l4.841 3.22 1.975 1.363c.154.125.288.267.404.425a2.26 2.26 0 0 1 .295.507c.077.179.13.367.16.563s.036.386.019.582-.064.381-.128.569a2.33 2.33 0 0 1-.263.525c-.107.163-.233.311-.378.444a2.61 2.61 0 0 1-.488.344c-.171.096-.354.171-.551.225s-.389.079-.59.088a2.6 2.6 0 0 1-.596-.056 2.8 2.8 0 0 1-.565-.188c-.179-.088-.53-.542-1.051-1.363s-1.178-1.705-1.956-2.639a26.31 26.31 0 0 0-2.366-2.495c-.799-.73-1.68-1.699-2.642-2.908l-2.699-3.308c-.834-.996-1.776-1.642-2.828-1.938a7.75 7.75 0 0 0-3.103-.25c-1.017.133-2.112.417-3.283.85l-2.27.757a3.3 3.3 0 0 1-1.032.037c-.346-.042-.677-.138-.994-.288a3.21 3.21 0 0 1-.846-.575 3.24 3.24 0 0 1-.609-.813c-.158-.304-.263-.625-.314-.963a3.06 3.06 0 0 1 .013-1.007c.064-.338.18-.654.346-.951a3.15 3.15 0 0 1 .641-.794 3.28 3.28 0 0 1 .866-.556c.321-.138.654-.221 1-.25a3.19 3.19 0 0 1 1.032.069c.338.079.656.208.955.388s.554.402.776.669a3.07 3.07 0 0 1 .519.869 3 3 0 0 1 .205.988 3.04 3.04 0 0 1-.128 1.001c-.098.329-.248.632-.449.907s-.442.521-.724.725-.588.352-.917.456-.675.154-1.026.15a3.38 3.38 0 0 1-1.019-.181c-.329-.113-.631-.275-.904-.488s-.507-.456-.699-.744-.331-.59-.417-.919a2.96 2.96 0 0 1-.096-1.007c.021-.338.1-.665.237-.982a3.09 3.09 0 0 1 .545-.857c.231-.254.498-.467.802-.638l.449-.256 1.135-.356a20.3 20.3 0 0 1 2.616-.625c.983-.179 2.234-.323 3.751-.431s3.052.054 4.604.488 2.644.99 3.264 1.669l2.167 2.564 2.501 3.12 2.577 2.976c.872.93 1.727 2.109 2.565 3.539l1.488 2.332c.154.125.288.267.404.425a2.26 2.26 0 0 1 .295.507 2.31 2.31 0 0 1 .16.556c.03.196.036.392.019.588s-.06.381-.128.569a2.21 2.21 0 0 1-.263.519 2.29 2.29 0 0 1-.378.45c-.15.133-.31.248-.481.344a2.58 2.58 0 0 1-.558.225c-.192.05-.389.079-.59.088a2.6 2.6 0 0 1-.596-.056 2.8 2.8 0 0 1-.565-.188c-.179-.088-.837-.538-1.974-1.351l-4.283-2.757c-1.718-1.017-3.125-1.707-4.219-2.07s-2.092-.548-3.007-.544-2.141.081-3.68.244l-5.79.75-5.88.932-4.084.719c-1.12.192-2.127.448-3.02.769s-1.432.567-1.629.738a3.33 3.33 0 0 1-.641.438 3.21 3.21 0 0 1-.731.275c-.252.063-.511.094-.776.094s-.519-.029-.776-.088-.5-.152-.731-.269-.451-.261-.648-.431a3.03 3.03 0 0 1-.519-.569c-.15-.208-.271-.431-.365-.669s-.158-.49-.192-.744-.03-.509 0-.763a3.11 3.11 0 0 1 .179-.738 3.05 3.05 0 0 1 .366-.675c.145-.213.175-.233.09-.062s.372-.252 1.372-1.257 2.054-1.876 3.161-2.626 2.411-1.444 3.911-2.082 2.973-1.032 4.418-1.194 2.992-.229 4.642-.2a43.18 43.18 0 0 1 4.79.344c1.547.204 3.011.561 4.392 1.069s2.618 1.109 3.712 1.801l4.636 2.639c2.001 1.067 3.548 2.08 4.642 3.039s2.349 1.936 3.764 2.945 2.139 1.657 2.161 1.945.008.575-.039.863-.136.559-.256.825a3.57 3.57 0 0 1-.449.744c-.18.229-.385.436-.616.619s-.48.331-.75.457-.549.208-.84.263-.59.081-.885.069a3.91 3.91 0 0 1-.872-.15c-.286-.079-.557-.194-.814-.344s-.489-.319-.699-.519-.399-.429-.558-.675a3.35 3.35 0 0 1-.371-.782c-.095-.275-.169-.775-.225-1.501s-.393-1.647-1.013-2.776-1.599-2.224-2.949-3.283l-4.168-2.958-3.552-2.076-2.693-1.226c-.855-.346-1.891-.613-3.11-.8s-2.697-.286-4.424-.281-3.005.208-3.834.613-1.782 1.071-2.86 2.001-1.855 1.865-2.321 2.808-.889 2.103-1.27 3.47l-.866 3.52-.353 1.888a3.1 3.1 0 0 1-.224.8c-.107.258-.246.5-.417.725a3.3 3.3 0 0 1-.583.606c-.218.179-.455.329-.712.45a3.41 3.41 0 0 1-.808.275 3.6 3.6 0 0 1-.846.075 3.43 3.43 0 0 1-.846-.119 3.53 3.53 0 0 1-.782-.319c-.252-.138-.483-.3-.693-.488s-.385-.404-.539-.638-.284-.484-.378-.75a3.29 3.29 0 0 1-.18-.807c-.026-.279-.008-.681.051-1.207l.167-2.213.212-3.039.385-3.233.526-3.564c.197-1.296.541-2.561 1.032-3.795s1.22-2.445 2.174-3.62 2.052-2.109 3.283-2.801a15.18 15.18 0 0 1 3.924-1.519l4.751-1.001a53.47 53.47 0 0 1 5.405-.75c1.817-.154 3.306-.163 4.469-.025l3.552.594 3.315.782c1.004.267 2.28.698 3.828 1.294s2.744 1.134 3.578 1.613 1.748 1.217 2.731 2.214 1.789 1.907 2.405 2.745 1.169 1.828 1.673 2.983l1.36 3.545.904 3.176c.196.909.276 2.016.237 3.32-.034 1.305-.158 2.826-.372 4.565l-.66 4.546-.5 3.389c-.107.971-.169 2.053-.186 3.245l.019 3.902.314 4.502.289 3.883.089 3.083.244 4.202c.12 1.734.295 3.063.526 3.989a26.56 26.56 0 0 1 .538 2.789l.462 2.907a20.27 20.27 0 0 1 .314 2.97l.154 3.127c.073 1.1.062 2.205-.032 3.314s-.229 1.817-.404 2.113-.391.573-.635.819-.521.461-.82.644a4.41 4.41 0 0 1-1.982.638 4.63 4.63 0 0 1-1.051-.044 4.45 4.45 0 0 1-1.007-.294 4.22 4.22 0 0 1-.91-.512c-.283-.209-.535-.446-.757-.713s-.404-.557-.558-.869a4.23 4.23 0 0 1-.327-.976c-.068-.337-.094-.677-.077-1.019s.071-.684.173-1.013.374-.898.827-1.707.958-1.88 1.514-3.214.955-2.47 1.186-3.408c.226-.933.06-1.828-.5-2.682l-1.77-2.945c-.615-1.117-1.201-2.443-1.757-3.977s-.919-3.122-1.09-4.765-.258-3.247-.263-4.827l-.006-4.402.032-3.883c.017-1.234-.207-2.264-.673-3.089s-1.105-1.711-1.918-2.67l-2.424-2.826c-.799-.938-1.836-1.872-3.11-2.801s-2.328-1.605-3.161-2.026-1.765-.813-2.796-1.175l-3.341-1.007c-1.197-.313-2.323-.515-3.379-.607s-2.3-.073-3.732.044l-4.187.525c-1.355.238-2.501.636-3.437 1.194s-1.83 1.194-2.68 1.907-1.47 1.759-1.859 3.126l-.725 2.364c-.094.208-.214.404-.359.588a2.97 2.97 0 0 1-.494.481 3.12 3.12 0 0 1-.603.356 3.07 3.07 0 0 1-.667.2c-.231.042-.462.056-.693.044a3.01 3.01 0 0 1-.692-.119c-.227-.071-.44-.165-.641-.281s-.385-.261-.551-.419-.31-.342-.43-.538a2.76 2.76 0 0 1-.288-.625 2.62 2.62 0 0 1-.128-.675 2.56 2.56 0 0 1 .038-.675l.064-.338z" fill-opacity=".1"/><path d="M58.86 84.914l.058-2.107.09-3.62c.021-1.005.209-2.078.564-3.22a20.1 20.1 0 0 1 1.321-3.245c.53-1.025 1.421-2.397 2.674-4.114l2.917-3.689 2.001-2.057c.65-.63 1.547-1.301 2.693-2.013a24.99 24.99 0 0 1 3.539-1.838l4.251-1.619c1.624-.563 2.956-.9 3.995-1.013s2.105-.115 3.2-.006 2.295.398 3.591.869 2.439.973 3.417 1.507 2.248 1.384 3.822 2.539l4.117 3.264 2.988 2.683c.82.767 1.707 1.78 2.661 3.039l2.18 3.176c.504.863 1.032 2.099 1.583 3.708l1.232 4.296c.273 1.251.45 2.393.532 3.427l.077 1.795a7.87 7.87 0 0 0-.103.744 3.88 3.88 0 0 1-.212.957c-.111.313-.258.607-.442.882s-.393.525-.641.75-.517.419-.808.581a4.16 4.16 0 0 1-.93.375c-.329.088-.66.135-.994.144s-.673-.021-1.006-.088a4.24 4.24 0 0 1-.949-.325c-.304-.142-.584-.319-.84-.531-.261-.213-.492-.45-.693-.713-.196-.267-.359-.552-.487-.857s-.218-.619-.269-.944.077-.058.384.8.174.948-.404.256-1.158-1.467-1.744-2.326l-1.641-2.551c-.509-.842-1.299-1.949-2.372-3.32l-2.674-3.227c-.718-.775-2.015-1.828-3.892-3.158l-4.482-2.939c-1.12-.634-2.424-1.071-3.911-1.313s-2.672-.167-3.552.213-1.765.825-2.667 1.338-1.802 1.278-2.699 2.307l-1.661 1.963-.564.769a3.67 3.67 0 0 1-.577.625 3.89 3.89 0 0 1-.712.475c-.256.129-.526.225-.808.288s-.566.1-.853.1a3.88 3.88 0 0 1-.853-.106 3.7 3.7 0 0 1-.808-.306 3.59 3.59 0 0 1-.705-.475c-.214-.192-.402-.402-.564-.632a3.52 3.52 0 0 1-.397-.75 3.15 3.15 0 0 1-.199-.813c-.034-.283-.034-.565 0-.844s.109-.55.212-.813.075-.832-.096-1.707-.246-1.916-.224-3.12l-.045-3.777c-.055-1.317.034-2.62.269-3.908s.712-2.268 1.43-2.951 1.669-1.071 2.866-1.163 2.283-.104 3.245-.037l1.891.094c.299 0 .609.027.93.081a4.02 4.02 0 0 1 .936.275c.299.125.579.286.84.482a3.96 3.96 0 0 1 .693.663c.205.25.376.519.513.807a3.65 3.65 0 0 1 .301.907c.064.313.088.629.07.95a3.93 3.93 0 0 1-.167.938c-.094.304-.224.594-.391.869s-.363.527-.59.757-.485.423-.763.594-.573.298-.885.394a3.94 3.94 0 0 1-.955.181c-.329.025-.9.329-1.712.913s-1.607 1.244-2.385 1.995l-1.891 1.932c-.483.534-.9.934-1.25 1.201s-.735.473-1.154.619-.851.217-1.295.225a4.17 4.17 0 0 1-1.302-.194c-.423-.133-.814-.327-1.173-.581s-.665-.565-.917-.919a3.79 3.79 0 0 1-.564-1.157c-.124-.417-.177-.842-.16-1.276a3.95 3.95 0 0 1 .257-1.257c.158-.404.38-.773.667-1.107a3.86 3.86 0 0 1 .987-.844c.376-.229.782-.394 1.218-.494a4.06 4.06 0 0 1 1.308-.088 4.19 4.19 0 0 1 1.276.325c.406.175.772.411 1.096.707a3.89 3.89 0 0 1 .814 1.007 3.91 3.91 0 0 1 .455 2.495 3.8 3.8 0 0 1-.404 1.226 3.93 3.93 0 0 1-.782 1.032 4.03 4.03 0 0 1-1.077.732 4.17 4.17 0 0 1-1.263.363c-.44.054-.879.038-1.315-.05a4.06 4.06 0 0 1-1.231-.463c-.385-.217-.722-.488-1.013-.813s-.522-.694-.693-1.094-.265-.817-.295-1.251.011-.855.122-1.276.289-.807.532-1.169l.365-.544.699-.707 2.578-2.42c1.257-1.138 2.43-2.08 3.52-2.826s2.345-1.294 3.764-1.632 2.295-.479 2.616-.425a4.02 4.02 0 0 1 .936.275c.299.125.579.286.84.482a3.96 3.96 0 0 1 .693.663c.205.25.376.519.513.807a3.65 3.65 0 0 1 .301.907c.064.313.088.629.07.95a3.93 3.93 0 0 1-.167.938c-.094.304-.224.594-.391.869s-.363.527-.59.757-.485.423-.763.594-.573.298-.885.394a3.94 3.94 0 0 1-.955.181l-.59.019c-.064-.008-.472-.334-1.225-.975s-1.158-.302-1.206 1.007l-.032 3.764.077 3.364c.021 1.046-.036 2.04-.173 2.983s-.293 1.53-.455 1.763a3.67 3.67 0 0 1-.577.625 3.66 3.66 0 0 1-.712.469 3.28 3.28 0 0 1-.808.294c-.282.067-.566.1-.853.1a3.88 3.88 0 0 1-.853-.106 3.9 3.9 0 0 1-.808-.3 3.81 3.81 0 0 1-.705-.481c-.214-.192-.402-.402-.564-.632a3.52 3.52 0 0 1-.397-.75 3.15 3.15 0 0 1-.199-.813c-.034-.279-.034-.561 0-.844s.109-.55.212-.813.357-.642.75-1.138.977-1.109 1.751-1.838l2.603-2.332c.962-.821 2.056-1.572 3.283-2.251s2.736-1.313 4.527-1.901 3.336-.811 4.623-.657 2.492.417 3.603.788 2.315.867 3.61 1.501l4.123 2.101c1.449.771 2.701 1.534 3.757 2.289s1.996 1.54 2.822 2.345l2.571 2.62c.889.938 1.814 2.122 2.776 3.552l2.443 3.608 2.11 3.239c.743 1.192 1.098 1.953 1.064 2.282a3.88 3.88 0 0 1-.212.957 4.12 4.12 0 0 1-.436.882 4.01 4.01 0 0 1-.647.75c-.248.225-.517.419-.808.581a4.16 4.16 0 0 1-.93.375c-.325.088-.656.135-.994.144s-.673-.021-1.006-.088a4.24 4.24 0 0 1-.949-.325c-.304-.142-.584-.319-.84-.531-.261-.213-.49-.45-.686-.713a3.99 3.99 0 0 1-.494-.857c-.128-.304-.218-.619-.269-.944s-.049-.586.006-.782.064-.813.026-1.863c-.039-1.042-.182-2.157-.43-3.345a14.63 14.63 0 0 0-1.16-3.439l-1.558-2.907c-.513-.838-1.187-1.686-2.02-2.545l-2.757-2.72c-1.009-.955-2.129-1.911-3.36-2.87s-2.548-1.78-3.937-2.464-2.702-1.069-3.924-1.157-2.462.04-3.719.381-2.721.923-4.392 1.745-3.097 1.77-4.277 2.845-2.11 2.053-2.802 2.92-1.441 1.922-2.231 3.177a13.96 13.96 0 0 0-1.738 3.977 15.04 15.04 0 0 0-.487 4.208l.013 2.482c-.03.25-.092.492-.186.725a2.78 2.78 0 0 1-.359.663c-.145.208-.314.396-.507.563s-.404.31-.635.431a3.22 3.22 0 0 1-.718.263c-.252.063-.507.094-.763.094s-.511-.031-.763-.094a3.22 3.22 0 0 1-.718-.263c-.231-.121-.442-.265-.635-.431s-.361-.354-.507-.563-.269-.425-.359-.663-.156-.477-.186-.732l-.045-.369z" fill-opacity=".1"/><path d="M101.722 71.344l-1.167-1.432c-.778-.95-1.601-1.647-2.468-2.089l-3.071-1.382-3.206-1.113c-.953-.267-2.567-.513-4.841-.738l-5.194-.388a20.14 20.14 0 0 0-3.623.231c-1.223.183-2.509.684-3.86 1.501s-2.573 1.759-3.655 2.826-1.971 2.414-2.667 4.039-1.099 3.066-1.206 4.321l-.154 3.62c.004 1.159-.032 1.932-.109 2.32a3.55 3.55 0 0 1-.417 1.1 3.65 3.65 0 0 1-.75.913 3.74 3.74 0 0 1-1.013.631c-.372.158-.761.248-1.167.281s-.806.002-1.199-.094a3.76 3.76 0 0 1-1.103-.463c-.342-.213-.639-.473-.891-.782a3.43 3.43 0 0 1-.59-1.026 3.52 3.52 0 0 1-.231-1.144 3.58 3.58 0 0 1 .167-1.163 3.6 3.6 0 0 1 .532-1.05 3.52 3.52 0 0 1 .853-.825 3.59 3.59 0 0 1 1.071-.519 3.85 3.85 0 0 1 1.193-.163 3.79 3.79 0 0 1 1.18.225 3.58 3.58 0 0 1 1.045.575c.316.25.584.536.801.869s.376.692.474 1.076a3.49 3.49 0 0 1 .096 1.169 3.6 3.6 0 0 1-.288 1.138c-.162.363-.378.692-.648.988a3.85 3.85 0 0 1-.936.731 3.79 3.79 0 0 1-1.129.407c-.398.076-.797.081-1.199.031a3.69 3.69 0 0 1-1.148-.35c-.363-.175-.688-.402-.975-.682a3.7 3.7 0 0 1-.705-.95c-.18-.354-.297-.727-.353-1.119l-.077-.588.154-1.907.314-3.402a19.11 19.11 0 0 1 .519-2.845c.239-.909.571-1.87.994-2.883s.977-2.157 1.661-3.433 1.436-2.349 2.257-3.208 1.665-1.601 2.533-2.226a27.24 27.24 0 0 1 2.757-1.738c.966-.533 2.001-1.027 3.103-1.494s2.522-.721 4.245-.775l4.456.013 4.392.163c1.68.05 3.061.177 4.142.382s2.159.498 3.232.869l3.815 1.401c1.475.563 2.911 1.28 4.309 2.151s2.507 1.795 3.315 2.783l1.417 1.782c.132.204.237.421.314.65s.12.465.141.706.004.475-.038.713-.114.467-.212.688a2.76 2.76 0 0 1-.378.613 3.11 3.11 0 0 1-.513.513 3.18 3.18 0 0 1-.629.381 3.08 3.08 0 0 1-.699.219c-.243.046-.485.063-.724.05a3.34 3.34 0 0 1-.731-.119 3.09 3.09 0 0 1-.673-.294 2.97 2.97 0 0 1-.584-.431l-.263-.256zm11.478-3.555l.352 2.182c.24 1.455.411 3.06.513 4.815s.321 3.374.641 4.871l1.09 4.683 1.206 4.74 1.193 4.264 1.346 3.858 1.558 3.545 1.667 3.145 1.731 3.051 1.738 2.908c.586.913 1.223 1.788 1.911 2.626l2.866 3.152 3.18 3.232 2.693 2.558 2.873 2.745 2.911 2.92 2.731 2.989 3.386 3.695 3.828 4.033 3.238 3.414 2.18 2.283 1.013 1.163a3.63 3.63 0 0 1 .436.737 3.54 3.54 0 0 1 .243.826 3.36 3.36 0 0 1 .033.856 3.51 3.51 0 0 1-.18.838c-.094.275-.22.534-.378.776a3.62 3.62 0 0 1-.558.662c-.21.196-.443.367-.699.513a3.76 3.76 0 0 1-.814.332 3.77 3.77 0 0 1-.866.137c-.295.008-.586-.014-.872-.069a3.61 3.61 0 0 1-.834-.275 3.56 3.56 0 0 1-.743-.462l-2.257-1.82c-1.274-1.034-2.247-1.961-2.918-2.783l-2.475-2.938c-.979-1.147-2.156-2.07-3.533-2.77l-3.539-1.664-3.026-1.282c-1.039-.446-2.057-.952-3.053-1.519l-3.02-1.807-3.558-2.47a35.96 35.96 0 0 1-3.886-3.383l-3.956-3.951-3.058-3.083-2.559-2.839c-1.06-1.23-1.958-2.514-2.693-3.852-.744-1.334-1.434-2.77-2.071-4.308l-1.455-3.72c-.329-.947-.738-2.353-1.225-4.221l-1.084-4.427a27.92 27.92 0 0 1-.5-3.539 27.85 27.85 0 0 1-.045-3.82l.282-3.289c.12-.925.381-2.107.783-3.545s1.073-2.922 2.013-4.452 2.373-2.084 4.283-1.663 3.089 1.151 3.52 2.201.753 2.374.962 3.971l.68 4.796.789 4.471.872 3.908.974 3.552 1.167 3.601 1.654 4.184 1.905 3.92 1.93 3.377 2.064 3.432 1.962 3.008c.616.88 1.432 1.855 2.45 2.926s1.823 2.13 2.417 3.177.913 1.732.968 2.069a2.97 2.97 0 0 1-.006 1.013 3.12 3.12 0 0 1-.975 1.757 3.27 3.27 0 0 1-.865.557 3.18 3.18 0 0 1-1.001.263 3.12 3.12 0 0 1-1.038-.063 3.2 3.2 0 0 1-.956-.381 3.24 3.24 0 0 1-.788-.663c-.223-.259-.398-.548-.526-.869a3.02 3.02 0 0 1-.218-.988 2.96 2.96 0 0 1 .122-1.007c.098-.329.245-.634.442-.913a3.19 3.19 0 0 1 .718-.731 3.14 3.14 0 0 1 1.949-.619c.351 0 .691.056 1.02.168s.639.273.917.482a3.05 3.05 0 0 1 .705.738c.197.287.34.596.43.925a3.05 3.05 0 0 1 .102 1.007 3.01 3.01 0 0 1-.231.988 3.05 3.05 0 0 1-.545.863 3.01 3.01 0 0 1-.795.644 3.16 3.16 0 0 1-.968.369c-.342.07-.686.085-1.032.043s-.684-.129-1-.275a3.17 3.17 0 0 1-.853-.575 3.15 3.15 0 0 1-.622-.813l-.244-.45-.865-1.513c-.582-1.005-1.167-1.893-1.757-2.664a27 27 0 0 1-1.751-2.601l-1.904-3.183-2.116-3.577-1.936-3.539-2.296-4.151c-.949-1.63-1.695-3.135-2.238-4.515l-1.327-3.858-1.039-3.721-1.045-3.952-1.269-4.452c-.505-1.617-.977-3.518-1.417-5.703s.297-3.091 2.225-2.732 2.656 1.082 2.199 2.182a21.89 21.89 0 0 0-1.109 3.483c-.282 1.222-.445 2.311-.488 3.258a19.77 19.77 0 0 0 .077 2.845 21.28 21.28 0 0 0 .507 2.901l1.071 3.902 1.372 4.089 1.43 3.533 1.397 3.239c.424.904 1.022 1.846 1.796 2.826l2.193 2.526 2.988 2.958 3.661 3.676 3.174 3.021c.974.829 1.917 1.513 2.827 2.05l4.059 2.183 4.232 1.988 3.7 1.495c1.449.596 2.885 1.552 4.308 2.87s2.621 2.615 3.591 3.883 2.082 2.432 3.334 3.507l2.142 1.951a3.82 3.82 0 0 1 .436.744 3.54 3.54 0 0 1 .243.826 3.36 3.36 0 0 1 .033.856 3.51 3.51 0 0 1-.18.838c-.094.275-.22.534-.378.776a3.62 3.62 0 0 1-.558.662c-.21.196-.443.367-.699.513a3.6 3.6 0 0 1-.808.332c-.282.08-.577.125-.872.137a3.79 3.79 0 0 1-.872-.069 3.61 3.61 0 0 1-.834-.275 3.56 3.56 0 0 1-.743-.462c-.227-.184-.571-.595-1.033-1.232l-2.071-2.664-3.116-3.789-2.609-3.208-1.821-2.182-2.213-2.495-2.545-2.77-2.853-2.745-2.943-2.701-2.918-2.72c-1.022-.963-2.133-2.176-3.334-3.639l-2.994-3.79c-.796-1.054-1.479-2.101-2.052-3.139l-1.61-3.126-1.583-3.283-1.571-3.52-1.494-3.933-1.257-4.139-1.077-4.296-1.328-4.765-1.359-5.027a44.62 44.62 0 0 1-.923-4.959l-.699-4.602-.404-2.489c-.009-.204.009-.407.051-.607s.103-.398.193-.582.201-.363.333-.525a2.58 2.58 0 0 1 .455-.425 2.41 2.41 0 0 1 .545-.306c.196-.079.394-.142.603-.175s.413-.042.622-.025a2.83 2.83 0 0 1 1.186.381c.175.108.338.238.488.388.145.146.271.308.378.488a2.39 2.39 0 0 1 .25.563l.09.294z" fill-opacity=".1"/><path d="M153.435 148.766l-1.167-1.62-2.231-2.882-2.116-2.282c-.701-.68-1.697-1.297-2.988-1.851s-2.415-.976-3.386-1.263l-2.763-.863c-.877-.284-1.804-.65-2.783-1.101l-2.917-1.263c-.975-.392-1.945-.854-2.911-1.388s-2.221-1.332-3.777-2.395l-4.187-3.082-3.815-3.283c-1.308-1.196-2.36-2.368-3.155-3.514l-2.667-3.502c-.988-1.188-1.723-2.253-2.206-3.195l-1.263-2.695c-.363-.854-.701-1.855-1.013-3.001l-.77-3.152c-.196-.958-.337-2.011-.423-3.157l-.134-3.521.032-3.739.006-4.765.071-4.646.352-3.852.456-4.02.256-3.502c.026-1.017.167-2.339.423-3.964l.513-4.371.16-3.426c.018-.992.062-1.649.135-1.97s.195-.621.366-.901.384-.531.641-.744.541-.379.853-.5.634-.192.968-.213a3.14 3.14 0 0 1 .987.106 2.97 2.97 0 0 1 .904.4 3.03 3.03 0 0 1 .725.669c.205.258.361.542.468.85s.16.632.16.957-.047.648-.154.957a2.94 2.94 0 0 1-.468.863c-.201.259-.44.482-.718.669a3.1 3.1 0 0 1-.898.406 3.16 3.16 0 0 1-.987.106c-.338-.017-.663-.086-.975-.206a3.05 3.05 0 0 1-.852-.5 2.96 2.96 0 0 1-.648-.732c-.171-.283-.293-.584-.365-.9s-.092-.644-.058-.969a2.9 2.9 0 0 1 .263-.938 2.98 2.98 0 0 1 .558-.8c.23-.238.493-.434.788-.588s.609-.259.943-.313a3.06 3.06 0 0 1 .994 0 3.04 3.04 0 0 1 .942.306 2.97 2.97 0 0 1 .789.582c.235.238.423.504.564.8s.231.613.269.938l.052.488-.129 1.482-.211 3.583-.205 4.352-.199 3.883-.186 3.664-.205 3.933-.148 3.552-.057 4.465.07 4.677.16 3.514.392 4.089c.205 1.626.574 3.227 1.109 4.802s1.066 2.902 1.609 3.965 1.15 1.984 1.821 2.751l2.648 3.151c1.095 1.33 2.185 2.491 3.27 3.483l3.591 3.102c1.304 1.075 2.571 2.015 3.802 2.82s2.418 1.431 3.559 1.882l3.937 1.682c1.479.675 2.849 1.209 4.11 1.6s2.302.797 3.122 1.213 1.744.957 2.77 1.62a15.4 15.4 0 0 1 2.77 2.276l2.373 2.682 2.353 2.989 1.411 1.907a3.02 3.02 0 0 1 .295.701 3.34 3.34 0 0 1 .109.738c.004.25-.022.498-.077.744a3.14 3.14 0 0 1-.251.706 3.1 3.1 0 0 1-.423.626 3.24 3.24 0 0 1-.564.512c-.209.146-.434.267-.673.363s-.485.162-.738.2a3.1 3.1 0 0 1-.763.019c-.256-.025-.506-.079-.75-.163s-.474-.194-.692-.331-.415-.3-.59-.488l-.263-.275z" fill-opacity=".1"/></g><path d="M91.817 1.985l6.36-.029 14.347-.137 16.376-.196 16.885-.206 17.032-.206 17.081-.206c5.704-.065 9.947.506 12.73 1.715 2.777 1.222 4.541 4.175 5.292 8.859.751 4.691 1.192 9.747 1.323 15.17l.216 16.552-.01 16.895-.069 16.993-.029 17.013.088 17.022.137 17.022.147 17.023.137 17.022.138 17.052c.045 5.69-.543 9.92-1.764 12.69-1.216 2.777-4.182 4.551-8.899 5.322-4.71.771-9.79 1.235-15.238 1.391l-16.621.294-16.973.069-17.072.01-17.1.059-17.101.166-17.101.226-17.11.225-17.101.225-17.12.226c-5.716.072-9.97-.5-12.759-1.715-2.783-1.215-4.547-4.172-5.292-8.869-.738-4.697-1.166-9.757-1.284-15.18l-.186-16.572.049-16.914.098-17.003.059-17.042-.049-17.042-.108-17.042-.118-17.042L1.1 38.783l-.098-17.061c-.039-5.697.549-9.934 1.764-12.71 1.222-2.77 4.188-4.541 8.898-5.312 4.704-.771 9.774-1.232 15.209-1.382l16.601-.265 16.944-.049 17.032.01 17.071-.039 17.061-.147 19.992-.225 11.662-.088c.137.026.264.069.382.127.124.065.235.147.333.245.092.098.167.206.226.323.058.124.094.255.107.392a1.1 1.1 0 0 1-.019.412 1.13 1.13 0 0 1-.147.372c-.072.118-.16.222-.265.314-.098.085-.212.154-.343.206a1.14 1.14 0 0 1-.392.088c-.137.013-.271 0-.402-.039-.137-.033-.261-.088-.372-.167a1.47 1.47 0 0 1-.294-.274c-.085-.111-.15-.232-.196-.363a1.2 1.2 0 0 1 0-.804c.039-.118.101-.232.186-.343a1.35 1.35 0 0 1 .294-.284c.111-.078.232-.134.363-.167a1.23 1.23 0 0 1 .402-.049c.137.007.271.036.401.088.125.046.239.114.343.206.111.085.2.186.265.304a1.19 1.19 0 0 1 .157.372 1.04 1.04 0 0 1 .019.402c-.013.137-.045.268-.098.392a1.17 1.17 0 0 1-.235.333 1.27 1.27 0 0 1-.313.245c-.125.065-.252.111-.383.137l-.205.029h-11.456c-7.638.007-14.302.003-19.992-.01a2478.11 2478.11 0 0 0-17.071.039L77.47 4.19l-17.032.225-16.905.284-16.395.49c-5.331.222-10.13.588-14.396 1.098-4.273.51-6.772 1.8-7.497 3.871s-1.107 5.939-1.147 11.603l-.118 17.022-.127 17.042-.118 17.042-.118 17.042-.069 17.042.059 17.032.127 17.003.186 16.875.402 16.376c.189 5.318.529 10.107 1.019 14.367.49 4.266 1.771 6.755 3.842 7.467s5.948 1.068 11.632 1.068h17.081 17.111l17.101.01 17.101.01 17.111-.059 17.091-.167 17.061-.245 16.934-.303 16.435-.51c5.337-.222 10.146-.591 14.425-1.107 4.273-.517 6.772-1.81 7.497-3.881.725-2.065 1.101-5.926 1.127-11.584l.088-17.002.088-17.023.089-17.032.088-17.022.029-17.022-.088-17.013-.157-16.983-.225-16.856-.431-16.346c-.196-5.312-.543-10.097-1.039-14.357s-1.78-6.746-3.852-7.458c-2.064-.719-5.935-1.078-11.612-1.078l-17.042-.029-17.023-.02-16.895-.029-16.375-.029c-5.325-.013-10.104-.007-14.337.02l-6.488.02a1.49 1.49 0 0 1-.245-.059 1.14 1.14 0 0 1-.216-.118.76.76 0 0 1-.186-.167c-.059-.059-.108-.124-.147-.196a1.15 1.15 0 0 1-.088-.235c-.02-.078-.029-.16-.029-.245s.01-.167.029-.245a.92.92 0 0 1 .088-.235c.039-.072.085-.14.137-.206a.76.76 0 0 1 .186-.167c.065-.039.137-.075.216-.108a1.49 1.49 0 0 1 .245-.059l.118-.02z" fill="#1d1d1d" stroke="#1d1d1d" stroke-width="1.725"/></svg>