<svg xmlns="http://www.w3.org/2000/svg" version="1.1" xmlns:xlink="http://www.w3.org/1999/xlink" width="146.05" height="137.89"><svg xmlns="http://www.w3.org/2000/svg" viewBox="0 0 146.05 137.89" xmlns:v="https://vecta.io/nano"><style>.B{fill:#1d1d1d}.C{stroke:#1d1d1d}.D{stroke-linejoin:round}.E{fill:#fefefe}.F{stroke-width:.76}</style><path d="M48.66 7.39a19.5 19.5 0 0 0-3 .42l-2.69.71-3.22 1c-1.15.38-2.35.89-3.63 1.46a29.17 29.17 0 0 0-3.92 2.16q-2 1.29-4 2.78-2 1.49-3.84 3.2l-3.6 3.5-3.27 3.6-3 3.71-2.69 3.84a35.15 35.15 0 0 0-2.22 4.17q-1 2.16-2 4.38-1 2.22-1.67 4.3l-1.33 3.93-.87 3.26a26.74 26.74 0 0 0-.47 2.82l-.27 2.65c-.07.85-.09 1.82-.08 2.93v3.48l.08 3.83.29 4.11.55 4 .69 3.87a31.15 31.15 0 0 0 1.08 4.12q.72 2.16 1.56 4.58l1.75 4.7 1.87 4.45 2.05 4.19 2.35 4 2.58 3.89 2.7 3.56 2.83 3.25a37.54 37.54 0 0 0 3.11 2.94l3.18 2.59 3.29 2.32 3.74 2.24 3.79 2 3.82 1.62 3.84 1.28 3.59.9 3.52.62 3.67.41 3.89.22 4 .07 4.12-.16 3.94-.41 3.72-.61 3.77-.78 3.88-1 3.87-1 3.8-1 3.64-1.12 3.35-1.19 3.45-1.24 3.76-1.51 3.87-1.79 3.86-2.08 3.79-2.5 3.57-2.78 3.25-2.88 2.89-2.68a26.67 26.67 0 0 0 2.29-2.44l1.91-2.37 1.89-2.52a22.64 22.64 0 0 0 1.74-2.93l1.48-3.28 1.26-3.35 1.08-3.19a32.83 32.83 0 0 0 .86-3.17q.34-1.64.66-3l.56-3.15.37-3.33.21-3.19.11-3c.03-1 0-1.86-.07-2.8a27.44 27.44 0 0 0-.41-3.14l-.75-3.59-.92-3.58-1.09-3.33-1.17-3.05-1.23-2.63-1.41-2.81c-.41-.99-1-1.93-1.49-2.83l-1.65-2.72a33.21 33.21 0 0 0-1.94-2.71l-2.09-2.59-2-2.58c-.63-.9-1.36-1.73-2-2.51l-2.08-2.61-2.24-2.71-2.38-2.46-2.41-2.13-2.29-1.81a22.68 22.68 0 0 0-2.28-1.58l-2.55-1.45a31.06 31.06 0 0 0-2.94-1.37l-3.35-1.27-3.57-1.35-3.45-1.31-3-1.11-2.47-.83-1.75-.61-1.6-.53-1.91-.61a21.92 21.92 0 0 0-2.47-.6l-3-.58-3.23-.71-3.26-.64-3.08-.42L67.41 4a17.51 17.51 0 0 1-2.21-.25l-1.73-.27-1.45-.19a14.25 14.25 0 0 0-1.45-.08 12.78 12.78 0 0 0-1.55.08 8.92 8.92 0 0 0-1.76.37l-2 .58-1.94.58-1.64.51a9.27 9.27 0 0 0-1.29.48 5.2 5.2 0 0 1-.85.32l-.65.18a2.09 2.09 0 0 0-.71.43z" fill="#f95d5d"></path><path d="M48.47 8.26l-2.9.44-2.6.6-3.19.93-3.59 1.39a26.86 26.86 0 0 0-3.85 2.06q-2 1.26-3.9 2.71-1.9 1.45-3.81 3.15-1.89 1.68-3.61 3.4l-3.24 3.55-3 3.68-2.67 3.8a34 34 0 0 0-2.22 4q-1 2.13-1.92 4.32-.92 2.19-1.7 4.31l-1.33 3.9-.85 3.21-.46 2.76-.25 2.6-.08 2.89v3.44l.07 3.83.29 4.07.54 3.95.69 3.84a32.28 32.28 0 0 0 1.13 4.14q.69 2.11 1.55 4.52.86 2.41 1.75 4.69l1.85 4.42 2 4.15c.68 1.33 1.5 2.67 2.33 4l2.56 3.86 2.67 3.52 2.81 3.2a30.94 30.94 0 0 0 3.05 2.9l3.15 2.55a36.77 36.77 0 0 0 3.28 2.3l3.7 2.21 3.76 2a39.63 39.63 0 0 0 3.76 1.59l3.79 1.26 3.54.88 3.47.62 3.63.4 3.84.22 4 .06 4.09-.15 3.89-.41 3.68-.6 3.74-.78 3.86-.94 3.86-1 3.8-1 3.6-1.11 3.32-1.18 3.45-1.24 3.74-1.5 3.83-1.78 3.83-2.06 3.74-2.46 3.53-2.75 3.21-2.85 2.87-2.67a19.7 19.7 0 0 0 2.26-2.4l1.88-2.34 1.86-2.5a26.18 26.18 0 0 0 1.71-2.87 29.42 29.42 0 0 0 1.44-3.21l1.25-3.31 1.07-3.16.84-3.13.65-3 .56-3.12c.18-1.12.3-2.23.36-3.29l.21-3.15.11-3-.07-2.75a21.56 21.56 0 0 0-.41-3.07l-.74-3.54-.91-3.55-1.07-3.28-1.16-3c-.4-1-.83-1.88-1.27-2.73l-1.41-2.79-1.48-2.82-1.63-2.68-1.91-2.67-2.07-2.55-2.05-2.59-2-2.51-2.08-2.6a32.79 32.79 0 0 0-2.23-2.71l-2.34-2.42-2.37-2.09-2.26-1.79a20.84 20.84 0 0 0-2.27-1.48q-1.19-.7-2.49-1.41a27 27 0 0 0-2.89-1.36l-3.3-1.24-3.58-1.35-3.45-1.31-3-1.11-2.37-.82-2.64-.71-2.68-.75c-.68-.22-1.48-.42-2.39-.62l-2.89-.65-3.32-.73-3.23-.68-3-.45-2.68-.23-2.25-.2a22 22 0 0 0-2.47-.15c-.93 0-1.89 0-2.88.13a11.56 11.56 0 0 0-2.26.4l-1.9.54-1.93.56-2.06.78a12.33 12.33 0 0 0-2 1l-1 .62a1.9 1.9 0 0 1-.47.21 1.32 1.32 0 0 1-.51.06 1.6 1.6 0 0 1-.49-.12 2.64 2.64 0 0 1-.44-.26 1 1 0 0 1-.33-.4l-.19-.47a.84.84 0 0 1 0-.52c0-.17.09-.33.14-.49a.89.89 0 0 1 .29-.42 3.4 3.4 0 0 1 .41-.31 1.28 1.28 0 0 1 .49-.16 1.69 1.69 0 0 1 1 .17 1 1 0 0 1 .41.32 3.82 3.82 0 0 1 .28.42 1 1 0 0 1 .14.5v.51a.84.84 0 0 1-.19.47 4.49 4.49 0 0 1-.33.39.92.92 0 0 1-.44.26 3 3 0 0 1-.51.11 1.16 1.16 0 0 1-.5-.06 1.58 1.58 0 0 1-.47-.22 2.35 2.35 0 0 1-.37-.35 1.05 1.05 0 0 1-.23-.46c0-.15-.06-.32-.08-.5a1 1 0 0 1 .08-.51l.25-.45q.12-.22.15-.21a6.86 6.86 0 0 0 1-.54 7.47 7.47 0 0 1 1.89-.8l1.69-.5 1.67-.48a16.52 16.52 0 0 0 1.94-.59 17.67 17.67 0 0 1 2.09-.63 12.64 12.64 0 0 1 2.7-.29 14.71 14.71 0 0 1 3.21.26l2.44.5a17.34 17.34 0 0 0 2.17.24l2.77.27 3.14.39 3.28.61 3.23.64 3 .52a13.13 13.13 0 0 1 2.55.57l2.62 1 2.58 1 2.35.92 3 1.11 3.45 1.31 3.58 1.35 3.4 1.29 3 1.4c1 .5 1.8 1 2.59 1.48a26.13 26.13 0 0 1 2.32 1.61l2.32 1.84 2.45 2.16a33.5 33.5 0 0 1 2.42 2.5l2.24 2.73 2.08 2.6 2 2.51 2 2.58 2.12 2.62a26.66 26.66 0 0 1 2 2.76l1.68 2.75a29.74 29.74 0 0 1 1.49 2.85c.44 1 .91 1.91 1.42 2.82a21.11 21.11 0 0 1 1.31 2.82l1.19 3.09a29.28 29.28 0 0 1 1.09 3.36l.93 3.62.76 3.64.41 3.28a18.14 18.14 0 0 1 .07 2.84l-.12 3-.21 3.22-.38 3.38a21.7 21.7 0 0 1-.56 3.17l-.67 3.06a19.87 19.87 0 0 1-.87 3.21l-1.09 3.22a31.21 31.21 0 0 1-1.28 3.39l-1.51 3.35a15.86 15.86 0 0 1-1.78 3l-1.91 2.55a30 30 0 0 1-1.94 2.4l-2.33 2.48-2.9 2.69-3.28 2.91a33.1 33.1 0 0 1-3.61 2.82l-3.85 2.52a32 32 0 0 1-3.9 2.1l-3.91 1.81a28.43 28.43 0 0 1-3.78 1.52l-3.45 1.24-3.38 1.2-3.67 1.13-3.8 1-3.88 1c-1.28.4-2.58.69-3.9.95l-3.8.79a37.32 37.32 0 0 1-3.76.61l-4 .41a33.81 33.81 0 0 1-4.16.16l-4-.06c-1.29 0-2.6-.09-3.92-.23l-3.72-.42a30 30 0 0 1-3.56-.63l-3.65-.91c-1.2-.32-2.49-.76-3.89-1.3l-3.87-1.65-3.83-2-3.78-2.27a33.82 33.82 0 0 1-3.33-2.35l-3.23-2.63a30.27 30.27 0 0 1-3.14-3l-2.87-3.28-2.73-3.59-2.6-3.94-2.37-4.08-2.07-4.22-1.83-4.57-1.8-4.73-1.57-4.63a28.91 28.91 0 0 1-1.1-4.17q-.33-1.91-.69-3.9l-.55-4-.3-4.14-.08-3.85v-3.5a21.17 21.17 0 0 1 .08-3l.28-2.69a20.53 20.53 0 0 1 .49-2.89l.88-3.3c.35-1.3.8-2.58 1.34-4l1.73-4.37 2-4.43 2.29-4.17a35.71 35.71 0 0 1 2.72-3.89l3-3.75a38.22 38.22 0 0 1 3.28-3.59l3.63-3.54a39 39 0 0 1 3.88-3.26q2-1.47 4-2.87a22.34 22.34 0 0 1 4-2.23l3.68-1.55a27.28 27.28 0 0 1 3.23-1.13l2.78-.81a6.76 6.76 0 0 1 2.18-.37 5.2 5.2 0 0 0 1 0 .3.3 0 0 1 .26.05 1.1 1.1 0 0 0 .23.1.47.47 0 0 1 .21.16.88.88 0 0 1 .16.2l.11.23a.41.41 0 0 1 0 .26.62.62 0 0 0 0 .25.27.27 0 0 1-.08.26.39.39 0 0 0-.13.22.21.21 0 0 1-.18.18.46.46 0 0 0-.22.14.25.25 0 0 1-.25.08z" stroke-width="3.79" class="B C D"></path><path d="M48.26 42.04a17.26 17.26 0 0 0-2.14-.38 7.2 7.2 0 0 0-1.67 0 13.58 13.58 0 0 0-2.1.46l-2.47.82a14.94 14.94 0 0 0-2.43 1.16 21.13 21.13 0 0 0-2.15 1.45 12.45 12.45 0 0 0-1.7 1.61 8 8 0 0 0-1.19 1.86 11.43 11.43 0 0 0-.71 2.14 21.67 21.67 0 0 0-.39 2.39l-.22 2.49-.07 2.41-.07 2v1.72 1.77a17.63 17.63 0 0 0 .16 1.89l.35 2 .5 2 .52 2a15.85 15.85 0 0 0 .65 2l.76 2 .78 1.81.93 1.75 1 1.69c.31.53.64 1 .91 1.38a7.23 7.23 0 0 0 .87 1.07l.73.74a2.81 2.81 0 0 0 .7.51l1 .54c.38.2.82.4 1.31.6l1.44.58a7.6 7.6 0 0 0 1.45.43l1.46.23 1.61.13 1.91.07h2.06c.71 0 1.39-.06 2-.11a15.43 15.43 0 0 0 1.76-.21l1.49-.27a7.52 7.52 0 0 0 1.22-.34 7.59 7.59 0 0 0 1-.5l1-.58a6.4 6.4 0 0 0 1.08-.73l1.1-.9 1.16-1 1.16-1a9.39 9.39 0 0 0 1-1 9 9 0 0 0 .75-1 7 7 0 0 0 .57-1.13l.46-1.23c.16-.42.29-.85.41-1.29a11.25 11.25 0 0 0 .27-1.21q.11-.57.21-1.08l.16-1a9.56 9.56 0 0 1 .19-1.06 10.49 10.49 0 0 0 .21-1.25c0-.45.11-.95.17-1.5l.14-1.68.08-1.69V64a10 10 0 0 0-.08-1.54l-.19-1.56-.21-1.52-.27-1.45-.3-1.35-.32-1.26-.37-1.2a11.43 11.43 0 0 0-.47-1.17 7.89 7.89 0 0 0-.66-1.15l-.71-1a8.39 8.39 0 0 0-.66-.75 7.69 7.69 0 0 0-.66-.62l-.67-.59a5.59 5.59 0 0 0-.83-.64l-1-.6a7.74 7.74 0 0 1-.94-.69l-.92-.83a9.75 9.75 0 0 0-1-.82l-.93-.65a7.49 7.49 0 0 1-.73-.51 2.2 2.2 0 0 0-.6-.39l-.53-.21-.5-.17a3.9 3.9 0 0 1-.58-.25 2.9 2.9 0 0 0-.62-.23l-.55-.18a5.64 5.64 0 0 0-.56-.21 4.28 4.28 0 0 1-.66-.26 3 3 0 0 0-.67-.24l-.62-.14a3.4 3.4 0 0 1-.49-.13l-.38-.11a1.53 1.53 0 0 0-.36-.07h-.35-.55a3.14 3.14 0 0 0-1 .21z" class="E"></path><path d="M48.02 43.31a13.31 13.31 0 0 0-2.77-.17 15.72 15.72 0 0 0-2.58.31q-1.16.26-2.37.63a12.45 12.45 0 0 0-2.35 1 15 15 0 0 0-2.05 1.31 9.83 9.83 0 0 0-1.58 1.49 6.3 6.3 0 0 0-1 1.69 11.49 11.49 0 0 0-.61 1.93l-.38 2.24-.25 2.41-.12 2.35v2c0 .56.06 1.45.13 2.6l.25 2.64a17.6 17.6 0 0 0 .34 1.85l.48 2 .51 2 .61 2 .73 1.92.79 1.75.9 1.67 1 1.61a16 16 0 0 0 1.32 1.69 6.35 6.35 0 0 0 2 1.48l2.5 1.11a9.85 9.85 0 0 0 2.64.72l2.11.23 1.83.12 1.92.05 1.93-.06a23.06 23.06 0 0 0 2.3-.36 6.67 6.67 0 0 0 2.16-.74l1.72-1.13a22.43 22.43 0 0 0 2.09-1.66l2-1.94a6.33 6.33 0 0 0 1.31-1.87 21.67 21.67 0 0 0 .78-2.11 13.83 13.83 0 0 0 .54-2.23l.34-2.11.35-2.48.29-3a22.12 22.12 0 0 0 0-3l-.26-2.91a27.44 27.44 0 0 0-.51-2.8l-.67-2.4a10.12 10.12 0 0 0-.93-2 8.65 8.65 0 0 0-1.41-1.76 16.82 16.82 0 0 0-1.52-1.44l-1.79-1.31-1.95-1.54a17.66 17.66 0 0 0-1.68-1.3 6.77 6.77 0 0 0-1.71-.85l-2.15-.71a20.92 20.92 0 0 0-2.08-.56 3.67 3.67 0 0 0-1.54 0 7.67 7.67 0 0 1-1 .19 3.89 3.89 0 0 1-.68 0 1.41 1.41 0 0 1-.64-.2 2.88 2.88 0 0 1-.55-.4 1.88 1.88 0 0 1-.39-.54 2.08 2.08 0 0 1-.19-.65 2.52 2.52 0 0 1 0-.67 1.59 1.59 0 0 1 .24-.63 3.42 3.42 0 0 1 .42-.52 1.32 1.32 0 0 1 .57-.36 3.76 3.76 0 0 1 .66-.17 1.55 1.55 0 0 1 .67.06 2.82 2.82 0 0 1 .61.27 1.52 1.52 0 0 1 .5.45 2.05 2.05 0 0 1 .33.59 1.89 1.89 0 0 1 .13.66 1.76 1.76 0 0 1-.09.66 2.65 2.65 0 0 1-.3.61 1.79 1.79 0 0 1-.48.47 3.14 3.14 0 0 1-.61.3 1.47 1.47 0 0 1-.66.09 3.78 3.78 0 0 1-.67-.13 1.48 1.48 0 0 1-.58-.33 3.57 3.57 0 0 1-.45-.51 1.68 1.68 0 0 1-.26-.61 2 2 0 0 1 .11-1.33 1.85 1.85 0 0 1 .36-.57 3.27 3.27 0 0 1 .53-.42l.3-.17 1.63-.26a6.38 6.38 0 0 1 2.62 0q1 .27 2.22.72l2.47 1a12.81 12.81 0 0 1 2 1c.48.29 1.07.71 1.79 1.24a22.51 22.51 0 0 1 1.84 1.43 17.24 17.24 0 0 0 1.88 1.44 16 16 0 0 1 1.79 1.37 12.69 12.69 0 0 1 1.41 1.53 16.54 16.54 0 0 1 1.5 2.27 12.18 12.18 0 0 1 1.14 2.67l.69 2.72.51 3 .31 3.21.08 2.53-.11 2.59a24.54 24.54 0 0 1-.32 3l-.4 2.3c-.12.69-.3 1.37-.54 2.37a22.54 22.54 0 0 1-.89 2.75 10.52 10.52 0 0 1-1.46 2.56 18.58 18.58 0 0 1-2.09 2.29l-2.43 2.09a13.62 13.62 0 0 1-2.37 1.57 11.47 11.47 0 0 1-2.52.92 21.13 21.13 0 0 1-2.28.48l-1.86.22-2.1.12-2.13.08a25.08 25.08 0 0 1-2.73-.08 17.86 17.86 0 0 1-6.34-1.78 11.31 11.31 0 0 1-2.22-1.37 9.72 9.72 0 0 1-1.7-1.91l-1.37-2c-.37-.5-.67-1.12-1-1.76l-1-1.85c-.3-.59-.52-1.21-.77-1.86l-.79-2.06a17.93 17.93 0 0 1-.68-2.08l-.53-2.06-.52-2.12a20 20 0 0 1-.35-2l-.13-2v-1.81c0-.55.09-1.13.14-1.74l.13-2 .12-2.42.18-2.57a23.22 23.22 0 0 1 .4-2.55 10 10 0 0 1 .82-2.35 10.78 10.78 0 0 1 1.35-2 11.94 11.94 0 0 1 1.82-1.73q1-.76 2.25-1.59a15.57 15.57 0 0 1 2.51-1.32l2.58-1a7.93 7.93 0 0 1 2.33-.57 11.14 11.14 0 0 1 1.92 0 6.82 6.82 0 0 1 1.56.31l.8.24a.5.5 0 0 1 .35-.05c.08.08.16.14.23.2a.92.92 0 0 1 .19.26 1.53 1.53 0 0 1 .11.29 2 2 0 0 1 0 .31.69.69 0 0 1 0 .3l-.11.3a.62.62 0 0 1-.17.26 2.19 2.19 0 0 0-.23.21.45.45 0 0 1-.27.14l-.31.08a.47.47 0 0 1-.31 0z" class="B C D F"></path><path d="M110.28 44.08a11.91 11.91 0 0 0-2.83 0 11.7 11.7 0 0 0-2.23.58 15.12 15.12 0 0 0-2.5 1.18l-2.59 1.52a25.11 25.11 0 0 0-2.55 1.7 29.5 29.5 0 0 0-2.32 2l-2 2a13.74 13.74 0 0 0-1.73 2.17 12.59 12.59 0 0 0-1.27 2.51l-.85 2.71-.57 2.71-.31 2.4-.13 2.14a13.66 13.66 0 0 0 .14 2c.09.65.22 1.32.38 2l.56 2.06.72 2.05.8 1.89a17.64 17.64 0 0 0 .94 1.76l1 1.58.84 1.27a8.68 8.68 0 0 0 .77 1l.68.73a5.87 5.87 0 0 0 .73.66 7.52 7.52 0 0 0 .86.57 7.65 7.65 0 0 0 .88.41l1 .38a6.2 6.2 0 0 0 1.06.31l.94.18c.29 0 .56.08.82.09l.91.1c.35 0 .69.09 1 .11s.69 0 1.11.06h1.12 3.54a2.84 2.84 0 0 0 .76-.1l.88-.2a4.31 4.31 0 0 0 1-.37 7.3 7.3 0 0 0 .95-.61l.93-.79 1-.95a9.18 9.18 0 0 0 .89-1.07 13.57 13.57 0 0 0 .75-1.21l.66-1.32.62-1.39a12.11 12.11 0 0 0 .49-1.33q.2-.63.33-1.23l.23-1.14.18-1a4.86 4.86 0 0 1 .25-1 9.18 9.18 0 0 0 .29-1l.21-1.24.22-1.34.22-1.35c.07-.45.1-.89.12-1.3s0-.86.07-1.33 0-.92 0-1.34v-1.25c0-.41 0-.77-.06-1.09s-.06-.68-.09-1.06l-.1-1.2a9.9 9.9 0 0 0-.15-1.16l-.24-1.1q-.14-.55-.24-1.17a6.67 6.67 0 0 0-.28-1.15l-.41-1.14-.42-1.14q-.2-.52-.39-1.08l-.37-1-.3-.72a5 5 0 0 0-.32-.66 4.62 4.62 0 0 1-.33-.67 2.24 2.24 0 0 0-.33-.57 2.59 2.59 0 0 1-.34-.52 6.26 6.26 0 0 0-.34-.59 3.92 3.92 0 0 1-.34-.68l-.29-.73-.31-.7-.27-.6a2.56 2.56 0 0 0-.2-.38.75.75 0 0 0-.27-.21.46.46 0 0 1-.24-.21 1.16 1.16 0 0 0-.24-.28l-.33-.25-.34-.19a1.46 1.46 0 0 0-.34-.1l-.34-.06a2 2 0 0 0-.34 0h-.33-.81a5.8 5.8 0 0 0-.63 0z" class="E"></path><path d="M110.16 45.18a12.19 12.19 0 0 0-2.69 0 16.88 16.88 0 0 0-2 .5 13.28 13.28 0 0 0-2.35 1l-2.54 1.4a25.39 25.39 0 0 0-2.56 1.64 24.54 24.54 0 0 0-2.27 1.87l-2 1.92a13 13 0 0 0-1.69 2.07 12 12 0 0 0-1.17 2.36l-.82 2.6a24.71 24.71 0 0 0-.55 2.63 22.21 22.21 0 0 0-.27 2.36 18.38 18.38 0 0 0 0 2.09 11.88 11.88 0 0 0 .21 1.93c.11.62.26 1.24.43 1.87l.58 2a18.24 18.24 0 0 0 .71 2l.81 1.82a13.24 13.24 0 0 0 .93 1.65l1 1.49a10.34 10.34 0 0 0 1.24 1.51 15.08 15.08 0 0 0 1.46 1.33 6.14 6.14 0 0 0 1.94 1 10.55 10.55 0 0 0 2.36.53l2.12.18 2.07.1h2c.64 0 1.2-.05 1.8-.1a5.78 5.78 0 0 0 2.06-.65 8.26 8.26 0 0 0 2-1.39 9.33 9.33 0 0 0 1.42-1.95 21.71 21.71 0 0 0 1.22-2.28 15.2 15.2 0 0 0 .87-2.37 17.71 17.71 0 0 0 .41-2.08 16.18 16.18 0 0 1 .44-2.08 22.84 22.84 0 0 0 .51-2.4q.21-1.31.33-2.49l.16-2.47v-2.33c0-.7-.11-1.43-.19-2.21a16 16 0 0 0-.33-2.15l-.49-2-.68-2.17-.77-2-.85-1.84a11.24 11.24 0 0 0-1-1.65 7.68 7.68 0 0 1-.87-1.61 6.7 6.7 0 0 0-.93-1.63 1.8 1.8 0 0 0-1.7-.62 8.09 8.09 0 0 1-1.49.07 1.68 1.68 0 0 1-.66-.23 2.88 2.88 0 0 1-.56-.43 1.56 1.56 0 0 1-.39-.58 2.66 2.66 0 0 1-.18-.67 1.68 1.68 0 0 1 0-.7 3.15 3.15 0 0 1 .26-.65 1.85 1.85 0 0 1 .46-.52 2.08 2.08 0 0 1 .6-.36 2.42 2.42 0 0 1 .68-.15 1.8 1.8 0 0 1 .7.08 3 3 0 0 1 .63.3 1.44 1.44 0 0 1 .5.48 3.69 3.69 0 0 1 .33.62 1.79 1.79 0 0 1 .11.69 3.68 3.68 0 0 1-.12.69 1.78 1.78 0 0 1-.33.62 2.47 2.47 0 0 1-.51.47 2.35 2.35 0 0 1-.64.29 1.67 1.67 0 0 1-.69.08 3.51 3.51 0 0 1-.68-.16 1.51 1.51 0 0 1-.6-.36 3.31 3.31 0 0 1-.45-.54 1.47 1.47 0 0 1-.25-.65 3.33 3.33 0 0 1 0-.7 1.74 1.74 0 0 1 .19-.67 2.75 2.75 0 0 1 .4-.57 1.91 1.91 0 0 1 .55-.42 1.76 1.76 0 0 1 .67-.22l.35-.06h1.34a9.09 9.09 0 0 1 2.29.36 4.29 4.29 0 0 1 1.71 1 6.67 6.67 0 0 1 1.28 1.75 20.72 20.72 0 0 1 1 2 17.2 17.2 0 0 0 .86 1.78 18.69 18.69 0 0 1 1 2.07l.88 2.26.84 2.38a21.8 21.8 0 0 1 .69 2.46q.23 1.13.39 2.4l.24 2.36.1 2.45v2.75a23.08 23.08 0 0 1-.28 2.75l-.46 2.76a21.94 21.94 0 0 1-.48 2.25c-.17.56-.33 1.25-.5 2.07a18.68 18.68 0 0 1-.79 2.69c-.36 1-.77 2-1.24 2.93a14.75 14.75 0 0 1-1.72 2.75 16.14 16.14 0 0 1-2.15 2.21 8.2 8.2 0 0 1-2.38 1.38 9.24 9.24 0 0 1-2.66.55l-2.37.07c-.62-.02-1.3 0-2.07-.08l-2.19-.18-2-.28a14.49 14.49 0 0 1-2.1-.54 12.12 12.12 0 0 1-2.23-1 8.25 8.25 0 0 1-1.81-1.36 13.64 13.64 0 0 1-1.55-1.9l-1.18-1.85-.94-1.61a19.46 19.46 0 0 1-1-1.87l-.8-2-.72-2.13a20.43 20.43 0 0 1-.55-2.14l-.32-2.11a12.94 12.94 0 0 1-.06-2.16c0-.73.11-1.47.22-2.19l.36-2.46a27.2 27.2 0 0 1 .58-2.79 29.46 29.46 0 0 1 .89-2.81 13 13 0 0 1 1.33-2.66 15.08 15.08 0 0 1 1.78-2.25l2.06-2a25.92 25.92 0 0 1 2.37-2l2.56-1.78 2.64-1.63a20.1 20.1 0 0 1 2.65-1.35 9.69 9.69 0 0 1 2.47-.66 8 8 0 0 1 2.07 0 10.15 10.15 0 0 1 1 .16 1.17 1.17 0 0 1 .65.43 1 1 0 0 1 .12.23 1.45 1.45 0 0 1 .07.26 1.22 1.22 0 0 1 0 .27 1 1 0 0 1-.06.25 1.34 1.34 0 0 1-.12.24.86.86 0 0 1-.18.2l-.21.15a.58.58 0 0 1-.25.09h-.26z" class="B C D F"></path><path d="M53.69 62.58a10.86 10.86 0 0 0-2.5.88 4.48 4.48 0 0 0-1.37 1.29 7.52 7.52 0 0 0-1 2 8.09 8.09 0 0 0-.44 2.19 8.27 8.27 0 0 0 .14 2.08 6 6 0 0 0 .5 1.67 4.33 4.33 0 0 0 .86 1.16 3.37 3.37 0 0 0 1.27.73 4.5 4.5 0 0 0 1.68.23 7.63 7.63 0 0 0 1.93-.32 14.94 14.94 0 0 0 2-.72 17.24 17.24 0 0 0 1.68-.83 8.44 8.44 0 0 0 1.21-.84 6.68 6.68 0 0 0 .8-.81 3 3 0 0 0 .47-.76 4.61 4.61 0 0 0 .26-.84 6.21 6.21 0 0 0 .14-1 5.61 5.61 0 0 0 0-1.16 7 7 0 0 0-.22-1.09 4.31 4.31 0 0 0-.37-.92 3.74 3.74 0 0 0-.45-.69 5.9 5.9 0 0 0-.49-.51 2.54 2.54 0 0 0-.61-.39l-.7-.31-.76-.33-.87-.34a9.1 9.1 0 0 0-.93-.27l-.9-.28a4.38 4.38 0 0 0-.68-.15c-.22 0-.41 0-.58-.08a4 4 0 0 0-.49 0h-.44a.79.79 0 0 0-.37 0l-.34.1a3 3 0 0 0-.35.18 1.76 1.76 0 0 0-.34.25 2.22 2.22 0 0 0-.35.41l-.37.51-.41.53a3.76 3.76 0 0 0-.38.57l-.31.53-.21.41a1.17 1.17 0 0 1-.13.25.42.42 0 0 0-.1.2 2.64 2.64 0 0 1-.1.31 3.73 3.73 0 0 0-.15.47 5.12 5.12 0 0 1-.17.57 2.55 2.55 0 0 0-.13.61 5.4 5.4 0 0 1-.1.58 2.35 2.35 0 0 0-.08.63v.71a4.18 4.18 0 0 0 0 .71q0 .36.06.75a3.51 3.51 0 0 0 .12.7q.07.31.15.57a1.56 1.56 0 0 0 .22.47l.26.39a1.41 1.41 0 0 0 .34.36 1.76 1.76 0 0 1 .37.33 1 1 0 0 0 .36.24l.38.14.3.08h.26.29.32 1.1a2.15 2.15 0 0 0 .45 0l.47-.14a2 2 0 0 0 .46-.23l.44-.33.42-.34.38-.3.4-.3.37-.3a2.42 2.42 0 0 0 .32-.32 3.28 3.28 0 0 1 .31-.34 1.6 1.6 0 0 0 .28-.32l.23-.31a.86.86 0 0 0 .17-.31 1.06 1.06 0 0 1 .16-.32 1.14 1.14 0 0 0 .15-.36c0-.13.07-.25.11-.38a1 1 0 0 0 .06-.43 3.08 3.08 0 0 1 0-.51 2.83 2.83 0 0 0 0-.5 2.78 2.78 0 0 1 0-.5 1.09 1.09 0 0 0-.06-.51 1.59 1.59 0 0 1-.1-.39 2.34 2.34 0 0 0-.08-.35c0-.13-.08-.27-.13-.41a2.65 2.65 0 0 0-.21-.46l-.25-.41a1.71 1.71 0 0 0-.29-.33l-.3-.3a.9.9 0 0 0-.23-.21l-.22-.14a1 1 0 0 0-.25-.1.63.63 0 0 1-.23-.1.76.76 0 0 0-.22-.1l-.28-.07-.28-.05a1.77 1.77 0 0 0-.3 0 2.06 2.06 0 0 1-.33 0 1.7 1.7 0 0 0-.31 0 1.48 1.48 0 0 1-.29 0h-.27a1.12 1.12 0 0 1-.26 0h-.24a1.81 1.81 0 0 0-.29 0l-.29.1a1.37 1.37 0 0 1-.29.07.71.71 0 0 0-.28.08 1.34 1.34 0 0 1-.24.12.85.85 0 0 0-.25.13l-.22.14a.48.48 0 0 0-.22.19 1.6 1.6 0 0 1-.21.23l-.18.23a2 2 0 0 1-.17.23l-.18.27a2.73 2.73 0 0 1-.21.3 1.42 1.42 0 0 0-.21.39 3.62 3.62 0 0 1-.2.44 1.48 1.48 0 0 0-.16.38 2.24 2.24 0 0 1-.11.34 1.11 1.11 0 0 0-.08.37c0 .13 0 .27-.05.41a2.06 2.06 0 0 0 0 .44v.47a1.25 1.25 0 0 0 0 .47l.11.41a1.16 1.16 0 0 0 .22.38l.32.37a1.31 1.31 0 0 0 .36.3l.35.23a2.59 2.59 0 0 0 .33.19l.34.15.34.15.33.15.31.15.26.13a.84.84 0 0 0 .24.07l.26.06a1.24 1.24 0 0 0 .29.06h.31.39a2 2 0 0 0 .44 0 1.5 1.5 0 0 0 .43-.13l.41-.18.39-.22.32-.23a1.84 1.84 0 0 0 .25-.21l.23-.28a4.05 4.05 0 0 0 .21-.35 1.49 1.49 0 0 0 .14-.45c0-.17.07-.34.12-.53a4.68 4.68 0 0 0 .12-.52l.06-.47a3.44 3.44 0 0 0 0-.46v-.39-.3a2.09 2.09 0 0 1 0-.26 1.42 1.42 0 0 0 0-.27c0-.12 0-.23-.06-.36a2.3 2.3 0 0 0-.12-.42l-.15-.46a1.51 1.51 0 0 0-.18-.36 1.94 1.94 0 0 1-.21-.29 1.15 1.15 0 0 0-.18-.23 1.06 1.06 0 0 1-.15-.15.45.45 0 0 0-.14-.1 1.22 1.22 0 0 1-.24-.18z" class="E"></path><g class="B C D"><path d="M54.08 64.1a5.56 5.56 0 0 0-2.71 1.37 5.47 5.47 0 0 0-1.35 1.87 5.74 5.74 0 0 0-.4 1.84 5.59 5.59 0 0 0 .44 2.25 2.66 2.66 0 0 0 1.39 1.68 4.26 4.26 0 0 0 2.42.07 12.74 12.74 0 0 0 2.41-.68 8.25 8.25 0 0 0 1.89-1.15 3.31 3.31 0 0 0 1.24-1.62 4.66 4.66 0 0 0 .16-1.71 4.07 4.07 0 0 0-.55-1.65 2.81 2.81 0 0 0-1.53-1.18 19.91 19.91 0 0 0-2.19-.69 3.26 3.26 0 0 0-3.51 1.44 9 9 0 0 0-.77 1.59 7.71 7.71 0 0 0-.34 1.85 8.49 8.49 0 0 0 0 1.9 1.19 1.19 0 0 0 1.14 1.06 2.28 2.28 0 0 0 1.7-.33 11.08 11.08 0 0 0 1.43-1.15 2.61 2.61 0 0 0 .79-1.55 3.47 3.47 0 0 0-.18-1.7 1.44 1.44 0 0 0-1.25-.94 2.17 2.17 0 0 0-1.67.4 2.57 2.57 0 0 0-.95 1.43 1.06 1.06 0 0 0 .51 1.33 1.67 1.67 0 0 0 2.45-1.41 1.9 1.9 0 0 0-.39-1.4 5.67 5.67 0 0 1-.63-.75 3.54 3.54 0 0 1-.35-.67 1.71 1.71 0 0 1-.11-.74 3.7 3.7 0 0 1 .13-.74 1.78 1.78 0 0 1 .36-.66 2.92 2.92 0 0 1 .55-.51 1.85 1.85 0 0 1 .68-.31 2.46 2.46 0 0 1 .75-.08 2.49 2.49 0 0 1 .73.17 2.15 2.15 0 0 1 .64.39 3 3 0 0 1 .48.58 1.69 1.69 0 0 1 .28.7 4.71 4.71 0 0 1 0 .75 1.51 1.51 0 0 1-.21.72 2.74 2.74 0 0 1-.43.62 1.69 1.69 0 0 1-.6.45 3 3 0 0 1-.71.24 2.11 2.11 0 0 1-.75 0 2.21 2.21 0 0 1-.71-.25 2.82 2.82 0 0 1-.6-.46 1.57 1.57 0 0 1-.41-.62 3.58 3.58 0 0 1-.2-.73 1.6 1.6 0 0 1 .05-.75 4.15 4.15 0 0 1 .28-.69 1.69 1.69 0 0 1 .5-.57 3.66 3.66 0 0 1 .64-.39 2.17 2.17 0 0 1 .74-.15 2.46 2.46 0 0 1 .74.09 2.32 2.32 0 0 1 .68.32l.32.22.52.5a4.47 4.47 0 0 1 .97 1.24 7.31 7.31 0 0 1 .64 2 6.79 6.79 0 0 1 .15 2c-.06.61-.17 1.28-.32 2a4.87 4.87 0 0 1-.92 2 6 6 0 0 1-1.44 1.35A5.27 5.27 0 0 1 55 75a5.89 5.89 0 0 1-1.8.13 6.15 6.15 0 0 1-1.73-.42l-1.63-.73a8.33 8.33 0 0 1-1.44-1 4.4 4.4 0 0 1-1.09-1.45 5.07 5.07 0 0 1-.49-1.88 6.83 6.83 0 0 1 .11-1.89 9.83 9.83 0 0 1 .54-1.73 7.53 7.53 0 0 1 1-1.69 7.28 7.28 0 0 1 1.42-1.4 5.18 5.18 0 0 1 1.87-.86 8.28 8.28 0 0 1 2-.25 6.91 6.91 0 0 1 1.87.25 8 8 0 0 1 1.75.69 5.34 5.34 0 0 1 1.5 1.24 5.75 5.75 0 0 1 1 1.79 10.14 10.14 0 0 1 .47 1.86 8.11 8.11 0 0 1 0 1.78 8.41 8.41 0 0 1-.35 1.77 5.55 5.55 0 0 1-.86 1.73 13.28 13.28 0 0 1-1.29 1.48 13 13 0 0 1-1.37 1.15 9.29 9.29 0 0 1-1.57 1 4.59 4.59 0 0 1-1.91.44 16.23 16.23 0 0 1-1.91 0 4.75 4.75 0 0 1-1.78-.62 6.06 6.06 0 0 1-1.54-1.18 5.41 5.41 0 0 1-1-1.82 7.71 7.71 0 0 1-.47-2.13 16.63 16.63 0 0 1 0-2.09 10.85 10.85 0 0 1 .43-2.32 14.52 14.52 0 0 1 .76-2 9.13 9.13 0 0 1 1-1.72 12.51 12.51 0 0 1 1.64-1.76 3.6 3.6 0 0 1 2-1 8.2 8.2 0 0 1 2 0 10.36 10.36 0 0 1 1.87.41l1.8.62a16.48 16.48 0 0 1 1.84.85 5.68 5.68 0 0 1 1.62 1.26 6.17 6.17 0 0 1 1.13 2 7.25 7.25 0 0 1 .43 2.68 7.47 7.47 0 0 1-.47 2.6 5 5 0 0 1-1.52 2.08 14.37 14.37 0 0 1-1.81 1.26 14.17 14.17 0 0 1-1.83.91l-2.2.82a7 7 0 0 1-2.35.35 6.44 6.44 0 0 1-2.17-.41 4.38 4.38 0 0 1-1.63-1.11 5.79 5.79 0 0 1-1-1.56 9.85 9.85 0 0 1-.59-2 9.2 9.2 0 0 1-.14-2.42 11.63 11.63 0 0 1 .48-2.62 6.81 6.81 0 0 1 1.22-2.4 6.94 6.94 0 0 1 1.77-1.61 5.93 5.93 0 0 1 1.83-.77 8.52 8.52 0 0 0 1.07-.27.58.58 0 0 1 .37 0l.37.09a.65.65 0 0 1 .33.17l.29.25a1.17 1.17 0 0 1 .21.3 1.49 1.49 0 0 1 .14.35v.37a.69.69 0 0 1 0 .37c0 .1-.08.22-.13.36a.58.58 0 0 1-.21.31 1.57 1.57 0 0 0-.27.25.54.54 0 0 1-.33.18zm47.81 2.93a5.57 5.57 0 0 0-2.45.33 4.88 4.88 0 0 0-1.61 1.07 2 2 0 0 0-.42 1.85 5 5 0 0 0 .81 2 3 3 0 0 0 1.53 1.14 3.51 3.51 0 0 0 2.06 0 6 6 0 0 0 1.93-.84 3.79 3.79 0 0 0 1.28-1.54 5.93 5.93 0 0 0 .58-2.21 4.82 4.82 0 0 0-.38-2.25 7.1 7.1 0 0 0-1-1.8 1.74 1.74 0 0 0-1.86-.42 5.69 5.69 0 0 0-2 .81 2.09 2.09 0 0 0-.88 1.37 9 9 0 0 0-.13 1.92 1.83 1.83 0 0 0 .83 1.58 2 2 0 0 0 1.64.32 2.1 2.1 0 0 0 1.31-.92 1.2 1.2 0 0 0-.11-1.5 1.81 1.81 0 0 0-1.45-.79 4.13 4.13 0 0 0-1.68.28c-.52.21-.72.31-.58.31s.1.07-.11.23a1.89 1.89 0 0 1-.68.34 2.76 2.76 0 0 1-.75.1 2.12 2.12 0 0 1-.75-.14 2.37 2.37 0 0 1-.66-.38 2.11 2.11 0 0 1-.51-.56 2 2 0 0 1-.3-.7 3.13 3.13 0 0 1-.06-.76 1.83 1.83 0 0 1 .18-.74 4.06 4.06 0 0 1 .41-.64 1.84 1.84 0 0 1 .59-.48 4.77 4.77 0 0 1 .72-.26 1.76 1.76 0 0 1 .76 0 3.44 3.44 0 0 1 .73.22 2 2 0 0 1 .61.45 2.57 2.57 0 0 1 .45.62 2.25 2.25 0 0 1 .22.72 1.92 1.92 0 0 1 0 .76 3 3 0 0 1-.26.72 1.64 1.64 0 0 1-.48.59 3.87 3.87 0 0 1-.64.41 1.73 1.73 0 0 1-.74.19 3.77 3.77 0 0 1-.76-.07 1.71 1.71 0 0 1-.7-.3 2.77 2.77 0 0 1-.56-.51 2.12 2.12 0 0 1-.38-.66 2.05 2.05 0 0 1-.14-.74 4.29 4.29 0 0 1 .1-.76 1.68 1.68 0 0 1 .34-.68c.16-.19.24-.29.23-.31a7.44 7.44 0 0 1 1.09-.71 10.55 10.55 0 0 1 2-1 5.13 5.13 0 0 1 1.89-.28 12.34 12.34 0 0 1 1.9.19 9.68 9.68 0 0 1 1.75.49 5.88 5.88 0 0 1 1.65 1 4.62 4.62 0 0 1 1.24 1.67 5.39 5.39 0 0 1 .47 2 9 9 0 0 1-.12 1.87 5.19 5.19 0 0 1-.66 1.79 11 11 0 0 1-1.11 1.52 5.22 5.22 0 0 1-1.4 1.15 10.27 10.27 0 0 1-1.75.79 5.08 5.08 0 0 1-1.94.24 15.26 15.26 0 0 1-2-.27 3.91 3.91 0 0 1-1.64-.74 7 7 0 0 1-1.28-1.27 6.33 6.33 0 0 1-1-1.81 6.92 6.92 0 0 1-.37-2.09 19.2 19.2 0 0 1 0-2.24 8.34 8.34 0 0 1 .35-2 9.83 9.83 0 0 1 .96-1.76 4.32 4.32 0 0 1 1.63-1.58 9.31 9.31 0 0 1 2.23-.83 15.83 15.83 0 0 1 2.39-.42 11.3 11.3 0 0 1 2.08 0 3.38 3.38 0 0 1 1.82.79 9.66 9.66 0 0 1 1.44 1.41 16.56 16.56 0 0 1 1.14 1.56 5.52 5.52 0 0 1 .8 1.86 7.74 7.74 0 0 1 .2 2c0 .66-.07 1.37-.14 2.11a11.85 11.85 0 0 1-.36 2.08 5.14 5.14 0 0 1-.92 1.82 12.66 12.66 0 0 1-1.33 1.51 6.86 6.86 0 0 1-1.66 1.16 19.92 19.92 0 0 1-2.35 1 5.62 5.62 0 0 1-2.75.29 11 11 0 0 1-2.42-.58 5.48 5.48 0 0 1-1.85-1.18 7.6 7.6 0 0 1-1.46-2 10.11 10.11 0 0 1-.91-2.58 6.68 6.68 0 0 1-.19-2.23 5.7 5.7 0 0 1 1-2.18 6.5 6.5 0 0 1 1.59-1.81l1.52-.92a5.53 5.53 0 0 1 1.79-.63 14.25 14.25 0 0 1 1.74-.22 2.93 2.93 0 0 1 1 0 2.47 2.47 0 0 0 .43.11.75.75 0 0 1 .38.22 4.09 4.09 0 0 0 .33.3 1 1 0 0 1 .24.38l.14.42a1.73 1.73 0 0 1 0 .44 1.27 1.27 0 0 1-.06.43l-.18.41a.72.72 0 0 1-.25.36 3.56 3.56 0 0 0-.35.28.73.73 0 0 1-.39.2 1.81 1.81 0 0 0-.44.09z" class="F"></path><path d="M97.33 38.34a4.58 4.58 0 0 1 1.27-1.17 7.33 7.33 0 0 1 1.87-.71 36.77 36.77 0 0 1 3.77-.65l2.66-.35a.37.37 0 0 1 .15 0l.12.07a.18.18 0 0 1 .1.11l.06.13a.34.34 0 0 1 0 .15.57.57 0 0 1 0 .14.28.28 0 0 1-.08.12.19.19 0 0 1-.11.09l-.14.06a.22.22 0 0 1-.14 0h-.15a.21.21 0 0 1-.11-.08.94.94 0 0 1-.09-.12.34.34 0 0 1 0-.14.66.66 0 0 1 0-.15.3.3 0 0 1 0-.14.24.24 0 0 1 .09-.11.62.62 0 0 1 .12-.08.25.25 0 0 1 .14 0h.16a.31.31 0 0 1 .13.06l.11.1a.21.21 0 0 1 .08.12q0 .09 0 .15a.93.93 0 0 1 0 .14.32.32 0 0 1-.07.13l-.1.11a.18.18 0 0 1-.13.06h-.07l-2.52.38a28.18 28.18 0 0 0-3.54.68 6.44 6.44 0 0 0-1.49.62 2.41 2.41 0 0 0-.72.7 3.84 3.84 0 0 1-.33.44l-.13.11a.31.31 0 0 1-.14.07.44.44 0 0 0-.15 0 .25.25 0 0 1-.17 0l-.15-.05a.2.2 0 0 1-.14-.08l-.12-.11a.17.17 0 0 1-.08-.13.57.57 0 0 0-.06-.15.43.43 0 0 1 0-.17.49.49 0 0 1 0-.15.77.77 0 0 1 .06-.15zm-51.04-4.91l2 .08 1.64.25 1.73.42 1.62.46 2 .61 1.28.43.1.07a.36.36 0 0 1 .07.1v.11a.17.17 0 0 1 0 .12.36.36 0 0 1 0 .11l-.07.09a.27.27 0 0 1-.1.06h-.12-.12l-.11-.05a.3.3 0 0 1-.08-.08l-.06-.1a.17.17 0 0 1 0-.12l-.05-.05a.14.14 0 0 1 .05-.1l.09-.08a.17.17 0 0 1 .1-.06h.12.12l.1.06.08.09a.17.17 0 0 1 0 .11.49.49 0 0 0 0 .12.11.11 0 0 1 0 .11.64.64 0 0 0-.06.1.29.29 0 0 1-.1.08h-.11-.19l-1.2-.43c-.81-.29-1.47-.44-2-.57l-1.59-.41-1.66-.33a11.66 11.66 0 0 0-1.54-.16h-1.34-.66a.26.26 0 0 1-.14 0l-.07.01a.2.2 0 0 1-.11-.09.28.28 0 0 0-.08-.11.17.17 0 0 1 0-.12.59.59 0 0 0 0-.14.17.17 0 0 1 0-.14.33.33 0 0 0 0-.13.19.19 0 0 1 .08-.11l.1-.1a.33.33 0 0 1 .12-.06.24.24 0 0 1 .13 0zm46.2 55.04a18.79 18.79 0 0 1 1.89.87l2 1 2.52 1.12 2.85 1.06 3 .87 2.82.61 2.38.35a16 16 0 0 0 1.76.14 6.18 6.18 0 0 0 1.23-.09 13.77 13.77 0 0 0 1.37-.36l1-.27h.12a.15.15 0 0 1 .11 0l.09.07a.21.21 0 0 1 .06.1.26.26 0 0 1 0 .11.49.49 0 0 1 0 .12.36.36 0 0 1 0 .11l-.08.08a.27.27 0 0 1-.1.06h-.12a.25.25 0 0 1-.12 0l-.1-.06a.15.15 0 0 1-.08-.08.27.27 0 0 1 0-.11.2.2 0 0 1 0-.11.43.43 0 0 1 0-.12.37.37 0 0 1 .06-.1l.09-.08h.1a.17.17 0 0 1 .12 0h.11a.21.21 0 0 1 .1.06l.08.09a.2.2 0 0 1 0 .11.57.57 0 0 1 0 .12.76.76 0 0 1 0 .11.18.18 0 0 1-.07.1l-.09.06-.94.29a7.38 7.38 0 0 1-1.49.35 12.78 12.78 0 0 1-1.32 0 14.23 14.23 0 0 1-1.82-.13l-2.42-.35a29.27 29.27 0 0 1-2.89-.6l-3-.86-2.9-1-2.79-1.02-2-.92a12.72 12.72 0 0 0-1.35-.59 5.37 5.37 0 0 1-.58-.22l-.1-.07a.36.36 0 0 1-.08-.09.47.47 0 0 1 0-.1v-.11-.12-.11a.29.29 0 0 1 .06-.11l.08-.09a.24.24 0 0 1 .09-.06h.11a.25.25 0 0 1 .12 0h.12zm-26.63.74a14.37 14.37 0 0 1-1.55 1.13 12 12 0 0 1-1.44.74 18.42 18.42 0 0 1-2 .71l-2.41.63-2.6.53-2.49.47-2.07.4-1.52.3a7.24 7.24 0 0 0-1 .23 8.84 8.84 0 0 1-1.4.19l-1.09.08a.2.2 0 0 1-.15-.06l-.13-.11a.28.28 0 0 1-.09-.14v-.16a.31.31 0 0 1 0-.16.57.57 0 0 1 .1-.15.45.45 0 0 1 .12-.12.41.41 0 0 1 .14-.08.76.76 0 0 1 .16 0 .31.31 0 0 1 .17 0l.14.08a.34.34 0 0 1 .12.12 1 1 0 0 1 .07.15.29.29 0 0 1 0 .16.71.71 0 0 1 0 .17.41.41 0 0 1-.08.14l-.13.11-.15.06a.46.46 0 0 1-.16 0h-.16a.28.28 0 0 1-.14-.09.64.64 0 0 1-.1-.13.47.47 0 0 1-.06-.15v-.17a.4.4 0 0 1 .06-.16l.09-.13a.34.34 0 0 1 .14-.09h.16.08.91 1.32a9.35 9.35 0 0 0 1-.16l1.53-.31 2.07-.41 2.47-.49q1.34-.26 2.55-.54l2.34-.64a16.89 16.89 0 0 0 1.84-.7 11.83 11.83 0 0 0 1.3-.73 7.48 7.48 0 0 0 1-.76l.48-.44h.11.11.12.11a.22.22 0 0 1 .11 0l.08.08a.36.36 0 0 1 .07.1.49.49 0 0 1 0 .11.37.37 0 0 1 0 .11l.01.12a.35.35 0 0 1-.06.09z" stroke-width="2.44"></path></g></svg><style>@media (prefers-color-scheme: light) { :root { filter: none; } }
@media (prefers-color-scheme: dark) { :root { filter: none; } }
</style></svg>