<svg xmlns="http://www.w3.org/2000/svg" width="22" height="18" fill="none" xmlns:v="https://vecta.io/nano"><path d="M18.748 2C20.165 3.97 21 6.388 21 9s-.835 5.03-2.252 7M14.745 5C15.536 6.134 16 7.513 16 9s-.464 2.866-1.255 4M8.634 2.366L5.469 5.531c-.173.173-.259.259-.36.321a1 1 0 0 1-.289.12C4.704 6 4.582 6 4.337 6H2.6c-.56 0-.84 0-1.054.109a1 1 0 0 0-.437.437C1 6.76 1 7.04 1 7.6v2.8c0 .56 0 .84.109 1.054a1 1 0 0 0 .437.437C1.76 12 2.04 12 2.6 12h1.737c.245 0 .367 0 .482.028a1 1 0 0 1 .289.12c.101.062.187.148.36.321l3.166 3.166c.428.428.643.643.826.657a.5.5 0 0 0 .419-.174c.12-.14.12-.443.12-1.049V2.931c0-.606 0-.909-.12-1.049a.5.5 0 0 0-.419-.174c-.184.014-.398.229-.826.657z" stroke="#fff" stroke-width="2" stroke-linecap="round" stroke-linejoin="round"/></svg>