<svg xmlns="http://www.w3.org/2000/svg" viewBox="0 0 72 72" xmlns:v="https://vecta.io/nano"><path fill="#fcea2b" d="M41.597 36.354l-8.541-.037h-1.993v2.957l.009 3.094 7.705.034h2.82z"/><path d="M31.531 42.145l-.364-3.178-13.2-.453c-1.91 0-6.463-.196-6.859-1.988l.43 5.877h.02c.118-.42.488.575.946.575s.828-.995.947-.575H30.22c-.023-.084 1.312-.166 1.312-.257zm25.343-3.481H41.951v3.481c0 .091.512.173.489.257h16.05c.124-.411.491.784.942.784s.818-1.194.943-.784h.012l.44-6.27c-.235 1.983-3.213 1.963-3.953 2.532zm4-3.385v.178l.012-.178z" fill="#6a462f"/><path d="M12.008 36.814s-.222 1.909 3.76 1.851c2.983-.044 14.852 0 14.852 0l1.024-1.898 9.399-.079 1.398 1.696s11.971.511 14.433.281c3.239-.302 3-3.891 3-4V19.921H12.008v16.893zm30.484 4.839H30.167 12.533v.021c.538.017-.525 1.316-.525 1.858l.495 15.318h46.929V42.688c0-.493-.637-.884-.167-.966l.002-.068H42.492z" fill="#a57939"/><g fill="none" stroke="#000"><path d="M31.456 15.891v-3.839h10.325v3.839m17.652 26.797V58.85H12.504V42.668m29.447-4.004h14.923a3 3 0 0 0 3-3V19.921H12.008v15.743a3 3 0 0 0 3 3H30.62" stroke-linecap="round" stroke-linejoin="round" stroke-miterlimit="10" stroke-width="2"/><path stroke-linejoin="round" stroke-miterlimit="10" stroke-width="2" d="M31.167 36.317h10.325v5.828H31.167z"/></g></svg>