<svg xmlns="http://www.w3.org/2000/svg" viewBox="0 0 72 72" xmlns:v="https://vecta.io/nano"><path d="M48.856 16c3-2 4-5 3-9 7 2 6 10 3 15m-31.712-6c-3-2-4-5-3-9-7 2-6 10-3 15" fill="#d22f27"/><path fill="#ea5a47" d="M36 13c-12.682 0-23 10.318-23 23s10.318 23 23 23 23-10.318 23-23-10.318-23-23-23z"/><circle cx="36" cy="36" r="23" fill="none" stroke="#000" stroke-width="2"/><path d="M30 32.925a3 3 0 1 1-6 0c0-1.655 1.345-3 3-3s3 1.345 3 3m18 0a3 3 0 1 1-6 0c0-1.655 1.345-3 3-3s3 1.345 3 3"/><path d="M23 25l7 4m19-4l-7 4m6.856-13c3-2 4-5 3-9 7 2 6 10 3 15m-31.712-6c-3-2-4-5-3-9-7 2-6 10-3 15M42.5 43c-1.284.638-3.985 1.031-6.842.998-2.623-.03-4.99-.415-6.158-.998" fill="none" stroke="#000" stroke-width="2" stroke-linecap="round" stroke-linejoin="round" stroke-miterlimit="10"/></svg>