<svg xmlns="http://www.w3.org/2000/svg" width="278" height="145" fill="#fff" xmlns:v="https://vecta.io/nano"><path d="M9.48 62.83l1.3-.5c.873-.34 1.537-.823 1.99-1.45l2.05-2.67c.913-1.153 2.713-2.653 5.4-4.5l7.49-5.22c2.313-1.633 4.907-3.267 7.78-4.9 2.873-1.64 6.003-3.267 9.39-4.88 3.38-1.62 6.72-3.08 10.02-4.38l10.24-4.14c3.527-1.46 6.793-2.953 9.8-4.48s6.43-2.787 10.27-3.78l11.82-3.02c4.047-1.02 8.327-1.903 12.84-2.65l14.22-2.51L137 11.31a104.31 104.31 0 0 1 10.61-1.5c3.433-.307 6.34-.523 8.72-.65 2.373-.127 4.99-.217 7.85-.27l7.94-.12 6.6-.04 6.03-.02c2.067-.007 4.207.303 6.42.93 2.22.633 4.68 1.227 7.38 1.78 2.7.56 5.863 1.27 9.49 2.13 3.627.853 7.42 1.613 11.38 2.28l10.8 1.88c3.233.593 6.473 1.327 9.72 2.2s6.14 1.487 8.68 1.84c2.54.36 4.663.62 6.37.78 1.707.153 3.287.54 4.74 1.16 1.453.613 2.247.97 2.38 1.07.14.1.257.22.35.36.1.14.173.29.22.45a1.54 1.54 0 0 1 .06.5c-.007.167-.04.33-.1.49a1.64 1.64 0 0 1-.25.43c-.107.127-.233.237-.38.33-.14.087-.293.15-.46.19s-.333.05-.5.03c-.167-.013-.327-.053-.48-.12-.16-.073-.3-.167-.42-.28a1.45 1.45 0 0 1-.31-.39c-.08-.147-.137-.303-.17-.47-.027-.167-.027-.333 0-.5.02-.167.07-.327.15-.48a1.25 1.25 0 0 1 .3-.4 1.48 1.48 0 0 1 .41-.29c.147-.073.307-.12.48-.14.167-.02.333-.013.5.02.16.033.313.093.46.18s.277.193.39.32.2.267.26.42a1.58 1.58 0 0 1 .12.49 1.42 1.42 0 0 1-.05.5 1.44 1.44 0 0 1-.2.45 1.39 1.39 0 0 1-.34.37c-.133.107-.28.187-.44.24-.16.06-.323.09-.49.09a1.78 1.78 0 0 1-.5-.07l-.24-.08-1.62-1.02c-1.08-.68-2.483-1.1-4.21-1.26-1.727-.153-3.91-.42-6.55-.8-2.647-.373-5.557-.99-8.73-1.85a122.57 122.57 0 0 0-9.61-2.17l-10.86-1.9c-4.013-.673-7.823-1.437-11.43-2.29l-9.55-2.14c-2.767-.573-5.143-1.157-7.13-1.75-1.98-.593-3.997-.89-6.05-.89l-6 .03-6.58.05-7.89.11c-2.827.053-5.413.143-7.76.27a259.63 259.63 0 0 0-8.53.63c-3.347.293-6.843.79-10.49 1.49l-12.94 2.45-14.13 2.51c-4.44.733-8.683 1.613-12.73 2.64l-11.54 2.94c-3.647.933-7.003 2.18-10.07 3.74-3.06 1.567-6.357 3.09-9.89 4.57l-10.15 4.17c-3.227 1.293-6.493 2.747-9.8 4.36-3.3 1.607-6.333 3.217-9.1 4.83-2.767 1.62-5.297 3.277-7.59 4.97l-7.01 5.03c-2.38 1.66-4.023 3.15-4.93 4.47-.907 1.313-1.833 2.4-2.78 3.26-.94.86-1.893 1.427-2.86 1.7l-1.65.46a1.47 1.47 0 0 1-.38.03c-.133-.007-.263-.027-.39-.06a1.68 1.68 0 0 1-.37-.16c-.113-.067-.22-.147-.32-.24a1.89 1.89 0 0 1-.25-.31c-.067-.113-.123-.23-.17-.35a1.93 1.93 0 0 1-.08-.39 1.94 1.94 0 0 1 .02-.39c.02-.133.057-.26.11-.38a1.75 1.75 0 0 1 .2-.34 1.85 1.85 0 0 1 .27-.29 1.51 1.51 0 0 1 .34-.21l.18-.09z"/><path d="M259.6 32.36l-3.68-.04c-2.453-.02-5.62-.347-9.5-.98l-11-1.82c-3.453-.58-7.767-1.457-12.94-2.63L204.55 23l-20.94-4.41c-7.18-1.527-14.26-2.61-21.24-3.25-6.987-.647-13.653-1.107-20-1.38l-17.69-.59c-5.46-.12-10.407-.053-14.84.2-4.433.26-8.663.597-12.69 1.01s-7.677.707-10.95.88c-3.273.18-6.487.61-9.64 1.29L67 18.67c-3.227.6-6.563 1.48-10.01 2.64-3.453 1.16-6.343 2.43-8.67 3.81-2.333 1.38-4.633 2.683-6.9 3.91-2.267 1.213-4.307 2.52-6.12 3.92-1.82 1.4-4.033 3.31-6.64 5.73-2.6 2.42-4.58 4.723-5.94 6.91-1.353 2.18-2.47 4.477-3.35 6.89-.873 2.42-1.497 4.44-1.87 6.06l-.94 4.31c-.253 1.24-.41 1.93-.47 2.07-.06.147-.137.277-.23.39-.1.113-.217.21-.35.29a1.61 1.61 0 0 1-.42.16 1.69 1.69 0 0 1-.45.02c-.153-.02-.297-.063-.43-.13-.14-.067-.263-.153-.37-.26a1.11 1.11 0 0 1-.27-.36 1.21 1.21 0 0 1-.14-.43c-.027-.147-.027-.297 0-.45.027-.147.077-.287.15-.42a1.45 1.45 0 0 1 .28-.36c.113-.1.237-.18.37-.24a1.27 1.27 0 0 1 .44-.12c.153-.013.303-.003.45.03s.287.09.42.17a1.45 1.45 0 0 1 .34.3 1.35 1.35 0 0 1 .22.38 1.18 1.18 0 0 1 .09.45 1.42 1.42 0 0 1-.05.44c-.04.147-.103.283-.19.41a1.22 1.22 0 0 1-.32.32 1.28 1.28 0 0 1-.4.21c-.14.047-.287.07-.44.07a1.61 1.61 0 0 1-.44-.08 1.46 1.46 0 0 1-.4-.22c-.12-.093-.223-.203-.31-.33-.08-.127-.14-.263-.18-.41s-.053-.297-.04-.45l.01-.22.48-1.85c.32-1.233.68-2.71 1.08-4.43.407-1.727 1.087-3.88 2.04-6.46a39.02 39.02 0 0 1 3.67-7.4c1.5-2.353 3.587-4.77 6.26-7.25s4.977-4.457 6.91-5.93 4.02-2.813 6.26-4.02c2.24-1.213 4.607-2.547 7.1-4s5.523-2.777 9.09-3.97c3.573-1.193 6.96-2.087 10.16-2.68l9.73-1.95c3.287-.693 6.547-1.13 9.78-1.31 3.233-.173 6.883-.47 10.95-.89s8.35-.757 12.85-1.01c4.507-.26 9.497-.333 14.97-.22l17.79.58c6.387.273 13.127.737 20.22 1.39 7.087.653 14.22 1.737 21.4 3.25l20.96 4.39 17.88 3.83c5.127 1.147 9.417 2 12.87 2.56l10.78 1.71c3.727.593 6.817.88 9.27.86l3.85-.01c.127.013.247.04.36.08.12.047.233.107.34.18a1.99 1.99 0 0 1 .28.25 1.86 1.86 0 0 1 .21.3c.06.113.103.23.13.35.033.127.05.25.05.37s-.017.243-.05.37c-.027.12-.07.237-.13.35a1.87 1.87 0 0 1-.21.3c-.087.093-.18.177-.28.25-.107.073-.22.133-.34.18a1.57 1.57 0 0 1-.36.08l-.18.03z"/><path d="M12.78 63.22l.99.85 1.88 1.65 2.48 2.05 4.6 3.72c2.013 1.64 4.093 3.767 6.24 6.38l6.33 7.37 5.85 6.79 5.23 6.12c1.667 1.847 3.277 3.287 4.83 4.32a25.72 25.72 0 0 1 4.4 3.73l3.82 3.98 2.95 2.95c.807.76 1.747 1.253 2.82 1.48s2.383.75 3.93 1.57c1.547.813 3.52 1.683 5.92 2.61l8.34 2.91c3.167 1.013 6.627 1.887 10.38 2.62 3.76.727 7.237 1.563 10.43 2.51 3.193.94 5.747 1.603 7.66 1.99s3.76.823 5.54 1.31c1.773.48 3.46.817 5.06 1.01 1.607.193 3.36.33 5.26.41 1.9.087 4.02.15 6.36.19l8.23.08 9.93.03c3.48.007 6.823-.44 10.03-1.34s6.73-2 10.57-3.3a110.5 110.5 0 0 0 11.38-4.6c3.74-1.767 7.787-3.79 12.14-6.07l13.01-6.73c4.313-2.207 8.293-4.383 11.94-6.53 3.653-2.147 7.187-4.143 10.6-5.99s6.443-3.613 9.09-5.3 5.013-3.053 7.1-4.1c2.093-1.053 3.683-2.073 4.77-3.06a32.08 32.08 0 0 1 3.35-2.67c1.14-.793 2.04-1.747 2.7-2.86.667-1.113 1.303-2.12 1.91-3.02.607-.893.977-1.75 1.11-2.57.14-.813.27-1.847.39-3.1.113-1.247.54-2.553 1.28-3.92.733-1.367 1.227-2.677 1.48-3.93.253-1.267.447-2.937.58-5.01s.227-3.2.28-3.38c.047-.187.12-.357.22-.51.107-.153.233-.287.38-.4s.307-.203.48-.27c.18-.06.363-.09.55-.09s.367.027.54.08a1.65 1.65 0 0 1 .49.26 1.56 1.56 0 0 1 .39.39c.107.153.187.32.24.5.047.18.067.363.06.55a1.66 1.66 0 0 1-.11.54 1.75 1.75 0 0 1-.28.48 1.82 1.82 0 0 1-.42.36 1.62 1.62 0 0 1-.51.21 1.69 1.69 0 0 1-.55.03c-.187-.013-.367-.06-.54-.14a1.7 1.7 0 0 1-.46-.3c-.133-.127-.247-.273-.34-.44-.087-.167-.147-.34-.18-.52-.027-.187-.027-.37 0-.55.027-.187.083-.363.17-.53a1.67 1.67 0 0 1 .33-.44 1.62 1.62 0 0 1 .45-.32c.173-.08.35-.13.53-.15.187-.02.373-.013.56.02a1.77 1.77 0 0 1 .51.2 1.82 1.82 0 0 1 .42.36c.127.14.223.297.29.47.073.173.117.353.13.54l.02.27-.42 3.24c-.287 2.16-.583 4.03-.89 5.61-.313 1.573-.763 2.853-1.35 3.84-.587.993-.937 2.197-1.05 3.61-.113 1.42-.373 2.687-.78 3.8s-.947 2.057-1.62 2.83c-.667.773-1.45 1.843-2.35 3.21-.893 1.367-1.887 2.407-2.98 3.12-1.087.72-2.267 1.637-3.54 2.75-1.267 1.113-2.91 2.173-4.93 3.18-2.02 1.013-4.38 2.377-7.08 4.09-2.7 1.72-5.743 3.493-9.13 5.32-3.387 1.833-6.927 3.837-10.62 6.01-3.7 2.173-7.703 4.36-12.01 6.56l-13.04 6.75c-4.387 2.3-8.497 4.35-12.33 6.15-3.833 1.807-7.693 3.367-11.58 4.68-3.893 1.32-7.557 2.447-10.99 3.38s-6.897 1.397-10.39 1.39l-9.96-.03-8.28-.08-6.5-.18c-1.967-.087-3.813-.237-5.54-.45a38.34 38.34 0 0 1-5.18-1.01c-1.72-.467-3.577-.9-5.57-1.3s-4.547-1.053-7.66-1.96c-3.107-.913-6.593-1.74-10.46-2.48-3.86-.747-7.4-1.623-10.62-2.63-3.227-1.013-6.097-1.993-8.61-2.94s-4.453-1.773-5.82-2.48a29.47 29.47 0 0 0-4.23-1.76c-1.453-.467-2.58-1.137-3.38-2.01s-1.79-1.91-2.97-3.11l-3.62-3.78c-1.24-1.313-2.723-2.55-4.45-3.71s-3.45-2.673-5.17-4.54-3.487-3.887-5.3-6.06c-1.82-2.167-3.803-4.4-5.95-6.7-2.153-2.3-4.243-4.657-6.27-7.07-2.033-2.413-4.07-4.39-6.11-5.93-2.033-1.54-3.69-2.743-4.97-3.61-1.273-.867-2.173-1.603-2.7-2.21l-1.65-1.89-.98-1.15a2.22 2.22 0 0 1-.21-.34c-.053-.127-.09-.253-.11-.38a1.62 1.62 0 0 1-.03-.4c.007-.133.03-.263.07-.39a1.68 1.68 0 0 1 .17-.37 1.38 1.38 0 0 1 .25-.31 1.38 1.38 0 0 1 .31-.25 1.68 1.68 0 0 1 .37-.17 1.55 1.55 0 0 1 .39-.07c.133-.007.267.003.4.03.127.02.253.057.38.11a2.22 2.22 0 0 1 .34.21l.16.13z"/><path d="M269.16 38.8l-.04 2.29-.06 6.04-.5 9.98c-.32 4.16-.7 7.897-1.14 11.21-.453 3.313-1.243 6.633-2.37 9.96a131.9 131.9 0 0 1-3.81 9.85c-1.407 3.247-2.88 6.19-4.42 8.83l-4.21 7.02c-1.273 2.033-2.683 3.687-4.23 4.96-1.547 1.267-3.253 2.613-5.12 4.04s-4.03 2.477-6.49 3.15a67.77 67.77 0 0 0-6.94 2.29c-2.16.853-4.367 1.477-6.62 1.87-2.253.387-5.23.813-8.93 1.28s-8.037.8-13.01 1l-15.23.43-16.58.18-16.71.07-15.38.04-13.43.01h-10.77l-8.26.01H99.1c-1.587 0-2.87.037-3.85.11s-2.147.107-3.5.1c-1.353 0-2.86-.333-4.52-1s-3.407-1.293-5.24-1.88c-1.84-.58-3.7-1.813-5.58-3.7-1.88-1.893-3.803-3.997-5.77-6.31l-6.95-8.15c-2.667-3.127-5.187-6.283-7.56-9.47-2.38-3.193-4.67-6.063-6.87-8.61-2.207-2.547-4.057-4.337-5.55-5.37s-2.64-2.143-3.44-3.33c-.807-1.18-1.517-2.11-2.13-2.79l-2.18-2.38a111.96 111.96 0 0 0-2.9-2.98l-1.86-1.82a1.9 1.9 0 0 1-.37-.46c-.093-.173-.157-.357-.19-.55-.04-.193-.047-.387-.02-.58a1.97 1.97 0 0 1 .18-.55c.087-.18.2-.34.34-.48.14-.133.3-.243.48-.33a1.76 1.76 0 0 1 .55-.17 1.75 1.75 0 0 1 .59.02c.187.04.367.107.54.2.173.1.323.223.45.37a1.65 1.65 0 0 1 .31.49c.08.187.127.377.14.57a1.9 1.9 0 0 1-.05.58 1.53 1.53 0 0 1-.24.53c-.107.167-.237.31-.39.43-.153.127-.323.223-.51.29-.18.067-.37.1-.57.1a1.66 1.66 0 0 1-.57-.08 1.73 1.73 0 0 1-.52-.26 1.71 1.71 0 0 1-.41-.41 2.06 2.06 0 0 1-.26-.53 1.87 1.87 0 0 1-.07-.58 1.88 1.88 0 0 1 .11-.57c.067-.18.163-.347.29-.5a1.89 1.89 0 0 1 .44-.39 1.94 1.94 0 0 1 .53-.22 1.9 1.9 0 0 1 .58-.05c.2.02.39.07.57.15l.27.12c0-.007.623.677 1.87 2.05l3.2 3.52c.887.973 1.61 1.883 2.17 2.73.567.847 1.11 1.757 1.63 2.73.527.973 1.607 2.037 3.24 3.19 1.627 1.153 3.57 3.027 5.83 5.62 2.253 2.6 4.553 5.47 6.9 8.61a177.73 177.73 0 0 0 7.53 9.38l6.92 8.07c1.94 2.26 3.68 4.22 5.22 5.88 1.54 1.653 3.25 2.757 5.13 3.31 1.887.553 3.487 1.11 4.8 1.67s2.633.84 3.96.84c1.32-.007 2.47.027 3.45.1s2.263.11 3.85.11h5.81 8.25l10.77-.01 13.44-.01 15.37-.04 16.69-.07 16.54-.18 15.08-.42c4.9-.193 9.183-.52 12.85-.98 3.66-.46 6.53-.863 8.61-1.21s4.25-.963 6.51-1.85 4.477-1.593 6.65-2.12c2.173-.533 4.17-1.503 5.99-2.91l4.78-3.7c1.353-1.06 2.653-2.593 3.9-4.6 1.24-2.007 2.6-4.283 4.08-6.83 1.487-2.547 2.917-5.413 4.29-8.6a131.3 131.3 0 0 0 3.68-9.5c1.073-3.153 1.823-6.36 2.25-9.62s.787-6.933 1.08-11.02c.293-4.093.433-7.387.42-9.88l-.06-6.04-.01-2.47c.013-.127.04-.247.08-.36.047-.12.107-.233.18-.34a1.98 1.98 0 0 1 .25-.28c.093-.08.193-.15.3-.21.113-.06.23-.103.35-.13.127-.033.25-.05.37-.05s.243.017.37.05c.12.027.237.07.35.13.107.06.207.13.3.21a1.98 1.98 0 0 1 .25.28c.073.107.133.22.18.34.04.113.067.233.08.36l.03.18z"/><path d="M109.17 30.8l-.04 5.97c-.02 3.987.267 8.487.86 13.5a228.36 228.36 0 0 1 1.26 14.93c.254 4.947.584 9.53.99 13.75.407 4.213.697 7.84.87 10.88.167 3.04.584 5.613 1.25 7.72.667 2.1 1.287 3.737 1.86 4.91s1.404 2.273 2.49 3.3c1.08 1.02 2.33 2.237 3.75 3.65 1.414 1.407 2.84 2.53 4.28 3.37a35.33 35.33 0 0 1 4.12 2.81c1.307 1.033 2.65 1.893 4.03 2.58a63.51 63.51 0 0 0 4.33 1.93c1.5.6 2.717.99 3.65 1.17a21.26 21.26 0 0 0 2.82.33l3.84.18c1.614.08 3.337-.007 5.17-.26 1.827-.247 3.987-1.157 6.48-2.73 2.494-1.58 4.957-2.883 7.39-3.91a95.82 95.82 0 0 0 7.39-3.54l6.31-3.29c1.694-.88 3.35-1.803 4.97-2.77 1.614-.967 3.2-2.1 4.76-3.4 1.567-1.293 3.12-2.953 4.66-4.98 1.534-2.027 2.767-4.35 3.7-6.97.927-2.613 1.594-4.93 2-6.95l1.07-5.34c.314-1.54.497-2.377.55-2.51a1.1 1.1 0 0 1 .21-.36c.087-.113.19-.207.31-.28s.25-.127.39-.16a1.28 1.28 0 0 1 .42-.03 1.36 1.36 0 0 1 .41.1 1.42 1.42 0 0 1 .36.23 1.76 1.76 0 0 1 .26.33c.067.127.114.26.14.4a1.26 1.26 0 0 1 .01.42 1.61 1.61 0 0 1-.13.41 1.38 1.38 0 0 1-.25.34 1.16 1.16 0 0 1-.35.24 1.38 1.38 0 0 1-.4.12c-.14.02-.28.013-.42-.02a1.27 1.27 0 0 1-.4-.15c-.12-.067-.226-.153-.32-.26-.1-.107-.176-.227-.23-.36a1.51 1.51 0 0 1-.1-.41c-.006-.147.007-.287.04-.42.04-.14.097-.27.17-.39a1.29 1.29 0 0 1 .29-.31 1.34 1.34 0 0 1 .37-.2 1.1 1.1 0 0 1 .41-.08 1.45 1.45 0 0 1 .42.06c.134.047.26.11.38.19a1.36 1.36 0 0 1 .29.3 1.66 1.66 0 0 1 .19.38c.04.14.057.28.05.42l-.01.22-.46 2.31-1.12 5.52c-.44 2.147-1.183 4.643-2.23 7.49-1.053 2.847-2.416 5.36-4.09 7.54-1.68 2.18-3.353 3.963-5.02 5.35-1.673 1.38-3.34 2.573-5 3.58a94.2 94.2 0 0 1-5.02 2.84l-6.37 3.39c-2.566 1.373-4.996 2.553-7.29 3.54-2.286.993-4.843 2.357-7.67 4.09s-5.256 2.763-7.29 3.09c-2.04.32-3.913.473-5.62.46-1.706-.02-3.11-.12-4.21-.3-1.093-.173-2.133-.437-3.12-.79a99.91 99.91 0 0 1-3.85-1.46 56.99 56.99 0 0 1-4.65-2.12c-1.533-.773-2.906-1.643-4.12-2.61-1.213-.96-2.626-1.923-4.24-2.89-1.606-.967-3.12-2.153-4.54-3.56l-4.03-3.99c-1.266-1.26-2.21-2.547-2.83-3.86-.626-1.313-1.296-3.127-2.01-5.44s-1.16-4.973-1.34-7.98c-.186-3.013-.493-6.647-.92-10.9-.426-4.26-.776-8.83-1.05-13.71-.266-4.88-.716-9.883-1.35-15.01-.633-5.12-.96-9.673-.98-13.66l-.01-6.16c.014-.127.044-.25.09-.37a1.2 1.2 0 0 1 .17-.33c.074-.107.157-.2.25-.28.094-.087.197-.16.31-.22a1.4 1.4 0 0 1 .35-.13c.127-.033.25-.05.37-.05a1.45 1.45 0 0 1 .37.05c.12.027.237.07.35.13s.217.133.31.22a1.41 1.41 0 0 1 .25.28c.074.1.13.21.17.33.047.12.077.243.09.37l.03.18z"/><path d="M200.01 40.36l-1.84-.44c-1.227-.3-2.377-.497-3.45-.59-1.073-.087-2.527-.497-4.36-1.23s-3.667-1.243-5.5-1.53l-5.76-.62c-2.013-.14-3.95-.4-5.81-.78l-6.68-1.27c-2.593-.473-5.113-1.287-7.56-2.44l-6.99-3.38c-2.22-1.093-4.217-1.857-5.99-2.29s-3.487-.747-5.14-.94l-4.91-.41-3.93-.07-3.5.02c-1.333-.013-2.48.097-3.44.33-.96.24-1.737.937-2.33 2.09-.6 1.16-1.203 3.48-1.81 6.96-.613 3.473-1.063 7.487-1.35 12.04-.28 4.56-.483 9.343-.61 14.35-.127 5.013-.53 9.54-1.21 13.58-.673 4.04-1.153 7.653-1.44 10.84l-.61 8.18c-.12 2.267.09 4.277.63 6.03a146.89 146.89 0 0 1 1.64 5.69c.547 2.04 1.38 4.22 2.5 6.54a68.1 68.1 0 0 0 3.76 6.79c1.387 2.2 2.823 4.217 4.31 6.05 1.487 1.827 2.687 3.097 3.6 3.81.92.707 1.873 1.35 2.86 1.93.98.573 2.547 1.163 4.7 1.77 2.147.607 4.417 1.007 6.81 1.2 2.387.187 5.17.33 8.35.43 3.173.093 6.453-.287 9.84-1.14 3.38-.86 6.533-2.067 9.46-3.62s5.617-3.26 8.07-5.12a64.1 64.1 0 0 0 7.05-6.23c2.253-2.3 4.797-4.72 7.63-7.26 2.827-2.54 4.95-5.063 6.37-7.57 1.42-2.5 2.767-4.623 4.04-6.37 1.273-1.74 2.143-3.82 2.61-6.24.467-2.413.807-5.21 1.02-8.39.22-3.18.227-6.503.02-9.97a289.09 289.09 0 0 1-.45-10.23c-.087-3.353-.3-5.853-.64-7.5-.333-1.653-.567-3.137-.7-4.45-.127-1.307-.623-2.28-1.49-2.92-.86-.64-1.877-1.103-3.05-1.39-1.167-.28-2.957-.813-5.37-1.6-2.427-.787-4.753-1.497-6.98-2.13-2.233-.633-4.56-1.083-6.98-1.35-2.413-.26-5.1-.757-8.06-1.49l-8.12-2.04c-2.46-.62-4.647-1.057-6.56-1.31s-4.037-.433-6.37-.54l-5.46-.2-4.16-.08c-1.473-.027-2.573-.063-3.3-.11-.72-.047-1.527.897-2.42 2.83-.887 1.927-1.473 3.457-1.76 4.59-.293 1.127-.523 2.4-.69 3.82-.167 1.413-.283 2.213-.35 2.4-.06.193-.153.37-.28.53a1.73 1.73 0 0 1-.44.41c-.167.113-.347.197-.54.25a1.76 1.76 0 0 1-.59.06c-.207-.013-.403-.057-.59-.13-.187-.08-.357-.183-.51-.31a1.8 1.8 0 0 1-.38-.46c-.107-.173-.18-.36-.22-.56a1.58 1.58 0 0 1-.03-.59c.02-.207.073-.4.16-.58a1.91 1.91 0 0 1 .34-.49c.14-.147.3-.267.48-.36s.37-.157.57-.19c.193-.033.39-.033.59 0s.39.1.57.2c.18.093.337.213.47.36a1.85 1.85 0 0 1 .34.5c.08.18.13.37.15.57.02.207.01.407-.03.6-.047.2-.123.387-.23.56a1.77 1.77 0 0 1-.39.45c-.153.127-.323.23-.51.31a1.73 1.73 0 0 1-.58.12c-.207.013-.407-.01-.6-.07-.193-.053-.373-.137-.54-.25a1.79 1.79 0 0 1-.43-.41 2.14 2.14 0 0 1-.28-.53 1.98 1.98 0 0 1-.09-.59v-.31l.48-2.24c.327-1.487.677-2.91 1.05-4.27.38-1.353.953-2.81 1.72-4.37.773-1.553 1.51-2.68 2.21-3.38s1.623-1.067 2.77-1.1c1.14-.027 2.453-.033 3.94-.02 1.493.013 2.897.053 4.21.12l5.59.28c2.407.113 4.617.303 6.63.57 2.013.273 4.25.717 6.71 1.33l7.95 1.99c2.833.713 5.533 1.21 8.1 1.49 2.56.28 4.973.737 7.24 1.37 2.273.627 4.607 1.32 7 2.08l5.84 1.83c1.507.467 2.81 1.257 3.91 2.37 1.1 1.12 1.73 2.373 1.89 3.76.167 1.38.427 2.97.78 4.77s.577 4.36.67 7.68a311.9 311.9 0 0 0 .45 10.36c.207 3.58.193 7.02-.04 10.32-.233 3.293-.65 6.307-1.25 9.04-.593 2.727-1.507 4.94-2.74 6.64s-2.643 3.907-4.23 6.62c-1.58 2.713-3.767 5.33-6.56 7.85s-5.36 4.973-7.7 7.36c-2.34 2.393-4.797 4.57-7.37 6.53-2.567 1.953-5.413 3.757-8.54 5.41s-6.507 2.94-10.14 3.86c-3.64.92-7.077 1.35-10.31 1.29-3.24-.053-6.16-.163-8.76-.33-2.6-.173-4.7-.46-6.3-.86s-2.807-.793-3.62-1.18c-.807-.393-1.737-.943-2.79-1.65a28.91 28.91 0 0 1-3.05-2.4c-.993-.887-2.263-2.287-3.81-4.2-1.553-1.92-3.047-4.023-4.48-6.31s-2.743-4.667-3.93-7.14c-1.18-2.473-2.04-4.72-2.58-6.74l-1.7-6.08c-.58-2.04-.81-4.217-.69-6.53.113-2.313.31-5.1.59-8.36s.747-6.847 1.4-10.76c.647-3.913 1.027-8.393 1.14-13.44a407.26 407.26 0 0 1 .56-14.57c.273-4.667.757-8.903 1.45-12.71s1.55-6.483 2.57-8.03c1.027-1.553 2.247-2.51 3.66-2.87 1.413-.367 2.8-.543 4.16-.53 1.367.007 2.557.063 3.57.17s2.357.203 4.03.29a76.11 76.11 0 0 1 5.17.43c1.767.2 3.627.547 5.58 1.04 1.947.487 4.03 1.273 6.25 2.36l6.66 3.22c2.22 1.073 4.637 1.833 7.25 2.28l6.51 1.18c1.727.333 3.64.553 5.74.66 2.107.107 4.193.303 6.26.59 2.073.287 3.903.73 5.49 1.33s2.98.987 4.18 1.16c1.193.167 2.403.407 3.63.72l2.01.55a1.2 1.2 0 0 1 .34.18 1.74 1.74 0 0 1 .29.25c.087.1.16.207.22.32.06.12.107.243.14.37a1.77 1.77 0 0 1 .04.37c0 .133-.017.26-.05.38a1.32 1.32 0 0 1-.14.37 1.44 1.44 0 0 1-.22.31 1.53 1.53 0 0 1-.29.26c-.107.073-.22.133-.34.18a1.44 1.44 0 0 1-.38.09c-.12.013-.243.013-.37 0l-.2-.03z"/></svg>