<svg xmlns="http://www.w3.org/2000/svg" width="299" height="153" fill="#fff" xmlns:v="https://vecta.io/nano"><path d="M8.89 40.89l1.37-1.39c.927-.927 2.11-1.773 3.55-2.54 1.447-.76 3.043-1.727 4.79-2.9s4.41-2.643 7.99-4.41 8.14-3.64 13.68-5.62c5.533-1.98 11.163-3.847 16.89-5.6 5.727-1.76 11.19-3.32 16.39-4.68 5.207-1.36 10.167-2.333 14.88-2.92s9.15-1 13.31-1.24c4.153-.247 8.677-.113 13.57.4L133.09 12l21.78 2.7c7.56.967 15.687 1.653 24.38 2.06 8.7.413 16.91 1.013 24.63 1.8 7.72.793 14.92 1.82 21.6 3.08 6.687 1.26 13.147 2.773 19.38 4.54 6.233 1.773 12.54 4.117 18.92 7.03l14.02 6.22 7.78 3.19 3.5 1.47a1.13 1.13 0 0 1 .31.28 1.24 1.24 0 0 1 .22.36 1.44 1.44 0 0 1 .08.41c.007.14-.01.28-.05.42a1.27 1.27 0 0 1-.18.37 1.29 1.29 0 0 1-.29.31c-.113.08-.237.143-.37.19-.14.04-.28.06-.42.06s-.277-.023-.41-.07a1.33 1.33 0 0 1-.37-.2 1.29 1.29 0 0 1-.29-.31 1.63 1.63 0 0 1-.17-.38c-.033-.14-.047-.28-.04-.42.013-.14.047-.277.1-.41a1.24 1.24 0 0 1 .22-.36c.093-.107.2-.193.32-.26.12-.073.25-.123.39-.15.14-.033.28-.04.42-.02a1.19 1.19 0 0 1 .4.11 1.48 1.48 0 0 1 .35.24 1.41 1.41 0 0 1 .25.34c.067.127.11.26.13.4a1.26 1.26 0 0 1-.01.42 1.11 1.11 0 0 1-.14.4c-.067.12-.15.23-.25.33-.107.093-.223.17-.35.23a1.29 1.29 0 0 1-.41.11 1.28 1.28 0 0 1-.42-.03l-.21-.05c.007 0-1.097-.453-3.31-1.36l-7.82-3.21c-3.007-1.24-7.637-3.297-13.89-6.17-6.253-2.867-12.46-5.177-18.62-6.93-6.153-1.747-12.537-3.247-19.15-4.5-6.607-1.247-13.747-2.263-21.42-3.05s-15.893-1.387-24.66-1.8-16.927-1.1-24.48-2.06l-21.75-2.69-17.54-2c-4.753-.507-9.177-.637-13.27-.39s-8.44.653-13.04 1.22c-4.6.573-9.48 1.54-14.64 2.9-5.167 1.36-10.59 2.917-16.27 4.67-5.68 1.76-11.233 3.617-16.66 5.57-5.433 1.953-9.877 3.793-13.33 5.52-3.453 1.72-6.09 3.21-7.91 4.47s-3.32 2.203-4.5 2.83a13.31 13.31 0 0 0-3.14 2.32l-1.53 1.48c-.1.073-.207.137-.32.19a1.49 1.49 0 0 1-.36.11c-.127.027-.25.037-.37.03a1.4 1.4 0 0 1-.37-.07c-.12-.04-.237-.093-.35-.16-.107-.06-.203-.137-.29-.23-.093-.087-.17-.187-.23-.3-.067-.107-.12-.22-.16-.34s-.063-.243-.07-.37a1.41 1.41 0 0 1 .03-.37c.02-.12.057-.24.11-.36.053-.113.117-.22.19-.32l.12-.15z"/><path d="M268.27 35.24l-1.82-1.39c-1.213-.94-2.97-2.053-5.27-3.34l-6.76-3.7-8.41-4.35c-3.387-1.733-7.283-3.103-11.69-4.11s-9.377-1.73-14.91-2.17c-5.533-.433-11.47-.743-17.81-.93l-20.01-.41-20-.18-18.16-.08-15.08-.03-11.93-.02a2424.85 2424.85 0 0 1-8.28-.01c-1.853 0-3.567.293-5.14.88l-4.83 1.74a71.19 71.19 0 0 0-4.41 1.66c-1.293.533-2.653 1.213-4.08 2.04-1.427.82-2.883 1.847-4.37 3.08-1.493 1.24-3.517 2.613-6.07 4.12-2.553 1.5-4.98 2.873-7.28 4.12a85.46 85.46 0 0 0-6.71 3.99l-6.03 3.98c-1.86 1.233-3.697 2.133-5.51 2.7-1.807.567-2.997 1.12-3.57 1.66-.567.54-1.39.99-2.47 1.35a83.53 83.53 0 0 1-3.53 1.09c-1.28.367-2.447.897-3.5 1.59a15.07 15.07 0 0 1-3.43 1.69c-1.233.42-2.3 1.417-3.2 2.99l-1.51 2.64c-.113.187-.253.35-.42.49a1.8 1.8 0 0 1-.56.32 1.84 1.84 0 0 1-.63.13 1.88 1.88 0 0 1-.64-.07 1.93 1.93 0 0 1-.58-.28c-.18-.127-.333-.277-.46-.45-.133-.173-.233-.363-.3-.57a2.07 2.07 0 0 1-.1-.64 2.09 2.09 0 0 1 .12-.63c.067-.207.167-.397.3-.57a1.89 1.89 0 0 1 .48-.44 1.89 1.89 0 0 1 .58-.26c.213-.053.43-.073.65-.06.213.013.42.06.62.14a2.23 2.23 0 0 1 .55.34c.167.147.303.313.41.5a1.78 1.78 0 0 1 .23.6c.047.213.057.427.03.64a1.96 1.96 0 0 1-.18.62 1.85 1.85 0 0 1-.37.53 1.94 1.94 0 0 1-.51.38 1.99 1.99 0 0 1-.62.2 2.08 2.08 0 0 1-.64 0 2.03 2.03 0 0 1-.61-.22c-.187-.1-.357-.23-.51-.39a1.93 1.93 0 0 1-.35-.54 2.25 2.25 0 0 1-.17-.62c-.02-.22-.003-.437.05-.65l.07-.31 1.26-2.42c.833-1.607 1.74-2.667 2.72-3.18.973-.507 1.953-.88 2.94-1.12.993-.247 2.133-.803 3.42-1.67 1.287-.873 2.6-1.53 3.94-1.97 1.347-.44 2.403-.703 3.17-.79s1.59-.39 2.47-.91c.887-.52 2.133-1.017 3.74-1.49s3.333-1.323 5.18-2.55l6.13-4.02a88.61 88.61 0 0 1 6.76-4.04c2.273-1.227 4.63-2.553 7.07-3.98s4.467-2.8 6.08-4.12c1.607-1.32 3.173-2.417 4.7-3.29 1.527-.867 2.96-1.58 4.3-2.14s2.83-1.12 4.47-1.68l5.24-1.81c1.853-.64 3.717-.96 5.59-.96l8.3.01 11.93.01 15.09.02 18.17.07 20.04.17 20.09.39c6.387.187 12.413.503 18.08.95 5.66.447 10.8 1.207 15.42 2.28 4.613 1.067 8.627 2.46 12.04 4.18l8.49 4.33 7.01 3.75c2.427 1.333 4.26 2.45 5.5 3.35l1.99 1.49a1.85 1.85 0 0 1 .23.28 1.37 1.37 0 0 1 .17.34 1.41 1.41 0 0 1 .07.37c.013.12.01.24-.01.36a1.34 1.34 0 0 1-.11.36c-.047.113-.107.223-.18.33a2.02 2.02 0 0 1-.26.27c-.1.073-.207.14-.32.2a1.33 1.33 0 0 1-.35.11 1.41 1.41 0 0 1-.37.03c-.12 0-.243-.02-.37-.06a1.51 1.51 0 0 1-.34-.14l-.16-.1zM11.5 43.18l.88 3.22c.593 2.147 1.623 5.353 3.09 9.62l4.97 15.13c1.847 5.82 4.22 11.463 7.12 16.93 2.893 5.46 5.717 10.27 8.47 14.43 2.753 4.153 5.303 7.393 7.65 9.72 2.353 2.333 4.207 4.333 5.56 6 1.36 1.667 2.593 2.967 3.7 3.9 1.107.94 2.297 1.583 3.57 1.93l7.87 2.17c3.967 1.1 9.69 2.34 17.17 3.72s16.323 2.517 26.53 3.41l32.42 2.83c11.407.993 21.667 1.547 30.78 1.66 9.107.113 16.65-.11 22.63-.67 5.987-.56 10.673-1.41 14.06-2.55s6.26-2.253 8.62-3.34c2.353-1.093 4.177-2.017 5.47-2.77 1.3-.76 2.75-1.33 4.35-1.71 1.607-.373 3.767-1.083 6.48-2.13 2.713-1.04 5.08-2.223 7.1-3.55a35.21 35.21 0 0 0 5.62-4.59c1.733-1.727 2.937-3.813 3.61-6.26a216.83 216.83 0 0 1 1.96-6.73c.64-2.04 1.42-3.843 2.34-5.41a43.34 43.34 0 0 0 2.38-4.6c.66-1.507 1.287-2.657 1.88-3.45.593-.787.957-1.683 1.09-2.69.127-1.007.59-2.157 1.39-3.45s1.863-2.52 3.19-3.68c1.32-1.16 2.343-2.65 3.07-4.47.727-1.827 1.417-3.9 2.07-6.22.647-2.32 1.11-4.867 1.39-7.64.273-2.773.79-5.277 1.55-7.51.767-2.233 1.467-3.987 2.1-5.26s1.047-2.443 1.24-3.51c.2-1.067.957-2.403 2.27-4.01 1.314-1.62 2.043-2.487 2.19-2.6a1.69 1.69 0 0 1 .49-.27 1.57 1.57 0 0 1 .55-.1 1.92 1.92 0 0 1 .55.08 1.78 1.78 0 0 1 .5.26 1.72 1.72 0 0 1 .39.4 1.71 1.71 0 0 1 .24.5 1.75 1.75 0 0 1 .07.56 1.66 1.66 0 0 1-.11.54c-.067.18-.16.34-.28.48-.127.147-.27.27-.43.37a1.62 1.62 0 0 1-.51.21c-.187.047-.373.06-.56.04a1.54 1.54 0 0 1-.54-.14c-.173-.073-.327-.177-.46-.31a1.72 1.72 0 0 1-.35-.44 1.7 1.7 0 0 1-.18-.52c-.033-.187-.037-.373-.01-.56s.083-.363.17-.53.197-.317.33-.45a1.58 1.58 0 0 1 .46-.32c.167-.08.347-.133.54-.16a1.69 1.69 0 0 1 .55.03 1.57 1.57 0 0 1 .52.19c.167.1.313.22.44.36a1.73 1.73 0 0 1 .29.48 1.68 1.68 0 0 1 .13.54 1.55 1.55 0 0 1-.06.55c-.047.187-.12.357-.22.51l-.16.24-1.81 1.68c-1.207 1.107-1.977 2.257-2.31 3.45a17.82 17.82 0 0 1-1.39 3.52c-.6 1.153-1.253 2.747-1.96 4.78-.7 2.027-1.193 4.507-1.48 7.44-.28 2.927-.753 5.613-1.42 8.06-.667 2.44-1.463 4.747-2.39 6.92-.933 2.167-1.963 3.763-3.09 4.79-1.133 1.02-2.02 2.007-2.66 2.96-.647.953-1.157 2.127-1.53 3.52s-.863 2.353-1.47 2.88c-.6.52-1.25 1.577-1.95 3.17a37.86 37.86 0 0 1-2.32 4.46c-.84 1.38-1.577 3.08-2.21 5.1l-2.24 7.19c-.873 2.773-2.257 5.103-4.15 6.99s-3.93 3.537-6.11 4.95c-2.187 1.413-4.7 2.66-7.54 3.74s-4.94 1.76-6.3 2.04c-1.367.287-2.73.827-4.09 1.62s-3.263 1.753-5.71 2.88c-2.44 1.12-5.45 2.27-9.03 3.45s-8.41 2.053-14.49 2.62-13.707.793-22.88.68c-9.18-.12-19.473-.677-30.88-1.67l-32.55-2.84c-10.287-.9-19.207-2.05-26.76-3.45-7.56-1.393-13.333-2.64-17.32-3.74l-8.33-2.41a12.17 12.17 0 0 1-4.23-2.35c-1.247-1.06-2.52-2.39-3.82-3.99-1.307-1.593-3.193-3.62-5.66-6.08-2.473-2.46-5.113-5.807-7.92-10.04-2.813-4.227-5.707-9.143-8.68-14.75-2.98-5.607-5.403-11.307-7.27-17.1l-5.06-15.15c-1.513-4.307-2.583-7.533-3.21-9.68l-.99-3.39a1.4 1.4 0 0 1-.01-.37c.013-.12.04-.24.08-.36s.093-.233.16-.34a1.63 1.63 0 0 1 .23-.29 1.54 1.54 0 0 1 .3-.22 2.29 2.29 0 0 1 .35-.15 1.39 1.39 0 0 1 .37-.05 1.29 1.29 0 0 1 .36.03c.127.027.247.067.36.12.107.053.21.12.31.2a1.42 1.42 0 0 1 .26.27c.073.1.133.207.18.32l.08.18z"/><path d="M117.15 34.14l-.49 5.05c-.333 3.373-.88 7.177-1.64 11.41s-1.303 8.747-1.63 13.54l-.69 13.02c-.147 3.887-.097 7.4.15 10.54l.51 8.15c.107 2.287.33 4.343.67 6.17.34 1.82 1.017 3.683 2.03 5.59l3.61 6.93c1.373 2.707 2.653 5.083 3.84 7.13 1.18 2.047 2.463 3.943 3.85 5.69 1.387 1.74 2.637 2.943 3.75 3.61 1.12.673 2.37 1.31 3.75 1.91 1.38.607 3.407 1.183 6.08 1.73s5.64.94 8.9 1.18l8.84.51c2.64.107 4.75.507 6.33 1.2l4.22 1.91c1.233.573 2.24.933 3.02 1.08a17.62 17.62 0 0 0 2.42.28c.833.04 2.1-.34 3.8-1.14l6.54-3.08c2.667-1.26 5.16-2.6 7.48-4.02 2.32-1.427 4.407-3.027 6.26-4.8s3.62-3.927 5.3-6.46c1.673-2.54 2.857-5.07 3.55-7.59.687-2.52 1.183-5.377 1.49-8.57.3-3.193.833-6.287 1.6-9.28.76-2.987 1.297-5.54 1.61-7.66.313-2.113.517-3.777.61-4.99l.25-3.94c.067-1.407.273-2.913.62-4.52.353-1.613.597-3.327.73-5.14a140.6 140.6 0 0 0 .31-5.26c.067-1.693-.187-3.45-.76-5.27l-1.67-5.34c-.547-1.74-1.37-3.387-2.47-4.94-1.1-1.547-2.17-2.793-3.21-3.74-1.04-.94-1.987-1.957-2.84-3.05s-1.493-2.027-1.92-2.8c-.427-.78-1.297-1.387-2.61-1.82-1.307-.44-2.59-.76-3.85-.96s-2.58-.693-3.96-1.48l-3.75-2.05c-1.107-.587-2.367-1.337-3.78-2.25s-3.46-2.01-6.14-3.29-5.017-2.187-7.01-2.72c-2-.533-3.87-.917-5.61-1.15-1.747-.227-3.6-.393-5.56-.5-1.953-.107-4.267-.183-6.94-.23l-7.1-.1-6.24-.05-5.27-.08c-1.42-.04-2.643.503-3.67 1.63s-2.227 3.113-3.6 5.96c-1.367 2.847-2.34 6.373-2.92 10.58s-1 8.743-1.26 13.61l-.55 13.18-.26 9.68c-.06 2.547.33 4.42 1.17 5.62.847 1.207 1.903 2.543 3.17 4.01s2.8 3.46 4.6 5.98a189.88 189.88 0 0 1 5.24 7.68c1.687 2.607 3.493 5.217 5.42 7.83 1.92 2.613 3.593 4.777 5.02 6.49 1.42 1.707 2.597 3.25 3.53 4.63.933 1.373 2 2.447 3.2 3.22l4 2.63c1.46.98 3.197 1.65 5.21 2.01 2.013.353 4.373.617 7.08.79 2.7.173 5.213.143 7.54-.09 2.333-.227 4.44-.537 6.32-.93a15.42 15.42 0 0 0 5.24-2.14c1.6-1.033 3.027-2.347 4.28-3.94 1.247-1.6 2.437-3.637 3.57-6.11l3.85-8.1c1.427-2.933 2.427-5.593 3-7.98.58-2.387.993-4.69 1.24-6.91s.423-4.717.53-7.49c.107-2.767-.267-5.6-1.12-8.5-.86-2.9-1.923-5.733-3.19-8.5-1.273-2.76-2.78-5.477-4.52-8.15-1.747-2.68-3.433-4.877-5.06-6.59s-2.963-3.273-4.01-4.68c-1.053-1.4-2.07-2.503-3.05-3.31-.987-.813-1.83-1.343-2.53-1.59s-1.68-.777-2.94-1.59c-1.253-.813-2.673-1.363-4.26-1.65-1.587-.28-3.487-.493-5.7-.64s-4.343.043-6.39.57c-2.04.52-3.91 1.47-5.61 2.85s-3.53 3.12-5.49 5.22c-1.967 2.1-3.503 4.177-4.61 6.23l-3.3 6.26c-1.107 2.127-2.033 4.67-2.78 7.63-.74 2.967-1.27 6.44-1.59 10.42-.32 3.987-.55 7.907-.69 11.76l-.3 10.99c-.06 3.473.197 6.357.77 8.65.573 2.287 1.123 4.06 1.65 5.32.533 1.253 1.373 2.087 2.52 2.5s2.303.667 3.47.76l3.9.25a185.4 185.4 0 0 0 4.87.2c1.82.053 3.633-.34 5.44-1.18 1.8-.833 3.51-2.293 5.13-4.38 1.627-2.087 2.94-4.46 3.94-7.12s2.033-5.64 3.1-8.94c1.06-3.3 1.657-6.827 1.79-10.58l.29-11.3c.067-3.78-.033-6.897-.3-9.35-.267-2.447-.743-4.113-1.43-5s-1.447-1.83-2.28-2.83c-.84-1.007-2.127-1.68-3.86-2.02-1.727-.347-3.613-.773-5.66-1.28-2.047-.5-4.087-.853-6.12-1.06s-3.78-.357-5.24-.45c-1.46-.1-3.017.26-4.67 1.08-1.653.827-3.257 2.43-4.81 4.81-1.56 2.387-2.83 5.43-3.81 9.13-.98 3.707-1.683 7.417-2.11 11.13l-1.13 9.75-.55 4.39c-.033.14-.09.267-.17.38a1.49 1.49 0 0 1-.3.31c-.113.08-.237.143-.37.19a1.11 1.11 0 0 1-.42.06c-.14 0-.277-.023-.41-.07a1.33 1.33 0 0 1-.37-.2c-.113-.087-.21-.187-.29-.3-.073-.12-.13-.25-.17-.39a1.11 1.11 0 0 1-.04-.42c.007-.14.037-.277.09-.41.053-.127.127-.243.22-.35a1.11 1.11 0 0 1 .32-.27 1.48 1.48 0 0 1 .4-.16c.133-.027.273-.033.42-.02a1.39 1.39 0 0 1 .4.12c.127.06.243.14.35.24a1.41 1.41 0 0 1 .25.34c.067.12.11.25.13.39a1.55 1.55 0 0 1 0 .43c-.027.14-.073.27-.14.39-.067.127-.153.24-.26.34a1.28 1.28 0 0 1-.35.23c-.127.06-.26.097-.4.11-.147.013-.287.003-.42-.03a1.34 1.34 0 0 1-.39-.16 1.15 1.15 0 0 1-.32-.27c-.093-.107-.167-.227-.22-.36-.047-.133-.073-.27-.08-.41l-.01-.22.48-4.18 1.17-9.95c.447-3.833 1.217-7.73 2.31-11.69s2.573-7.27 4.44-9.93 3.84-4.46 5.92-5.4 3.893-1.367 5.44-1.28c1.553.08 3.407.23 5.56.45 2.16.22 4.26.577 6.3 1.07l6.26 1.6c2.12.567 3.687 1.417 4.7 2.55 1.007 1.14 1.9 2.343 2.68 3.61s1.317 3.207 1.61 5.82c.293 2.607.413 5.81.36 9.61l-.33 11.69c-.16 3.987-.773 7.66-1.84 11.02s-2.16 6.497-3.28 9.41-2.643 5.553-4.57 7.92c-1.933 2.373-4.01 4.053-6.23 5.04s-4.27 1.487-6.15 1.5l-5.06.02c-1.493-.007-2.937-.067-4.33-.18-1.387-.113-2.597-.383-3.63-.81s-1.847-1.023-2.44-1.79c-.6-.767-1.19-1.85-1.77-3.25-.587-1.4-1.18-3.357-1.78-5.87-.6-2.507-.87-5.51-.81-9.01l.3-11.08a261.64 261.64 0 0 1 .72-12.04c.34-4.127.917-7.767 1.73-10.92.807-3.147 1.767-5.793 2.88-7.94l3.5-6.58c1.227-2.233 2.87-4.453 4.93-6.66s4.097-4.083 6.11-5.63c2.007-1.547 4.183-2.61 6.53-3.19a23.31 23.31 0 0 1 7.03-.68c2.347.133 4.48.387 6.4.76s3.49.927 4.71 1.66l3.04 1.86c.8.507 1.753 1.247 2.86 2.22 1.107.967 2.153 2.113 3.14 3.44.987 1.333 2.343 2.917 4.07 4.75 1.72 1.84 3.483 4.153 5.29 6.94a66.32 66.32 0 0 1 4.68 8.51c1.313 2.887 2.417 5.91 3.31 9.07.887 3.167 1.277 6.173 1.17 9.02-.113 2.847-.303 5.437-.57 7.77s-.72 4.777-1.36 7.33c-.633 2.56-1.663 5.3-3.09 8.22l-3.99 8.35c-1.247 2.647-2.6 4.863-4.06 6.65-1.46 1.78-3.13 3.247-5.01 4.4-1.887 1.153-3.827 1.937-5.82 2.35-2 .413-4.233.737-6.7.97s-5.107.257-7.92.07c-2.82-.187-5.383-.52-7.69-1s-4.207-1.217-5.7-2.21l-4.36-2.97c-1.42-.987-2.58-2.143-3.48-3.47s-2.077-2.867-3.53-4.62-3.157-3.957-5.11-6.61a150.76 150.76 0 0 1-5.43-7.84c-1.667-2.573-3.38-5.087-5.14-7.54-1.753-2.453-3.3-4.463-4.64-6.03s-2.487-3.157-3.44-4.77c-.96-1.613-1.423-3.737-1.39-6.37l.22-9.85.57-13.33c.267-4.94.727-9.64 1.38-14.1.653-4.447 1.75-8.22 3.29-11.32 1.533-3.093 3.04-5.303 4.52-6.63 1.48-1.32 3.02-1.997 4.62-2.03 1.593-.04 3.443-.057 5.55-.05l6.26.03 7.15.07 7.1.2c2.033.093 3.983.257 5.85.49s3.887.63 6.06 1.19c2.173.567 4.663 1.497 7.47 2.79 2.8 1.3 4.893 2.363 6.28 3.19 1.38.827 2.64 1.547 3.78 2.16a106.02 106.02 0 0 1 3.25 1.82c1.027.6 2.3.99 3.82 1.17 1.527.173 2.91.513 4.15 1.02 1.233.52 2.137 1.063 2.71 1.63.567.573.967 1.22 1.2 1.94.227.727.69 1.59 1.39 2.59.7.993 1.633 2.033 2.8 3.12 1.173 1.08 2.367 2.51 3.58 4.29s2.103 3.55 2.67 5.31l1.76 5.79c.607 2.093.883 4.01.83 5.75a147.21 147.21 0 0 1-.3 5.53c-.14 1.94-.367 3.64-.68 5.1-.313 1.453-.493 2.917-.54 4.39s-.157 2.83-.33 4.07l-.75 5.17c-.32 2.207-.847 4.74-1.58 7.6-.733 2.853-1.26 5.957-1.58 9.31s-.873 6.42-1.66 9.2c-.793 2.78-2.087 5.527-3.88 8.24-1.8 2.72-3.697 5.043-5.69 6.97a40.81 40.81 0 0 1-6.58 5.16c-2.4 1.52-4.933 2.94-7.6 4.26-2.667 1.327-5.093 2.467-7.28 3.42-2.193.953-3.837 1.343-4.93 1.17s-2.073-.433-2.94-.78c-.873-.353-1.913-.827-3.12-1.42l-3.72-1.83c-1.273-.62-3.23-.98-5.87-1.08-2.64-.107-5.647-.283-9.02-.53-3.38-.253-6.49-.68-9.33-1.28-2.847-.607-5.017-1.24-6.51-1.9a29.98 29.98 0 0 1-4.24-2.28c-1.327-.86-2.727-2.217-4.2-4.07-1.467-1.86-2.807-3.833-4.02-5.92-1.213-2.093-2.507-4.487-3.88-7.18l-3.72-7.26c-1.113-2.153-1.85-4.207-2.21-6.16-.367-1.953-.603-4.06-.71-6.32-.113-2.26-.297-5.013-.55-8.26-.26-3.24-.327-6.817-.2-10.73.127-3.92.347-8.33.66-13.23.307-4.907.82-9.437 1.54-13.59.727-4.153 1.23-7.917 1.51-11.29l.47-5.24a1.71 1.71 0 0 1 .12-.35 1.59 1.59 0 0 1 .2-.32 1.43 1.43 0 0 1 .28-.25 1.31 1.31 0 0 1 .32-.19c.12-.047.24-.08.36-.1a1.38 1.38 0 0 1 .37-.01c.12.013.24.04.36.08a1.59 1.59 0 0 1 .34.16 1.64 1.64 0 0 1 .28.24c.087.093.163.193.23.3.06.113.107.23.14.35s.053.243.06.37v.18z"/></svg>