<svg xmlns="http://www.w3.org/2000/svg" width="230" height="140" fill="#fff" xmlns:v="https://vecta.io/nano"><path d="M45.19 26l-.06-1.47c-.04-.98.463-2.253 1.51-3.82 1.04-1.573 2.427-3.133 4.16-4.68 1.727-1.553 3.937-2.833 6.63-3.84 2.7-1.013 5.56-1.723 8.58-2.13l9.67-.85c3.427-.16 7.417-.117 11.97.13 4.553.24 9.797.723 15.73 1.45l17.25 2c5.567.613 10.597 1.05 15.09 1.31s8.203.76 11.13 1.5c2.92.74 5.273 1.26 7.06 1.56 1.78.3 3.393.677 4.84 1.13a23.88 23.88 0 0 0 4.31.94c1.433.167 2.65.267 3.65.3 1 .027 1.987.387 2.96 1.08.967.7 1.813 1.107 2.54 1.22s1.75.407 3.07.88c1.32.467 2.783 1.307 4.39 2.52 1.607 1.207 2.967 2.01 4.08 2.41l3.81 1.4c1.427.527 2.807 1.24 4.14 2.14 1.327.907 2.377 1.48 3.15 1.72.767.24 1.577.393 2.43.46.853.073 1.74.297 2.66.67.92.38 2 .997 3.24 1.85 1.24.847 2.233 1.387 2.98 1.62s1.623.57 2.63 1.01c1.007.447 1.93.93 2.77 1.45.84.527 2.103 1.523 3.79 2.99 1.68 1.467 2.597 2.293 2.75 2.48a2.19 2.19 0 0 1 .34.61c.087.227.13.46.13.7.007.233-.023.467-.09.7a2.41 2.41 0 0 1-.31.63 2.23 2.23 0 0 1-.5.5 2.37 2.37 0 0 1-.64.31 2.21 2.21 0 0 1-.69.09 2.28 2.28 0 0 1-.7-.13c-.22-.08-.423-.197-.61-.35-.187-.147-.343-.32-.47-.52a2.25 2.25 0 0 1-.28-.65c-.06-.233-.08-.467-.06-.7a2.24 2.24 0 0 1 .17-.69 2.03 2.03 0 0 1 .38-.59c.16-.18.343-.327.55-.44a2.14 2.14 0 0 1 .67-.25 2.47 2.47 0 0 1 .7-.02 2.3 2.3 0 0 1 .68.21 2.19 2.19 0 0 1 .57.41 2.35 2.35 0 0 1 .41.58 2.16 2.16 0 0 1 .21.67c.027.24.02.477-.02.71a2.15 2.15 0 0 1-.25.66c-.113.207-.26.39-.44.55s-.377.287-.59.38a2.23 2.23 0 0 1-.69.17 2.05 2.05 0 0 1-.7-.06 2.26 2.26 0 0 1-.65-.28l-.3-.19-2.26-2.1c-1.513-1.4-2.567-2.333-3.16-2.8-.593-.473-1.353-.933-2.28-1.38l-2.74-1.3c-.907-.427-2.223-1.167-3.95-2.22-1.72-1.053-3.12-1.697-4.2-1.93a11.27 11.27 0 0 1-2.95-1.04c-.887-.46-1.893-1.067-3.02-1.82s-2.423-1.373-3.89-1.86a80.89 80.89 0 0 1-4.25-1.52c-1.373-.527-2.733-1.287-4.08-2.28-1.34-.987-2.66-1.67-3.96-2.05a37.89 37.89 0 0 1-3.6-1.2c-1.107-.44-1.883-.957-2.33-1.55-.453-.6-1.127-.963-2.02-1.09a174.82 174.82 0 0 0-3.72-.5c-1.587-.2-3.047-.51-4.38-.93-1.327-.427-2.92-.797-4.78-1.11-1.853-.313-4.157-.823-6.91-1.53-2.76-.707-6.41-1.19-10.95-1.45-4.533-.253-9.59-.683-15.17-1.29l-17.18-1.97c-5.873-.7-11.037-1.163-15.49-1.39-4.46-.227-8.363-.253-11.71-.08-3.34.18-6.413.463-9.22.85-2.813.387-5.4 1.01-7.76 1.87-2.353.86-4.283 1.993-5.79 3.4-1.507 1.4-2.657 2.627-3.45 3.68s-1.21 2.01-1.25 2.87l-.09 1.47c-.013.127-.043.25-.09.37s-.107.233-.18.34a1.73 1.73 0 0 1-.25.29c-.1.087-.207.16-.32.22a1.68 1.68 0 0 1-.36.14c-.127.027-.253.04-.38.04a1.84 1.84 0 0 1-.38-.04 1.68 1.68 0 0 1-.36-.14c-.113-.06-.22-.133-.32-.22a1.74 1.74 0 0 1-.25-.29 1.66 1.66 0 0 1-.18-.34c-.047-.12-.077-.243-.09-.37l-.03-.19z"/><path d="M218.23 52.42l-1.35-2.31c-.893-1.547-1.967-3.08-3.22-4.6-1.247-1.513-2.28-2.55-3.1-3.11-.813-.553-1.807-1.107-2.98-1.66s-2.507-1.28-4-2.18c-1.493-.907-3.093-1.523-4.8-1.85-1.7-.327-4.363-1.197-7.99-2.61l-10.92-4.4-11.48-4.62c-3.993-1.567-7.74-2.83-11.24-3.79l-10.73-2.98c-3.653-1.027-7.613-1.91-11.88-2.65-4.267-.733-8.37-1.257-12.31-1.57-3.94-.307-7.817-.527-11.63-.66l-11.38-.29-9.9-.13-8.81-.05-8.34-.02-7.22-.01-7.21-.01c-2.5 0-4.683.297-6.55.89a86.36 86.36 0 0 0-4.93 1.72c-1.427.56-2.713 1.243-3.86 2.05s-2.153 1.45-3.02 1.93c-.873.473-1.96.943-3.26 1.41-1.307.467-2.483 1.067-3.53 1.8-1.053.733-1.993 1.32-2.82 1.76-.827.433-1.487 1.323-1.98 2.67-.493 1.353-1.4 2.523-2.72 3.51-1.32.98-2.51 1.91-3.57 2.79-1.067.873-2.24 1.943-3.52 3.21-1.28 1.273-2.003 1.963-2.17 2.07a1.63 1.63 0 0 1-.54.24 1.76 1.76 0 0 1-.59.06 1.93 1.93 0 0 1-.58-.13 1.99 1.99 0 0 1-.5-.32 1.93 1.93 0 0 1-.38-.45 1.83 1.83 0 0 1-.21-.56 1.75 1.75 0 0 1-.02-.59 1.88 1.88 0 0 1 .17-.57 1.58 1.58 0 0 1 .33-.48 1.65 1.65 0 0 1 .48-.35 1.72 1.72 0 0 1 .56-.18 1.83 1.83 0 0 1 .6 0c.193.04.377.107.55.2a1.58 1.58 0 0 1 .47.37c.133.147.243.31.33.49.08.18.13.37.15.57a2.18 2.18 0 0 1-.04.59 1.89 1.89 0 0 1-.23.55 2.08 2.08 0 0 1-.39.45 1.68 1.68 0 0 1-.51.29 1.73 1.73 0 0 1-.58.12 1.61 1.61 0 0 1-.59-.07 1.57 1.57 0 0 1-.53-.26c-.167-.113-.31-.25-.43-.41a2.16 2.16 0 0 1-.27-.52 1.78 1.78 0 0 1-.08-.59 1.71 1.71 0 0 1 .1-.58 1.78 1.78 0 0 1 .28-.52l.19-.24 2.09-1.79c1.393-1.193 2.643-2.297 3.75-3.31s2.11-1.807 3.01-2.38c.907-.58 1.607-1.47 2.1-2.67.487-1.207 1.027-2.097 1.62-2.67s1.277-.987 2.05-1.24c.767-.253 1.78-.823 3.04-1.71 1.253-.88 2.503-1.55 3.75-2.01L38.01 17c.787-.247 1.84-.82 3.16-1.72s2.727-1.64 4.22-2.22c1.487-.58 3.287-1.187 5.4-1.82 2.107-.633 4.42-.95 6.94-.95l7.22.01h7.23l8.35.03 8.82.05 9.93.12 11.47.28c3.853.133 7.79.36 11.81.68s8.21.857 12.57 1.61c4.353.747 8.357 1.63 12.01 2.65L158 18.73c3.587.98 7.39 2.25 11.41 3.81l11.49 4.58 10.68 4.27c3.473 1.353 6.21 2.233 8.21 2.64 1.993.407 3.71 1.023 5.15 1.85s2.86 1.553 4.26 2.18 2.557 1.33 3.47 2.11 2.053 1.983 3.42 3.61c1.373 1.627 2.533 3.2 3.48 4.72l1.48 2.45a1.89 1.89 0 0 1 .12.37c.02.127.027.253.02.38a1.54 1.54 0 0 1-.07.38 1.81 1.81 0 0 1-.16.35 1.72 1.72 0 0 1-.24.3 1.95 1.95 0 0 1-.3.23 1.71 1.71 0 0 1-.36.16 1.39 1.39 0 0 1-.37.07 1.46 1.46 0 0 1-.38-.03c-.127-.02-.25-.057-.37-.11a1.6 1.6 0 0 1-.32-.2 1.53 1.53 0 0 1-.28-.27l-.11-.16zM10.88 42.28l1.44.9c.967.6 2.17 2.203 3.61 4.81l4.37 8.72c1.467 3.207 3.563 6.993 6.29 11.36l8.6 13.51c3 4.633 6.03 8.517 9.09 11.65s5.993 5.823 8.8 8.07c2.813 2.247 5.403 3.987 7.77 5.22a214.11 214.11 0 0 1 7.43 4.06c2.587 1.467 5.05 2.98 7.39 4.54 2.347 1.56 4.63 3.133 6.85 4.72 2.22 1.58 4.667 2.833 7.34 3.76a90.04 90.04 0 0 0 8.47 2.44c2.98.713 5.853 1.22 8.62 1.52 2.76.293 6.103.507 10.03.64l12.07.27a149.67 149.67 0 0 0 12.45-.34c4.18-.28 8.353-.933 12.52-1.96s7.587-2.06 10.26-3.1l7.13-2.7c2.08-.753 3.977-1.727 5.69-2.92 1.707-1.193 3.293-2.077 4.76-2.65 1.46-.573 2.893-1.4 4.3-2.48 1.4-1.087 2.867-2.323 4.4-3.71 1.533-1.38 3.27-2.697 5.21-3.95 1.94-1.247 3.727-2.853 5.36-4.82a60.69 60.69 0 0 0 4.4-6.02c1.313-2.047 2.387-4.387 3.22-7.02s1.43-5.117 1.79-7.45.95-4.23 1.77-5.69l2.02-3.7c.527-1.007.84-1.573.94-1.7a1.48 1.48 0 0 1 .36-.31 1.63 1.63 0 0 1 .43-.18c.16-.033.317-.043.47-.03.16.013.313.053.46.12a1.58 1.58 0 0 1 .4.26 1.59 1.59 0 0 1 .29.37 1.51 1.51 0 0 1 .15.45 1.24 1.24 0 0 1 .01.47 1.51 1.51 0 0 1-.15.45 1.13 1.13 0 0 1-.28.38c-.113.113-.24.203-.38.27-.147.073-.3.12-.46.14a1.84 1.84 0 0 1-.47-.02 1.4 1.4 0 0 1-.44-.17 1.47 1.47 0 0 1-.37-.3 2 2 0 0 1-.25-.41 1.36 1.36 0 0 1-.1-.46 1.4 1.4 0 0 1 .04-.47 1.34 1.34 0 0 1 .2-.43 1.45 1.45 0 0 1 .32-.35c.127-.093.263-.167.41-.22a1.63 1.63 0 0 1 .47-.09 1.51 1.51 0 0 1 .46.07 1.59 1.59 0 0 1 .42.22 1.24 1.24 0 0 1 .33.34c.093.133.163.277.21.43s.067.31.06.47a1.36 1.36 0 0 1-.1.46l-.09.22-.92 1.42-2.01 3.2c-.727 1.173-1.28 2.983-1.66 5.43-.387 2.44-1.043 5.077-1.97 7.91-.927 2.827-2.08 5.313-3.46 7.46s-2.98 4.287-4.8 6.42c-1.813 2.127-3.64 3.777-5.48 4.95s-3.553 2.473-5.14 3.9c-1.587 1.433-3.187 2.75-4.8 3.95-1.607 1.2-3.057 2.043-4.35 2.53-1.3.48-2.897 1.367-4.79 2.66-1.893 1.287-3.877 2.307-5.95 3.06l-7.27 2.74c-2.78 1.073-6.327 2.137-10.64 3.19a75.04 75.04 0 0 1-12.85 2 156.92 156.92 0 0 1-12.59.35l-12.2-.28c-3.993-.133-7.423-.36-10.29-.68-2.873-.313-5.843-.837-8.91-1.57s-6.043-1.613-8.93-2.64c-2.887-1.033-5.433-2.333-7.64-3.9a254.21 254.21 0 0 0-6.75-4.63 116.99 116.99 0 0 0-7.28-4.46 265.74 265.74 0 0 0-7.61-4.16c-2.52-1.313-5.233-3.127-8.14-5.44-2.913-2.313-5.963-5.1-9.15-8.36s-6.297-7.21-9.33-11.85L23.97 69.5c-2.82-4.46-4.973-8.253-6.46-11.38-1.487-3.133-2.82-5.803-4-8.01-1.18-2.213-2.207-3.63-3.08-4.25L8.97 44.8a2.58 2.58 0 0 1-.26-.28 1.66 1.66 0 0 1-.18-.34 1.76 1.76 0 0 1-.1-.37 1.76 1.76 0 0 1 0-.37 1.72 1.72 0 0 1 .08-.37 1.66 1.66 0 0 1 .18-.34 1.32 1.32 0 0 1 .24-.3 1.71 1.71 0 0 1 .32-.22 1.48 1.48 0 0 1 .35-.14 1.49 1.49 0 0 1 .38-.05 1.8 1.8 0 0 1 .37.04 1.37 1.37 0 0 1 .36.13l.17.09z"/><path d="M219.55 54.61l.42 3.68c.287 2.453.333 5.32.14 8.6-.187 3.273-.633 6.843-1.34 10.71-.7 3.867-1.667 8.01-2.9 12.43s-2.74 8.37-4.52 11.85c-1.78 3.473-3.517 6.417-5.21 8.83-1.7 2.413-3.377 4.597-5.03 6.55s-3.313 3.673-4.98 5.16a16.16 16.16 0 0 1-5.6 3.26c-2.06.687-4.437 1.317-7.13 1.89l-7.56 1.68c-2.347.547-4.503.94-6.47 1.18a83.09 83.09 0 0 1-6.06.51c-2.073.1-4.8.017-8.18-.25s-7.19-.92-11.43-1.96c-4.24-1.047-8.773-2.093-13.6-3.14-4.827-1.053-9.787-1.953-14.88-2.7-5.1-.747-9.677-1.59-13.73-2.53-4.047-.94-7.247-1.767-9.6-2.48l-6.39-1.98a37.98 37.98 0 0 1-5.56-2.26c-1.793-.893-3.693-1.997-5.7-3.31a58.56 58.56 0 0 0-6.49-3.68c-2.32-1.14-4.337-2.447-6.05-3.92s-3.66-2.957-5.84-4.45c-2.18-1.487-4.237-3.193-6.17-5.12a34.52 34.52 0 0 1-5.09-6.51 86.17 86.17 0 0 1-4.05-7.45c-1.227-2.56-2.717-5.92-4.47-10.08-1.747-4.16-3.46-8.977-5.14-14.45-1.673-5.48-3.317-10.12-4.93-13.92-1.607-3.807-2.763-6.853-3.47-9.14l-1.82-5.93-.8-2.7a1.27 1.27 0 0 1 .01-.42 1.17 1.17 0 0 1 .15-.39 1.14 1.14 0 0 1 .26-.33c.107-.093.223-.17.35-.23a1.48 1.48 0 0 1 .41-.1 1.5 1.5 0 0 1 .42.04 1.36 1.36 0 0 1 .38.16 1.39 1.39 0 0 1 .31.28 1.22 1.22 0 0 1 .21.37 1.44 1.44 0 0 1 .08.41 1.13 1.13 0 0 1-.06.42 1.27 1.27 0 0 1-.18.37 1.64 1.64 0 0 1-.3.3 1.27 1.27 0 0 1-.37.18 1.13 1.13 0 0 1-.42.06 1.44 1.44 0 0 1-.41-.08c-.133-.047-.257-.113-.37-.2a1.59 1.59 0 0 1-.28-.32 1.36 1.36 0 0 1-.16-.38c-.033-.14-.047-.28-.04-.42.013-.14.047-.277.1-.41.06-.127.137-.243.23-.35a1.14 1.14 0 0 1 .33-.26 1.16 1.16 0 0 1 .39-.15 1.27 1.27 0 0 1 .42-.01 1.39 1.39 0 0 1 .4.12 1.4 1.4 0 0 1 .59.59l.09.19.77 2.49 1.78 5.8c.673 2.207 1.83 5.253 3.47 9.14s3.283 8.53 4.93 13.93c1.647 5.387 3.337 10.14 5.07 14.26 1.727 4.12 3.187 7.423 4.38 9.91s2.46 4.857 3.8 7.11a32.12 32.12 0 0 0 4.72 6.1c1.8 1.82 3.83 3.503 6.09 5.05 2.26 1.553 4.153 3.007 5.68 4.36s3.497 2.623 5.91 3.81 4.577 2.413 6.49 3.68c1.92 1.26 3.713 2.313 5.38 3.16s3.45 1.57 5.35 2.17l6.29 1.95c2.293.7 5.43 1.513 9.41 2.44 3.987.927 8.557 1.767 13.71 2.52 5.153.76 10.153 1.67 15 2.73l13.43 3.11c4.107 1.02 7.79 1.663 11.05 1.93 3.267.26 5.907.343 7.92.25 2.013-.1 3.957-.263 5.83-.49 1.873-.22 3.99-.607 6.35-1.16l7.46-1.66c2.607-.553 4.793-1.093 6.56-1.62 1.76-.527 3.417-1.48 4.97-2.86s3.13-3.017 4.73-4.91c1.593-1.893 3.203-3.997 4.83-6.31s3.29-5.123 4.99-8.43c1.7-3.313 3.147-7.14 4.34-11.48 1.193-4.333 2.127-8.377 2.8-12.13.667-3.753 1.083-7.18 1.25-10.28.16-3.1.077-5.877-.25-8.33l-.5-3.86c0-.12.017-.24.05-.36a1.4 1.4 0 0 1 .13-.35 1.69 1.69 0 0 1 .21-.31c.087-.093.18-.177.28-.25a1.19 1.19 0 0 1 .33-.17 1.43 1.43 0 0 1 .36-.09 1.4 1.4 0 0 1 .37-.01 2.37 2.37 0 0 1 .36.09 1.46 1.46 0 0 1 .33.18 1.22 1.22 0 0 1 .28.24 1.44 1.44 0 0 1 .22.31 2.21 2.21 0 0 1 .13.35l.05.18zM101.13 16.7l-.96 4.59-1.81 9.3c-.587 3.127-1.32 6.003-2.2 8.63-.88 2.62-1.497 5.2-1.85 7.74l-.77 8.64-.34 8.73-.15 8.32c-.027 2.94.103 5.307.39 7.1l1.07 7.57c.433 3.253 1.333 6.273 2.7 9.06l3.86 7.87c1.213 2.46 2.203 4.163 2.97 5.11.773.947 1.576 1.553 2.41 1.82.826.273 1.973.493 3.44.66 1.46.173 3.363-.143 5.71-.95l7.49-2.2a45.69 45.69 0 0 0 7.81-2.73c2.566-1.167 4.673-2.433 6.32-3.8l4.54-3.45c1.38-.933 2.463-1.867 3.25-2.8.786-.94 1.65-2.197 2.59-3.77a16.11 16.11 0 0 0 1.98-5.06c.373-1.793.646-3.99.82-6.59.173-2.593.456-4.94.85-7.04l.82-5.78.34-5.57.16-6.01c.033-2.047-.387-4.043-1.26-5.99l-3.25-6.5-4.11-6.94-3.57-5.21c-.92-1.253-1.607-2.477-2.06-3.67-.447-1.193-1.527-1.973-3.24-2.34-1.714-.36-3.844-.443-6.39-.25a43.26 43.26 0 0 0-7.71 1.29l-6.54 1.43c-1.774.28-3.094.763-3.96 1.45-.86.68-1.797 1.303-2.81 1.87-1.007.567-1.814 2.247-2.42 5.04-.614 2.787-1.554 6.067-2.82 9.84-1.267 3.767-2.16 7.323-2.68 10.67-.52 3.353-1.053 6.233-1.6 8.64-.54 2.407-.917 4.257-1.13 5.55-.207 1.293-.337 2.51-.39 3.65l-.16 3.79a80.26 80.26 0 0 0-.08 3.9c.013 1.207 0 2.82-.04 4.84-.033 2.02.233 3.513.8 4.48.56.973 1.127 2.197 1.7 3.67.56 1.467 1.12 2.607 1.68 3.42a32.72 32.72 0 0 0 2.03 2.62c.793.927 1.536 1.733 2.23 2.42.686.68 1.576 1.46 2.67 2.34s2.726 1.643 4.9 2.29c2.173.64 4.483 1.11 6.93 1.41a106.59 106.59 0 0 0 7.53.67l7.31.31c2.3.067 4.306-.317 6.02-1.15 1.706-.833 3.353-2.297 4.94-4.39 1.586-2.087 2.87-4.613 3.85-7.58l3.05-9.61c1.053-3.447 1.796-6.79 2.23-10.03a131.21 131.21 0 0 0 .94-9.23l.41-7.59c.08-2.153-.164-4.4-.73-6.74s-1.417-4.76-2.55-7.26c-1.14-2.5-2.274-5.39-3.4-8.67l-3.31-9.75c-1.087-3.22-2.157-5.95-3.21-8.19s-1.934-3.777-2.64-4.61a4.97 4.97 0 0 0-2.64-1.66c-1.06-.267-2.27-.487-3.63-.66-1.36-.167-2.57-.427-3.63-.78s-2.18-.593-3.36-.72c-1.174-.133-2.48-.247-3.92-.34a125.17 125.17 0 0 0-4.89-.21c-1.82-.053-3.807.35-5.96 1.21-2.147.86-3.964 1.903-5.45 3.13-1.48 1.22-3 2.693-4.56 4.42-1.547 1.733-3.16 3.16-4.84 4.28-1.673 1.12-3.1 2.613-4.28 4.48-1.18 1.86-2.177 3.93-2.99 6.21-.813 2.287-1.39 5.26-1.73 8.92-.34 3.667-.283 7.48.17 11.44l1.43 11.28c.5 3.547 1.15 6.337 1.95 8.37s1.387 3.65 1.76 4.85 1.337 2.427 2.89 3.68c1.547 1.247 3.867 2.77 6.96 4.57 3.1 1.793 5.946 3.55 8.54 5.27 2.593 1.713 4.57 2.923 5.93 3.63s2.43 1.393 3.21 2.06 1.336 1.47 1.67 2.41 1.04 1.58 2.12 1.92c1.073.34 1.696.573 1.87.7a2 2 0 0 1 .43.45 1.68 1.68 0 0 1 .27.57c.06.2.086.407.08.62-.007.207-.05.41-.13.61-.074.2-.18.38-.32.54-.134.16-.29.297-.47.41s-.374.193-.58.24a1.94 1.94 0 0 1-.62.04c-.214-.02-.417-.073-.61-.16a1.94 1.94 0 0 1-.52-.34 1.97 1.97 0 0 1-.38-.5c-.107-.187-.177-.383-.21-.59a1.8 1.8 0 0 1-.01-.63c.033-.207.1-.403.2-.59.093-.187.216-.353.37-.5a1.78 1.78 0 0 1 .51-.36 1.96 1.96 0 0 1 .6-.18c.213-.02.423-.01.63.03a1.69 1.69 0 0 1 .58.23c.186.107.35.24.49.4.133.153.24.33.32.53.086.193.136.397.15.61a1.98 1.98 0 0 1-.06.62 2.11 2.11 0 0 1-.26.57c-.12.18-.264.333-.43.46a1.79 1.79 0 0 1-.55.3 1.77 1.77 0 0 1-.61.11c-.214 0-.42-.03-.62-.09l-.3-.1-2.15-1.43c-1.427-.947-2.434-2.107-3.02-3.48-.58-1.373-1.59-2.43-3.03-3.17s-3.437-1.95-5.99-3.63-5.45-3.46-8.69-5.34c-3.234-1.88-5.754-3.627-7.56-5.24-1.813-1.62-2.887-3.04-3.22-4.26-.333-1.227-.927-2.95-1.78-5.17-.847-2.227-1.523-5.127-2.03-8.7-.507-3.58-.99-7.443-1.45-11.59s-.497-8.157-.11-12.03c.38-3.88 1.02-7.057 1.92-9.53a32.09 32.09 0 0 1 3.47-6.87c1.407-2.107 2.873-3.663 4.4-4.67 1.52-1.007 3.097-2.427 4.73-4.26 1.646-1.827 3.326-3.433 5.04-4.82 1.72-1.38 3.826-2.55 6.32-3.51 2.493-.953 4.683-1.427 6.57-1.42l5.1.08c1.52.047 3.003.167 4.45.36s2.563.493 3.35.9c.78.413 1.94.71 3.48.89a17.93 17.93 0 0 1 4.46 1.11c1.426.56 2.55 1.393 3.37 2.5.82 1.1 1.78 2.817 2.88 5.15 1.093 2.333 2.18 5.107 3.26 8.32l3.27 9.63c1.093 3.207 2.236 6.137 3.43 8.79s2.086 5.267 2.68 7.84c.593 2.567.85 4.943.77 7.13a279.53 279.53 0 0 1-.41 7.74c-.194 2.967-.52 6.143-.98 9.53-.467 3.38-1.227 6.807-2.28 10.28-1.06 3.473-2.144 6.82-3.25 10.04s-2.6 6.003-4.48 8.35c-1.887 2.353-3.887 4.01-6 4.97s-4.357 1.42-6.73 1.38l-7.52-.22c-2.64-.113-5.274-.317-7.9-.61a43.54 43.54 0 0 1-7.72-1.58c-2.527-.753-4.447-1.613-5.76-2.58-1.32-.967-2.3-1.843-2.94-2.63l-2.31-2.77c-.893-1.073-1.607-2.113-2.14-3.12s-1.083-2.197-1.65-3.57c-.56-1.367-1.167-2.743-1.82-4.13-.66-1.387-1-3.12-1.02-5.2s-.007-3.733.04-4.96l.1-4a39.76 39.76 0 0 1 .24-3.99 56.67 56.67 0 0 1 .58-3.82c.24-1.34.617-3.183 1.13-5.53.52-2.347 1.047-5.277 1.58-8.79.533-3.507 1.407-7.113 2.62-10.82a259.93 259.93 0 0 0 3.17-10.45c.906-3.26 1.913-5.227 3.02-5.9l3.52-2.21c1.24-.8 2.72-1.36 4.44-1.68 1.726-.313 3.966-.843 6.72-1.59 2.753-.74 5.536-1.233 8.35-1.48 2.806-.247 4.933-.227 6.38.06 1.44.28 2.616.797 3.53 1.55a5.74 5.74 0 0 1 1.89 2.79c.34 1.107.983 2.3 1.93 3.58s2.166 3.067 3.66 5.36a100.6 100.6 0 0 1 4.23 7.13c1.32 2.46 2.45 4.827 3.39 7.1s1.396 4.457 1.37 6.55l-.14 6.17a101.49 101.49 0 0 1-.35 5.77 61.86 61.86 0 0 1-.81 5.75c-.374 1.993-.65 4.353-.83 7.08-.187 2.727-.514 5.12-.98 7.18s-1.217 3.957-2.25 5.69-2.037 3.13-3.01 4.19c-.98 1.067-2.127 2.05-3.44 2.95-1.32.893-2.897 2.09-4.73 3.59-1.827 1.493-4.1 2.86-6.82 4.1s-5.37 2.193-7.95 2.86a146.99 146.99 0 0 0-7.95 2.31c-2.72.873-4.987 1.207-6.8 1-1.807-.207-3.257-.62-4.35-1.24-1.1-.62-2.087-1.507-2.96-2.66-.874-1.147-1.914-2.957-3.12-5.43l-4-8.26c-1.447-3.04-2.387-6.18-2.82-9.42l-1.11-7.78c-.3-1.94-.44-4.387-.42-7.34l.13-8.38.32-8.88c.153-3.307.417-6.313.79-9.02s.973-5.31 1.8-7.81 1.517-5.33 2.07-8.49l1.72-9.33.94-4.78a1.58 1.58 0 0 1 .16-.34 1.42 1.42 0 0 1 .24-.29 1.33 1.33 0 0 1 .29-.22c.113-.067.23-.117.35-.15a1.16 1.16 0 0 1 .37-.06 1.66 1.66 0 0 1 .36.02c.12.027.236.067.35.12a1.57 1.57 0 0 1 .32.2c.1.08.186.17.26.27a1.94 1.94 0 0 1 .19.32 1.63 1.63 0 0 1 .1.36 1.14 1.14 0 0 1 .02.36l-.01.19z"/><path d="M121.88 66.73l-1.31-3.24c-.873-2.167-1.503-4.223-1.89-6.17l-.88-4.68c-.2-1.173-.1-2.213.3-3.12.393-.9 1.237-1.567 2.53-2 1.293-.427 2.47-.65 3.53-.67 1.073-.027 2.373.803 3.9 2.49 1.52 1.68 2.986 3.477 4.4 5.39l4.42 6.46c1.526 2.387 2.637 4.92 3.33 7.6.693 2.687 1.173 5.37 1.44 8.05a46.04 46.04 0 0 1 .1 8.13c-.207 2.74-.84 5.213-1.9 7.42-1.053 2.2-1.97 3.807-2.75 4.82-.78 1.007-1.713 1.787-2.8 2.34-1.08.547-2.087.93-3.02 1.15-.927.213-2.623-.477-5.09-2.07-2.46-1.6-4.973-4.647-7.54-9.14-2.567-4.5-5.13-9.37-7.69-14.61-2.56-5.247-4.393-9.94-5.5-14.08l-2.34-9.36c-.453-2.093-.467-3.857-.04-5.29.427-1.44 1.567-2.953 3.42-4.54a137.68 137.68 0 0 1 5.74-4.67c1.973-1.52 4.18-2.93 6.62-4.23 2.44-1.293 4.663-2.223 6.67-2.79 2.02-.567 4.253-.967 6.7-1.2s4.593-.053 6.44.54 3.51 2.153 4.99 4.68c1.486 2.527 2.68 5.57 3.58 9.13a76.43 76.43 0 0 1 1.9 10.87c.373 3.68.33 7.11-.13 10.29-.46 3.167-1.103 6.203-1.93 9.11s-1.757 5.033-2.79 6.38c-1.034 1.353-1.937 2.363-2.71 3.03-.767.667-1.91 1.147-3.43 1.44-1.513.3-3.28-.16-5.3-1.38a19.38 19.38 0 0 1-5.22-4.57l-3.5-4.29c-.867-1.027-1.553-2.13-2.06-3.31-.5-1.18-.873-2.177-1.12-2.99-.247-.807-.43-1.71-.55-2.71-.127-1.007-.21-1.557-.25-1.65-.047-.093-.067-.22-.06-.38s.033-.317.08-.47a2.16 2.16 0 0 1 .19-.44c.08-.14.177-.267.29-.38a2.28 2.28 0 0 1 .37-.3 1.87 1.87 0 0 1 .44-.2 1.63 1.63 0 0 1 .47-.09 1.84 1.84 0 0 1 .93.16c.147.06.283.14.41.24s.24.21.34.33a2 2 0 0 1 .25.41 2.19 2.19 0 0 1 .15.45c.027.16-.033.393-.18.7-.147.313-.1.49.14.53a2.11 2.11 0 0 1 .66.23c.213.113.4.257.56.43a2.3 2.3 0 0 1 .4.59c.093.22.153.45.18.69a2.02 2.02 0 0 1-.04.69 2.17 2.17 0 0 1-.27.66c-.127.2-.28.377-.46.53a2.27 2.27 0 0 1-.61.36 2.29 2.29 0 0 1-.69.15c-.233.013-.467-.013-.7-.08-.227-.067-.44-.17-.64-.31-.193-.133-.363-.297-.51-.49a2.1 2.1 0 0 1-.32-.62 2.24 2.24 0 0 1-.11-.69 2.09 2.09 0 0 1 .12-.7 2.15 2.15 0 0 1 .34-.62 1.84 1.84 0 0 1 .51-.48c.2-.133.417-.233.65-.3.227-.06.457-.083.69-.07a2.42 2.42 0 0 1 .69.16 2.31 2.31 0 0 1 .6.37c.187.153.34.333.46.54a2.15 2.15 0 0 1 .25.66c.053.233.067.467.04.7-.033.24-.1.467-.2.68a2.14 2.14 0 0 1-.4.58 2.26 2.26 0 0 1-.57.43c-.213.107-.437.18-.67.22l-.34.05-1.76-2.52c-1.167-1.693-1.747-2.62-1.74-2.78s.033-.317.08-.47a2.16 2.16 0 0 1 .19-.44c.08-.14.177-.267.29-.38a2.28 2.28 0 0 1 .37-.3 1.87 1.87 0 0 1 .44-.2 1.55 1.55 0 0 1 .47-.09 1.84 1.84 0 0 1 .93.16c.147.06.283.14.41.24s.24.21.34.33a2 2 0 0 1 .25.41 2.19 2.19 0 0 1 .15.45l.06.37c.013.087.06.91.14 2.47.087 1.553.257 2.793.51 3.72.247.92.813 1.897 1.7 2.93.887 1.04 1.96 2.357 3.22 3.95 1.253 1.587 2.617 2.907 4.09 3.96 1.473 1.047 2.673 1.5 3.6 1.36.933-.147 1.727-.397 2.38-.75.653-.36 1.42-1.07 2.3-2.13.887-1.06 1.723-2.977 2.51-5.75s1.41-5.64 1.87-8.6c.453-2.96.5-6.217.14-9.77-.353-3.553-.94-7.007-1.76-10.36s-1.787-6.133-2.9-8.34-2.36-3.53-3.74-3.97c-1.374-.44-3.19-.55-5.45-.33s-4.303.583-6.13 1.09c-1.833.507-3.89 1.373-6.17 2.6-2.293 1.22-4.403 2.593-6.33 4.12l-5.25 4.15c-1.567 1.24-2.553 2.31-2.96 3.21-.407.907-.373 2.34.1 4.3.48 1.967 1.26 4.927 2.34 8.88 1.073 3.953 2.903 8.507 5.49 13.66 2.58 5.16 5.027 9.797 7.34 13.91 2.313 4.107 4.61 6.78 6.89 8.02 2.273 1.24 3.793 1.767 4.56 1.58s1.49-.643 2.17-1.37c.687-.727 1.5-2.03 2.44-3.91.947-1.88 1.507-4.09 1.68-6.63a43.26 43.26 0 0 0-.17-7.61c-.287-2.527-.737-4.97-1.35-7.33-.607-2.36-1.68-4.663-3.22-6.91-1.54-2.26-3.047-4.297-4.52-6.11-1.473-1.82-2.89-3.313-4.25-4.48-1.347-1.167-2.433-1.76-3.26-1.78-.82-.013-1.163.477-1.03 1.47s.397 2.35.79 4.07 1.07 3.643 2.03 5.77l1.51 3.4c.047.147.073.297.08.45.007.14-.007.283-.04.43a1.55 1.55 0 0 1-.14.43 2.32 2.32 0 0 1-.24.38c-.093.12-.2.223-.32.31-.12.093-.25.17-.39.23a1.65 1.65 0 0 1-.43.12 1.65 1.65 0 0 1-.44.02 1.91 1.91 0 0 1-.44-.09 1.77 1.77 0 0 1-.41-.19c-.127-.08-.243-.173-.35-.28a2.81 2.81 0 0 1-.27-.36l-.11-.2z"/></svg>