<svg xmlns="http://www.w3.org/2000/svg" width="249" height="168" fill="#fff" xmlns:v="https://vecta.io/nano"><path d="M36.09 55.29l1.38-1.4c.933-.927 2.29-1.78 4.07-2.56l6.44-2.95 8.59-4.37 9.64-5.07c3.22-1.66 6.917-3.307 11.09-4.94 4.167-1.64 8.227-2.967 12.18-3.98 3.953-1.007 8.287-2.18 13-3.52l13.78-3.78c4.467-1.187 9.047-2.187 13.74-3l14.6-2.66c5.04-.953 10.344-1.637 15.91-2.05a391.59 391.59 0 0 1 16.5-.88l14.82-.37 11.36-.16c3.12-.027 5.684.11 7.69.41 2.014.293 3.91.66 5.69 1.1 1.787.44 3.694 1.07 5.72 1.89a28.24 28.24 0 0 1 5.81 3.18c1.84 1.307 3.567 2.367 5.18 3.18l4.27 2.13c1.234.613 1.907.963 2.02 1.05a1.07 1.07 0 0 1 .3.3 1.24 1.24 0 0 1 .19.39c.04.133.06.273.06.42-.006.147-.036.287-.09.42-.046.133-.116.257-.21.37s-.2.207-.32.28c-.12.08-.253.137-.4.17-.14.033-.28.043-.42.03-.146-.013-.286-.047-.42-.1-.133-.06-.253-.14-.36-.24-.106-.093-.193-.203-.26-.33-.073-.127-.123-.263-.15-.41-.02-.14-.02-.28 0-.42a1.39 1.39 0 0 1 .12-.41c.067-.127.154-.243.26-.35a1.17 1.17 0 0 1 .35-.24 1.24 1.24 0 0 1 .41-.13c.14-.013.28-.007.42.02.147.027.28.077.4.15.127.073.24.163.34.27.094.107.167.227.22.36a1.13 1.13 0 0 1 .1.42c.014.14.004.28-.03.42-.04.14-.1.273-.18.4a1.11 1.11 0 0 1-.28.31c-.113.093-.24.163-.38.21a1.46 1.46 0 0 1-.42.08 1.46 1.46 0 0 1-.42-.06l-.21-.07-1.84-.94-4.43-2.26c-1.72-.88-3.416-1.923-5.09-3.13a25.09 25.09 0 0 0-5.36-2.98c-1.906-.78-3.71-1.38-5.41-1.8-1.706-.42-3.493-.777-5.36-1.07-1.866-.287-4.356-.413-7.47-.38l-11.33.16-14.75.37a398.9 398.9 0 0 0-16.29.86c-5.473.4-10.733 1.08-15.78 2.04l-14.51 2.65a157.03 157.03 0 0 0-13.6 2.98l-13.78 3.8-12.87 3.51c-3.847.98-7.81 2.277-11.89 3.89-4.073 1.613-7.71 3.253-10.91 4.92l-9.64 5.15c-3.24 1.767-6.127 3.27-8.66 4.51-2.54 1.24-4.537 2.17-5.99 2.79-1.46.613-2.643 1.377-3.55 2.29l-1.52 1.47a1.92 1.92 0 0 1-.32.19c-.12.053-.24.09-.36.11a1.41 1.41 0 0 1-.37.03c-.127-.007-.25-.03-.37-.07s-.233-.093-.34-.16c-.113-.06-.213-.137-.3-.23-.093-.087-.17-.187-.23-.3a1.58 1.58 0 0 1-.16-.34 1.4 1.4 0 0 1-.07-.37 1.41 1.41 0 0 1 .03-.37 1.49 1.49 0 0 1 .11-.36 1.93 1.93 0 0 1 .19-.32l.12-.15z"/><path d="M133.58 22.86l-5.98 1.33c-3.993.887-8.847 1.82-14.56 2.8L94.39 30c-6.727 1.027-13.067 1.757-19.02 2.19-5.96.433-11.107.89-15.44 1.37l-9.71 1.01c-2.127.187-3.537.613-4.23 1.28-.687.66-1.537 1.313-2.55 1.96s-1.813 1.473-2.4 2.48c-.593 1.013-1.523 2.39-2.79 4.13s-2.303 3.4-3.11 4.98c-.807 1.587-2.177 3.68-4.11 6.28-1.94 2.607-3.447 5.023-4.52 7.25l-3.7 7.58c-1.4 2.827-2.877 5.327-4.43 7.5l-3.73 5.11c-.94 1.22-1.273 2.15-1 2.79.267.64.36 1.007.28 1.1a1.6 1.6 0 0 1-.26.26 1.92 1.92 0 0 1-.32.19 1.57 1.57 0 0 1-.36.1 1.7 1.7 0 0 1-.37.02c-.12-.013-.24-.037-.36-.07-.12-.04-.233-.093-.34-.16a1.83 1.83 0 0 1-.28-.23c-.087-.093-.163-.193-.23-.3a1.51 1.51 0 0 1-.14-.34c-.04-.12-.06-.24-.06-.36a1.68 1.68 0 0 1 .02-.37 1.45 1.45 0 0 1 .12-.35c.053-.113.657-.61 1.81-1.49s2.987-2.827 5.5-5.84a296.51 296.51 0 0 0 7.7-9.68c2.62-3.44 5.6-6.543 8.94-9.31s6.953-5.353 10.84-7.76c3.893-2.407 8.35-5.037 13.37-7.89 5.027-2.853 10.763-5.813 17.21-8.88 6.453-3.06 13.523-5.863 21.21-8.41 7.687-2.54 15.623-4.807 23.81-6.8 8.18-2 16.16-3.733 23.94-5.2 7.78-1.46 14.253-2.503 19.42-3.13l11.49-1.33c2.5-.267 4.6-.457 6.3-.57 1.707-.107 3.057-.02 4.05.26.993.287 1.887 1.2 2.68 2.74s1.77 3.51 2.93 5.91a39.21 39.21 0 0 0 4.24 6.86c1.667 2.18 2.887 4.097 3.66 5.75s1.69 2.977 2.75 3.97c1.06.987 1.64 1.553 1.74 1.7a1.75 1.75 0 0 1 .21.48c.047.173.063.347.05.52a1.52 1.52 0 0 1-.11.51 1.54 1.54 0 0 1-.28.44 1.47 1.47 0 0 1-.89.52 1.5 1.5 0 0 1-.52.03 1.88 1.88 0 0 1-.5-.15 1.46 1.46 0 0 1-.43-.3c-.127-.12-.23-.26-.31-.42-.08-.153-.133-.317-.16-.49s-.023-.347.01-.52a1.43 1.43 0 0 1 .17-.49 1.67 1.67 0 0 1 .32-.42 1.41 1.41 0 0 1 .43-.28 1.77 1.77 0 0 1 .51-.14 1.98 1.98 0 0 1 .52.03 1.54 1.54 0 0 1 .48.2 1.49 1.49 0 0 1 .39.34c.113.14.203.29.27.45a1.94 1.94 0 0 1 .11.52c.007.173-.017.343-.07.51a1.46 1.46 0 0 1-.22.47c-.1.147-.22.273-.36.38a1.65 1.65 0 0 1-.47.24c-.167.053-.337.08-.51.08a1.93 1.93 0 0 1-.52-.09 1.55 1.55 0 0 1-.45-.25l-.21-.16-1.64-2a19.75 19.75 0 0 1-2.68-4.22c-.693-1.487-1.933-3.39-3.72-5.71s-3.28-4.683-4.48-7.09c-1.2-2.42-2.227-4.313-3.08-5.68-.847-1.367-2.09-1.993-3.73-1.88s-3.7.3-6.18.56l-11.39 1.32c-5.107.62-11.527 1.657-19.26 3.11-7.74 1.46-15.663 3.177-23.77 5.15-8.12 1.987-15.973 4.23-23.56 6.73-7.58 2.507-14.567 5.28-20.96 8.32-6.387 3.033-12.077 5.973-17.07 8.82-4.987 2.84-9.377 5.43-13.17 7.77-3.787 2.34-7.273 4.823-10.46 7.45s-6.097 5.68-8.73 9.16-5.273 6.803-7.92 9.97c-2.64 3.167-4.39 5.09-5.25 5.77-.867.673-1.34 1.057-1.42 1.15a1.6 1.6 0 0 1-.26.26 1.92 1.92 0 0 1-.32.19 1.57 1.57 0 0 1-.36.1 1.7 1.7 0 0 1-.37.02c-.12-.013-.24-.037-.36-.07-.12-.04-.233-.093-.34-.16a1.83 1.83 0 0 1-.28-.23c-.087-.093-.163-.193-.23-.3a1.51 1.51 0 0 1-.14-.34c-.04-.12-.06-.24-.06-.36a1.68 1.68 0 0 1 .02-.37 1.45 1.45 0 0 1 .12-.35c.053-.113.003-.187-.15-.22s.253-.953 1.22-2.76c.96-1.807 2.173-3.74 3.64-5.8 1.473-2.053 2.9-4.49 4.28-7.31l3.8-7.81c1.147-2.387 2.637-4.82 4.47-7.3s3.177-4.583 4.03-6.31a39.49 39.49 0 0 1 3.08-5.16c1.193-1.713 2.227-3.243 3.1-4.59.88-1.34 1.817-2.293 2.81-2.86s2.06-1.22 3.2-1.96c1.147-.74 2.813-1.227 5-1.46l9.83-1.11c4.373-.507 9.5-.983 15.38-1.43 5.873-.453 12.16-1.21 18.86-2.27l18.51-3.12c5.647-1.027 10.46-2.013 14.44-2.96l6.18-1.45a1.91 1.91 0 0 1 .39 0 1.62 1.62 0 0 1 .4.11 1.54 1.54 0 0 1 .36.19c.113.08.213.173.3.28a1.62 1.62 0 0 1 .23.34 1.83 1.83 0 0 1 .14.38 2.01 2.01 0 0 1 .04.4 1.7 1.7 0 0 1-.05.41 2.99 2.99 0 0 1-.15.38 1.7 1.7 0 0 1-.24.33 2 2 0 0 1-.31.27 1.76 1.76 0 0 1-.37.18l-.19.07zM33.94 88.15l.42 2.75 1.05 5.74c.413 1.987 1.147 3.963 2.2 5.93l3.17 5.63c1.06 1.78 2.4 3.473 4.02 5.08l4.91 5.37 4.47 5.62 4.21 6.09c1.487 2.293 3.257 4.177 5.31 5.65 2.06 1.473 3.883 3.03 5.47 4.67 1.587 1.647 3.44 3.24 5.56 4.78 2.127 1.547 4.063 2.633 5.81 3.26 1.74.62 3.19 1.223 4.35 1.81 1.167.587 2.373.987 3.62 1.2l4.05.49 4.05.18 4.94.08 7.61.07 9.61-.41c3.393-.293 6.69-.953 9.89-1.98 3.207-1.02 6.11-2.053 8.71-3.1l6.97-2.7 5.75-2.08c1.787-.62 3.147-1.34 4.08-2.16.94-.813 2.14-1.587 3.6-2.32s2.927-1.54 4.4-2.42a41.22 41.22 0 0 1 4.61-2.39c1.6-.707 2.823-1.483 3.67-2.33.84-.847 1.977-1.65 3.41-2.41 1.433-.753 2.543-1.44 3.33-2.06s1.63-1.467 2.53-2.54c.9-1.067 1.697-2.137 2.39-3.21.687-1.073 1.527-2.063 2.52-2.97.993-.9 1.787-1.787 2.38-2.66s1.183-1.697 1.77-2.47 1.497-1.77 2.73-2.99l4.03-3.95c1.447-1.42 2.613-2.707 3.5-3.86.88-1.153 1.97-2.737 3.27-4.75a190.84 190.84 0 0 1 4.2-6.19c1.5-2.107 3.04-4.08 4.62-5.92a173.26 173.26 0 0 1 4.77-5.31c1.593-1.7 2.853-3.33 3.78-4.89s1.94-2.883 3.04-3.97 1.803-1.977 2.11-2.67c.3-.693 1.063-1.557 2.29-2.59 1.227-1.027 2.053-2.353 2.48-3.98.42-1.633.69-3.137.81-4.51a114.79 114.79 0 0 0 .27-4.33l.15-4.61c.033-1.567.037-2.93.01-4.09s-.023-1.823.01-1.99c.027-.173.08-.337.16-.49a2.02 2.02 0 0 1 .31-.4c.127-.113.27-.207.43-.28.153-.067.317-.11.49-.13s.343-.01.51.03a1.54 1.54 0 0 1 .47.2c.147.087.273.197.38.33a1.48 1.48 0 0 1 .26.44 1.8 1.8 0 0 1 .11.5c.007.167-.013.333-.06.5a1.83 1.83 0 0 1-.22.46 1.72 1.72 0 0 1-.36.37c-.133.1-.283.177-.45.23a1.57 1.57 0 0 1-.5.08c-.173 0-.34-.03-.5-.09-.167-.053-.317-.133-.45-.24a1.74 1.74 0 0 1-.35-.38c-.093-.14-.16-.293-.2-.46a1.46 1.46 0 0 1-.05-.51 1.41 1.41 0 0 1 .11-.49 1.68 1.68 0 0 1 .27-.44 1.63 1.63 0 0 1 .39-.32c.147-.087.303-.147.47-.18.167-.04.337-.05.51-.03s.337.067.49.14.293.17.42.29a1.67 1.67 0 0 1 .3.41c.08.153.133.317.16.49l.04.25-.08 1.74c-.047 1.16-.067 2.53-.06 4.11l-.01 4.69a148.72 148.72 0 0 1-.09 4.58 26.86 26.86 0 0 1-.51 4.38c-.287 1.427-.743 2.53-1.37 3.31-.633.78-1.44 1.58-2.42 2.4-.987.827-1.767 1.623-2.34 2.39-.567.773-1.33 1.62-2.29 2.54s-1.953 2.237-2.98 3.95-2.32 3.41-3.88 5.09a165.86 165.86 0 0 0-4.61 5.2c-1.513 1.78-2.993 3.713-4.44 5.8-1.453 2.087-2.837 4.177-4.15 6.27s-2.437 3.79-3.37 5.09c-.94 1.293-2.107 2.67-3.5 4.13l-3.76 4.03-2.61 2.8c-.62.64-1.33 1.47-2.13 2.49-.807 1.013-1.633 1.847-2.48 2.5-.853.66-1.66 1.567-2.42 2.72-.76 1.147-1.673 2.36-2.74 3.64s-2.08 2.213-3.04 2.8c-.96.58-2.053 1.183-3.28 1.81a16.93 16.93 0 0 0-3.49 2.4c-1.093.967-2.4 1.783-3.92 2.45a42.32 42.32 0 0 0-4.57 2.39c-1.533.927-2.943 1.703-4.23 2.33s-2.53 1.413-3.73 2.36c-1.193.947-2.683 1.737-4.47 2.37l-5.71 2.08a276.56 276.56 0 0 0-7.03 2.74c-2.66 1.073-5.687 2.147-9.08 3.22a48.52 48.52 0 0 1-10.3 2.08c-3.48.313-6.733.47-9.76.47h-7.66c-2.08-.007-3.753-.047-5.02-.12l-4.25-.28c-1.56-.1-3.1-.297-4.62-.59s-2.79-.743-3.81-1.35c-1.027-.6-2.517-1.267-4.47-2s-4.05-1.923-6.29-3.57c-2.247-1.647-4.11-3.243-5.59-4.79-1.473-1.54-3.343-3.153-5.61-4.84-2.26-1.687-4.127-3.66-5.6-5.92-1.467-2.253-2.847-4.243-4.14-5.97-1.3-1.727-2.757-3.543-4.37-5.45-1.613-1.913-3.3-3.753-5.06-5.52-1.76-1.773-3.19-3.57-4.29-5.39-1.107-1.827-2.24-3.837-3.4-6.03s-1.97-4.307-2.43-6.34a138.89 138.89 0 0 1-1.17-5.8l-.5-2.95a1.68 1.68 0 0 1 .02-.36c.027-.12.067-.237.12-.35a1.61 1.61 0 0 1 .2-.32 1.41 1.41 0 0 1 .27-.26 1.94 1.94 0 0 1 .32-.19 1.6 1.6 0 0 1 .36-.1c.127-.027.247-.033.36-.02a1.4 1.4 0 0 1 .37.07c.12.04.233.093.34.16s.203.147.29.24a1.32 1.32 0 0 1 .22.29c.067.113.117.23.15.35l.06.18z"/><path d="M232.34 41.7l.43 2.3c.28 1.54.33 4.687.15 9.44-.187 4.753-.48 9.2-.88 13.34-.393 4.14-.98 8.483-1.76 13.03l-2.15 12.9c-.64 4.06-1.413 7.597-2.32 10.61l-2.38 7.78c-.687 2.18-1.337 3.92-1.95 5.22s-1.54 2.713-2.78 4.24c-1.233 1.527-3.053 3.243-5.46 5.15-2.413 1.907-4.71 3.997-6.89 6.27s-4.71 4.247-7.59 5.92c-2.88 1.667-5.347 3.283-7.4 4.85l-5.83 4.31c-1.827 1.3-3.78 2.4-5.86 3.3s-4.203 1.547-6.37 1.94c-2.167.387-4.25 1.1-6.25 2.14-1.993 1.033-4.577 1.8-7.75 2.3a104.56 104.56 0 0 1-9.51 1.04 252.27 252.27 0 0 1-9.54.42l-9.57.18-9.13.07-8.48.04-7.74.01c-2.407 0-4.323-.15-5.75-.45-1.427-.307-3.07-.843-4.93-1.61-1.86-.773-3.957-1.787-6.29-3.04-2.333-1.26-4.457-2.467-6.37-3.62-1.913-1.147-3.6-2.283-5.06-3.41s-3.223-2.21-5.29-3.25c-2.067-1.033-4.047-2.263-5.94-3.69-1.893-1.42-3.563-2.907-5.01-4.46-1.447-1.56-2.933-3.283-4.46-5.17a119.72 119.72 0 0 0-5.07-5.84 131.72 131.72 0 0 1-5.38-6.16c-1.733-2.107-2.997-4.117-3.79-6.03s-1.63-3.523-2.51-4.83a69.76 69.76 0 0 1-2.4-3.79c-.727-1.227-1.26-2.617-1.6-4.17-.34-1.547-.853-2.867-1.54-3.96-.687-1.087-1.54-2.263-2.56-3.53l-1.7-2.08a1.41 1.41 0 0 1-.27-.41 1.49 1.49 0 0 1-.12-.48 1.54 1.54 0 0 1 .04-.49c.04-.16.103-.31.19-.45a1.55 1.55 0 0 1 .33-.36 1.45 1.45 0 0 1 .43-.25 1.67 1.67 0 0 1 .48-.09 1.44 1.44 0 0 1 .48.06c.16.047.31.12.45.22.133.093.247.207.34.34a1.51 1.51 0 0 1 .22.44c.053.16.077.323.07.49 0 .167-.03.327-.09.48a1.3 1.3 0 0 1-.24.43c-.1.133-.22.243-.36.33a1.44 1.44 0 0 1-.45.2 1.51 1.51 0 0 1-.49.04 1.49 1.49 0 0 1-.48-.12 1.53 1.53 0 0 1-.41-.26 1.52 1.52 0 0 1-.31-.38 1.33 1.33 0 0 1-.17-.46 1.52 1.52 0 0 1-.02-.49 1.42 1.42 0 0 1 .14-.47 1.34 1.34 0 0 1 .29-.4 1.34 1.34 0 0 1 .4-.29 1.62 1.62 0 0 1 .46-.15c.167-.02.333-.017.5.01a1.66 1.66 0 0 1 .46.17l.21.12 1.71 2.42c1.14 1.607 2.107 3.087 2.9 4.44.787 1.347 1.31 2.677 1.57 3.99a12.02 12.02 0 0 0 1.39 3.73c.673 1.173 1.493 2.49 2.46 3.95.967 1.453 1.78 3.03 2.44 4.73.667 1.7 1.847 3.58 3.54 5.64a135.97 135.97 0 0 0 5.38 6.15c1.887 2.047 3.577 3.99 5.07 5.83 1.493 1.847 2.907 3.497 4.24 4.95s2.88 2.85 4.64 4.19c1.76 1.333 3.743 2.56 5.95 3.68 2.207 1.127 3.997 2.223 5.37 3.29 1.38 1.067 3.01 2.163 4.89 3.29a155.13 155.13 0 0 0 6.2 3.51c2.253 1.213 4.24 2.18 5.96 2.9s3.193 1.233 4.42 1.54 3.04.457 5.44.45l7.73-.01 8.47-.03 9.1-.08 9.51-.17c3.153-.087 6.277-.223 9.37-.41 3.1-.193 6.107-.497 9.02-.91 2.913-.42 5.48-1.187 7.7-2.3 2.22-1.107 4.323-1.83 6.31-2.17s3.937-.913 5.85-1.72c1.92-.813 3.78-1.863 5.58-3.15 1.8-1.28 3.773-2.737 5.92-4.37 2.153-1.633 4.573-3.213 7.26-4.74 2.687-1.52 5.16-3.46 7.42-5.82 2.26-2.353 4.523-4.417 6.79-6.19s3.957-3.34 5.07-4.7 1.96-2.623 2.54-3.79c.58-1.16 1.207-2.827 1.88-5l2.32-7.6c.867-2.893 1.613-6.373 2.24-10.44l2.09-12.82c.76-4.48 1.323-8.767 1.69-12.86a253.42 253.42 0 0 0 .81-12.92c.167-4.527.083-7.553-.25-9.08l-.51-2.48c-.007-.113 0-.233.02-.36a1.34 1.34 0 0 1 .11-.36 1.26 1.26 0 0 1 .19-.33 1.41 1.41 0 0 1 .26-.27 1.6 1.6 0 0 1 .32-.2c.113-.053.233-.093.36-.12a1.29 1.29 0 0 1 .36-.03 1.88 1.88 0 0 1 .38.06 1.96 1.96 0 0 1 .34.15 1.51 1.51 0 0 1 .3.23c.093.087.173.183.24.29a1.57 1.57 0 0 1 .16.34l.06.19zm-115.23.67l-.95 3.68-2.76 8.96c-1.207 3.527-2.053 7.517-2.54 11.97-.493 4.447-.85 8.85-1.07 13.21s-.073 8.193.44 11.5c.507 3.307 1.17 6.263 1.99 8.87.813 2.607 1.69 4.91 2.63 6.91a32.58 32.58 0 0 0 3.33 5.57 204.59 204.59 0 0 1 3.71 5.12c1.187 1.693 2.183 3.033 2.99 4.02.813.987 1.813 1.97 3 2.95s2.607 1.817 4.26 2.51 3.76 1.503 6.32 2.43c2.567.927 5 1.74 7.3 2.44 2.307.693 4.383 1.187 6.23 1.48 1.853.287 3.333.463 4.44.53 1.1.073 2.17.113 3.21.12 1.033.007 2.123-.24 3.27-.74a6.72 6.72 0 0 0 2.82-2.29c.733-1.013 1.757-2.377 3.07-4.09 1.307-1.713 2.373-3.36 3.2-4.94l2.72-5.25c.98-1.92 1.82-4.163 2.52-6.73.693-2.573 1.19-5.01 1.49-7.31.3-2.293.513-4.843.64-7.65l.28-6.93.13-6.16.05-6.76.03-7.47.01-7.77c0-2.407-.297-4.677-.89-6.81-.6-2.14-1.32-4.11-2.16-5.91-.847-1.807-1.73-3.21-2.65-4.21-.913-1-1.75-2.047-2.51-3.14s-1.537-1.773-2.33-2.04-1.907-.453-3.34-.56-2.617-.167-3.55-.18c-.933-.007-2.25.383-3.95 1.17-1.707.787-3.68 2.22-5.92 4.3-2.247 2.08-4.157 4.16-5.73 6.24a28.91 28.91 0 0 0-3.8 6.61l-3.01 7.35c-1.053 2.567-1.797 4.817-2.23 6.75a48.33 48.33 0 0 0-.92 5.94c-.187 2.027-.323 4.237-.41 6.63l-.19 7.42-.08 8.21-.04 8.09c-.013 2.473.127 4.653.42 6.54a13.94 13.94 0 0 0 1.93 5.25c.993 1.613 2.15 3.223 3.47 4.83s2.827 2.87 4.52 3.79l5.5 2.93c1.987 1.04 3.813 1.763 5.48 2.17 1.673.407 3.317.7 4.93.88s3.153.17 4.62-.03c1.473-.2 2.603-.743 3.39-1.63s1.343-2.073 1.67-3.56.573-3.617.74-6.39c.167-2.767.29-6.433.37-11l.16-13.91.07-11.89.03-8.28v-5.26c-.007-1.22-.427-2.297-1.26-3.23s-1.757-2.117-2.77-3.55c-1.007-1.433-2.303-2.877-3.89-4.33-1.587-1.447-3.293-2.613-5.12-3.5s-3.593-1.68-5.3-2.38a23.1 23.1 0 0 0-5.36-1.47c-1.873-.273-3.933-.487-6.18-.64-2.253-.147-4.383.633-6.39 2.34s-4.053 4.12-6.14 7.24l-6.36 9.49c-2.153 3.2-3.977 6.373-5.47 9.52-1.5 3.147-2.56 5.823-3.18 8.03s-.907 4.037-.86 5.49c.047 1.447.363 2.897.95 4.35.6 1.447 1.323 2.937 2.17 4.47s1.86 2.73 3.04 3.59l3.96 2.83c1.46 1.02 2.637 1.7 3.53 2.04s2.07.557 3.53.65a206.74 206.74 0 0 0 5.44.26c2.173.087 4.273-.14 6.3-.68 2.02-.54 4.057-1.363 6.11-2.47 2.053-1.1 4.017-2.053 5.89-2.86 1.88-.8 3.307-1.633 4.28-2.5l3.04-2.77c1.06-.973 1.767-2.053 2.12-3.24.36-1.18.63-2.473.81-3.88.18-1.4.16-2.82-.06-4.26-.22-1.433-.527-3.08-.92-4.94-.393-1.853-.967-3.597-1.72-5.23l-2.01-4.39c-.587-1.293-1.4-2.137-2.44-2.53s-2.01-.85-2.91-1.37-1.733-.837-2.5-.95-1.823.057-3.17.51c-1.347.447-2.887 1.623-4.62 3.53-1.74 1.907-3.3 4.013-4.68 6.32-1.387 2.307-2.52 4.84-3.4 7.6-.887 2.76-1.52 5.777-1.9 9.05s-.657 6.223-.83 8.85l-.37 6.98c-.08 2.02.133 3.663.64 4.93.5 1.267 1.257 2.117 2.27 2.55 1.013.44 2.16.773 3.44 1 1.28.233 2.753.26 4.42.08 1.673-.18 3.25-.87 4.73-2.07 1.487-1.193 2.68-3.057 3.58-5.59.907-2.533 1.567-5.853 1.98-9.96s.713-8.417.9-12.93c.187-4.52-.133-8.457-.96-11.81-.827-3.347-1.87-6.49-3.13-9.43-1.253-2.94-2.287-5.177-3.1-6.71-.82-1.533-1.667-2.547-2.54-3.04-.88-.5-2.383-.887-4.51-1.16l-3.49-.5a2.03 2.03 0 0 1-.54-.26c-.167-.12-.31-.263-.43-.43s-.21-.347-.27-.54a1.8 1.8 0 0 1-.08-.6c.007-.2.043-.397.11-.59a1.69 1.69 0 0 1 .3-.53 1.79 1.79 0 0 1 .44-.4 1.92 1.92 0 0 1 .56-.25c.193-.047.393-.063.6-.05.2.02.397.07.59.15a1.93 1.93 0 0 1 .51.32 1.74 1.74 0 0 1 .38.47 1.96 1.96 0 0 1 .21.57c.04.2.047.4.02.6a1.85 1.85 0 0 1-.18.58 1.79 1.79 0 0 1-.84.84 1.73 1.73 0 0 1-.58.18 1.65 1.65 0 0 1-.6-.01 1.96 1.96 0 0 1-.57-.21 1.82 1.82 0 0 1-.47-.37 1.81 1.81 0 0 1-.33-.51 1.97 1.97 0 0 1-.15-.59 2.03 2.03 0 0 1 .05-.6 1.64 1.64 0 0 1 .24-.55 1.88 1.88 0 0 1 .4-.46 2.02 2.02 0 0 1 .52-.3c.193-.067.393-.103.6-.11l.3-.01 2.58.47c1.727.307 2.983.667 3.77 1.08.793.407 1.727 1.037 2.8 1.89s2.05 2.097 2.93 3.73c.88 1.64 1.97 3.997 3.27 7.07s2.38 6.403 3.24 9.99c.853 3.587 1.187 7.67 1 12.25-.187 4.587-.51 9.043-.97 13.37-.46 4.32-1.267 7.917-2.42 10.79-1.147 2.88-2.677 5.027-4.59 6.44-1.913 1.42-3.863 2.233-5.85 2.44s-3.757.157-5.31-.15c-1.553-.3-2.99-.863-4.31-1.69-1.327-.827-2.32-2.09-2.98-3.79-.667-1.707-.97-3.6-.91-5.68l.33-7.13c.16-2.68.44-5.75.84-9.21.393-3.453 1.063-6.663 2.01-9.63s2.157-5.707 3.63-8.22c1.48-2.507 3.273-4.863 5.38-7.07 2.107-2.213 4.12-3.61 6.04-4.19s3.457-.69 4.61-.33c1.153.353 2.093.82 2.82 1.4.727.573 1.763 1.237 3.11 1.99 1.34.753 2.357 1.83 3.05 3.23.687 1.393 1.44 2.997 2.26 4.81a28.15 28.15 0 0 1 1.84 5.59c.407 1.92.727 3.717.96 5.39.227 1.673.237 3.303.03 4.89a21.66 21.66 0 0 1-1.15 4.67c-.553 1.527-1.377 2.82-2.47 3.88a100.34 100.34 0 0 1-3.44 3.16c-1.2 1.04-2.697 1.967-4.49 2.78-1.793.807-3.813 1.833-6.06 3.08s-4.533 2.197-6.86 2.85c-2.32.66-4.62.997-6.9 1.01-2.28.02-3.923-.043-4.93-.19s-1.893-.367-2.66-.66c-.767-.287-1.633-.7-2.6-1.24-.973-.54-2.2-1.33-3.68-2.37-1.487-1.04-2.93-2.117-4.33-3.23-1.407-1.113-2.567-2.5-3.48-4.16-.907-1.653-1.687-3.35-2.34-5.09-.653-1.733-.99-3.457-1.01-5.17-.013-1.72.317-3.757.99-6.11s1.787-5.16 3.34-8.42c1.56-3.253 3.417-6.487 5.57-9.7l6.62-9.76c2.26-3.307 4.62-5.893 7.08-7.76 2.46-1.86 4.933-2.737 7.42-2.63 2.493.107 4.77.327 6.83.66 2.067.327 3.987.85 5.76 1.57a81.8 81.8 0 0 1 5.7 2.62c2.033 1.013 3.91 2.317 5.63 3.91 1.727 1.587 3.087 3.077 4.08 4.47l3 4.16c1.007 1.38 1.503 2.74 1.49 4.08l-.02 5.46-.03 8.28-.07 11.91-.17 13.98c-.073 4.607-.207 8.377-.4 11.31-.193 2.927-.553 5.307-1.08 7.14-.52 1.833-1.387 3.323-2.6 4.47-1.213 1.14-2.717 1.837-4.51 2.09a20.97 20.97 0 0 1-5.28.09 40.29 40.29 0 0 1-5.39-1.02c-1.86-.48-3.793-1.247-5.8-2.3-2.013-1.053-3.98-2.133-5.9-3.24-1.927-1.113-3.597-2.533-5.01-4.26a40.75 40.75 0 0 1-3.77-5.45c-1.107-1.907-1.817-3.883-2.13-5.93-.32-2.053-.477-4.317-.47-6.79l.02-8.1.06-8.26.15-7.52a120.55 120.55 0 0 1 .39-6.88 50.94 50.94 0 0 1 .96-6.36c.453-2.093 1.19-4.433 2.21-7.02l3.08-7.75a33.06 33.06 0 0 1 4.04-7.27c1.66-2.273 3.733-4.59 6.22-6.95s4.837-4.053 7.05-5.08c2.22-1.02 3.863-1.5 4.93-1.44a35.78 35.78 0 0 1 3.12.31c1.007.153 1.897.38 2.67.68s1.683.777 2.73 1.43a8.34 8.34 0 0 1 2.62 2.58c.687 1.073 1.557 2.21 2.61 3.41 1.053 1.207 2.03 2.783 2.93 4.73s1.667 4.103 2.3 6.47a27.77 27.77 0 0 1 .94 7.16l-.01 7.79-.02 7.48-.04 6.79-.12 6.22-.27 7.06c-.133 2.88-.357 5.527-.67 7.94-.313 2.42-.847 5.003-1.6 7.75-.747 2.747-1.607 5.09-2.58 7.03l-2.8 5.49c-.893 1.727-1.983 3.46-3.27 5.2l-3.52 4.59c-1.06 1.327-2.397 2.327-4.01 3-1.62.68-3 .97-4.14.87s-2.277-.243-3.41-.43l-4.65-.74c-1.967-.307-4.127-.813-6.48-1.52-2.347-.713-4.83-1.537-7.45-2.47-2.613-.94-4.857-1.817-6.73-2.63s-3.48-1.777-4.82-2.89-2.413-2.197-3.22-3.25c-.807-1.06-1.797-2.427-2.97-4.1l-3.82-5.31a35.79 35.79 0 0 1-3.55-5.96c-1-2.113-1.927-4.54-2.78-7.28-.853-2.733-1.547-5.843-2.08-9.33-.533-3.493-.697-7.45-.49-11.87a221.36 221.36 0 0 1 1.07-13.6c.513-4.653 1.347-8.713 2.5-12.18 1.16-3.467 2.033-6.43 2.62-8.89l.96-3.85a1.2 1.2 0 0 1 .17-.33 1.98 1.98 0 0 1 .25-.28c.093-.08.197-.15.31-.21a1.4 1.4 0 0 1 .35-.13 1.34 1.34 0 0 1 .36-.05 1.39 1.39 0 0 1 .37.05c.12.033.237.077.35.13a1.45 1.45 0 0 1 .31.22 1.23 1.23 0 0 1 .24.28 1.46 1.46 0 0 1 .18.33 2.37 2.37 0 0 1 .09.36 1.4 1.4 0 0 1-.01.37l-.02.18z"/></svg>