<svg xmlns="http://www.w3.org/2000/svg" width="286" height="73" fill="#fff" xmlns:v="https://vecta.io/nano"><path d="M8.9 47.3l1.87-1.83c1.253-1.213 3.593-2.583 7.02-4.11 3.433-1.52 6.6-3.033 9.5-4.54 2.907-1.513 6.85-3.213 11.83-5.1 4.973-1.893 10.05-3.7 15.23-5.42l14.73-5.04c4.64-1.647 8.727-2.977 12.26-3.99 3.54-1.013 6.65-2.033 9.33-3.06s5.703-1.923 9.07-2.69c3.36-.767 7.153-1.313 11.38-1.64s8-.557 11.32-.69l8.47-.29 6.37-.12c1.913-.027 3.43-.073 4.55-.14 1.113-.067 2.677-.093 4.69-.08l7.98.03c3.313.007 6.783.323 10.41.95 3.633.633 7.307 1.55 11.02 2.75s7.08 2.047 10.1 2.54c3.027.487 5.817.993 8.37 1.52s4.96.897 7.22 1.11c2.26.22 4.96.53 8.1.93 3.14.407 6.737.693 10.79.86 4.053.173 7.75.607 11.09 1.3s6.147 1.183 8.42 1.47c2.28.287 4.207.49 5.78.61 1.573.127 3.337.373 5.29.74s4.42.933 7.4 1.7l7.76 2.12c2.193.633 3.903 1.07 5.13 1.31 1.233.233 2.11.517 2.63.85s.843.523.97.57a1.31 1.31 0 0 1 .35.17 1.65 1.65 0 0 1 .31.26c.087.093.163.2.23.32.067.113.117.233.15.36.04.133.06.267.06.4.007.133-.007.263-.04.39a1.52 1.52 0 0 1-.13.38 1.85 1.85 0 0 1-.21.33c-.087.1-.183.19-.29.27-.113.08-.23.147-.35.2a2 2 0 0 1-.38.1c-.133.02-.267.023-.4.01s-.49.3-1.07.94-1.873 1.597-3.88 2.87L262.75 41c-2.38 1.453-4.56 2.65-6.54 3.59-1.973.94-3.877 1.62-5.71 2.04s-3.763.717-5.79.89-4.05.443-6.07.81c-2.02.36-4.723.623-8.11.79-3.393.167-6.997.587-10.81 1.26a117.44 117.44 0 0 1-11.47 1.45c-3.833.293-7.483.503-10.95.63l-8.79.26-6.96.11-6.64.05-7.43.02h-8.67l-8.75.01h-8.32-6.75l-4.71.02c-1.367.007-2.497.05-3.39.13-.887.08-1.823.147-2.81.2-.993.053-2.313.06-3.96.02l-5.36-.1-6.88-.07-8.44-.06-7.73-.04-5.59-.03c-1.54-.007-2.943.003-4.21.03s-2.323.08-3.17.16c-.847.073-1.91.11-3.19.11s-2.65-.017-4.11-.05l-4.51-.09-4.68-.06-5.21-.05-5.43-.03c-1.727-.013-3.11.013-4.15.08l-3.14.16-3.18.12a59.57 59.57 0 0 1-3.65.01l-4.31-.11c-1.5-.033-2.723-.023-3.67.03-.947.06-1.93.107-2.95.14-1.013.04-4.087-.507-9.22-1.64l-7.96-1.8a1.74 1.74 0 0 1-.48-.28 1.82 1.82 0 0 1-.36-.42c-.093-.16-.163-.33-.21-.51a1.71 1.71 0 0 1-.03-.55 1.78 1.78 0 0 1 .14-.53c.08-.173.183-.33.31-.47.127-.133.273-.243.44-.33.167-.093.343-.157.53-.19.18-.027.36-.027.54 0 .187.027.363.083.53.17a1.56 1.56 0 0 1 .44.34 1.63 1.63 0 0 1 .32.45 1.72 1.72 0 0 1 .15.54 1.64 1.64 0 0 1-.03.54 1.75 1.75 0 0 1-.2.52c-.093.16-.213.3-.36.42-.14.127-.297.223-.47.29a1.68 1.68 0 0 1-.54.13c-.18.007-.36-.013-.54-.06s-.35-.123-.51-.23c-.153-.107-.287-.233-.4-.38a1.84 1.84 0 0 1-.27-.49 1.64 1.64 0 0 1-.09-.54 1.7 1.7 0 0 1 .09-.54c.053-.18.137-.343.25-.49a1.71 1.71 0 0 1 .4-.39 1.55 1.55 0 0 1 .5-.23 1.76 1.76 0 0 1 .55-.07l.28.02 7.35 1.5c4.893.993 7.847 1.51 8.86 1.55 1.013.033 1.993.08 2.94.14.947.053 2.17.063 3.67.03l4.31-.11a59.65 59.65 0 0 1 3.65.01l3.18.12 3.14.16c1.04.067 2.423.093 4.15.08l5.43-.03 5.21-.05 4.68-.06 4.51-.09 4.11-.05c1.28 0 2.343.037 3.19.11.847.08 1.903.133 3.17.16l4.21.03 5.59-.03 7.73-.04 8.44-.06 6.88-.07 5.36-.1c1.647-.04 2.967-.033 3.96.02a78.61 78.61 0 0 1 2.81.2c.893.08 2.023.123 3.39.13l4.71.02h6.75 8.32l8.74-.01 8.67-.01 7.42-.02 6.61-.04 6.93-.12 8.72-.26c3.433-.127 7.023-.33 10.77-.61 3.747-.287 7.583-.773 11.51-1.46 3.92-.687 7.517-1.107 10.79-1.26 3.273-.16 5.96-.433 8.06-.82 2.107-.387 4.113-.66 6.02-.82 1.9-.16 3.67-.423 5.31-.79 1.647-.367 3.407-1.003 5.28-1.91 1.88-.907 3.997-2.09 6.35-3.55l6.4-4.05 5.01-3.28c1.427-.947 2.203-1.397 2.33-1.35a1.31 1.31 0 0 1 .35.17 1.65 1.65 0 0 1 .31.26c.087.093.163.2.23.32.067.113.117.233.15.36.04.133.06.267.06.4.007.133-.007.263-.04.39a1.52 1.52 0 0 1-.13.38 1.85 1.85 0 0 1-.21.33c-.087.1-.183.19-.29.27-.113.08-.23.147-.35.2a2 2 0 0 1-.38.1c-.133.02-.267.023-.4.01s-.463-.273-.99-.78c-.527-.513-1.407-.92-2.64-1.22-1.233-.293-2.93-.757-5.09-1.39-2.167-.627-4.713-1.32-7.64-2.08s-5.32-1.317-7.18-1.67c-1.853-.353-3.59-.59-5.21-.71-1.613-.127-3.593-.34-5.94-.64-2.347-.293-5.12-.78-8.32-1.46-3.2-.673-6.863-1.097-10.99-1.27s-7.747-.457-10.86-.85l-8.19-.94c-2.353-.227-4.79-.597-7.31-1.11-2.527-.513-5.367-1.027-8.52-1.54s-6.527-1.347-10.12-2.5c-3.6-1.16-7.137-2.04-10.61-2.64-3.473-.593-6.863-.883-10.17-.87l-7.96.05c-2.007.02-3.567.007-4.68-.04-1.12-.047-2.63-.06-4.53-.04l-6.33.13-8.4.29c-3.293.133-6.987.357-11.08.67-4.1.307-7.77.827-11.01 1.56-3.247.733-6.243 1.627-8.99 2.68-2.753 1.06-5.87 2.09-9.35 3.09-3.487 1.007-7.557 2.337-12.21 3.99l-14.68 5.06a372.29 372.29 0 0 0-15.02 5.38c-4.867 1.86-8.777 3.57-11.73 5.13-2.953 1.553-5.997 3.01-9.13 4.37s-5.3 2.66-6.5 3.9l-1.95 1.96a1.92 1.92 0 0 1-.32.19c-.113.053-.233.09-.36.11a1.63 1.63 0 0 1-.36.02c-.127-.007-.25-.027-.37-.06-.12-.04-.233-.093-.34-.16s-.203-.143-.29-.23-.163-.183-.23-.29-.12-.22-.16-.34c-.033-.12-.053-.243-.06-.37a1.63 1.63 0 0 1 .02-.36 1.33 1.33 0 0 1 .11-.36 1.93 1.93 0 0 1 .19-.32l.12-.15z"/><path d="M109.6 13.2l-.09 2.3-.16 4.65-.12 5.2c-.033 1.887.237 3.937.81 6.15l1.67 6.18 1.26 4.57c.287 1.14.944 2.073 1.97 2.8s1.837 1.56 2.43 2.5 1.5 1.62 2.72 2.04c1.214.413 2.43.727 3.65.94 1.22.22 2.707.393 4.46.52l4.7.3 3.86.1 3.93.06h3.73l1.86-.01a1.84 1.84 0 0 1 .53.18c.16.087.307.2.44.34.127.133.23.287.31.46.074.173.12.353.14.54a1.69 1.69 0 0 1-.03.55 1.61 1.61 0 0 1-.21.52c-.093.16-.213.3-.36.42-.14.12-.3.213-.48.28-.173.073-.353.113-.54.12-.186.013-.37-.007-.55-.06s-.35-.133-.51-.24c-.153-.107-.286-.233-.4-.38-.113-.153-.2-.317-.26-.49a1.94 1.94 0 0 1-.08-.55 1.73 1.73 0 0 1 .09-.55c.06-.18.147-.343.26-.49a1.73 1.73 0 0 1 .41-.38 1.56 1.56 0 0 1 .5-.23c.18-.053.367-.073.56-.06.187.013.367.053.54.12a1.78 1.78 0 0 1 .47.29c.147.12.267.263.36.43a1.45 1.45 0 0 1 .2.51 1.76 1.76 0 0 1 .03.56 1.61 1.61 0 0 1-.15.53 1.68 1.68 0 0 1-.31.46 1.69 1.69 0 0 1-.45.34c-.166.087-.34.143-.52.17l-.28.05-1.59-.08-3.74-.02h-3.97l-3.91-.05c-1.393 0-3.03-.017-4.91-.05l-5.17-.28c-1.566-.167-2.99-.5-4.27-1-1.273-.507-2.26-1.347-2.96-2.52-.7-1.18-1.5-2.02-2.4-2.52s-1.583-1.253-2.05-2.26a12.61 12.61 0 0 1-.99-3.15c-.193-1.1-.583-2.61-1.17-4.53L107 31.9c-.653-2.46-.996-4.64-1.03-6.54l-.12-5.21-.16-4.65-.07-2.54a1.8 1.8 0 0 1 .12-.46 2.42 2.42 0 0 1 .22-.43 2.09 2.09 0 0 1 .32-.36c.12-.107.254-.197.4-.27.14-.073.29-.13.45-.17a1.86 1.86 0 0 1 .47-.06 1.85 1.85 0 0 1 .47.06c.16.04.31.097.45.17a1.83 1.83 0 0 1 .4.27 2.05 2.05 0 0 1 .32.36c.087.133.16.277.22.43a1.8 1.8 0 0 1 .12.46l.02.24z"/><path d="M158.28 43.25l.57-2.74.84-4.77c.173-1.353.633-2.867 1.38-4.54.753-1.667 1.267-3.217 1.54-4.65.28-1.44.45-2.633.51-3.58l.1-2.9.04-2.77c.02-.853.277-1.64.77-2.36s1.53-1.123 3.11-1.21c1.587-.087 2.693.21 3.32.89.62.673 1.05 1.563 1.29 2.67l.76 4.48c.26 1.887.437 4.047.53 6.48.093 2.44-.167 5.153-.78 8.14s-1.537 5.753-2.77 8.3c-1.24 2.547-2.6 4.83-4.08 6.85l-3.6 5.16c-.92 1.413-2.1 2.64-3.54 3.68-1.447 1.047-2.98 1.793-4.6 2.24-1.627.447-3.247.753-4.86.92l-3.89.47c-.973.147-2.14.233-3.5.26l-3.34.15c-.88.08-1.983.033-3.31-.14-1.333-.167-2.343-.783-3.03-1.85-.68-1.06-1.223-2.537-1.63-4.43l-.61-3.18c-.007-.227.027-.45.1-.67a1.96 1.96 0 0 1 .31-.61 2.04 2.04 0 0 1 .49-.47c.187-.133.393-.233.62-.3.22-.067.443-.093.67-.08a1.91 1.91 0 0 1 .67.14 2.09 2.09 0 0 1 .59.34 1.98 1.98 0 0 1 .45.52 2.08 2.08 0 0 1 .26.63 1.93 1.93 0 0 1 .04.68 2.1 2.1 0 0 1-.17.66 2.11 2.11 0 0 1-.38.57 1.98 1.98 0 0 1-.53.41c-.207.113-.423.19-.65.23s-.453.043-.68.01-.443-.103-.65-.21-.39-.243-.55-.41a1.96 1.96 0 0 1-.39-.56c-.1-.207-.163-.423-.19-.65s-.017-.453.03-.68a2.04 2.04 0 0 1 .25-.64 1.91 1.91 0 0 1 .43-.52 2.01 2.01 0 0 1 .58-.36 1.91 1.91 0 0 1 .66-.16 2.11 2.11 0 0 1 .68.07c.227.06.437.153.63.28a2.34 2.34 0 0 1 .5.46 1.99 1.99 0 0 1 .32.6l.12.32.32 2.4c.213 1.6.713 2.697 1.5 3.29.787.587 1.613.907 2.48.96.873.053 1.96.063 3.26.03l3.39-.05c.953 0 2.167-.08 3.64-.24a30.96 30.96 0 0 0 4.21-.74c1.327-.34 2.57-.907 3.73-1.7 1.16-.8 2.19-1.937 3.09-3.41l3.34-5.03c1.333-1.887 2.533-3.987 3.6-6.3 1.073-2.307 1.85-4.8 2.33-7.48.487-2.68.62-5.14.4-7.38s-.563-4.31-1.03-6.21c-.46-1.907-.71-3.373-.75-4.4-.047-1.033-.107-1.19-.18-.47l-.25 2.68-.42 3.09-.71 4.02c-.287 1.693-.723 3.217-1.31 4.57-.587 1.36-.923 2.76-1.01 4.2l-.47 4.93-.43 3.02a1.96 1.96 0 0 1-.2.47 2.3 2.3 0 0 1-.31.41 1.83 1.83 0 0 1-.4.32c-.147.093-.303.167-.47.22a2.08 2.08 0 0 1-.5.1c-.167.013-.337.007-.51-.02a2.15 2.15 0 0 1-.49-.14 2.73 2.73 0 0 1-.45-.26 2.69 2.69 0 0 1-.37-.36 2.08 2.08 0 0 1-.27-.44 2.01 2.01 0 0 1-.16-.49 2.11 2.11 0 0 1-.04-.5l.01-.26zM123.44 30.8l.06-3.22c.04-2.147.39-4.653 1.05-7.52.647-2.867 1.62-5.063 2.92-6.59 1.294-1.527 2.304-1.9 3.03-1.12.72.773 1.087 2.387 1.1 4.84v7l-.06 7.01-.11 5.58c-.053 1.24.65 2.04 2.11 2.4a29.27 29.27 0 0 0 4.59.76c1.594.147 2.767-.03 3.52-.53.747-.5 1.724-1.843 2.93-4.03l3.35-5.9 1.7-2.82a1.38 1.38 0 0 1 .36-.32 1.58 1.58 0 0 1 .45-.19c.16-.04.32-.053.48-.04.167.013.324.053.47.12a1.52 1.52 0 0 1 .41.26 1.64 1.64 0 0 1 .3.38 1.66 1.66 0 0 1 .17.46 1.27 1.27 0 0 1 .01.48c-.02.167-.066.323-.14.47s-.17.277-.29.39a1.48 1.48 0 0 1-.39.28 1.43 1.43 0 0 1-.47.14c-.16.02-.32.017-.48-.01a1.52 1.52 0 0 1-.46-.17c-.14-.08-.266-.183-.38-.31a1.56 1.56 0 0 1-.26-.41 1.58 1.58 0 0 1-.11-.47c-.013-.16 0-.32.04-.48s.104-.31.19-.45a1.92 1.92 0 0 1 .33-.36c.127-.1.267-.18.42-.24.154-.053.314-.083.48-.09a1.64 1.64 0 0 1 .48.07 1.7 1.7 0 0 1 .44.22c.127.093.24.207.34.34a1.63 1.63 0 0 1 .21.44c.047.16.067.32.06.48 0 .167-.03.327-.09.48l-.08.23-1.48 2.66-3.76 6.55c-1.52 2.593-2.946 4.207-4.28 4.84-1.333.64-2.93.927-4.79.86-1.86-.06-3.496-.28-4.91-.66-1.42-.38-2.486-1.02-3.2-1.92-.72-.9-1.11-2.087-1.17-3.56l-.14-5.91-.14-6.98-.13-6.76c-.04-2.313.02-3.063.18-2.25.167.82-.036 2.547-.61 5.18-.566 2.64-.83 5.033-.79 7.18l.04 3.42a2.14 2.14 0 0 1-.1.41 1.78 1.78 0 0 1-.2.37 1.59 1.59 0 0 1-.28.32 1.84 1.84 0 0 1-.35.24c-.127.067-.256.117-.39.15-.14.033-.28.05-.42.05s-.28-.017-.42-.05a1.75 1.75 0 0 1-.39-.15 1.87 1.87 0 0 1-.35-.24 1.63 1.63 0 0 1-.28-.32c-.08-.113-.146-.237-.2-.37a2.21 2.21 0 0 1-.1-.41l-.02-.21z"/><path d="M150.8 20.85l1.84.02h3.54l3.8.07 2.32.1c.14.02.28.053.42.1.133.053.26.12.38.2.113.08.22.177.32.29a1.84 1.84 0 0 1 .24.35c.067.127.117.26.15.4s.05.28.05.42-.017.28-.05.42a1.67 1.67 0 0 1-.15.4c-.067.127-.147.243-.24.35a1.86 1.86 0 0 1-.32.29c-.12.08-.247.147-.38.2-.14.047-.28.08-.42.1s-2.093.027-5.86.02l-5.92-.05a1.97 1.97 0 0 1-.54-.18c-.167-.093-.317-.21-.45-.35s-.24-.297-.32-.47-.13-.357-.15-.55a1.71 1.71 0 0 1 .03-.55 1.73 1.73 0 0 1 .21-.53c.1-.167.223-.31.37-.43a1.77 1.77 0 0 1 .49-.3 1.89 1.89 0 0 1 .55-.12 1.91 1.91 0 0 1 .55.06c.187.053.36.133.52.24s.297.237.41.39c.12.153.21.32.27.5a1.82 1.82 0 0 1 .09.56 1.82 1.82 0 0 1-.09.56c-.06.18-.15.347-.27.5a1.62 1.62 0 0 1-.41.39 1.84 1.84 0 0 1-.52.24c-.18.047-.363.067-.55.06a2 2 0 0 1-.56-.12 1.82 1.82 0 0 1-.48-.3c-.147-.12-.27-.263-.37-.43s-.17-.343-.21-.53a1.76 1.76 0 0 1-.03-.56 1.72 1.72 0 0 1 .15-.54c.08-.173.187-.33.32-.47a1.89 1.89 0 0 1 .45-.35c.173-.087.353-.147.54-.18l.28-.04 5.64-.01 5.86.02c.14.02.28.053.42.1.133.053.26.12.38.2.113.08.22.177.32.29a1.84 1.84 0 0 1 .24.35c.067.127.117.26.15.4s.05.28.05.42-.017.28-.05.42a1.67 1.67 0 0 1-.15.4c-.067.127-.147.243-.24.35a1.86 1.86 0 0 1-.32.29c-.12.08-.247.147-.38.2-.14.047-.28.08-.42.1s-.913.053-2.32.1l-3.8.07a316.33 316.33 0 0 0-3.54 0c-1.227.013-1.917.01-2.07-.01a2.12 2.12 0 0 1-.45-.11 1.79 1.79 0 0 1-.42-.22 1.91 1.91 0 0 1-.35-.31 1.9 1.9 0 0 1-.26-.38 2.09 2.09 0 0 1-.17-.44c-.04-.153-.06-.307-.06-.46s.02-.307.06-.46a2.09 2.09 0 0 1 .17-.44 1.9 1.9 0 0 1 .26-.38c.107-.12.223-.223.35-.31a1.8 1.8 0 0 1 .42-.22c.147-.053.297-.09.45-.11l.23-.03z"/></svg>