<svg xmlns="http://www.w3.org/2000/svg" width="248" height="40" fill="none" xmlns:v="https://vecta.io/nano"><path d="M11.6 25.84l1.38-.08 2.88-.12 2.6-.11c.727-.047 1.627-.197 2.7-.45s2.387-.42 3.94-.5c1.553-.087 3.223-.283 5.01-.59 1.787-.3 3.717-.517 5.79-.65l6.74-.25c2.413-.04 5.16-.367 8.24-.98s6.393-1.053 9.94-1.32a374.31 374.31 0 0 0 11.21-1.02c3.927-.407 8.247-1.003 12.96-1.79 4.713-.78 9.94-1.337 15.68-1.67 5.746-.34 12.136-.58 19.17-.72l21.48-.3 19.71-.12 15.27-.05c4.333-.013 7.853-.173 10.56-.48l6.3-.66c1.493-.133 2.71-.267 3.65-.4.946-.133 1.933-.24 2.96-.32 1.026-.073 2.22-.107 3.58-.1s2.896-.123 4.61-.39c1.713-.273 3.356-.757 4.93-1.45 1.58-.687 3.243-1.197 4.99-1.53l4.14-.8c1.026-.2 2.236-.327 3.63-.38a130.05 130.05 0 0 1 4.35-.07c1.506 0 2.73-.037 3.67-.11s1.48-.103 1.62-.09c.133.013.263.043.39.09a1.51 1.51 0 0 1 .37.19 1.68 1.68 0 0 1 .31.26c.093.1.173.213.24.34a1.61 1.61 0 0 1 .15.38c.033.127.053.26.06.4a1.7 1.7 0 0 1-.05.41c-.027.133-.074.26-.14.38-.06.127-.134.24-.22.34-.094.107-.194.2-.3.28a1.58 1.58 0 0 1-.36.19c-.134.053-.267.09-.4.11l-4.56.66-8.54 1.13-8.73 1.13c-3.027.433-5.927 1.04-8.7 1.82-2.767.78-5.71 1.343-8.83 1.69-3.12.34-6.24.733-9.36 1.18-3.12.44-5.974.753-8.56.94s-4.994.617-7.22 1.29a42.95 42.95 0 0 1-6.75 1.47l-8.51 1.11c-3.394.427-6.594.733-9.6.92-3.007.18-6.07.31-9.19.39l-8.5.16-6.38.07c-1.694.013-3.057.057-4.09.13-1.027.08-1.877.263-2.55.55-.674.293-1.517.603-2.53.93-1.02.32-2.194.5-3.52.54s-2.877.04-4.65 0l-5.63-.11-6.98-.1-7.57-.06-6.44-.06-5.95-.05-5.75-.03-5.21-.03-4.97-.01c-1.633-.007-2.95.023-3.95.09a88.27 88.27 0 0 1-3.06.17l-2.68.17c-.753.067-1.593.12-2.52.16l-2.91.09-3.08.05a63.71 63.71 0 0 1-3.59-.07c-1.353-.06-2.843.173-4.47.7a29.82 29.82 0 0 1-5.13 1.16 64.24 64.24 0 0 1-5.22.49c-1.687.087-3.037.18-4.05.28-1.007.1-1.883.2-2.63.3-.747.093-1.193.133-1.34.12-.153-.02-.303-.053-.45-.1-.147-.053-.283-.12-.41-.2-.133-.087-.253-.187-.36-.3s-.197-.237-.27-.37-.13-.277-.17-.43c-.047-.147-.07-.297-.07-.45a1.79 1.79 0 0 1 .04-.46 1.82 1.82 0 0 1 .15-.43 1.85 1.85 0 0 1 .25-.39 1.66 1.66 0 0 1 .34-.31c.127-.087.26-.16.4-.22a1.8 1.8 0 0 1 .44-.12c.153-.02 1.74-.153 4.76-.4 3.027-.247 7.96-.567 14.8-.96l25.22-1.3c9.96-.46 20.113-1.09 30.46-1.89l28.12-2.16 19.33-1.36 10.07-.57 5.67-.24c1.566-.04 2.833-.107 3.8-.2l2.54-.27c.72-.08 1.543-.143 2.47-.19.92-.053 2.123-.1 3.61-.14s2.986-.523 4.5-1.45c1.513-.933 2.656-1.48 3.43-1.64.78-.167 1.723-.313 2.83-.44s1.793-.177 2.06-.15c.273.02.533.083.78.19a2.49 2.49 0 0 1 .68.44c.2.18.366.387.5.62a2.84 2.84 0 0 1 .27.76c.046.26.053.527.02.8-.04.267-.12.52-.24.76-.12.247-.277.463-.47.65a2.5 2.5 0 0 1-.65.47 2.45 2.45 0 0 1-.77.23c-.267.033-.534.027-.8-.02a2.48 2.48 0 0 1-.75-.28 2.38 2.38 0 0 1-.62-.51 2.43 2.43 0 0 1-.43-.67c-.107-.253-.17-.513-.19-.78a2.28 2.28 0 0 1 .06-.8c.066-.26.173-.507.32-.74.146-.227.326-.423.54-.59a2.56 2.56 0 0 1 .7-.39c.253-.093.516-.143.79-.15a2.46 2.46 0 0 1 .79.11 2.43 2.43 0 0 1 .72.36c.22.16.406.35.56.57a2.43 2.43 0 0 1 .36.72c.073.253.106.517.1.79a2.46 2.46 0 0 1-.15.79 2.33 2.33 0 0 1-.4.69c-.167.213-.367.393-.6.54-.227.14-.47.243-.73.31l-.4.1-1.48.06c-.98.033-2.1.13-3.36.29-1.254.16-2.404.6-3.45 1.32-1.04.713-2.424 1.053-4.15 1.02l-3.95-.12a50.03 50.03 0 0 1-2.44-.16 89.43 89.43 0 0 0-2.52-.17c-.967-.047-2.22-.043-3.76.01l-5.63.27-10.03.63-19.3 1.44-28.15 2.27a1026.29 1026.29 0 0 1-30.48 2.04L31.17 29.3c-6.8.473-11.75.893-14.85 1.26l-4.88.52c-.153-.02-.303-.053-.45-.1-.147-.053-.283-.12-.41-.2-.133-.087-.253-.187-.36-.3s-.197-.237-.27-.37-.13-.277-.17-.43c-.047-.147-.07-.297-.07-.45a1.79 1.79 0 0 1 .04-.46 1.82 1.82 0 0 1 .15-.43 1.85 1.85 0 0 1 .25-.39 1.66 1.66 0 0 1 .34-.31c.127-.087.26-.16.4-.22s.287-.1.44-.12.1.043-.16.19c-.253.147.11.167 1.09.06.987-.113 1.977-.167 2.97-.16s2.283-.057 3.87-.19a55.4 55.4 0 0 0 4.76-.63c1.58-.273 3.363-.76 5.35-1.46 1.98-.7 3.657-1.08 5.03-1.14 1.38-.06 2.59-.083 3.63-.07l3.08.05 2.91.09c.927.04 1.767.093 2.52.16.747.067 1.64.123 2.68.17l3.06.18c1 .067 2.317.097 3.95.09l4.97-.01 5.21-.03 5.75-.03 5.95-.05 6.43-.07 7.56-.1 6.97-.14 5.54-.21 4.32-.23a16.02 16.02 0 0 0 3.33-.54c1.066-.293 2.026-.427 2.88-.4a104.56 104.56 0 0 1 2.82.13c1.026.06 2.386.083 4.08.07l6.35-.07 8.45-.17c3.086-.08 6.103-.21 9.05-.39 2.946-.187 6.113-.497 9.5-.93l8.3-1.08c2.14-.28 4.413-.78 6.82-1.5s4.873-1.177 7.4-1.37c2.526-.2 5.363-.53 8.51-.99 3.146-.467 6.2-.87 9.16-1.21a52.08 52.08 0 0 0 8.76-1.78 73.02 73.02 0 0 1 8.9-1.99l8.86-1.33c2.86-.4 5.306-.637 7.34-.71s3.51-.29 4.43-.65c.913-.36 1.44-.533 1.58-.52.133.013.263.043.39.09a1.51 1.51 0 0 1 .37.19 1.68 1.68 0 0 1 .31.26c.093.1.173.213.24.34a1.61 1.61 0 0 1 .15.38c.033.127.053.26.06.4a1.7 1.7 0 0 1-.05.41c-.027.133-.074.26-.14.38-.06.127-.134.24-.22.34-.094.107-.194.2-.3.28a1.58 1.58 0 0 1-.36.19 1.62 1.62 0 0 1-.4.11c-.134.02-.674.003-1.62-.05-.94-.053-2.147-.057-3.62-.01l-4.17.17-3.41.2c-.987.073-2.244.26-3.77.56s-3.187.85-4.98 1.65a24.67 24.67 0 0 1-5.52 1.73c-1.887.347-3.5.537-4.84.57a67.05 67.05 0 0 1-3.51-.01l-2.88-.08c-.927-.02-2.124.037-3.59.17l-6.42.67c-2.807.313-6.374.477-10.7.49l-15.26.06-19.69.14-21.41.32c-7 .147-13.324.387-18.97.72-5.647.34-10.854.91-15.62 1.71-4.767.807-9.123 1.427-13.07 1.86l-11.07 1.06c-3.427.28-6.763.757-10.01 1.43-3.24.667-6.04 1.043-8.4 1.13-2.367.093-4.52.23-6.46.41s-3.857.48-5.75.9c-1.893.413-3.507.707-4.84.88-1.34.18-2.703.45-4.09.81-1.393.36-2.457.517-3.19.47-.74-.047-1.613-.083-2.62-.11l-2.88-.12-1.59-.1a2.17 2.17 0 0 1-.41-.1c-.133-.053-.257-.12-.37-.2a1.61 1.61 0 0 1-.32-.28c-.093-.107-.173-.223-.24-.35s-.117-.257-.15-.39a1.81 1.81 0 0 1-.05-.42 1.81 1.81 0 0 1 .05-.42 1.74 1.74 0 0 1 .15-.39 1.8 1.8 0 0 1 .24-.35c.093-.107.2-.2.32-.28a1.79 1.79 0 0 1 .37-.2 2.16 2.16 0 0 1 .41-.1l.21-.02z" fill="#fff"/></svg>