<svg xmlns="http://www.w3.org/2000/svg" viewBox="0 0 32.85 31.02" xmlns:v="https://vecta.io/nano"><style><![CDATA[.B{fill:#1d1d1d}.C{stroke:#1d1d1d}.D{stroke-linejoin:round}.E{fill:#fefefe}.F{stroke-width:.17}]]></style><path d="M10.95 1.66a4.59 4.59 0 0 0-.67.1l-.61.16-.72.23-.82.33a7.77 7.77 0 0 0-.88.48l-.89.63-.87.72-.81.79-.73.81-.68.83a9.52 9.52 0 0 0-.6.86 7.59 7.59 0 0 0-.51.93l-.44 1-.39 1-.3.88-.19.74c-.05.22-.08.42-.11.63s0 .41-.06.6 0 .41 0 .66v.78.86c0 .3 0 .61.06.92l.13.9.15.87a7.51 7.51 0 0 0 .24.93l.35 1 .4 1.06.42 1a10.22 10.22 0 0 0 .46.94l.53.91.58.88.61.8.63.73c.22.24.46.45.7.66l.72.58c.23.18.48.35.74.52l.84.51.85.45a9.65 9.65 0 0 0 .86.36l.87.29.8.2.8.14.82.09c.29.02.58 0 .87.06h.9.93c.31 0 .61-.05.89-.09l.83-.13.85-.18.88-.21.87-.22.85-.22.82-.25.75-.27.78-.28.85-.34.87-.4.86-.47.86-.56a10.09 10.09 0 0 0 .8-.63l.73-.65.65-.6a6.48 6.48 0 0 0 .52-.55l.43-.53q.21-.27.42-.57a5.22 5.22 0 0 0 .39-.66l.33-.74.29-.75.24-.72a5.71 5.71 0 0 0 .19-.71l.15-.68.13-.71.08-.75c.02-.24 0-.48.05-.72s0-.46 0-.67a4.46 4.46 0 0 0 0-.63c0-.21 0-.44-.09-.7s-.11-.53-.17-.81l-.21-.81-.24-.74-.27-.69a4.39 4.39 0 0 0-.29-.62l-.3-.71a5.49 5.49 0 0 0-.29-.6l-.37-.61a6.25 6.25 0 0 0-.44-.61l-.47-.59-.46-.58a6.54 6.54 0 0 0-.46-.56l-.46-.59a7.49 7.49 0 0 0-.51-.61l-.53-.55c-.18-.18-.37-.34-.54-.48l-.52-.41a4.2 4.2 0 0 0-.51-.35l-.58-.33a6.8 6.8 0 0 0-.66-.31l-.75-.28-.8-.31-.78-.29-.67-.25-.53-.2-.4-.13-.36-.12-.43-.14a4.5 4.5 0 0 0-.55-.13l-.67-.14-.72-.15-.74-.15-.69-.09-.61-.06-.5-.05-.39-.06H14h-.33-.35a2.7 2.7 0 0 0-.39.08l-.45.14c-.17 0-.31.09-.44.13l-.37.11a1.79 1.79 0 0 0-.29.11l-.19.07h-.15a.64.64 0 0 0-.16.1z" fill="#f95d5d"/><path d="M10.91 1.86a5.34 5.34 0 0 0-.65.1l-.59.13-.72.21-.8.32a5.23 5.23 0 0 0-.87.46l-.88.61-.86.71-.8.77-.73.8-.67.83a9.39 9.39 0 0 0-.6.85 7.27 7.27 0 0 0-.5.91l-.43 1-.39 1-.3.88-.19.72c-.05.21-.08.42-.1.62s0 .4-.06.59 0 .4 0 .65v.77.86c0 .3 0 .61.06.92s.08.6.12.88l.16.87a5.58 5.58 0 0 0 .24.91l.34 1 .4 1.06.41 1c.14.33.3.63.46.93l.53.9.57.87c.19.28.4.54.6.79l.63.72a8.57 8.57 0 0 0 .69.66l.71.57.73.52.83.49.85.45.84.36.86.28.79.2.78.14c.27 0 .54.07.82.09h.86.9.92q.47 0 .87-.09l.83-.14.84-.17.87-.21.87-.22.85-.22.81-.25.75-.27.78-.28c.27-.09.55-.21.84-.33l.86-.41a9 9 0 0 0 .86-.46l.84-.55.79-.62.73-.64.64-.6a6.14 6.14 0 0 0 .51-.54l.42-.53a4.81 4.81 0 0 0 .42-.56 5.88 5.88 0 0 0 .39-.65 6.8 6.8 0 0 0 .32-.72l.28-.74.24-.71.19-.71.15-.67.12-.71.09-.73c.02-.23 0-.48 0-.71v-.67-.62a5 5 0 0 0-.09-.69c0-.25-.11-.52-.17-.79l-.2-.8c-.07-.26-.14-.53-.14-.74s-.17-.46-.26-.68a6.94 6.94 0 0 0-.29-.61l-.32-.63-.33-.63-.37-.61-.43-.6-.46-.57-.46-.58-.46-.57-.47-.58a6 6 0 0 0-.5-.61 6.94 6.94 0 0 0-.53-.55 5.76 5.76 0 0 0-.53-.47l-.51-.4a5.62 5.62 0 0 0-.5-.35l-.58-.34-.65-.3-.75-.28-.8-.3-.8-.34-.67-.25-.53-.18-.6-.16-.6-.17a4.17 4.17 0 0 0-.54-.14l-.65-.1-.73-.17-.68-.16a5.58 5.58 0 0 0-.68-.1l-.61-.06h-.5a4.61 4.61 0 0 0-.56 0 4.8 4.8 0 0 0-.65 0l-.51.09-.42.12-.44.13-.46.18a2.56 2.56 0 0 0-.44.22l-.23.14h-.1-.12a.2.2 0 0 1-.11 0l-.1-.06a.16.16 0 0 1-.07-.09 1 1 0 0 1 0-.1.17.17 0 0 1 0-.12v-.11a.31.31 0 0 1 0-.11l.09-.07h.11.12.11a.22.22 0 0 1 .09.07l.06.1a.2.2 0 0 1 0 .11.41.41 0 0 1 0 .11.15.15 0 0 1 0 .11l-.07.09-.1.06h-.12-.11-.11l-.07-.12a.27.27 0 0 1 0-.11v-.11a.2.2 0 0 1 0-.11v-.1h0l.23-.12a1.47 1.47 0 0 1 .42-.18l.38-.12.38-.1a3.64 3.64 0 0 0 .44-.14l.47-.14a2.41 2.41 0 0 1 .6-.06 2.84 2.84 0 0 1 .72.06l.55.11.49.07.62.05.71.09.74.14.72.14.68.12a2.67 2.67 0 0 1 .57.13c.17.05.36.13.59.22l.58.24.53.2.68.25.77.3.81.3.76.29a5.94 5.94 0 0 1 .67.32l.59.33c.18.11.35.23.52.36l.52.41.55.49.55.56c.18.19.34.4.5.62s.32.41.47.58l.45.57.47.58.47.59a4.73 4.73 0 0 1 .44.62l.38.62a5.62 5.62 0 0 1 .34.64 6.19 6.19 0 0 0 .32.63 5.24 5.24 0 0 1 .29.64l.27.69a6.7 6.7 0 0 1 .24.76q.1.39.21.81a7.07 7.07 0 0 1 .17.82c0 .26.08.5.1.72a3.46 3.46 0 0 1 0 .64v.68.72c0 .24 0 .49-.08.76s-.08.51-.13.71a5.92 5.92 0 0 0-.15.69 4.11 4.11 0 0 1-.2.73l-.24.72a7.87 7.87 0 0 1-.29.76l-.34.76a4 4 0 0 1-.4.67l-.43.57-.44.54-.52.56-.65.61-.74.65a7.28 7.28 0 0 1-.81.63l-.87.57a6.8 6.8 0 0 1-.88.47l-.88.41a5.58 5.58 0 0 1-.85.34l-.77.28a7.51 7.51 0 0 1-.76.27l-.83.25-.85.23-.88.21a8.52 8.52 0 0 1-.87.22l-.86.18-.84.13-.9.1a7.32 7.32 0 0 1-.94 0h-.91-.88l-.83-.1a7.9 7.9 0 0 1-.8-.14l-.82-.21a8.17 8.17 0 0 1-.88-.29L9 29.5a9.06 9.06 0 0 1-.86-.45l-.89-.54-.75-.53-.73-.59a7.49 7.49 0 0 1-.71-.68l-.64-.73-.61-.81-.59-.89-.53-.92a9.3 9.3 0 0 1-.47-1l-.42-1-.4-1.07-.35-1a5.75 5.75 0 0 1-.25-.94l-.15-.87-.13-.91q0-.47-.06-.93v-.87-.79-.67c0-.19 0-.38.07-.6a3.53 3.53 0 0 1 .11-.65c0-.21.11-.46.19-.74l.3-.9.39-1c.13-.36.29-.67.45-1s.33-.63.51-.93a9.16 9.16 0 0 1 .61-.88l.69-.84a9.61 9.61 0 0 1 .74-.82l.81-.8a9.72 9.72 0 0 1 .88-.73l.9-.65a5.44 5.44 0 0 1 .9-.5l.83-.35a6.2 6.2 0 0 1 .72-.25l.63-.18a1.65 1.65 0 0 1 .49-.09 1.45 1.45 0 0 0 .23 0c0 0 0 0 .06 0h0 0v.05a.18.18 0 0 1 0 .06.11.11 0 0 0 0 .06.06.06 0 0 1 0 .05h0 0 0z" stroke-width=".85" class="B C D"/><path d="M10.86 9.51c-.2 0-.36-.07-.48-.09a1.63 1.63 0 0 0-.38 0 2.86 2.86 0 0 0-.47.1l-.55.19a2.5 2.5 0 0 0-.55.26 4.61 4.61 0 0 0-.49.32 3.34 3.34 0 0 0-.38.37 1.49 1.49 0 0 0-.26.41 2.46 2.46 0 0 0-.16.48 5.07 5.07 0 0 0-.09.54c0 .19 0 .38-.05.56s0 .37 0 .54v.46.38.4a3.22 3.22 0 0 0 0 .43c0 .14 0 .29.08.44s.07.3.11.46a4.32 4.32 0 0 1 .12.45 4.11 4.11 0 0 0 .15.46l.17.45c0 .14.11.28.17.41l.21.39.23.38.21.31a2.51 2.51 0 0 0 .19.24l.17.17a.5.5 0 0 0 .16.11l.22.12.3.14.32.13.33.1.32.05h.37.43a3.53 3.53 0 0 0 .46 0h.45.4l.33-.06.28-.08.23-.11.23-.13a2 2 0 0 0 .24-.16l.25-.21.26-.23.26-.23a2.29 2.29 0 0 0 .22-.24 2 2 0 0 0 .17-.23c.05-.08.09-.17.13-.25l.1-.28a1.61 1.61 0 0 0 .09-.29c0-.1 0-.19.07-.27s0-.17 0-.25a2.07 2.07 0 0 0 0-.22 2 2 0 0 1 0-.24 2.33 2.33 0 0 0 0-.28v-.34-.38-.38-.36-.34-.35-.35l-.06-.32c0-.11 0-.21-.07-.31s0-.19-.07-.28l-.09-.27a2 2 0 0 0-.1-.26 1.35 1.35 0 0 0-.15-.26l-.16-.22a1.29 1.29 0 0 0-.15-.17l-.15-.14v-.21l-.18-.14-.22-.13-.21-.19-.21-.19-.18-.15a1.37 1.37 0 0 0-.21-.15l-.16-.11a.51.51 0 0 0-.13-.09h-.12-.12l-.13-.06h-.14-.12-.13l-.18-.25h-.15a.4.4 0 0 0-.15 0h-.11-.08-.28a.8.8 0 0 0-.23 0z" class="E"/><path d="M10.79 9.74a3.14 3.14 0 0 0-.62 0 3.29 3.29 0 0 0-.58.07 3.79 3.79 0 0 0-.53.14 2.47 2.47 0 0 0-.53.22 4 4 0 0 0-.46.29 2.36 2.36 0 0 0-.36.34 1.68 1.68 0 0 0-.23.38 2.7 2.7 0 0 0-.13.43 3.86 3.86 0 0 0-.09.51v.54a4.84 4.84 0 0 0 0 .53v.45.59.59c0 .13 0 .28.08.42s.07.29.11.44l.11.46.14.44.16.44c.05.14.12.27.18.39l.2.37.23.37a3.76 3.76 0 0 0 .3.38 1.45 1.45 0 0 0 .45.33 4.93 4.93 0 0 0 .56.25 2 2 0 0 0 .59.16l.48.06h.41.45a3 3 0 0 0 .43 0 3.16 3.16 0 0 0 .52-.08 1.56 1.56 0 0 0 .49-.16l.38-.26a3.6 3.6 0 0 0 .47-.37 4.88 4.88 0 0 0 .43-.45 1.37 1.37 0 0 0 .3-.42c.06-.14.11-.29.17-.47a2.76 2.76 0 0 0 .12-.5c0-.16 0-.32.08-.48s0-.34.08-.56 0-.43.06-.67a3.9 3.9 0 0 0 0-.68q0-.33-.06-.66a4.14 4.14 0 0 0-.11-.63q-.08-.3-.15-.54a2.11 2.11 0 0 0-.21-.46 2 2 0 0 0-.28-.43 4.34 4.34 0 0 0-.36-.31l-.4-.3a5.2 5.2 0 0 1-.44-.35c-.14-.12-.27-.21-.38-.29a1.48 1.48 0 0 0-.38-.18l-.49-.16a4.32 4.32 0 0 0-.47-.13.65.65 0 0 0-.34 0h-.22a.75.75 0 0 1-.15 0 .42.42 0 0 1-.15 0l-.12-.09a.27.27 0 0 1-.09-.12.42.42 0 0 1-.01-.07.38.38 0 0 1 0-.15.58.58 0 0 1 0-.14l.1-.12a.29.29 0 0 1 .13-.08h.14a.38.38 0 0 1 .15 0l.14.07a.35.35 0 0 1 .12.1.54.54 0 0 1 .07.13.33.33 0 0 1 0 .15.77.77 0 0 1 0 .15.83.83 0 0 1-.07.13.38.38 0 0 1-.11.11l-.13.07a.39.39 0 0 1-.15 0h-.15a.35.35 0 0 1-.13-.08.57.57 0 0 1-.11-.11v-.23a.76.76 0 0 1 0-.15.83.83 0 0 1 0-.15.36.36 0 0 1 .08-.12l.12-.1h.07l.37-.06a1.45 1.45 0 0 1 .59 0c.14 0 .31.09.49.16l.56.22a4.76 4.76 0 0 1 .44.21l.4.28a4.1 4.1 0 0 1 .42.34 3.26 3.26 0 0 0 .42.32 4.32 4.32 0 0 1 .41.31 3.6 3.6 0 0 1 .31.34 5 5 0 0 1 .34.51 3.76 3.76 0 0 1 .26.6c0 .2.11.41.15.62l.12.66c.04.23 0 .47.07.72s0 .44 0 .57v.58c0 .26 0 .49-.07.67s-.07.37-.09.52-.07.34-.12.54a6.4 6.4 0 0 1-.2.62 2.23 2.23 0 0 1-.33.58 4.51 4.51 0 0 1-.47.51l-.55.47a3.56 3.56 0 0 1-.53.36 2.93 2.93 0 0 1-.57.2 4 4 0 0 1-.51.11h-.42-.47-.48-.62a4.52 4.52 0 0 1-.75-.14 4.44 4.44 0 0 1-.67-.26 2.94 2.94 0 0 1-.5-.31 2.11 2.11 0 0 1-.39-.43l-.3-.46-.24-.39a7.89 7.89 0 0 1-.39-.84c0-.14-.11-.3-.18-.46s-.11-.32-.15-.47l-.12-.46-.12-.48a4 4 0 0 1-.07-.46 3.37 3.37 0 0 1 0-.44 2.7 2.7 0 0 1 0-.41q0-.18 0-.39v-.46-.55-.57c0-.19 0-.38.09-.58a2.44 2.44 0 0 1 .19-.52 2.27 2.27 0 0 1 .41-.36 3 3 0 0 1 .41-.39l.51-.36a3.82 3.82 0 0 1 .56-.3l.58-.22a1.77 1.77 0 0 1 .53-.13h.41a2.39 2.39 0 0 1 .35.07l.18.06h.06 0v.06a.25.25 0 0 1 0 .07v.07.06.07a.09.09 0 0 1 0 .06h-.05-.06-.07a.09.09 0 0 1-.07 0z" class="B C D F"/><path d="M24.81 9.92a2.15 2.15 0 0 0-1.14.12 3.09 3.09 0 0 0-.56.26l-.58.34a5.72 5.72 0 0 0-.57.39l-.53.43-.46.45a3.81 3.81 0 0 0-.39.49 3.25 3.25 0 0 0-.28.56l-.19.61a4.76 4.76 0 0 0-.13.61c0 .2 0 .38-.07.54a4.15 4.15 0 0 0 0 .49 3.29 3.29 0 0 0 0 .45 3.58 3.58 0 0 0 .09.45 4.64 4.64 0 0 0 .12.47c0 .15.11.31.17.46a2.65 2.65 0 0 0 .14.47 3 3 0 0 0 .21.4l.22.35.19.29a2.46 2.46 0 0 0 .17.22l.16.16a1.17 1.17 0 0 0 .16.15l.19.13.2.09.22.08a1.68 1.68 0 0 0 .24.08h.21.19.2.23.25 1 .17l.2-.05a.74.74 0 0 0 .22-.08l.21-.14.21-.17.22-.22a1.59 1.59 0 0 0 .2-.24l.17-.27.15-.3.14-.31c.05-.1.08-.2.11-.3a2.86 2.86 0 0 0 .07-.28v-.25a2 2 0 0 0 0-.24c0-.07 0-.14.06-.22a.86.86 0 0 0 .06-.23 2.33 2.33 0 0 0 0-.28c0-.1 0-.2.05-.3a2.87 2.87 0 0 0 0-.31v-.29-.3-.3-.28-.25-.23-.27a2.19 2.19 0 0 0 0-.27 2 2 0 0 0-.05-.24 2.38 2.38 0 0 1 0-.26 3.88 3.88 0 0 0-.16-.52l-.09-.26c0-.07-.06-.16-.09-.24l.11-.15c0-.06 0-.12-.07-.17l-.07-.15a1.09 1.09 0 0 1-.08-.15.35.35 0 0 0-.07-.12.83.83 0 0 1-.08-.12l-.08-.13s-.05-.1-.07-.16a1.11 1.11 0 0 0-.07-.16.77.77 0 0 0-.07-.16l-.06-.13a.39.39 0 0 0 0-.09h-.06a.09.09 0 0 1-.06 0V9.8h-.08l-.07-.05h-.08-.31a.17.17 0 0 1-.1 0h-.14z" class="E"/><path d="M24.78 10.17a2.34 2.34 0 0 0-.6 0 3.63 3.63 0 0 0-.45.11 2.86 2.86 0 0 0-.52.23l-.58.31a5.57 5.57 0 0 0-.57.37 5.17 5.17 0 0 0-.51.42l-.45.43a2.89 2.89 0 0 0-.38.47 2.65 2.65 0 0 0-.27.53 7.21 7.21 0 0 0-.31 1.17c0 .2 0 .37-.06.54s0 .31 0 .47a3 3 0 0 0 0 .43c0 .14.06.28.1.42l.13.45.16.44.18.41a2.71 2.71 0 0 0 .21.37l.22.33a2.1 2.1 0 0 0 .28.34 4.09 4.09 0 0 0 .33.3 1.38 1.38 0 0 0 .44.22 2.85 2.85 0 0 0 .53.12h.48.46a3.22 3.22 0 0 0 .44 0h.41a1.23 1.23 0 0 0 .46-.15 1.8 1.8 0 0 0 .45-.31 2.25 2.25 0 0 0 .34-.41 5 5 0 0 0 .27-.52 4 4 0 0 0 .2-.53 4.3 4.3 0 0 0 .09-.47 3 3 0 0 1 .1-.46c0-.17.08-.35.11-.54l.08-.56a5.12 5.12 0 0 0 0-.56 4.33 4.33 0 0 0 0-.52v-.5c0-.17 0-.34-.07-.48s-.07-.3-.11-.46-.1-.32-.16-.49l-.17-.45c-.05-.13-.12-.27-.19-.41a2.24 2.24 0 0 0-.22-.38 1.52 1.52 0 0 1-.2-.34 1.79 1.79 0 0 0-.21-.36.41.41 0 0 0-.39-.14 2.06 2.06 0 0 1-.33 0 .33.33 0 0 1-.15 0l-.13-.1a.41.41 0 0 1-.08-.13.42.42 0 0 1 0-.15.3.3 0 0 1 0-.16.58.58 0 0 1 .05-.14.6.6 0 0 1 .11-.12.35.35 0 0 1 .13-.1.41.41 0 0 1 .16 0 .38.38 0 0 1 .15 0l.14.07a.43.43 0 0 1 .12.11.61.61 0 0 1 .07.14.26.26 0 0 1 0 .15.78.78 0 0 1 0 .16.5.5 0 0 1-.08.14.57.57 0 0 1-.11.11l-.14.06a.47.47 0 0 1-.16 0h-.15a.32.32 0 0 1-.14-.08l-.1-.12a.34.34 0 0 1-.06-.15.75.75 0 0 1 0-.15.28.28 0 0 1 0-.15.3.3 0 0 1 .09-.13.4.4 0 0 1 .12-.1l.15-.05h.38a2 2 0 0 1 .52.08 1 1 0 0 1 .38.22 1.45 1.45 0 0 1 .3.39 3.61 3.61 0 0 1 .22.44 3.71 3.71 0 0 0 .19.4 4.22 4.22 0 0 1 .22.47l.2.51.19.53c.07.2.11.39.15.55a4.21 4.21 0 0 1 .09.55v.53a4.44 4.44 0 0 1 0 .55v.62c0 .21 0 .41-.06.61s-.07.42-.11.63a3 3 0 0 1-.11.5c0 .13-.07.28-.11.47a4.86 4.86 0 0 1-.18.6q-.12.33-.27.66a3.6 3.6 0 0 1-.39.62 3.83 3.83 0 0 1-.48.5 1.71 1.71 0 0 1-.53.31 2.2 2.2 0 0 1-.6.13 5 5 0 0 1-.53 0h-.47H23l-.44-.07a2.71 2.71 0 0 1-.47-.12 2.52 2.52 0 0 1-.5-.22 1.81 1.81 0 0 1-.41-.3 3.24 3.24 0 0 1-.35-.43l-.27-.42-.13-.45a2.82 2.82 0 0 1-.22-.42l-.18-.44-.16-.48a5 5 0 0 1-.12-.49 3.55 3.55 0 0 1-.08-.47 4 4 0 0 1 0-.49 4.28 4.28 0 0 1 0-.49c0-.16 0-.35.08-.55a4.7 4.7 0 0 1 .13-.63l.2-.63a3.36 3.36 0 0 1 .3-.6 2.92 2.92 0 0 1 .4-.5l.46-.47.54-.46c.19-.15.38-.28.57-.4l.6-.36a4.82 4.82 0 0 1 .59-.31 2.13 2.13 0 0 1 .56-.15 1.76 1.76 0 0 1 .46 0h.24 0 .05 0 0v.06.06a.14.14 0 0 1 0 .06h0-.06-.09z" class="B C D F"/><path d="M12.08 14.08a2.27 2.27 0 0 0-.56.2.94.94 0 0 0-.31.29 1.4 1.4 0 0 0-.22.44 1.78 1.78 0 0 0-.1.5 1.8 1.8 0 0 0 0 .47 1.61 1.61 0 0 0 .12.37.88.88 0 0 0 .19.26.7.7 0 0 0 .29.17.92.92 0 0 0 .38 0 1.75 1.75 0 0 0 .43-.07l.44-.16.38-.19a2.43 2.43 0 0 0 .27-.19 1.51 1.51 0 0 0 .18-.18.69.69 0 0 0 .11-.17l.06-.19v-.24a2.17 2.17 0 0 0 0-.26 1.84 1.84 0 0 0 0-.25 1.19 1.19 0 0 0-.08-.2c0-.06-.07-.11-.1-.16a1.14 1.14 0 0 0-.13-.01.42.42 0 0 0-.14-.09l-.16-.07-.17-.07-.19-.08-.21-.06h-.19a.4.4 0 0 0-.15 0h-.13-.3-.07-.08l-.08.06-.08.09-.05.02a.62.62 0 0 0-.09.12.47.47 0 0 0-.09.12.75.75 0 0 1-.07.12.69.69 0 0 0 0 .1h0 0a.41.41 0 0 1 0 .07v.1a.93.93 0 0 1 0 .13.35.35 0 0 0 0 .14v.13a.59.59 0 0 0 0 .14.86.86 0 0 1 0 .16.86.86 0 0 0 0 .16v.17a.78.78 0 0 0 0 .16.84.84 0 0 1 0 .12.37.37 0 0 0 0 .11l.06.09.07.08a.35.35 0 0 1 .09.07.28.28 0 0 0 .08.06h.08.07.54.11l.1-.06.1-.07.1-.08.08-.06.09-.07.09-.07.07-.07.07-.08.06-.07v-.07a.16.16 0 0 0 0-.07.25.25 0 0 1 0-.07v-.08-.09-.09a.49.49 0 0 1 0-.12v-.23a.22.22 0 0 0 0-.11.37.37 0 0 1 0-.09.64.64 0 0 1 0-.07v-.1-.1-.09l-.07-.08a.46.46 0 0 1-.07-.07h0-.05-.06-.05 0l-.31.01h-.59-.07-.06-.07 0-.06-.05 0v.06h0 0v.06.07a.36.36 0 0 0 0 .09 1 1 0 0 0 0 .1.3.3 0 0 0 0 .08.24.24 0 0 1 0 .08.19.19 0 0 0 0 .08v.09a.34.34 0 0 0 0 .1v.11a.34.34 0 0 0 0 .1.44.44 0 0 1 0 .1v.08l.07.08.08.07.08.05h.08.07.08.08.07 0 .06.38.09.1.08l.08-.06h0a.18.18 0 0 0 0-.07.22.22 0 0 0 0-.08.15.15 0 0 0 0-.1 1 1 0 0 0 0-.12v-.11-.11-.1V15h0a.2.2 0 0 0 0-.07v-.08a.47.47 0 0 0 0-.09v-.1a.79.79 0 0 0 0-.09v-.06h0 0 0 0z" class="E"/><g class="B C D"><path d="M12.17 14.42a1.31 1.31 0 0 0-.61.31 1.1 1.1 0 0 0-.3.42 1.51 1.51 0 0 0-.09.41 1.34 1.34 0 0 0 .1.51.65.65 0 0 0 .31.38 1 1 0 0 0 .55 0 2.25 2.25 0 0 0 .54-.15 1.7 1.7 0 0 0 .43-.26.81.81 0 0 0 .28-.36 1.26 1.26 0 0 0 0-.39.85.85 0 0 0-.12-.37.61.61 0 0 0-.34-.26 4.16 4.16 0 0 0-.49-.15.69.69 0 0 0-.47 0 .71.71 0 0 0-.33.28 2.83 2.83 0 0 0-.16.36 1.74 1.74 0 0 0-.08.42 2 2 0 0 0 0 .43.26.26 0 0 0 .24.23.46.46 0 0 0 .38-.07 2 2 0 0 0 .32-.26.59.59 0 0 0 .18-.35.7.7 0 0 0 0-.38.31.31 0 0 0-.28-.21.47.47 0 0 0-.37.09.6.6 0 0 0-.22.32.24.24 0 0 0 .12.3.36.36 0 0 0 .35 0 .36.36 0 0 0 .2-.32.46.46 0 0 0-.09-.31 1.53 1.53 0 0 1-.14-.17 1.09 1.09 0 0 1-.08-.15.32.32 0 0 1 0-.17.78.78 0 0 1 0-.16.53.53 0 0 1 .08-.15.49.49 0 0 1 .13-.12.52.52 0 0 1 .15-.07.5.5 0 0 1 .17 0h.17a.67.67 0 0 1 .14.09l.11.13a.44.44 0 0 1 .06.16.91.91 0 0 1 0 .17.43.43 0 0 1 0 .16.71.71 0 0 1-.1.14.32.32 0 0 1-.13.1.58.58 0 0 1-.16 0 .49.49 0 0 1-.17 0h-.16a.67.67 0 0 1-.14-.11.42.42 0 0 1-.09-.14.75.75 0 0 1 0-.16.33.33 0 0 1 0-.17l.06-.16a.32.32 0 0 1 .11-.12l.15-.09a.41.41 0 0 1 .16 0 .46.46 0 0 1 .17 0 .55.55 0 0 1 .15.08h.08l.11.11a.78.78 0 0 1 .21.29 1.78 1.78 0 0 1 .15.43 1.87 1.87 0 0 1 0 .46c0 .14 0 .29-.07.46a1.19 1.19 0 0 1-.21.44 1.55 1.55 0 0 1-.32.31 1.16 1.16 0 0 1-.38.15 1 1 0 0 1-.41 0 1.38 1.38 0 0 1-.39-.09 3 3 0 0 1-.36-.17 1.42 1.42 0 0 1-.33-.21 1.14 1.14 0 0 1-.35-.75 1.5 1.5 0 0 1 0-.43 2.91 2.91 0 0 1 .12-.39 1.93 1.93 0 0 1 .23-.38 1.34 1.34 0 0 1 .32-.31 1.17 1.17 0 0 1 .42-.2 1.82 1.82 0 0 1 .45 0 1.86 1.86 0 0 1 .42 0 2 2 0 0 1 .4.16 1.27 1.27 0 0 1 .34.28 1.41 1.41 0 0 1 .22.4 2.62 2.62 0 0 1 .11.42 1.77 1.77 0 0 1 0 .4 2.57 2.57 0 0 1-.08.4 1.2 1.2 0 0 1-.21.38 2.67 2.67 0 0 1-.29.34l-.31.26a2.5 2.5 0 0 1-.35.21 1 1 0 0 1-.43.1 2.9 2.9 0 0 1-.43 0 1 1 0 0 1-.4-.14 1.45 1.45 0 0 1-.35-.26 1.36 1.36 0 0 1-.23-.42 1.47 1.47 0 0 1-.1-.47 2.49 2.49 0 0 1-.01-.4 2.56 2.56 0 0 1 .09-.53l.17-.46a2.36 2.36 0 0 1 .24-.38 3.3 3.3 0 0 1 .37-.4.88.88 0 0 1 .45-.23 1.62 1.62 0 0 1 .44 0 2.59 2.59 0 0 1 .42.09l.41.14.41.2a1.17 1.17 0 0 1 .37.28 1.32 1.32 0 0 1 .25.46 1.72 1.72 0 0 1 .1.6 1.54 1.54 0 0 1-.11.58 1 1 0 0 1-.34.47 2.75 2.75 0 0 1-.41.31 2.61 2.61 0 0 1-.41.2l-.5.19a1.89 1.89 0 0 1-.53.08 1.46 1.46 0 0 1-.48-.1.87.87 0 0 1-.37-.25 1 1 0 0 1-.23-.35 1.61 1.61 0 0 1-.13-.45 1.94 1.94 0 0 1 0-.54 2.54 2.54 0 0 1 .11-.59 1.39 1.39 0 0 1 .28-.54 1.31 1.31 0 0 1 .39-.36 1.27 1.27 0 0 1 .42-.18l.24-.06a.11.11 0 0 1 .08 0h.08.08.06v.07a.16.16 0 0 1 0 .08v.09a.19.19 0 0 1 0 .08v.08a.16.16 0 0 1 0 .07.18.18 0 0 0-.07 0 .08.08 0 0 1-.07 0zm10.75.66a1.32 1.32 0 0 0-.55.07 1.36 1.36 0 0 0-.36.25.4.4 0 0 0-.09.41 1 1 0 0 0 .18.45.67.67 0 0 0 .33.25.75.75 0 0 0 .47 0 1.39 1.39 0 0 0 .43-.18 1 1 0 0 0 .3-.36 1.61 1.61 0 0 0 .13-.49 1.1 1.1 0 0 0-.09-.51 1.76 1.76 0 0 0-.23-.41.41.41 0 0 0-.41-.05 1.61 1.61 0 0 0-.45.18.5.5 0 0 0-.2.31 2.81 2.81 0 0 0 0 .43.44.44 0 0 0 .19.36.46.46 0 0 0 .66-.14.26.26 0 0 0 0-.33.42.42 0 0 0-.32-.18 1.16 1.16 0 0 0-.38.06c-.12 0-.16.07-.13.07s0 0 0 .06a.35.35 0 0 1-.15.07.51.51 0 0 1-.17 0 .53.53 0 0 1-.17 0l-.15-.08a.47.47 0 0 1-.11-.13.33.33 0 0 1-.07-.16.47.47 0 0 1 0-.17.29.29 0 0 1 0-.16.6.6 0 0 1 .09-.15.41.41 0 0 1 .13-.1l.16-.06a.33.33 0 0 1 .17 0h.17l.13.12.1.14a.69.69 0 0 1 0 .17.33.33 0 0 1 0 .17.64.64 0 0 1-.06.16.32.32 0 0 1-.1.13.6.6 0 0 1-.15.09.29.29 0 0 1-.16 0 .47.47 0 0 1-.17 0 .33.33 0 0 1-.16-.07.69.69 0 0 1-.13-.11.53.53 0 0 1-.08-.15.38.38 0 0 1 0-.17 1.22 1.22 0 0 1 0-.17.35.35 0 0 1 .07-.15s.06-.07 0-.07a1.42 1.42 0 0 1 .25-.16 2.63 2.63 0 0 1 .45-.22 1 1 0 0 1 .42-.06 2.74 2.74 0 0 1 .43 0 1.6 1.6 0 0 1 .39.11 1.38 1.38 0 0 1 .38.23.91.91 0 0 1 .27.37 1.24 1.24 0 0 1 .11.44 1.49 1.49 0 0 1 0 .42 1.07 1.07 0 0 1-.15.41 2.16 2.16 0 0 1-.24.35 1.18 1.18 0 0 1-.32.26 2.3 2.3 0 0 1-.39.17 1.09 1.09 0 0 1-.44.06 3 3 0 0 1-.43-.06.84.84 0 0 1-.37-.17 1.59 1.59 0 0 1-.29-.29 1.39 1.39 0 0 1-.22-.4 1.79 1.79 0 0 1-.1-.48 4.29 4.29 0 0 1 0-.5 1.66 1.66 0 0 1 .08-.45 2.29 2.29 0 0 1 .21-.41.93.93 0 0 1 .36-.35 2.47 2.47 0 0 1 .5-.19 2.77 2.77 0 0 1 .54-.09 2.51 2.51 0 0 1 .47 0 .77.77 0 0 1 .41.17 3.21 3.21 0 0 1 .32.32l.26.35a1.57 1.57 0 0 1 .18.42 1.79 1.79 0 0 1 0 .46 4 4 0 0 1 0 .47 2.31 2.31 0 0 1-.08.47 1.23 1.23 0 0 1-.21.41 2.46 2.46 0 0 1-.29.34 2.29 2.29 0 0 1-.38.26 4.64 4.64 0 0 1-.53.23 1.31 1.31 0 0 1-.62.06 2.38 2.38 0 0 1-.54-.13 1.37 1.37 0 0 1-.42-.27 1.85 1.85 0 0 1-.32-.44 1.92 1.92 0 0 1-.21-.58 1.36 1.36 0 0 1 0-.51 1.29 1.29 0 0 1 .22-.49 1.32 1.32 0 0 1 .36-.4l.34-.21a1.17 1.17 0 0 1 .41-.14 1.89 1.89 0 0 1 .39-.05.45.45 0 0 1 .22 0h.1a.18.18 0 0 1 .08 0l.07.07a.24.24 0 0 1 .06.08v.1a.28.28 0 0 1 0 .1.22.22 0 0 1 0 .09v.1l-.06.08-.08.06a.12.12 0 0 1-.09 0h-.1z" class="F"/><path d="M21.9 8.63a.92.92 0 0 1 .29-.27 1.84 1.84 0 0 1 .41-.16c.18 0 .47-.09.85-.14l.6-.08h.06 0v.07h0 0-.09 0 0 0 0 0 .09 0 0v.07h0 0 0 0a4.24 4.24 0 0 1-.56.09 6.91 6.91 0 0 0-.8.15 1.6 1.6 0 0 0-.33.14.65.65 0 0 0-.17.16l-.07.1h0 0 0 0-.25 0 0 0zM10.43 7.51h.44a2.38 2.38 0 0 1 .37.06 2.74 2.74 0 0 1 .39.09l.37.1.44.14.28.1h0v.07h0-.09 0 0 0 0 0 .08 0 0 0 0-.09l-.19.02-.44-.13-.36-.09-.37-.07h-.35-.51 0 0 0 0 0zM20.81 19.9l.43.2.44.22.57.25.64.24.67.2c.22.06.43.1.63.13l.54.08h.39a1.19 1.19 0 0 0 .28 0l.31-.08.21-.07h.05 0 0 0 0 0-.1 0 0 0 0 0 0 0 0 0 0 0 0 0l-.21.07-.34.08h-.3-.4l-.55-.08c-.2 0-.42-.08-.65-.13l-.68-.2-.65-.23-.49-.07-.45-.2-.3-.14a.36.36 0 0 1-.13 0h0 0 0v-.08h0 .11zm-5.99.17a3.07 3.07 0 0 1-.35.25 1.91 1.91 0 0 1-.32.17c-.13 0-.27.11-.44.16l-.55.14-.58.12-.56.11-.47.09-.34.06-.23.06h-.32-.24 0 0 0 0 0 0 .11 0 0 0 0 0 0-.1 0 0 0 .56.23l.34-.07.47-.09.56-.11.57-.12.52-.14.42-.16a2.52 2.52 0 0 0 .29-.16 2.31 2.31 0 0 0 .23-.18.38.38 0 0 1 .11-.09h0 .08 0 0 0 0 0 0 0z" stroke-width=".55"/></g></svg>