<svg xmlns="http://www.w3.org/2000/svg" viewBox="0 0 32.58 31.77" xmlns:v="https://vecta.io/nano"><path d="M16.28 0a16.29 16.29 0 0 0-5.14 31.74c.81.15 1.11-.35 1.11-.78v-2.77C7.71 29.19 6.76 26 6.76 26a4.3 4.3 0 0 0-1.83-2.35c-1.48-1 .11-1 .11-1a3.41 3.41 0 0 1 2.5 1.68 3.46 3.46 0 0 0 4.74 1.32 3.54 3.54 0 0 1 1-2.18c-3.62-.41-7.42-1.8-7.42-8a6.3 6.3 0 0 1 1.68-4.37 5.82 5.82 0 0 1 .19-4.35c0 0 1.37-.44 4.48 1.67a15.37 15.37 0 0 1 8.15 0c3.11-2.11 4.45-1.67 4.45-1.67a5.82 5.82 0 0 1 .16 4.31 6.26 6.26 0 0 1 1.68 4.37c0 6.26-3.81 7.64-7.44 8a3.91 3.91 0 0 1 1.1 3v4.47c0 .54.3.94 1.12.78A16.29 16.29 0 0 0 16.28 0z" fill="#fff" fill-rule="evenodd"/></svg>