<svg xmlns="http://www.w3.org/2000/svg" width="20" height="20" fill="none" stroke="#fff" stroke-width="2" stroke-linecap="round" xmlns:v="https://vecta.io/nano"><path d="M6.684 15.64V4.125c0-.476 0-.714.083-.907a.98.98 0 0 1 .34-.419c.169-.117.394-.156.844-.235l8.337-1.45c.607-.106.911-.158 1.147-.067a.96.96 0 0 1 .492.435c.126.229.126.55.126 1.192v10.988M6.684 15.64c0 1.638-1.272 2.967-2.842 2.967S1 17.279 1 15.64s1.272-2.967 2.842-2.967 2.842 1.328 2.842 2.967zm11.368-1.978c0 1.638-1.272 2.967-2.842 2.967s-2.842-1.328-2.842-2.967 1.273-2.967 2.842-2.967 2.842 1.328 2.842 2.967z" stroke-linejoin="round"/><path d="M2 2L18 18"/></svg>