<svg xmlns="http://www.w3.org/2000/svg" xmlns:xlink="http://www.w3.org/1999/xlink" viewBox="0 0 72 72" xmlns:v="https://vecta.io/nano"><use xlink:href="#B" fill="#fcea2b"/><path fill="#f1b31c" d="M45.837 9.211c8.25 4.25 16.195 11.872 16.195 24.674 0 15.449-12.524 27.974-27.973 27.974-9.243 0-19.752-4.835-24.294-15.544 0 0 4.381 18.657 25.719 18.665 19.327.007 28.042-20.622 28.042-20.622C70.033 12.382 45.837 9.211 45.837 9.211z"/><use xlink:href="#B" fill="none" stroke="#000" stroke-linejoin="round" stroke-miterlimit="10" stroke-width="2"/><defs ><path id="B" d="M7.363 42.41c4.553 6.17 11.874 10.173 20.13 10.173 13.807 0 25-11.193 25-25 0-8.523-4.265-16.049-10.776-20.562 13.038 2.839 22.781 14.443 22.781 28.332 0 16.016-12.984 29-29 29-13.588 0-24.989-9.329-28.135-21.942z"/></defs></svg>