<svg xmlns="http://www.w3.org/2000/svg" xmlns:xlink="http://www.w3.org/1999/xlink" viewBox="0 0 72 72" xmlns:v="https://vecta.io/nano"><style><![CDATA[.B{stroke-width:2}.C{stroke-linejoin:round}.D{stroke-miterlimit:2}.E{stroke-linecap:round}]]></style><path fill="#d22f27" d="M34 16.112v-2.511a2.5 2.5 0 0 1 2.5-2.5h0a2.5 2.5 0 0 1 2.5 2.5v2.5"/><g fill="#d0cfce"><use xlink:href="#B"/><use xlink:href="#C"/><path d="M47.451 56.112H24.55c-4.702 0-8.549-3.847-8.549-8.55V24.662c0-4.702 3.847-8.549 8.55-8.549h22.901c4.702 0 8.55 3.847 8.55 8.55v22.901c0 4.702-3.847 8.55-8.55 8.55z"/></g><path fill="#9b9b9a" d="M35.498 56.112h13.286c3.969 0 7.216-3.847 7.216-8.55V24.661c0-4.702-3.247-8.55-7.216-8.55h-2.353"/><g fill="#fff"><circle cx="44.835" cy="29.003" r="2.834"/><circle cx="27.334" cy="29.002" r="2.834"/><path d="M44.5 47.501h-17c-2.2 0-4-1.8-4-4h0c0-2.2 1.8-4 4-4h17c2.2 0 4 1.8 4 4h0c0 2.2-1.8 4-4 4z"/></g><g fill="none" stroke="#000" class="B"><g class="C"><g class="D"><path d="M34 16.011V13.5a2.5 2.5 0 0 1 2.5-2.5h0a2.5 2.5 0 0 1 2.5 2.5V16" class="E"/><path d="M47.451 56H24.55C19.847 56 16 52.153 16 47.451V24.55C16 19.847 19.847 16 24.55 16h22.901C52.153 16 56 19.847 56 24.55v22.901c0 4.702-3.847 8.55-8.55 8.55z"/></g><circle cx="44.835" cy="29.002" r="2.834"/><circle cx="27.334" cy="29.002" r="2.834"/></g><g class="D"><path d="M44.5 47.5h-17c-2.2 0-4-1.8-4-4h0c0-2.2 1.8-4 4-4h17c2.2 0 4 1.8 4 4h0c0 2.2-1.8 4-4 4z"/><g class="C"><use xlink:href="#B" y="-0.101"/><use xlink:href="#C" y="-0.101"/><path d="M28 40v7m5-7v7m5-7v7m5-7v7" class="E"/></g></g></g><defs ><path id="B" d="M13.5 41.101h0a2.5 2.5 0 0 1-2.5-2.5v-8a2.5 2.5 0 0 1 2.5-2.5h0a2.5 2.5 0 0 1 2.5 2.5v8a2.5 2.5 0 0 1-2.5 2.5z"/><path id="C" d="M58.5 41.101h0a2.5 2.5 0 0 0 2.5-2.5v-8a2.5 2.5 0 0 0-2.5-2.5h0a2.5 2.5 0 0 0-2.5 2.5v8a2.5 2.5 0 0 0 2.5 2.5z"/></defs></svg>