<svg xmlns="http://www.w3.org/2000/svg" width="21" height="20" fill="none" xmlns:v="https://vecta.io/nano"><path d="M9.154 9.569h-5.5m-.085.292l-2.335 6.975c-.183.548-.275.822-.209.991a.5.5 0 0 0 .331.3c.174.049.438-.07.965-.307l16.711-7.52c.514-.232.771-.347.851-.508a.5.5 0 0 0 0-.443c-.08-.161-.337-.276-.851-.508L2.315 1.317c-.525-.236-.788-.355-.962-.306a.5.5 0 0 0-.331.299c-.066.168.025.442.206.989L3.57 9.355l.053.189a.5.5 0 0 1 0 .128c-.006.048-.022.095-.053.189z" stroke="#000" stroke-width="2" stroke-linecap="round" stroke-linejoin="round"/></svg>