<svg xmlns="http://www.w3.org/2000/svg" viewBox="0 0 72 72" xmlns:v="https://vecta.io/nano"><circle cx="39.488" cy="39.455" r="29.85" fill="#ea5a47"/><circle cx="39.488" cy="39.455" r="23.85" fill="#fff"/><circle cx="39.488" cy="39.455" r="15.85" fill="#ea5a47"/><circle cx="39.488" cy="39.455" r="10.9" fill="#fff"/><circle cx="39.488" cy="39.455" r="5.9" fill="#ea5a47"/><g fill="none" stroke="#000" stroke-linecap="round" stroke-linejoin="round" stroke-miterlimit="10" stroke-width="2"><path d="M11.466 11.499H2.513m8.953 0V2.546m4.041 13.001H6.554m8.955-.002V6.593"/><path d="M39.487 39.464L7.478 7.519m14.491 8.828c4.859-3.674 10.958-5.892 17.519-5.892 16.016 0 29 12.984 29 29s-12.984 29-29 29-29-12.984-29-29a28.87 28.87 0 0 1 5.828-17.44m9.941-1.375c3.742-2.636 8.306-4.185 13.232-4.185 12.703 0 23 10.298 23 23s-10.297 23-23 23-23-10.297-23-23c0-4.87 1.514-9.387 4.097-13.106m11.454.083a14.93 14.93 0 0 1 7.448-1.977c8.284 0 15 6.716 15 15s-6.716 15-15 15-15-6.716-15-15c0-2.616.73-5.127 1.908-7.268"/><path d="M40.078 34.474a5 5 0 0 1-.623 9.962c-2.482 0-4.542-1.809-4.933-4.181"/><path d="M35.778 30.166c1.147-.459 2.4-.711 3.711-.711 5.523 0 10 4.477 10 10s-4.477 10-10 10-10-4.477-10-10a9.93 9.93 0 0 1 .686-3.59"/></g></svg>