<svg xmlns="http://www.w3.org/2000/svg" viewBox="0 0 72 72" xmlns:v="https://vecta.io/nano"><g fill="#fcea2b"><circle cx="36" cy="36.2" r="24"/><path d="M19.1 62.3c-.3-1.2-.4-2.4-.3-3.6.2-1.1 2.3-6.5 2.7-7.3s1.4-4.5 2.4-4.8 1.2.1 1.1.7-.6 7.7-.6 7.7l9.4-2.8s7.7-1.9 7.9-1c2.1 2-5.4 4.5-7.5 4.4 0 0 1.1.6.9 1.3s-.8 1.2-1 1.2.5.5.6 1.4c.9 1.8-2.8 2.3-2.8 2.3 1.3-.2 3.3 2.1.1 2.7l-4.8 1.4s-3.3 1.2-5.2-.1c-1.2-.8-2.3-2-2.9-3.5z"/></g><path d="M28.9 44.5c2.4-.7 11.9.5 14.1 2.1M22.4 22.5c1.3-.9 2.8-1.3 4.4-1.1 1.6 0 3.1.6 4.2 1.7m20.1 3.4a18.94 18.94 0 0 0-8.2-.3M42 58.4c12.3-3.3 19.5-15.9 16.2-28.2S42.3 10.7 30 14a23.02 23.02 0 0 0-17 22.2c0 4.6 1.4 9.2 4 13" fill="none" stroke="#000" stroke-linecap="round" stroke-linejoin="round" stroke-width="2"/><path d="M31 30.7c0 1.7-1.3 3-3 3s-3-1.3-3-3 1.3-3 3-3 3 1.3 3 3m17 3c0 1.7-1.3 3-3 3s-3-1.3-3-3 1.3-3 3-3 3 1.3 3 3"/><path fill="none" stroke="#000" stroke-linejoin="round" stroke-width="2" d="M19.7 56.7c-1 1.6-1.2 3.7-.5 5.5 1.1 3.3 4 5.2 7.2 4.2l4.9-1.4 1-.3c.8-.2 1.3-1.1 1.1-1.8h0c-.2-.5-.6-.9-1.2-1l1.2-.3c.8-.2 1.3-1.1 1.1-1.8-.2-.5-.6-1-1.2-1.1l1.2-.4c.8-.2 1.3-1.1 1.1-1.8-.1-.5-.5-.9-1-1l6.4-1.9c.8-.2 1.3-1.1 1.1-1.8s-1.1-1.3-1.8-1.1h0l-10.2 3-5.1 1.5.6-7.8c.1-.9-1.5-1.2-2.1.2l-3.8 9.1z"/></svg>