<svg xmlns="http://www.w3.org/2000/svg" width="24" height="24" fill="none" xmlns:v="https://vecta.io/nano"><path d="M15.631 7.631c-.396-.396-.594-.594-.668-.822a1 1 0 0 1 0-.618c.074-.228.272-.426.668-.822L18.47 2.53A5.98 5.98 0 0 0 16 2a6 6 0 0 0-6 6 6.02 6.02 0 0 0 .17 1.425c.119.489.179.734.168.888a.85.85 0 0 1-.11.392c-.071.137-.208.274-.481.547L3.5 17.5a2.12 2.12 0 1 0 3 3l6.248-6.248c.273-.273.41-.41.547-.481a.85.85 0 0 1 .392-.11c.155-.011.399.049.888.168.457.111.934.17 1.425.17a6 6 0 0 0 6-6c0-.88-.19-1.717-.53-2.47l-2.838 2.838c-.396.396-.594.594-.822.668a1 1 0 0 1-.618 0c-.228-.074-.426-.272-.822-.668l-.737-.737z" stroke="#fff" stroke-width="2" stroke-linejoin="round"/></svg>